<?xml version="1.0" encoding="UTF-8" standalone="no"?>
<!-- Created with Inkscape (http://www.inkscape.org/) -->

<svg
   xmlns:dc="http://purl.org/dc/elements/1.1/"
   xmlns:cc="http://creativecommons.org/ns#"
   xmlns:rdf="http://www.w3.org/1999/02/22-rdf-syntax-ns#"
   xmlns:svg="http://www.w3.org/2000/svg"
   xmlns="http://www.w3.org/2000/svg"
   xmlns:sodipodi="http://sodipodi.sourceforge.net/DTD/sodipodi-0.dtd"
   xmlns:inkscape="http://www.inkscape.org/namespaces/inkscape"
   width="210.13547mm"
   height="26.85449mm"
   viewBox="0 0 210.13547 26.85449"
   version="1.1"
   id="svg8"
   inkscape:version="0.92.3 (2405546, 2018-03-11)"
   sodipodi:docname="ml_classic_system.svg"
   inkscape:export-filename="/home/manuel/Bachelor_Arbeit/bilder/asdf.png"
   inkscape:export-xdpi="96"
   inkscape:export-ydpi="96">
  <defs
     id="defs2">
    <marker
       inkscape:stockid="Arrow2Lstart"
       orient="auto"
       refY="0"
       refX="0"
       id="Arrow2Lstart"
       style="overflow:visible"
       inkscape:isstock="true">
      <path
         id="path4560"
         style="fill:#000000;fill-opacity:1;fill-rule:evenodd;stroke:#000000;stroke-width:0.625;stroke-linejoin:round;stroke-opacity:1"
         d="M 8.7185878,4.0337352 -2.2072895,0.01601326 8.7185884,-4.0017078 c -1.7454984,2.3720609 -1.7354408,5.6174519 -6e-7,8.035443 z"
         transform="matrix(1.1,0,0,1.1,1.1,0)"
         inkscape:connector-curvature="0" />
    </marker>
    <marker
       inkscape:stockid="Arrow1Mstart"
       orient="auto"
       refY="0"
       refX="0"
       id="Arrow1Mstart"
       style="overflow:visible"
       inkscape:isstock="true">
      <path
         id="path4548"
         d="M 0,0 5,-5 -12.5,0 5,5 Z"
         style="fill:#000000;fill-opacity:1;fill-rule:evenodd;stroke:#000000;stroke-width:1.00000003pt;stroke-opacity:1"
         transform="matrix(0.4,0,0,0.4,4,0)"
         inkscape:connector-curvature="0" />
    </marker>
    <marker
       inkscape:stockid="Arrow1Lend"
       orient="auto"
       refY="0"
       refX="0"
       id="Arrow1Lend"
       style="overflow:visible"
       inkscape:isstock="true">
      <path
         id="path4545"
         d="M 0,0 5,-5 -12.5,0 5,5 Z"
         style="fill:#000000;fill-opacity:1;fill-rule:evenodd;stroke:#000000;stroke-width:1.00000003pt;stroke-opacity:1"
         transform="matrix(-0.8,0,0,-0.8,-10,0)"
         inkscape:connector-curvature="0" />
    </marker>
    <marker
       inkscape:stockid="Arrow2Lstart"
       orient="auto"
       refY="0"
       refX="0"
       id="Arrow2Lstart-3"
       style="overflow:visible"
       inkscape:isstock="true">
      <path
         inkscape:connector-curvature="0"
         id="path4560-6"
         style="fill:#000000;fill-opacity:1;fill-rule:evenodd;stroke:#000000;stroke-width:0.625;stroke-linejoin:round;stroke-opacity:1"
         d="M 8.7185878,4.0337352 -2.2072895,0.01601326 8.7185884,-4.0017078 c -1.7454984,2.3720609 -1.7354408,5.6174519 -6e-7,8.035443 z"
         transform="matrix(1.1,0,0,1.1,1.1,0)" />
    </marker>
    <marker
       inkscape:stockid="Arrow2Lstart"
       orient="auto"
       refY="0"
       refX="0"
       id="Arrow2Lstart-5"
       style="overflow:visible"
       inkscape:isstock="true">
      <path
         inkscape:connector-curvature="0"
         id="path4560-3"
         style="fill:#000000;fill-opacity:1;fill-rule:evenodd;stroke:#000000;stroke-width:0.625;stroke-linejoin:round;stroke-opacity:1"
         d="M 8.7185878,4.0337352 -2.2072895,0.01601326 8.7185884,-4.0017078 c -1.7454984,2.3720609 -1.7354408,5.6174519 -6e-7,8.035443 z"
         transform="matrix(1.1,0,0,1.1,1.1,0)" />
    </marker>
    <marker
       inkscape:stockid="Arrow2Lstart"
       orient="auto"
       refY="0"
       refX="0"
       id="Arrow2Lstart-3-6"
       style="overflow:visible"
       inkscape:isstock="true">
      <path
         inkscape:connector-curvature="0"
         id="path4560-6-2"
         style="fill:#000000;fill-opacity:1;fill-rule:evenodd;stroke:#000000;stroke-width:0.625;stroke-linejoin:round;stroke-opacity:1"
         d="M 8.7185878,4.0337352 -2.2072895,0.01601326 8.7185884,-4.0017078 c -1.7454984,2.3720609 -1.7354408,5.6174519 -6e-7,8.035443 z"
         transform="matrix(1.1,0,0,1.1,1.1,0)" />
    </marker>
    <marker
       inkscape:stockid="Arrow2Lstart"
       orient="auto"
       refY="0"
       refX="0"
       id="Arrow2Lstart-5-9"
       style="overflow:visible"
       inkscape:isstock="true">
      <path
         inkscape:connector-curvature="0"
         id="path4560-3-1"
         style="fill:#000000;fill-opacity:1;fill-rule:evenodd;stroke:#000000;stroke-width:0.625;stroke-linejoin:round;stroke-opacity:1"
         d="M 8.7185878,4.0337352 -2.2072895,0.01601326 8.7185884,-4.0017078 c -1.7454984,2.3720609 -1.7354408,5.6174519 -6e-7,8.035443 z"
         transform="matrix(1.1,0,0,1.1,1.1,0)" />
    </marker>
    <marker
       inkscape:stockid="Arrow2Lstart"
       orient="auto"
       refY="0"
       refX="0"
       id="Arrow2Lstart-5-9-7"
       style="overflow:visible"
       inkscape:isstock="true">
      <path
         inkscape:connector-curvature="0"
         id="path4560-3-1-0"
         style="fill:#000000;fill-opacity:1;fill-rule:evenodd;stroke:#000000;stroke-width:0.625;stroke-linejoin:round;stroke-opacity:1"
         d="M 8.7185878,4.0337352 -2.2072895,0.01601326 8.7185884,-4.0017078 c -1.7454984,2.3720609 -1.7354408,5.6174519 -6e-7,8.035443 z"
         transform="matrix(1.1,0,0,1.1,1.1,0)" />
    </marker>
    <marker
       inkscape:stockid="Arrow2Lstart"
       orient="auto"
       refY="0"
       refX="0"
       id="Arrow2Lstart-5-9-7-6"
       style="overflow:visible"
       inkscape:isstock="true">
      <path
         inkscape:connector-curvature="0"
         id="path4560-3-1-0-2"
         style="fill:#000000;fill-opacity:1;fill-rule:evenodd;stroke:#000000;stroke-width:0.625;stroke-linejoin:round;stroke-opacity:1"
         d="M 8.7185878,4.0337352 -2.2072895,0.01601326 8.7185884,-4.0017078 c -1.7454984,2.3720609 -1.7354408,5.6174519 -6e-7,8.035443 z"
         transform="matrix(1.1,0,0,1.1,1.1,0)" />
    </marker>
    <marker
       inkscape:stockid="Arrow2Lstart"
       orient="auto"
       refY="0"
       refX="0"
       id="Arrow2Lstart-5-9-5"
       style="overflow:visible"
       inkscape:isstock="true">
      <path
         inkscape:connector-curvature="0"
         id="path4560-3-1-2"
         style="fill:#000000;fill-opacity:1;fill-rule:evenodd;stroke:#000000;stroke-width:0.625;stroke-linejoin:round;stroke-opacity:1"
         d="M 8.7185878,4.0337352 -2.2072895,0.01601326 8.7185884,-4.0017078 c -1.7454984,2.3720609 -1.7354408,5.6174519 -6e-7,8.035443 z"
         transform="matrix(1.1,0,0,1.1,1.1,0)" />
    </marker>
    <marker
       inkscape:stockid="Arrow2Lstart"
       orient="auto"
       refY="0"
       refX="0"
       id="Arrow2Lstart-5-6"
       style="overflow:visible"
       inkscape:isstock="true">
      <path
         inkscape:connector-curvature="0"
         id="path4560-3-9"
         style="fill:#000000;fill-opacity:1;fill-rule:evenodd;stroke:#000000;stroke-width:0.625;stroke-linejoin:round;stroke-opacity:1"
         d="M 8.7185878,4.0337352 -2.2072895,0.01601326 8.7185884,-4.0017078 c -1.7454984,2.3720609 -1.7354408,5.6174519 -6e-7,8.035443 z"
         transform="matrix(1.1,0,0,1.1,1.1,0)" />
    </marker>
    <marker
       inkscape:stockid="Arrow2Lstart"
       orient="auto"
       refY="0"
       refX="0"
       id="Arrow2Lstart-5-9-7-0"
       style="overflow:visible"
       inkscape:isstock="true">
      <path
         inkscape:connector-curvature="0"
         id="path4560-3-1-0-0"
         style="fill:#000000;fill-opacity:1;fill-rule:evenodd;stroke:#000000;stroke-width:0.625;stroke-linejoin:round;stroke-opacity:1"
         d="M 8.7185878,4.0337352 -2.2072895,0.01601326 8.7185884,-4.0017078 c -1.7454984,2.3720609 -1.7354408,5.6174519 -6e-7,8.035443 z"
         transform="matrix(1.1,0,0,1.1,1.1,0)" />
    </marker>
    <marker
       inkscape:stockid="Arrow2Lstart"
       orient="auto"
       refY="0"
       refX="0"
       id="Arrow2Lstart-5-9-7-3"
       style="overflow:visible"
       inkscape:isstock="true">
      <path
         inkscape:connector-curvature="0"
         id="path4560-3-1-0-3"
         style="fill:#000000;fill-opacity:1;fill-rule:evenodd;stroke:#000000;stroke-width:0.625;stroke-linejoin:round;stroke-opacity:1"
         d="M 8.7185878,4.0337352 -2.2072895,0.01601326 8.7185884,-4.0017078 c -1.7454984,2.3720609 -1.7354408,5.6174519 -6e-7,8.035443 z"
         transform="matrix(1.1,0,0,1.1,1.1,0)" />
    </marker>
    <marker
       inkscape:stockid="Arrow2Lstart"
       orient="auto"
       refY="0"
       refX="0"
       id="Arrow2Lstart-5-9-7-3-0"
       style="overflow:visible"
       inkscape:isstock="true">
      <path
         inkscape:connector-curvature="0"
         id="path4560-3-1-0-3-0"
         style="fill:#000000;fill-opacity:1;fill-rule:evenodd;stroke:#000000;stroke-width:0.625;stroke-linejoin:round;stroke-opacity:1"
         d="M 8.7185878,4.0337352 -2.2072895,0.01601326 8.7185884,-4.0017078 c -1.7454984,2.3720609 -1.7354408,5.6174519 -6e-7,8.035443 z"
         transform="matrix(1.1,0,0,1.1,1.1,0)" />
    </marker>
    <marker
       inkscape:stockid="Arrow2Lstart"
       orient="auto"
       refY="0"
       refX="0"
       id="Arrow2Lstart-5-9-7-3-2"
       style="overflow:visible"
       inkscape:isstock="true">
      <path
         inkscape:connector-curvature="0"
         id="path4560-3-1-0-3-2"
         style="fill:#000000;fill-opacity:1;fill-rule:evenodd;stroke:#000000;stroke-width:0.625;stroke-linejoin:round;stroke-opacity:1"
         d="M 8.7185878,4.0337352 -2.2072895,0.01601326 8.7185884,-4.0017078 c -1.7454984,2.3720609 -1.7354408,5.6174519 -6e-7,8.035443 z"
         transform="matrix(1.1,0,0,1.1,1.1,0)" />
    </marker>
    <marker
       inkscape:stockid="Arrow2Lstart"
       orient="auto"
       refY="0"
       refX="0"
       id="Arrow2Lstart-5-9-7-3-7"
       style="overflow:visible"
       inkscape:isstock="true">
      <path
         inkscape:connector-curvature="0"
         id="path4560-3-1-0-3-9"
         style="fill:#000000;fill-opacity:1;fill-rule:evenodd;stroke:#000000;stroke-width:0.625;stroke-linejoin:round;stroke-opacity:1"
         d="M 8.7185878,4.0337352 -2.2072895,0.01601326 8.7185884,-4.0017078 c -1.7454984,2.3720609 -1.7354408,5.6174519 -6e-7,8.035443 z"
         transform="matrix(1.1,0,0,1.1,1.1,0)" />
    </marker>
    <marker
       inkscape:stockid="Arrow2Lstart"
       orient="auto"
       refY="0"
       refX="0"
       id="Arrow2Lstart-5-9-7-3-5"
       style="overflow:visible"
       inkscape:isstock="true">
      <path
         inkscape:connector-curvature="0"
         id="path4560-3-1-0-3-4"
         style="fill:#000000;fill-opacity:1;fill-rule:evenodd;stroke:#000000;stroke-width:0.625;stroke-linejoin:round;stroke-opacity:1"
         d="M 8.7185878,4.0337352 -2.2072895,0.01601326 8.7185884,-4.0017078 c -1.7454984,2.3720609 -1.7354408,5.6174519 -6e-7,8.035443 z"
         transform="matrix(1.1,0,0,1.1,1.1,0)" />
    </marker>
    <marker
       inkscape:stockid="Arrow2Lstart"
       orient="auto"
       refY="0"
       refX="0"
       id="Arrow2Lstart-5-9-7-3-2-9"
       style="overflow:visible"
       inkscape:isstock="true">
      <path
         inkscape:connector-curvature="0"
         id="path4560-3-1-0-3-2-8"
         style="fill:#000000;fill-opacity:1;fill-rule:evenodd;stroke:#000000;stroke-width:0.625;stroke-linejoin:round;stroke-opacity:1"
         d="M 8.7185878,4.0337352 -2.2072895,0.01601326 8.7185884,-4.0017078 c -1.7454984,2.3720609 -1.7354408,5.6174519 -6e-7,8.035443 z"
         transform="matrix(1.1,0,0,1.1,1.1,0)" />
    </marker>
    <marker
       inkscape:stockid="Arrow2Lstart"
       orient="auto"
       refY="0"
       refX="0"
       id="Arrow2Lstart-5-9-7-3-1"
       style="overflow:visible"
       inkscape:isstock="true">
      <path
         inkscape:connector-curvature="0"
         id="path4560-3-1-0-3-6"
         style="fill:#000000;fill-opacity:1;fill-rule:evenodd;stroke:#000000;stroke-width:0.625;stroke-linejoin:round;stroke-opacity:1"
         d="M 8.7185878,4.0337352 -2.2072895,0.01601326 8.7185884,-4.0017078 c -1.7454984,2.3720609 -1.7354408,5.6174519 -6e-7,8.035443 z"
         transform="matrix(1.1,0,0,1.1,1.1,0)" />
    </marker>
    <marker
       inkscape:stockid="Arrow2Lstart"
       orient="auto"
       refY="0"
       refX="0"
       id="Arrow2Lstart-5-9-7-4"
       style="overflow:visible"
       inkscape:isstock="true">
      <path
         inkscape:connector-curvature="0"
         id="path4560-3-1-0-8"
         style="fill:#000000;fill-opacity:1;fill-rule:evenodd;stroke:#000000;stroke-width:0.625;stroke-linejoin:round;stroke-opacity:1"
         d="M 8.7185878,4.0337352 -2.2072895,0.01601326 8.7185884,-4.0017078 c -1.7454984,2.3720609 -1.7354408,5.6174519 -6e-7,8.035443 z"
         transform="matrix(1.1,0,0,1.1,1.1,0)" />
    </marker>
    <marker
       inkscape:stockid="Arrow2Lstart"
       orient="auto"
       refY="0"
       refX="0"
       id="Arrow2Lstart-5-9-7-3-2-9-3"
       style="overflow:visible"
       inkscape:isstock="true">
      <path
         inkscape:connector-curvature="0"
         id="path4560-3-1-0-3-2-8-6"
         style="fill:#000000;fill-opacity:1;fill-rule:evenodd;stroke:#000000;stroke-width:0.625;stroke-linejoin:round;stroke-opacity:1"
         d="M 8.7185878,4.0337352 -2.2072895,0.01601326 8.7185884,-4.0017078 c -1.7454984,2.3720609 -1.7354408,5.6174519 -6e-7,8.035443 z"
         transform="matrix(1.1,0,0,1.1,1.1,0)" />
    </marker>
    <marker
       inkscape:stockid="Arrow2Lstart"
       orient="auto"
       refY="0"
       refX="0"
       id="Arrow2Lstart-5-9-7-3-1-7"
       style="overflow:visible"
       inkscape:isstock="true">
      <path
         inkscape:connector-curvature="0"
         id="path4560-3-1-0-3-6-5"
         style="fill:#000000;fill-opacity:1;fill-rule:evenodd;stroke:#000000;stroke-width:0.625;stroke-linejoin:round;stroke-opacity:1"
         d="M 8.7185878,4.0337352 -2.2072895,0.01601326 8.7185884,-4.0017078 c -1.7454984,2.3720609 -1.7354408,5.6174519 -6e-7,8.035443 z"
         transform="matrix(1.1,0,0,1.1,1.1,0)" />
    </marker>
    <marker
       inkscape:stockid="Arrow2Lstart"
       orient="auto"
       refY="0"
       refX="0"
       id="Arrow2Lstart-5-9-7-4-3"
       style="overflow:visible"
       inkscape:isstock="true">
      <path
         inkscape:connector-curvature="0"
         id="path4560-3-1-0-8-5"
         style="fill:#000000;fill-opacity:1;fill-rule:evenodd;stroke:#000000;stroke-width:0.625;stroke-linejoin:round;stroke-opacity:1"
         d="M 8.7185878,4.0337352 -2.2072895,0.01601326 8.7185884,-4.0017078 c -1.7454984,2.3720609 -1.7354408,5.6174519 -6e-7,8.035443 z"
         transform="matrix(1.1,0,0,1.1,1.1,0)" />
    </marker>
    <marker
       inkscape:stockid="Arrow2Lstart"
       orient="auto"
       refY="0"
       refX="0"
       id="Arrow2Lstart-5-9-7-3-2-9-3-5"
       style="overflow:visible"
       inkscape:isstock="true">
      <path
         inkscape:connector-curvature="0"
         id="path4560-3-1-0-3-2-8-6-4"
         style="fill:#000000;fill-opacity:1;fill-rule:evenodd;stroke:#000000;stroke-width:0.625;stroke-linejoin:round;stroke-opacity:1"
         d="M 8.7185878,4.0337352 -2.2072895,0.01601326 8.7185884,-4.0017078 c -1.7454984,2.3720609 -1.7354408,5.6174519 -6e-7,8.035443 z"
         transform="matrix(1.1,0,0,1.1,1.1,0)" />
    </marker>
    <marker
       inkscape:stockid="Arrow2Lstart"
       orient="auto"
       refY="0"
       refX="0"
       id="Arrow2Lstart-5-9-7-3-1-7-0"
       style="overflow:visible"
       inkscape:isstock="true">
      <path
         inkscape:connector-curvature="0"
         id="path4560-3-1-0-3-6-5-5"
         style="fill:#000000;fill-opacity:1;fill-rule:evenodd;stroke:#000000;stroke-width:0.625;stroke-linejoin:round;stroke-opacity:1"
         d="M 8.7185878,4.0337352 -2.2072895,0.01601326 8.7185884,-4.0017078 c -1.7454984,2.3720609 -1.7354408,5.6174519 -6e-7,8.035443 z"
         transform="matrix(1.1,0,0,1.1,1.1,0)" />
    </marker>
    <marker
       inkscape:stockid="Arrow2Lstart"
       orient="auto"
       refY="0"
       refX="0"
       id="Arrow2Lstart-5-9-7-4-3-9"
       style="overflow:visible"
       inkscape:isstock="true">
      <path
         inkscape:connector-curvature="0"
         id="path4560-3-1-0-8-5-4"
         style="fill:#000000;fill-opacity:1;fill-rule:evenodd;stroke:#000000;stroke-width:0.625;stroke-linejoin:round;stroke-opacity:1"
         d="M 8.7185878,4.0337352 -2.2072895,0.01601326 8.7185884,-4.0017078 c -1.7454984,2.3720609 -1.7354408,5.6174519 -6e-7,8.035443 z"
         transform="matrix(1.1,0,0,1.1,1.1,0)" />
    </marker>
  </defs>
  <sodipodi:namedview
     id="base"
     pagecolor="#ffffff"
     bordercolor="#666666"
     borderopacity="1.0"
     inkscape:pageopacity="0.0"
     inkscape:pageshadow="2"
     inkscape:zoom="1.5037599"
     inkscape:cx="318.27346"
     inkscape:cy="-29.743498"
     inkscape:document-units="mm"
     inkscape:current-layer="layer1"
     showgrid="true"
     inkscape:snap-others="true"
     inkscape:measure-start="291.27,713.545"
     inkscape:measure-end="291.935,714.875"
     inkscape:window-width="1853"
     inkscape:window-height="1025"
     inkscape:window-x="67"
     inkscape:window-y="27"
     inkscape:window-maximized="1"
     fit-margin-top="0"
     fit-margin-left="0"
     fit-margin-right="0"
     fit-margin-bottom="0"
     units="mm">
    <inkscape:grid
       type="xygrid"
       id="grid1105"
       originx="9.3984662"
       originy="-199.41843" />
  </sodipodi:namedview>
  <metadata
     id="metadata5">
    <rdf:RDF>
      <cc:Work
         rdf:about="">
        <dc:format>image/svg+xml</dc:format>
        <dc:type
           rdf:resource="http://purl.org/dc/dcmitype/StillImage" />
        <dc:title></dc:title>
      </cc:Work>
    </rdf:RDF>
  </metadata>
  <g
     inkscape:label="Layer 1"
     inkscape:groupmode="layer"
     id="layer1"
     transform="translate(9.3984657,-70.727078)">
    <text
       xml:space="preserve"
       style="font-style:normal;font-weight:normal;font-size:10.58333302px;line-height:1.08000004;font-family:sans-serif;text-align:start;letter-spacing:0px;word-spacing:0px;text-anchor:start;fill:#000000;fill-opacity:1;stroke:none;stroke-width:0.26458332"
       x="46.504898"
       y="59.397388"
       id="text7881"><tspan
         sodipodi:role="line"
         id="tspan7879"
         x="46.504898"
         y="67.861572"
         style="line-height:1.08000004;text-align:start;text-anchor:start;stroke-width:0.26458332" /></text>
    <flowRoot
       xml:space="preserve"
       id="flowRoot1122"
       style="fill:black;fill-opacity:1;stroke:none;font-family:sans-serif;font-style:normal;font-weight:normal;font-size:40px;line-height:1.25;letter-spacing:0px;word-spacing:0px"><flowRegion
         id="flowRegion1124"><rect
           id="rect1126"
           width="330"
           height="160"
           x="285.52176"
           y="175.20474" /></flowRegion><flowPara
         id="flowPara1128" /></flowRoot>    <flowRoot
       xml:space="preserve"
       id="flowRoot1141"
       style="fill:black;fill-opacity:1;stroke:none;font-family:sans-serif;font-style:normal;font-weight:normal;font-size:40px;line-height:1.25;letter-spacing:0px;word-spacing:0px"><flowRegion
         id="flowRegion1143"><rect
           id="rect1145"
           width="370"
           height="100"
           x="105.52176"
           y="165.20474" /></flowRegion><flowPara
         id="flowPara1147" /></flowRoot>    <text
       xml:space="preserve"
       style="font-style:normal;font-weight:normal;font-size:10.58333302px;line-height:1.25;font-family:sans-serif;letter-spacing:0px;word-spacing:0px;fill:#000000;fill-opacity:1;stroke:none;stroke-width:0.26458332"
       x="89.958328"
       y="119.72916"
       id="text1151"><tspan
         sodipodi:role="line"
         id="tspan1149"
         x="89.958328"
         y="129.09293"
         style="stroke-width:0.26458332" /></text>
    <g
       id="g1097">
      <path
         inkscape:connector-curvature="0"
         id="rect20-5-6"
         d="M 17.741979,74.777781 H 57.725502 V 95.886347 H 17.741979 Z"
         style="fill:#ffffff;stroke:#000000;stroke-width:0.21808241;stroke-opacity:1" />
      <path
         inkscape:connector-curvature="0"
         id="path4540-5-2-9-01-2"
         d="M 67.454952,84.864352 H 57.679071"
         style="fill:none;stroke:#000000;stroke-width:0.19147125;stroke-linecap:butt;stroke-linejoin:miter;stroke-miterlimit:4;stroke-dasharray:none;stroke-opacity:1;marker-start:url(#Arrow2Lstart-5-9-7-4-3)" />
      <path
         inkscape:connector-curvature="0"
         id="path4540-5-2-9-0-2-0"
         d="M 17.364749,81.113306 H 7.5888749"
         style="fill:none;stroke:#000000;stroke-width:0.19147125;stroke-linecap:butt;stroke-linejoin:miter;stroke-miterlimit:4;stroke-dasharray:none;stroke-opacity:1;marker-start:url(#Arrow2Lstart-5-9-7-3-1-7)" />
      <path
         inkscape:connector-curvature="0"
         id="path4540-5-2-9-0-4-8-9"
         d="M 17.364759,88.327172 H 7.5888749"
         style="fill:none;stroke:#000000;stroke-width:0.19147125;stroke-linecap:butt;stroke-linejoin:miter;stroke-miterlimit:4;stroke-dasharray:none;stroke-opacity:1;marker-start:url(#Arrow2Lstart-5-9-7-3-2-9-3)" />
      <path
         inkscape:connector-curvature="0"
         id="rect20-5-6-6"
         d="m 133.24052,74.776459 h 39.98352 v 21.108567 h -39.98352 z"
         style="fill:none;stroke:#000000;stroke-width:0.21808241;stroke-opacity:1" />
      <path
         inkscape:connector-curvature="0"
         id="path4540-5-2-9-01-2-9"
         d="m 182.9535,84.863029 h -9.77588"
         style="fill:none;stroke:#000000;stroke-width:0.19147125;stroke-linecap:butt;stroke-linejoin:miter;stroke-miterlimit:4;stroke-dasharray:none;stroke-opacity:1;marker-start:url(#Arrow2Lstart-5-9-7-4-3-9)" />
      <path
         inkscape:connector-curvature="0"
         id="path4540-5-2-9-0-2-0-7"
         d="m 132.86329,81.111979 h -9.77587"
         style="fill:none;stroke:#000000;stroke-width:0.19147125;stroke-linecap:butt;stroke-linejoin:miter;stroke-miterlimit:4;stroke-dasharray:none;stroke-opacity:1;marker-start:url(#Arrow2Lstart-5-9-7-3-1-7-0)" />
      <path
         inkscape:connector-curvature="0"
         id="path4540-5-2-9-0-4-8-9-7"
         d="m 132.8633,88.325849 h -9.77588"
         style="fill:none;stroke:#000000;stroke-width:0.19147125;stroke-linecap:butt;stroke-linejoin:miter;stroke-miterlimit:4;stroke-dasharray:none;stroke-opacity:1;marker-start:url(#Arrow2Lstart-5-9-7-3-2-9-3-5)" />
      <g
         aria-label="Klassisches
Programm"
         style="font-style:normal;font-variant:normal;font-weight:normal;font-stretch:normal;font-size:7.08024979px;line-height:1.25;font-family:'Liberation Serif';-inkscape-font-specification:'Liberation Serif, Normal';font-variant-ligatures:normal;font-variant-caps:normal;font-variant-numeric:normal;font-feature-settings:normal;text-align:center;letter-spacing:0px;word-spacing:0px;writing-mode:lr-tb;text-anchor:middle;fill:#000000;fill-opacity:1;stroke:none;stroke-width:0.17700322"
         id="text1108">
        <path
           d="m 25.852923,78.35922 v 0.183229 l -0.535859,0.08989 -1.583376,1.548804 1.980949,2.537551 0.501287,0.09334 v 0.183229 h -1.133946 l -1.815006,-2.34395 -0.625745,0.501287 v 1.566091 l 0.663774,0.09334 v 0.183229 h -1.925635 v -0.183229 l 0.594631,-0.09334 v -4.086355 l -0.594631,-0.08989 V 78.35922 h 1.856492 v 0.183229 l -0.594631,0.08989 v 2.184921 l 2.219493,-2.184921 -0.459802,-0.08989 V 78.35922 Z"
           style=""
           id="path1099" />
        <path
           d="m 27.560756,82.753261 0.556602,0.08643 v 0.155572 H 26.433724 V 82.83969 l 0.553145,-0.08643 v -4.43207 l -0.553145,-0.08297 v -0.155572 h 1.127032 z"
           style=""
           id="path1101" />
        <path
           d="m 29.86322,79.672938 q 0.532402,0 0.781317,0.217801 0.252372,0.2178 0.252372,0.66723 v 2.195292 l 0.404487,0.08643 v 0.155572 h -0.891945 l -0.06569,-0.324972 q -0.394116,0.394115 -1.006032,0.394115 -0.833174,0 -0.833174,-0.968003 0,-0.324972 0.124458,-0.535858 0.127914,-0.214344 0.404487,-0.324973 0.276572,-0.114086 0.802059,-0.124457 l 0.487459,-0.01383 v -0.508201 q 0,-0.335344 -0.124458,-0.494373 -0.121,-0.159029 -0.376829,-0.159029 -0.345716,0 -0.632659,0.162486 l -0.117544,0.404487 h -0.1936 v -0.708717 q 0.560059,-0.121 0.985288,-0.121 z m 0.459802,1.666348 -0.452887,0.01383 q -0.463259,0.01729 -0.629202,0.179772 -0.162486,0.162487 -0.162486,0.542773 0,0.608459 0.494373,0.608459 0.235086,0 0.404487,-0.05186 0.172857,-0.05531 0.345715,-0.138286 z"
           style=""
           id="path1103" />
        <path
           d="m 33.894261,82.082574 q 0,0.484001 -0.307686,0.732916 -0.30423,0.248915 -0.902317,0.248915 -0.242001,0 -0.535859,-0.05186 -0.290401,-0.0484 -0.456344,-0.110629 v -0.798602 h 0.155572 l 0.1694,0.452887 q 0.259287,0.235086 0.674145,0.235086 0.670688,0 0.670688,-0.573887 0,-0.421773 -0.528945,-0.601545 l -0.307686,-0.100257 q -0.349173,-0.114086 -0.508202,-0.23163 -0.159029,-0.117543 -0.245458,-0.286943 -0.08643,-0.172858 -0.08643,-0.414859 0,-0.428687 0.290401,-0.674145 0.293858,-0.248915 0.791688,-0.248915 0.356087,0 0.891946,0.107172 v 0.708716 h -0.162486 l -0.145201,-0.376829 q -0.183229,-0.162486 -0.577344,-0.162486 -0.28003,0 -0.428687,0.138286 -0.145201,0.138286 -0.145201,0.373372 0,0.197058 0.131372,0.331887 0.134829,0.134829 0.404487,0.224715 0.508202,0.172858 0.663773,0.252372 0.155572,0.07952 0.262744,0.197058 0.110629,0.114086 0.169401,0.262743 0.06223,0.148658 0.06223,0.366459 z"
           style=""
           id="path1105" />
        <path
           d="m 36.646155,82.082574 q 0,0.484001 -0.307686,0.732916 -0.30423,0.248915 -0.902317,0.248915 -0.242001,0 -0.535859,-0.05186 -0.290401,-0.0484 -0.456344,-0.110629 v -0.798602 h 0.155572 l 0.1694,0.452887 q 0.259287,0.235086 0.674145,0.235086 0.670688,0 0.670688,-0.573887 0,-0.421773 -0.528945,-0.601545 l -0.307686,-0.100257 q -0.349173,-0.114086 -0.508202,-0.23163 -0.159029,-0.117543 -0.245458,-0.286943 -0.08643,-0.172858 -0.08643,-0.414859 0,-0.428687 0.290401,-0.674145 0.293858,-0.248915 0.791688,-0.248915 0.356087,0 0.891946,0.107172 v 0.708716 h -0.162486 l -0.145201,-0.376829 q -0.183229,-0.162486 -0.577344,-0.162486 -0.28003,0 -0.428687,0.138286 -0.145201,0.138286 -0.145201,0.373372 0,0.197058 0.131372,0.331887 0.134829,0.134829 0.404487,0.224715 0.508202,0.172858 0.663773,0.252372 0.155572,0.07952 0.262744,0.197058 0.110629,0.114086 0.169401,0.262743 0.06223,0.148658 0.06223,0.366459 z"
           style=""
           id="path1107" />
        <path
           d="m 38.208789,78.684192 q 0,0.152115 -0.110629,0.262744 -0.110629,0.110629 -0.266201,0.110629 -0.152115,0 -0.262744,-0.110629 -0.110629,-0.110629 -0.110629,-0.262744 0,-0.155572 0.110629,-0.266201 0.110629,-0.110629 0.262744,-0.110629 0.155572,0 0.266201,0.110629 0.110629,0.110629 0.110629,0.266201 z m -0.03457,4.069069 0.556602,0.08643 v 0.155572 H 37.047185 V 82.83969 l 0.553145,-0.08643 v -2.765722 l -0.459802,-0.08643 v -0.155572 h 1.033689 z"
           style=""
           id="path1109" />
        <path
           d="m 41.361712,82.082574 q 0,0.484001 -0.307686,0.732916 -0.30423,0.248915 -0.902317,0.248915 -0.242001,0 -0.535859,-0.05186 -0.290401,-0.0484 -0.456344,-0.110629 v -0.798602 h 0.155572 l 0.1694,0.452887 q 0.259287,0.235086 0.674145,0.235086 0.670688,0 0.670688,-0.573887 0,-0.421773 -0.528945,-0.601545 L 39.99268,81.515601 q -0.349173,-0.114086 -0.508202,-0.23163 -0.159029,-0.117543 -0.245458,-0.286943 -0.08643,-0.172858 -0.08643,-0.414859 0,-0.428687 0.2904,-0.674145 0.293858,-0.248915 0.791688,-0.248915 0.356087,0 0.891946,0.107172 v 0.708716 H 40.96414 l -0.145201,-0.376829 q -0.183229,-0.162486 -0.577344,-0.162486 -0.28003,0 -0.428687,0.138286 -0.145201,0.138286 -0.145201,0.373372 0,0.197058 0.131372,0.331887 0.134829,0.134829 0.404487,0.224715 0.508202,0.172858 0.663774,0.252372 0.155571,0.07952 0.262743,0.197058 0.110629,0.114086 0.169401,0.262743 0.06223,0.148658 0.06223,0.366459 z"
           style=""
           id="path1111" />
        <path
           d="m 44.538836,82.798204 q -0.1694,0.124458 -0.466715,0.197058 -0.297316,0.06914 -0.608459,0.06914 -1.579919,0 -1.579919,-1.718205 0,-0.812431 0.401029,-1.248032 0.404487,-0.439059 1.15469,-0.439059 0.466715,0 1.01986,0.107172 v 0.905774 h -0.190144 l -0.148657,-0.573887 q -0.286944,-0.162486 -0.687974,-0.162486 -0.926517,0 -0.926517,1.410518 0,0.732917 0.28003,1.047517 0.283486,0.311144 0.874659,0.311144 0.504745,0 0.878117,-0.114086 z"
           style=""
           id="path1113" />
        <path
           d="m 45.880212,79.489709 q 0,0.359544 -0.0242,0.518573 0.248915,-0.141744 0.563516,-0.245458 0.318058,-0.103715 0.535859,-0.103715 0.421772,0 0.636116,0.245458 0.214343,0.245458 0.214343,0.712174 v 2.13652 l 0.394116,0.08643 v 0.155572 H 46.799815 V 82.83969 l 0.432144,-0.08643 v -2.095034 q 0,-0.594631 -0.573888,-0.594631 -0.324972,0 -0.777859,0.100258 v 2.589407 l 0.439058,0.08643 v 0.155572 H 44.894923 V 82.83969 l 0.411401,-0.08643 v -4.43207 l -0.484001,-0.08297 v -0.155572 h 1.057889 z"
           style=""
           id="path1115" />
        <path
           d="m 49.192165,81.360029 v 0.06223 q 0,0.477088 0.103714,0.743288 0.107172,0.262744 0.324973,0.40103 0.221257,0.138286 0.577344,0.138286 0.186687,0 0.442516,-0.03111 0.255829,-0.03111 0.421773,-0.06914 v 0.1936 q -0.165944,0.107172 -0.452888,0.186687 -0.283486,0.07951 -0.580801,0.07951 -0.757117,0 -1.109746,-0.407944 -0.349173,-0.407944 -0.349173,-1.310261 0,-0.85046 0.356087,-1.268775 0.356087,-0.418316 1.016403,-0.418316 1.248032,0 1.248032,1.417433 v 0.283487 z m 0.750202,-1.424347 q -0.359544,0 -0.553145,0.2904 -0.190143,0.290401 -0.190143,0.857374 h 1.389776 q 0,-0.61883 -0.159029,-0.881574 -0.15903,-0.2662 -0.487459,-0.2662 z"
           style=""
           id="path1117" />
        <path
           d="m 53.93192,82.082574 q 0,0.484001 -0.307687,0.732916 -0.304229,0.248915 -0.902317,0.248915 -0.242,0 -0.535858,-0.05186 -0.290401,-0.0484 -0.456345,-0.110629 v -0.798602 h 0.155572 l 0.169401,0.452887 q 0.259286,0.235086 0.674145,0.235086 0.670687,0 0.670687,-0.573887 0,-0.421773 -0.528944,-0.601545 l -0.307687,-0.100257 q -0.349172,-0.114086 -0.508201,-0.23163 -0.159029,-0.117543 -0.245458,-0.286943 -0.08643,-0.172858 -0.08643,-0.414859 0,-0.428687 0.290401,-0.674145 0.293858,-0.248915 0.791688,-0.248915 0.356087,0 0.891946,0.107172 v 0.708716 h -0.162487 l -0.1452,-0.376829 q -0.183229,-0.162486 -0.577345,-0.162486 -0.280029,0 -0.428687,0.138286 -0.1452,0.138286 -0.1452,0.373372 0,0.197058 0.131372,0.331887 0.134829,0.134829 0.404487,0.224715 0.508201,0.172858 0.663773,0.252372 0.155572,0.07952 0.262744,0.197058 0.110629,0.114086 0.1694,0.262743 0.06223,0.148658 0.06223,0.366459 z"
           style=""
           id="path1119" />
        <path
           d="m 25.697351,88.582022 q 0,-0.570431 -0.266201,-0.815888 -0.266201,-0.245458 -0.895403,-0.245458 h -0.338801 v 2.195292 h 0.359544 q 0.584259,0 0.860831,-0.266201 0.28003,-0.266201 0.28003,-0.867745 z m -1.500405,1.44509 v 1.54189 l 0.736374,0.09334 v 0.183229 h -1.953292 v -0.183229 l 0.549688,-0.09334 v -4.086355 l -0.594631,-0.08989 v -0.183229 h 1.74932 q 1.700919,0 1.700919,1.365575 0,0.712174 -0.432144,1.082089 -0.428687,0.369916 -1.234204,0.369916 z"
           style=""
           id="path1121" />
        <path
           d="m 28.967818,88.509422 v 0.878116 H 28.81916 l -0.200515,-0.380286 q -0.172857,0 -0.411401,0.0484 -0.235086,0.04494 -0.407944,0.121 v 2.426922 l 0.556602,0.08643 v 0.155572 h -1.541891 v -0.155572 l 0.411402,-0.08643 v -2.765723 l -0.411402,-0.08643 V 88.59585 h 0.94726 l 0.03111,0.404487 q 0.207429,-0.172857 0.560059,-0.331886 0.356086,-0.159029 0.563516,-0.159029 z"
           style=""
           id="path1123" />
        <path
           d="m 32.307428,90.203427 q 0,1.71129 -1.521148,1.71129 -0.732916,0 -1.106289,-0.439058 -0.373372,-0.439058 -0.373372,-1.272232 0,-0.822803 0.373372,-1.258404 0.373373,-0.435601 1.133946,-0.435601 0.739831,0 1.116661,0.428687 0.37683,0.425229 0.37683,1.265318 z m -0.622288,0 q 0,-0.746745 -0.217801,-1.082089 -0.2178,-0.335344 -0.681059,-0.335344 -0.452887,0 -0.656859,0.321515 -0.200515,0.321515 -0.200515,1.095918 0,0.784773 0.203972,1.113203 0.207429,0.324972 0.653402,0.324972 0.456344,0 0.677602,-0.338801 Q 31.68514,90.964 31.68514,90.203427 Z"
           style=""
           id="path1125" />
        <path
           d="m 35.584809,89.622625 q 0,0.560059 -0.335344,0.847002 -0.335344,0.286944 -0.964546,0.286944 -0.283486,0 -0.525487,-0.05186 l -0.217801,0.452887 q 0.01037,0.05877 0.134829,0.110629 0.124458,0.05186 0.311144,0.05186 h 0.961089 q 0.525487,0 0.777859,0.228172 0.255829,0.228172 0.255829,0.629202 0,0.363001 -0.203972,0.632659 -0.200515,0.269658 -0.591173,0.414859 -0.390658,0.148657 -0.94726,0.148657 -0.663773,0 -1.012946,-0.203972 -0.345715,-0.203972 -0.345715,-0.580802 0,-0.183229 0.124457,-0.363001 0.124458,-0.176315 0.456345,-0.414858 -0.197058,-0.06569 -0.331887,-0.224715 -0.134829,-0.159029 -0.134829,-0.342258 l 0.54623,-0.615374 q -0.54623,-0.255829 -0.54623,-1.006031 0,-0.532402 0.335344,-0.822803 0.338801,-0.2904 0.981831,-0.2904 0.127915,0 0.32843,0.02766 0.200515,0.0242 0.307687,0.05877 l 0.76403,-0.383744 0.121001,0.148658 -0.480545,0.49783 q 0.23163,0.259286 0.23163,0.764031 z m -0.141744,2.662008 q 0,-0.197058 -0.121,-0.307687 -0.121,-0.110629 -0.366458,-0.110629 h -1.258404 q -0.1452,0.124458 -0.238543,0.314601 -0.08989,0.193601 -0.08989,0.359544 0,0.297315 0.214343,0.42523 0.214344,0.131372 0.656859,0.131372 0.577345,0 0.888489,-0.214344 0.3146,-0.214343 0.3146,-0.598087 z m -1.151232,-1.790806 q 0.37683,0 0.532402,-0.214343 0.159029,-0.217801 0.159029,-0.656859 0,-0.459802 -0.162486,-0.653402 -0.162486,-0.197058 -0.52203,-0.197058 -0.363001,0 -0.532402,0.197058 -0.1694,0.197058 -0.1694,0.653402 0,0.456344 0.165943,0.663773 0.165943,0.207429 0.528944,0.207429 z"
           style=""
           id="path1127" />
        <path
           d="m 38.41276,88.509422 v 0.878116 h -0.148658 l -0.200514,-0.380286 q -0.172858,0 -0.411402,0.0484 -0.235086,0.04494 -0.407944,0.121 v 2.426922 l 0.556602,0.08643 v 0.155572 h -1.54189 v -0.155572 l 0.411401,-0.08643 v -2.765723 l -0.411401,-0.08643 V 88.59585 h 0.94726 l 0.03111,0.404487 q 0.207429,-0.172857 0.560059,-0.331886 0.356087,-0.159029 0.563516,-0.159029 z"
           style=""
           id="path1129" />
        <path
           d="m 40.089479,88.52325 q 0.532402,0 0.781317,0.217801 0.252372,0.2178 0.252372,0.66723 v 2.195293 l 0.404487,0.08643 v 0.155572 h -0.891946 l -0.06569,-0.324972 q -0.394116,0.394115 -1.006032,0.394115 -0.833174,0 -0.833174,-0.968002 0,-0.324973 0.124458,-0.535859 0.127914,-0.214344 0.404487,-0.324973 0.276572,-0.114086 0.802059,-0.124457 l 0.487459,-0.01383 v -0.508201 q 0,-0.335344 -0.124458,-0.494373 -0.121,-0.159029 -0.37683,-0.159029 -0.345715,0 -0.632659,0.162486 l -0.117543,0.404487 h -0.1936 v -0.708716 q 0.560058,-0.121001 0.985288,-0.121001 z m 0.459802,1.666348 -0.452887,0.01383 q -0.463259,0.01729 -0.629202,0.179772 -0.162486,0.162486 -0.162486,0.542773 0,0.608459 0.494372,0.608459 0.235087,0 0.404487,-0.05186 0.172858,-0.05531 0.345716,-0.138286 z"
           style=""
           id="path1131" />
        <path
           d="m 42.74803,88.858594 q 0.259287,-0.148658 0.549688,-0.248915 0.290401,-0.100257 0.511658,-0.100257 0.238544,0 0.439059,0.08989 0.203972,0.08989 0.304229,0.286943 0.266201,-0.148657 0.622288,-0.262743 0.359544,-0.114086 0.59463,-0.114086 0.829717,0 0.829717,0.957631 v 2.136521 l 0.418316,0.08643 v 0.155572 H 45.54141 v -0.155572 l 0.484002,-0.08643 v -2.074292 q 0,-0.594631 -0.553145,-0.594631 -0.08989,0 -0.210886,0.01383 -0.117544,0.01383 -0.238544,0.03111 -0.117543,0.01729 -0.228172,0.04149 -0.107172,0.02074 -0.179772,0.03457 0.05877,0.186686 0.05877,0.411401 v 2.136521 l 0.487458,0.08643 v 0.155572 h -1.54189 v -0.155572 l 0.480544,-0.08643 v -2.074292 q 0,-0.286944 -0.148657,-0.439059 -0.145201,-0.155572 -0.439059,-0.155572 -0.304229,0 -0.757116,0.100258 v 2.568665 l 0.487458,0.08643 v 0.155572 h -1.472747 v -0.155572 l 0.411401,-0.08643 v -2.765723 l -0.411401,-0.08643 V 88.59585 h 0.950717 z"
           style=""
           id="path1133" />
        <path
           d="m 48.251818,88.858594 q 0.259287,-0.148658 0.549688,-0.248915 0.290401,-0.100257 0.511658,-0.100257 0.238544,0 0.439059,0.08989 0.203972,0.08989 0.304229,0.286943 0.266201,-0.148657 0.622288,-0.262743 0.359544,-0.114086 0.59463,-0.114086 0.829717,0 0.829717,0.957631 v 2.136521 l 0.418316,0.08643 v 0.155572 h -1.476205 v -0.155572 l 0.484002,-0.08643 v -2.074292 q 0,-0.594631 -0.553145,-0.594631 -0.08989,0 -0.210886,0.01383 -0.117544,0.01383 -0.238544,0.03111 -0.117543,0.01729 -0.228172,0.04149 -0.107172,0.02074 -0.179772,0.03457 0.05877,0.186686 0.05877,0.411401 v 2.136521 l 0.487458,0.08643 v 0.155572 h -1.54189 v -0.155572 l 0.480544,-0.08643 v -2.074292 q 0,-0.286944 -0.148657,-0.439059 -0.145201,-0.155572 -0.439059,-0.155572 -0.304229,0 -0.757116,0.100258 v 2.568665 l 0.487458,0.08643 v 0.155572 h -1.472747 v -0.155572 l 0.411401,-0.08643 v -2.765723 l -0.411401,-0.08643 V 88.59585 h 0.950717 z"
           style=""
           id="path1135" />
      </g>
      <g
         aria-label="ML
Programm"
         style="font-style:normal;font-weight:normal;font-size:7.08012915px;line-height:1.25;font-family:sans-serif;letter-spacing:0px;word-spacing:0px;fill:#000000;fill-opacity:1;stroke:none;stroke-width:0.17700322"
         id="text1108-0">
        <path
           d="m 151.41307,82.643364 h -0.121 l -1.69743,-3.98603 v 3.709462 l 0.62227,0.09334 v 0.183226 h -1.57989 v -0.183226 l 0.59462,-0.09334 v -4.086285 l -0.59462,-0.08989 V 78.0074 h 1.40358 l 1.50729,3.526237 1.64558,-3.526237 h 1.32753 v 0.183226 l -0.59463,0.08989 v 4.086285 l 0.59463,0.09334 v 0.183226 h -1.88066 v -0.183226 l 0.62227,-0.09334 v -3.709462 z"
           style="font-style:normal;font-variant:normal;font-weight:normal;font-stretch:normal;font-size:7.08012915px;line-height:0;font-family:'Liberation Serif';-inkscape-font-specification:'Liberation Serif, Normal';font-variant-ligatures:normal;font-variant-caps:normal;font-variant-numeric:normal;font-feature-settings:normal;text-align:center;writing-mode:lr-tb;text-anchor:middle;stroke-width:0.17700322"
           id="path1138" />
        <path
           d="m 156.90639,78.190626 -0.71562,0.08989 v 4.065543 h 0.91267 q 0.73637,0 1.08207,-0.06914 l 0.21434,-0.964529 h 0.22472 l -0.0622,1.330981 h -3.63341 v -0.183226 l 0.59462,-0.09334 v -4.086285 l -0.59462,-0.08989 V 78.0074 h 1.97746 z"
           style="font-style:normal;font-variant:normal;font-weight:normal;font-stretch:normal;font-size:7.08012915px;line-height:0;font-family:'Liberation Serif';-inkscape-font-specification:'Liberation Serif, Normal';font-variant-ligatures:normal;font-variant-caps:normal;font-variant-numeric:normal;font-feature-settings:normal;text-align:center;writing-mode:lr-tb;text-anchor:middle;stroke-width:0.17700322"
           id="path1140" />
        <path
           d="m 141.76086,88.230028 q 0,-0.57042 -0.2662,-0.815874 -0.26619,-0.245454 -0.89538,-0.245454 h -0.3388 v 2.195255 h 0.35954 q 0.58425,0 0.86082,-0.266196 0.28002,-0.266196 0.28002,-0.867731 z m -1.50038,1.445066 v 1.541864 l 0.73636,0.09334 v 0.183226 h -1.95326 v -0.183226 l 0.54968,-0.09334 v -4.086286 l -0.59462,-0.08988 v -0.183226 h 1.74929 q 1.70089,0 1.70089,1.365552 0,0.712162 -0.43214,1.082071 -0.42867,0.369909 -1.23418,0.369909 z"
           style="font-style:normal;font-variant:normal;font-weight:normal;font-stretch:normal;font-size:7.08012915px;line-height:0;font-family:'Liberation Serif';-inkscape-font-specification:'Liberation Serif, Normal';font-variant-ligatures:normal;font-variant-caps:normal;font-variant-numeric:normal;font-feature-settings:normal;text-align:center;writing-mode:lr-tb;text-anchor:middle;stroke-width:0.17700322"
           id="path1142" />
        <path
           d="m 145.03127,88.157429 v 0.878102 h -0.14865 l -0.20052,-0.38028 q -0.17285,0 -0.41139,0.0484 -0.23508,0.04494 -0.40794,0.120999 v 2.42688 l 0.5566,0.08643 v 0.155569 h -1.54187 v -0.155569 l 0.4114,-0.08643 v -2.765676 l -0.4114,-0.08643 v -0.155569 h 0.94725 l 0.0311,0.40448 q 0.20742,-0.172855 0.56005,-0.331881 0.35608,-0.159027 0.5635,-0.159027 z"
           style="font-style:normal;font-variant:normal;font-weight:normal;font-stretch:normal;font-size:7.08012915px;line-height:0;font-family:'Liberation Serif';-inkscape-font-specification:'Liberation Serif, Normal';font-variant-ligatures:normal;font-variant-caps:normal;font-variant-numeric:normal;font-feature-settings:normal;text-align:center;writing-mode:lr-tb;text-anchor:middle;stroke-width:0.17700322"
           id="path1144" />
        <path
           d="m 148.37082,89.851406 q 0,1.711261 -1.52112,1.711261 -0.7329,0 -1.10627,-0.439051 -0.37336,-0.439051 -0.37336,-1.27221 0,-0.822789 0.37336,-1.258383 0.37337,-0.435594 1.13393,-0.435594 0.73982,0 1.11664,0.42868 0.37682,0.425223 0.37682,1.265297 z m -0.62227,0 q 0,-0.746733 -0.2178,-1.082071 -0.2178,-0.335338 -0.68105,-0.335338 -0.45288,0 -0.65685,0.32151 -0.20051,0.321509 -0.20051,1.095899 0,0.78476 0.20397,1.113184 0.20743,0.324967 0.65339,0.324967 0.45634,0 0.67759,-0.338795 0.22126,-0.338796 0.22126,-1.099356 z"
           style="font-style:normal;font-variant:normal;font-weight:normal;font-stretch:normal;font-size:7.08012915px;line-height:0;font-family:'Liberation Serif';-inkscape-font-specification:'Liberation Serif, Normal';font-variant-ligatures:normal;font-variant-caps:normal;font-variant-numeric:normal;font-feature-settings:normal;text-align:center;writing-mode:lr-tb;text-anchor:middle;stroke-width:0.17700322"
           id="path1146" />
        <path
           d="m 151.64815,89.270614 q 0,0.560049 -0.33534,0.846988 -0.33534,0.286939 -0.96453,0.286939 -0.28348,0 -0.52548,-0.05186 l -0.21779,0.45288 q 0.0104,0.05877 0.13482,0.110627 0.12446,0.05186 0.31114,0.05186 h 0.96107 q 0.52548,0 0.77785,0.228168 0.25583,0.228168 0.25583,0.629191 0,0.362995 -0.20397,0.632649 -0.20051,0.269653 -0.59117,0.414851 -0.39065,0.148655 -0.94724,0.148655 -0.66376,0 -1.01293,-0.203968 -0.34571,-0.203969 -0.34571,-0.580792 0,-0.183226 0.12446,-0.362995 0.12445,-0.176312 0.45633,-0.414852 -0.19705,-0.06568 -0.33188,-0.224711 -0.13482,-0.159026 -0.13482,-0.342252 l 0.54622,-0.615363 q -0.54622,-0.255825 -0.54622,-1.006014 0,-0.532393 0.33533,-0.822789 0.3388,-0.290396 0.98182,-0.290396 0.12791,0 0.32842,0.02766 0.20051,0.0242 0.30768,0.05877 l 0.76402,-0.383738 0.121,0.148655 -0.48054,0.497822 q 0.23163,0.259282 0.23163,0.764018 z m -0.14174,2.661962 q 0,-0.197054 -0.121,-0.307681 -0.121,-0.110627 -0.36645,-0.110627 h -1.25838 q -0.1452,0.124455 -0.23854,0.314596 -0.0899,0.193597 -0.0899,0.359537 0,0.29731 0.21434,0.425223 0.21434,0.13137 0.65685,0.13137 0.57733,0 0.88847,-0.21434 0.3146,-0.21434 0.3146,-0.598078 z m -1.15121,-1.790774 q 0.37682,0 0.53239,-0.21434 0.15902,-0.217797 0.15902,-0.656848 0,-0.459794 -0.16248,-0.653391 -0.16248,-0.197054 -0.52202,-0.197054 -0.36299,0 -0.53239,0.197054 -0.1694,0.197054 -0.1694,0.653391 0,0.456336 0.16594,0.663762 0.16594,0.207426 0.52894,0.207426 z"
           style="font-style:normal;font-variant:normal;font-weight:normal;font-stretch:normal;font-size:7.08012915px;line-height:0;font-family:'Liberation Serif';-inkscape-font-specification:'Liberation Serif, Normal';font-variant-ligatures:normal;font-variant-caps:normal;font-variant-numeric:normal;font-feature-settings:normal;text-align:center;writing-mode:lr-tb;text-anchor:middle;stroke-width:0.17700322"
           id="path1148" />
        <path
           d="m 154.47605,88.157429 v 0.878102 h -0.14865 l -0.20051,-0.38028 q -0.17286,0 -0.4114,0.0484 -0.23508,0.04494 -0.40794,0.120999 v 2.42688 l 0.5566,0.08643 v 0.155569 h -1.54187 v -0.155569 l 0.4114,-0.08643 v -2.765676 l -0.4114,-0.08643 v -0.155569 h 0.94725 l 0.0311,0.40448 q 0.20743,-0.172855 0.56005,-0.331881 0.35608,-0.159027 0.56351,-0.159027 z"
           style="font-style:normal;font-variant:normal;font-weight:normal;font-stretch:normal;font-size:7.08012915px;line-height:0;font-family:'Liberation Serif';-inkscape-font-specification:'Liberation Serif, Normal';font-variant-ligatures:normal;font-variant-caps:normal;font-variant-numeric:normal;font-feature-settings:normal;text-align:center;writing-mode:lr-tb;text-anchor:middle;stroke-width:0.17700322"
           id="path1150" />
        <path
           d="m 156.15274,88.171258 q 0.5324,0 0.78131,0.217797 0.25236,0.217797 0.25236,0.667219 v 2.195255 l 0.40448,0.08643 v 0.155569 h -0.89193 l -0.0657,-0.324966 q -0.39411,0.394108 -1.00601,0.394108 -0.83316,0 -0.83316,-0.967986 0,-0.324967 0.12445,-0.53585 0.12791,-0.21434 0.40448,-0.324967 0.27657,-0.114084 0.80205,-0.124455 l 0.48745,-0.01383 v -0.508193 q 0,-0.335338 -0.12446,-0.494365 -0.121,-0.159026 -0.37682,-0.159026 -0.34571,0 -0.63265,0.162483 l -0.11754,0.40448 h -0.1936 v -0.708704 q 0.56005,-0.120998 0.98527,-0.120998 z m 0.4598,1.666319 -0.45288,0.01383 q -0.46325,0.01729 -0.62919,0.179768 -0.16249,0.162484 -0.16249,0.542764 0,0.608449 0.49437,0.608449 0.23508,0 0.40448,-0.05186 0.17285,-0.05531 0.34571,-0.138283 z"
           style="font-style:normal;font-variant:normal;font-weight:normal;font-stretch:normal;font-size:7.08012915px;line-height:0;font-family:'Liberation Serif';-inkscape-font-specification:'Liberation Serif, Normal';font-variant-ligatures:normal;font-variant-caps:normal;font-variant-numeric:normal;font-feature-settings:normal;text-align:center;writing-mode:lr-tb;text-anchor:middle;stroke-width:0.17700322"
           id="path1152" />
        <path
           d="m 158.81125,88.506596 q 0.25928,-0.148655 0.54968,-0.248911 0.29039,-0.100256 0.51165,-0.100256 0.23854,0 0.43905,0.08989 0.20397,0.08988 0.30422,0.286939 0.2662,-0.148655 0.62228,-0.26274 0.35954,-0.114084 0.59462,-0.114084 0.8297,0 0.8297,0.957616 v 2.136484 l 0.41831,0.08643 v 0.155569 h -1.47618 v -0.155569 l 0.48399,-0.08643 v -2.074257 q 0,-0.59462 -0.55313,-0.59462 -0.0899,0 -0.21088,0.01383 -0.11755,0.01383 -0.23854,0.03111 -0.11754,0.01729 -0.22817,0.04148 -0.10717,0.02074 -0.17977,0.03457 0.0588,0.186683 0.0588,0.411395 v 2.136484 l 0.48745,0.08643 v 0.155569 h -1.54186 v -0.155569 l 0.48053,-0.08643 v -2.074257 q 0,-0.286939 -0.14865,-0.439051 -0.1452,-0.155569 -0.43905,-0.155569 -0.30423,0 -0.75711,0.100256 v 2.568621 l 0.48745,0.08643 v 0.155569 h -1.47272 v -0.155569 l 0.41139,-0.08643 v -2.765676 l -0.41139,-0.08643 v -0.155569 h 0.9507 z"
           style="font-style:normal;font-variant:normal;font-weight:normal;font-stretch:normal;font-size:7.08012915px;line-height:0;font-family:'Liberation Serif';-inkscape-font-specification:'Liberation Serif, Normal';font-variant-ligatures:normal;font-variant-caps:normal;font-variant-numeric:normal;font-feature-settings:normal;text-align:center;writing-mode:lr-tb;text-anchor:middle;stroke-width:0.17700322"
           id="path1154" />
        <path
           d="m 164.31494,88.506596 q 0.25928,-0.148655 0.54968,-0.248911 0.2904,-0.100256 0.51165,-0.100256 0.23854,0 0.43905,0.08989 0.20397,0.08988 0.30423,0.286939 0.26619,-0.148655 0.62227,-0.26274 0.35954,-0.114084 0.59462,-0.114084 0.82971,0 0.82971,0.957616 v 2.136484 l 0.4183,0.08643 v 0.155569 h -1.47617 v -0.155569 l 0.48399,-0.08643 v -2.074257 q 0,-0.59462 -0.55314,-0.59462 -0.0899,0 -0.21088,0.01383 -0.11754,0.01383 -0.23854,0.03111 -0.11754,0.01729 -0.22817,0.04148 -0.10717,0.02074 -0.17977,0.03457 0.0588,0.186683 0.0588,0.411395 v 2.136484 l 0.48745,0.08643 v 0.155569 h -1.54186 v -0.155569 l 0.48054,-0.08643 v -2.074257 q 0,-0.286939 -0.14866,-0.439051 -0.1452,-0.155569 -0.43905,-0.155569 -0.30422,0 -0.7571,0.100256 v 2.568621 l 0.48745,0.08643 v 0.155569 h -1.47272 v -0.155569 l 0.41139,-0.08643 v -2.765676 l -0.41139,-0.08643 v -0.155569 h 0.9507 z"
           style="font-style:normal;font-variant:normal;font-weight:normal;font-stretch:normal;font-size:7.08012915px;line-height:0;font-family:'Liberation Serif';-inkscape-font-specification:'Liberation Serif, Normal';font-variant-ligatures:normal;font-variant-caps:normal;font-variant-numeric:normal;font-feature-settings:normal;text-align:center;writing-mode:lr-tb;text-anchor:middle;stroke-width:0.17700322"
           id="path1156" />
      </g>
      <g
         aria-label="Inputs"
         style="font-style:normal;font-weight:normal;font-size:5.63252878px;line-height:1.25;font-family:sans-serif;letter-spacing:0px;word-spacing:0px;fill:#000000;fill-opacity:1;stroke:none;stroke-width:0.14081322"
         id="text1108-4">
        <path
           d="m -6.223809,81.877971 0.4730444,0.07426 v 0.145764 H -7.224903 v -0.145764 l 0.4730444,-0.07426 v -3.250805 l -0.4730444,-0.07151 v -0.145763 h 1.4741384 v 0.145763 l -0.4730444,0.07151 z"
           style="font-style:normal;font-variant:normal;font-weight:normal;font-stretch:normal;font-size:5.63252878px;line-height:0;font-family:'Liberation Serif';-inkscape-font-specification:'Liberation Serif, Normal';font-variant-ligatures:normal;font-variant-caps:normal;font-variant-numeric:normal;font-feature-settings:normal;text-align:center;writing-mode:lr-tb;text-anchor:middle;stroke-width:0.14081322"
           id="path1159" />
        <path
           d="m -4.6561619,79.721769 q 0.2117699,-0.121011 0.4510424,-0.198019 0.2392724,-0.07976 0.3987874,-0.07976 0.3355315,0 0.5060475,0.195268 0.170516,0.195268 0.170516,0.566553 v 1.69966 l 0.3135295,0.06876 v 0.123762 H -3.9300937 V 81.97423 l 0.3437823,-0.06876 v -1.650155 q 0,-0.228271 -0.1127606,-0.357534 -0.1100104,-0.132012 -0.3437823,-0.132012 -0.2475232,0 -0.6078071,0.07976 v 2.059944 l 0.3492828,0.06876 v 0.123762 H -5.4179834 V 81.97423 l 0.3107792,-0.06876 v -2.200207 l -0.3107792,-0.06876 v -0.123762 h 0.7370692 z"
           style="font-style:normal;font-variant:normal;font-weight:normal;font-stretch:normal;font-size:5.63252878px;line-height:0;font-family:'Liberation Serif';-inkscape-font-specification:'Liberation Serif, Normal';font-variant-ligatures:normal;font-variant-caps:normal;font-variant-numeric:normal;font-feature-settings:normal;text-align:center;writing-mode:lr-tb;text-anchor:middle;stroke-width:0.14081322"
           id="path1161" />
        <path
           d="m -2.3129418,79.705267 -0.2942776,-0.06876 v -0.123762 h 0.7260682 l 0.0055,0.151264 q 0.1155108,-0.09901 0.3080289,-0.159515 0.1952683,-0.0605 0.3960372,-0.0605 0.49504645,0 0.76457175,0.343782 0.27227556,0.343782 0.27227556,0.987343 0,0.657311 -0.29702788,1.017595 -0.29427763,0.360284 -0.85258003,0.360284 -0.3107792,0 -0.5913055,-0.06051 0.016501,0.198019 0.016501,0.31078 v 0.698565 l 0.4510424,0.06601 v 0.129263 h -1.2321157 v -0.129263 l 0.3272807,-0.06601 z m 1.68315804,1.069851 q 0,-0.52805 -0.17326627,-0.783824 -0.17051601,-0.258524 -0.51979877,-0.258524 -0.3217802,0 -0.5363004,0.09076 v 2.065444 q 0.244773,0.04676 0.5363004,0.04676 0.69306504,0 0.69306504,-1.160609 z"
           style="font-style:normal;font-variant:normal;font-weight:normal;font-stretch:normal;font-size:5.63252878px;line-height:0;font-family:'Liberation Serif';-inkscape-font-specification:'Liberation Serif, Normal';font-variant-ligatures:normal;font-variant-caps:normal;font-variant-numeric:normal;font-feature-settings:normal;text-align:center;writing-mode:lr-tb;text-anchor:middle;stroke-width:0.14081322"
           id="path1163" />
        <path
           d="m 0.94611395,81.360923 q 0,0.473044 0.44004135,0.473044 0.341032,0 0.6380599,-0.08526 v -2.043442 l -0.3905367,-0.06876 v -0.123762 h 0.8443293 v 2.392725 l 0.3272807,0.06876 v 0.123762 H 2.0517177 l -0.022002,-0.20902 q -0.1952684,0.10726 -0.4510424,0.187018 -0.255774,0.07701 -0.4290402,0.07701 -0.66006202,0 -0.66006202,-0.759071 V 79.705267 L 0.1595401,79.636511 v -0.123762 h 0.78657385 z"
           style="font-style:normal;font-variant:normal;font-weight:normal;font-stretch:normal;font-size:5.63252878px;line-height:0;font-family:'Liberation Serif';-inkscape-font-specification:'Liberation Serif, Normal';font-variant-ligatures:normal;font-variant-caps:normal;font-variant-numeric:normal;font-feature-settings:normal;text-align:center;writing-mode:lr-tb;text-anchor:middle;stroke-width:0.14081322"
           id="path1165" />
        <path
           d="m 3.8201335,82.152997 q -0.2640248,0 -0.3960372,-0.156765 -0.1292621,-0.156764 -0.1292621,-0.440041 v -1.81242 H 2.9565524 v -0.123762 l 0.3437823,-0.10726 0.2777761,-0.585805 h 0.1732663 v 0.585805 h 0.5913055 v 0.231022 H 3.7513771 v 1.762915 q 0,0.178767 0.079757,0.269526 0.082508,0.09076 0.2145201,0.09076 0.159515,0 0.3877864,-0.044 v 0.178767 q -0.096259,0.06601 -0.2777761,0.10726 -0.181517,0.044 -0.3355315,0.044 z"
           style="font-style:normal;font-variant:normal;font-weight:normal;font-stretch:normal;font-size:5.63252878px;line-height:0;font-family:'Liberation Serif';-inkscape-font-specification:'Liberation Serif, Normal';font-variant-ligatures:normal;font-variant-caps:normal;font-variant-numeric:normal;font-feature-settings:normal;text-align:center;writing-mode:lr-tb;text-anchor:middle;stroke-width:0.14081322"
           id="path1167" />
        <path
           d="m 6.4521311,81.371924 q 0,0.385036 -0.244773,0.583055 -0.2420227,0.198018 -0.7178174,0.198018 -0.192518,0 -0.42629,-0.04125 -0.2310217,-0.0385 -0.3630341,-0.08801 v -0.63531 h 0.1237616 l 0.1347627,0.360284 q 0.2062694,0.187018 0.5363003,0.187018 0.5335501,0 0.5335501,-0.456543 0,-0.335532 -0.4207895,-0.478545 L 5.3630289,80.920881 Q 5.0852528,80.830123 4.9587409,80.736614 4.832229,80.643105 4.7634726,80.508343 4.6947161,80.37083 4.6947161,80.178312 q 0,-0.341032 0.2310217,-0.536301 0.2337719,-0.198018 0.6298091,-0.198018 0.2832766,0 0.7095666,0.08526 v 0.563803 H 6.1358514 L 6.0203406,79.793276 q -0.1457637,-0.129263 -0.4592932,-0.129263 -0.2227709,0 -0.341032,0.110011 -0.1155108,0.11001 -0.1155108,0.297028 0,0.156764 0.1045098,0.264024 0.1072601,0.107261 0.3217802,0.178767 0.404288,0.137513 0.5280496,0.200769 0.1237616,0.06326 0.2090196,0.156765 0.088008,0.09076 0.1347627,0.209019 0.049505,0.118262 0.049505,0.291528 z"
           style="font-style:normal;font-variant:normal;font-weight:normal;font-stretch:normal;font-size:5.63252878px;line-height:0;font-family:'Liberation Serif';-inkscape-font-specification:'Liberation Serif, Normal';font-variant-ligatures:normal;font-variant-caps:normal;font-variant-numeric:normal;font-feature-settings:normal;text-align:center;writing-mode:lr-tb;text-anchor:middle;stroke-width:0.14081322"
           id="path1169" />
      </g>
      <g
         aria-label="Outputs"
         style="font-style:normal;font-weight:normal;font-size:5.63252878px;line-height:1.25;font-family:sans-serif;letter-spacing:0px;word-spacing:0px;fill:#000000;fill-opacity:1;stroke:none;stroke-width:0.14081322"
         id="text1108-4-7">
        <path
           d="m 69.324929,84.837701 q 0,0.888334 0.297028,1.287121 0.297027,0.398788 0.929587,0.398788 0.629809,0 0.929587,-0.398788 0.299778,-0.398787 0.299778,-1.287121 0,-0.882832 -0.299778,-1.270619 -0.297028,-0.390537 -0.929587,-0.390537 -0.63531,0 -0.932338,0.390537 -0.294277,0.387787 -0.294277,1.270619 z m -0.574804,0 q 0,-1.881176 1.801419,-1.881176 0.891083,0 1.347626,0.478545 0.456543,0.475794 0.456543,1.402631 0,0.940589 -0.462043,1.421884 -0.462044,0.481295 -1.342126,0.481295 -0.877333,0 -1.339376,-0.478545 -0.462043,-0.481295 -0.462043,-1.424634 z"
           style="font-style:normal;font-variant:normal;font-weight:normal;font-stretch:normal;font-size:5.63252878px;line-height:0;font-family:'Liberation Serif';-inkscape-font-specification:'Liberation Serif, Normal';font-variant-ligatures:normal;font-variant-caps:normal;font-variant-numeric:normal;font-feature-settings:normal;text-align:center;writing-mode:lr-tb;text-anchor:middle;stroke-width:0.14081322"
           id="path1172" />
        <path
           d="m 73.450316,85.948806 q 0,0.473044 0.440041,0.473044 0.341032,0 0.63806,-0.08526 V 84.29315 l -0.390537,-0.06876 v -0.123762 h 0.84433 v 2.392725 l 0.32728,0.06876 v 0.123762 h -0.75357 l -0.022,-0.20902 q -0.195269,0.10726 -0.451043,0.187018 -0.255774,0.07701 -0.42904,0.07701 -0.660062,0 -0.660062,-0.759071 V 84.29315 l -0.330031,-0.06876 v -0.123762 h 0.786574 z"
           style="font-style:normal;font-variant:normal;font-weight:normal;font-stretch:normal;font-size:5.63252878px;line-height:0;font-family:'Liberation Serif';-inkscape-font-specification:'Liberation Serif, Normal';font-variant-ligatures:normal;font-variant-caps:normal;font-variant-numeric:normal;font-feature-settings:normal;text-align:center;writing-mode:lr-tb;text-anchor:middle;stroke-width:0.14081322"
           id="path1174" />
        <path
           d="m 76.324336,86.74088 q -0.264025,0 -0.396038,-0.156765 -0.129262,-0.156764 -0.129262,-0.440041 v -1.81242 h -0.338282 v -0.123762 l 0.343783,-0.10726 0.277776,-0.585805 h 0.173266 v 0.585805 h 0.591306 v 0.231022 h -0.591306 v 1.762915 q 0,0.178767 0.07976,0.269526 0.08251,0.09076 0.21452,0.09076 0.159515,0 0.387786,-0.044 v 0.178767 q -0.09626,0.06601 -0.277776,0.10726 -0.181517,0.044 -0.335531,0.044 z"
           style="font-style:normal;font-variant:normal;font-weight:normal;font-stretch:normal;font-size:5.63252878px;line-height:0;font-family:'Liberation Serif';-inkscape-font-specification:'Liberation Serif, Normal';font-variant-ligatures:normal;font-variant-caps:normal;font-variant-numeric:normal;font-feature-settings:normal;text-align:center;writing-mode:lr-tb;text-anchor:middle;stroke-width:0.14081322"
           id="path1176" />
        <path
           d="m 77.385936,84.29315 -0.294278,-0.06876 v -0.123762 h 0.726068 l 0.0055,0.151264 q 0.115511,-0.09901 0.308029,-0.159515 0.195268,-0.06051 0.396037,-0.06051 0.495046,0 0.764572,0.343782 0.272275,0.343782 0.272275,0.987343 0,0.657311 -0.297028,1.017595 -0.294277,0.360284 -0.85258,0.360284 -0.310779,0 -0.591305,-0.06051 0.0165,0.198019 0.0165,0.31078 v 0.698565 l 0.451043,0.06601 v 0.129263 h -1.232116 v -0.129263 l 0.327281,-0.06601 z m 1.683158,1.069851 q 0,-0.52805 -0.173267,-0.783824 -0.170516,-0.258524 -0.519798,-0.258524 -0.321781,0 -0.536301,0.09076 v 2.065444 q 0.244773,0.04676 0.536301,0.04676 0.693065,0 0.693065,-1.160609 z"
           style="font-style:normal;font-variant:normal;font-weight:normal;font-stretch:normal;font-size:5.63252878px;line-height:0;font-family:'Liberation Serif';-inkscape-font-specification:'Liberation Serif, Normal';font-variant-ligatures:normal;font-variant-caps:normal;font-variant-numeric:normal;font-feature-settings:normal;text-align:center;writing-mode:lr-tb;text-anchor:middle;stroke-width:0.14081322"
           id="path1178" />
        <path
           d="m 80.644991,85.948806 q 0,0.473044 0.440042,0.473044 0.341032,0 0.63806,-0.08526 V 84.29315 l -0.390537,-0.06876 v -0.123762 h 0.844329 v 2.392725 l 0.327281,0.06876 v 0.123762 h -0.753571 l -0.022,-0.20902 q -0.195268,0.10726 -0.451042,0.187018 -0.255774,0.07701 -0.429041,0.07701 -0.660061,0 -0.660061,-0.759071 V 84.29315 l -0.330031,-0.06876 v -0.123762 h 0.786573 z"
           style="font-style:normal;font-variant:normal;font-weight:normal;font-stretch:normal;font-size:5.63252878px;line-height:0;font-family:'Liberation Serif';-inkscape-font-specification:'Liberation Serif, Normal';font-variant-ligatures:normal;font-variant-caps:normal;font-variant-numeric:normal;font-feature-settings:normal;text-align:center;writing-mode:lr-tb;text-anchor:middle;stroke-width:0.14081322"
           id="path1180" />
        <path
           d="m 83.519011,86.74088 q -0.264025,0 -0.396037,-0.156765 -0.129262,-0.156764 -0.129262,-0.440041 v -1.81242 H 82.65543 v -0.123762 l 0.343782,-0.10726 0.277776,-0.585805 h 0.173266 v 0.585805 h 0.591306 v 0.231022 h -0.591306 v 1.762915 q 0,0.178767 0.07976,0.269526 0.08251,0.09076 0.21452,0.09076 0.159515,0 0.387787,-0.044 v 0.178767 q -0.09626,0.06601 -0.277777,0.10726 -0.181517,0.044 -0.335531,0.044 z"
           style="font-style:normal;font-variant:normal;font-weight:normal;font-stretch:normal;font-size:5.63252878px;line-height:0;font-family:'Liberation Serif';-inkscape-font-specification:'Liberation Serif, Normal';font-variant-ligatures:normal;font-variant-caps:normal;font-variant-numeric:normal;font-feature-settings:normal;text-align:center;writing-mode:lr-tb;text-anchor:middle;stroke-width:0.14081322"
           id="path1182" />
        <path
           d="m 86.151009,85.959807 q 0,0.385036 -0.244773,0.583055 -0.242023,0.198018 -0.717818,0.198018 -0.192518,0 -0.42629,-0.04125 -0.231022,-0.0385 -0.363034,-0.08801 v -0.63531 h 0.123762 l 0.134762,0.360284 q 0.20627,0.187018 0.536301,0.187018 0.53355,0 0.53355,-0.456543 0,-0.335532 -0.42079,-0.478545 l -0.244773,-0.07976 q -0.277776,-0.09076 -0.404288,-0.184267 -0.126512,-0.09351 -0.195268,-0.228271 -0.06876,-0.137513 -0.06876,-0.330031 0,-0.341032 0.231021,-0.536301 0.233772,-0.198018 0.629809,-0.198018 0.283277,0 0.709567,0.08526 v 0.563803 h -0.129262 l -0.115511,-0.299778 q -0.145764,-0.129263 -0.459293,-0.129263 -0.222771,0 -0.341032,0.110011 -0.115511,0.11001 -0.115511,0.297028 0,0.156764 0.10451,0.264024 0.10726,0.107261 0.32178,0.178767 0.404288,0.137513 0.52805,0.200769 0.123761,0.06326 0.209019,0.156765 0.08801,0.09076 0.134763,0.209019 0.0495,0.118262 0.0495,0.291528 z"
           style="font-style:normal;font-variant:normal;font-weight:normal;font-stretch:normal;font-size:5.63252878px;line-height:0;font-family:'Liberation Serif';-inkscape-font-specification:'Liberation Serif, Normal';font-variant-ligatures:normal;font-variant-caps:normal;font-variant-numeric:normal;font-feature-settings:normal;text-align:center;writing-mode:lr-tb;text-anchor:middle;stroke-width:0.14081322"
           id="path1184" />
      </g>
      <g
         aria-label="Regeln"
         style="font-style:normal;font-weight:normal;font-size:5.63252878px;line-height:1.25;font-family:sans-serif;letter-spacing:0px;word-spacing:0px;fill:#000000;fill-opacity:1;stroke:none;stroke-width:0.14081322"
         id="text1108-4-8">
        <path
           d="m -8.2755557,87.53861 v 1.397131 l 0.5583024,0.07426 v 0.145764 h -1.5263933 v -0.145764 l 0.4372911,-0.07426 v -3.250805 l -0.4730444,-0.07151 v -0.145764 h 1.5923995 q 0.693065,0 1.023096,0.233772 0.330031,0.233772 0.330031,0.750821 0,0.368535 -0.2007688,0.63806 -0.2007689,0.266775 -0.5555522,0.371285 l 0.9983437,1.474138 0.3987875,0.07426 v 0.145764 H -6.5758961 L -7.6127435,87.53861 Z m 1.3943809,-1.047848 q 0,-0.42079 -0.2062693,-0.596806 -0.2035192,-0.178767 -0.7178174,-0.178767 h -0.4702942 v 1.575898 H -7.78876 q 0.4922962,0 0.6985656,-0.181517 0.2090196,-0.184268 0.2090196,-0.618808 z"
           style="font-style:normal;font-variant:normal;font-weight:normal;font-stretch:normal;font-size:5.63252878px;line-height:0;font-family:'Liberation Serif';-inkscape-font-specification:'Liberation Serif, Normal';font-variant-ligatures:normal;font-variant-caps:normal;font-variant-numeric:normal;font-feature-settings:normal;text-align:center;writing-mode:lr-tb;text-anchor:middle;stroke-width:0.14081322"
           id="path1187" />
        <path
           d="m -4.9642448,87.85489 v 0.0495 q 0,0.379536 0.082508,0.591306 0.085258,0.209019 0.2585243,0.31903 0.1760165,0.11001 0.4592931,0.11001 0.1485139,0 0.352033,-0.02475 0.2035191,-0.02475 0.3355315,-0.055 v 0.154014 q -0.1320124,0.08526 -0.3602838,0.148514 -0.2255212,0.06326 -0.4620434,0.06326 -0.6023065,0 -0.8828328,-0.324531 -0.2777761,-0.32453 -0.2777761,-1.042347 0,-0.676564 0.2832766,-1.009345 0.2832766,-0.332781 0.8085759,-0.332781 0.9928432,0 0.9928432,1.127605 v 0.225522 z m 0.596806,-1.133107 q -0.2860269,0 -0.4400413,0.231022 -0.1512642,0.231022 -0.1512642,0.682064 h 1.1056038 q 0,-0.492296 -0.1265119,-0.701316 -0.1265119,-0.21177 -0.3877864,-0.21177 z"
           style="font-style:normal;font-variant:normal;font-weight:normal;font-stretch:normal;font-size:5.63252878px;line-height:0;font-family:'Liberation Serif';-inkscape-font-specification:'Liberation Serif, Normal';font-variant-ligatures:normal;font-variant-caps:normal;font-variant-numeric:normal;font-feature-settings:normal;text-align:center;writing-mode:lr-tb;text-anchor:middle;stroke-width:0.14081322"
           id="path1189" />
        <path
           d="m -0.78935324,87.387346 q 0,0.445542 -0.26677506,0.673813 -0.266775,0.228271 -0.767322,0.228271 -0.2255212,0 -0.4180393,-0.04125 l -0.1732662,0.360283 q 0.00825,0.04676 0.10726,0.08801 0.099009,0.04125 0.2475233,0.04125 h 0.7645718 q 0.4180392,0 0.61880804,0.181518 0.20351911,0.181517 0.20351911,0.500547 0,0.288777 -0.16226523,0.503297 -0.15951498,0.21452 -0.47029412,0.330031 -0.3107792,0.118261 -0.7535708,0.118261 -0.5280496,0 -0.8058256,-0.162265 -0.2750258,-0.162266 -0.2750258,-0.462044 0,-0.145763 0.099009,-0.288777 0.099009,-0.140263 0.3630341,-0.330031 -0.1567647,-0.05226 -0.2640248,-0.178767 -0.10726,-0.126512 -0.10726,-0.272275 l 0.4345408,-0.489546 q -0.4345408,-0.203519 -0.4345408,-0.800325 0,-0.42354 0.266775,-0.654562 0.2695253,-0.231021 0.7810733,-0.231021 0.1017596,0 0.2612746,0.022 0.1595149,0.01925 0.244773,0.04675 l 0.60780701,-0.305279 0.096259,0.118261 -0.38228589,0.396038 q 0.1842673,0.206269 0.1842673,0.607807 z m -0.11276059,2.117699 q 0,-0.156765 -0.096259,-0.244773 -0.096259,-0.08801 -0.29152734,-0.08801 h -1.001094 q -0.1155109,0.09901 -0.1897678,0.250274 -0.071507,0.154014 -0.071507,0.286027 0,0.236522 0.170516,0.338281 0.170516,0.10451 0.522549,0.10451 0.4592931,0 0.7068164,-0.170516 0.25027347,-0.170516 0.25027347,-0.475794 z M -1.8179498,88.080411 q 0.2997781,0 0.4235398,-0.170516 0.1265118,-0.173267 0.1265118,-0.522549 0,-0.365785 -0.1292621,-0.519799 -0.1292621,-0.156765 -0.415289,-0.156765 -0.2887771,0 -0.4235398,0.156765 -0.1347626,0.156765 -0.1347626,0.519799 0,0.363034 0.1320124,0.528049 0.1320124,0.165016 0.4207895,0.165016 z"
           style="font-style:normal;font-variant:normal;font-weight:normal;font-stretch:normal;font-size:5.63252878px;line-height:0;font-family:'Liberation Serif';-inkscape-font-specification:'Liberation Serif, Normal';font-variant-ligatures:normal;font-variant-caps:normal;font-variant-numeric:normal;font-feature-settings:normal;text-align:center;writing-mode:lr-tb;text-anchor:middle;stroke-width:0.14081322"
           id="path1191" />
        <path
           d="m 0.34925341,87.85489 v 0.0495 q 0,0.379536 0.0825077,0.591306 0.085258,0.209019 0.25852427,0.31903 0.17601652,0.11001 0.45929307,0.11001 0.148514,0 0.3520331,-0.02475 0.2035191,-0.02475 0.3355315,-0.055 v 0.154014 q -0.1320124,0.08526 -0.3602838,0.148514 -0.2255212,0.06326 -0.4620434,0.06326 -0.60230655,0 -0.88283289,-0.324531 -0.27777607,-0.32453 -0.27777607,-1.042347 0,-0.676564 0.28327659,-1.009345 0.2832766,-0.332781 0.80857591,-0.332781 0.99284316,0 0.99284316,1.127605 v 0.225522 z m 0.59680603,-1.133107 q -0.28602685,0 -0.44004131,0.231022 -0.1512642,0.231022 -0.1512642,0.682064 H 1.4603577 q 0,-0.492296 -0.1265119,-0.701316 -0.1265118,-0.21177 -0.38778636,-0.21177 z"
           style="font-style:normal;font-variant:normal;font-weight:normal;font-stretch:normal;font-size:5.63252878px;line-height:0;font-family:'Liberation Serif';-inkscape-font-specification:'Liberation Serif, Normal';font-variant-ligatures:normal;font-variant-caps:normal;font-variant-numeric:normal;font-feature-settings:normal;text-align:center;writing-mode:lr-tb;text-anchor:middle;stroke-width:0.14081322"
           id="path1193" />
        <path
           d="M 3.1407654,88.963244 3.583557,89.032 v 0.123762 H 2.2441812 V 89.032 l 0.4400413,-0.06876 v -3.525831 l -0.4400413,-0.06601 v -0.123761 h 0.8965842 z"
           style="font-style:normal;font-variant:normal;font-weight:normal;font-stretch:normal;font-size:5.63252878px;line-height:0;font-family:'Liberation Serif';-inkscape-font-specification:'Liberation Serif, Normal';font-variant-ligatures:normal;font-variant-caps:normal;font-variant-numeric:normal;font-feature-settings:normal;text-align:center;writing-mode:lr-tb;text-anchor:middle;stroke-width:0.14081322"
           id="path1195" />
        <path
           d="m 4.5846514,86.779539 q 0.2117699,-0.121012 0.4510424,-0.198019 0.2392724,-0.07976 0.3987874,-0.07976 0.3355315,0 0.5060475,0.195268 0.170516,0.195268 0.170516,0.566553 v 1.69966 L 6.4245742,89.032 v 0.123762 H 5.3107196 V 89.032 l 0.3437823,-0.06876 v -1.650155 q 0,-0.228272 -0.1127606,-0.357534 -0.1100104,-0.132012 -0.3437823,-0.132012 -0.2475232,0 -0.6078071,0.07976 v 2.059944 L 4.9394347,89.032 v 0.123762 H 3.8228299 V 89.032 l 0.3107792,-0.06876 v -2.200207 l -0.3107792,-0.06876 v -0.123762 h 0.7370692 z"
           style="font-style:normal;font-variant:normal;font-weight:normal;font-stretch:normal;font-size:5.63252878px;line-height:0;font-family:'Liberation Serif';-inkscape-font-specification:'Liberation Serif, Normal';font-variant-ligatures:normal;font-variant-caps:normal;font-variant-numeric:normal;font-feature-settings:normal;text-align:center;writing-mode:lr-tb;text-anchor:middle;stroke-width:0.14081322"
           id="path1197" />
      </g>
      <g
         aria-label="Regeln"
         style="font-style:normal;font-weight:normal;font-size:5.63252878px;line-height:1.25;font-family:sans-serif;letter-spacing:0px;word-spacing:0px;fill:#000000;fill-opacity:1;stroke:none;stroke-width:0.14081322"
         id="text1108-4-8-9">
        <path
           d="m 185.28693,85.108419 v 1.397131 l 0.55831,0.07426 v 0.145764 h -1.5264 v -0.145764 l 0.43729,-0.07426 v -3.250805 l -0.47304,-0.07151 v -0.145764 h 1.5924 q 0.69306,0 1.02309,0.233772 0.33004,0.233772 0.33004,0.750821 0,0.368534 -0.20077,0.63806 -0.20077,0.266775 -0.55556,0.371285 l 0.99835,1.474138 0.39879,0.07426 v 0.145764 h -0.88284 l -1.03684,-1.617152 z m 1.39438,-1.047849 q 0,-0.420789 -0.20626,-0.596806 -0.20352,-0.178766 -0.71782,-0.178766 h -0.4703 v 1.575898 h 0.4868 q 0.4923,0 0.69856,-0.181517 0.20902,-0.184268 0.20902,-0.618809 z"
           style="font-style:normal;font-variant:normal;font-weight:normal;font-stretch:normal;font-size:5.63252878px;line-height:0;font-family:'Liberation Serif';-inkscape-font-specification:'Liberation Serif, Normal';font-variant-ligatures:normal;font-variant-caps:normal;font-variant-numeric:normal;font-feature-settings:normal;text-align:center;writing-mode:lr-tb;text-anchor:middle;stroke-width:0.14081322"
           id="path1200" />
        <path
           d="m 188.59824,85.424699 v 0.0495 q 0,0.379536 0.0825,0.591306 0.0853,0.209019 0.25853,0.31903 0.17601,0.11001 0.45929,0.11001 0.14851,0 0.35203,-0.02475 0.20352,-0.02475 0.33553,-0.055 v 0.154014 q -0.13201,0.08526 -0.36028,0.148514 -0.22552,0.06326 -0.46204,0.06326 -0.60231,0 -0.88284,-0.324531 -0.27777,-0.32453 -0.27777,-1.042347 0,-0.676564 0.28327,-1.009345 0.28328,-0.332781 0.80858,-0.332781 0.99284,0 0.99284,1.127605 v 0.225522 z m 0.59681,-1.133107 q -0.28603,0 -0.44004,0.231022 -0.15127,0.231022 -0.15127,0.682064 h 1.10561 q 0,-0.492296 -0.12651,-0.701316 -0.12652,-0.21177 -0.38779,-0.21177 z"
           style="font-style:normal;font-variant:normal;font-weight:normal;font-stretch:normal;font-size:5.63252878px;line-height:0;font-family:'Liberation Serif';-inkscape-font-specification:'Liberation Serif, Normal';font-variant-ligatures:normal;font-variant-caps:normal;font-variant-numeric:normal;font-feature-settings:normal;text-align:center;writing-mode:lr-tb;text-anchor:middle;stroke-width:0.14081322"
           id="path1202" />
        <path
           d="m 192.77314,84.957155 q 0,0.445541 -0.26678,0.673813 -0.26677,0.228271 -0.76732,0.228271 -0.22552,0 -0.41804,-0.04125 l -0.17327,0.360284 q 0.008,0.04676 0.10726,0.08801 0.099,0.04125 0.24753,0.04125 h 0.76457 q 0.41804,0 0.61881,0.181517 0.20352,0.181518 0.20352,0.500547 0,0.288778 -0.16227,0.503298 -0.15951,0.21452 -0.47029,0.330031 -0.31078,0.118261 -0.75357,0.118261 -0.52805,0 -0.80583,-0.162265 -0.27503,-0.162266 -0.27503,-0.462044 0,-0.145763 0.099,-0.288777 0.099,-0.140263 0.36304,-0.330031 -0.15677,-0.05226 -0.26403,-0.178767 -0.10726,-0.126512 -0.10726,-0.272275 l 0.43454,-0.489546 q -0.43454,-0.203519 -0.43454,-0.800325 0,-0.42354 0.26678,-0.654562 0.26952,-0.231021 0.78107,-0.231021 0.10176,0 0.26128,0.022 0.15951,0.01925 0.24477,0.04675 l 0.60781,-0.305279 0.0962,0.118261 -0.38228,0.396038 q 0.18427,0.206269 0.18427,0.607807 z m -0.11276,2.117698 q 0,-0.156764 -0.0963,-0.244773 -0.0963,-0.08801 -0.29153,-0.08801 h -1.00109 q -0.11552,0.09901 -0.18977,0.250274 -0.0715,0.154014 -0.0715,0.286027 0,0.236522 0.17052,0.338281 0.17051,0.10451 0.52255,0.10451 0.45929,0 0.70681,-0.170516 0.25028,-0.170516 0.25028,-0.475795 z m -0.91584,-1.424633 q 0.29978,0 0.42354,-0.170516 0.12651,-0.173267 0.12651,-0.522549 0,-0.365785 -0.12926,-0.519799 -0.12926,-0.156765 -0.41529,-0.156765 -0.28878,0 -0.42354,0.156765 -0.13476,0.156765 -0.13476,0.519799 0,0.363034 0.13201,0.528049 0.13201,0.165016 0.42079,0.165016 z"
           style="font-style:normal;font-variant:normal;font-weight:normal;font-stretch:normal;font-size:5.63252878px;line-height:0;font-family:'Liberation Serif';-inkscape-font-specification:'Liberation Serif, Normal';font-variant-ligatures:normal;font-variant-caps:normal;font-variant-numeric:normal;font-feature-settings:normal;text-align:center;writing-mode:lr-tb;text-anchor:middle;stroke-width:0.14081322"
           id="path1204" />
        <path
           d="m 193.91174,85.424699 v 0.0495 q 0,0.379536 0.0825,0.591306 0.0853,0.209019 0.25852,0.31903 0.17602,0.11001 0.4593,0.11001 0.14851,0 0.35203,-0.02475 0.20352,-0.02475 0.33553,-0.055 v 0.154014 q -0.13201,0.08526 -0.36028,0.148514 -0.22552,0.06326 -0.46204,0.06326 -0.60231,0 -0.88284,-0.324531 -0.27777,-0.32453 -0.27777,-1.042347 0,-0.676564 0.28327,-1.009345 0.28328,-0.332781 0.80858,-0.332781 0.99284,0 0.99284,1.127605 v 0.225522 z m 0.59681,-1.133107 q -0.28603,0 -0.44004,0.231022 -0.15127,0.231022 -0.15127,0.682064 h 1.10561 q 0,-0.492296 -0.12651,-0.701316 -0.12652,-0.21177 -0.38779,-0.21177 z"
           style="font-style:normal;font-variant:normal;font-weight:normal;font-stretch:normal;font-size:5.63252878px;line-height:0;font-family:'Liberation Serif';-inkscape-font-specification:'Liberation Serif, Normal';font-variant-ligatures:normal;font-variant-caps:normal;font-variant-numeric:normal;font-feature-settings:normal;text-align:center;writing-mode:lr-tb;text-anchor:middle;stroke-width:0.14081322"
           id="path1206" />
        <path
           d="m 196.70325,86.533053 0.4428,0.06876 v 0.123762 h -1.33938 v -0.123762 l 0.44004,-0.06876 v -3.525831 l -0.44004,-0.06601 v -0.123761 h 0.89658 z"
           style="font-style:normal;font-variant:normal;font-weight:normal;font-stretch:normal;font-size:5.63252878px;line-height:0;font-family:'Liberation Serif';-inkscape-font-specification:'Liberation Serif, Normal';font-variant-ligatures:normal;font-variant-caps:normal;font-variant-numeric:normal;font-feature-settings:normal;text-align:center;writing-mode:lr-tb;text-anchor:middle;stroke-width:0.14081322"
           id="path1208" />
        <path
           d="m 198.14714,84.349348 q 0.21177,-0.121012 0.45104,-0.198019 0.23928,-0.07976 0.39879,-0.07976 0.33553,0 0.50605,0.195268 0.17051,0.195268 0.17051,0.566553 v 1.69966 l 0.31353,0.06876 v 0.123762 h -1.11385 v -0.123762 l 0.34378,-0.06876 v -1.650155 q 0,-0.228272 -0.11276,-0.357534 -0.11001,-0.132012 -0.34378,-0.132012 -0.24752,0 -0.60781,0.07976 v 2.059944 l 0.34928,0.06876 v 0.123762 h -1.1166 v -0.123762 l 0.31078,-0.06876 v -2.200207 l -0.31078,-0.06876 v -0.123762 h 0.73707 z"
           style="font-style:normal;font-variant:normal;font-weight:normal;font-stretch:normal;font-size:5.63252878px;line-height:0;font-family:'Liberation Serif';-inkscape-font-specification:'Liberation Serif, Normal';font-variant-ligatures:normal;font-variant-caps:normal;font-variant-numeric:normal;font-feature-settings:normal;text-align:center;writing-mode:lr-tb;text-anchor:middle;stroke-width:0.14081322"
           id="path1210" />
      </g>
      <g
         aria-label="Inputs"
         style="font-style:normal;font-weight:normal;font-size:5.63252878px;line-height:1.25;font-family:sans-serif;letter-spacing:0px;word-spacing:0px;fill:#000000;fill-opacity:1;stroke:none;stroke-width:0.14081322"
         id="text1108-4-78">
        <path
           d="m 109.20592,82.05392 0.47305,0.07426 v 0.145764 h -1.47414 v -0.145764 l 0.47304,-0.07426 v -3.250805 l -0.47304,-0.07151 v -0.145763 h 1.47414 v 0.145763 l -0.47305,0.07151 z"
           style="font-style:normal;font-variant:normal;font-weight:normal;font-stretch:normal;font-size:5.63252878px;line-height:0;font-family:'Liberation Serif';-inkscape-font-specification:'Liberation Serif, Normal';font-variant-ligatures:normal;font-variant-caps:normal;font-variant-numeric:normal;font-feature-settings:normal;text-align:center;writing-mode:lr-tb;text-anchor:middle;stroke-width:0.14081322"
           id="path1213" />
        <path
           d="m 110.77357,79.897718 q 0.21177,-0.121011 0.45104,-0.198019 0.23927,-0.07976 0.39879,-0.07976 0.33553,0 0.50605,0.195268 0.17051,0.195269 0.17051,0.566553 v 1.69966 l 0.31353,0.06876 v 0.123762 h -1.11385 v -0.123762 l 0.34378,-0.06876 v -1.650155 q 0,-0.228271 -0.11276,-0.357534 -0.11001,-0.132012 -0.34378,-0.132012 -0.24753,0 -0.60781,0.07976 v 2.059943 l 0.34928,0.06876 v 0.123762 h -1.1166 v -0.123762 l 0.31078,-0.06876 v -2.200207 l -0.31078,-0.06876 v -0.123762 h 0.73707 z"
           style="font-style:normal;font-variant:normal;font-weight:normal;font-stretch:normal;font-size:5.63252878px;line-height:0;font-family:'Liberation Serif';-inkscape-font-specification:'Liberation Serif, Normal';font-variant-ligatures:normal;font-variant-caps:normal;font-variant-numeric:normal;font-feature-settings:normal;text-align:center;writing-mode:lr-tb;text-anchor:middle;stroke-width:0.14081322"
           id="path1215" />
        <path
           d="m 113.11679,79.881216 -0.29428,-0.06876 v -0.123762 h 0.72607 l 0.005,0.151265 q 0.11551,-0.09901 0.30803,-0.159515 0.19527,-0.06051 0.39604,-0.06051 0.49504,0 0.76457,0.343782 0.27227,0.343782 0.27227,0.987343 0,0.657312 -0.29702,1.017595 -0.29428,0.360284 -0.85258,0.360284 -0.31078,0 -0.59131,-0.06051 0.0165,0.198018 0.0165,0.310779 v 0.698565 l 0.45104,0.06601 v 0.129263 h -1.23211 v -0.129263 l 0.32728,-0.06601 z m 1.68316,1.069851 q 0,-0.52805 -0.17327,-0.783824 -0.17052,-0.258524 -0.5198,-0.258524 -0.32178,0 -0.5363,0.09076 v 2.065443 q 0.24477,0.04676 0.5363,0.04676 0.69307,0 0.69307,-1.160609 z"
           style="font-style:normal;font-variant:normal;font-weight:normal;font-stretch:normal;font-size:5.63252878px;line-height:0;font-family:'Liberation Serif';-inkscape-font-specification:'Liberation Serif, Normal';font-variant-ligatures:normal;font-variant-caps:normal;font-variant-numeric:normal;font-feature-settings:normal;text-align:center;writing-mode:lr-tb;text-anchor:middle;stroke-width:0.14081322"
           id="path1217" />
        <path
           d="m 116.37584,81.536872 q 0,0.473044 0.44005,0.473044 0.34103,0 0.63806,-0.08526 v -2.043442 l -0.39054,-0.06876 v -0.123762 h 0.84433 v 2.392725 l 0.32728,0.06876 v 0.123762 h -0.75357 l -0.022,-0.20902 q -0.19527,0.10726 -0.45105,0.187018 -0.25577,0.07701 -0.42904,0.07701 -0.66006,0 -0.66006,-0.759071 v -1.688659 l -0.33003,-0.06876 v -0.123762 h 0.78657 z"
           style="font-style:normal;font-variant:normal;font-weight:normal;font-stretch:normal;font-size:5.63252878px;line-height:0;font-family:'Liberation Serif';-inkscape-font-specification:'Liberation Serif, Normal';font-variant-ligatures:normal;font-variant-caps:normal;font-variant-numeric:normal;font-feature-settings:normal;text-align:center;writing-mode:lr-tb;text-anchor:middle;stroke-width:0.14081322"
           id="path1219" />
        <path
           d="m 119.24986,82.328946 q -0.26402,0 -0.39603,-0.156765 -0.12927,-0.156764 -0.12927,-0.440041 v -1.81242 h -0.33828 v -0.123762 l 0.34379,-0.10726 0.27777,-0.585805 h 0.17327 v 0.585805 h 0.5913 v 0.231022 h -0.5913 v 1.762916 q 0,0.178766 0.0797,0.269525 0.0825,0.09076 0.21453,0.09076 0.15951,0 0.38778,-0.044 v 0.178767 q -0.0963,0.06601 -0.27777,0.10726 -0.18152,0.044 -0.33554,0.044 z"
           style="font-style:normal;font-variant:normal;font-weight:normal;font-stretch:normal;font-size:5.63252878px;line-height:0;font-family:'Liberation Serif';-inkscape-font-specification:'Liberation Serif, Normal';font-variant-ligatures:normal;font-variant-caps:normal;font-variant-numeric:normal;font-feature-settings:normal;text-align:center;writing-mode:lr-tb;text-anchor:middle;stroke-width:0.14081322"
           id="path1221" />
        <path
           d="m 121.88186,81.547873 q 0,0.385036 -0.24477,0.583055 -0.24202,0.198018 -0.71782,0.198018 -0.19252,0 -0.42629,-0.04125 -0.23102,-0.0385 -0.36303,-0.08801 v -0.63531 h 0.12376 l 0.13476,0.360284 q 0.20627,0.187018 0.5363,0.187018 0.53355,0 0.53355,-0.456543 0,-0.335532 -0.42079,-0.478545 l -0.24477,-0.07976 q -0.27778,-0.09076 -0.40429,-0.184268 -0.12651,-0.09351 -0.19527,-0.228271 -0.0688,-0.137513 -0.0688,-0.330031 0,-0.341032 0.23102,-0.536301 0.23377,-0.198018 0.62981,-0.198018 0.28327,0 0.70956,0.08526 v 0.563803 h -0.12926 l -0.11551,-0.299778 q -0.14576,-0.129262 -0.45929,-0.129262 -0.22277,0 -0.34103,0.11001 -0.11551,0.11001 -0.11551,0.297028 0,0.156764 0.1045,0.264025 0.10726,0.10726 0.32179,0.178766 0.40428,0.137513 0.52804,0.200769 0.12377,0.06326 0.20902,0.156765 0.088,0.09076 0.13477,0.20902 0.0495,0.118261 0.0495,0.291527 z"
           style="font-style:normal;font-variant:normal;font-weight:normal;font-stretch:normal;font-size:5.63252878px;line-height:0;font-family:'Liberation Serif';-inkscape-font-specification:'Liberation Serif, Normal';font-variant-ligatures:normal;font-variant-caps:normal;font-variant-numeric:normal;font-feature-settings:normal;text-align:center;writing-mode:lr-tb;text-anchor:middle;stroke-width:0.14081322"
           id="path1223" />
      </g>
      <g
         aria-label="Outputs"
         style="font-style:normal;font-weight:normal;font-size:5.63252878px;line-height:1.25;font-family:sans-serif;letter-spacing:0px;word-spacing:0px;fill:#000000;fill-opacity:1;stroke:none;stroke-width:0.14081322"
         id="text1108-4-7-5">
        <path
           d="m 105.04896,87.476923 q 0,0.888333 0.29703,1.28712 0.29702,0.398788 0.92958,0.398788 0.62981,0 0.92959,-0.398788 0.29978,-0.398787 0.29978,-1.28712 0,-0.882833 -0.29978,-1.27062 -0.29703,-0.390536 -0.92959,-0.390536 -0.63531,0 -0.93233,0.390536 -0.29428,0.387787 -0.29428,1.27062 z m -0.57481,0 q 0,-1.881177 1.80142,-1.881177 0.89109,0 1.34763,0.478545 0.45654,0.475795 0.45654,1.402632 0,0.940588 -0.46204,1.421883 -0.46204,0.481295 -1.34213,0.481295 -0.87733,0 -1.33937,-0.478545 -0.46205,-0.481295 -0.46205,-1.424633 z"
           style="font-style:normal;font-variant:normal;font-weight:normal;font-stretch:normal;font-size:5.63252878px;line-height:0;font-family:'Liberation Serif';-inkscape-font-specification:'Liberation Serif, Normal';font-variant-ligatures:normal;font-variant-caps:normal;font-variant-numeric:normal;font-feature-settings:normal;text-align:center;writing-mode:lr-tb;text-anchor:middle;stroke-width:0.14081322"
           id="path1226" />
        <path
           d="m 109.17435,88.588027 q 0,0.473044 0.44004,0.473044 0.34103,0 0.63806,-0.08526 v -2.043441 l -0.39054,-0.06876 v -0.123762 h 0.84433 v 2.392725 l 0.32728,0.06876 v 0.123761 h -0.75357 l -0.022,-0.209019 q -0.19527,0.10726 -0.45105,0.187017 -0.25577,0.07701 -0.42904,0.07701 -0.66006,0 -0.66006,-0.759071 v -1.688658 l -0.33003,-0.06876 v -0.123762 h 0.78658 z"
           style="font-style:normal;font-variant:normal;font-weight:normal;font-stretch:normal;font-size:5.63252878px;line-height:0;font-family:'Liberation Serif';-inkscape-font-specification:'Liberation Serif, Normal';font-variant-ligatures:normal;font-variant-caps:normal;font-variant-numeric:normal;font-feature-settings:normal;text-align:center;writing-mode:lr-tb;text-anchor:middle;stroke-width:0.14081322"
           id="path1228" />
        <path
           d="m 112.04837,89.380101 q -0.26403,0 -0.39604,-0.156764 -0.12926,-0.156765 -0.12926,-0.440042 v -1.81242 h -0.33829 v -0.123762 l 0.34379,-0.10726 0.27777,-0.585805 h 0.17327 v 0.585805 h 0.5913 v 0.231022 h -0.5913 v 1.762916 q 0,0.178766 0.0798,0.269525 0.0825,0.09076 0.21452,0.09076 0.15951,0 0.38778,-0.044 v 0.178767 q -0.0963,0.06601 -0.27777,0.10726 -0.18152,0.044 -0.33553,0.044 z"
           style="font-style:normal;font-variant:normal;font-weight:normal;font-stretch:normal;font-size:5.63252878px;line-height:0;font-family:'Liberation Serif';-inkscape-font-specification:'Liberation Serif, Normal';font-variant-ligatures:normal;font-variant-caps:normal;font-variant-numeric:normal;font-feature-settings:normal;text-align:center;writing-mode:lr-tb;text-anchor:middle;stroke-width:0.14081322"
           id="path1230" />
        <path
           d="m 113.10997,86.932372 -0.29428,-0.06876 v -0.123762 h 0.72607 l 0.005,0.151265 q 0.11551,-0.09901 0.30803,-0.159515 0.19526,-0.06051 0.39603,-0.06051 0.49505,0 0.76457,0.343782 0.27228,0.343783 0.27228,0.987343 0,0.657312 -0.29703,1.017595 -0.29428,0.360284 -0.85258,0.360284 -0.31078,0 -0.5913,-0.0605 0.0165,0.198018 0.0165,0.310779 v 0.698565 l 0.45104,0.06601 v 0.129262 h -1.23212 v -0.129262 l 0.32729,-0.06601 z m 1.68315,1.06985 q 0,-0.52805 -0.17326,-0.783824 -0.17052,-0.258524 -0.5198,-0.258524 -0.32178,0 -0.5363,0.09076 v 2.065444 q 0.24477,0.04675 0.5363,0.04675 0.69306,0 0.69306,-1.160609 z"
           style="font-style:normal;font-variant:normal;font-weight:normal;font-stretch:normal;font-size:5.63252878px;line-height:0;font-family:'Liberation Serif';-inkscape-font-specification:'Liberation Serif, Normal';font-variant-ligatures:normal;font-variant-caps:normal;font-variant-numeric:normal;font-feature-settings:normal;text-align:center;writing-mode:lr-tb;text-anchor:middle;stroke-width:0.14081322"
           id="path1232" />
        <path
           d="m 116.36902,88.588027 q 0,0.473044 0.44004,0.473044 0.34103,0 0.63806,-0.08526 v -2.043441 l -0.39053,-0.06876 v -0.123762 h 0.84432 v 2.392725 l 0.32729,0.06876 v 0.123761 h -0.75358 l -0.022,-0.209019 q -0.19527,0.10726 -0.45104,0.187017 -0.25577,0.07701 -0.42904,0.07701 -0.66006,0 -0.66006,-0.759071 v -1.688658 l -0.33003,-0.06876 v -0.123762 h 0.78657 z"
           style="font-style:normal;font-variant:normal;font-weight:normal;font-stretch:normal;font-size:5.63252878px;line-height:0;font-family:'Liberation Serif';-inkscape-font-specification:'Liberation Serif, Normal';font-variant-ligatures:normal;font-variant-caps:normal;font-variant-numeric:normal;font-feature-settings:normal;text-align:center;writing-mode:lr-tb;text-anchor:middle;stroke-width:0.14081322"
           id="path1234" />
        <path
           d="m 119.24304,89.380101 q -0.26402,0 -0.39604,-0.156764 -0.12926,-0.156765 -0.12926,-0.440042 v -1.81242 h -0.33828 v -0.123762 l 0.34378,-0.10726 0.27778,-0.585805 h 0.17326 v 0.585805 h 0.59131 v 0.231022 h -0.59131 v 1.762916 q 0,0.178766 0.0798,0.269525 0.0825,0.09076 0.21452,0.09076 0.15952,0 0.38779,-0.044 v 0.178767 q -0.0963,0.06601 -0.27778,0.10726 -0.18152,0.044 -0.33553,0.044 z"
           style="font-style:normal;font-variant:normal;font-weight:normal;font-stretch:normal;font-size:5.63252878px;line-height:0;font-family:'Liberation Serif';-inkscape-font-specification:'Liberation Serif, Normal';font-variant-ligatures:normal;font-variant-caps:normal;font-variant-numeric:normal;font-feature-settings:normal;text-align:center;writing-mode:lr-tb;text-anchor:middle;stroke-width:0.14081322"
           id="path1236" />
        <path
           d="m 121.87504,88.599028 q 0,0.385036 -0.24477,0.583055 -0.24203,0.198018 -0.71782,0.198018 -0.19252,0 -0.42629,-0.04125 -0.23102,-0.0385 -0.36304,-0.08801 V 88.61553 h 0.12377 l 0.13476,0.360283 q 0.20627,0.187018 0.5363,0.187018 0.53355,0 0.53355,-0.456543 0,-0.335531 -0.42079,-0.478545 l -0.24477,-0.07976 q -0.27778,-0.09076 -0.40429,-0.184268 -0.12651,-0.09351 -0.19527,-0.228271 -0.0688,-0.137513 -0.0688,-0.330031 0,-0.341032 0.23102,-0.5363 0.23378,-0.198019 0.62981,-0.198019 0.28328,0 0.70957,0.08526 v 0.563803 h -0.12926 l -0.11551,-0.299778 q -0.14577,-0.129262 -0.4593,-0.129262 -0.22277,0 -0.34103,0.11001 -0.11551,0.11001 -0.11551,0.297028 0,0.156765 0.10451,0.264025 0.10726,0.10726 0.32178,0.178766 0.40429,0.137513 0.52805,0.200769 0.12376,0.06326 0.20902,0.156765 0.088,0.09076 0.13476,0.20902 0.0495,0.118261 0.0495,0.291527 z"
           style="font-style:normal;font-variant:normal;font-weight:normal;font-stretch:normal;font-size:5.63252878px;line-height:0;font-family:'Liberation Serif';-inkscape-font-specification:'Liberation Serif, Normal';font-variant-ligatures:normal;font-variant-caps:normal;font-variant-numeric:normal;font-feature-settings:normal;text-align:center;writing-mode:lr-tb;text-anchor:middle;stroke-width:0.14081322"
           id="path1238" />
      </g>
    </g>
    <flowRoot
       xml:space="preserve"
       id="flowRoot1063"
       style="fill:black;fill-opacity:1;stroke:none;font-family:sans-serif;font-style:normal;font-weight:normal;font-size:40px;line-height:1.25;letter-spacing:0px;word-spacing:0px"><flowRegion
         id="flowRegion1065"><rect
           id="rect1067"
           width="330"
           height="150"
           x="175.52176"
           y="165.20474" /></flowRegion><flowPara
         id="flowPara1069"></flowPara></flowRoot>  </g>
</svg>
