<svg viewBox="0 0 330 200" xmlns="http://www.w3.org/2000/svg"><g><g><g><g><g><line x1="58" y1="160.88538691119032" x2="53" y2="160.88538691119032" style="visibility: inherit;" fill="rgb(0, 0, 0)" stroke="rgb(204, 204, 204)" stroke-width="1px"></line><line x1="58" y1="135.0475150683722" x2="53" y2="135.0475150683722" style="visibility: inherit;" fill="rgb(0, 0, 0)" stroke="rgb(204, 204, 204)" stroke-width="1px"></line><line x1="58" y1="109.20964322555405" x2="53" y2="109.20964322555405" style="visibility: inherit;" fill="rgb(0, 0, 0)" stroke="rgb(204, 204, 204)" stroke-width="1px"></line><line x1="58" y1="83.37177138273596" x2="53" y2="83.37177138273596" style="visibility: inherit;" fill="rgb(0, 0, 0)" stroke="rgb(204, 204, 204)" stroke-width="1px"></line><line x1="58" y1="57.5338995399178" x2="53" y2="57.5338995399178" style="visibility: inherit;" fill="rgb(0, 0, 0)" stroke="rgb(204, 204, 204)" stroke-width="1px"></line><line x1="58" y1="31.69602769709971" x2="53" y2="31.69602769709971" style="visibility: inherit;" fill="rgb(0, 0, 0)" stroke="rgb(204, 204, 204)" stroke-width="1px"></line><line x1="58" y1="5.858155854281534" x2="53" y2="5.858155854281534" style="visibility: inherit;" fill="rgb(0, 0, 0)" stroke="rgb(204, 204, 204)" stroke-width="1px"></line></g><g transform="translate(48, 0)"><text x="0" y="160.88538691119032" dx="0em" dy="0.3em" style="text-anchor: end; visibility: inherit; font-family: &quot;Helvetica Neue&quot;, sans-serif; font-size: 12px; font-weight: 200;" fill="rgb(50, 49, 63)" stroke="none" stroke-width="1px">0.45</text><text x="0" y="135.0475150683722" dx="0em" dy="0.3em" style="text-anchor: end; visibility: inherit; font-family: &quot;Helvetica Neue&quot;, sans-serif; font-size: 12px; font-weight: 200;" fill="rgb(50, 49, 63)" stroke="none" stroke-width="1px">0.5</text><text x="0" y="109.20964322555405" dx="0em" dy="0.3em" style="text-anchor: end; visibility: inherit; font-family: &quot;Helvetica Neue&quot;, sans-serif; font-size: 12px; font-weight: 200;" fill="rgb(50, 49, 63)" stroke="none" stroke-width="1px">0.55</text><text x="0" y="83.37177138273596" dx="0em" dy="0.3em" style="text-anchor: end; visibility: inherit; font-family: &quot;Helvetica Neue&quot;, sans-serif; font-size: 12px; font-weight: 200;" fill="rgb(50, 49, 63)" stroke="none" stroke-width="1px">0.6</text><text x="0" y="57.5338995399178" dx="0em" dy="0.3em" style="text-anchor: end; visibility: inherit; font-family: &quot;Helvetica Neue&quot;, sans-serif; font-size: 12px; font-weight: 200;" fill="rgb(50, 49, 63)" stroke="none" stroke-width="1px">0.65</text><text x="0" y="31.69602769709971" dx="0em" dy="0.3em" style="text-anchor: end; visibility: inherit; font-family: &quot;Helvetica Neue&quot;, sans-serif; font-size: 12px; font-weight: 200;" fill="rgb(50, 49, 63)" stroke="none" stroke-width="1px">0.7</text><text x="0" y="5.858155854281534" dx="0em" dy="0.3em" style="text-anchor: end; visibility: hidden; font-family: &quot;Helvetica Neue&quot;, sans-serif; font-size: 12px; font-weight: 200;" fill="rgb(50, 49, 63)" stroke="none" stroke-width="1px">0.75</text></g><line x1="58" y1="0" x2="58" y2="178" fill="rgb(0, 0, 0)" stroke="rgb(204, 204, 204)" stroke-width="1px"></line></g></g><g transform="translate(58, 0)" clip-path="url(#clip_0)"><clipPath id="clip_0"><rect width="272" height="178"></rect></clipPath><g><g><g><line x1="2.1260545904499013" y1="0" x2="2.1260545904499013" y2="178" fill="rgb(0, 0, 0)" stroke="rgb(60, 60, 60)" stroke-width="1px" opacity="0.25"></line><line x1="26.534634963070438" y1="0" x2="26.534634963070438" y2="178" fill="rgb(0, 0, 0)" stroke="rgb(60, 60, 60)" stroke-width="1px" opacity="0.25"></line><line x1="50.94321533569098" y1="0" x2="50.94321533569098" y2="178" fill="rgb(0, 0, 0)" stroke="rgb(60, 60, 60)" stroke-width="1px" opacity="0.25"></line><line x1="75.35179570831151" y1="0" x2="75.35179570831151" y2="178" fill="rgb(0, 0, 0)" stroke="rgb(60, 60, 60)" stroke-width="1px" opacity="0.25"></line><line x1="99.76037608093205" y1="0" x2="99.76037608093205" y2="178" fill="rgb(0, 0, 0)" stroke="rgb(60, 60, 60)" stroke-width="1px" opacity="0.25"></line><line x1="124.16895645355258" y1="0" x2="124.16895645355258" y2="178" fill="rgb(0, 0, 0)" stroke="rgb(60, 60, 60)" stroke-width="1px" opacity="0.25"></line><line x1="148.57753682617314" y1="0" x2="148.57753682617314" y2="178" fill="rgb(0, 0, 0)" stroke="rgb(60, 60, 60)" stroke-width="1px" opacity="0.25"></line><line x1="172.98611719879366" y1="0" x2="172.98611719879366" y2="178" fill="rgb(0, 0, 0)" stroke="rgb(60, 60, 60)" stroke-width="1px" opacity="0.25"></line><line x1="197.3946975714142" y1="0" x2="197.3946975714142" y2="178" fill="rgb(0, 0, 0)" stroke="rgb(60, 60, 60)" stroke-width="1px" opacity="0.25"></line><line x1="221.80327794403473" y1="0" x2="221.80327794403473" y2="178" fill="rgb(0, 0, 0)" stroke="rgb(60, 60, 60)" stroke-width="1px" opacity="0.25"></line><line x1="246.21185831665525" y1="0" x2="246.21185831665525" y2="178" fill="rgb(0, 0, 0)" stroke="rgb(60, 60, 60)" stroke-width="1px" opacity="0.25"></line><line x1="270.62043868927583" y1="0" x2="270.62043868927583" y2="178" fill="rgb(0, 0, 0)" stroke="rgb(60, 60, 60)" stroke-width="1px" opacity="0.25"></line></g><g><line x1="0" y1="160.88538691119032" x2="272" y2="160.88538691119032" fill="rgb(0, 0, 0)" stroke="rgb(60, 60, 60)" stroke-width="1px" opacity="0.25"></line><line x1="0" y1="135.0475150683722" x2="272" y2="135.0475150683722" fill="rgb(0, 0, 0)" stroke="rgb(60, 60, 60)" stroke-width="1px" opacity="0.25"></line><line x1="0" y1="109.20964322555405" x2="272" y2="109.20964322555405" fill="rgb(0, 0, 0)" stroke="rgb(60, 60, 60)" stroke-width="1px" opacity="0.25"></line><line x1="0" y1="83.37177138273596" x2="272" y2="83.37177138273596" fill="rgb(0, 0, 0)" stroke="rgb(60, 60, 60)" stroke-width="1px" opacity="0.25"></line><line x1="0" y1="57.5338995399178" x2="272" y2="57.5338995399178" fill="rgb(0, 0, 0)" stroke="rgb(60, 60, 60)" stroke-width="1px" opacity="0.25"></line><line x1="0" y1="31.69602769709971" x2="272" y2="31.69602769709971" fill="rgb(0, 0, 0)" stroke="rgb(60, 60, 60)" stroke-width="1px" opacity="0.25"></line><line x1="0" y1="5.858155854281534" x2="272" y2="5.858155854281534" fill="rgb(0, 0, 0)" stroke="rgb(60, 60, 60)" stroke-width="1px" opacity="0.25"></line></g></g></g><g><g><line x1="0" y1="393.42623349655355" x2="272" y2="393.42623349655355" fill="rgb(0, 0, 0)" stroke="rgb(153, 153, 153)" stroke-width="1.5px"></line></g></g><g><g><line x1="2.1260545904499013" y1="0" x2="2.1260545904499013" y2="178" fill="rgb(0, 0, 0)" stroke="rgb(153, 153, 153)" stroke-width="1.5px"></line></g></g><g><g><g><g><g><path stroke="rgb(255, 112, 67)" stroke-width="2px" d="M3.292784732261163,231.26257154742956L6.789069784835329,172.9344269286625L8.378556538700378,147.26227298508354L10.017836796525575,131.304671542917L11.693729924909698,121.84664423402472L15.458021189975238,106.03628133088633L19.24525652059104,92.90354870731815L20.91724427611555,82.85456827757793L24.764524714447997,83.78646977861082L28.658181455488428,78.63850656846414L32.56453065832262,66.47851829123107L34.2726431127986,64.17314099950734L38.12334075238322,60.74200309839638L39.80753279809404,61.302864000934534L43.58500469656079,54.11224529269401L45.23307204332013,49.900774305096434L49.0442277827011,48.49246708605736L50.69424781589025,47.70292284020138L54.50052183919669,47.716625326005044L58.17108415563137,43.395611927188185L59.78839669112121,40.48233485459818L63.708902870571514,44.48924769840957L65.44825830792445,44.33639069385987L67.20372340832333,42.83387964474272L71.19354995603189,42.404880776202845L72.96854192072884,41.34156278207897L74.73914034095873,40.11158688374039L76.51462047726315,39.564359909226226L80.49663627925247,40.08151563906196L84.40396182530156,38.628369179396884L86.10816890691792,38.22983354466291L89.95300848721311,35.278129200092025L91.6323188168494,39.83228202095924L95.40344448441928,37.94930833795121L99.28977865134793,35.27667021938194L100.94077502775198,33.99012971076584L104.73923830533919,35.65917140739538L107.67949589702505,34.88160860917441L109.07664303755386,36.20461737103676L112.75648061453013,34.276513254711915L114.45287695042725,36.8255581273078L118.33335305806646,35.49187091818888L120.040977340935,34.8135079166868L124.00541896505602,33.79089846263537L128.00598528812853,36.72025279772825L129.77560736514351,36.11226365805638L133.7825199191129,35.19765744305889L135.53993770594158,32.07666558285996L139.4687428027186,32.43749834038991L143.2764813408474,31.070548171043868L144.89965193562665,33.36758931252683L147.73495263171026,33.05871216558873L149.2351039814115,30.190630923069335L153.03405543060617,32.176206974543874L154.76706463706225,32.998838277309716L158.7114912252777,32.182432107205386L160.44889397620085,32.10747980753402L164.43823235230195,30.690194282064766L166.19955551199024,31.352060546954647L170.2108616104267,29.754732344182656L171.9804836874417,30.07656646970119L175.96054680300122,28.786148351002197L179.98942707930595,28.71198282968797L181.77515881936688,29.36644770518282L183.5545443285309,34.650841030042784L187.56438591214499,31.922515952461197L189.31789832611406,30.41695554527999L193.3541011765306,30.725521091503765L195.1183533658636,29.277596113506377L199.0339778292394,30.44568378227052L202.95106680743754,29.67181459609074L206.9530976453324,29.531607356771758L210.8950833755106,30.605840095923924L212.58025176443635,31.375875918324084L214.27518358551112,34.49099702519439L218.19324890692414,33.308933059196136L219.9140538231939,31.173638698823908L223.89362876714597,31.178976563047854L225.6710615898802,31.13496728888842L229.58619788164853,31.364211215101392L231.27868884468603,29.303196591650135L235.20749394146304,29.67286744895918L239.16412481986484,30.59412696992331L243.10806323647284,28.142847160958695L244.86304016526427,28.404286301876937L248.69030556769118,28.896845288757362L250.31347616247044,30.029395594151566L251.50656757108413,29.812045761695487L252.95838993164762,30.481861889740543L254.63916477610624,30.151867116155387" style="fill: none;" fill="none"></path></g></g></g></g><g opacity="0.2"><g><g><g><path stroke="rgb(255, 112, 67)" stroke-width="2px" d="M3.292784732261163,231.26257154742953L6.789069784835329,137.93754015740228L8.378556538700378,122.61700519924774L10.017836796525575,112.53853224692911L11.693729924909698,109.49824377953493L15.458021189975238,84.16485770520086L19.24525652059104,74.12353093189363L20.91724427611555,68.20305834080446L24.764524714447997,85.16084348008673L28.658181455488428,70.99438116562062L32.56453065832262,48.34882607408093L34.2726431127986,60.72762082333796L38.12334075238322,55.606499507293265L39.80753279809404,62.143056569846635L43.58500469656079,43.334769532699255L45.23307204332013,43.586538079332L49.0442277827011,46.380602205916006L50.69424781589025,46.51880693661593L54.50052183919669,47.73717696727479L58.17108415563137,36.914486786703094L59.78839669112121,36.11257901675154L63.708902870571514,50.499485114952705L65.44825830792445,44.107108204930285L67.20372340832333,40.58013086974259L71.19354995603189,41.761385522533516L72.96854192072884,39.74659032545878L74.73914034095873,38.26662618340379L76.51462047726315,38.74352028757741L80.49663627925247,40.857248757441994L84.40396182530156,36.44865029303122L86.10816890691792,37.63203022472081L89.95300848721311,30.850573270525985L91.6323188168494,46.663510708585704L95.40344448441928,35.12484794831266L99.28977865134793,31.26771315638939L100.94077502775198,32.060318981016366L104.73923830533919,38.162733926517035L107.67949589702505,33.71526441906116L109.07664303755386,38.18913050646128L112.75648061453013,31.384357086668103L114.45287695042725,40.649125431090454L118.33335305806646,33.49134010611522L120.040977340935,33.79596341492339L124.00541896505602,32.25698428200121L128.00598528812853,41.1142842996062L129.77560736514351,35.20027994864341L133.7825199191129,33.825748120648115L135.53993770594158,27.39517779273669L139.4687428027186,32.978747476672794L143.2764813408474,29.02012291705256L144.89965193562665,36.813151024723425L147.73495263171026,32.59539644518375L149.2351039814115,25.888509059302862L153.03405543060617,35.15457105175048L154.76706463706225,34.23278523145703L158.7114912252777,30.95782285204976L160.44889397620085,31.995051358027013L164.43823235230195,28.56426599386137L166.19955551199024,32.34485994428934L170.2108616104267,27.358740040024855L171.9804836874417,30.559317657978966L175.96054680300122,26.85052117295359L179.98942707930595,28.600734547716655L181.77515881936688,30.348145018424987L183.5545443285309,42.577431017332685L187.56438591214499,27.83002833608893L189.31789832611406,28.15861493450811L193.3541011765306,31.188369410839357L195.1183533658636,27.105708646510266L199.0339778292394,32.19781528541674L202.95106680743754,28.511010816821L206.9530976453324,29.321296497793355L210.8950833755106,32.21718920465236L212.58025176443635,32.53092965192437L214.27518358551112,39.16367868549975L218.19324890692414,31.535837110198827L219.9140538231939,27.97069715826558L223.89362876714597,31.186983359383703L225.6710615898802,31.068953377649336L229.58619788164853,31.708077104420767L231.27868884468603,26.211674656473264L235.20749394146304,30.227373734922764L239.16412481986484,31.976016251369458L243.10806323647284,24.465927447511717L244.86304016526427,28.7964450132543L248.69030556769118,29.635683769077957L250.31347616247044,31.728221052242873L251.50656757108413,29.48602101301134L252.95838993164762,31.48658608180807L254.63916477610624,29.65687495577768" style="fill: none;" fill="none"></path></g></g></g></g></g></g><g transform="translate(58, 178)" clip-path="url(#clip_1)"><clipPath id="clip_1"><rect width="272" height="22"></rect></clipPath><g><g><line x1="2.1260545904499013" y1="0" x2="2.1260545904499013" y2="5" style="visibility: inherit;" fill="rgb(0, 0, 0)" stroke="rgb(204, 204, 204)" stroke-width="1px"></line><line x1="26.534634963070438" y1="0" x2="26.534634963070438" y2="5" style="visibility: inherit;" fill="rgb(0, 0, 0)" stroke="rgb(204, 204, 204)" stroke-width="1px"></line><line x1="50.94321533569098" y1="0" x2="50.94321533569098" y2="5" style="visibility: inherit;" fill="rgb(0, 0, 0)" stroke="rgb(204, 204, 204)" stroke-width="1px"></line><line x1="75.35179570831151" y1="0" x2="75.35179570831151" y2="5" style="visibility: inherit;" fill="rgb(0, 0, 0)" stroke="rgb(204, 204, 204)" stroke-width="1px"></line><line x1="99.76037608093205" y1="0" x2="99.76037608093205" y2="5" style="visibility: inherit;" fill="rgb(0, 0, 0)" stroke="rgb(204, 204, 204)" stroke-width="1px"></line><line x1="124.16895645355258" y1="0" x2="124.16895645355258" y2="5" style="visibility: inherit;" fill="rgb(0, 0, 0)" stroke="rgb(204, 204, 204)" stroke-width="1px"></line><line x1="148.57753682617314" y1="0" x2="148.57753682617314" y2="5" style="visibility: inherit;" fill="rgb(0, 0, 0)" stroke="rgb(204, 204, 204)" stroke-width="1px"></line><line x1="172.98611719879366" y1="0" x2="172.98611719879366" y2="5" style="visibility: inherit;" fill="rgb(0, 0, 0)" stroke="rgb(204, 204, 204)" stroke-width="1px"></line><line x1="197.3946975714142" y1="0" x2="197.3946975714142" y2="5" style="visibility: inherit;" fill="rgb(0, 0, 0)" stroke="rgb(204, 204, 204)" stroke-width="1px"></line><line x1="221.80327794403473" y1="0" x2="221.80327794403473" y2="5" style="visibility: inherit;" fill="rgb(0, 0, 0)" stroke="rgb(204, 204, 204)" stroke-width="1px"></line><line x1="246.21185831665525" y1="0" x2="246.21185831665525" y2="5" style="visibility: inherit;" fill="rgb(0, 0, 0)" stroke="rgb(204, 204, 204)" stroke-width="1px"></line><line x1="270.62043868927583" y1="0" x2="270.62043868927583" y2="5" style="visibility: inherit;" fill="rgb(0, 0, 0)" stroke="rgb(204, 204, 204)" stroke-width="1px"></line></g><g transform="translate(0, 8)"><text x="2.1260545904499013" y="0" dx="0em" dy="0.95em" style="text-anchor: middle; visibility: hidden; font-family: &quot;Helvetica Neue&quot;, sans-serif; font-size: 12px; font-weight: 200;" fill="rgb(50, 49, 63)" stroke="none" stroke-width="1px">0</text><text x="26.534634963070438" y="0" dx="0em" dy="0.95em" style="text-anchor: middle; visibility: inherit; font-family: &quot;Helvetica Neue&quot;, sans-serif; font-size: 12px; font-weight: 200;" fill="rgb(50, 49, 63)" stroke="none" stroke-width="1px">50k</text><text x="50.94321533569098" y="0" dx="0em" dy="0.95em" style="text-anchor: middle; visibility: hidden; font-family: &quot;Helvetica Neue&quot;, sans-serif; font-size: 12px; font-weight: 200;" fill="rgb(50, 49, 63)" stroke="none" stroke-width="1px">100k</text><text x="75.35179570831151" y="0" dx="0em" dy="0.95em" style="text-anchor: middle; visibility: inherit; font-family: &quot;Helvetica Neue&quot;, sans-serif; font-size: 12px; font-weight: 200;" fill="rgb(50, 49, 63)" stroke="none" stroke-width="1px">150k</text><text x="99.76037608093205" y="0" dx="0em" dy="0.95em" style="text-anchor: middle; visibility: hidden; font-family: &quot;Helvetica Neue&quot;, sans-serif; font-size: 12px; font-weight: 200;" fill="rgb(50, 49, 63)" stroke="none" stroke-width="1px">200k</text><text x="124.16895645355258" y="0" dx="0em" dy="0.95em" style="text-anchor: middle; visibility: inherit; font-family: &quot;Helvetica Neue&quot;, sans-serif; font-size: 12px; font-weight: 200;" fill="rgb(50, 49, 63)" stroke="none" stroke-width="1px">250k</text><text x="148.57753682617314" y="0" dx="0em" dy="0.95em" style="text-anchor: middle; visibility: hidden; font-family: &quot;Helvetica Neue&quot;, sans-serif; font-size: 12px; font-weight: 200;" fill="rgb(50, 49, 63)" stroke="none" stroke-width="1px">300k</text><text x="172.98611719879366" y="0" dx="0em" dy="0.95em" style="text-anchor: middle; visibility: inherit; font-family: &quot;Helvetica Neue&quot;, sans-serif; font-size: 12px; font-weight: 200;" fill="rgb(50, 49, 63)" stroke="none" stroke-width="1px">350k</text><text x="197.3946975714142" y="0" dx="0em" dy="0.95em" style="text-anchor: middle; visibility: hidden; font-family: &quot;Helvetica Neue&quot;, sans-serif; font-size: 12px; font-weight: 200;" fill="rgb(50, 49, 63)" stroke="none" stroke-width="1px">400k</text><text x="221.80327794403473" y="0" dx="0em" dy="0.95em" style="text-anchor: middle; visibility: inherit; font-family: &quot;Helvetica Neue&quot;, sans-serif; font-size: 12px; font-weight: 200;" fill="rgb(50, 49, 63)" stroke="none" stroke-width="1px">450k</text><text x="246.21185831665525" y="0" dx="0em" dy="0.95em" style="text-anchor: middle; visibility: hidden; font-family: &quot;Helvetica Neue&quot;, sans-serif; font-size: 12px; font-weight: 200;" fill="rgb(50, 49, 63)" stroke="none" stroke-width="1px">500k</text><text x="270.62043868927583" y="0" dx="0em" dy="0.95em" style="text-anchor: middle; visibility: hidden; font-family: &quot;Helvetica Neue&quot;, sans-serif; font-size: 12px; font-weight: 200;" fill="rgb(50, 49, 63)" stroke="none" stroke-width="1px">550k</text></g><line x1="0" y1="0" x2="272" y2="0" fill="rgb(0, 0, 0)" stroke="rgb(204, 204, 204)" stroke-width="1px"></line></g></g></g></g></svg>