<svg viewBox="0 0 330 200" xmlns="http://www.w3.org/2000/svg"><g><g><g><g><g><line x1="58" y1="160.88538691119032" x2="53" y2="160.88538691119032" style="visibility: inherit;" fill="rgb(0, 0, 0)" stroke="rgb(204, 204, 204)" stroke-width="1px"></line><line x1="58" y1="135.0475150683722" x2="53" y2="135.0475150683722" style="visibility: inherit;" fill="rgb(0, 0, 0)" stroke="rgb(204, 204, 204)" stroke-width="1px"></line><line x1="58" y1="109.20964322555405" x2="53" y2="109.20964322555405" style="visibility: inherit;" fill="rgb(0, 0, 0)" stroke="rgb(204, 204, 204)" stroke-width="1px"></line><line x1="58" y1="83.37177138273596" x2="53" y2="83.37177138273596" style="visibility: inherit;" fill="rgb(0, 0, 0)" stroke="rgb(204, 204, 204)" stroke-width="1px"></line><line x1="58" y1="57.5338995399178" x2="53" y2="57.5338995399178" style="visibility: inherit;" fill="rgb(0, 0, 0)" stroke="rgb(204, 204, 204)" stroke-width="1px"></line><line x1="58" y1="31.69602769709971" x2="53" y2="31.69602769709971" style="visibility: inherit;" fill="rgb(0, 0, 0)" stroke="rgb(204, 204, 204)" stroke-width="1px"></line><line x1="58" y1="5.858155854281534" x2="53" y2="5.858155854281534" style="visibility: inherit;" fill="rgb(0, 0, 0)" stroke="rgb(204, 204, 204)" stroke-width="1px"></line></g><g transform="translate(48, 0)"><text x="0" y="160.88538691119032" dx="0em" dy="0.3em" style="text-anchor: end; visibility: inherit; font-family: &quot;Helvetica Neue&quot;, sans-serif; font-size: 12px; font-weight: 200;" fill="rgb(50, 49, 63)" stroke="none" stroke-width="1px">0.45</text><text x="0" y="135.0475150683722" dx="0em" dy="0.3em" style="text-anchor: end; visibility: inherit; font-family: &quot;Helvetica Neue&quot;, sans-serif; font-size: 12px; font-weight: 200;" fill="rgb(50, 49, 63)" stroke="none" stroke-width="1px">0.5</text><text x="0" y="109.20964322555405" dx="0em" dy="0.3em" style="text-anchor: end; visibility: inherit; font-family: &quot;Helvetica Neue&quot;, sans-serif; font-size: 12px; font-weight: 200;" fill="rgb(50, 49, 63)" stroke="none" stroke-width="1px">0.55</text><text x="0" y="83.37177138273596" dx="0em" dy="0.3em" style="text-anchor: end; visibility: inherit; font-family: &quot;Helvetica Neue&quot;, sans-serif; font-size: 12px; font-weight: 200;" fill="rgb(50, 49, 63)" stroke="none" stroke-width="1px">0.6</text><text x="0" y="57.5338995399178" dx="0em" dy="0.3em" style="text-anchor: end; visibility: inherit; font-family: &quot;Helvetica Neue&quot;, sans-serif; font-size: 12px; font-weight: 200;" fill="rgb(50, 49, 63)" stroke="none" stroke-width="1px">0.65</text><text x="0" y="31.69602769709971" dx="0em" dy="0.3em" style="text-anchor: end; visibility: inherit; font-family: &quot;Helvetica Neue&quot;, sans-serif; font-size: 12px; font-weight: 200;" fill="rgb(50, 49, 63)" stroke="none" stroke-width="1px">0.7</text><text x="0" y="5.858155854281534" dx="0em" dy="0.3em" style="text-anchor: end; visibility: hidden; font-family: &quot;Helvetica Neue&quot;, sans-serif; font-size: 12px; font-weight: 200;" fill="rgb(50, 49, 63)" stroke="none" stroke-width="1px">0.75</text></g><line x1="58" y1="0" x2="58" y2="178" fill="rgb(0, 0, 0)" stroke="rgb(204, 204, 204)" stroke-width="1px"></line></g></g><g transform="translate(58, 0)" clip-path="url(#clip_0)"><clipPath id="clip_0"><rect width="272" height="178"></rect></clipPath><g><g><g><line x1="2.1260545904499013" y1="0" x2="2.1260545904499013" y2="178" fill="rgb(0, 0, 0)" stroke="rgb(60, 60, 60)" stroke-width="1px" opacity="0.25"></line><line x1="26.534634963070438" y1="0" x2="26.534634963070438" y2="178" fill="rgb(0, 0, 0)" stroke="rgb(60, 60, 60)" stroke-width="1px" opacity="0.25"></line><line x1="50.94321533569098" y1="0" x2="50.94321533569098" y2="178" fill="rgb(0, 0, 0)" stroke="rgb(60, 60, 60)" stroke-width="1px" opacity="0.25"></line><line x1="75.35179570831151" y1="0" x2="75.35179570831151" y2="178" fill="rgb(0, 0, 0)" stroke="rgb(60, 60, 60)" stroke-width="1px" opacity="0.25"></line><line x1="99.76037608093205" y1="0" x2="99.76037608093205" y2="178" fill="rgb(0, 0, 0)" stroke="rgb(60, 60, 60)" stroke-width="1px" opacity="0.25"></line><line x1="124.16895645355258" y1="0" x2="124.16895645355258" y2="178" fill="rgb(0, 0, 0)" stroke="rgb(60, 60, 60)" stroke-width="1px" opacity="0.25"></line><line x1="148.57753682617314" y1="0" x2="148.57753682617314" y2="178" fill="rgb(0, 0, 0)" stroke="rgb(60, 60, 60)" stroke-width="1px" opacity="0.25"></line><line x1="172.98611719879366" y1="0" x2="172.98611719879366" y2="178" fill="rgb(0, 0, 0)" stroke="rgb(60, 60, 60)" stroke-width="1px" opacity="0.25"></line><line x1="197.3946975714142" y1="0" x2="197.3946975714142" y2="178" fill="rgb(0, 0, 0)" stroke="rgb(60, 60, 60)" stroke-width="1px" opacity="0.25"></line><line x1="221.80327794403473" y1="0" x2="221.80327794403473" y2="178" fill="rgb(0, 0, 0)" stroke="rgb(60, 60, 60)" stroke-width="1px" opacity="0.25"></line><line x1="246.21185831665525" y1="0" x2="246.21185831665525" y2="178" fill="rgb(0, 0, 0)" stroke="rgb(60, 60, 60)" stroke-width="1px" opacity="0.25"></line><line x1="270.62043868927583" y1="0" x2="270.62043868927583" y2="178" fill="rgb(0, 0, 0)" stroke="rgb(60, 60, 60)" stroke-width="1px" opacity="0.25"></line></g><g><line x1="0" y1="160.88538691119032" x2="272" y2="160.88538691119032" fill="rgb(0, 0, 0)" stroke="rgb(60, 60, 60)" stroke-width="1px" opacity="0.25"></line><line x1="0" y1="135.0475150683722" x2="272" y2="135.0475150683722" fill="rgb(0, 0, 0)" stroke="rgb(60, 60, 60)" stroke-width="1px" opacity="0.25"></line><line x1="0" y1="109.20964322555405" x2="272" y2="109.20964322555405" fill="rgb(0, 0, 0)" stroke="rgb(60, 60, 60)" stroke-width="1px" opacity="0.25"></line><line x1="0" y1="83.37177138273596" x2="272" y2="83.37177138273596" fill="rgb(0, 0, 0)" stroke="rgb(60, 60, 60)" stroke-width="1px" opacity="0.25"></line><line x1="0" y1="57.5338995399178" x2="272" y2="57.5338995399178" fill="rgb(0, 0, 0)" stroke="rgb(60, 60, 60)" stroke-width="1px" opacity="0.25"></line><line x1="0" y1="31.69602769709971" x2="272" y2="31.69602769709971" fill="rgb(0, 0, 0)" stroke="rgb(60, 60, 60)" stroke-width="1px" opacity="0.25"></line><line x1="0" y1="5.858155854281534" x2="272" y2="5.858155854281534" fill="rgb(0, 0, 0)" stroke="rgb(60, 60, 60)" stroke-width="1px" opacity="0.25"></line></g></g></g><g><g><line x1="0" y1="393.42623349655355" x2="272" y2="393.42623349655355" fill="rgb(0, 0, 0)" stroke="rgb(153, 153, 153)" stroke-width="1.5px"></line></g></g><g><g><line x1="2.1260545904499013" y1="0" x2="2.1260545904499013" y2="178" fill="rgb(0, 0, 0)" stroke="rgb(153, 153, 153)" stroke-width="1.5px"></line></g></g><g><g><g><g><g><path stroke="rgb(0, 119, 187)" stroke-width="2px" d="M3.353318011585262,220.68652152310466L6.95114275850953,167.63329410488686L10.789636107907835,135.2827814309508L12.509464680962678,119.15418964673154L16.396287019498775,103.56431569503209L20.369515732553943,95.8167282093533L22.077140015422476,84.03477977333667L26.03474723703917,77.02416556655065L30.006023263664535,71.78738654837386L31.72682817993428,66.31031487221004L35.57166776022947,60.71167496311463L37.286614617209786,59.76040793126437L41.20907348308991,58.73441058237479L45.041708773198785,54.30492868316951L46.71711372997546,52.67718810620032L50.642501625500294,50.443610395075225L54.517119673850075,52.29920113795946L56.15298273042311,52.53692178087633L57.80202642039735,48.87070826937628L61.57901014725665,46.633766153832454L65.4057873780761,50.71313070149728L69.27650005356625,47.424285617903365L70.90113516316788,45.735327712915534L74.75573817561211,44.09623947237051L76.39648294825967,43.770976844281364L80.20031611352884,47.98778317430788L81.87962644316515,46.422304053988825L85.79183370528877,42.73476541375075L87.52777194138955,38.83193790534625L91.44632543441004,39.4554936978775L95.23648979467056,39.74608205257135L96.89139154393422,36.86477655954923L100.67569784490532,35.70540801658257L102.27543620252686,37.81006680379966L103.87663907497078,39.705332728194264L107.57990888910476,41.55319785347956L108.7715357828961,38.30913625727999L112.43477552521898,36.58313693673415L114.12043208575216,34.728596544399494L115.83196174148031,36.066078636156334L119.76857758397657,39.044520831691614L121.53478245973939,37.09926374728852L125.54804124460564,34.079814972296475L127.31815149322809,33.98729304962751L131.3392210238136,31.707148828802616L133.13178716637884,36.07733996411852L137.1679900167954,35.11846442464244L138.95225724203394,34.03333089489456L142.9850428911983,33.371088442671805L144.76833377322194,33.1530179467332L148.79233233345218,33.546940890511195L150.5648834401119,32.173713142813455L152.34915066535046,33.45965482113323L153.5251560677033,32.77131955091636L154.99894615060214,32.11137946144808L158.7847169663956,31.710598108930355L160.48599501836725,31.560339686382207L164.38697433351942,31.318026984166494L166.1116846226488,32.59456799038702L170.03121445888422,31.718126343063062L171.75250754676142,34.566304852354506L175.64177074333477,35.57805887688136L177.33572622119465,34.27682028837478L181.22157221651582,33.22946243749087L182.94140078957068,32.91583541311016L186.93073916567178,31.2015118219245L188.70036124268677,30.571743193175962L192.69995122254437,31.236611606125763L194.44809374883144,29.821591713316252L196.20355884923032,28.512804948991317L197.9600002928441,29.86308705051593L201.96007844430915,31.737990238516744L205.9582039093444,31.776033721398107L207.7151335245656,36.20256089372785L209.4837792583657,34.12135989681133L213.49166815554997,33.050127807728785L215.2588493745277,32.424403105925876L217.02407790707562,32.17005374000962L218.25085315660357,30.16177379072238L219.72561958271726,30.43450915927511L223.5885215124882,30.02260021373442L225.30298019786107,30.94315083585036L229.27962611216842,30.554395392335152L231.03655572738964,32.13502146451856L232.8003197451152,30.33733964343955L236.83749893874665,30.35730877431081L238.6198134775554,30.087952608480293L240.40798607565355,32.17970128260305L244.42563840498693,32.47384105436174L246.18207984860067,31.242490893113967L247.96097718615727,30.896001120829567L249.71937131620086,31.07262873239938L253.75850319626207,30.620303773005872" style="fill: none;" fill="none"></path></g><g><path stroke="rgb(255, 112, 67)" stroke-width="2px" d="M3.292784732261163,231.26257154742956L6.789069784835329,172.9344269286625L8.378556538700378,147.26227298508354L10.017836796525575,131.304671542917L11.693729924909698,121.84664423402472L15.458021189975238,106.03628133088633L19.24525652059104,92.90354870731815L20.91724427611555,82.85456827757793L24.764524714447997,83.78646977861082L28.658181455488428,78.63850656846414L32.56453065832262,66.47851829123107L34.2726431127986,64.17314099950734L38.12334075238322,60.74200309839638L39.80753279809404,61.302864000934534L43.58500469656079,54.11224529269401L45.23307204332013,49.900774305096434L49.0442277827011,48.49246708605736L50.69424781589025,47.70292284020138L54.50052183919669,47.716625326005044L58.17108415563137,43.395611927188185L59.78839669112121,40.48233485459818L63.708902870571514,44.48924769840957L65.44825830792445,44.33639069385987L67.20372340832333,42.83387964474272L71.19354995603189,42.404880776202845L72.96854192072884,41.34156278207897L74.73914034095873,40.11158688374039L76.51462047726315,39.564359909226226L80.49663627925247,40.08151563906196L84.40396182530156,38.628369179396884L86.10816890691792,38.22983354466291L89.95300848721311,35.278129200092025L91.6323188168494,39.83228202095924L95.40344448441928,37.94930833795121L99.28977865134793,35.27667021938194L100.94077502775198,33.99012971076584L104.73923830533919,35.65917140739538L107.67949589702505,34.88160860917441L109.07664303755386,36.20461737103676L112.75648061453013,34.276513254711915L114.45287695042725,36.8255581273078L118.33335305806646,35.49187091818888L120.040977340935,34.8135079166868L124.00541896505602,33.79089846263537L128.00598528812853,36.72025279772825L129.77560736514351,36.11226365805638L133.7825199191129,35.19765744305889L135.53993770594158,32.07666558285996L139.4687428027186,32.43749834038991L143.2764813408474,31.070548171043868L144.89965193562665,33.36758931252683L147.73495263171026,33.05871216558873L149.2351039814115,30.190630923069335L153.03405543060617,32.176206974543874L154.76706463706225,32.998838277309716L158.7114912252777,32.182432107205386L160.44889397620085,32.10747980753402L164.43823235230195,30.690194282064766L166.19955551199024,31.352060546954647L170.2108616104267,29.754732344182656L171.9804836874417,30.07656646970119L175.96054680300122,28.786148351002197L179.98942707930595,28.71198282968797L181.77515881936688,29.36644770518282L183.5545443285309,34.650841030042784L187.56438591214499,31.922515952461197L189.31789832611406,30.41695554527999L193.3541011765306,30.725521091503765L195.1183533658636,29.277596113506377L199.0339778292394,30.44568378227052L202.95106680743754,29.67181459609074L206.9530976453324,29.531607356771758L210.8950833755106,30.605840095923924L212.58025176443635,31.375875918324084L214.27518358551112,34.49099702519439L218.19324890692414,33.308933059196136L219.9140538231939,31.173638698823908L223.89362876714597,31.178976563047854L225.6710615898802,31.13496728888842L229.58619788164853,31.364211215101392L231.27868884468603,29.303196591650135L235.20749394146304,29.67286744895918L239.16412481986484,30.59412696992331L243.10806323647284,28.142847160958695L244.86304016526427,28.404286301876937L248.69030556769118,28.896845288757362L250.31347616247044,30.029395594151566L251.50656757108413,29.812045761695487L252.95838993164762,30.481861889740543L254.63916477610624,30.151867116155387" style="fill: none;" fill="none"></path></g></g></g></g><g opacity="0.2"><g><g><g><path stroke="rgb(0, 119, 187)" stroke-width="2px" d="M3.353318011585262,220.68652152310466L6.95114275850953,135.8013576539562L10.789636107907835,104.22628926397216L12.509464680962678,100.18696570848972L16.396287019498775,83.21017626369334L20.369515732553943,85.09902558516478L22.077140015422476,67.18640499865771L26.03474723703917,66.80262275116026L30.006023263664535,64.0641546885195L31.72682817993428,58.177501752948174L35.57166776022947,52.36449435138698L37.286614617209786,58.33868413666842L41.20907348308991,57.19876461839928L45.041708773198785,47.66938365052184L46.71711372997546,50.2374905886916L50.642501625500294,47.09481912044018L54.517119673850075,55.081802028471486L56.15298273042311,52.893442388006065L57.80202642039735,43.371946512854095L61.57901014725665,43.278557445886804L65.4057873780761,56.831953800947645L69.27650005356625,42.49112621336093L70.90113516316788,43.20192420096117L74.75573817561211,41.63762652811579L76.39648294825967,43.28308521397528L80.20031611352884,54.31297468659477L81.87962644316515,44.07408937914238L85.79183370528877,37.20346311463416L87.52777194138955,32.977700237795176L91.44632543441004,40.39082704204441L95.23648979467056,40.18196448824986L96.89139154393422,32.54281889329948L100.67569784490532,33.96635534053783L102.27543620252686,40.96705483387285L103.87663907497078,42.54823153333368L107.57990888910476,44.32499549375831L108.7715357828961,33.44304391317172L112.43477552521898,33.99413797193773L114.12043208575216,31.94678596622697L115.83196174148031,38.0723017693218L119.76857758397657,43.51218411902232L121.53478245973939,34.18137812302416L125.54804124460564,29.550641811988044L127.31815149322809,33.84851016566421L131.3392210238136,28.28693249815774L133.13178716637884,42.63262666641097L137.1679900167954,33.68015111551804L138.95225724203394,32.405630600333694L142.9850428911983,32.377724764359954L144.76833377322194,32.8259122028299L148.79233233345218,34.13782530617334L150.5648834401119,30.11387152127685L152.34915066535046,35.38856733860746L153.5251560677033,31.73881664559272L154.99894615060214,31.1214693272467L158.7847169663956,31.109426080154293L160.48599501836725,31.334952052560084L164.38697433351942,30.954557930843094L166.1116846226488,34.509379499717625L170.03121445888422,30.403463872077083L171.75250754676142,38.83857261629146L175.64177074333477,37.09568991367158L177.33572622119465,32.32496240561494L181.22157221651582,31.658425661165097L182.94140078957068,32.4453948765391L186.93073916567178,28.63002643514605L188.70036124268677,29.62709025005296L192.69995122254437,32.23391422555051L194.44809374883144,27.699061874101858L196.20355884923032,26.549624802503928L197.9600002928441,31.88851020280282L201.96007844430915,34.55034502051791L205.9582039093444,31.83309894572031L207.7151335245656,42.84235165222236L209.4837792583657,30.999558401436502L213.49166815554997,31.4432796741049L215.2588493745277,31.485816053221612L217.02407790707562,31.788529691135324L218.25085315660357,27.1493538667915L219.72561958271726,30.84361221210426L223.5885215124882,29.404736795423418L225.30298019786107,32.32397676902423L229.27962611216842,29.97126222706231L231.03655572738964,34.50596057279367L232.8003197451152,27.640816911821133L236.83749893874665,30.387262470617713L238.6198134775554,29.683918359734548L240.40798607565355,35.317324293787095L244.42563840498693,32.91505071199987L246.18207984860067,29.39546565124229L247.96097718615727,30.376266462402924L249.71937131620086,31.33757014975407L253.75850319626207,29.941816333915625" style="fill: none;" fill="none"></path></g><g><path stroke="rgb(255, 112, 67)" stroke-width="2px" d="M3.292784732261163,231.26257154742953L6.789069784835329,137.93754015740228L8.378556538700378,122.61700519924774L10.017836796525575,112.53853224692911L11.693729924909698,109.49824377953493L15.458021189975238,84.16485770520086L19.24525652059104,74.12353093189363L20.91724427611555,68.20305834080446L24.764524714447997,85.16084348008673L28.658181455488428,70.99438116562062L32.56453065832262,48.34882607408093L34.2726431127986,60.72762082333796L38.12334075238322,55.606499507293265L39.80753279809404,62.143056569846635L43.58500469656079,43.334769532699255L45.23307204332013,43.586538079332L49.0442277827011,46.380602205916006L50.69424781589025,46.51880693661593L54.50052183919669,47.73717696727479L58.17108415563137,36.914486786703094L59.78839669112121,36.11257901675154L63.708902870571514,50.499485114952705L65.44825830792445,44.107108204930285L67.20372340832333,40.58013086974259L71.19354995603189,41.761385522533516L72.96854192072884,39.74659032545878L74.73914034095873,38.26662618340379L76.51462047726315,38.74352028757741L80.49663627925247,40.857248757441994L84.40396182530156,36.44865029303122L86.10816890691792,37.63203022472081L89.95300848721311,30.850573270525985L91.6323188168494,46.663510708585704L95.40344448441928,35.12484794831266L99.28977865134793,31.26771315638939L100.94077502775198,32.060318981016366L104.73923830533919,38.162733926517035L107.67949589702505,33.71526441906116L109.07664303755386,38.18913050646128L112.75648061453013,31.384357086668103L114.45287695042725,40.649125431090454L118.33335305806646,33.49134010611522L120.040977340935,33.79596341492339L124.00541896505602,32.25698428200121L128.00598528812853,41.1142842996062L129.77560736514351,35.20027994864341L133.7825199191129,33.825748120648115L135.53993770594158,27.39517779273669L139.4687428027186,32.978747476672794L143.2764813408474,29.02012291705256L144.89965193562665,36.813151024723425L147.73495263171026,32.59539644518375L149.2351039814115,25.888509059302862L153.03405543060617,35.15457105175048L154.76706463706225,34.23278523145703L158.7114912252777,30.95782285204976L160.44889397620085,31.995051358027013L164.43823235230195,28.56426599386137L166.19955551199024,32.34485994428934L170.2108616104267,27.358740040024855L171.9804836874417,30.559317657978966L175.96054680300122,26.85052117295359L179.98942707930595,28.600734547716655L181.77515881936688,30.348145018424987L183.5545443285309,42.577431017332685L187.56438591214499,27.83002833608893L189.31789832611406,28.15861493450811L193.3541011765306,31.188369410839357L195.1183533658636,27.105708646510266L199.0339778292394,32.19781528541674L202.95106680743754,28.511010816821L206.9530976453324,29.321296497793355L210.8950833755106,32.21718920465236L212.58025176443635,32.53092965192437L214.27518358551112,39.16367868549975L218.19324890692414,31.535837110198827L219.9140538231939,27.97069715826558L223.89362876714597,31.186983359383703L225.6710615898802,31.068953377649336L229.58619788164853,31.708077104420767L231.27868884468603,26.211674656473264L235.20749394146304,30.227373734922764L239.16412481986484,31.976016251369458L243.10806323647284,24.465927447511717L244.86304016526427,28.7964450132543L248.69030556769118,29.635683769077957L250.31347616247044,31.728221052242873L251.50656757108413,29.48602101301134L252.95838993164762,31.48658608180807L254.63916477610624,29.65687495577768" style="fill: none;" fill="none"></path></g></g></g></g></g></g><g transform="translate(58, 178)" clip-path="url(#clip_1)"><clipPath id="clip_1"><rect width="272" height="22"></rect></clipPath><g><g><line x1="2.1260545904499013" y1="0" x2="2.1260545904499013" y2="5" style="visibility: inherit;" fill="rgb(0, 0, 0)" stroke="rgb(204, 204, 204)" stroke-width="1px"></line><line x1="26.534634963070438" y1="0" x2="26.534634963070438" y2="5" style="visibility: inherit;" fill="rgb(0, 0, 0)" stroke="rgb(204, 204, 204)" stroke-width="1px"></line><line x1="50.94321533569098" y1="0" x2="50.94321533569098" y2="5" style="visibility: inherit;" fill="rgb(0, 0, 0)" stroke="rgb(204, 204, 204)" stroke-width="1px"></line><line x1="75.35179570831151" y1="0" x2="75.35179570831151" y2="5" style="visibility: inherit;" fill="rgb(0, 0, 0)" stroke="rgb(204, 204, 204)" stroke-width="1px"></line><line x1="99.76037608093205" y1="0" x2="99.76037608093205" y2="5" style="visibility: inherit;" fill="rgb(0, 0, 0)" stroke="rgb(204, 204, 204)" stroke-width="1px"></line><line x1="124.16895645355258" y1="0" x2="124.16895645355258" y2="5" style="visibility: inherit;" fill="rgb(0, 0, 0)" stroke="rgb(204, 204, 204)" stroke-width="1px"></line><line x1="148.57753682617314" y1="0" x2="148.57753682617314" y2="5" style="visibility: inherit;" fill="rgb(0, 0, 0)" stroke="rgb(204, 204, 204)" stroke-width="1px"></line><line x1="172.98611719879366" y1="0" x2="172.98611719879366" y2="5" style="visibility: inherit;" fill="rgb(0, 0, 0)" stroke="rgb(204, 204, 204)" stroke-width="1px"></line><line x1="197.3946975714142" y1="0" x2="197.3946975714142" y2="5" style="visibility: inherit;" fill="rgb(0, 0, 0)" stroke="rgb(204, 204, 204)" stroke-width="1px"></line><line x1="221.80327794403473" y1="0" x2="221.80327794403473" y2="5" style="visibility: inherit;" fill="rgb(0, 0, 0)" stroke="rgb(204, 204, 204)" stroke-width="1px"></line><line x1="246.21185831665525" y1="0" x2="246.21185831665525" y2="5" style="visibility: inherit;" fill="rgb(0, 0, 0)" stroke="rgb(204, 204, 204)" stroke-width="1px"></line><line x1="270.62043868927583" y1="0" x2="270.62043868927583" y2="5" style="visibility: inherit;" fill="rgb(0, 0, 0)" stroke="rgb(204, 204, 204)" stroke-width="1px"></line></g><g transform="translate(0, 8)"><text x="2.1260545904499013" y="0" dx="0em" dy="0.95em" style="text-anchor: middle; visibility: hidden; font-family: &quot;Helvetica Neue&quot;, sans-serif; font-size: 12px; font-weight: 200;" fill="rgb(50, 49, 63)" stroke="none" stroke-width="1px">0</text><text x="26.534634963070438" y="0" dx="0em" dy="0.95em" style="text-anchor: middle; visibility: inherit; font-family: &quot;Helvetica Neue&quot;, sans-serif; font-size: 12px; font-weight: 200;" fill="rgb(50, 49, 63)" stroke="none" stroke-width="1px">50k</text><text x="50.94321533569098" y="0" dx="0em" dy="0.95em" style="text-anchor: middle; visibility: hidden; font-family: &quot;Helvetica Neue&quot;, sans-serif; font-size: 12px; font-weight: 200;" fill="rgb(50, 49, 63)" stroke="none" stroke-width="1px">100k</text><text x="75.35179570831151" y="0" dx="0em" dy="0.95em" style="text-anchor: middle; visibility: inherit; font-family: &quot;Helvetica Neue&quot;, sans-serif; font-size: 12px; font-weight: 200;" fill="rgb(50, 49, 63)" stroke="none" stroke-width="1px">150k</text><text x="99.76037608093205" y="0" dx="0em" dy="0.95em" style="text-anchor: middle; visibility: hidden; font-family: &quot;Helvetica Neue&quot;, sans-serif; font-size: 12px; font-weight: 200;" fill="rgb(50, 49, 63)" stroke="none" stroke-width="1px">200k</text><text x="124.16895645355258" y="0" dx="0em" dy="0.95em" style="text-anchor: middle; visibility: inherit; font-family: &quot;Helvetica Neue&quot;, sans-serif; font-size: 12px; font-weight: 200;" fill="rgb(50, 49, 63)" stroke="none" stroke-width="1px">250k</text><text x="148.57753682617314" y="0" dx="0em" dy="0.95em" style="text-anchor: middle; visibility: hidden; font-family: &quot;Helvetica Neue&quot;, sans-serif; font-size: 12px; font-weight: 200;" fill="rgb(50, 49, 63)" stroke="none" stroke-width="1px">300k</text><text x="172.98611719879366" y="0" dx="0em" dy="0.95em" style="text-anchor: middle; visibility: inherit; font-family: &quot;Helvetica Neue&quot;, sans-serif; font-size: 12px; font-weight: 200;" fill="rgb(50, 49, 63)" stroke="none" stroke-width="1px">350k</text><text x="197.3946975714142" y="0" dx="0em" dy="0.95em" style="text-anchor: middle; visibility: hidden; font-family: &quot;Helvetica Neue&quot;, sans-serif; font-size: 12px; font-weight: 200;" fill="rgb(50, 49, 63)" stroke="none" stroke-width="1px">400k</text><text x="221.80327794403473" y="0" dx="0em" dy="0.95em" style="text-anchor: middle; visibility: inherit; font-family: &quot;Helvetica Neue&quot;, sans-serif; font-size: 12px; font-weight: 200;" fill="rgb(50, 49, 63)" stroke="none" stroke-width="1px">450k</text><text x="246.21185831665525" y="0" dx="0em" dy="0.95em" style="text-anchor: middle; visibility: hidden; font-family: &quot;Helvetica Neue&quot;, sans-serif; font-size: 12px; font-weight: 200;" fill="rgb(50, 49, 63)" stroke="none" stroke-width="1px">500k</text><text x="270.62043868927583" y="0" dx="0em" dy="0.95em" style="text-anchor: middle; visibility: hidden; font-family: &quot;Helvetica Neue&quot;, sans-serif; font-size: 12px; font-weight: 200;" fill="rgb(50, 49, 63)" stroke="none" stroke-width="1px">550k</text></g><line x1="0" y1="0" x2="272" y2="0" fill="rgb(0, 0, 0)" stroke="rgb(204, 204, 204)" stroke-width="1px"></line></g></g></g></g></svg>