<svg viewBox="0 0 330 200" xmlns="http://www.w3.org/2000/svg"><g><g><g><g><g><line x1="61.77000045776367" y1="162.6708813025241" x2="56.77000045776367" y2="162.6708813025241" style="visibility: inherit;" fill="rgb(0, 0, 0)" stroke="rgb(204, 204, 204)" stroke-width="1px"></line><line x1="61.77000045776367" y1="146.90564790746058" x2="56.77000045776367" y2="146.90564790746058" style="visibility: inherit;" fill="rgb(0, 0, 0)" stroke="rgb(204, 204, 204)" stroke-width="1px"></line><line x1="61.77000045776367" y1="131.1404145123971" x2="56.77000045776367" y2="131.1404145123971" style="visibility: inherit;" fill="rgb(0, 0, 0)" stroke="rgb(204, 204, 204)" stroke-width="1px"></line><line x1="61.77000045776367" y1="115.3751811173336" x2="56.77000045776367" y2="115.3751811173336" style="visibility: inherit;" fill="rgb(0, 0, 0)" stroke="rgb(204, 204, 204)" stroke-width="1px"></line><line x1="61.77000045776367" y1="99.60994772227009" x2="56.77000045776367" y2="99.60994772227009" style="visibility: inherit;" fill="rgb(0, 0, 0)" stroke="rgb(204, 204, 204)" stroke-width="1px"></line><line x1="61.77000045776367" y1="83.8447143272066" x2="56.77000045776367" y2="83.8447143272066" style="visibility: inherit;" fill="rgb(0, 0, 0)" stroke="rgb(204, 204, 204)" stroke-width="1px"></line><line x1="61.77000045776367" y1="68.0794809321432" x2="56.77000045776367" y2="68.0794809321432" style="visibility: inherit;" fill="rgb(0, 0, 0)" stroke="rgb(204, 204, 204)" stroke-width="1px"></line><line x1="61.77000045776367" y1="52.31424753707971" x2="56.77000045776367" y2="52.31424753707971" style="visibility: inherit;" fill="rgb(0, 0, 0)" stroke="rgb(204, 204, 204)" stroke-width="1px"></line><line x1="61.77000045776367" y1="36.549014142016205" x2="56.77000045776367" y2="36.549014142016205" style="visibility: inherit;" fill="rgb(0, 0, 0)" stroke="rgb(204, 204, 204)" stroke-width="1px"></line><line x1="61.77000045776367" y1="20.783780746952715" x2="56.77000045776367" y2="20.783780746952715" style="visibility: inherit;" fill="rgb(0, 0, 0)" stroke="rgb(204, 204, 204)" stroke-width="1px"></line><line x1="61.77000045776367" y1="5.018547351889225" x2="56.77000045776367" y2="5.018547351889225" style="visibility: inherit;" fill="rgb(0, 0, 0)" stroke="rgb(204, 204, 204)" stroke-width="1px"></line></g><g transform="translate(51.77000045776367, 0)"><text style="text-anchor: end; visibility: inherit; font-family: &quot;Helvetica Neue&quot;, sans-serif; font-size: 12px; font-weight: 200;" x="0" y="162.6708813025241" dx="0em" dy="0.3em" fill="rgb(50, 49, 63)" stroke="none" stroke-width="1px">0.074</text><text style="text-anchor: end; visibility: hidden; font-family: &quot;Helvetica Neue&quot;, sans-serif; font-size: 12px; font-weight: 200;" x="0" y="146.90564790746058" dx="0em" dy="0.3em" fill="rgb(50, 49, 63)" stroke="none" stroke-width="1px">0.076</text><text style="text-anchor: end; visibility: inherit; font-family: &quot;Helvetica Neue&quot;, sans-serif; font-size: 12px; font-weight: 200;" x="0" y="131.1404145123971" dx="0em" dy="0.3em" fill="rgb(50, 49, 63)" stroke="none" stroke-width="1px">0.078</text><text style="text-anchor: end; visibility: hidden; font-family: &quot;Helvetica Neue&quot;, sans-serif; font-size: 12px; font-weight: 200;" x="0" y="115.3751811173336" dx="0em" dy="0.3em" fill="rgb(50, 49, 63)" stroke="none" stroke-width="1px">0.08</text><text style="text-anchor: end; visibility: inherit; font-family: &quot;Helvetica Neue&quot;, sans-serif; font-size: 12px; font-weight: 200;" x="0" y="99.60994772227009" dx="0em" dy="0.3em" fill="rgb(50, 49, 63)" stroke="none" stroke-width="1px">0.082</text><text style="text-anchor: end; visibility: hidden; font-family: &quot;Helvetica Neue&quot;, sans-serif; font-size: 12px; font-weight: 200;" x="0" y="83.8447143272066" dx="0em" dy="0.3em" fill="rgb(50, 49, 63)" stroke="none" stroke-width="1px">0.084</text><text style="text-anchor: end; visibility: inherit; font-family: &quot;Helvetica Neue&quot;, sans-serif; font-size: 12px; font-weight: 200;" x="0" y="68.0794809321432" dx="0em" dy="0.3em" fill="rgb(50, 49, 63)" stroke="none" stroke-width="1px">0.086</text><text style="text-anchor: end; visibility: hidden; font-family: &quot;Helvetica Neue&quot;, sans-serif; font-size: 12px; font-weight: 200;" x="0" y="52.31424753707971" dx="0em" dy="0.3em" fill="rgb(50, 49, 63)" stroke="none" stroke-width="1px">0.088</text><text style="text-anchor: end; visibility: inherit; font-family: &quot;Helvetica Neue&quot;, sans-serif; font-size: 12px; font-weight: 200;" x="0" y="36.549014142016205" dx="0em" dy="0.3em" fill="rgb(50, 49, 63)" stroke="none" stroke-width="1px">0.09</text><text style="text-anchor: end; visibility: hidden; font-family: &quot;Helvetica Neue&quot;, sans-serif; font-size: 12px; font-weight: 200;" x="0" y="20.783780746952715" dx="0em" dy="0.3em" fill="rgb(50, 49, 63)" stroke="none" stroke-width="1px">0.092</text><text style="text-anchor: end; visibility: hidden; font-family: &quot;Helvetica Neue&quot;, sans-serif; font-size: 12px; font-weight: 200;" x="0" y="5.018547351889225" dx="0em" dy="0.3em" fill="rgb(50, 49, 63)" stroke="none" stroke-width="1px">0.094</text></g><line x1="61.77000045776367" y1="0" x2="61.77000045776367" y2="177.95999908447266" fill="rgb(0, 0, 0)" stroke="rgb(204, 204, 204)" stroke-width="1px"></line></g></g><g transform="translate(61, 0)" clip-path="url(#clip_0)"><clipPath id="clip_0"><rect width="268" height="177"></rect></clipPath><g><g><g><line x1="12.46554187563312" y1="0" x2="12.46554187563312" y2="177.95999908447266" fill="rgb(0, 0, 0)" stroke="rgb(60, 60, 60)" stroke-width="1px" opacity="0.25"></line><line x1="35.57396107736367" y1="0" x2="35.57396107736367" y2="177.95999908447266" fill="rgb(0, 0, 0)" stroke="rgb(60, 60, 60)" stroke-width="1px" opacity="0.25"></line><line x1="58.682380279094225" y1="0" x2="58.682380279094225" y2="177.95999908447266" fill="rgb(0, 0, 0)" stroke="rgb(60, 60, 60)" stroke-width="1px" opacity="0.25"></line><line x1="81.79079948082477" y1="0" x2="81.79079948082477" y2="177.95999908447266" fill="rgb(0, 0, 0)" stroke="rgb(60, 60, 60)" stroke-width="1px" opacity="0.25"></line><line x1="104.89921868255531" y1="0" x2="104.89921868255531" y2="177.95999908447266" fill="rgb(0, 0, 0)" stroke="rgb(60, 60, 60)" stroke-width="1px" opacity="0.25"></line><line x1="128.00763788428588" y1="0" x2="128.00763788428588" y2="177.95999908447266" fill="rgb(0, 0, 0)" stroke="rgb(60, 60, 60)" stroke-width="1px" opacity="0.25"></line><line x1="151.1160570860164" y1="0" x2="151.1160570860164" y2="177.95999908447266" fill="rgb(0, 0, 0)" stroke="rgb(60, 60, 60)" stroke-width="1px" opacity="0.25"></line><line x1="174.22447628774697" y1="0" x2="174.22447628774697" y2="177.95999908447266" fill="rgb(0, 0, 0)" stroke="rgb(60, 60, 60)" stroke-width="1px" opacity="0.25"></line><line x1="197.33289548947752" y1="0" x2="197.33289548947752" y2="177.95999908447266" fill="rgb(0, 0, 0)" stroke="rgb(60, 60, 60)" stroke-width="1px" opacity="0.25"></line><line x1="220.44131469120808" y1="0" x2="220.44131469120808" y2="177.95999908447266" fill="rgb(0, 0, 0)" stroke="rgb(60, 60, 60)" stroke-width="1px" opacity="0.25"></line><line x1="243.54973389293863" y1="0" x2="243.54973389293863" y2="177.95999908447266" fill="rgb(0, 0, 0)" stroke="rgb(60, 60, 60)" stroke-width="1px" opacity="0.25"></line><line x1="266.6581530946692" y1="0" x2="266.6581530946692" y2="177.95999908447266" fill="rgb(0, 0, 0)" stroke="rgb(60, 60, 60)" stroke-width="1px" opacity="0.25"></line></g><g><line x1="0" y1="162.6708813025241" x2="268.2299995422363" y2="162.6708813025241" fill="rgb(0, 0, 0)" stroke="rgb(60, 60, 60)" stroke-width="1px" opacity="0.25"></line><line x1="0" y1="146.90564790746058" x2="268.2299995422363" y2="146.90564790746058" fill="rgb(0, 0, 0)" stroke="rgb(60, 60, 60)" stroke-width="1px" opacity="0.25"></line><line x1="0" y1="131.1404145123971" x2="268.2299995422363" y2="131.1404145123971" fill="rgb(0, 0, 0)" stroke="rgb(60, 60, 60)" stroke-width="1px" opacity="0.25"></line><line x1="0" y1="115.3751811173336" x2="268.2299995422363" y2="115.3751811173336" fill="rgb(0, 0, 0)" stroke="rgb(60, 60, 60)" stroke-width="1px" opacity="0.25"></line><line x1="0" y1="99.60994772227009" x2="268.2299995422363" y2="99.60994772227009" fill="rgb(0, 0, 0)" stroke="rgb(60, 60, 60)" stroke-width="1px" opacity="0.25"></line><line x1="0" y1="83.8447143272066" x2="268.2299995422363" y2="83.8447143272066" fill="rgb(0, 0, 0)" stroke="rgb(60, 60, 60)" stroke-width="1px" opacity="0.25"></line><line x1="0" y1="68.0794809321432" x2="268.2299995422363" y2="68.0794809321432" fill="rgb(0, 0, 0)" stroke="rgb(60, 60, 60)" stroke-width="1px" opacity="0.25"></line><line x1="0" y1="52.31424753707971" x2="268.2299995422363" y2="52.31424753707971" fill="rgb(0, 0, 0)" stroke="rgb(60, 60, 60)" stroke-width="1px" opacity="0.25"></line><line x1="0" y1="36.549014142016205" x2="268.2299995422363" y2="36.549014142016205" fill="rgb(0, 0, 0)" stroke="rgb(60, 60, 60)" stroke-width="1px" opacity="0.25"></line><line x1="0" y1="20.783780746952715" x2="268.2299995422363" y2="20.783780746952715" fill="rgb(0, 0, 0)" stroke="rgb(60, 60, 60)" stroke-width="1px" opacity="0.25"></line><line x1="0" y1="5.018547351889225" x2="268.2299995422363" y2="5.018547351889225" fill="rgb(0, 0, 0)" stroke="rgb(60, 60, 60)" stroke-width="1px" opacity="0.25"></line></g></g></g><g><g><line x1="0" y1="745.9845169198729" x2="268.2299995422363" y2="745.9845169198729" fill="rgb(0, 0, 0)" stroke="rgb(153, 153, 153)" stroke-width="1.5px"></line></g></g><g><g><line x1="12.46554187563312" y1="0" x2="12.46554187563312" y2="177.95999908447266" fill="rgb(0, 0, 0)" stroke="rgb(153, 153, 153)" stroke-width="1.5px"></line></g></g><g><g><g><g><g><path style="fill: none;" stroke="rgb(204, 51, 17)" stroke-width="2px" d="M14.1945138003066,-27.285667920776916L17.741193979388203,22.833583617416565L21.338712680713616,42.680058978468566L22.86849003186818,60.69499270113805L26.48819281562725,68.7732221779284L30.125920166363674,83.92763461974852L31.658008359438412,91.43075695008629L33.182701858368596,99.81252336025987L34.71663872497947,86.36793973679404L38.322014288833465,93.07397719261255L41.5539577983875,105.28395062901353L42.980671599902344,110.61645933435528L46.4718915728998,118.45034088159429L48.02708818517626,124.80893859451564L51.63847193802271,111.53578982252716L53.16455194210499,119.01987158273732L56.784254725864066,112.69791661425162L58.34083784329264,133.61074518689924L61.95268376452313,120.00345846678673L63.47229341122893,120.08792288608032L67.09569354206029,136.1274369056844L68.65874701686533,131.07180344175225L70.2218004916704,143.4331956481554L71.8042650386049,157.07616076093538L75.6795469387351,157.26979370107264L77.6664088216999,167.85380390729117L79.48273057095592,162.71771244582104L83.68060600314229,152.16422877350277L85.53066604443285,145.93964227944997L89.73593617076376,148.05826091109185L91.60771812610395,138.63015047696493L95.8827756784241,145.2159686597397L97.78090123165424,120.83158464356967L102.08230238186437,112.13299771839591L103.98458745055083,124.93223182136308L104.89921868255531,136.46230357431497L106.91334850017816,137.8892258278268L111.10845092206031,152.79979061783297L112.9950222656896,138.33456119369322L117.26592030255345,140.41183608145656L119.18391909629709,139.01384432451565L121.09914487973651,146.37073671768664L125.42550312268449,151.41260264259077L129.731988125119,144.96087349103536L131.63797054087775,149.49664630366672L133.55458282946927,148.98419736011786L135.47720330705326,149.5210784790754L139.79524251908862,137.7326201573803L141.72156034374487,150.41129026969037L146.03266703001972,146.5001628722792L147.94280896123476,143.01116306048738L151.1160570860164,146.30244148088664L152.88292681818075,149.43975854294115L156.48737804526667,143.78348638799923L160.11493769155433,135.2794316793903L163.80766307999087,138.19659005196024L165.39105196369346,134.8917999266145L169.08886120435437,138.61824049942425L170.70321536978724,138.4462658994188L174.22447628774697,133.55446606876L176.01029492365672,139.40080035733178L179.64432492732084,140.10083369516897L181.2166217698066,142.5312310129296L182.79723764320497,134.3966640474404L186.46870328597592,138.11417070961772L188.05763819028692,136.62670883095626L188.0895278087853,139.04219120792524L189.233856727655,132.73561094728421L190.61019417531008,142.03561848873528L194.1827557838976,141.0876581596333L195.7661446676002,144.80634159080313L197.33289548947752,137.20383554203698L198.46936754581864,144.8460647981994L199.84801583539388,142.3927208003377L201.41569099403927,135.8660756012747L204.99657163353945,143.0621468071462L206.59798508421937,140.69957284058538L210.26898855860628,145.16419745368972L211.8902752497997,130.76760343708133L213.49862122624015,136.4364097876372L217.19458179336493,134.12088499289274L218.8204901683987,130.1839301113003L222.54418083856555,129.05464232521712L224.15067814146988,127.11350392159429L227.90579626175108,128.88844887017967L229.57329979134795,130.24370683436666L233.31085551303585,124.4120943936625L234.94554508736627,133.423689197697L236.57468864108827,132.65304133781973L240.23275140072224,137.00149115142273L243.54973389293863,128.01325137548264" fill="none"></path></g><g><path style="fill: none;" stroke="rgb(0, 119, 187)" stroke-width="2px" d="M17.03361418343121,-58.4122825457836L20.66764418709536,9.437774448649208L22.295863404049292,43.97505126750602L25.975648077732867,63.82441926944283L29.737236555390567,59.34501843408995L31.353901562743633,77.24009243711237L35.10070065211223,63.03512607657123L38.86044045623378,87.90270406134698L40.48958400995579,115.26668313273032L44.12962220261239,130.65249902514154L45.75321973572598,107.80974156022646L49.466742701444076,110.82866024092036L53.095226684499806,117.61866901643987L54.68138857850659,127.06771192707954L58.397684554528894,128.25420390575448L62.065915018611605,117.22580023985098L63.61464127351159,127.58736920907164L65.17584607478051,139.2023167062284L68.75164286205629,137.35270647273245L72.3745808245036,117.23974750107776L76.03911394151403,120.40766973906125L77.57721032358123,135.73807287371784L81.22649188391851,150.6625402960293L82.77983982265884,146.97986129194678L86.38105587105652,134.17876754734155L87.9709151121356,134.63011066048233L91.67473254178896,131.26437149403432L93.31820331541603,146.29852727461628L97.02802893406185,127.53625762725736L100.61630426770657,135.15664867749842L102.18305508958392,146.1924328872201L105.76578440262021,151.83482553623392L107.28031019710164,146.07955942187522L108.79622249673515,152.67213169533505L112.30223185802171,137.488907181828L113.43038488345022,134.46726066192124L116.89849643724592,142.60312333758202L118.49436386731745,152.5639463651346L120.11472622174279,154.22706882573257L123.84165207059787,138.9348180446929L125.51377728403511,151.4358206185831L129.31326356918365,153.0846518490962L130.98908612969313,158.29574999706185L134.79596710898625,145.52457802308342L136.49304941516132,154.0420328984883L140.3142576143595,155.61728443627547L142.00348305800597,168.502517209779L145.82145607851592,162.71911578699073L147.50975718539436,159.6466305301169L151.31941117499167,147.2315386561988L152.99754457742134,145.14623044203856L154.68677002106782,141.07677734153714L155.8001336582072,150.36982001951253L157.1954200096077,146.29847971640416L160.7795358277961,159.60637582115595L162.39019264615672,156.89291422315324L166.0833802029773,149.98974926942591L167.7162211037716,151.20607658065114L171.42697105918546,157.12850394260025L173.0565767812915,147.459049313901L176.73867229689523,143.44887862306408L178.34239658949537,136.4154339129263L182.02125692641084,145.2672713741061L183.64947614336478,150.20722329399842L187.42631617769564,152.0108761788134L189.1016765698211,151.04968429473115L192.88822214021667,143.50008878429293L194.54324712344462,138.38202061061236L196.2052046324331,159.76558255000677L197.86808647818958,154.4741569360576L201.6550942169692,158.8895054701782L205.44025328221267,139.98104329393396L207.10359729635323,119.41691880401083L208.77803335171063,135.77280570085026L212.5724357846348,155.03649959860692L214.24548533484005,139.06739133371264L215.91668621150922,148.40081495169505L217.0781153605882,135.76100048983662L218.47432604875678,139.74021708346157L222.13146447162265,125.00342086796368L223.7545998363522,135.55443544585404L227.51942349269814,136.30679157105976L229.1827675068387,140.48300730241783L230.85258187835575,145.50931392925264L234.67471441432198,148.64774978567095L236.36209118443236,161.54356882075135L238.05501397515113,150.3945500351972L241.85865977575597,129.98337449475608L243.52154162151254,145.97061049651919L245.20568321293464,147.59196590662407L246.87041373222735,151.43663264148952L250.6943949417297,144.40962693945986" fill="none"></path></g></g></g></g><g opacity="0.2"><g><g><g><path style="fill: none;" stroke="rgb(204, 51, 17)" stroke-width="2px" d="M14.1945138003066,-27.285667920776802L17.741193979388203,52.90513454033258L21.338712680713616,61.732675325078276L22.86849003186818,81.88055475899732L26.48819281562725,79.32015858282608L30.125920166363674,104.8916426152648L31.658008359438412,102.16034193242645L33.182701858368596,112.03321925125032L34.71663872497947,66.53979036810502L38.322014288833465,103.0316612660735L41.5539577983875,123.48816722320065L42.980671599902344,118.58620311547723L46.4718915728998,130.17558421999146L48.02708818517626,134.33437800903263L51.63847193802271,91.64166875267087L53.16455194210499,130.2407158687522L56.784254725864066,103.21765940099263L58.34083784329264,164.9746782809615L61.95268376452313,99.5946013197924L63.47229341122893,120.21461179463817L67.09569354206029,160.18582829002187L68.65874701686533,123.48851960362677L70.2218004916704,161.97503990363452L71.8042650386049,177.54044681617688L75.6795469387351,157.56024173501885L77.6664088216999,183.72977408065032L79.48273057095592,155.01358839546617L83.68060600314229,136.3340194671086L85.53066604443285,136.60276827209435L89.73593617076376,151.2361876876264L91.60771812610395,124.48798795223863L95.8827756784241,155.09469462354426L97.78090123165424,84.25501153032049L102.08230238186437,99.08511795369722L103.98458745055083,144.13108242574407L104.89921868255531,153.75741090642757L106.91334850017816,140.02960918601804L111.10845092206031,175.16563766442763L112.9950222656896,116.63671713805203L117.26592030255345,143.52774840615953L119.18391909629709,136.91685669190727L121.09914487973651,157.40607529859236L125.42550312268449,158.97540152630756L129.731988125119,135.2832797664966L131.63797054087775,156.30030552143498L133.55458282946927,148.2155239448744L135.47720330705326,150.3264001574615L139.79524251908862,120.04993267549916L141.72156034374487,169.4292954377285L146.03266703001972,140.63347177624175L147.94280896123476,137.7776633428418L151.1160570860164,151.23935911146145L152.88292681818075,154.14573413600928L156.48737804526667,135.29907815560088L160.11493769155433,122.52334961649036L163.80766307999087,142.57232761081238L165.39105196369346,129.934614738598L169.08886120435437,144.2079013586377L170.70321536978724,138.18830399941098L174.22447628774697,126.21676632277209L176.01029492365672,148.17030179018928L179.64432492732084,141.15088370192458L181.2166217698066,146.1768269895704L182.79723764320497,122.19481359920663L186.46870328597592,143.69043070288387L188.05763819028692,134.39551601296407L188.0895278087853,142.66541477337847L189.233856727655,123.27574055632269L190.61019417531008,155.98562980091188L194.1827557838976,139.66571766598048L195.7661446676002,150.38436673755785L197.33289548947752,125.80007646888791L198.46936754581864,156.30940868244303L199.84801583539388,138.71270480354514L201.41569099403927,126.0761078026801L204.99657163353945,153.8562536159536L206.59798508421937,137.15571189074404L210.26898855860628,151.86113437334615L211.8902752497997,109.1727124121688L213.49862122624015,144.93961931347116L217.19458179336493,130.64759780077614L218.8204901683987,124.27849778891164L222.54418083856555,127.3607106460922L224.15067814146988,124.20179631616003L227.90579626175108,131.55086629305785L229.57329979134795,132.27659378064726L233.31085551303585,115.66467573260634L234.94554508736627,146.94108140374868L236.57468864108827,131.49706954800388L240.23275140072224,143.52416587182734L243.54973389293863,114.53089171157262" fill="none"></path></g><g><path style="fill: none;" stroke="rgb(0, 119, 187)" stroke-width="2px" d="M17.03361418343121,-16.6089521199074L20.66764418709536,74.57382916330464L22.295863404049292,84.59088880648167L25.975648077732867,89.73975413277157L29.737236555390567,53.14839449449583L31.353901562743633,102.83033458261825L35.10070065211223,42.324148755225195L38.86044045623378,124.57755131054353L40.48958400995579,155.89900294615794L44.12962220261239,153.5916746460102L45.75321973572598,73.6699146402417L49.466742701444076,115.3471809686743L53.095226684499806,127.79037984567174L54.68138857850659,141.23016929780107L58.397684554528894,130.03310506769787L62.065915018611605,100.6878615918226L63.61464127351159,143.1270918616637L65.17584607478051,156.62296853161678L68.75164286205629,134.57846018419016L72.3745808245036,87.07141208606625L76.03911394151403,125.1594488542059L77.57721032358123,158.7333749036357L81.22649188391851,173.04906463495163L82.77983982265884,141.45586896072945L86.38105587105652,114.9771815212507L87.9709151121356,135.30712417533056L91.67473254178896,126.21576791156475L93.31820331541603,168.84974709690692L97.02802893406185,99.39286352584001L100.61630426770657,146.5872327258555L102.18305508958392,162.7461070060511L105.76578440262021,160.29841383616647L107.28031019710164,137.44666066257525L108.79622249673515,162.56098982219726L112.30223185802171,114.7140708030828L113.43038488345022,129.93479092881103L116.89849643724592,154.80691727554813L118.49436386731745,167.50518085098378L120.11472622174279,156.72175251107177L123.84165207059787,115.99644190379615L125.51377728403511,170.18732446437872L129.31326356918365,155.557898693676L130.98908612969313,166.11239721675355L134.79596710898625,126.36782006543454L136.49304941516132,166.8182152102673L140.3142576143595,157.98016174280912L142.00348305800597,187.83036636931107L145.82145607851592,154.0440136530033L147.50975718539436,155.0379026448683L151.31941117499167,128.60890084547214L152.99754457742134,142.0182681208133L154.68677002106782,134.97259769080284L155.8001336582072,164.30938403645126L157.1954200096077,140.1914692617481L160.7795358277961,179.56821997827123L162.39019264615672,152.82272182615037L166.0833802029773,139.6350018388372L167.7162211037716,153.03056754748877L171.42697105918546,166.01214498552307L173.0565767812915,132.95486737085284L176.73867229689523,137.4336225868089L178.34239658949537,125.86526684771968L182.02125692641084,158.54502756587578L183.64947614336478,157.61715117383685L187.42631617769564,154.71635550603588L189.1016765698211,149.6078964686075L192.88822214021667,132.17569551863556L194.54324712344462,130.70491835009128L196.2052046324331,191.8409254590987L197.86808647818958,146.53701851513372L201.6550942169692,165.51252827135917L205.44025328221267,111.61835002956774L207.10359729635323,88.57073206912607L208.77803335171063,160.30663604610922L212.5724357846348,183.93204044524188L214.24548533484005,115.1137289363713L215.91668621150922,162.4009503786688L217.0781153605882,116.80127879704901L218.47432604875678,145.70904197389916L222.13146447162265,102.89822654471693L223.7545998363522,151.38095731268976L227.51942349269814,137.43532575886846L229.1827675068387,146.74733089945497L230.85258187835575,153.04877386950486L234.67471441432198,153.35540357029828L236.36209118443236,180.88729737337184L238.05501397515113,133.67102185686605L241.85865977575597,99.36661118409425L243.52154162151254,169.95146449916393L245.20568321293464,150.0239990217815L246.87041373222735,157.20363274378772L250.6943949417297,133.8691183864152" fill="none"></path></g></g></g></g></g></g><g transform="translate(61, 177)" clip-path="url(#clip_1)"><clipPath id="clip_1"><rect width="268" height="22"></rect></clipPath><g><g><line x1="12.46554187563312" y1="0" x2="12.46554187563312" y2="5" style="visibility: inherit;" fill="rgb(0, 0, 0)" stroke="rgb(204, 204, 204)" stroke-width="1px"></line><line x1="35.57396107736367" y1="0" x2="35.57396107736367" y2="5" style="visibility: inherit;" fill="rgb(0, 0, 0)" stroke="rgb(204, 204, 204)" stroke-width="1px"></line><line x1="58.682380279094225" y1="0" x2="58.682380279094225" y2="5" style="visibility: inherit;" fill="rgb(0, 0, 0)" stroke="rgb(204, 204, 204)" stroke-width="1px"></line><line x1="81.79079948082477" y1="0" x2="81.79079948082477" y2="5" style="visibility: inherit;" fill="rgb(0, 0, 0)" stroke="rgb(204, 204, 204)" stroke-width="1px"></line><line x1="104.89921868255531" y1="0" x2="104.89921868255531" y2="5" style="visibility: inherit;" fill="rgb(0, 0, 0)" stroke="rgb(204, 204, 204)" stroke-width="1px"></line><line x1="128.00763788428588" y1="0" x2="128.00763788428588" y2="5" style="visibility: inherit;" fill="rgb(0, 0, 0)" stroke="rgb(204, 204, 204)" stroke-width="1px"></line><line x1="151.1160570860164" y1="0" x2="151.1160570860164" y2="5" style="visibility: inherit;" fill="rgb(0, 0, 0)" stroke="rgb(204, 204, 204)" stroke-width="1px"></line><line x1="174.22447628774697" y1="0" x2="174.22447628774697" y2="5" style="visibility: inherit;" fill="rgb(0, 0, 0)" stroke="rgb(204, 204, 204)" stroke-width="1px"></line><line x1="197.33289548947752" y1="0" x2="197.33289548947752" y2="5" style="visibility: inherit;" fill="rgb(0, 0, 0)" stroke="rgb(204, 204, 204)" stroke-width="1px"></line><line x1="220.44131469120808" y1="0" x2="220.44131469120808" y2="5" style="visibility: inherit;" fill="rgb(0, 0, 0)" stroke="rgb(204, 204, 204)" stroke-width="1px"></line><line x1="243.54973389293863" y1="0" x2="243.54973389293863" y2="5" style="visibility: inherit;" fill="rgb(0, 0, 0)" stroke="rgb(204, 204, 204)" stroke-width="1px"></line><line x1="266.6581530946692" y1="0" x2="266.6581530946692" y2="5" style="visibility: inherit;" fill="rgb(0, 0, 0)" stroke="rgb(204, 204, 204)" stroke-width="1px"></line></g><g transform="translate(0, 8)"><text style="text-anchor: middle; visibility: inherit; font-family: &quot;Helvetica Neue&quot;, sans-serif; font-size: 12px; font-weight: 200;" x="12.46554187563312" y="0" dx="0em" dy="0.95em" fill="rgb(50, 49, 63)" stroke="none" stroke-width="1px">0</text><text style="text-anchor: middle; visibility: hidden; font-family: &quot;Helvetica Neue&quot;, sans-serif; font-size: 12px; font-weight: 200;" x="35.57396107736367" y="0" dx="0em" dy="0.95em" fill="rgb(50, 49, 63)" stroke="none" stroke-width="1px">50k</text><text style="text-anchor: middle; visibility: inherit; font-family: &quot;Helvetica Neue&quot;, sans-serif; font-size: 12px; font-weight: 200;" x="58.682380279094225" y="0" dx="0em" dy="0.95em" fill="rgb(50, 49, 63)" stroke="none" stroke-width="1px">100k</text><text style="text-anchor: middle; visibility: hidden; font-family: &quot;Helvetica Neue&quot;, sans-serif; font-size: 12px; font-weight: 200;" x="81.79079948082477" y="0" dx="0em" dy="0.95em" fill="rgb(50, 49, 63)" stroke="none" stroke-width="1px">150k</text><text style="text-anchor: middle; visibility: inherit; font-family: &quot;Helvetica Neue&quot;, sans-serif; font-size: 12px; font-weight: 200;" x="104.89921868255531" y="0" dx="0em" dy="0.95em" fill="rgb(50, 49, 63)" stroke="none" stroke-width="1px">200k</text><text style="text-anchor: middle; visibility: hidden; font-family: &quot;Helvetica Neue&quot;, sans-serif; font-size: 12px; font-weight: 200;" x="128.00763788428588" y="0" dx="0em" dy="0.95em" fill="rgb(50, 49, 63)" stroke="none" stroke-width="1px">250k</text><text style="text-anchor: middle; visibility: inherit; font-family: &quot;Helvetica Neue&quot;, sans-serif; font-size: 12px; font-weight: 200;" x="151.1160570860164" y="0" dx="0em" dy="0.95em" fill="rgb(50, 49, 63)" stroke="none" stroke-width="1px">300k</text><text style="text-anchor: middle; visibility: hidden; font-family: &quot;Helvetica Neue&quot;, sans-serif; font-size: 12px; font-weight: 200;" x="174.22447628774697" y="0" dx="0em" dy="0.95em" fill="rgb(50, 49, 63)" stroke="none" stroke-width="1px">350k</text><text style="text-anchor: middle; visibility: inherit; font-family: &quot;Helvetica Neue&quot;, sans-serif; font-size: 12px; font-weight: 200;" x="197.33289548947752" y="0" dx="0em" dy="0.95em" fill="rgb(50, 49, 63)" stroke="none" stroke-width="1px">400k</text><text style="text-anchor: middle; visibility: hidden; font-family: &quot;Helvetica Neue&quot;, sans-serif; font-size: 12px; font-weight: 200;" x="220.44131469120808" y="0" dx="0em" dy="0.95em" fill="rgb(50, 49, 63)" stroke="none" stroke-width="1px">450k</text><text style="text-anchor: middle; visibility: inherit; font-family: &quot;Helvetica Neue&quot;, sans-serif; font-size: 12px; font-weight: 200;" x="243.54973389293863" y="0" dx="0em" dy="0.95em" fill="rgb(50, 49, 63)" stroke="none" stroke-width="1px">500k</text><text style="text-anchor: middle; visibility: hidden; font-family: &quot;Helvetica Neue&quot;, sans-serif; font-size: 12px; font-weight: 200;" x="266.6581530946692" y="0" dx="0em" dy="0.95em" fill="rgb(50, 49, 63)" stroke="none" stroke-width="1px">550k</text></g><line x1="0" y1="0" x2="268.2299995422363" y2="0" fill="rgb(0, 0, 0)" stroke="rgb(204, 204, 204)" stroke-width="1px"></line></g></g></g></g></svg>