<svg viewBox="0 0 330 200" xmlns="http://www.w3.org/2000/svg"><g><g><g><g><g><line x1="51.41600036621094" y1="163.71293121639548" x2="46.41600036621094" y2="163.71293121639548" style="visibility: inherit;" fill="rgb(0, 0, 0)" stroke="rgb(204, 204, 204)" stroke-width="1px"></line><line x1="51.41600036621094" y1="148.48708444997933" x2="46.41600036621094" y2="148.48708444997933" style="visibility: inherit;" fill="rgb(0, 0, 0)" stroke="rgb(204, 204, 204)" stroke-width="1px"></line><line x1="51.41600036621094" y1="133.26123768356322" x2="46.41600036621094" y2="133.26123768356322" style="visibility: inherit;" fill="rgb(0, 0, 0)" stroke="rgb(204, 204, 204)" stroke-width="1px"></line><line x1="51.41600036621094" y1="118.03539091714711" x2="46.41600036621094" y2="118.03539091714711" style="visibility: inherit;" fill="rgb(0, 0, 0)" stroke="rgb(204, 204, 204)" stroke-width="1px"></line><line x1="51.41600036621094" y1="102.809544150731" x2="46.41600036621094" y2="102.809544150731" style="visibility: inherit;" fill="rgb(0, 0, 0)" stroke="rgb(204, 204, 204)" stroke-width="1px"></line><line x1="51.41600036621094" y1="87.58369738431487" x2="46.41600036621094" y2="87.58369738431487" style="visibility: inherit;" fill="rgb(0, 0, 0)" stroke="rgb(204, 204, 204)" stroke-width="1px"></line><line x1="51.41600036621094" y1="72.35785061789878" x2="46.41600036621094" y2="72.35785061789878" style="visibility: inherit;" fill="rgb(0, 0, 0)" stroke="rgb(204, 204, 204)" stroke-width="1px"></line><line x1="51.41600036621094" y1="57.13200385148264" x2="46.41600036621094" y2="57.13200385148264" style="visibility: inherit;" fill="rgb(0, 0, 0)" stroke="rgb(204, 204, 204)" stroke-width="1px"></line><line x1="51.41600036621094" y1="41.906157085066724" x2="46.41600036621094" y2="41.906157085066724" style="visibility: inherit;" fill="rgb(0, 0, 0)" stroke="rgb(204, 204, 204)" stroke-width="1px"></line><line x1="51.41600036621094" y1="26.680310318650584" x2="46.41600036621094" y2="26.680310318650584" style="visibility: inherit;" fill="rgb(0, 0, 0)" stroke="rgb(204, 204, 204)" stroke-width="1px"></line><line x1="51.41600036621094" y1="11.454463552234472" x2="46.41600036621094" y2="11.454463552234472" style="visibility: inherit;" fill="rgb(0, 0, 0)" stroke="rgb(204, 204, 204)" stroke-width="1px"></line></g><g transform="translate(41.41600036621094, 0)"><text style="text-anchor: end; visibility: inherit; font-family: &quot;Helvetica Neue&quot;, sans-serif; font-size: 12px; font-weight: 200;" x="0" y="163.71293121639548" dx="0em" dy="0.3em" fill="rgb(50, 49, 63)" stroke="none" stroke-width="1px">0.61</text><text style="text-anchor: end; visibility: hidden; font-family: &quot;Helvetica Neue&quot;, sans-serif; font-size: 12px; font-weight: 200;" x="0" y="148.48708444997933" dx="0em" dy="0.3em" fill="rgb(50, 49, 63)" stroke="none" stroke-width="1px">0.62</text><text style="text-anchor: end; visibility: inherit; font-family: &quot;Helvetica Neue&quot;, sans-serif; font-size: 12px; font-weight: 200;" x="0" y="133.26123768356322" dx="0em" dy="0.3em" fill="rgb(50, 49, 63)" stroke="none" stroke-width="1px">0.63</text><text style="text-anchor: end; visibility: hidden; font-family: &quot;Helvetica Neue&quot;, sans-serif; font-size: 12px; font-weight: 200;" x="0" y="118.03539091714711" dx="0em" dy="0.3em" fill="rgb(50, 49, 63)" stroke="none" stroke-width="1px">0.64</text><text style="text-anchor: end; visibility: inherit; font-family: &quot;Helvetica Neue&quot;, sans-serif; font-size: 12px; font-weight: 200;" x="0" y="102.809544150731" dx="0em" dy="0.3em" fill="rgb(50, 49, 63)" stroke="none" stroke-width="1px">0.65</text><text style="text-anchor: end; visibility: hidden; font-family: &quot;Helvetica Neue&quot;, sans-serif; font-size: 12px; font-weight: 200;" x="0" y="87.58369738431487" dx="0em" dy="0.3em" fill="rgb(50, 49, 63)" stroke="none" stroke-width="1px">0.66</text><text style="text-anchor: end; visibility: inherit; font-family: &quot;Helvetica Neue&quot;, sans-serif; font-size: 12px; font-weight: 200;" x="0" y="72.35785061789878" dx="0em" dy="0.3em" fill="rgb(50, 49, 63)" stroke="none" stroke-width="1px">0.67</text><text style="text-anchor: end; visibility: hidden; font-family: &quot;Helvetica Neue&quot;, sans-serif; font-size: 12px; font-weight: 200;" x="0" y="57.13200385148264" dx="0em" dy="0.3em" fill="rgb(50, 49, 63)" stroke="none" stroke-width="1px">0.68</text><text style="text-anchor: end; visibility: inherit; font-family: &quot;Helvetica Neue&quot;, sans-serif; font-size: 12px; font-weight: 200;" x="0" y="41.906157085066724" dx="0em" dy="0.3em" fill="rgb(50, 49, 63)" stroke="none" stroke-width="1px">0.69</text><text style="text-anchor: end; visibility: hidden; font-family: &quot;Helvetica Neue&quot;, sans-serif; font-size: 12px; font-weight: 200;" x="0" y="26.680310318650584" dx="0em" dy="0.3em" fill="rgb(50, 49, 63)" stroke="none" stroke-width="1px">0.7</text><text style="text-anchor: end; visibility: inherit; font-family: &quot;Helvetica Neue&quot;, sans-serif; font-size: 12px; font-weight: 200;" x="0" y="11.454463552234472" dx="0em" dy="0.3em" fill="rgb(50, 49, 63)" stroke="none" stroke-width="1px">0.71</text></g><line x1="51.41600036621094" y1="0" x2="51.41600036621094" y2="177.95999908447266" fill="rgb(0, 0, 0)" stroke="rgb(204, 204, 204)" stroke-width="1px"></line></g></g><g transform="translate(51, 0)" clip-path="url(#clip_0)"><clipPath id="clip_0"><rect width="278" height="177"></rect></clipPath><g><g><g><line x1="24.9431633757511" y1="0" x2="24.9431633757511" y2="177.95999908447266" fill="rgb(0, 0, 0)" stroke="rgb(60, 60, 60)" stroke-width="1px" opacity="0.25"></line><line x1="51.44898470497207" y1="0" x2="51.44898470497207" y2="177.95999908447266" fill="rgb(0, 0, 0)" stroke="rgb(60, 60, 60)" stroke-width="1px" opacity="0.25"></line><line x1="77.95480603419303" y1="0" x2="77.95480603419303" y2="177.95999908447266" fill="rgb(0, 0, 0)" stroke="rgb(60, 60, 60)" stroke-width="1px" opacity="0.25"></line><line x1="104.460627363414" y1="0" x2="104.460627363414" y2="177.95999908447266" fill="rgb(0, 0, 0)" stroke="rgb(60, 60, 60)" stroke-width="1px" opacity="0.25"></line><line x1="130.96644869263497" y1="0" x2="130.96644869263497" y2="177.95999908447266" fill="rgb(0, 0, 0)" stroke="rgb(60, 60, 60)" stroke-width="1px" opacity="0.25"></line><line x1="157.47227002185593" y1="0" x2="157.47227002185593" y2="177.95999908447266" fill="rgb(0, 0, 0)" stroke="rgb(60, 60, 60)" stroke-width="1px" opacity="0.25"></line><line x1="183.9780913510769" y1="0" x2="183.9780913510769" y2="177.95999908447266" fill="rgb(0, 0, 0)" stroke="rgb(60, 60, 60)" stroke-width="1px" opacity="0.25"></line><line x1="210.4839126802979" y1="0" x2="210.4839126802979" y2="177.95999908447266" fill="rgb(0, 0, 0)" stroke="rgb(60, 60, 60)" stroke-width="1px" opacity="0.25"></line><line x1="236.98973400951883" y1="0" x2="236.98973400951883" y2="177.95999908447266" fill="rgb(0, 0, 0)" stroke="rgb(60, 60, 60)" stroke-width="1px" opacity="0.25"></line><line x1="263.4955553387398" y1="0" x2="263.4955553387398" y2="177.95999908447266" fill="rgb(0, 0, 0)" stroke="rgb(60, 60, 60)" stroke-width="1px" opacity="0.25"></line></g><g><line x1="0" y1="163.71293121639548" x2="278.58399963378906" y2="163.71293121639548" fill="rgb(0, 0, 0)" stroke="rgb(60, 60, 60)" stroke-width="1px" opacity="0.25"></line><line x1="0" y1="148.48708444997933" x2="278.58399963378906" y2="148.48708444997933" fill="rgb(0, 0, 0)" stroke="rgb(60, 60, 60)" stroke-width="1px" opacity="0.25"></line><line x1="0" y1="133.26123768356322" x2="278.58399963378906" y2="133.26123768356322" fill="rgb(0, 0, 0)" stroke="rgb(60, 60, 60)" stroke-width="1px" opacity="0.25"></line><line x1="0" y1="118.03539091714711" x2="278.58399963378906" y2="118.03539091714711" fill="rgb(0, 0, 0)" stroke="rgb(60, 60, 60)" stroke-width="1px" opacity="0.25"></line><line x1="0" y1="102.809544150731" x2="278.58399963378906" y2="102.809544150731" fill="rgb(0, 0, 0)" stroke="rgb(60, 60, 60)" stroke-width="1px" opacity="0.25"></line><line x1="0" y1="87.58369738431487" x2="278.58399963378906" y2="87.58369738431487" fill="rgb(0, 0, 0)" stroke="rgb(60, 60, 60)" stroke-width="1px" opacity="0.25"></line><line x1="0" y1="72.35785061789878" x2="278.58399963378906" y2="72.35785061789878" fill="rgb(0, 0, 0)" stroke="rgb(60, 60, 60)" stroke-width="1px" opacity="0.25"></line><line x1="0" y1="57.13200385148264" x2="278.58399963378906" y2="57.13200385148264" fill="rgb(0, 0, 0)" stroke="rgb(60, 60, 60)" stroke-width="1px" opacity="0.25"></line><line x1="0" y1="41.906157085066724" x2="278.58399963378906" y2="41.906157085066724" fill="rgb(0, 0, 0)" stroke="rgb(60, 60, 60)" stroke-width="1px" opacity="0.25"></line><line x1="0" y1="26.680310318650584" x2="278.58399963378906" y2="26.680310318650584" fill="rgb(0, 0, 0)" stroke="rgb(60, 60, 60)" stroke-width="1px" opacity="0.25"></line><line x1="0" y1="11.454463552234472" x2="278.58399963378906" y2="11.454463552234472" fill="rgb(0, 0, 0)" stroke="rgb(60, 60, 60)" stroke-width="1px" opacity="0.25"></line></g></g></g><g><g><line x1="0" y1="1092.489583967778" x2="278.58399963378906" y2="1092.489583967778" fill="rgb(0, 0, 0)" stroke="rgb(153, 153, 153)" stroke-width="1.5px"></line></g></g><g><g><line x1="-1.5626579534698644" y1="0" x2="-1.5626579534698644" y2="177.95999908447266" fill="rgb(0, 0, 0)" stroke="rgb(153, 153, 153)" stroke-width="1.5px"></line></g></g><g><g><g><g><g><path style="fill: none;" stroke="rgb(204, 51, 17)" stroke-width="2px" d="M18.69415093917397,184.06130995244902L20.451486893301315,171.47303544470725L22.200340984603315,157.02842628621823L23.959797404437,150.2513199895762L28.095235648222058,137.10095892838535L31.802339819326903,115.54426775285246L33.438809228193,108.07047718891484L37.44330871461171,105.14363009471144L39.22715049006828,102.98598380976175L43.36948024739893,105.23485902665986L45.119924687980685,98.35877288120096L49.271796540989854,93.88715528791711L51.05722866572618,79.47080540242841L55.20008853948342,83.74251539323436L56.94311135009299,77.10437829925667L61.099224134514834,70.59354073744916L62.892077889223344,70.34899355026401L64.68493164393185,62.626826839414065L66.50005028855689,65.47703087560872L70.94507652546726,58.161213111593625L73.22404704335368,46.3786836866731L75.30740459983045,46.2178215858097L80.12245210249672,51.22918350295673L82.24450815811414,47.60706173343041L87.06803752360578,43.216762946142836L89.21500905127269,42.13359160207139L94.11858599717856,36.826964485530254L96.29577416116078,47.17181065893641L101.22956774338196,51.91160308640791L103.41152695520343,39.48408788190184L104.460627363414,38.43808886351107L106.7708747504689,37.30557540454731L111.58274155457568,27.388452542539028L113.74667680789327,44.59274812275879L118.64548270595989,33.32817146050692L120.84546587628523,30.448830894268497L123.04226834805107,25.07614568860521L128.0046882173078,22.01581757823925L132.94431308022143,20.343339338913665L135.13051322345558,22.514432792414112L137.32890604450117,22.662781795762896L139.53419037909237,24.725526326568968L144.4870681526706,27.257639230229017L146.69659341867444,27.3642076240111L151.6415194458539,25.91798046232617L153.8324906369273,25.314843958472892L157.47227002185593,25.199048213079152L159.49890512068816,20.035598208057422L163.63328313162006,26.456441328881425L167.79416696388117,33.33000962220592L172.02979721229067,27.60790912551485L173.84597608976887,23.202646623995093L178.08743761887084,20.500426993374248L179.9391342969302,26.724085213335L183.9780913510769,21.798472345219096L186.02646122339908,17.47650786033722L190.19476668563237,22.50724457036418L191.99822276887258,26.180415896590972L193.8112209477913,21.833395565468663L198.02246584057792,19.60464030708721L199.84500611517515,22.978381548533946L199.88158414860948,18.996730096759222L201.1941524208325,25.769302868961546L202.7728391392009,17.7634077579402L206.87063911669844,20.46402827672611L208.6868179941767,21.399650156090672L210.4839126802979,24.895325722976935L211.78746897326894,25.460818417905045L213.36880627377028,21.593706978868028L215.16696119274462,21.224595868219154L219.2743032659207,21.51679185419073L221.11115668403573,21.744201735960075L225.32187146039578,19.9897519831259L227.1815198848539,25.541658502113336L229.02632504936767,22.27446985739067L233.26566611276328,24.849997547764957L235.13061570148724,23.028337153570902L239.40176375047795,22.49492464752396L241.2444484492854,20.358217513171695L245.55164441528376,17.935353926853907L247.4643044824004,22.982826192823694L251.75135602418857,25.890970916887767L253.62637782501767,21.687607935739663L255.49503822872776,17.081317719633546L259.6909097451434,20.64194693232423L263.4955553387398,18.459673946622814" fill="none"></path></g><g><path style="fill: none;" stroke="rgb(0, 119, 187)" stroke-width="2px" d="M20.102670284608767,180.8922794595481L24.400324154928658,160.23606243433406L28.71282128519291,144.80630967346457L30.581481688902986,128.66855371251305L34.75667866468187,112.17260662468762L36.61897767127294,109.3697739941586L40.878463158878745,106.346754429704L45.04040722399302,93.29563840470917L46.85976680003075,88.499630290887L51.12243298619607,81.91857125913745L55.3299670639966,87.38592176002416L57.10638720948099,88.08634672232074L58.89712049848316,77.28414027926574L62.99863129096681,70.69316829755432L67.15421395896207,82.71269140010413L71.35750710534994,73.02237100802422L73.12173457302289,68.04599090738907L77.30753387733346,63.21654780561326L79.0892551870837,62.258187348479936L83.21992238302948,74.68267172846643L85.04352289047988,70.07011204340337L89.29187593312743,59.20507280505963L91.17696994606163,47.705702044143464L95.43221450225475,49.54295957935156L99.54803843825619,50.39915504846553L101.34513312437737,41.90961763786373L105.45459566325978,38.49363046051414L107.19178719317694,44.694840139218L108.93056907237383,50.27909040603383L112.95203228444322,55.72367798928303L114.2460464817358,46.165308580023975L118.22404014682527,41.07978889530699L120.05453216782128,35.61553316875319L121.91312035942626,39.55631774764555L126.187979223403,48.33206072441348L128.10594045478544,42.60051548171975L132.46402759773596,33.703949880894044L134.38622976053105,33.43134139640628L138.7527987663069,26.71307784846266L140.69938628472488,39.589498354582076L145.08238889972486,36.7642478616346L147.01996443889095,33.566988244907606L151.39925623890483,31.615743544666998L153.3357715452177,30.97321617715852L157.70552124955307,32.1338787921421L159.63037399448112,28.087772481794445L161.56794953364715,31.87669733283377L162.84500000528902,29.84857222020861L164.44542149714738,27.904111248657642L168.55647438530954,26.72324087794874L170.40393013195626,26.280516389840926L174.64009049679234,25.566561290145216L176.5129918319151,29.327787808722235L180.7692966209614,26.745422220905994L182.63848714109807,35.13735360938932L186.86192471169613,38.11840635174832L188.70142871194406,34.284410371801556L192.92115546755605,31.198453787572703L194.78875563841294,30.274376711086404L199.12086707646085,25.22325863405709L201.04253912282934,23.367695471201955L205.3857830058355,25.326677355814496L207.28412992943433,21.157433814702728L209.19042859943187,17.301197735208433L211.0977875022826,21.279696524566532L215.44156150171537,26.803949608572054L219.78321503544174,26.916041704301932L221.69110405471906,39.95845186162367L223.61171586823443,33.82635869583703L227.96397173049252,30.670058568090184L229.8829931947281,28.82641051426245L231.79989419325736,28.076990342559668L233.132076773264,22.15975324231971L234.73355849797554,22.963346308077604L238.92836978153804,21.749689369791128L240.79013867170252,24.4620185427068L245.10846708265922,23.316581556142836L247.01635610193654,27.973770529846206L248.93166675118607,22.677044060067516L253.3157295990392,22.73588151551931L255.25118467249894,21.94224500174724L257.19300114307765,28.10541605929305L261.55585933386743,28.972075496252785L263.46321823671815,25.344000207193744L265.39496249519175,24.323095658431697L267.3044418637489,24.84351486416972L271.69062517730833,23.51077535639456" fill="none"></path></g></g></g></g><g opacity="0.2"><g><g><g><path style="fill: none;" stroke="rgb(204, 51, 17)" stroke-width="2px" d="M10.369732692518829,183.10204100613217L14.521604545528001,167.7690293269221L18.69415093917397,148.93630512774862L20.451486893301315,153.47160148624386L22.200340984603315,135.9680474648933L23.959797404437,140.25640458715634L28.095235648222058,117.57420534819634L31.802339819326903,83.40474859194235L33.438809228193,96.90046338121493L37.44330871461171,100.76291611698866L39.22715049006828,99.75374143602524L43.36948024739893,108.60552838360896L45.119924687980685,88.04949321170032L49.271796540989854,87.18162113669553L51.05722866572618,57.84994088386941L55.20008853948342,90.14942962742093L56.94311135009299,67.14777941031423L61.099224134514834,60.827641464543106L62.892077889223344,69.98218081641586L64.68493164393185,51.04372923385009L66.50005028855689,69.75230316651654L70.94507652546726,47.18753846327297L73.22404704335368,28.70493979639778L75.30740459983045,45.97652884611685L80.12245210249672,58.74621868505602L82.24450815811414,42.17388241562682L87.06803752360578,36.63131719166279L89.21500905127269,40.50883494515594L94.11858599717856,28.867024866559717L96.29577416116078,62.68907868407918L101.22956774338196,59.02129138811358L103.41152695520343,20.842815609237277L104.460627363414,36.86909036289697L106.7708747504689,35.60680523362353L111.58274155457568,12.512768341586906L113.74667680789327,70.3991913972636L118.64548270595989,16.431306504773914L120.84546587628523,26.129820050683975L123.04226834805107,17.01711788657417L128.0046882173078,17.425325414899135L132.94431308022143,17.834621980649615L135.13051322345558,25.771072972100484L137.32890604450117,22.885305300762752L139.53419037909237,27.819643122584978L144.4870681526706,31.055808585577353L146.69659341867444,27.524060214680475L151.6415194458539,23.748639719827963L153.8324906369273,24.41013920270052L157.47227002185593,25.025354594989295L159.49890512068816,12.290423200547309L163.63328313162006,36.087706010100646L167.79416696388117,43.64036206218154L172.02979721229067,19.024758380483632L173.84597608976887,16.59475287171773L178.08743761887084,16.44709754744366L179.9391342969302,36.05957254327524L183.9780913510769,14.410053043045707L186.02646122339908,10.993561133014254L190.19476668563237,30.053349635404516L191.99822276887258,31.69017288593119L193.8112209477913,15.3128650687853L198.02246584057792,16.261507419514686L199.84500611517515,28.03899341070445L199.88158414860948,13.024252919096796L201.1941524208325,35.928162027264875L202.7728391392009,5.754565091408381L206.87063911669844,24.514959054904892L208.6868179941767,22.8030829751375L210.4839126802979,30.138839073306258L211.78746897326894,26.309057460297538L213.36880627377028,15.79303982031206L215.16696119274462,20.670929202245873L219.2743032659207,21.955085833148075L221.11115668403573,22.085316558614153L225.32187146039578,17.358077353874506L227.1815198848539,33.86951828059449L229.02632504936767,17.373686890306686L233.26566611276328,28.7132890833266L235.13061570148724,20.29584656227985L239.40176375047795,21.694805888453544L241.2444484492854,17.1531568116429L245.55164441528376,14.301058547376897L247.4643044824004,30.55403459177819L251.75135602418857,30.25318800298379L253.62637782501767,15.382563464017295L255.49503822872776,10.171882395474427L259.6909097451434,25.98289075136026L263.4955553387398,15.186264468070902" fill="none"></path></g><g><path style="fill: none;" stroke="rgb(0, 119, 187)" stroke-width="2px" d="M18.24832302441647,184.02799507716364L20.102670284608767,131.24988357203281L24.400324154928658,130.11909971188854L28.71282128519291,122.05042142635818L30.581481688902986,104.70586686913062L34.75667866468187,87.57830301893395L36.61897767127294,105.18077793976747L40.878463158878745,101.82209576640632L45.04040722399302,73.74453286216239L46.85976680003075,81.31125564765597L51.12243298619607,72.05162418422245L55.3299670639966,95.58463391185441L57.10638720948099,89.1368063279434L58.89712049848316,61.08247622211013L62.99863129096681,60.80731276593377L67.15421395896207,100.74131687471625L71.35750710534994,58.48720928402457L73.12173457302289,60.58151900638008L77.30753387733346,55.972440362307225L79.0892551870837,60.82065347439614L83.21992238302948,93.3193453136954L85.04352289047988,63.151284318085175L89.29187593312743,42.90753062793871L91.17696994606163,30.456656495314718L95.43221450225475,52.29884486673896L99.54803843825619,51.683447968212604L101.34513312437737,29.175313211095045L105.45459566325978,33.36965010228994L107.19178719317694,53.996654213093635L108.93056907237383,58.65546556626434L112.95203228444322,63.89055922376217L114.2460464817358,31.82775461401937L118.22404014682527,33.45150941544003L120.05453216782128,27.419149609357305L121.91312035942626,45.46749460281433L126.187979223403,61.49567517196864L128.10594045478544,34.003197624574625L132.46402759773596,20.359101486077662L134.38622976053105,33.02242866979299L138.7527987663069,16.63568252829276L140.69938628472488,58.904129111753534L145.08238889972486,32.52637212247768L147.01996443889095,28.771098819996922L151.39925623890483,28.68887649437167L153.3357715452177,30.00942512590933L157.70552124955307,33.874872714603185L159.63037399448112,22.018613016302254L161.56794953364715,37.56008460937679L162.84500000528902,26.806384551275926L164.44542149714738,24.98741979133436L168.55647438530954,24.951935321886793L170.40393013195626,25.616429657679475L174.64009049679234,24.495628640602263L176.5129918319151,34.969627586587194L180.7692966209614,22.871873839181575L182.63848714109807,47.72525069211366L186.86192471169613,42.589985465286645L188.70142871194406,28.53341640188151L192.92115546755605,26.569518911229636L194.78875563841294,28.888261096356985L199.12086707646085,17.646581518513244L201.04253912282934,20.584350726918586L205.3857830058355,28.265150182733322L207.28412992943433,14.903568503034819L209.19042859943187,11.516843615967076L211.0977875022826,27.247444708603467L215.44156150171537,35.09032923458014L219.78321503544174,27.084179847897246L221.69110405471906,59.522067097606055L223.61171586823443,24.62821894715688L227.96397173049252,25.935608376469787L229.8829931947281,26.060938433521102L231.79989419325736,26.952860085005682L233.132076773264,13.2838975919598L234.73355849797554,24.16873590671463L238.92836978153804,19.9292039623615L240.79013867170252,28.530512302080183L245.10846708265922,21.59842607629679L247.01635610193654,34.959553990401304L248.93166675118607,14.731954355399779L253.3157295990392,22.82413769869717L255.25118467249894,20.751790231089245L257.19300114307765,37.35017264561165L261.55585933386743,30.27206465169246L263.46321823671815,19.901887273605183L265.39496249519175,22.791738835288527L267.3044418637489,25.624143672776768L271.69062517730833,21.511666094731936" fill="none"></path></g></g></g></g></g></g><g transform="translate(51, 177)" clip-path="url(#clip_1)"><clipPath id="clip_1"><rect width="278" height="22"></rect></clipPath><g><g><line x1="24.9431633757511" y1="0" x2="24.9431633757511" y2="5" style="visibility: inherit;" fill="rgb(0, 0, 0)" stroke="rgb(204, 204, 204)" stroke-width="1px"></line><line x1="51.44898470497207" y1="0" x2="51.44898470497207" y2="5" style="visibility: inherit;" fill="rgb(0, 0, 0)" stroke="rgb(204, 204, 204)" stroke-width="1px"></line><line x1="77.95480603419303" y1="0" x2="77.95480603419303" y2="5" style="visibility: inherit;" fill="rgb(0, 0, 0)" stroke="rgb(204, 204, 204)" stroke-width="1px"></line><line x1="104.460627363414" y1="0" x2="104.460627363414" y2="5" style="visibility: inherit;" fill="rgb(0, 0, 0)" stroke="rgb(204, 204, 204)" stroke-width="1px"></line><line x1="130.96644869263497" y1="0" x2="130.96644869263497" y2="5" style="visibility: inherit;" fill="rgb(0, 0, 0)" stroke="rgb(204, 204, 204)" stroke-width="1px"></line><line x1="157.47227002185593" y1="0" x2="157.47227002185593" y2="5" style="visibility: inherit;" fill="rgb(0, 0, 0)" stroke="rgb(204, 204, 204)" stroke-width="1px"></line><line x1="183.9780913510769" y1="0" x2="183.9780913510769" y2="5" style="visibility: inherit;" fill="rgb(0, 0, 0)" stroke="rgb(204, 204, 204)" stroke-width="1px"></line><line x1="210.4839126802979" y1="0" x2="210.4839126802979" y2="5" style="visibility: inherit;" fill="rgb(0, 0, 0)" stroke="rgb(204, 204, 204)" stroke-width="1px"></line><line x1="236.98973400951883" y1="0" x2="236.98973400951883" y2="5" style="visibility: inherit;" fill="rgb(0, 0, 0)" stroke="rgb(204, 204, 204)" stroke-width="1px"></line><line x1="263.4955553387398" y1="0" x2="263.4955553387398" y2="5" style="visibility: inherit;" fill="rgb(0, 0, 0)" stroke="rgb(204, 204, 204)" stroke-width="1px"></line></g><g transform="translate(0, 8)"><text style="text-anchor: middle; visibility: inherit; font-family: &quot;Helvetica Neue&quot;, sans-serif; font-size: 12px; font-weight: 200;" x="24.9431633757511" y="0" dx="0em" dy="0.95em" fill="rgb(50, 49, 63)" stroke="none" stroke-width="1px">50k</text><text style="text-anchor: middle; visibility: hidden; font-family: &quot;Helvetica Neue&quot;, sans-serif; font-size: 12px; font-weight: 200;" x="51.44898470497207" y="0" dx="0em" dy="0.95em" fill="rgb(50, 49, 63)" stroke="none" stroke-width="1px">100k</text><text style="text-anchor: middle; visibility: inherit; font-family: &quot;Helvetica Neue&quot;, sans-serif; font-size: 12px; font-weight: 200;" x="77.95480603419303" y="0" dx="0em" dy="0.95em" fill="rgb(50, 49, 63)" stroke="none" stroke-width="1px">150k</text><text style="text-anchor: middle; visibility: hidden; font-family: &quot;Helvetica Neue&quot;, sans-serif; font-size: 12px; font-weight: 200;" x="104.460627363414" y="0" dx="0em" dy="0.95em" fill="rgb(50, 49, 63)" stroke="none" stroke-width="1px">200k</text><text style="text-anchor: middle; visibility: inherit; font-family: &quot;Helvetica Neue&quot;, sans-serif; font-size: 12px; font-weight: 200;" x="130.96644869263497" y="0" dx="0em" dy="0.95em" fill="rgb(50, 49, 63)" stroke="none" stroke-width="1px">250k</text><text style="text-anchor: middle; visibility: hidden; font-family: &quot;Helvetica Neue&quot;, sans-serif; font-size: 12px; font-weight: 200;" x="157.47227002185593" y="0" dx="0em" dy="0.95em" fill="rgb(50, 49, 63)" stroke="none" stroke-width="1px">300k</text><text style="text-anchor: middle; visibility: inherit; font-family: &quot;Helvetica Neue&quot;, sans-serif; font-size: 12px; font-weight: 200;" x="183.9780913510769" y="0" dx="0em" dy="0.95em" fill="rgb(50, 49, 63)" stroke="none" stroke-width="1px">350k</text><text style="text-anchor: middle; visibility: hidden; font-family: &quot;Helvetica Neue&quot;, sans-serif; font-size: 12px; font-weight: 200;" x="210.4839126802979" y="0" dx="0em" dy="0.95em" fill="rgb(50, 49, 63)" stroke="none" stroke-width="1px">400k</text><text style="text-anchor: middle; visibility: inherit; font-family: &quot;Helvetica Neue&quot;, sans-serif; font-size: 12px; font-weight: 200;" x="236.98973400951883" y="0" dx="0em" dy="0.95em" fill="rgb(50, 49, 63)" stroke="none" stroke-width="1px">450k</text><text style="text-anchor: middle; visibility: hidden; font-family: &quot;Helvetica Neue&quot;, sans-serif; font-size: 12px; font-weight: 200;" x="263.4955553387398" y="0" dx="0em" dy="0.95em" fill="rgb(50, 49, 63)" stroke="none" stroke-width="1px">500k</text></g><line x1="0" y1="0" x2="278.58399963378906" y2="0" fill="rgb(0, 0, 0)" stroke="rgb(204, 204, 204)" stroke-width="1px"></line></g></g></g></g></svg>