<svg viewBox="0 0 330 200" xmlns="http://www.w3.org/2000/svg"><g><g><g><g><g><line x1="51.41600036621094" y1="175.00657352167002" x2="46.41600036621094" y2="175.00657352167002" style="visibility: inherit;" fill="rgb(0, 0, 0)" stroke="rgb(204, 204, 204)" stroke-width="1px"></line><line x1="51.41600036621094" y1="155.82440436713014" x2="46.41600036621094" y2="155.82440436713014" style="visibility: inherit;" fill="rgb(0, 0, 0)" stroke="rgb(204, 204, 204)" stroke-width="1px"></line><line x1="51.41600036621094" y1="136.64223521259015" x2="46.41600036621094" y2="136.64223521259015" style="visibility: inherit;" fill="rgb(0, 0, 0)" stroke="rgb(204, 204, 204)" stroke-width="1px"></line><line x1="51.41600036621094" y1="117.46006605805016" x2="46.41600036621094" y2="117.46006605805016" style="visibility: inherit;" fill="rgb(0, 0, 0)" stroke="rgb(204, 204, 204)" stroke-width="1px"></line><line x1="51.41600036621094" y1="98.27789690351015" x2="46.41600036621094" y2="98.27789690351015" style="visibility: inherit;" fill="rgb(0, 0, 0)" stroke="rgb(204, 204, 204)" stroke-width="1px"></line><line x1="51.41600036621094" y1="79.09572774897016" x2="46.41600036621094" y2="79.09572774897016" style="visibility: inherit;" fill="rgb(0, 0, 0)" stroke="rgb(204, 204, 204)" stroke-width="1px"></line><line x1="51.41600036621094" y1="59.91355859443016" x2="46.41600036621094" y2="59.91355859443016" style="visibility: inherit;" fill="rgb(0, 0, 0)" stroke="rgb(204, 204, 204)" stroke-width="1px"></line><line x1="51.41600036621094" y1="40.73138943989028" x2="46.41600036621094" y2="40.73138943989028" style="visibility: inherit;" fill="rgb(0, 0, 0)" stroke="rgb(204, 204, 204)" stroke-width="1px"></line><line x1="51.41600036621094" y1="21.549220285350287" x2="46.41600036621094" y2="21.549220285350287" style="visibility: inherit;" fill="rgb(0, 0, 0)" stroke="rgb(204, 204, 204)" stroke-width="1px"></line><line x1="51.41600036621094" y1="2.367051130810296" x2="46.41600036621094" y2="2.367051130810296" style="visibility: inherit;" fill="rgb(0, 0, 0)" stroke="rgb(204, 204, 204)" stroke-width="1px"></line></g><g transform="translate(41.41600036621094, 0)"><text style="text-anchor: end; visibility: hidden; font-family: &quot;Helvetica Neue&quot;, sans-serif; font-size: 12px; font-weight: 200;" x="0" y="175.00657352167002" dx="0em" dy="0.3em" fill="rgb(50, 49, 63)" stroke="none" stroke-width="1px">0.56</text><text style="text-anchor: end; visibility: inherit; font-family: &quot;Helvetica Neue&quot;, sans-serif; font-size: 12px; font-weight: 200;" x="0" y="155.82440436713014" dx="0em" dy="0.3em" fill="rgb(50, 49, 63)" stroke="none" stroke-width="1px">0.58</text><text style="text-anchor: end; visibility: hidden; font-family: &quot;Helvetica Neue&quot;, sans-serif; font-size: 12px; font-weight: 200;" x="0" y="136.64223521259015" dx="0em" dy="0.3em" fill="rgb(50, 49, 63)" stroke="none" stroke-width="1px">0.6</text><text style="text-anchor: end; visibility: inherit; font-family: &quot;Helvetica Neue&quot;, sans-serif; font-size: 12px; font-weight: 200;" x="0" y="117.46006605805016" dx="0em" dy="0.3em" fill="rgb(50, 49, 63)" stroke="none" stroke-width="1px">0.62</text><text style="text-anchor: end; visibility: hidden; font-family: &quot;Helvetica Neue&quot;, sans-serif; font-size: 12px; font-weight: 200;" x="0" y="98.27789690351015" dx="0em" dy="0.3em" fill="rgb(50, 49, 63)" stroke="none" stroke-width="1px">0.64</text><text style="text-anchor: end; visibility: inherit; font-family: &quot;Helvetica Neue&quot;, sans-serif; font-size: 12px; font-weight: 200;" x="0" y="79.09572774897016" dx="0em" dy="0.3em" fill="rgb(50, 49, 63)" stroke="none" stroke-width="1px">0.66</text><text style="text-anchor: end; visibility: hidden; font-family: &quot;Helvetica Neue&quot;, sans-serif; font-size: 12px; font-weight: 200;" x="0" y="59.91355859443016" dx="0em" dy="0.3em" fill="rgb(50, 49, 63)" stroke="none" stroke-width="1px">0.68</text><text style="text-anchor: end; visibility: inherit; font-family: &quot;Helvetica Neue&quot;, sans-serif; font-size: 12px; font-weight: 200;" x="0" y="40.73138943989028" dx="0em" dy="0.3em" fill="rgb(50, 49, 63)" stroke="none" stroke-width="1px">0.7</text><text style="text-anchor: end; visibility: hidden; font-family: &quot;Helvetica Neue&quot;, sans-serif; font-size: 12px; font-weight: 200;" x="0" y="21.549220285350287" dx="0em" dy="0.3em" fill="rgb(50, 49, 63)" stroke="none" stroke-width="1px">0.72</text><text style="text-anchor: end; visibility: hidden; font-family: &quot;Helvetica Neue&quot;, sans-serif; font-size: 12px; font-weight: 200;" x="0" y="2.367051130810296" dx="0em" dy="0.3em" fill="rgb(50, 49, 63)" stroke="none" stroke-width="1px">0.74</text></g><line x1="51.41600036621094" y1="0" x2="51.41600036621094" y2="177.95999908447266" fill="rgb(0, 0, 0)" stroke="rgb(204, 204, 204)" stroke-width="1px"></line></g></g><g transform="translate(51, 0)" clip-path="url(#clip_0)"><clipPath id="clip_0"><rect width="278" height="177"></rect></clipPath><g><g><g><line x1="10.280212472509703" y1="0" x2="10.280212472509703" y2="177.95999908447266" fill="rgb(0, 0, 0)" stroke="rgb(60, 60, 60)" stroke-width="1px" opacity="0.25"></line><line x1="35.05960099484655" y1="0" x2="35.05960099484655" y2="177.95999908447266" fill="rgb(0, 0, 0)" stroke="rgb(60, 60, 60)" stroke-width="1px" opacity="0.25"></line><line x1="59.838989517183386" y1="0" x2="59.838989517183386" y2="177.95999908447266" fill="rgb(0, 0, 0)" stroke="rgb(60, 60, 60)" stroke-width="1px" opacity="0.25"></line><line x1="84.61837803952024" y1="0" x2="84.61837803952024" y2="177.95999908447266" fill="rgb(0, 0, 0)" stroke="rgb(60, 60, 60)" stroke-width="1px" opacity="0.25"></line><line x1="109.39776656185707" y1="0" x2="109.39776656185707" y2="177.95999908447266" fill="rgb(0, 0, 0)" stroke="rgb(60, 60, 60)" stroke-width="1px" opacity="0.25"></line><line x1="134.1771550841939" y1="0" x2="134.1771550841939" y2="177.95999908447266" fill="rgb(0, 0, 0)" stroke="rgb(60, 60, 60)" stroke-width="1px" opacity="0.25"></line><line x1="158.95654360653077" y1="0" x2="158.95654360653077" y2="177.95999908447266" fill="rgb(0, 0, 0)" stroke="rgb(60, 60, 60)" stroke-width="1px" opacity="0.25"></line><line x1="183.7359321288676" y1="0" x2="183.7359321288676" y2="177.95999908447266" fill="rgb(0, 0, 0)" stroke="rgb(60, 60, 60)" stroke-width="1px" opacity="0.25"></line><line x1="208.51532065120443" y1="0" x2="208.51532065120443" y2="177.95999908447266" fill="rgb(0, 0, 0)" stroke="rgb(60, 60, 60)" stroke-width="1px" opacity="0.25"></line><line x1="233.2947091735413" y1="0" x2="233.2947091735413" y2="177.95999908447266" fill="rgb(0, 0, 0)" stroke="rgb(60, 60, 60)" stroke-width="1px" opacity="0.25"></line><line x1="258.07409769587815" y1="0" x2="258.07409769587815" y2="177.95999908447266" fill="rgb(0, 0, 0)" stroke="rgb(60, 60, 60)" stroke-width="1px" opacity="0.25"></line></g><g><line x1="0" y1="175.00657352167002" x2="278.58399963378906" y2="175.00657352167002" fill="rgb(0, 0, 0)" stroke="rgb(60, 60, 60)" stroke-width="1px" opacity="0.25"></line><line x1="0" y1="155.82440436713014" x2="278.58399963378906" y2="155.82440436713014" fill="rgb(0, 0, 0)" stroke="rgb(60, 60, 60)" stroke-width="1px" opacity="0.25"></line><line x1="0" y1="136.64223521259015" x2="278.58399963378906" y2="136.64223521259015" fill="rgb(0, 0, 0)" stroke="rgb(60, 60, 60)" stroke-width="1px" opacity="0.25"></line><line x1="0" y1="117.46006605805016" x2="278.58399963378906" y2="117.46006605805016" fill="rgb(0, 0, 0)" stroke="rgb(60, 60, 60)" stroke-width="1px" opacity="0.25"></line><line x1="0" y1="98.27789690351015" x2="278.58399963378906" y2="98.27789690351015" fill="rgb(0, 0, 0)" stroke="rgb(60, 60, 60)" stroke-width="1px" opacity="0.25"></line><line x1="0" y1="79.09572774897016" x2="278.58399963378906" y2="79.09572774897016" fill="rgb(0, 0, 0)" stroke="rgb(60, 60, 60)" stroke-width="1px" opacity="0.25"></line><line x1="0" y1="59.91355859443016" x2="278.58399963378906" y2="59.91355859443016" fill="rgb(0, 0, 0)" stroke="rgb(60, 60, 60)" stroke-width="1px" opacity="0.25"></line><line x1="0" y1="40.73138943989028" x2="278.58399963378906" y2="40.73138943989028" fill="rgb(0, 0, 0)" stroke="rgb(60, 60, 60)" stroke-width="1px" opacity="0.25"></line><line x1="0" y1="21.549220285350287" x2="278.58399963378906" y2="21.549220285350287" fill="rgb(0, 0, 0)" stroke="rgb(60, 60, 60)" stroke-width="1px" opacity="0.25"></line><line x1="0" y1="2.367051130810296" x2="278.58399963378906" y2="2.367051130810296" fill="rgb(0, 0, 0)" stroke="rgb(60, 60, 60)" stroke-width="1px" opacity="0.25"></line></g></g></g><g><g><line x1="0" y1="712.1073098487894" x2="278.58399963378906" y2="712.1073098487894" fill="rgb(0, 0, 0)" stroke="rgb(153, 153, 153)" stroke-width="1.5px"></line></g></g><g><g><line x1="10.280212472509703" y1="0" x2="10.280212472509703" y2="177.95999908447266" fill="rgb(0, 0, 0)" stroke="rgb(153, 153, 153)" stroke-width="1.5px"></line></g></g><g><g><g><g><g><path style="fill: none;" stroke="rgb(204, 51, 17)" stroke-width="2px" d="M18.763683927016945,196.08709280689584L20.434310301192895,177.17070406067634L24.299399322906996,152.1515535817481L28.15755011583484,131.69700548158806L29.818760322372302,118.67911441028463L33.68335375631595,109.36840364002553L35.32870515419912,98.1574748809629L39.193794175913226,91.69611910214819L43.07721994513385,87.48557630007866L44.73545662504864,79.09999188048572L46.38972860279984,75.67719220252133L48.042018229469264,71.90402986933793L51.91255871665828,68.14183880688688L53.54799835913251,62.08570897912692L57.42399031179644,60.94038373617447L61.29007050905143,57.6982637613778L62.950289540048,55.28419387332467L66.80249327973048,49.807632055297404L68.45676525748169,45.366357591454744L70.32760909091814,42.883179625894L71.92786200169064,44.51727743543117L75.86183772349683,45.34868625969969L77.60977578986248,41.74293581377057L79.2600830654501,41.381654443487434L80.93170061516696,40.34899348700591L85.05399968974291,39.1104121574094L89.25856633421304,36.68226801957198L91.08183374168658,32.4336269346297L95.1476358104316,36.50128557834762L96.91688415092646,36.715922379158314L101.07585672051547,38.87359550612348L102.79851981058832,41.29615630642161L104.504332916466,34.540854460104754L108.43781305050175,34.369494416909674L110.12776734772513,33.87391604259017L111.34691326302409,32.33885082849318L112.80790601030108,32.16857866791423L116.68092443634231,30.533347945870787L118.414490457365,32.50009948162878L122.4005028950681,31.932614063696718L124.16132624346535,30.912311923214503L128.1666666042159,30.145070003134123L129.94780905120146,30.655928998887077L131.72449120825303,26.63060223823527L135.71843305028327,25.013027482466526L137.50254902389153,26.4620779690286L141.2189617144716,26.482184837165875L145.2238064874517,25.913977804041423L146.98562101138984,31.781355818530358L151.07124659095274,30.39934202557501L152.85585815233142,32.85704878558036L156.97716605136648,31.15986991919084L158.77268054369503,30.324909624610285L158.95654360653077,31.400630970710807L160.90668148323866,33.45286002937786L164.88377334107375,29.341499906443886L166.59553350019678,32.229226459298616L170.5344650997074,30.916627912718553L172.2977663869569,29.155395008858562L174.05759855981327,27.916543055378725L178.1442153149171,27.30428224519204L179.9174283575755,29.429535198799442L183.7359321288676,29.466557177710314L185.68854794442777,27.725867451009492L187.3581831430628,28.361784053582596L191.362036740502,29.541389787303928L193.11146157017896,30.54207856970274L194.84948788113567,26.838753135130986L198.90339584338997,23.523558668070223L200.657280963001,24.881199773058967L204.73150802384362,24.527901844292217L206.48390638014328,25.806663829146572L208.2645532393584,23.057079027571802L208.51532065120443,25.297449864759756L211.62810743738038,26.957144499822192L213.1074369321639,25.34482812305876L214.74287657463813,24.602837602053796L216.3798029804237,23.52034201808732L220.25183023092407,26.39306038817375L224.15656627427393,28.181107545189093L225.8712999600196,26.72023453083625L229.8305506581186,25.85727081027332L231.55717845035502,25.556934192194404L235.5035438664224,28.280923490391103L237.21629520108633,28.550847501233676L241.16216502938326,25.145835610019333L242.8957310504059,25.89177042938394L246.83515823768704,26.035910059082397L248.56575073208705,27.384922641871754L250.2958476387166,29.093915122131676L254.2491512835702,29.9168010997316L255.97280554918396,28.85811984052205L258.07409769587815,25.904387564863896" fill="none"></path></g><g><path style="fill: none;" stroke="rgb(0, 119, 187)" stroke-width="2px" d="M24.34003752008363,182.84563442214264L26.01462859642315,166.9255307910275L29.923329341936565,143.8977136565733L33.836490377383996,134.96858918213087L35.517028506968884,128.62116036551646L39.432667481268545,112.1066715560228L41.11915266409879,105.89442288071191L45.014968127580595,107.02635547280023L46.68906361614967,98.37922509478743L50.29644699723147,90.62258172567935L54.10454342534419,83.01239044795965L57.95080011178132,72.68965210535619L59.60804561615521,66.80101171871088L63.44785966157653,69.7199679829016L67.27825753935936,70.16455993063471L68.91567953291538,68.46991806269446L72.77977737908859,68.19957536184283L74.42364201366041,65.57040667131943L76.07048017485492,63.957378123679604L79.92714420447142,64.37841201205389L81.57249560235459,67.99345695744542L83.23618374774428,61.71225482034042L87.11960951696491,58.44846082042456L88.79965205877934,58.682575222456606L92.6810954769182,55.61533940639306L94.34527921007833,55.91765232786156L96.0074805921567,56.15998043022715L97.66323933321924,53.893579497451114L101.54468275135808,55.61583499786231L103.23661939966325,55.11644097529155L107.04768935439864,55.008589487758485L108.9844463613045,55.046894104749185L110.27247897669557,48.40110330517524L111.72009085417048,50.259673210516326L115.5078681836949,55.512860102292066L117.15371516934852,58.317766608625746L121.01483948889903,54.064524713574016L122.66266882563443,52.47550589744985L126.46234026164957,52.535030898605385L128.10670048399183,50.571033083212484L131.9321424840702,47.06960608910441L133.60029091939393,47.59382744391246L137.45299024684684,47.20792339839704L139.12312103325235,42.47463754121907L143.0214144355864,41.2966343227001L144.67915552773073,43.682172740687605L148.53284603072453,43.239985548771045L150.1687812609692,44.194120747052324L151.4706903339328,47.48938979865662L152.98173744602488,46.30666197649009L154.67416968210048,48.875799692752025L158.591791007482,44.455782837414375L160.35211876810877,41.92025685325143L162.14069503165103,40.01002055865092L166.18270888741463,41.07426460154667L167.96979838764557,40.25385531449126L169.7687819943672,39.893757716682416L171.5638008989253,38.48582915921682L175.63654119645656,43.57744075643208L179.71126384506965,41.46329300380776L181.5122298028731,41.291410730759026L183.30526635634936,45.447635364528224L187.3804845927329,41.29770447644111L189.1606358641776,38.86678835057353L190.95763711981746,37.399183371735376L195.02492595187383,39.9871216920379L196.81598015426832,36.704238378012946L200.90061455829033,36.206635452670895L202.85669948824358,34.583141047157994L204.5352552667467,34.46806340492813L206.20984634308624,33.12102997158297L210.17801762105324,33.451399969119194L211.90216747443742,36.35900988071978L215.98283717629587,35.92787913714707L217.7337487692842,37.21022580684351L221.7301685501667,34.596494741673126L223.45332722800998,36.599452781891046L225.1819373713282,39.92755459993228L226.88428136281274,45.36792344652889L228.57473124780654,40.37949346156148L230.28054435368423,40.517901132738814L232.01311919916603,40.26100599019628L233.74172934248423,39.20385393494888L235.5015615153406,41.58982649518745L237.265853978131,39.56050054367827L239.0232082121351,40.67498858095402L240.7577654086987,39.828427314850245L244.7224675722726,38.98505559467023L246.42183803713445,41.021377569745454L250.38009755969256,41.656222457935286L254.40823495788362,42.99422464427289L258.07409769587815,39.97795178190114" fill="none"></path></g><g><path style="fill: none;" stroke="rgb(255, 112, 67)" stroke-width="2px" d="M23.814714483410086,178.70785755514956L27.659484406535867,154.333336679444L29.356872520315946,135.68229958875582L33.26259973920668,137.41192077591563L37.215407796289846,127.8572347612245L41.18110113540464,105.28813991954316L42.91516274419777,101.00932997692287L46.82435907748163,94.6410938454748L48.53413688552287,95.68205890348183L52.36899505323972,82.33617797853938L54.042099366267905,74.5196335892625L57.91115309014558,71.90579725422042L59.58623975425555,70.4403929659786L63.45033760042876,70.46582495609398L67.17666204641777,62.44596844088164L68.81854432990782,57.03888867629978L72.79860971436557,64.4757705163625L74.56438894046728,64.19206594739049L76.34652256299375,61.4033860905448L80.39696141085494,60.607158665788305L82.19891854419926,58.63362677503979L83.99641538760959,56.350775667809714L85.79886810872436,55.335115355796134L89.8413775522584,56.29496305042214L93.80806206691408,53.59790450732814L95.53815897354363,52.85821723682797L99.44140825358214,47.37981596057429L101.1462301839189,55.83238224553543L104.97464571061995,52.337558840502666L108.92001995114643,47.377108073587294L110.59609779079729,44.98927232123003L114.45226623264335,48.08703520447881L117.43719137404403,46.64386863734745L118.8555635730626,49.099389937376316L122.5913041866901,45.520803866907414L124.31347168899251,50.2518639776338L128.25289887627363,47.77652334197725L129.98646489729632,46.51747287507402L134.01113318109427,44.6194965589539L138.07247495990526,50.056415929787846L139.86898062777468,48.92798025673227L143.9367650476015,47.230459343186936L145.72088102120975,41.437858257803924L149.7093713977651,42.10756850266705L153.57495600724965,39.570491384460894L155.22278534398504,43.833829324879474L158.1011591147397,43.26054936237111L159.6241003333225,37.937353640442694L163.48076436293903,41.62260836268629L165.24010094802492,43.14942265465555L169.24445013323455,41.634162289074766L171.0082470082545,41.49504985563166L175.05819026834524,38.864549668230524L176.84627094411707,40.09298197953271L180.9185156538779,37.12832026442646L182.71502132174732,37.72564854604303L186.75554841419955,35.33061589943523L190.84563428369648,35.192963736755274L192.65849434799065,36.40765897402352L194.46491177126902,46.21556103860098L198.5356697177185,41.1517545586093L200.31582098916317,38.35741505392642L204.4133406752168,38.93011668149606L206.2043948776113,36.242749275620724L210.1795043843646,38.41073503174968L214.1561006544292,36.97442385613394L218.21892919655156,36.714197414336695L222.22080044290894,38.70798721242039L223.93156942649108,40.13718361549425L225.65225016548214,45.91888850709441L229.62983761108765,43.724962563308935L231.37678450191243,39.7618287316443L235.41681600659422,39.771735876386145L237.22125107879077,39.69005409678468L241.1958649977736,40.11553377609215L242.91406779791245,36.29026409274442L246.90255817446777,36.97637796461669L250.9192970539386,38.686247499718945L254.92315065137777,34.1366406061332L256.7047886861338,34.621875018551066L260.5901968064362,35.53607084148953L262.2380261431716,37.63809879354548L263.44924265414346,37.23469470542568L264.923120683452,38.47788206512405L266.62942937710017,37.865407515601106" fill="none"></path></g></g></g></g><g opacity="0.2"><g><g><g><path style="fill: none;" stroke="rgb(204, 51, 17)" stroke-width="2px" d="M17.092561965070548,186.19530172744226L18.763683927016945,169.4344154921468L20.434310301192895,151.002528524706L24.299399322906996,116.37376809047288L28.15755011583484,101.87407798789296L29.818760322372302,99.48025367527397L33.68335375631595,95.54308325366671L35.32870515419912,81.4427640410891L39.193794175913226,82.03924784674099L43.07721994513385,81.18351024976926L44.73545662504864,66.53804348393345L46.38972860279984,70.54701605810914L48.042018229469264,66.246947495973L51.91255871665828,62.500144246382305L53.54799835913251,53.00305188819421L57.42399031179644,59.22257035051888L61.29007050905143,52.835380141790424L62.950289540048,51.66322143457498L66.80249327973048,41.592969536855975L68.45676525748169,38.70453358090748L70.32760909091814,39.15844209316316L71.92786200169064,46.96841253526938L75.86183772349683,46.59579595052347L77.60977578986248,36.33431937100406L79.2600830654501,40.83973294271479L80.93170061516696,38.80000300351037L85.05399968974291,37.2525408475596L89.25856633421304,33.04005261801487L91.08183374168658,26.060666152553836L95.1476358104316,42.602773058327585L96.91688415092646,37.03787756500037L101.07585672051547,42.11010510384148L102.79851981058832,44.929997444400215L104.504332916466,24.40790179514522L108.43781305050175,34.11245435370813L110.12776734772513,33.130548483871394L111.34691326302409,30.03625301247797L112.80790601030108,31.913170427387143L116.68092443634231,28.080501864772742L118.414490457365,35.45022678384609L122.4005028950681,31.08138593704453L124.16132624346535,29.381858712756184L128.1666666042159,28.994207123133265L129.94780905120146,31.422217492468747L131.72449120825303,20.59261209748371L135.71843305028327,22.58666534886794L137.50254902389153,28.635653698842646L141.2189617144716,26.51234513937152L145.2238064874517,25.061667254358866L146.98562101138984,40.58242284023834L151.07124659095274,28.32632133614547L152.85585815233142,36.54360892558441L156.97716605136648,28.614101619608334L158.77268054369503,29.072469182740093L158.95654360653077,33.01421298986125L160.90668148323866,36.53120361737794L164.88377334107375,23.174459722043366L166.59553350019678,36.560816288580526L170.5344650997074,28.94773009284816L172.2977663869569,26.51354565306889L174.05759855981327,26.05826512515904L178.1442153149171,26.385891029911846L179.9174283575755,32.61741462921054L183.7359321288676,29.522090146076465L185.68854794442777,25.114832860958074L187.3581831430628,29.315658957442338L191.362036740502,31.31079838788608L193.11146157017896,32.043111743301154L194.84948788113567,21.283764983273528L198.90339584338997,18.55076696747912L200.657280963001,26.917661430541898L204.73150802384362,23.99795495114202L206.48390638014328,27.72480680642829L208.2645532393584,18.93270182520962L208.51532065120443,28.65800612054187L211.62810743738038,29.44668645241589L213.1074369321639,22.92635355791367L214.74287657463813,23.489851820546477L216.3798029804237,21.89659864213766L220.25183023092407,30.702137943303427L224.15656627427393,30.86317828071202L225.8712999600196,24.52892500930713L229.8305506581186,24.562825229428995L231.55717845035502,25.106429265076258L235.5035438664224,32.36690743768605L237.21629520108633,28.955733517497492L241.16216502938326,20.03831777319769L242.8957310504059,27.010672658431048L246.83515823768704,26.252119503629956L248.56575073208705,29.408441516055802L250.2958476387166,31.65740384252166L254.2491512835702,31.151130066131685L255.97280554918396,27.27009795170767L258.07409769587815,21.473789151376565" fill="none"></path></g><g><path style="fill: none;" stroke="rgb(0, 119, 187)" stroke-width="2px" d="M20.434805888963343,180.84815655189615L24.34003752008363,159.2282768773457L26.01462859642315,143.71386686386674L29.923329341936565,109.93615630645355L33.836490377383996,121.70987997346666L35.517028506968884,119.15758785279064L39.432667481268545,87.42480946060395L41.11915266409879,96.59633393752047L45.014968127580595,108.72203678714797L46.68906361614967,85.41869390492678L50.29644699723147,78.99308725788148L54.10454342534419,71.6003239092818L57.95080011178132,57.20816553359775L59.60804561615521,57.96894821383688L63.44785966157653,74.09813557502335L67.27825753935936,70.83142346975548L68.91567953291538,65.92801102369663L72.77977737908859,67.79406664801026L74.42364201366041,61.62668478054417L76.07048017485492,61.537846766936454L79.92714420447142,65.00996104909785L81.57249560235459,73.41601512562349L83.23618374774428,52.290461257807905L87.11960951696491,53.55277282696633L88.79965205877934,59.03374669611327L92.6810954769182,51.01448669942667L94.34527921007833,56.37112164991413L96.0074805921567,56.52347255484631L97.66323933321924,50.49397826062466L101.54468275135808,58.19921817446232L103.23661939966325,54.36734995431286L107.04768935439864,54.846812258127514L108.9844463613045,55.10435102987965L110.27247897669557,38.43241714282976L111.72009085417048,53.047528062316985L115.5078681836949,63.39264042942207L117.15371516934852,62.525126364752026L121.01483948889903,47.68466187406682L122.66266882563443,50.09197767395186L126.46234026164957,52.62431840032343L128.10670048399183,47.62503636042922L131.9321424840702,41.817465598270104L133.60029091939393,48.38015947609489L137.45299024684684,46.62906733013719L139.12312103325235,35.37470875554763L143.0214144355864,39.52962949493599L144.67915552773073,47.26048036765155L148.53284603072453,42.57670476089828L150.1687812609692,45.62532354447151L151.4706903339328,52.432293376058084L152.98173744602488,44.532570243241366L154.67416968210048,52.72950626714341L158.591791007482,37.82575755440942L160.35211876810877,38.11696787700774L162.14069503165103,37.14466611675019L166.18270888741463,42.67063066589023L167.96979838764557,39.02324138390816L169.7687819943672,39.35361131996933L171.5638008989253,36.37393632301831L175.63654119645656,51.21485815225492L179.71126384506965,38.2920713748716L181.5122298028731,41.033587321185706L183.30526635634936,51.68197231518202L187.3804845927329,35.07280814431056L189.1606358641776,35.220414161772055L190.95763711981746,35.197775903478174L195.02492595187383,43.869029172491764L196.81598015426832,31.77991340697554L200.90061455829033,35.46023106465779L202.85669948824358,32.14789943888863L204.5352552667467,34.29544694158349L206.20984634308624,31.100479821565102L210.17801762105324,33.94695496542346L211.90216747443742,40.72042474812065L215.98283717629587,35.28118302178814L217.7337487692842,39.13374581138805L221.7301685501667,30.67589814391738L223.45332722800998,39.60388984221814L225.1819373713282,44.919707326993915L226.88428136281274,53.52847671642368L228.57473124780654,32.89684848411051L230.28054435368423,40.72551263950484L232.01311919916603,39.875663276382284L233.74172934248423,37.61812585207787L235.5015615153406,45.16878533554532L237.265853978131,36.516511616414476L239.0232082121351,42.346720636867474L240.7577654086987,38.55858541569478L244.7224675722726,37.71999801440023L246.42183803713445,44.075860532358405L250.38009755969256,42.60848979021998L254.40823495788362,45.001227923779396L258.07409769587815,35.453542488343686" fill="none"></path></g><g><path style="fill: none;" stroke="rgb(255, 112, 67)" stroke-width="2px" d="M19.993237185495296,185.13330444379315L23.814714483410086,138.1142136406338L27.659484406535867,119.47738183485089L29.356872520315946,108.48890846057634L33.26259973920668,139.96277606535673L37.215407796289846,113.66963957073499L41.18110113540464,71.63919768615006L42.91516274419777,94.61440015774811L46.82435907748163,85.10953304418636L48.53413688552287,97.24146713157657L52.36899505323972,62.333044173167764L54.042099366267905,62.80032983805164L57.91115309014558,67.98614883959452L59.58623975425555,68.24265859960602L63.45033760042876,70.50396906695943L67.17666204641777,50.41691671471524L68.81854432990782,48.928565566531745L72.79860971436557,75.63084856269178L74.56438894046728,63.76651469518431L76.34652256299375,57.22039933984745L80.39696141085494,59.41282318789757L82.19891854419926,55.673337355129135L83.99641538760959,52.92650484815512L85.79886810872436,53.81162644705371L89.8413775522584,57.73473370820571L93.80806206691408,49.55231818331032L95.53815897354363,51.74868657636621L99.44140825358214,39.162215136212154L101.1462301839189,68.51123066391045L104.97464571061995,47.09532398328045L108.92001995114643,39.936432136398395L110.59609779079729,41.407518754266874L114.45226623264335,52.73367948142484L117.43719137404403,44.4791188000475L118.8555635730626,52.7826718737426L122.5913041866901,40.152924773163164L124.31347168899251,57.348454134236974L128.25289887627363,44.06351239147082L129.98646489729632,44.62889717562811L134.01113318109427,41.77253208559591L138.07247495990526,58.21179498462557L139.86898062777468,47.23532674732505L143.9367650476015,44.684177973027516L145.72088102120975,32.74895663005441L149.7093713977651,43.11213386993944L153.57495600724965,35.764875707203174L155.22278534398504,50.228836235455645L158.1011591147397,42.40062941861271L159.6241003333225,29.95256005757338L163.48076436293903,47.150490446042L165.24010094802492,45.43964409260673L169.24445013323455,39.36127174070515L171.0082470082545,41.28638120546714L175.05819026834524,34.91879938712958L176.84627094411707,41.93563044648576L180.9185156538779,32.68132769176745L182.71502132174732,38.62164096846783L186.75554841419955,31.738066929523256L190.84563428369648,34.98648549273548L192.65849434799065,38.22970182992566L194.46491177126902,60.92741413546713L198.5356697177185,33.55604483862189L200.31582098916317,34.16590579690197L204.4133406752168,39.78916912285047L206.2043948776113,32.21169816680768L210.1795043843646,41.66271366594313L214.1561006544292,34.81995709271021L218.21892919655156,36.323857751640986L222.22080044290894,41.69867190954625L223.93156942649108,42.280978220105L225.65225016548214,54.5914458444945L229.62983761108765,40.43407364763087L231.37678450191243,33.817127984147305L235.41681600659422,39.78659659349887L237.22125107879077,39.567531427382534L241.1958649977736,40.75375329505326L242.91406779791245,30.552359567722846L246.90255817446777,38.00554877242507L250.9192970539386,41.25105180237219L254.92315065137777,27.31223026575458L256.7047886861338,35.349726637177895L260.5901968064362,36.907364575897134L262.2380261431716,40.79114072162949L263.44924265414346,36.62958857324594L264.923120683452,40.342663104671544L266.62942937710017,36.94669569131676" fill="none"></path></g></g></g></g></g></g><g transform="translate(51, 177)" clip-path="url(#clip_1)"><clipPath id="clip_1"><rect width="278" height="22"></rect></clipPath><g><g><line x1="10.280212472509703" y1="0" x2="10.280212472509703" y2="5" style="visibility: inherit;" fill="rgb(0, 0, 0)" stroke="rgb(204, 204, 204)" stroke-width="1px"></line><line x1="35.05960099484655" y1="0" x2="35.05960099484655" y2="5" style="visibility: inherit;" fill="rgb(0, 0, 0)" stroke="rgb(204, 204, 204)" stroke-width="1px"></line><line x1="59.838989517183386" y1="0" x2="59.838989517183386" y2="5" style="visibility: inherit;" fill="rgb(0, 0, 0)" stroke="rgb(204, 204, 204)" stroke-width="1px"></line><line x1="84.61837803952024" y1="0" x2="84.61837803952024" y2="5" style="visibility: inherit;" fill="rgb(0, 0, 0)" stroke="rgb(204, 204, 204)" stroke-width="1px"></line><line x1="109.39776656185707" y1="0" x2="109.39776656185707" y2="5" style="visibility: inherit;" fill="rgb(0, 0, 0)" stroke="rgb(204, 204, 204)" stroke-width="1px"></line><line x1="134.1771550841939" y1="0" x2="134.1771550841939" y2="5" style="visibility: inherit;" fill="rgb(0, 0, 0)" stroke="rgb(204, 204, 204)" stroke-width="1px"></line><line x1="158.95654360653077" y1="0" x2="158.95654360653077" y2="5" style="visibility: inherit;" fill="rgb(0, 0, 0)" stroke="rgb(204, 204, 204)" stroke-width="1px"></line><line x1="183.7359321288676" y1="0" x2="183.7359321288676" y2="5" style="visibility: inherit;" fill="rgb(0, 0, 0)" stroke="rgb(204, 204, 204)" stroke-width="1px"></line><line x1="208.51532065120443" y1="0" x2="208.51532065120443" y2="5" style="visibility: inherit;" fill="rgb(0, 0, 0)" stroke="rgb(204, 204, 204)" stroke-width="1px"></line><line x1="233.2947091735413" y1="0" x2="233.2947091735413" y2="5" style="visibility: inherit;" fill="rgb(0, 0, 0)" stroke="rgb(204, 204, 204)" stroke-width="1px"></line><line x1="258.07409769587815" y1="0" x2="258.07409769587815" y2="5" style="visibility: inherit;" fill="rgb(0, 0, 0)" stroke="rgb(204, 204, 204)" stroke-width="1px"></line></g><g transform="translate(0, 8)"><text style="text-anchor: middle; visibility: inherit; font-family: &quot;Helvetica Neue&quot;, sans-serif; font-size: 12px; font-weight: 200;" x="10.280212472509703" y="0" dx="0em" dy="0.95em" fill="rgb(50, 49, 63)" stroke="none" stroke-width="1px">0</text><text style="text-anchor: middle; visibility: hidden; font-family: &quot;Helvetica Neue&quot;, sans-serif; font-size: 12px; font-weight: 200;" x="35.05960099484655" y="0" dx="0em" dy="0.95em" fill="rgb(50, 49, 63)" stroke="none" stroke-width="1px">50k</text><text style="text-anchor: middle; visibility: inherit; font-family: &quot;Helvetica Neue&quot;, sans-serif; font-size: 12px; font-weight: 200;" x="59.838989517183386" y="0" dx="0em" dy="0.95em" fill="rgb(50, 49, 63)" stroke="none" stroke-width="1px">100k</text><text style="text-anchor: middle; visibility: hidden; font-family: &quot;Helvetica Neue&quot;, sans-serif; font-size: 12px; font-weight: 200;" x="84.61837803952024" y="0" dx="0em" dy="0.95em" fill="rgb(50, 49, 63)" stroke="none" stroke-width="1px">150k</text><text style="text-anchor: middle; visibility: inherit; font-family: &quot;Helvetica Neue&quot;, sans-serif; font-size: 12px; font-weight: 200;" x="109.39776656185707" y="0" dx="0em" dy="0.95em" fill="rgb(50, 49, 63)" stroke="none" stroke-width="1px">200k</text><text style="text-anchor: middle; visibility: hidden; font-family: &quot;Helvetica Neue&quot;, sans-serif; font-size: 12px; font-weight: 200;" x="134.1771550841939" y="0" dx="0em" dy="0.95em" fill="rgb(50, 49, 63)" stroke="none" stroke-width="1px">250k</text><text style="text-anchor: middle; visibility: inherit; font-family: &quot;Helvetica Neue&quot;, sans-serif; font-size: 12px; font-weight: 200;" x="158.95654360653077" y="0" dx="0em" dy="0.95em" fill="rgb(50, 49, 63)" stroke="none" stroke-width="1px">300k</text><text style="text-anchor: middle; visibility: hidden; font-family: &quot;Helvetica Neue&quot;, sans-serif; font-size: 12px; font-weight: 200;" x="183.7359321288676" y="0" dx="0em" dy="0.95em" fill="rgb(50, 49, 63)" stroke="none" stroke-width="1px">350k</text><text style="text-anchor: middle; visibility: inherit; font-family: &quot;Helvetica Neue&quot;, sans-serif; font-size: 12px; font-weight: 200;" x="208.51532065120443" y="0" dx="0em" dy="0.95em" fill="rgb(50, 49, 63)" stroke="none" stroke-width="1px">400k</text><text style="text-anchor: middle; visibility: hidden; font-family: &quot;Helvetica Neue&quot;, sans-serif; font-size: 12px; font-weight: 200;" x="233.2947091735413" y="0" dx="0em" dy="0.95em" fill="rgb(50, 49, 63)" stroke="none" stroke-width="1px">450k</text><text style="text-anchor: middle; visibility: inherit; font-family: &quot;Helvetica Neue&quot;, sans-serif; font-size: 12px; font-weight: 200;" x="258.07409769587815" y="0" dx="0em" dy="0.95em" fill="rgb(50, 49, 63)" stroke="none" stroke-width="1px">500k</text></g><line x1="0" y1="0" x2="278.58399963378906" y2="0" fill="rgb(0, 0, 0)" stroke="rgb(204, 204, 204)" stroke-width="1px"></line></g></g></g></g></svg>