<svg viewBox="0 0 330 200" xmlns="http://www.w3.org/2000/svg"><g><g><g><g><g><line x1="51.41600036621094" y1="177.95999908447266" x2="46.41600036621094" y2="177.95999908447266" style="visibility: inherit;" fill="rgb(0, 0, 0)" stroke="rgb(204, 204, 204)" stroke-width="1px"></line><line x1="51.41600036621094" y1="155.71499919891355" x2="46.41600036621094" y2="155.71499919891355" style="visibility: inherit;" fill="rgb(0, 0, 0)" stroke="rgb(204, 204, 204)" stroke-width="1px"></line><line x1="51.41600036621094" y1="133.46999931335455" x2="46.41600036621094" y2="133.46999931335455" style="visibility: inherit;" fill="rgb(0, 0, 0)" stroke="rgb(204, 204, 204)" stroke-width="1px"></line><line x1="51.41600036621094" y1="111.22499942779544" x2="46.41600036621094" y2="111.22499942779544" style="visibility: inherit;" fill="rgb(0, 0, 0)" stroke="rgb(204, 204, 204)" stroke-width="1px"></line><line x1="51.41600036621094" y1="88.97999954223633" x2="46.41600036621094" y2="88.97999954223633" style="visibility: inherit;" fill="rgb(0, 0, 0)" stroke="rgb(204, 204, 204)" stroke-width="1px"></line><line x1="51.41600036621094" y1="66.7349996566772" x2="46.41600036621094" y2="66.7349996566772" style="visibility: inherit;" fill="rgb(0, 0, 0)" stroke="rgb(204, 204, 204)" stroke-width="1px"></line><line x1="51.41600036621094" y1="44.48999977111811" x2="46.41600036621094" y2="44.48999977111811" style="visibility: inherit;" fill="rgb(0, 0, 0)" stroke="rgb(204, 204, 204)" stroke-width="1px"></line><line x1="51.41600036621094" y1="22.244999885558997" x2="46.41600036621094" y2="22.244999885558997" style="visibility: inherit;" fill="rgb(0, 0, 0)" stroke="rgb(204, 204, 204)" stroke-width="1px"></line><line x1="51.41600036621094" y1="0" x2="46.41600036621094" y2="0" style="visibility: inherit;" fill="rgb(0, 0, 0)" stroke="rgb(204, 204, 204)" stroke-width="1px"></line></g><g transform="translate(41.41600036621094, 0)"><text style="text-anchor: end; visibility: hidden; font-family: &quot;Helvetica Neue&quot;, sans-serif; font-size: 12px; font-weight: 200;" x="0" y="177.95999908447266" dx="0em" dy="0.3em" fill="rgb(50, 49, 63)" stroke="none" stroke-width="1px">0.66</text><text style="text-anchor: end; visibility: inherit; font-family: &quot;Helvetica Neue&quot;, sans-serif; font-size: 12px; font-weight: 200;" x="0" y="155.71499919891355" dx="0em" dy="0.3em" fill="rgb(50, 49, 63)" stroke="none" stroke-width="1px">0.68</text><text style="text-anchor: end; visibility: hidden; font-family: &quot;Helvetica Neue&quot;, sans-serif; font-size: 12px; font-weight: 200;" x="0" y="133.46999931335455" dx="0em" dy="0.3em" fill="rgb(50, 49, 63)" stroke="none" stroke-width="1px">0.7</text><text style="text-anchor: end; visibility: inherit; font-family: &quot;Helvetica Neue&quot;, sans-serif; font-size: 12px; font-weight: 200;" x="0" y="111.22499942779544" dx="0em" dy="0.3em" fill="rgb(50, 49, 63)" stroke="none" stroke-width="1px">0.72</text><text style="text-anchor: end; visibility: hidden; font-family: &quot;Helvetica Neue&quot;, sans-serif; font-size: 12px; font-weight: 200;" x="0" y="88.97999954223633" dx="0em" dy="0.3em" fill="rgb(50, 49, 63)" stroke="none" stroke-width="1px">0.74</text><text style="text-anchor: end; visibility: inherit; font-family: &quot;Helvetica Neue&quot;, sans-serif; font-size: 12px; font-weight: 200;" x="0" y="66.7349996566772" dx="0em" dy="0.3em" fill="rgb(50, 49, 63)" stroke="none" stroke-width="1px">0.76</text><text style="text-anchor: end; visibility: hidden; font-family: &quot;Helvetica Neue&quot;, sans-serif; font-size: 12px; font-weight: 200;" x="0" y="44.48999977111811" dx="0em" dy="0.3em" fill="rgb(50, 49, 63)" stroke="none" stroke-width="1px">0.78</text><text style="text-anchor: end; visibility: inherit; font-family: &quot;Helvetica Neue&quot;, sans-serif; font-size: 12px; font-weight: 200;" x="0" y="22.244999885558997" dx="0em" dy="0.3em" fill="rgb(50, 49, 63)" stroke="none" stroke-width="1px">0.8</text><text style="text-anchor: end; visibility: hidden; font-family: &quot;Helvetica Neue&quot;, sans-serif; font-size: 12px; font-weight: 200;" x="0" y="0" dx="0em" dy="0.3em" fill="rgb(50, 49, 63)" stroke="none" stroke-width="1px">0.82</text></g><line x1="51.41600036621094" y1="0" x2="51.41600036621094" y2="177.95999908447266" fill="rgb(0, 0, 0)" stroke="rgb(204, 204, 204)" stroke-width="1px"></line></g></g><g transform="translate(51, 0)" clip-path="url(#clip_0)"><clipPath id="clip_0"><rect width="278" height="177"></rect></clipPath><g><g><g><line x1="0" y1="0" x2="0" y2="177.95999908447266" fill="rgb(0, 0, 0)" stroke="rgb(60, 60, 60)" stroke-width="1px" opacity="0.25"></line><line x1="23.215333302815754" y1="0" x2="23.215333302815754" y2="177.95999908447266" fill="rgb(0, 0, 0)" stroke="rgb(60, 60, 60)" stroke-width="1px" opacity="0.25"></line><line x1="46.43066660563151" y1="0" x2="46.43066660563151" y2="177.95999908447266" fill="rgb(0, 0, 0)" stroke="rgb(60, 60, 60)" stroke-width="1px" opacity="0.25"></line><line x1="69.64599990844727" y1="0" x2="69.64599990844727" y2="177.95999908447266" fill="rgb(0, 0, 0)" stroke="rgb(60, 60, 60)" stroke-width="1px" opacity="0.25"></line><line x1="92.86133321126302" y1="0" x2="92.86133321126302" y2="177.95999908447266" fill="rgb(0, 0, 0)" stroke="rgb(60, 60, 60)" stroke-width="1px" opacity="0.25"></line><line x1="116.07666651407878" y1="0" x2="116.07666651407878" y2="177.95999908447266" fill="rgb(0, 0, 0)" stroke="rgb(60, 60, 60)" stroke-width="1px" opacity="0.25"></line><line x1="139.29199981689453" y1="0" x2="139.29199981689453" y2="177.95999908447266" fill="rgb(0, 0, 0)" stroke="rgb(60, 60, 60)" stroke-width="1px" opacity="0.25"></line><line x1="162.5073331197103" y1="0" x2="162.5073331197103" y2="177.95999908447266" fill="rgb(0, 0, 0)" stroke="rgb(60, 60, 60)" stroke-width="1px" opacity="0.25"></line><line x1="185.72266642252603" y1="0" x2="185.72266642252603" y2="177.95999908447266" fill="rgb(0, 0, 0)" stroke="rgb(60, 60, 60)" stroke-width="1px" opacity="0.25"></line><line x1="208.9379997253418" y1="0" x2="208.9379997253418" y2="177.95999908447266" fill="rgb(0, 0, 0)" stroke="rgb(60, 60, 60)" stroke-width="1px" opacity="0.25"></line><line x1="232.15333302815756" y1="0" x2="232.15333302815756" y2="177.95999908447266" fill="rgb(0, 0, 0)" stroke="rgb(60, 60, 60)" stroke-width="1px" opacity="0.25"></line><line x1="255.3686663309733" y1="0" x2="255.3686663309733" y2="177.95999908447266" fill="rgb(0, 0, 0)" stroke="rgb(60, 60, 60)" stroke-width="1px" opacity="0.25"></line><line x1="278.58399963378906" y1="0" x2="278.58399963378906" y2="177.95999908447266" fill="rgb(0, 0, 0)" stroke="rgb(60, 60, 60)" stroke-width="1px" opacity="0.25"></line></g><g><line x1="0" y1="177.95999908447266" x2="278.58399963378906" y2="177.95999908447266" fill="rgb(0, 0, 0)" stroke="rgb(60, 60, 60)" stroke-width="1px" opacity="0.25"></line><line x1="0" y1="155.71499919891355" x2="278.58399963378906" y2="155.71499919891355" fill="rgb(0, 0, 0)" stroke="rgb(60, 60, 60)" stroke-width="1px" opacity="0.25"></line><line x1="0" y1="133.46999931335455" x2="278.58399963378906" y2="133.46999931335455" fill="rgb(0, 0, 0)" stroke="rgb(60, 60, 60)" stroke-width="1px" opacity="0.25"></line><line x1="0" y1="111.22499942779544" x2="278.58399963378906" y2="111.22499942779544" fill="rgb(0, 0, 0)" stroke="rgb(60, 60, 60)" stroke-width="1px" opacity="0.25"></line><line x1="0" y1="88.97999954223633" x2="278.58399963378906" y2="88.97999954223633" fill="rgb(0, 0, 0)" stroke="rgb(60, 60, 60)" stroke-width="1px" opacity="0.25"></line><line x1="0" y1="66.7349996566772" x2="278.58399963378906" y2="66.7349996566772" fill="rgb(0, 0, 0)" stroke="rgb(60, 60, 60)" stroke-width="1px" opacity="0.25"></line><line x1="0" y1="44.48999977111811" x2="278.58399963378906" y2="44.48999977111811" fill="rgb(0, 0, 0)" stroke="rgb(60, 60, 60)" stroke-width="1px" opacity="0.25"></line><line x1="0" y1="22.244999885558997" x2="278.58399963378906" y2="22.244999885558997" fill="rgb(0, 0, 0)" stroke="rgb(60, 60, 60)" stroke-width="1px" opacity="0.25"></line><line x1="0" y1="0" x2="278.58399963378906" y2="0" fill="rgb(0, 0, 0)" stroke="rgb(60, 60, 60)" stroke-width="1px" opacity="0.25"></line></g></g></g><g><g><line x1="0" y1="912.0449953079228" x2="278.58399963378906" y2="912.0449953079228" fill="rgb(0, 0, 0)" stroke="rgb(153, 153, 153)" stroke-width="1.5px"></line></g></g><g><g><line x1="23.215333302815754" y1="0" x2="23.215333302815754" y2="177.95999908447266" fill="rgb(0, 0, 0)" stroke="rgb(153, 153, 153)" stroke-width="1.5px"></line></g></g><g><g><g><g><g><path style="fill: none;" stroke="rgb(204, 51, 17)" stroke-width="2px" d="M29.597692734425863,-14.324071339907505L31.163334812367754,20.205764078950125L32.72851258364359,41.43739765598258L36.3496402722168,64.68230269385101L39.96426766746521,69.63932733609394L41.52062361208598,91.93413075640096L45.14128699399313,102.79083321651319L46.68278512530009,119.5810600443746L50.303912813873296,125.51425985641069L53.94221984909058,124.8364426168873L55.495789953715004,139.67299149052172L57.04564560501099,138.02244604917416L58.59364402964274,142.7462806301363L62.219879091542566,148.40061857601134L63.752091089528406,158.03504807372207L67.38343352475484,146.96511093699974L71.00548982666015,151.519987272131L72.56091715794881,148.84548688119972L76.16997287320454,155.06207134758642L77.71982852450053,153.1246343281902L79.47258618886312,145.67810344072925L80.97183241355896,133.83335318243192L84.65749872871399,148.23128699569958L86.29510833989461,149.32106147528182L87.84124953786214,142.45305997121318L89.4073559224701,140.40327359881812L93.26945877072652,126.76274012862697L97.2086365255483,141.6755630579807L98.91682074996947,140.06361218039453L102.72599263829548,130.45906980402077L104.38356743611654,134.53132719079446L108.28002897766115,131.03009103320449L109.89395894887289,122.11175631576415L111.49210249343872,129.2286410812239L115.1773045019277,125.43230867393603L116.76059023317973,125.93875130018557L117.90278463167826,117.74698462268341L119.27156068321227,112.96650401289332L122.90011727844238,119.70185393180984L124.52426199630737,111.86703603281238L128.25868051139832,105.49163295262684L129.9083620958964,123.87371406762466L133.66088857096352,107.34590352186095L135.32960672876993,116.11087836574092L136.99414612658182,108.13950270053105L140.73599354832967,107.94346111625661L142.4074975461324,116.4857745937213L145.88933323488874,109.67910207659126L149.6413954032898,118.92288666003893L151.29200560112,114.70678174790174L155.11974975608825,112.12859066605075L156.79171806055703,111.70577854402345L160.65289229548134,92.4120909300622L162.3350753466034,97.4790926985361L162.5073331197103,106.8403352097886L164.3343798506419,95.21704987876431L168.0604408457438,91.404381689371L169.66415607030234,96.28870870352632L173.35446545211792,105.06609654868647L175.0064685699463,86.16684414365008L176.65522154111227,92.36313301444804L180.48389430941265,97.7238621323455L182.14518356056212,102.41107333414021L185.72266642252603,103.72499445737101L187.55203468678792,90.78309373796223L189.11628384473167,83.44327721364995L192.86741739980062,78.3097946397664L194.5064199309794,78.59731897185858L196.13474340883892,72.07966008091381L199.93277193717955,68.34222798064357L201.57595322835286,65.4380093771625L205.39301833000184,62.67935741694512L207.03480670117696,74.62458698559891L208.7030605523173,74.72913095137481L208.9379997253418,74.83651382189021L211.8543098948415,74.44740437173752L213.24026529301963,69.96772692649185L214.77247729100546,55.56111846689633L216.30608220898944,65.8536270447872L219.93371019088744,56.73693581757584L223.59198241274515,67.3549258259826L225.19848347730002,62.41137199623449L228.9078294324239,62.61134248485078L230.52547385696408,55.270853335316545L234.22274783877054,55.64119792547136L235.82739167666116,65.67170970188926L239.52420135180154,63.75622364525634L241.14834606966653,50.05715863905495L244.8391197581482,57.58684949935147L246.46047863601683,57.8082799832101L248.08137320721946,54.91011872067526L251.78514748235065,52.74446607807981L253.40000606689452,48.255158446578264L255.3686663309733,53.67051908243184" fill="none"></path></g><g><path style="fill: none;" stroke="rgb(0, 119, 187)" stroke-width="2px" d="M31.167513572362264,-3.067237842608222L32.72897689030965,26.851595034599086L36.387713418833414,38.72526537413256L37.956605643437705,60.14434938948578L41.61859231862386,96.61924437244275L45.28475775380452,107.01899735429437L46.85922165840149,115.25455887685497L50.527708626912435,131.5452616625193L52.10774421150207,135.50311393156238L55.75765891337077,133.53612024995982L57.326086831309,144.09817864280657L60.70577505353292,152.4009902411424L64.27350747550965,138.65903668648141L67.87699151077271,139.94716750572954L69.42963300206502,147.83907564616956L73.02708105066935,142.61098763533062L76.61570727261861,145.1289696148843L78.14977649726869,152.87707629996038L81.76997557250976,140.11516876492087L83.31008078381858,135.73926914366257L84.8529718351237,132.46362289818921L88.46620631037393,125.852976947988L90.0077044416809,136.56576241079824L91.56638191963197,142.7974047089193L95.20468895484925,142.77776289956722L96.77868855278015,143.32261951149684L100.4151383613332,150.3612139662599L101.97428014595032,145.72021497136646L103.5315647039032,152.27110344317487L105.08281327519735,138.6451113862894L108.7192630837504,145.39319090892226L110.30440604166667,150.40618386793716L113.87492430363973,146.7595259680905L115.68943475458781,144.47238004271188L116.89616777966818,150.65589654469304L118.25240755121867,150.74164425036702L121.8011033998871,138.4086333663683L123.3430658378601,134.22298043897106L126.96047907310486,122.2088783160327L128.50429873774212,128.54756291601572L132.06413794639587,142.96979024527326L133.60470746437073,131.53457385771492L137.1886906196594,132.8543063450481L138.75154685760498,112.62102657488742L142.3610668795268,129.7191537213968L143.92578034413657,130.1018121164539L147.57801657933553,135.81097605380313L149.1311223772939,146.5687838510555L152.7415710125478,153.46061951214122L154.27424731719972,144.64602797507538L155.49398092892963,132.27691214618375L156.90965195373533,128.0232425941248L158.49525921831764,132.6354111303808L162.16560341349285,128.64131112834593L163.81482069132488,144.60110861440265L165.49050344912212,134.49742307697147L169.2773886174774,126.05250686507574L170.9516784552765,137.08902193865936L172.6371116530609,132.57754270557294L174.3188303975169,124.72574476724185L178.1345025791677,114.12825631672794L181.9520319874827,119.52664523954904L183.63932241193137,113.6637628871796L185.31918392972312,114.12878786458154L189.13717764470417,113.66118556746638L190.80496718917848,114.32567646237716L192.48854316029866,112.19289953340798L196.29910796862285,122.04450020475662L197.97711225975038,128.18245559770045L201.80392780138652,130.59959917293443L203.6365462123108,132.5752355224625L205.20915289024353,127.47389031159483L206.77804511484783,117.23863603718243L210.49574858996073,110.33323164827307L212.11107148117065,111.30822219844474L215.93417256947836,127.31726092713731L217.57456802065533,137.2949983771439L221.31873697573346,124.6359647474503L222.93313125361126,120.03170740867893L224.55263290481568,113.78218113242885L226.14752630271911,121.90570881035856L227.7312763406372,115.77539469093458L229.32941988520304,116.11265743320146L230.9526359897359,101.77492523618125L232.57213764094035,114.97374926077177L234.22089061210633,128.50170271740217L235.87382234326682,123.97594108323688L237.5202537811025,114.55172142000441L239.1453271122996,106.74227526595213L242.85978044075011,102.07917448200253L244.45188799865724,98.42896903816205L248.160305340449,92.12519801021821L251.93418992215476,96.35569943656881L255.3686663309733,105.9042738440181" fill="none"></path></g><g><path style="fill: none;" stroke="rgb(255, 112, 67)" stroke-width="2px" d="M29.16217308166504,-8.122260713600184L30.721314866282142,1.1283531357917127L32.315279650853476,27.335714884175417L35.89554835281372,59.8476515050433L39.49763946807861,82.88112561065194L41.087889799321495,93.71961639129923L44.747090634511316,104.57471230364199L48.45040060297648,115.10776787902154L52.16578254475911,124.39984413350004L53.790391569290165,124.25792116915198L57.452842551142375,126.95012126655784L59.05470054903667,128.84482003399424L62.64750553098043,139.8865706618384L64.21500483558654,139.33328463308243L67.8398469774882,140.5643629719123L69.40920350875855,156.5829679927931L73.02940258399964,147.89392443726325L76.52052440607707,145.37008362977798L78.05877239072164,147.8431351027997L81.7876192258199,142.68477419485117L83.44194387697856,140.41515716268862L85.11159064811706,138.41977177983665L88.90636902979533,136.07908260567817L90.5945880675761,117.30822760366674L92.27862834536234,131.4939944656039L93.96731168980916,139.22602463088623L97.75466116483052,140.1116799123218L101.47097171994527,144.09870110759638L103.09186629114787,132.45397610574173L106.7487455930074,135.72734298194678L108.34596052424114,131.1703746576974L111.93272951952616,135.52970789304248L115.62907488800049,133.1391665201692L117.19936003260294,139.46714233169507L120.81213020118714,148.71056122278105L123.60864925084432,148.94564572081998L124.9374949290975,137.15039289197279L128.43743857783,140.21445455415747L130.0509042423757,137.50052823252955L133.74167793085735,136.7873388087388L135.36582264872231,138.9307268170411L139.13645708376566,126.76075648155222L142.94145021209718,123.63468655733112L144.6245618765513,122.4889819977304L148.43559099154155,111.75143562774471L150.10709498934426,117.20283537289035L153.8438350377655,131.7902505757752L157.46542703300477,130.56393628752315L159.00924669764203,126.9866530676131L161.70593981409706,118.99221862989083L163.13275419888814,128.96494987506335L166.7459886741384,118.99627702746629L168.39427733863832,121.98203838189895L172.14587520037333,133.4000716342465L173.79834262486776,119.47734959828796L177.59265669987994,115.49111589777073L179.26787515101117,124.16742334071517L183.08308302599588,125.7459551510391L184.76619469045002,124.81018261579354L188.55168693880717,120.25360726827574L192.3836098537699,126.97877665801356L194.08204363820394,130.78203048826418L195.7744414359792,132.0736375876329L199.58825639096577,132.82831549591623L201.25604593544006,136.76888965706348L205.09493345039368,123.85604702798526L206.77293774152122,116.2982641280318L210.4971415099589,118.24565377982793L214.22273819839478,118.32130292739382L218.02912424672442,124.29948227140952L221.77840057512918,124.37335070631481L223.3811871863556,122.94856867690046L224.99325993090312,120.63499146657307L228.71978523267111,120.41748694405605L230.3564662305196,116.27638583008195L234.1414941722107,116.97461390946583L235.8320347433217,122.38852778241883L239.5557742050934,119.37043543694408L241.16552541631063,120.36848392393816L244.90226546473184,117.12436208385185L248.66547099311828,112.63612848863065L252.41660454818728,113.44673402093787L254.0857870126597,108.59444565703855L257.7259512745412,98.58282315230228L259.26977093917844,96.35521016277784L260.4045364310201,97.57734793017384L261.78538445587157,92.70372174375277L263.3839923071035,98.03871631898113" fill="none"></path></g></g></g></g><g opacity="0.2"><g><g><g><path style="fill: none;" stroke="rgb(204, 51, 17)" stroke-width="2px" d="M28.04597985646566,-40.83542285891971L29.597692734425863,32.04057621684839L31.163334812367754,65.28791720181106L32.72851258364359,70.80839028110618L36.3496402722168,97.92288881648334L39.96426766746521,76.86671685192083L41.52062361208598,124.81463525873767L45.14128699399313,118.91177108624834L46.68278512530009,144.61411416459887L50.303912813873296,134.38177136309764L53.94221984909058,123.82192994849322L55.495789953715004,161.89874845720956L57.04564560501099,135.5485680413601L58.59364402964274,149.82870088744497L62.219879091542566,156.87973276850406L63.752091089528406,172.4842461396826L67.38343352475484,130.36189162542018L71.00548982666015,158.35188544108908L72.56091715794881,144.83388297076024L76.16997287320454,164.38674348780685L77.71982852450053,150.21851705040993L79.47258618886312,134.50839532079544L80.97183241355896,116.06631198240154L84.65749872871399,169.82812631499021L86.29510833989461,150.95572040622122L87.84124953786214,132.1510682591104L89.4073559224701,137.3285959283685L93.26945877072652,106.30194746225573L97.2086365255483,164.04479250675698L98.91682074996947,137.64568618473947L102.72599263829548,116.05225738604975L104.38356743611654,140.6397129792673L108.28002897766115,125.77823694729136L109.89395894887289,108.7342544695723L111.49210249343872,139.90396811930384L115.1773045019277,119.73781009824552L116.76059023317973,126.69841523673927L117.90278463167826,105.45933463380595L119.27156068321227,105.79578310779357L122.90011727844238,129.80487880208148L124.52426199630737,100.11480918997154L128.25868051139832,95.92852833511004L129.9083620958964,151.44683573534442L133.66088857096352,82.55418770579227L135.32960672876993,129.2583406307408L136.99414612658182,96.18243920316375L140.73599354832967,107.64939873985145L142.4074975461324,129.2992448097458L145.88933323488874,99.46909330097856L149.6413954032898,132.78856353514288L151.29200560112,108.38262437971412L155.11974975608825,108.26130404328114L156.79171806055703,111.07156036098263L160.65289229548134,63.4715595091386L162.3350753466034,105.07959535124417L162.5073331197103,120.88219897666409L164.3343798506419,77.78212188223038L168.0604408457438,85.68537940528175L169.66415607030234,103.61519922475895L173.35446545211792,118.23217831642626L175.0064685699463,57.81796553609625L176.65522154111227,101.6575663206446L180.48389430941265,105.76495580919175L182.14518356056212,109.44189013683217L185.72266642252603,105.69587614221734L187.55203468678792,71.37024265884905L189.11628384473167,72.43355242718154L192.86741739980062,70.60957077894089L194.5064199309794,79.02860546999692L196.13474340883892,62.30317174449668L199.93277193717955,62.73607983023838L201.57595322835286,61.081681471940655L205.39301833000184,58.541379476618985L207.03480670117696,92.5424313385797L208.7030605523173,74.88594690003866L208.9379997253418,74.99758812766332L211.8543098948415,73.8637401965086L213.24026529301963,63.24821075862347L214.77247729100546,33.95120577750319L216.30608220898944,81.29238991162354L219.93371019088744,43.06189897675878L223.59198241274515,83.28191083859268L225.19848347730002,54.99604125161214L228.9078294324239,62.91129821777518L230.52547385696408,44.26011961101537L234.22274783877054,56.19671481070371L235.82739167666116,80.71747736651604L239.52420135180154,60.88299456030698L241.14834606966653,29.50856112975302L244.8391197581482,68.88138578979623L246.46047863601683,58.14042570899788L248.08137320721946,50.56287682687285L251.78514748235065,49.49598711418659L253.40000606689452,41.52119699932584L255.3686663309733,61.793560036212384" fill="none"></path></g><g><path style="fill: none;" stroke="rgb(0, 119, 187)" stroke-width="2px" d="M28.058980443115235,-1.7656338588956544L29.62183668106079,2.8469918503922713L31.167513572362264,19.552006634022945L32.72897689030965,68.24011168361254L36.387713418833414,55.70480393839078L37.956605643437705,91.37357950707711L41.61859231862386,150.41262958870269L45.28475775380452,122.46141850353285L46.85922165840149,127.53320522382342L50.527708626912435,155.8926625558535L52.10774421150207,141.42696926076542L55.75765891337077,130.58948327294718L57.326086831309,159.9288509289203L60.70577505353292,164.8493518526316L64.27350747550965,118.05192148868787L67.87699151077271,141.87903667832632L69.42963300206502,159.6757356040563L73.02708105066935,134.76933348702505L76.61570727261861,148.90580449209884L78.14977649726869,164.4989813728238L81.76997557250976,120.97255942396362L83.31008078381858,129.17547154847784L84.8529718351237,127.55017681187087L88.46620631037393,115.93703621407133L90.0077044416809,152.63491319393202L91.56638191963197,152.14485858906178L95.20468895484925,142.74830020363186L96.77868855278015,144.1399041282573L100.4151383613332,160.91910331432976L101.97428014595032,138.75871740242974L103.5315647039032,162.09743536884324L105.08281327519735,118.20612427696278L108.7192630837504,155.51530990286088L110.30440604166667,157.92567317719423L113.87492430363973,141.28953917474053L115.68943475458781,141.04166117587556L116.89616777966818,159.93117126322366L118.25240755121867,150.87026580859165L121.8011033998871,119.90911706509951L123.3430658378601,127.94450105291094L126.96047907310486,104.18772514029729L128.50429873774212,138.05558981324498L132.06413794639587,164.6031312354119L133.60470746437073,114.3817492781601L137.1886906196594,134.83390507592435L138.75154685760498,82.271106920782L142.3610668795268,155.36634444058498L143.92578034413657,130.67579970903228L147.57801657933553,144.37472195975764L149.1311223772939,162.70549554685593L152.7415710125478,163.79837300373984L154.27424731719972,131.4241406694997L155.49398092892963,113.72323840286572L156.90965195373533,121.64273826604062L158.49525921831764,139.55366393476186L162.16560341349285,122.65016112529497L163.81482069132488,168.5408048434845L165.49050344912212,119.341894770826L169.2773886174774,113.38513254723284L170.9516784552765,153.6437945490342L172.6371116530609,125.81032385594358L174.3188303975169,112.94804785974509L178.1345025791677,98.23202364095708L181.9520319874827,127.62422862378105L183.63932241193137,104.8694393586253L185.31918392972312,114.82632533068443L189.13717764470417,112.95978212179352L190.80496718917848,115.32241280474341L192.48854316029866,108.99373413995409L196.29910796862285,136.82190121177985L197.97711225975038,137.3893886871166L201.80392780138652,134.22531453578517L203.6365462123108,135.53869004675437L205.20915289024353,119.82187249529306L206.77804511484783,101.88575462556389L210.49574858996073,99.9751250649091L212.11107148117065,112.77070802370235L215.93417256947836,151.33081902017628L217.57456802065533,152.26160455215384L221.31873697573346,105.64741430290997L222.93313125361126,113.12532140052201L224.55263290481568,104.40789171805352L226.14752630271911,134.09100032725337L227.7312763406372,106.5799235117986L229.32941988520304,116.6185515466019L230.9526359897359,80.2683269406508L232.57213764094035,134.77198529765747L234.22089061210633,148.7936329023477L235.87382234326682,117.18729863198905L237.5202537811025,100.41539192515575L239.1453271122996,95.02810603487363L242.85978044075011,95.08452330607825L244.45188799865724,92.95366087240141L248.160305340449,82.66954146830231L251.93418992215476,102.70145157609466L255.3686663309733,120.22713545519184" fill="none"></path></g><g><path style="fill: none;" stroke="rgb(255, 112, 67)" stroke-width="2px" d="M27.650390576985675,-19.05205812368328L29.16217308166504,50.367040611669026L30.721314866282142,12.007075022676617L32.315279650853476,61.552046382865214L35.89554835281372,104.8233641488871L39.49763946807861,115.81936211725792L41.087889799321495,109.52223999899434L44.747090634511316,120.58387028051743L48.45040060297648,130.7481278440314L52.16578254475911,138.25368006748636L53.790391569290165,124.04580906113483L57.452842551142375,130.9796309122412L59.05470054903667,131.6831562730208L62.64750553098043,156.4362174402327L64.21500483558654,138.50374581012306L67.8398469774882,142.41045952906222L69.40920350875855,180.60680840203466L73.02940258399964,134.8616827922989L76.52052440607707,141.58455310759666L78.05877239072164,151.55257668431196L81.7876192258199,134.9474025709917L83.44194387697856,137.01077642407358L85.11159064811706,135.42671734280066L88.90636902979533,132.5680654810576L90.5945880675761,89.15202514977169L92.27862834536234,152.77260846102016L93.96731168980916,150.82405800832183L97.75466116483052,141.44016201866168L101.47097171994527,150.07923069694235L103.09186629114787,114.98689246447714L106.7487455930074,140.63739264496394L108.34596052424114,124.33492271533385L111.93272951952616,142.06870743380978L115.62907488800049,129.55335456359694L117.19936003260294,148.95910588581037L120.81213020118714,162.57568941639923L123.60864925084432,149.29827246569621L124.9374949290975,119.45751371439928L128.43743857783,144.810547037195L130.0509042423757,133.42963875552914L133.74167793085735,135.71755467391074L135.36582264872231,142.14580882794723L139.13645708376566,108.50580098358978L142.94145021209718,118.94558167181162L144.6245618765513,120.7704251585078L148.43559099154155,95.64511607377072L150.10709498934426,125.37993499030267L153.8438350377655,153.6713733796113L157.46542703300477,128.7244648551699L159.00924669764203,121.62072823779158L161.70593981409706,107.00056697336538L163.13275419888814,143.92404674277876L166.7459886741384,104.0432677560965L168.39427733863832,126.46068041354329L172.14587520037333,150.5271215127572L173.79834262486776,98.59326654435777L177.59265669987994,109.5117653469963L179.26787515101117,137.18188450513014L183.08308302599588,128.1137528665248L184.76619469045002,123.40652381292546L188.55168693880717,113.4187442469987L192.3836098537699,137.0665307426201L194.08204363820394,136.48691123364006L195.7744414359792,134.01104823668607L199.58825639096577,133.96033235834113L201.25604593544006,142.67975089878394L205.09493345039368,104.48678308436786L206.77293774152122,104.96158977810171L210.4971415099589,121.16673825752218L214.22273819839478,118.43477664874274L218.02912424672442,133.26675128743307L221.77840057512918,124.48415335867298L223.3811871863556,120.81139563277861L224.99325993090312,117.1646256510819L228.71978523267111,120.09123016028059L230.3564662305196,110.06473415912058L234.1414941722107,118.02195602854158L235.8320347433217,130.50939859184825L239.5557742050934,114.84329691873188L241.16552541631063,121.86555665442927L244.90226546473184,112.2581793237224L248.66547099311828,105.90377809579866L252.41660454818728,114.66264231939863L254.0857870126597,101.31601311118959L257.7259512745412,83.56538939519781L259.26977093917844,93.01379067849142L260.4045364310201,99.410554581268L261.78538445587157,85.39328246412127L263.3839923071035,106.04120818182355" fill="none"></path></g></g></g></g></g></g><g transform="translate(51, 177)" clip-path="url(#clip_1)"><clipPath id="clip_1"><rect width="278" height="22"></rect></clipPath><g><g><line x1="0" y1="0" x2="0" y2="5" style="visibility: inherit;" fill="rgb(0, 0, 0)" stroke="rgb(204, 204, 204)" stroke-width="1px"></line><line x1="23.215333302815754" y1="0" x2="23.215333302815754" y2="5" style="visibility: inherit;" fill="rgb(0, 0, 0)" stroke="rgb(204, 204, 204)" stroke-width="1px"></line><line x1="46.43066660563151" y1="0" x2="46.43066660563151" y2="5" style="visibility: inherit;" fill="rgb(0, 0, 0)" stroke="rgb(204, 204, 204)" stroke-width="1px"></line><line x1="69.64599990844727" y1="0" x2="69.64599990844727" y2="5" style="visibility: inherit;" fill="rgb(0, 0, 0)" stroke="rgb(204, 204, 204)" stroke-width="1px"></line><line x1="92.86133321126302" y1="0" x2="92.86133321126302" y2="5" style="visibility: inherit;" fill="rgb(0, 0, 0)" stroke="rgb(204, 204, 204)" stroke-width="1px"></line><line x1="116.07666651407878" y1="0" x2="116.07666651407878" y2="5" style="visibility: inherit;" fill="rgb(0, 0, 0)" stroke="rgb(204, 204, 204)" stroke-width="1px"></line><line x1="139.29199981689453" y1="0" x2="139.29199981689453" y2="5" style="visibility: inherit;" fill="rgb(0, 0, 0)" stroke="rgb(204, 204, 204)" stroke-width="1px"></line><line x1="162.5073331197103" y1="0" x2="162.5073331197103" y2="5" style="visibility: inherit;" fill="rgb(0, 0, 0)" stroke="rgb(204, 204, 204)" stroke-width="1px"></line><line x1="185.72266642252603" y1="0" x2="185.72266642252603" y2="5" style="visibility: inherit;" fill="rgb(0, 0, 0)" stroke="rgb(204, 204, 204)" stroke-width="1px"></line><line x1="208.9379997253418" y1="0" x2="208.9379997253418" y2="5" style="visibility: inherit;" fill="rgb(0, 0, 0)" stroke="rgb(204, 204, 204)" stroke-width="1px"></line><line x1="232.15333302815756" y1="0" x2="232.15333302815756" y2="5" style="visibility: inherit;" fill="rgb(0, 0, 0)" stroke="rgb(204, 204, 204)" stroke-width="1px"></line><line x1="255.3686663309733" y1="0" x2="255.3686663309733" y2="5" style="visibility: inherit;" fill="rgb(0, 0, 0)" stroke="rgb(204, 204, 204)" stroke-width="1px"></line><line x1="278.58399963378906" y1="0" x2="278.58399963378906" y2="5" style="visibility: inherit;" fill="rgb(0, 0, 0)" stroke="rgb(204, 204, 204)" stroke-width="1px"></line></g><g transform="translate(0, 8)"><text style="text-anchor: middle; visibility: hidden; font-family: &quot;Helvetica Neue&quot;, sans-serif; font-size: 12px; font-weight: 200;" x="0" y="0" dx="0em" dy="0.95em" fill="rgb(50, 49, 63)" stroke="none" stroke-width="1px">-50k</text><text style="text-anchor: middle; visibility: inherit; font-family: &quot;Helvetica Neue&quot;, sans-serif; font-size: 12px; font-weight: 200;" x="23.215333302815754" y="0" dx="0em" dy="0.95em" fill="rgb(50, 49, 63)" stroke="none" stroke-width="1px">0</text><text style="text-anchor: middle; visibility: hidden; font-family: &quot;Helvetica Neue&quot;, sans-serif; font-size: 12px; font-weight: 200;" x="46.43066660563151" y="0" dx="0em" dy="0.95em" fill="rgb(50, 49, 63)" stroke="none" stroke-width="1px">50k</text><text style="text-anchor: middle; visibility: inherit; font-family: &quot;Helvetica Neue&quot;, sans-serif; font-size: 12px; font-weight: 200;" x="69.64599990844727" y="0" dx="0em" dy="0.95em" fill="rgb(50, 49, 63)" stroke="none" stroke-width="1px">100k</text><text style="text-anchor: middle; visibility: hidden; font-family: &quot;Helvetica Neue&quot;, sans-serif; font-size: 12px; font-weight: 200;" x="92.86133321126302" y="0" dx="0em" dy="0.95em" fill="rgb(50, 49, 63)" stroke="none" stroke-width="1px">150k</text><text style="text-anchor: middle; visibility: inherit; font-family: &quot;Helvetica Neue&quot;, sans-serif; font-size: 12px; font-weight: 200;" x="116.07666651407878" y="0" dx="0em" dy="0.95em" fill="rgb(50, 49, 63)" stroke="none" stroke-width="1px">200k</text><text style="text-anchor: middle; visibility: hidden; font-family: &quot;Helvetica Neue&quot;, sans-serif; font-size: 12px; font-weight: 200;" x="139.29199981689453" y="0" dx="0em" dy="0.95em" fill="rgb(50, 49, 63)" stroke="none" stroke-width="1px">250k</text><text style="text-anchor: middle; visibility: inherit; font-family: &quot;Helvetica Neue&quot;, sans-serif; font-size: 12px; font-weight: 200;" x="162.5073331197103" y="0" dx="0em" dy="0.95em" fill="rgb(50, 49, 63)" stroke="none" stroke-width="1px">300k</text><text style="text-anchor: middle; visibility: hidden; font-family: &quot;Helvetica Neue&quot;, sans-serif; font-size: 12px; font-weight: 200;" x="185.72266642252603" y="0" dx="0em" dy="0.95em" fill="rgb(50, 49, 63)" stroke="none" stroke-width="1px">350k</text><text style="text-anchor: middle; visibility: inherit; font-family: &quot;Helvetica Neue&quot;, sans-serif; font-size: 12px; font-weight: 200;" x="208.9379997253418" y="0" dx="0em" dy="0.95em" fill="rgb(50, 49, 63)" stroke="none" stroke-width="1px">400k</text><text style="text-anchor: middle; visibility: hidden; font-family: &quot;Helvetica Neue&quot;, sans-serif; font-size: 12px; font-weight: 200;" x="232.15333302815756" y="0" dx="0em" dy="0.95em" fill="rgb(50, 49, 63)" stroke="none" stroke-width="1px">450k</text><text style="text-anchor: middle; visibility: inherit; font-family: &quot;Helvetica Neue&quot;, sans-serif; font-size: 12px; font-weight: 200;" x="255.3686663309733" y="0" dx="0em" dy="0.95em" fill="rgb(50, 49, 63)" stroke="none" stroke-width="1px">500k</text><text style="text-anchor: middle; visibility: hidden; font-family: &quot;Helvetica Neue&quot;, sans-serif; font-size: 12px; font-weight: 200;" x="278.58399963378906" y="0" dx="0em" dy="0.95em" fill="rgb(50, 49, 63)" stroke="none" stroke-width="1px">550k</text></g><line x1="0" y1="0" x2="278.58399963378906" y2="0" fill="rgb(0, 0, 0)" stroke="rgb(204, 204, 204)" stroke-width="1px"></line></g></g></g></g></svg>