<?xml version="1.0" encoding="UTF-8" standalone="no"?>
<!-- Created with Inkscape (http://www.inkscape.org/) -->

<svg
   xmlns:dc="http://purl.org/dc/elements/1.1/"
   xmlns:cc="http://creativecommons.org/ns#"
   xmlns:rdf="http://www.w3.org/1999/02/22-rdf-syntax-ns#"
   xmlns:svg="http://www.w3.org/2000/svg"
   xmlns="http://www.w3.org/2000/svg"
   xmlns:sodipodi="http://sodipodi.sourceforge.net/DTD/sodipodi-0.dtd"
   xmlns:inkscape="http://www.inkscape.org/namespaces/inkscape"
   width="210mm"
   height="297mm"
   viewBox="0 0 210 297"
   version="1.1"
   id="svg8"
   inkscape:version="0.92.3 (2405546, 2018-03-11)"
   sodipodi:docname="ml_classic_system.svg"
   inkscape:export-filename="/home/manuel/Bachelor_Arbeit/bilder/asdf.png"
   inkscape:export-xdpi="96"
   inkscape:export-ydpi="96">
  <defs
     id="defs2">
    <marker
       inkscape:stockid="Arrow2Lstart"
       orient="auto"
       refY="0.0"
       refX="0.0"
       id="Arrow2Lstart"
       style="overflow:visible"
       inkscape:isstock="true">
      <path
         id="path4560"
         style="fill-rule:evenodd;stroke-width:0.625;stroke-linejoin:round;stroke:#000000;stroke-opacity:1;fill:#000000;fill-opacity:1"
         d="M 8.7185878,4.0337352 L -2.2072895,0.016013256 L 8.7185884,-4.0017078 C 6.9730900,-1.6296469 6.9831476,1.6157441 8.7185878,4.0337352 z "
         transform="scale(1.1) translate(1,0)" />
    </marker>
    <marker
       inkscape:stockid="Arrow1Mstart"
       orient="auto"
       refY="0.0"
       refX="0.0"
       id="Arrow1Mstart"
       style="overflow:visible"
       inkscape:isstock="true">
      <path
         id="path4548"
         d="M 0.0,0.0 L 5.0,-5.0 L -12.5,0.0 L 5.0,5.0 L 0.0,0.0 z "
         style="fill-rule:evenodd;stroke:#000000;stroke-width:1pt;stroke-opacity:1;fill:#000000;fill-opacity:1"
         transform="scale(0.4) translate(10,0)" />
    </marker>
    <marker
       inkscape:stockid="Arrow1Lend"
       orient="auto"
       refY="0.0"
       refX="0.0"
       id="Arrow1Lend"
       style="overflow:visible;"
       inkscape:isstock="true">
      <path
         id="path4545"
         d="M 0.0,0.0 L 5.0,-5.0 L -12.5,0.0 L 5.0,5.0 L 0.0,0.0 z "
         style="fill-rule:evenodd;stroke:#000000;stroke-width:1pt;stroke-opacity:1;fill:#000000;fill-opacity:1"
         transform="scale(0.8) rotate(180) translate(12.5,0)" />
    </marker>
    <marker
       inkscape:stockid="Arrow2Lstart"
       orient="auto"
       refY="0"
       refX="0"
       id="Arrow2Lstart-3"
       style="overflow:visible"
       inkscape:isstock="true">
      <path
         inkscape:connector-curvature="0"
         id="path4560-6"
         style="fill:#000000;fill-opacity:1;fill-rule:evenodd;stroke:#000000;stroke-width:0.625;stroke-linejoin:round;stroke-opacity:1"
         d="M 8.7185878,4.0337352 -2.2072895,0.01601326 8.7185884,-4.0017078 c -1.7454984,2.3720609 -1.7354408,5.6174519 -6e-7,8.035443 z"
         transform="matrix(1.1,0,0,1.1,1.1,0)" />
    </marker>
    <marker
       inkscape:stockid="Arrow2Lstart"
       orient="auto"
       refY="0"
       refX="0"
       id="Arrow2Lstart-5"
       style="overflow:visible"
       inkscape:isstock="true">
      <path
         inkscape:connector-curvature="0"
         id="path4560-3"
         style="fill:#000000;fill-opacity:1;fill-rule:evenodd;stroke:#000000;stroke-width:0.625;stroke-linejoin:round;stroke-opacity:1"
         d="M 8.7185878,4.0337352 -2.2072895,0.01601326 8.7185884,-4.0017078 c -1.7454984,2.3720609 -1.7354408,5.6174519 -6e-7,8.035443 z"
         transform="matrix(1.1,0,0,1.1,1.1,0)" />
    </marker>
    <marker
       inkscape:stockid="Arrow2Lstart"
       orient="auto"
       refY="0"
       refX="0"
       id="Arrow2Lstart-3-6"
       style="overflow:visible"
       inkscape:isstock="true">
      <path
         inkscape:connector-curvature="0"
         id="path4560-6-2"
         style="fill:#000000;fill-opacity:1;fill-rule:evenodd;stroke:#000000;stroke-width:0.625;stroke-linejoin:round;stroke-opacity:1"
         d="M 8.7185878,4.0337352 -2.2072895,0.01601326 8.7185884,-4.0017078 c -1.7454984,2.3720609 -1.7354408,5.6174519 -6e-7,8.035443 z"
         transform="matrix(1.1,0,0,1.1,1.1,0)" />
    </marker>
    <marker
       inkscape:stockid="Arrow2Lstart"
       orient="auto"
       refY="0"
       refX="0"
       id="Arrow2Lstart-5-9"
       style="overflow:visible"
       inkscape:isstock="true">
      <path
         inkscape:connector-curvature="0"
         id="path4560-3-1"
         style="fill:#000000;fill-opacity:1;fill-rule:evenodd;stroke:#000000;stroke-width:0.625;stroke-linejoin:round;stroke-opacity:1"
         d="M 8.7185878,4.0337352 -2.2072895,0.01601326 8.7185884,-4.0017078 c -1.7454984,2.3720609 -1.7354408,5.6174519 -6e-7,8.035443 z"
         transform="matrix(1.1,0,0,1.1,1.1,0)" />
    </marker>
    <marker
       inkscape:stockid="Arrow2Lstart"
       orient="auto"
       refY="0"
       refX="0"
       id="Arrow2Lstart-5-9-7"
       style="overflow:visible"
       inkscape:isstock="true">
      <path
         inkscape:connector-curvature="0"
         id="path4560-3-1-0"
         style="fill:#000000;fill-opacity:1;fill-rule:evenodd;stroke:#000000;stroke-width:0.625;stroke-linejoin:round;stroke-opacity:1"
         d="M 8.7185878,4.0337352 -2.2072895,0.01601326 8.7185884,-4.0017078 c -1.7454984,2.3720609 -1.7354408,5.6174519 -6e-7,8.035443 z"
         transform="matrix(1.1,0,0,1.1,1.1,0)" />
    </marker>
    <marker
       inkscape:stockid="Arrow2Lstart"
       orient="auto"
       refY="0"
       refX="0"
       id="Arrow2Lstart-5-9-7-6"
       style="overflow:visible"
       inkscape:isstock="true">
      <path
         inkscape:connector-curvature="0"
         id="path4560-3-1-0-2"
         style="fill:#000000;fill-opacity:1;fill-rule:evenodd;stroke:#000000;stroke-width:0.625;stroke-linejoin:round;stroke-opacity:1"
         d="M 8.7185878,4.0337352 -2.2072895,0.01601326 8.7185884,-4.0017078 c -1.7454984,2.3720609 -1.7354408,5.6174519 -6e-7,8.035443 z"
         transform="matrix(1.1,0,0,1.1,1.1,0)" />
    </marker>
    <marker
       inkscape:stockid="Arrow2Lstart"
       orient="auto"
       refY="0"
       refX="0"
       id="Arrow2Lstart-5-9-5"
       style="overflow:visible"
       inkscape:isstock="true">
      <path
         inkscape:connector-curvature="0"
         id="path4560-3-1-2"
         style="fill:#000000;fill-opacity:1;fill-rule:evenodd;stroke:#000000;stroke-width:0.625;stroke-linejoin:round;stroke-opacity:1"
         d="M 8.7185878,4.0337352 -2.2072895,0.01601326 8.7185884,-4.0017078 c -1.7454984,2.3720609 -1.7354408,5.6174519 -6e-7,8.035443 z"
         transform="matrix(1.1,0,0,1.1,1.1,0)" />
    </marker>
    <marker
       inkscape:stockid="Arrow2Lstart"
       orient="auto"
       refY="0"
       refX="0"
       id="Arrow2Lstart-5-6"
       style="overflow:visible"
       inkscape:isstock="true">
      <path
         inkscape:connector-curvature="0"
         id="path4560-3-9"
         style="fill:#000000;fill-opacity:1;fill-rule:evenodd;stroke:#000000;stroke-width:0.625;stroke-linejoin:round;stroke-opacity:1"
         d="M 8.7185878,4.0337352 -2.2072895,0.01601326 8.7185884,-4.0017078 c -1.7454984,2.3720609 -1.7354408,5.6174519 -6e-7,8.035443 z"
         transform="matrix(1.1,0,0,1.1,1.1,0)" />
    </marker>
    <marker
       inkscape:stockid="Arrow2Lstart"
       orient="auto"
       refY="0"
       refX="0"
       id="Arrow2Lstart-5-9-7-0"
       style="overflow:visible"
       inkscape:isstock="true">
      <path
         inkscape:connector-curvature="0"
         id="path4560-3-1-0-0"
         style="fill:#000000;fill-opacity:1;fill-rule:evenodd;stroke:#000000;stroke-width:0.625;stroke-linejoin:round;stroke-opacity:1"
         d="M 8.7185878,4.0337352 -2.2072895,0.01601326 8.7185884,-4.0017078 c -1.7454984,2.3720609 -1.7354408,5.6174519 -6e-7,8.035443 z"
         transform="matrix(1.1,0,0,1.1,1.1,0)" />
    </marker>
    <marker
       inkscape:stockid="Arrow2Lstart"
       orient="auto"
       refY="0"
       refX="0"
       id="Arrow2Lstart-5-9-7-3"
       style="overflow:visible"
       inkscape:isstock="true">
      <path
         inkscape:connector-curvature="0"
         id="path4560-3-1-0-3"
         style="fill:#000000;fill-opacity:1;fill-rule:evenodd;stroke:#000000;stroke-width:0.625;stroke-linejoin:round;stroke-opacity:1"
         d="M 8.7185878,4.0337352 -2.2072895,0.01601326 8.7185884,-4.0017078 c -1.7454984,2.3720609 -1.7354408,5.6174519 -6e-7,8.035443 z"
         transform="matrix(1.1,0,0,1.1,1.1,0)" />
    </marker>
    <marker
       inkscape:stockid="Arrow2Lstart"
       orient="auto"
       refY="0"
       refX="0"
       id="Arrow2Lstart-5-9-7-3-0"
       style="overflow:visible"
       inkscape:isstock="true">
      <path
         inkscape:connector-curvature="0"
         id="path4560-3-1-0-3-0"
         style="fill:#000000;fill-opacity:1;fill-rule:evenodd;stroke:#000000;stroke-width:0.625;stroke-linejoin:round;stroke-opacity:1"
         d="M 8.7185878,4.0337352 -2.2072895,0.01601326 8.7185884,-4.0017078 c -1.7454984,2.3720609 -1.7354408,5.6174519 -6e-7,8.035443 z"
         transform="matrix(1.1,0,0,1.1,1.1,0)" />
    </marker>
    <marker
       inkscape:stockid="Arrow2Lstart"
       orient="auto"
       refY="0"
       refX="0"
       id="Arrow2Lstart-5-9-7-3-2"
       style="overflow:visible"
       inkscape:isstock="true">
      <path
         inkscape:connector-curvature="0"
         id="path4560-3-1-0-3-2"
         style="fill:#000000;fill-opacity:1;fill-rule:evenodd;stroke:#000000;stroke-width:0.625;stroke-linejoin:round;stroke-opacity:1"
         d="M 8.7185878,4.0337352 -2.2072895,0.01601326 8.7185884,-4.0017078 c -1.7454984,2.3720609 -1.7354408,5.6174519 -6e-7,8.035443 z"
         transform="matrix(1.1,0,0,1.1,1.1,0)" />
    </marker>
    <marker
       inkscape:stockid="Arrow2Lstart"
       orient="auto"
       refY="0"
       refX="0"
       id="Arrow2Lstart-5-9-7-3-7"
       style="overflow:visible"
       inkscape:isstock="true">
      <path
         inkscape:connector-curvature="0"
         id="path4560-3-1-0-3-9"
         style="fill:#000000;fill-opacity:1;fill-rule:evenodd;stroke:#000000;stroke-width:0.625;stroke-linejoin:round;stroke-opacity:1"
         d="M 8.7185878,4.0337352 -2.2072895,0.01601326 8.7185884,-4.0017078 c -1.7454984,2.3720609 -1.7354408,5.6174519 -6e-7,8.035443 z"
         transform="matrix(1.1,0,0,1.1,1.1,0)" />
    </marker>
    <marker
       inkscape:stockid="Arrow2Lstart"
       orient="auto"
       refY="0"
       refX="0"
       id="Arrow2Lstart-5-9-7-3-5"
       style="overflow:visible"
       inkscape:isstock="true">
      <path
         inkscape:connector-curvature="0"
         id="path4560-3-1-0-3-4"
         style="fill:#000000;fill-opacity:1;fill-rule:evenodd;stroke:#000000;stroke-width:0.625;stroke-linejoin:round;stroke-opacity:1"
         d="M 8.7185878,4.0337352 -2.2072895,0.01601326 8.7185884,-4.0017078 c -1.7454984,2.3720609 -1.7354408,5.6174519 -6e-7,8.035443 z"
         transform="matrix(1.1,0,0,1.1,1.1,0)" />
    </marker>
    <marker
       inkscape:stockid="Arrow2Lstart"
       orient="auto"
       refY="0"
       refX="0"
       id="Arrow2Lstart-5-9-7-3-2-9"
       style="overflow:visible"
       inkscape:isstock="true">
      <path
         inkscape:connector-curvature="0"
         id="path4560-3-1-0-3-2-8"
         style="fill:#000000;fill-opacity:1;fill-rule:evenodd;stroke:#000000;stroke-width:0.625;stroke-linejoin:round;stroke-opacity:1"
         d="M 8.7185878,4.0337352 -2.2072895,0.01601326 8.7185884,-4.0017078 c -1.7454984,2.3720609 -1.7354408,5.6174519 -6e-7,8.035443 z"
         transform="matrix(1.1,0,0,1.1,1.1,0)" />
    </marker>
    <marker
       inkscape:stockid="Arrow2Lstart"
       orient="auto"
       refY="0"
       refX="0"
       id="Arrow2Lstart-5-9-7-3-1"
       style="overflow:visible"
       inkscape:isstock="true">
      <path
         inkscape:connector-curvature="0"
         id="path4560-3-1-0-3-6"
         style="fill:#000000;fill-opacity:1;fill-rule:evenodd;stroke:#000000;stroke-width:0.625;stroke-linejoin:round;stroke-opacity:1"
         d="M 8.7185878,4.0337352 -2.2072895,0.01601326 8.7185884,-4.0017078 c -1.7454984,2.3720609 -1.7354408,5.6174519 -6e-7,8.035443 z"
         transform="matrix(1.1,0,0,1.1,1.1,0)" />
    </marker>
    <marker
       inkscape:stockid="Arrow2Lstart"
       orient="auto"
       refY="0"
       refX="0"
       id="Arrow2Lstart-5-9-7-4"
       style="overflow:visible"
       inkscape:isstock="true">
      <path
         inkscape:connector-curvature="0"
         id="path4560-3-1-0-8"
         style="fill:#000000;fill-opacity:1;fill-rule:evenodd;stroke:#000000;stroke-width:0.625;stroke-linejoin:round;stroke-opacity:1"
         d="M 8.7185878,4.0337352 -2.2072895,0.01601326 8.7185884,-4.0017078 c -1.7454984,2.3720609 -1.7354408,5.6174519 -6e-7,8.035443 z"
         transform="matrix(1.1,0,0,1.1,1.1,0)" />
    </marker>
    <marker
       inkscape:stockid="Arrow2Lstart"
       orient="auto"
       refY="0"
       refX="0"
       id="Arrow2Lstart-5-9-7-3-2-9-3"
       style="overflow:visible"
       inkscape:isstock="true">
      <path
         inkscape:connector-curvature="0"
         id="path4560-3-1-0-3-2-8-6"
         style="fill:#000000;fill-opacity:1;fill-rule:evenodd;stroke:#000000;stroke-width:0.625;stroke-linejoin:round;stroke-opacity:1"
         d="M 8.7185878,4.0337352 -2.2072895,0.01601326 8.7185884,-4.0017078 c -1.7454984,2.3720609 -1.7354408,5.6174519 -6e-7,8.035443 z"
         transform="matrix(1.1,0,0,1.1,1.1,0)" />
    </marker>
    <marker
       inkscape:stockid="Arrow2Lstart"
       orient="auto"
       refY="0"
       refX="0"
       id="Arrow2Lstart-5-9-7-3-1-7"
       style="overflow:visible"
       inkscape:isstock="true">
      <path
         inkscape:connector-curvature="0"
         id="path4560-3-1-0-3-6-5"
         style="fill:#000000;fill-opacity:1;fill-rule:evenodd;stroke:#000000;stroke-width:0.625;stroke-linejoin:round;stroke-opacity:1"
         d="M 8.7185878,4.0337352 -2.2072895,0.01601326 8.7185884,-4.0017078 c -1.7454984,2.3720609 -1.7354408,5.6174519 -6e-7,8.035443 z"
         transform="matrix(1.1,0,0,1.1,1.1,0)" />
    </marker>
    <marker
       inkscape:stockid="Arrow2Lstart"
       orient="auto"
       refY="0"
       refX="0"
       id="Arrow2Lstart-5-9-7-4-3"
       style="overflow:visible"
       inkscape:isstock="true">
      <path
         inkscape:connector-curvature="0"
         id="path4560-3-1-0-8-5"
         style="fill:#000000;fill-opacity:1;fill-rule:evenodd;stroke:#000000;stroke-width:0.625;stroke-linejoin:round;stroke-opacity:1"
         d="M 8.7185878,4.0337352 -2.2072895,0.01601326 8.7185884,-4.0017078 c -1.7454984,2.3720609 -1.7354408,5.6174519 -6e-7,8.035443 z"
         transform="matrix(1.1,0,0,1.1,1.1,0)" />
    </marker>
    <marker
       inkscape:stockid="Arrow2Lstart"
       orient="auto"
       refY="0"
       refX="0"
       id="Arrow2Lstart-5-9-7-3-2-9-3-5"
       style="overflow:visible"
       inkscape:isstock="true">
      <path
         inkscape:connector-curvature="0"
         id="path4560-3-1-0-3-2-8-6-4"
         style="fill:#000000;fill-opacity:1;fill-rule:evenodd;stroke:#000000;stroke-width:0.625;stroke-linejoin:round;stroke-opacity:1"
         d="M 8.7185878,4.0337352 -2.2072895,0.01601326 8.7185884,-4.0017078 c -1.7454984,2.3720609 -1.7354408,5.6174519 -6e-7,8.035443 z"
         transform="matrix(1.1,0,0,1.1,1.1,0)" />
    </marker>
    <marker
       inkscape:stockid="Arrow2Lstart"
       orient="auto"
       refY="0"
       refX="0"
       id="Arrow2Lstart-5-9-7-3-1-7-0"
       style="overflow:visible"
       inkscape:isstock="true">
      <path
         inkscape:connector-curvature="0"
         id="path4560-3-1-0-3-6-5-5"
         style="fill:#000000;fill-opacity:1;fill-rule:evenodd;stroke:#000000;stroke-width:0.625;stroke-linejoin:round;stroke-opacity:1"
         d="M 8.7185878,4.0337352 -2.2072895,0.01601326 8.7185884,-4.0017078 c -1.7454984,2.3720609 -1.7354408,5.6174519 -6e-7,8.035443 z"
         transform="matrix(1.1,0,0,1.1,1.1,0)" />
    </marker>
    <marker
       inkscape:stockid="Arrow2Lstart"
       orient="auto"
       refY="0"
       refX="0"
       id="Arrow2Lstart-5-9-7-4-3-9"
       style="overflow:visible"
       inkscape:isstock="true">
      <path
         inkscape:connector-curvature="0"
         id="path4560-3-1-0-8-5-4"
         style="fill:#000000;fill-opacity:1;fill-rule:evenodd;stroke:#000000;stroke-width:0.625;stroke-linejoin:round;stroke-opacity:1"
         d="M 8.7185878,4.0337352 -2.2072895,0.01601326 8.7185884,-4.0017078 c -1.7454984,2.3720609 -1.7354408,5.6174519 -6e-7,8.035443 z"
         transform="matrix(1.1,0,0,1.1,1.1,0)" />
    </marker>
  </defs>
  <sodipodi:namedview
     id="base"
     pagecolor="#ffffff"
     bordercolor="#666666"
     borderopacity="1.0"
     inkscape:pageopacity="0.0"
     inkscape:pageshadow="2"
     inkscape:zoom="1.5037598"
     inkscape:cx="403.66335"
     inkscape:cy="794.78334"
     inkscape:document-units="mm"
     inkscape:current-layer="layer1"
     showgrid="false"
     inkscape:snap-others="true"
     inkscape:measure-start="291.27,713.545"
     inkscape:measure-end="291.935,714.875"
     inkscape:window-width="1853"
     inkscape:window-height="1025"
     inkscape:window-x="67"
     inkscape:window-y="27"
     inkscape:window-maximized="1" />
  <metadata
     id="metadata5">
    <rdf:RDF>
      <cc:Work
         rdf:about="">
        <dc:format>image/svg+xml</dc:format>
        <dc:type
           rdf:resource="http://purl.org/dc/dcmitype/StillImage" />
        <dc:title></dc:title>
      </cc:Work>
    </rdf:RDF>
  </metadata>
  <g
     inkscape:label="Layer 1"
     inkscape:groupmode="layer"
     id="layer1">
    <text
       xml:space="preserve"
       style="font-style:normal;font-weight:normal;font-size:10.58333302px;line-height:1.08000004;font-family:sans-serif;letter-spacing:0px;word-spacing:0px;fill:#000000;fill-opacity:1;stroke:none;stroke-width:0.26458332;text-anchor:start;text-align:start;"
       x="46.504898"
       y="59.397388"
       id="text7881"><tspan
         sodipodi:role="line"
         id="tspan7879"
         x="46.504898"
         y="67.861572"
         style="line-height:1.08000004;stroke-width:0.26458332;text-anchor:start;text-align:start;" /></text>
    <path
       style="fill:#ffffff;stroke:#000000;stroke-width:0.21808241;stroke-opacity:1"
       d="M 33.201572,76.188011 H 73.185093 V 97.296577 H 33.201572 Z"
       id="rect20-5-6" />
    <path
       style="fill:none;stroke:#000000;stroke-width:0.19147125;stroke-linecap:butt;stroke-linejoin:miter;stroke-miterlimit:4;stroke-dasharray:none;stroke-opacity:1;marker-start:url(#Arrow2Lstart-5-9-7-4-3)"
       d="M 82.914543,86.274582 H 73.138662"
       id="path4540-5-2-9-01-2"
       inkscape:connector-curvature="0" />
    <g
       aria-label="ML
Programm"
       transform="scale(0.97797799,1.0225179)"
       style="font-style:normal;font-variant:normal;font-weight:normal;font-stretch:normal;font-size:5.13316059px;line-height:1;font-family:sans-serif;-inkscape-font-specification:'sans-serif, Normal';font-variant-ligatures:normal;font-variant-caps:normal;font-variant-numeric:normal;font-feature-settings:normal;text-align:start;letter-spacing:0px;word-spacing:0px;writing-mode:lr-tb;text-anchor:start;fill:#000000;fill-opacity:1;stroke:none;stroke-width:0.21551266"
       id="text7906-5-9">
      <path
         d="m 150.50044,79.825396 h 0.75443 l 0.95495,2.546528 0.95996,-2.546528 h 0.75444 v 3.742094 h -0.49377 v -3.285925 l -0.96497,2.56658 h -0.50881 l -0.96497,-2.56658 v 3.285925 h -0.49126 z"
         style="text-align:center;text-anchor:middle;stroke-width:0.21551266"
         id="path1755" />
      <path
         d="m 154.9318,79.825396 h 0.5063 v 3.316001 h 1.82217 v 0.426093 h -2.32847 z"
         style="text-align:center;text-anchor:middle;stroke-width:0.21551266"
         id="path1757" />
      <path
         d="m 141.31188,85.374623 v 1.406105 h 0.63663 q 0.35341,0 0.5464,-0.182969 0.193,-0.182969 0.193,-0.521337 0,-0.335861 -0.193,-0.51883 -0.19299,-0.182969 -0.5464,-0.182969 z m -0.5063,-0.416067 h 1.14293 q 0.62912,0 0.94994,0.285733 0.32333,0.283226 0.32333,0.832133 0,0.55392 -0.32333,0.837146 -0.32082,0.283227 -0.94994,0.283227 h -0.63663 v 1.503855 h -0.5063 z"
         style="text-align:center;text-anchor:middle;stroke-width:0.21551266"
         id="path1759" />
      <path
         d="m 145.41991,86.324558 q -0.0777,-0.04511 -0.17043,-0.06517 -0.0902,-0.02256 -0.20052,-0.02256 -0.391,0 -0.60154,0.255656 -0.20803,0.253149 -0.20803,0.72937 v 1.478791 h -0.46369 v -2.807197 h 0.46369 v 0.436118 q 0.14537,-0.255655 0.37847,-0.37847 0.23309,-0.125321 0.56645,-0.125321 0.0476,0 0.10527,0.0075 0.0576,0.005 0.12783,0.01754 z"
         style="text-align:center;text-anchor:middle;stroke-width:0.21551266"
         id="path1761" />
      <path
         d="m 146.88617,86.216782 q -0.37095,0 -0.5865,0.290745 -0.21555,0.288239 -0.21555,0.792031 0,0.503792 0.21304,0.794537 0.21556,0.288239 0.58901,0.288239 0.36845,0 0.584,-0.290745 0.21555,-0.290746 0.21555,-0.792031 0,-0.498779 -0.21555,-0.789524 -0.21555,-0.293252 -0.584,-0.293252 z m 0,-0.391002 q 0.60154,0 0.94493,0.391002 0.34338,0.391002 0.34338,1.082776 0,0.689267 -0.34338,1.082776 -0.34339,0.391003 -0.94493,0.391003 -0.60405,0 -0.94743,-0.391003 -0.34087,-0.393509 -0.34087,-1.082776 0,-0.691774 0.34087,-1.082776 0.34338,-0.391002 0.94743,-0.391002 z"
         style="text-align:center;text-anchor:middle;stroke-width:0.21551266"
         id="path1763" />
      <path
         d="m 150.78367,87.264468 q 0,-0.501285 -0.20804,-0.776992 -0.20552,-0.275707 -0.57898,-0.275707 -0.37095,0 -0.57899,0.275707 -0.20552,0.275707 -0.20552,0.776992 0,0.498779 0.20552,0.774486 0.20804,0.275707 0.57899,0.275707 0.37346,0 0.57898,-0.275707 0.20804,-0.275707 0.20804,-0.774486 z m 0.46118,1.087789 q 0,0.716838 -0.31832,1.065231 -0.31831,0.3509 -0.975,0.3509 -0.24312,0 -0.45867,-0.0376 -0.21556,-0.03509 -0.41858,-0.110282 v -0.448651 q 0.20302,0.110283 0.40103,0.162918 0.19801,0.05263 0.40354,0.05263 0.45366,0 0.67924,-0.238111 0.22558,-0.235604 0.22558,-0.714331 v -0.228085 q -0.14287,0.248136 -0.36594,0.370951 -0.22307,0.122815 -0.53387,0.122815 -0.51632,0 -0.83213,-0.393509 -0.31581,-0.393509 -0.31581,-1.042673 0,-0.651671 0.31581,-1.04518 0.31581,-0.393508 0.83213,-0.393508 0.3108,0 0.53387,0.122814 0.22307,0.122815 0.36594,0.370951 v -0.426092 h 0.46118 z"
         style="text-align:center;text-anchor:middle;stroke-width:0.21551266"
         id="path1765" />
      <path
         d="m 153.82145,86.324558 q -0.0777,-0.04511 -0.17043,-0.06517 -0.0902,-0.02256 -0.20052,-0.02256 -0.391,0 -0.60154,0.255656 -0.20803,0.253149 -0.20803,0.72937 v 1.478791 h -0.46369 v -2.807197 h 0.46369 v 0.436118 q 0.14537,-0.255655 0.37847,-0.37847 0.23309,-0.125321 0.56645,-0.125321 0.0476,0 0.10527,0.0075 0.0576,0.005 0.12783,0.01754 z"
         style="text-align:center;text-anchor:middle;stroke-width:0.21551266"
         id="path1767" />
      <path
         d="m 155.58598,87.289532 q -0.55893,0 -0.77449,0.127828 -0.21555,0.127828 -0.21555,0.436118 0,0.24563 0.16041,0.391003 0.16292,0.142866 0.44113,0.142866 0.38349,0 0.61408,-0.270694 0.23309,-0.273201 0.23309,-0.724357 v -0.102764 z m 0.91986,-0.190488 v 1.601606 h -0.46119 v -0.426092 q -0.1579,0.255655 -0.3935,0.37847 -0.23561,0.120309 -0.57648,0.120309 -0.43111,0 -0.68676,-0.240617 -0.25315,-0.243124 -0.25315,-0.649165 0,-0.473714 0.31581,-0.714331 0.31831,-0.240617 0.94743,-0.240617 h 0.64665 v -0.04512 q 0,-0.318316 -0.21054,-0.491259 -0.20803,-0.17545 -0.5865,-0.17545 -0.24062,0 -0.4687,0.05765 -0.22809,0.05765 -0.43863,0.172943 v -0.426092 q 0.25315,-0.09775 0.49126,-0.145373 0.23811,-0.05013 0.46369,-0.05013 0.60906,0 0.90984,0.315809 0.30077,0.31581 0.30077,0.957455 z"
         style="text-align:center;text-anchor:middle;stroke-width:0.21551266"
         id="path1769" />
      <path
         d="m 159.64388,86.432335 q 0.17295,-0.310797 0.41356,-0.458676 0.24062,-0.147879 0.56645,-0.147879 0.43863,0 0.67674,0.30829 0.23811,0.305784 0.23811,0.872236 v 1.694344 h -0.46369 v -1.679305 q 0,-0.403535 -0.14286,-0.599036 -0.14287,-0.195501 -0.43612,-0.195501 -0.35842,0 -0.56646,0.23811 -0.20803,0.238111 -0.20803,0.649165 v 1.586567 h -0.46369 v -1.679305 q 0,-0.406041 -0.14286,-0.599036 -0.14287,-0.195501 -0.44113,-0.195501 -0.35341,0 -0.56144,0.240617 -0.20804,0.23811 -0.20804,0.646658 v 1.586567 h -0.46369 v -2.807197 h 0.46369 v 0.436118 q 0.15791,-0.258162 0.37847,-0.380977 0.22057,-0.122814 0.52385,-0.122814 0.30578,0 0.51883,0.155398 0.21555,0.155398 0.31831,0.451157 z"
         style="text-align:center;text-anchor:middle;stroke-width:0.21551266"
         id="path1771" />
      <path
         d="m 164.64671,86.432335 q 0.17294,-0.310797 0.41356,-0.458676 0.24061,-0.147879 0.56645,-0.147879 0.43862,0 0.67673,0.30829 0.23811,0.305784 0.23811,0.872236 v 1.694344 h -0.46368 v -1.679305 q 0,-0.403535 -0.14287,-0.599036 -0.14287,-0.195501 -0.43612,-0.195501 -0.35842,0 -0.56645,0.23811 -0.20803,0.238111 -0.20803,0.649165 v 1.586567 h -0.46369 v -1.679305 q 0,-0.406041 -0.14287,-0.599036 -0.14287,-0.195501 -0.44113,-0.195501 -0.35341,0 -0.56144,0.240617 -0.20803,0.23811 -0.20803,0.646658 v 1.586567 h -0.46369 v -2.807197 h 0.46369 v 0.436118 q 0.1579,-0.258162 0.37847,-0.380977 0.22056,-0.122814 0.52384,-0.122814 0.30578,0 0.51883,0.155398 0.21555,0.155398 0.31832,0.451157 z"
         style="text-align:center;text-anchor:middle;stroke-width:0.21551266"
         id="path1773" />
    </g>
    <path
       style="fill:none;stroke:#000000;stroke-width:0.19147125;stroke-linecap:butt;stroke-linejoin:miter;stroke-miterlimit:4;stroke-dasharray:none;stroke-opacity:1;marker-start:url(#Arrow2Lstart-5-9-7-3-1-7)"
       d="m 32.824342,82.523536 h -9.77587"
       id="path4540-5-2-9-0-2-0"
       inkscape:connector-curvature="0" />
    <path
       style="fill:none;stroke:#000000;stroke-width:0.19147125;stroke-linecap:butt;stroke-linejoin:miter;stroke-miterlimit:4;stroke-dasharray:none;stroke-opacity:1;marker-start:url(#Arrow2Lstart-5-9-7-3-2-9-3)"
       d="m 32.824352,89.737402 h -9.77588"
       id="path4540-5-2-9-0-4-8-9"
       inkscape:connector-curvature="0" />
    <g
       aria-label="Outputs"
       transform="scale(0.9705811,1.0303106)"
       style="font-style:normal;font-variant:normal;font-weight:normal;font-stretch:normal;font-size:4.33345413px;line-height:1.25;font-family:sans-serif;-inkscape-font-specification:'sans-serif, Normal';font-variant-ligatures:normal;font-variant-caps:normal;font-variant-numeric:normal;font-feature-settings:normal;text-align:start;letter-spacing:0px;word-spacing:0px;writing-mode:lr-tb;text-anchor:start;fill:#000000;fill-opacity:1;stroke:none;stroke-width:0.27083737"
       id="text8404-08-0-0-6-3">
      <path
         d="m 88.005602,82.169262 q -0.465508,0 -0.740581,0.347015 -0.272957,0.347015 -0.272957,0.945827 0,0.596696 0.272957,0.943711 0.275073,0.347015 0.740581,0.347015 0.465508,0 0.736348,-0.347015 0.272957,-0.347015 0.272957,-0.943711 0,-0.598812 -0.272957,-0.945827 -0.27084,-0.347015 -0.736348,-0.347015 z m 0,-0.347015 q 0.664406,0 1.062204,0.446464 0.397797,0.444349 0.397797,1.193393 0,0.746928 -0.397797,1.193393 -0.397798,0.444348 -1.062204,0.444348 -0.666523,0 -1.066436,-0.444348 -0.397798,-0.444349 -0.397798,-1.193393 0,-0.749044 0.397798,-1.193393 0.399913,-0.446464 1.066436,-0.446464 z"
         style="stroke-width:0.27083737"
         id="path1776" />
      <path
         d="m 90.077111,84.103235 v -1.43461 h 0.389334 v 1.419799 q 0,0.336435 0.131189,0.50571 0.131188,0.16716 0.393565,0.16716 0.315276,0 0.497247,-0.201015 0.184087,-0.201014 0.184087,-0.548029 v -1.343625 h 0.389334 v 2.369858 H 91.672533 V 84.67454 q -0.141768,0.215827 -0.330087,0.321624 -0.186203,0.103681 -0.433769,0.103681 -0.408377,0 -0.619971,-0.253913 -0.211595,-0.253914 -0.211595,-0.742697 z m 0.979683,-1.491741 z"
         style="stroke-width:0.27083737"
         id="path1778" />
      <path
         d="m 93.253143,81.995755 v 0.67287 h 0.801943 v 0.30258 h -0.801943 v 1.286494 q 0,0.289885 0.07829,0.372406 0.08041,0.08252 0.32374,0.08252 h 0.399913 v 0.325856 h -0.399913 q -0.450696,0 -0.622088,-0.16716 -0.171391,-0.169275 -0.171391,-0.613624 v -1.286494 h -0.285653 v -0.30258 h 0.285653 v -0.67287 z"
         style="stroke-width:0.27083737"
         id="path1780" />
      <path
         d="m 94.945899,84.683004 v 1.256871 H 94.55445 v -3.27125 h 0.391449 v 0.35971 q 0.122725,-0.211594 0.308928,-0.313159 0.188319,-0.103682 0.44858,-0.103682 0.431653,0 0.700378,0.342783 0.270841,0.342783 0.270841,0.901393 0,0.558609 -0.270841,0.901392 -0.268725,0.342783 -0.700378,0.342783 -0.260261,0 -0.44858,-0.101565 -0.186203,-0.103682 -0.308928,-0.315276 z M 96.27048,83.85567 q 0,-0.429537 -0.177739,-0.672871 -0.175623,-0.245449 -0.484551,-0.245449 -0.308928,0 -0.486667,0.245449 -0.175624,0.243334 -0.175624,0.672871 0,0.429536 0.175624,0.674986 0.177739,0.243334 0.486667,0.243334 0.308928,0 0.484551,-0.243334 0.177739,-0.24545 0.177739,-0.674986 z"
         style="stroke-width:0.27083737"
         id="path1782" />
      <path
         d="m 97.279786,84.103235 v -1.43461 h 0.389334 v 1.419799 q 0,0.336435 0.131188,0.50571 0.131189,0.16716 0.393566,0.16716 0.315276,0 0.497247,-0.201015 0.184087,-0.201014 0.184087,-0.548029 v -1.343625 h 0.389334 v 2.369858 H 98.875208 V 84.67454 q -0.141768,0.215827 -0.330087,0.321624 -0.186203,0.103681 -0.433769,0.103681 -0.408377,0 -0.619972,-0.253913 -0.211594,-0.253914 -0.211594,-0.742697 z m 0.979682,-1.491741 z"
         style="stroke-width:0.27083737"
         id="path1784" />
      <path
         d="m 100.45582,81.995755 v 0.67287 h 0.80194 v 0.30258 h -0.80194 v 1.286494 q 0,0.289885 0.0783,0.372406 0.0804,0.08252 0.32374,0.08252 h 0.39991 v 0.325856 h -0.39991 q -0.4507,0 -0.62209,-0.16716 -0.17139,-0.169275 -0.17139,-0.613624 v -1.286494 h -0.285654 v -0.30258 h 0.285654 v -0.67287 z"
         style="stroke-width:0.27083737"
         id="path1786" />
      <path
         d="m 103.28272,82.738451 v 0.368174 q -0.16504,-0.08464 -0.34278,-0.126956 -0.17774,-0.04232 -0.36818,-0.04232 -0.28988,0 -0.43588,0.08887 -0.14389,0.08887 -0.14389,0.266609 0,0.13542 0.10369,0.21371 0.10368,0.07617 0.41684,0.146 l 0.1333,0.02962 q 0.41473,0.08887 0.58823,0.251798 0.17563,0.160811 0.17563,0.450696 0,0.330087 -0.26238,0.522638 -0.26026,0.192551 -0.71731,0.192551 -0.19043,0 -0.39779,-0.03809 -0.20525,-0.03597 -0.43377,-0.110029 V 84.5497 q 0.21582,0.112145 0.4253,0.169275 0.20948,0.05501 0.41473,0.05501 0.27507,0 0.42319,-0.0931 0.14811,-0.09522 0.14811,-0.266609 0,-0.158696 -0.10791,-0.243334 -0.1058,-0.08464 -0.46762,-0.162927 l -0.13542,-0.03174 q -0.36183,-0.07617 -0.52264,-0.232754 -0.16081,-0.158696 -0.16081,-0.433769 0,-0.334319 0.23698,-0.51629 0.23699,-0.181972 0.67287,-0.181972 0.21583,0 0.40626,0.03174 0.19044,0.03174 0.35125,0.09522 z"
         style="stroke-width:0.27083737"
         id="path1788" />
    </g>
    <g
       aria-label="Inputs"
       transform="scale(0.9705811,1.0303106)"
       style="font-style:normal;font-variant:normal;font-weight:normal;font-stretch:normal;font-size:4.33345366px;line-height:1.25;font-family:sans-serif;-inkscape-font-specification:'sans-serif, Normal';font-variant-ligatures:normal;font-variant-caps:normal;font-variant-numeric:normal;font-feature-settings:normal;text-align:start;letter-spacing:0px;word-spacing:0px;writing-mode:lr-tb;text-anchor:start;fill:#000000;fill-opacity:1;stroke:none;stroke-width:0.27083737"
       id="text8404-08-0-0-6-3-3">
      <path
         d="m 9.875914,78.431769 h 0.427421 v 3.159105 H 9.875914 Z"
         style="stroke-width:0.27083737"
         id="path1791" />
      <path
         d="m 13.106961,80.160495 v 1.430379 h -0.389334 v -1.417683 q 0,-0.336435 -0.131189,-0.503595 -0.131188,-0.167159 -0.393565,-0.167159 -0.315276,0 -0.497247,0.201015 -0.181971,0.201014 -0.181971,0.548029 v 1.339393 h -0.39145 v -2.369858 h 0.39145 v 0.368175 q 0.139652,-0.213711 0.327971,-0.319508 0.190435,-0.105797 0.438001,-0.105797 0.408377,0 0.617855,0.253913 0.209479,0.251797 0.209479,0.742696 z"
         style="stroke-width:0.27083737"
         id="path1793" />
      <path
         d="m 14.264382,81.235395 v 1.256871 h -0.39145 v -3.27125 h 0.39145 v 0.359711 q 0.122725,-0.211595 0.308928,-0.31316 0.188319,-0.103681 0.44858,-0.103681 0.431653,0 0.700378,0.342783 0.27084,0.342783 0.27084,0.901392 0,0.558609 -0.27084,0.901392 -0.268725,0.342783 -0.700378,0.342783 -0.260261,0 -0.44858,-0.101565 -0.186203,-0.103681 -0.308928,-0.315276 z m 1.324581,-0.827334 q 0,-0.429537 -0.177739,-0.67287 -0.175624,-0.24545 -0.484551,-0.24545 -0.308928,0 -0.486668,0.24545 -0.175623,0.243333 -0.175623,0.67287 0,0.429537 0.175623,0.674986 0.17774,0.243334 0.486668,0.243334 0.308927,0 0.484551,-0.243334 0.177739,-0.245449 0.177739,-0.674986 z"
         style="stroke-width:0.27083737"
         id="path1795" />
      <path
         d="m 16.598269,80.655626 v -1.43461 h 0.389333 v 1.419799 q 0,0.336435 0.131189,0.50571 0.131189,0.16716 0.393566,0.16716 0.315275,0 0.497246,-0.201015 0.184088,-0.201014 0.184088,-0.548029 v -1.343625 h 0.389333 v 2.369858 h -0.389333 v -0.363943 q -0.141769,0.215827 -0.330088,0.321624 -0.186203,0.103681 -0.433768,0.103681 -0.408377,0 -0.619972,-0.253913 -0.211594,-0.253914 -0.211594,-0.742697 z m 0.979682,-1.49174 z"
         style="stroke-width:0.27083737"
         id="path1797" />
      <path
         d="m 19.774301,78.548146 v 0.67287 h 0.801943 v 0.30258 h -0.801943 v 1.286494 q 0,0.289885 0.07829,0.372406 0.0804,0.08252 0.323739,0.08252 h 0.399914 v 0.325856 H 20.17633 q -0.450696,0 -0.622088,-0.16716 -0.171391,-0.169275 -0.171391,-0.613624 v -1.286494 h -0.285652 v -0.30258 h 0.285652 v -0.67287 z"
         style="stroke-width:0.27083737"
         id="path1799" />
      <path
         d="m 22.601203,79.290842 v 0.368175 q -0.165044,-0.08464 -0.342783,-0.126957 -0.17774,-0.04232 -0.368175,-0.04232 -0.289884,0 -0.435884,0.08887 -0.143884,0.08887 -0.143884,0.266609 0,0.13542 0.103681,0.21371 0.103681,0.07617 0.416841,0.146 l 0.133304,0.02962 q 0.414725,0.08887 0.588233,0.251797 0.175623,0.160812 0.175623,0.450696 0,0.330087 -0.262377,0.522638 -0.260261,0.192551 -0.717305,0.192551 -0.190435,0 -0.397797,-0.03809 -0.205247,-0.03597 -0.433769,-0.110029 v -0.402029 q 0.215826,0.112145 0.425305,0.169275 0.209478,0.05501 0.414725,0.05501 0.275073,0 0.423189,-0.0931 0.148116,-0.09522 0.148116,-0.266609 0,-0.158696 -0.107913,-0.243333 -0.105798,-0.08464 -0.467624,-0.162928 l -0.135421,-0.03174 q -0.361826,-0.07617 -0.522638,-0.232754 -0.160811,-0.158696 -0.160811,-0.433769 0,-0.334319 0.236985,-0.51629 0.236986,-0.181971 0.672871,-0.181971 0.215826,0 0.406261,0.03174 0.190435,0.03174 0.351247,0.09522 z"
         style="stroke-width:0.27083737"
         id="path1801" />
    </g>
    <g
       aria-label="Regeln"
       transform="scale(0.9705811,1.0303106)"
       style="font-style:normal;font-variant:normal;font-weight:normal;font-stretch:normal;font-size:4.33345366px;line-height:1.25;font-family:sans-serif;-inkscape-font-specification:'sans-serif, Normal';font-variant-ligatures:normal;font-variant-caps:normal;font-variant-numeric:normal;font-feature-settings:normal;text-align:start;letter-spacing:0px;word-spacing:0px;writing-mode:lr-tb;text-anchor:start;fill:#000000;fill-opacity:1;stroke:none;stroke-width:0.27083737"
       id="text8404-08-0-0-6-3-9">
      <path
         d="m 9.9237556,86.940577 q 0.1375364,0.04655 0.2666094,0.198899 0.131188,0.152347 0.262377,0.418956 l 0.433768,0.863306 H 10.42735 L 10.023205,87.611331 Q 9.8666252,87.293939 9.7185091,87.190258 9.5725089,87.086577 9.3185956,87.086577 H 8.8530879 v 1.335161 H 8.4256672 v -3.159105 h 0.9648705 q 0.5416817,0 0.8082903,0.226406 0.266609,0.226406 0.266609,0.68345 0,0.298348 -0.139652,0.495131 -0.137536,0.196783 -0.4020294,0.272957 z M 8.8530879,85.61388 v 1.12145 h 0.5374498 q 0.3089279,0 0.4655077,-0.141768 0.1586956,-0.143884 0.1586956,-0.421073 0,-0.277189 -0.1586956,-0.416841 Q 9.6994656,85.61388 9.3905377,85.61388 Z"
         style="stroke-width:0.27083737"
         id="path1804" />
      <path
         d="m 13.254252,87.139476 v 0.190434 h -1.790089 q 0.02539,0.40203 0.241218,0.613624 0.217942,0.209479 0.60516,0.209479 0.22429,0 0.433768,-0.05501 0.211595,-0.05501 0.418957,-0.165043 v 0.368174 q -0.209478,0.08887 -0.429537,0.13542 -0.220058,0.04655 -0.446464,0.04655 -0.567073,0 -0.899276,-0.330087 -0.330087,-0.330088 -0.330087,-0.892929 0,-0.581884 0.313159,-0.922551 0.315276,-0.342783 0.848494,-0.342783 0.478203,0 0.755392,0.308928 0.279305,0.306811 0.279305,0.835798 z m -0.389334,-0.114261 q -0.0042,-0.319508 -0.179855,-0.509943 -0.173508,-0.190435 -0.461276,-0.190435 -0.325856,0 -0.522638,0.184087 -0.194667,0.184087 -0.22429,0.518406 z"
         style="stroke-width:0.27083737"
         id="path1806" />
      <path
         d="m 15.452718,87.209302 q 0,-0.423189 -0.175624,-0.655943 -0.173507,-0.232754 -0.488783,-0.232754 -0.31316,0 -0.488783,0.232754 -0.173507,0.232754 -0.173507,0.655943 0,0.421073 0.173507,0.653826 0.175623,0.232754 0.488783,0.232754 0.315276,0 0.488783,-0.232754 0.175624,-0.232753 0.175624,-0.653826 z m 0.389333,0.918319 q 0,0.60516 -0.268725,0.899277 -0.268725,0.296232 -0.823102,0.296232 -0.205246,0 -0.387218,-0.03174 -0.181971,-0.02962 -0.353362,-0.0931 v -0.378754 q 0.171391,0.0931 0.338551,0.137537 0.167159,0.04443 0.340667,0.04443 0.382986,0 0.573421,-0.201014 0.190435,-0.198899 0.190435,-0.603044 v -0.192551 q -0.120609,0.209478 -0.308928,0.313159 -0.188319,0.103682 -0.450696,0.103682 -0.435885,0 -0.702494,-0.332204 -0.266609,-0.332203 -0.266609,-0.880232 0,-0.550146 0.266609,-0.882349 0.266609,-0.332203 0.702494,-0.332203 0.262377,0 0.450696,0.103681 0.188319,0.103681 0.308928,0.31316 V 86.05188 h 0.389333 z"
         style="stroke-width:0.27083737"
         id="path1808" />
      <path
         d="M 18.671068,87.139476 V 87.32991 H 16.88098 q 0.02539,0.40203 0.241217,0.613624 0.217943,0.209479 0.60516,0.209479 0.22429,0 0.433769,-0.05501 0.211594,-0.05501 0.418957,-0.165043 v 0.368174 q -0.209479,0.08887 -0.429537,0.13542 -0.220058,0.04655 -0.446464,0.04655 -0.567073,0 -0.899276,-0.330087 -0.330088,-0.330088 -0.330088,-0.892929 0,-0.581884 0.31316,-0.922551 0.315276,-0.342783 0.848494,-0.342783 0.478203,0 0.755392,0.308928 0.279304,0.306811 0.279304,0.835798 z m -0.389333,-0.114261 q -0.0042,-0.319508 -0.179856,-0.509943 -0.173507,-0.190435 -0.461275,-0.190435 -0.325856,0 -0.522639,0.184087 -0.194666,0.184087 -0.22429,0.518406 z"
         style="stroke-width:0.27083737"
         id="path1810" />
      <path
         d="m 19.310084,85.129329 h 0.389334 v 3.292409 h -0.389334 z"
         style="stroke-width:0.27083737"
         id="path1812" />
      <path
         d="m 22.481884,86.991359 v 1.430379 H 22.09255 v -1.417683 q 0,-0.336435 -0.131189,-0.503595 -0.131188,-0.167159 -0.393565,-0.167159 -0.315276,0 -0.497247,0.201014 -0.181971,0.201015 -0.181971,0.54803 v 1.339393 h -0.39145 V 86.05188 h 0.39145 v 0.368174 q 0.139652,-0.21371 0.327971,-0.319507 0.190435,-0.105797 0.438,-0.105797 0.408378,0 0.617856,0.253913 0.209479,0.251797 0.209479,0.742696 z"
         style="stroke-width:0.27083737"
         id="path1814" />
    </g>
    <path
       style="fill:none;stroke:#000000;stroke-width:0.21808241;stroke-opacity:1"
       d="m 131.12384,76.36396 h 39.98352 v 21.108567 h -39.98352 z"
       id="rect20-5-6-6" />
    <path
       style="fill:none;stroke:#000000;stroke-width:0.19147125;stroke-linecap:butt;stroke-linejoin:miter;stroke-miterlimit:4;stroke-dasharray:none;stroke-opacity:1;marker-start:url(#Arrow2Lstart-5-9-7-4-3-9)"
       d="m 180.83682,86.45053 h -9.77588"
       id="path4540-5-2-9-01-2-9"
       inkscape:connector-curvature="0" />
    <g
       aria-label="klassisches
Programm"
       transform="scale(0.97797799,1.0225179)"
       style="font-style:normal;font-variant:normal;font-weight:normal;font-stretch:normal;font-size:5.13316059px;line-height:1;font-family:sans-serif;-inkscape-font-specification:'sans-serif, Normal';font-variant-ligatures:normal;font-variant-caps:normal;font-variant-numeric:normal;font-feature-settings:normal;text-align:start;letter-spacing:0px;word-spacing:0px;writing-mode:lr-tb;text-anchor:start;fill:#000000;fill-opacity:1;stroke:none;stroke-width:0.21551266"
       id="text7906-5-9-2">
      <path
         d="m 40.141755,79.667491 h 0.463689 v 2.303405 l 1.376028,-1.210604 h 0.58901 l -1.488817,1.313368 1.551478,1.49383 h -0.601542 l -1.426157,-1.371015 v 1.371015 h -0.463689 z"
         style=""
         id="path1818" />
      <path
         d="m 43.136934,79.667491 h 0.461183 v 3.899999 h -0.461183 z"
         style=""
         id="path1820" />
      <path
         d="m 45.836355,82.156372 q -0.558933,0 -0.774485,0.127827 -0.215553,0.127828 -0.215553,0.436119 0,0.245629 0.160411,0.391002 0.162918,0.142866 0.441131,0.142866 0.383483,0 0.614075,-0.270694 0.233097,-0.2732 0.233097,-0.724357 v -0.102763 z m 0.919859,-0.190489 v 1.601607 h -0.461183 v -0.426093 q -0.157905,0.255656 -0.393509,0.378471 -0.235604,0.120308 -0.576478,0.120308 -0.431105,0 -0.68676,-0.240617 -0.253149,-0.243123 -0.253149,-0.649164 0,-0.473715 0.315809,-0.714332 0.318316,-0.240617 0.947429,-0.240617 h 0.646658 v -0.04511 q 0,-0.318316 -0.21054,-0.49126 -0.208033,-0.17545 -0.586503,-0.17545 -0.240617,0 -0.468702,0.05765 -0.228085,0.05765 -0.438624,0.172944 V 80.88812 q 0.253149,-0.09775 0.491259,-0.145373 0.238111,-0.05013 0.463689,-0.05013 0.609061,0 0.909833,0.31581 0.300771,0.315809 0.300771,0.957454 z"
         style=""
         id="path1822" />
      <path
         d="m 49.498244,80.843004 v 0.436119 q -0.195501,-0.100257 -0.406041,-0.150386 -0.21054,-0.05013 -0.436118,-0.05013 -0.343381,0 -0.516324,0.105269 -0.170437,0.10527 -0.170437,0.31581 0,0.160411 0.122815,0.253149 0.122815,0.09023 0.493766,0.172944 l 0.157905,0.03509 q 0.491259,0.105269 0.696786,0.298264 0.208034,0.190489 0.208034,0.533869 0,0.391002 -0.310797,0.619087 -0.308291,0.228085 -0.849679,0.228085 -0.225578,0 -0.471208,-0.04512 -0.243123,-0.04261 -0.513817,-0.130334 v -0.476221 q 0.255655,0.132841 0.503791,0.200514 0.248137,0.06517 0.49126,0.06517 0.325835,0 0.501285,-0.110282 0.17545,-0.11279 0.17545,-0.31581 0,-0.187982 -0.127828,-0.288239 -0.125321,-0.100257 -0.55392,-0.192995 l -0.160411,-0.0376 q -0.428599,-0.09023 -0.619087,-0.275707 -0.190489,-0.187982 -0.190489,-0.513817 0,-0.396016 0.28072,-0.611568 0.28072,-0.215553 0.797043,-0.215553 0.255656,0 0.481234,0.0376 0.225579,0.0376 0.416067,0.112789 z"
         style=""
         id="path1824" />
      <path
         d="m 52.175107,80.843004 v 0.436119 q -0.195502,-0.100257 -0.406041,-0.150386 -0.21054,-0.05013 -0.436118,-0.05013 -0.343381,0 -0.516324,0.105269 -0.170437,0.10527 -0.170437,0.31581 0,0.160411 0.122815,0.253149 0.122815,0.09023 0.493766,0.172944 l 0.157904,0.03509 q 0.49126,0.105269 0.696787,0.298264 0.208033,0.190489 0.208033,0.533869 0,0.391002 -0.310797,0.619087 -0.30829,0.228085 -0.849678,0.228085 -0.225578,0 -0.471208,-0.04512 -0.243123,-0.04261 -0.513817,-0.130334 v -0.476221 q 0.255655,0.132841 0.503791,0.200514 0.248136,0.06517 0.49126,0.06517 0.325835,0 0.501285,-0.110282 0.17545,-0.11279 0.17545,-0.31581 0,-0.187982 -0.127828,-0.288239 -0.125321,-0.100257 -0.55392,-0.192995 l -0.160411,-0.0376 q -0.428599,-0.09023 -0.619088,-0.275707 -0.190488,-0.187982 -0.190488,-0.513817 0,-0.396016 0.28072,-0.611568 0.280719,-0.215553 0.797043,-0.215553 0.255656,0 0.481234,0.0376 0.225578,0.0376 0.416067,0.112789 z"
         style=""
         id="path1826" />
      <path
         d="m 53.062381,80.760292 h 0.461183 v 2.807198 h -0.461183 z m 0,-1.092801 h 0.461183 v 0.583997 h -0.461183 z"
         style=""
         id="path1828" />
      <path
         d="m 56.275619,80.843004 v 0.436119 q -0.195501,-0.100257 -0.406041,-0.150386 -0.21054,-0.05013 -0.436118,-0.05013 -0.34338,0 -0.516324,0.105269 -0.170437,0.10527 -0.170437,0.31581 0,0.160411 0.122815,0.253149 0.122815,0.09023 0.493766,0.172944 l 0.157905,0.03509 q 0.491259,0.105269 0.696786,0.298264 0.208034,0.190489 0.208034,0.533869 0,0.391002 -0.310797,0.619087 -0.308291,0.228085 -0.849679,0.228085 -0.225578,0 -0.471208,-0.04512 -0.243123,-0.04261 -0.513817,-0.130334 v -0.476221 q 0.255655,0.132841 0.503792,0.200514 0.248136,0.06517 0.491259,0.06517 0.325836,0 0.501285,-0.110282 0.17545,-0.11279 0.17545,-0.31581 0,-0.187982 -0.127828,-0.288239 -0.125321,-0.100257 -0.55392,-0.192995 l -0.160411,-0.0376 q -0.428599,-0.09023 -0.619087,-0.275707 -0.190489,-0.187982 -0.190489,-0.513817 0,-0.396016 0.28072,-0.611568 0.28072,-0.215553 0.797044,-0.215553 0.255655,0 0.481233,0.0376 0.225579,0.0376 0.416067,0.112789 z"
         style=""
         id="path1830" />
      <path
         d="m 59.183073,80.868069 v 0.431105 q -0.195501,-0.107776 -0.393509,-0.160411 -0.195501,-0.05514 -0.396015,-0.05514 -0.44865,0 -0.696787,0.285733 -0.248136,0.283226 -0.248136,0.797043 0,0.513818 0.248136,0.79955 0.248137,0.283227 0.696787,0.283227 0.200514,0 0.396015,-0.05263 0.198008,-0.05514 0.393509,-0.162918 v 0.426092 q -0.192995,0.09023 -0.401028,0.135347 -0.205527,0.04512 -0.438625,0.04512 -0.634125,0 -1.007583,-0.398522 -0.373457,-0.398522 -0.373457,-1.075257 0,-0.68676 0.375963,-1.080269 0.378471,-0.393509 1.035154,-0.393509 0.213047,0 0.416067,0.04512 0.203021,0.04261 0.393509,0.130334 z"
         style=""
         id="path1832" />
      <path
         d="m 62.323626,81.873146 v 1.694344 h -0.461183 v -1.679306 q 0,-0.398522 -0.155398,-0.596529 -0.155398,-0.198008 -0.466195,-0.198008 -0.373458,0 -0.58901,0.238111 -0.215553,0.23811 -0.215553,0.649164 v 1.586568 h -0.463689 v -3.899999 h 0.463689 v 1.52892 q 0.165424,-0.253149 0.388496,-0.378471 0.225578,-0.125321 0.51883,-0.125321 0.483741,0 0.731877,0.300771 0.248136,0.298265 0.248136,0.879756 z"
         style=""
         id="path1834" />
      <path
         d="m 65.649654,82.048595 v 0.225579 h -2.120437 q 0.03008,0.476221 0.285733,0.726863 0.258162,0.248137 0.716838,0.248137 0.265681,0 0.513817,-0.06517 0.250642,-0.06517 0.496272,-0.195501 v 0.436118 q -0.248136,0.10527 -0.508804,0.160412 -0.260669,0.05514 -0.528856,0.05514 -0.671722,0 -1.065231,-0.391002 -0.391003,-0.391003 -0.391003,-1.057712 0,-0.689267 0.370951,-1.092802 0.373458,-0.406041 1.005077,-0.406041 0.566453,0 0.894794,0.365938 0.330849,0.363432 0.330849,0.990038 z m -0.461183,-0.135347 q -0.005,-0.37847 -0.213046,-0.604048 -0.205527,-0.225579 -0.546401,-0.225579 -0.38599,0 -0.619087,0.218059 -0.230591,0.21806 -0.265681,0.614075 z"
         style=""
         id="path1836" />
      <path
         d="m 68.196182,80.843004 v 0.436119 q -0.195501,-0.100257 -0.406041,-0.150386 -0.21054,-0.05013 -0.436118,-0.05013 -0.343381,0 -0.516324,0.105269 -0.170437,0.10527 -0.170437,0.31581 0,0.160411 0.122815,0.253149 0.122815,0.09023 0.493766,0.172944 l 0.157905,0.03509 q 0.491259,0.105269 0.696786,0.298264 0.208033,0.190489 0.208033,0.533869 0,0.391002 -0.310796,0.619087 -0.308291,0.228085 -0.849679,0.228085 -0.225578,0 -0.471208,-0.04512 -0.243123,-0.04261 -0.513817,-0.130334 v -0.476221 q 0.255655,0.132841 0.503791,0.200514 0.248137,0.06517 0.49126,0.06517 0.325835,0 0.501285,-0.110282 0.17545,-0.11279 0.17545,-0.31581 0,-0.187982 -0.127828,-0.288239 -0.125321,-0.100257 -0.55392,-0.192995 l -0.160411,-0.0376 q -0.428599,-0.09023 -0.619087,-0.275707 -0.190489,-0.187982 -0.190489,-0.513817 0,-0.396016 0.28072,-0.611568 0.28072,-0.215553 0.797043,-0.215553 0.255656,0 0.481234,0.0376 0.225579,0.0376 0.416067,0.112789 z"
         style=""
         id="path1838" />
      <path
         d="m 40.68565,85.374623 v 1.406105 h 0.636632 q 0.353406,0 0.546401,-0.182969 0.192995,-0.182969 0.192995,-0.521337 0,-0.335861 -0.192995,-0.51883 -0.192995,-0.182969 -0.546401,-0.182969 z m -0.506298,-0.416067 h 1.14293 q 0.629113,0 0.949935,0.285733 0.323329,0.283226 0.323329,0.832133 0,0.55392 -0.323329,0.837146 -0.320822,0.283227 -0.949935,0.283227 H 40.68565 v 1.503855 h -0.506298 z"
         style=""
         id="path1840" />
      <path
         d="m 44.793682,86.324558 q -0.0777,-0.04511 -0.170437,-0.06517 -0.09023,-0.02256 -0.200514,-0.02256 -0.391003,0 -0.601542,0.255656 -0.208034,0.253149 -0.208034,0.72937 v 1.478791 h -0.463689 v -2.807197 h 0.463689 v 0.436118 q 0.145373,-0.255655 0.378471,-0.37847 0.233097,-0.125321 0.566452,-0.125321 0.04762,0 0.10527,0.0075 0.05765,0.005 0.127827,0.01754 z"
         style=""
         id="path1842" />
      <path
         d="m 46.259941,86.216782 q -0.370951,0 -0.586504,0.290745 -0.215552,0.288239 -0.215552,0.792031 0,0.503792 0.213046,0.794537 0.215552,0.288239 0.58901,0.288239 0.368444,0 0.583997,-0.290745 0.215553,-0.290746 0.215553,-0.792031 0,-0.498779 -0.215553,-0.789524 -0.215553,-0.293252 -0.583997,-0.293252 z m 0,-0.391002 q 0.601542,0 0.944922,0.391002 0.343381,0.391002 0.343381,1.082776 0,0.689267 -0.343381,1.082776 -0.34338,0.391003 -0.944922,0.391003 -0.604049,0 -0.947429,-0.391003 -0.340874,-0.393509 -0.340874,-1.082776 0,-0.691774 0.340874,-1.082776 0.34338,-0.391002 0.947429,-0.391002 z"
         style=""
         id="path1844" />
      <path
         d="m 50.157434,87.264468 q 0,-0.501285 -0.208033,-0.776992 -0.205527,-0.275707 -0.578985,-0.275707 -0.370951,0 -0.578984,0.275707 -0.205527,0.275707 -0.205527,0.776992 0,0.498779 0.205527,0.774486 0.208033,0.275707 0.578984,0.275707 0.373458,0 0.578985,-0.275707 0.208033,-0.275707 0.208033,-0.774486 z m 0.461183,1.087789 q 0,0.716838 -0.318316,1.065231 -0.318317,0.3509 -0.975,0.3509 -0.243124,0 -0.458676,-0.0376 -0.215553,-0.03509 -0.418573,-0.110282 v -0.448651 q 0.20302,0.110283 0.401028,0.162918 0.198007,0.05263 0.403534,0.05263 0.453664,0 0.679242,-0.238111 0.225578,-0.235604 0.225578,-0.714331 v -0.228085 q -0.142866,0.248136 -0.365938,0.370951 -0.223072,0.122815 -0.533869,0.122815 -0.516324,0 -0.832133,-0.393509 -0.31581,-0.393509 -0.31581,-1.042673 0,-0.651671 0.31581,-1.04518 0.315809,-0.393508 0.832133,-0.393508 0.310797,0 0.533869,0.122814 0.223072,0.122815 0.365938,0.370951 v -0.426092 h 0.461183 z"
         style=""
         id="path1846" />
      <path
         d="m 53.195222,86.324558 q -0.0777,-0.04511 -0.170437,-0.06517 -0.09023,-0.02256 -0.200514,-0.02256 -0.391003,0 -0.601542,0.255656 -0.208034,0.253149 -0.208034,0.72937 v 1.478791 h -0.463689 v -2.807197 h 0.463689 v 0.436118 q 0.145373,-0.255655 0.378471,-0.37847 0.233097,-0.125321 0.566452,-0.125321 0.04762,0 0.10527,0.0075 0.05765,0.005 0.127828,0.01754 z"
         style=""
         id="path1848" />
      <path
         d="m 54.959746,87.289532 q -0.558933,0 -0.774485,0.127828 -0.215553,0.127828 -0.215553,0.436118 0,0.24563 0.160411,0.391003 0.162918,0.142866 0.441131,0.142866 0.383484,0 0.614075,-0.270694 0.233097,-0.273201 0.233097,-0.724357 v -0.102764 z m 0.919859,-0.190488 v 1.601606 h -0.461183 v -0.426092 q -0.157904,0.255655 -0.393508,0.37847 -0.235605,0.120309 -0.576478,0.120309 -0.431106,0 -0.686761,-0.240617 -0.253149,-0.243124 -0.253149,-0.649165 0,-0.473714 0.315809,-0.714331 0.318317,-0.240617 0.94743,-0.240617 h 0.646657 v -0.04512 q 0,-0.318316 -0.210539,-0.491259 -0.208034,-0.17545 -0.586504,-0.17545 -0.240617,0 -0.468702,0.05765 -0.228084,0.05765 -0.438624,0.172943 v -0.426092 q 0.253149,-0.09775 0.491259,-0.145373 0.238111,-0.05013 0.463689,-0.05013 0.609062,0 0.909833,0.315809 0.300771,0.31581 0.300771,0.957455 z"
         style=""
         id="path1850" />
      <path
         d="m 59.01765,86.432335 q 0.172944,-0.310797 0.413561,-0.458676 0.240617,-0.147879 0.566452,-0.147879 0.438625,0 0.676735,0.30829 0.238111,0.305784 0.238111,0.872236 V 88.70065 H 60.44882 v -1.679305 q 0,-0.403535 -0.142867,-0.599036 -0.142866,-0.195501 -0.436118,-0.195501 -0.358419,0 -0.566452,0.23811 -0.208033,0.238111 -0.208033,0.649165 v 1.586567 h -0.463689 v -1.679305 q 0,-0.406041 -0.142866,-0.599036 -0.142867,-0.195501 -0.441131,-0.195501 -0.353407,0 -0.56144,0.240617 -0.208033,0.23811 -0.208033,0.646658 v 1.586567 h -0.463689 v -2.807197 h 0.463689 v 0.436118 q 0.157905,-0.258162 0.37847,-0.380977 0.220566,-0.122814 0.523843,-0.122814 0.305784,0 0.51883,0.155398 0.215553,0.155398 0.318316,0.451157 z"
         style=""
         id="path1852" />
      <path
         d="m 64.020475,86.432335 q 0.172944,-0.310797 0.413561,-0.458676 0.240616,-0.147879 0.566452,-0.147879 0.438624,0 0.676735,0.30829 0.23811,0.305784 0.23811,0.872236 v 1.694344 h -0.463689 v -1.679305 q 0,-0.403535 -0.142866,-0.599036 -0.142866,-0.195501 -0.436118,-0.195501 -0.358419,0 -0.566452,0.23811 -0.208034,0.238111 -0.208034,0.649165 v 1.586567 h -0.463688 v -1.679305 q 0,-0.406041 -0.142867,-0.599036 -0.142866,-0.195501 -0.441131,-0.195501 -0.353406,0 -0.561439,0.240617 -0.208033,0.23811 -0.208033,0.646658 v 1.586567 h -0.463689 v -2.807197 h 0.463689 v 0.436118 q 0.157904,-0.258162 0.37847,-0.380977 0.220565,-0.122814 0.523843,-0.122814 0.305784,0 0.51883,0.155398 0.215553,0.155398 0.318316,0.451157 z"
         style=""
         id="path1854" />
    </g>
    <path
       style="fill:none;stroke:#000000;stroke-width:0.19147125;stroke-linecap:butt;stroke-linejoin:miter;stroke-miterlimit:4;stroke-dasharray:none;stroke-opacity:1;marker-start:url(#Arrow2Lstart-5-9-7-3-1-7-0)"
       d="m 130.74661,82.69948 h -9.77587"
       id="path4540-5-2-9-0-2-0-7"
       inkscape:connector-curvature="0" />
    <path
       style="fill:none;stroke:#000000;stroke-width:0.19147125;stroke-linecap:butt;stroke-linejoin:miter;stroke-miterlimit:4;stroke-dasharray:none;stroke-opacity:1;marker-start:url(#Arrow2Lstart-5-9-7-3-2-9-3-5)"
       d="m 130.74662,89.91335 h -9.77588"
       id="path4540-5-2-9-0-4-8-9-7"
       inkscape:connector-curvature="0" />
    <g
       aria-label="Regeln"
       transform="scale(0.9705811,1.0303106)"
       style="font-style:normal;font-variant:normal;font-weight:normal;font-stretch:normal;font-size:4.33345366px;line-height:1.25;font-family:sans-serif;-inkscape-font-specification:'sans-serif, Normal';font-variant-ligatures:normal;font-variant-caps:normal;font-variant-numeric:normal;font-feature-settings:normal;text-align:start;letter-spacing:0px;word-spacing:0px;writing-mode:lr-tb;text-anchor:start;fill:#000000;fill-opacity:1;stroke:none;stroke-width:0.27083737"
       id="text8404-08-0-0-6-3-5">
      <path
         d="m 189.11178,83.728098 q 0.13753,0.04655 0.26661,0.198899 0.13119,0.152348 0.26237,0.418957 l 0.43377,0.863305 h -0.45916 l -0.40414,-0.810407 q -0.15658,-0.317391 -0.3047,-0.421072 -0.146,-0.103682 -0.39991,-0.103682 h -0.46551 v 1.335161 h -0.42742 v -3.159105 h 0.96487 q 0.54168,0 0.80829,0.226406 0.26661,0.226406 0.26661,0.68345 0,0.298349 -0.13965,0.495131 -0.13754,0.196783 -0.40203,0.272957 z m -1.07067,-1.326697 v 1.121451 h 0.53745 q 0.30893,0 0.46551,-0.141769 0.15869,-0.143884 0.15869,-0.421073 0,-0.277188 -0.15869,-0.416841 -0.15658,-0.141768 -0.46551,-0.141768 z"
         style="stroke-width:0.27083737"
         id="path1857" />
      <path
         d="m 192.44227,83.926997 v 0.190435 h -1.79008 q 0.0254,0.402029 0.24121,0.613624 0.21795,0.209478 0.60516,0.209478 0.22429,0 0.43377,-0.05501 0.2116,-0.05501 0.41896,-0.165044 v 0.368174 q -0.20948,0.08887 -0.42954,0.135421 -0.22006,0.04655 -0.44646,0.04655 -0.56708,0 -0.89928,-0.330087 -0.33009,-0.330087 -0.33009,-0.892928 0,-0.581885 0.31316,-0.922552 0.31528,-0.342783 0.8485,-0.342783 0.4782,0 0.75539,0.308928 0.2793,0.306812 0.2793,0.835798 z m -0.38933,-0.114261 q -0.004,-0.319508 -0.17985,-0.509943 -0.17351,-0.190435 -0.46128,-0.190435 -0.32586,0 -0.52264,0.184088 -0.19467,0.184087 -0.22429,0.518406 z"
         style="stroke-width:0.27083737"
         id="path1859" />
      <path
         d="m 194.64074,83.996823 q 0,-0.423189 -0.17562,-0.655943 -0.17351,-0.232754 -0.48879,-0.232754 -0.31316,0 -0.48878,0.232754 -0.17351,0.232754 -0.17351,0.655943 0,0.421073 0.17351,0.653827 0.17562,0.232754 0.48878,0.232754 0.31528,0 0.48879,-0.232754 0.17562,-0.232754 0.17562,-0.653827 z m 0.38933,0.91832 q 0,0.60516 -0.26872,0.899276 -0.26873,0.296232 -0.8231,0.296232 -0.20525,0 -0.38722,-0.03174 -0.18197,-0.02962 -0.35336,-0.0931 v -0.378754 q 0.17139,0.0931 0.33855,0.137536 0.16716,0.04444 0.34066,0.04444 0.38299,0 0.57343,-0.201015 0.19043,-0.198899 0.19043,-0.603044 v -0.192551 q -0.12061,0.209479 -0.30893,0.31316 -0.18832,0.103681 -0.45069,0.103681 -0.43589,0 -0.7025,-0.332203 -0.26661,-0.332203 -0.26661,-0.880233 0,-0.550145 0.26661,-0.882349 0.26661,-0.332203 0.7025,-0.332203 0.26237,0 0.45069,0.103681 0.18832,0.103682 0.30893,0.31316 v -0.35971 h 0.38933 z"
         style="stroke-width:0.27083737"
         id="path1861" />
      <path
         d="m 197.85909,83.926997 v 0.190435 H 196.069 q 0.0254,0.402029 0.24122,0.613624 0.21794,0.209478 0.60516,0.209478 0.22429,0 0.43377,-0.05501 0.21159,-0.05501 0.41896,-0.165044 v 0.368174 q -0.20948,0.08887 -0.42954,0.135421 -0.22006,0.04655 -0.44647,0.04655 -0.56707,0 -0.89927,-0.330087 -0.33009,-0.330087 -0.33009,-0.892928 0,-0.581885 0.31316,-0.922552 0.31528,-0.342783 0.84849,-0.342783 0.47821,0 0.7554,0.308928 0.2793,0.306812 0.2793,0.835798 z m -0.38933,-0.114261 q -0.004,-0.319508 -0.17986,-0.509943 -0.17351,-0.190435 -0.46127,-0.190435 -0.32586,0 -0.52264,0.184088 -0.19467,0.184087 -0.22429,0.518406 z"
         style="stroke-width:0.27083737"
         id="path1863" />
      <path
         d="m 198.49811,81.91685 h 0.38933 v 3.292409 h -0.38933 z"
         style="stroke-width:0.27083737"
         id="path1865" />
      <path
         d="m 201.66991,83.778881 v 1.430378 h -0.38934 v -1.417683 q 0,-0.336435 -0.13119,-0.503594 -0.13118,-0.16716 -0.39356,-0.16716 -0.31528,0 -0.49725,0.201015 -0.18197,0.201015 -0.18197,0.548029 v 1.339393 h -0.39145 v -2.369857 h 0.39145 v 0.368174 q 0.13965,-0.213711 0.32797,-0.319508 0.19044,-0.105797 0.438,-0.105797 0.40838,0 0.61786,0.253913 0.20948,0.251798 0.20948,0.742697 z"
         style="stroke-width:0.27083737"
         id="path1867" />
    </g>
    <g
       aria-label="Inputs"
       transform="scale(0.9705811,1.0303106)"
       style="font-style:normal;font-variant:normal;font-weight:normal;font-stretch:normal;font-size:4.33345318px;line-height:1.25;font-family:sans-serif;-inkscape-font-specification:'sans-serif, Normal';font-variant-ligatures:normal;font-variant-caps:normal;font-variant-numeric:normal;font-feature-settings:normal;text-align:start;letter-spacing:0px;word-spacing:0px;writing-mode:lr-tb;text-anchor:start;fill:#000000;fill-opacity:1;stroke:none;stroke-width:0.27083737"
       id="text8404-08-0-0-6-3-3-8">
      <path
         d="m 110.76628,78.602538 h 0.42742 v 3.159104 h -0.42742 z"
         style="stroke-width:0.27083737"
         id="path1870" />
      <path
         d="m 113.99732,80.331264 v 1.430378 h -0.38933 V 80.34396 q 0,-0.336435 -0.13119,-0.503595 -0.13119,-0.167159 -0.39356,-0.167159 -0.31528,0 -0.49725,0.201014 -0.18197,0.201015 -0.18197,0.54803 v 1.339392 h -0.39145 v -2.369857 h 0.39145 v 0.368174 q 0.13965,-0.21371 0.32797,-0.319507 0.19043,-0.105797 0.438,-0.105797 0.40838,0 0.61786,0.253913 0.20947,0.251797 0.20947,0.742696 z"
         style="stroke-width:0.27083737"
         id="path1872" />
      <path
         d="m 115.15475,81.406164 v 1.256871 h -0.39145 v -3.27125 h 0.39145 v 0.359711 q 0.12272,-0.211595 0.30892,-0.31316 0.18832,-0.103681 0.44858,-0.103681 0.43166,0 0.70038,0.342783 0.27084,0.342783 0.27084,0.901392 0,0.558609 -0.27084,0.901392 -0.26872,0.342783 -0.70038,0.342783 -0.26026,0 -0.44858,-0.101565 -0.1862,-0.103682 -0.30892,-0.315276 z m 1.32458,-0.827334 q 0,-0.429537 -0.17774,-0.67287 -0.17563,-0.24545 -0.48455,-0.24545 -0.30893,0 -0.48667,0.24545 -0.17562,0.243333 -0.17562,0.67287 0,0.429536 0.17562,0.674986 0.17774,0.243333 0.48667,0.243333 0.30892,0 0.48455,-0.243333 0.17774,-0.24545 0.17774,-0.674986 z"
         style="stroke-width:0.27083737"
         id="path1874" />
      <path
         d="m 117.48863,80.826395 v -1.43461 h 0.38934 v 1.419799 q 0,0.336435 0.13118,0.50571 0.13119,0.16716 0.39357,0.16716 0.31528,0 0.49725,-0.201015 0.18408,-0.201015 0.18408,-0.548029 v -1.343625 h 0.38934 v 2.369857 h -0.38934 V 81.3977 q -0.14176,0.215826 -0.33008,0.321624 -0.18621,0.103681 -0.43377,0.103681 -0.40838,0 -0.61997,-0.253913 -0.2116,-0.253914 -0.2116,-0.742697 z m 0.97968,-1.49174 z"
         style="stroke-width:0.27083737"
         id="path1876" />
      <path
         d="m 120.66466,78.718915 v 0.67287 h 0.80195 v 0.30258 h -0.80195 v 1.286494 q 0,0.289884 0.0783,0.372406 0.0804,0.08252 0.32374,0.08252 h 0.39992 v 0.325855 h -0.39992 q -0.45069,0 -0.62208,-0.167159 -0.1714,-0.169276 -0.1714,-0.613624 v -1.286494 h -0.28565 v -0.30258 h 0.28565 v -0.67287 z"
         style="stroke-width:0.27083737"
         id="path1878" />
      <path
         d="m 123.49157,79.461611 v 0.368175 q -0.16505,-0.08464 -0.34279,-0.126957 -0.17774,-0.04232 -0.36817,-0.04232 -0.28989,0 -0.43589,0.08887 -0.14388,0.08887 -0.14388,0.266609 0,0.13542 0.10368,0.21371 0.10368,0.07617 0.41684,0.146 l 0.13331,0.02962 q 0.41472,0.08887 0.58823,0.251798 0.17562,0.160811 0.17562,0.450696 0,0.330087 -0.26238,0.522638 -0.26026,0.192551 -0.7173,0.192551 -0.19044,0 -0.3978,-0.03809 -0.20524,-0.03597 -0.43377,-0.110029 v -0.40203 q 0.21583,0.112145 0.42531,0.169276 0.20948,0.05501 0.41472,0.05501 0.27508,0 0.42319,-0.0931 0.14812,-0.09522 0.14812,-0.266609 0,-0.158696 -0.10791,-0.243334 -0.1058,-0.08464 -0.46763,-0.162927 l -0.13542,-0.03174 q -0.36183,-0.07617 -0.52264,-0.232754 -0.16081,-0.158696 -0.16081,-0.433769 0,-0.334319 0.23699,-0.51629 0.23698,-0.181971 0.67287,-0.181971 0.21582,0 0.40626,0.03174 0.19043,0.03174 0.35125,0.09522 z"
         style="stroke-width:0.27083737"
         id="path1880" />
    </g>
    <g
       aria-label="Outputs"
       transform="matrix(0.9705811,0,0,1.0303106,19.66815,3.7585467)"
       style="font-style:normal;font-variant:normal;font-weight:normal;font-stretch:normal;font-size:4.33345413px;line-height:1.25;font-family:sans-serif;-inkscape-font-specification:'sans-serif, Normal';font-variant-ligatures:normal;font-variant-caps:normal;font-variant-numeric:normal;font-feature-settings:normal;text-align:start;letter-spacing:0px;word-spacing:0px;writing-mode:lr-tb;text-anchor:start;fill:#000000;fill-opacity:1;stroke:none;stroke-width:0.27083737"
       id="text8404-08-0-0-6-3-6">
      <path
         inkscape:connector-curvature="0"
         d="m 88.005602,82.169262 q -0.465508,0 -0.740581,0.347015 -0.272957,0.347015 -0.272957,0.945827 0,0.596696 0.272957,0.943711 0.275073,0.347015 0.740581,0.347015 0.465508,0 0.736348,-0.347015 0.272957,-0.347015 0.272957,-0.943711 0,-0.598812 -0.272957,-0.945827 -0.27084,-0.347015 -0.736348,-0.347015 z m 0,-0.347015 q 0.664406,0 1.062204,0.446464 0.397797,0.444349 0.397797,1.193393 0,0.746928 -0.397797,1.193393 -0.397798,0.444348 -1.062204,0.444348 -0.666523,0 -1.066436,-0.444348 -0.397798,-0.444349 -0.397798,-1.193393 0,-0.749044 0.397798,-1.193393 0.399913,-0.446464 1.066436,-0.446464 z"
         style="stroke-width:0.27083737"
         id="path1776-8" />
      <path
         inkscape:connector-curvature="0"
         d="m 90.077111,84.103235 v -1.43461 h 0.389334 v 1.419799 q 0,0.336435 0.131189,0.50571 0.131188,0.16716 0.393565,0.16716 0.315276,0 0.497247,-0.201015 0.184087,-0.201014 0.184087,-0.548029 v -1.343625 h 0.389334 v 2.369858 H 91.672533 V 84.67454 q -0.141768,0.215827 -0.330087,0.321624 -0.186203,0.103681 -0.433769,0.103681 -0.408377,0 -0.619971,-0.253913 -0.211595,-0.253914 -0.211595,-0.742697 z m 0.979683,-1.491741 z"
         style="stroke-width:0.27083737"
         id="path1778-0" />
      <path
         inkscape:connector-curvature="0"
         d="m 93.253143,81.995755 v 0.67287 h 0.801943 v 0.30258 h -0.801943 v 1.286494 q 0,0.289885 0.07829,0.372406 0.08041,0.08252 0.32374,0.08252 h 0.399913 v 0.325856 h -0.399913 q -0.450696,0 -0.622088,-0.16716 -0.171391,-0.169275 -0.171391,-0.613624 v -1.286494 h -0.285653 v -0.30258 h 0.285653 v -0.67287 z"
         style="stroke-width:0.27083737"
         id="path1780-2" />
      <path
         inkscape:connector-curvature="0"
         d="m 94.945899,84.683004 v 1.256871 H 94.55445 v -3.27125 h 0.391449 v 0.35971 q 0.122725,-0.211594 0.308928,-0.313159 0.188319,-0.103682 0.44858,-0.103682 0.431653,0 0.700378,0.342783 0.270841,0.342783 0.270841,0.901393 0,0.558609 -0.270841,0.901392 -0.268725,0.342783 -0.700378,0.342783 -0.260261,0 -0.44858,-0.101565 -0.186203,-0.103682 -0.308928,-0.315276 z M 96.27048,83.85567 q 0,-0.429537 -0.177739,-0.672871 -0.175623,-0.245449 -0.484551,-0.245449 -0.308928,0 -0.486667,0.245449 -0.175624,0.243334 -0.175624,0.672871 0,0.429536 0.175624,0.674986 0.177739,0.243334 0.486667,0.243334 0.308928,0 0.484551,-0.243334 0.177739,-0.24545 0.177739,-0.674986 z"
         style="stroke-width:0.27083737"
         id="path1782-1" />
      <path
         inkscape:connector-curvature="0"
         d="m 97.279786,84.103235 v -1.43461 h 0.389334 v 1.419799 q 0,0.336435 0.131188,0.50571 0.131189,0.16716 0.393566,0.16716 0.315276,0 0.497247,-0.201015 0.184087,-0.201014 0.184087,-0.548029 v -1.343625 h 0.389334 v 2.369858 H 98.875208 V 84.67454 q -0.141768,0.215827 -0.330087,0.321624 -0.186203,0.103681 -0.433769,0.103681 -0.408377,0 -0.619972,-0.253913 -0.211594,-0.253914 -0.211594,-0.742697 z m 0.979682,-1.491741 z"
         style="stroke-width:0.27083737"
         id="path1784-0" />
      <path
         inkscape:connector-curvature="0"
         d="m 100.45582,81.995755 v 0.67287 h 0.80194 v 0.30258 h -0.80194 v 1.286494 q 0,0.289885 0.0783,0.372406 0.0804,0.08252 0.32374,0.08252 h 0.39991 v 0.325856 h -0.39991 q -0.4507,0 -0.62209,-0.16716 -0.17139,-0.169275 -0.17139,-0.613624 v -1.286494 h -0.285654 v -0.30258 h 0.285654 v -0.67287 z"
         style="stroke-width:0.27083737"
         id="path1786-5" />
      <path
         inkscape:connector-curvature="0"
         d="m 103.28272,82.738451 v 0.368174 q -0.16504,-0.08464 -0.34278,-0.126956 -0.17774,-0.04232 -0.36818,-0.04232 -0.28988,0 -0.43588,0.08887 -0.14389,0.08887 -0.14389,0.266609 0,0.13542 0.10369,0.21371 0.10368,0.07617 0.41684,0.146 l 0.1333,0.02962 q 0.41473,0.08887 0.58823,0.251798 0.17563,0.160811 0.17563,0.450696 0,0.330087 -0.26238,0.522638 -0.26026,0.192551 -0.71731,0.192551 -0.19043,0 -0.39779,-0.03809 -0.20525,-0.03597 -0.43377,-0.110029 V 84.5497 q 0.21582,0.112145 0.4253,0.169275 0.20948,0.05501 0.41473,0.05501 0.27507,0 0.42319,-0.0931 0.14811,-0.09522 0.14811,-0.266609 0,-0.158696 -0.10791,-0.243334 -0.1058,-0.08464 -0.46762,-0.162927 l -0.13542,-0.03174 q -0.36183,-0.07617 -0.52264,-0.232754 -0.16081,-0.158696 -0.16081,-0.433769 0,-0.334319 0.23698,-0.51629 0.23699,-0.181972 0.67287,-0.181972 0.21583,0 0.40626,0.03174 0.19044,0.03174 0.35125,0.09522 z"
         style="stroke-width:0.27083737"
         id="path1788-1" />
    </g>
  </g>
</svg>
