<svg viewBox="0 0 330 200" xmlns="http://www.w3.org/2000/svg"><g><g><g><g><g><line x1="58" y1="178" x2="53" y2="178" style="visibility: inherit;" fill="rgb(0, 0, 0)" stroke="rgb(204, 204, 204)" stroke-width="1px"></line><line x1="58" y1="161.8181818181818" x2="53" y2="161.8181818181818" style="visibility: inherit;" fill="rgb(0, 0, 0)" stroke="rgb(204, 204, 204)" stroke-width="1px"></line><line x1="58" y1="145.6363636363636" x2="53" y2="145.6363636363636" style="visibility: inherit;" fill="rgb(0, 0, 0)" stroke="rgb(204, 204, 204)" stroke-width="1px"></line><line x1="58" y1="129.4545454545455" x2="53" y2="129.4545454545455" style="visibility: inherit;" fill="rgb(0, 0, 0)" stroke="rgb(204, 204, 204)" stroke-width="1px"></line><line x1="58" y1="113.2727272727273" x2="53" y2="113.2727272727273" style="visibility: inherit;" fill="rgb(0, 0, 0)" stroke="rgb(204, 204, 204)" stroke-width="1px"></line><line x1="58" y1="97.09090909090911" x2="53" y2="97.09090909090911" style="visibility: inherit;" fill="rgb(0, 0, 0)" stroke="rgb(204, 204, 204)" stroke-width="1px"></line><line x1="58" y1="80.90909090909089" x2="53" y2="80.90909090909089" style="visibility: inherit;" fill="rgb(0, 0, 0)" stroke="rgb(204, 204, 204)" stroke-width="1px"></line><line x1="58" y1="64.7272727272727" x2="53" y2="64.7272727272727" style="visibility: inherit;" fill="rgb(0, 0, 0)" stroke="rgb(204, 204, 204)" stroke-width="1px"></line><line x1="58" y1="48.545454545454504" x2="53" y2="48.545454545454504" style="visibility: inherit;" fill="rgb(0, 0, 0)" stroke="rgb(204, 204, 204)" stroke-width="1px"></line><line x1="58" y1="32.3636363636364" x2="53" y2="32.3636363636364" style="visibility: inherit;" fill="rgb(0, 0, 0)" stroke="rgb(204, 204, 204)" stroke-width="1px"></line><line x1="58" y1="16.181818181818215" x2="53" y2="16.181818181818215" style="visibility: inherit;" fill="rgb(0, 0, 0)" stroke="rgb(204, 204, 204)" stroke-width="1px"></line><line x1="58" y1="0" x2="53" y2="0" style="visibility: inherit;" fill="rgb(0, 0, 0)" stroke="rgb(204, 204, 204)" stroke-width="1px"></line></g><g transform="translate(48, 0)"><text x="0" y="178" dx="0em" dy="0.3em" style="text-anchor: end; visibility: hidden; font-family: &quot;Helvetica Neue&quot;, sans-serif; font-size: 12px; font-weight: 200;" fill="rgb(50, 49, 63)" stroke="none" stroke-width="1px">0.64</text><text x="0" y="161.8181818181818" dx="0em" dy="0.3em" style="text-anchor: end; visibility: inherit; font-family: &quot;Helvetica Neue&quot;, sans-serif; font-size: 12px; font-weight: 200;" fill="rgb(50, 49, 63)" stroke="none" stroke-width="1px">0.66</text><text x="0" y="145.6363636363636" dx="0em" dy="0.3em" style="text-anchor: end; visibility: hidden; font-family: &quot;Helvetica Neue&quot;, sans-serif; font-size: 12px; font-weight: 200;" fill="rgb(50, 49, 63)" stroke="none" stroke-width="1px">0.68</text><text x="0" y="129.4545454545455" dx="0em" dy="0.3em" style="text-anchor: end; visibility: inherit; font-family: &quot;Helvetica Neue&quot;, sans-serif; font-size: 12px; font-weight: 200;" fill="rgb(50, 49, 63)" stroke="none" stroke-width="1px">0.7</text><text x="0" y="113.2727272727273" dx="0em" dy="0.3em" style="text-anchor: end; visibility: hidden; font-family: &quot;Helvetica Neue&quot;, sans-serif; font-size: 12px; font-weight: 200;" fill="rgb(50, 49, 63)" stroke="none" stroke-width="1px">0.72</text><text x="0" y="97.09090909090911" dx="0em" dy="0.3em" style="text-anchor: end; visibility: inherit; font-family: &quot;Helvetica Neue&quot;, sans-serif; font-size: 12px; font-weight: 200;" fill="rgb(50, 49, 63)" stroke="none" stroke-width="1px">0.74</text><text x="0" y="80.90909090909089" dx="0em" dy="0.3em" style="text-anchor: end; visibility: hidden; font-family: &quot;Helvetica Neue&quot;, sans-serif; font-size: 12px; font-weight: 200;" fill="rgb(50, 49, 63)" stroke="none" stroke-width="1px">0.76</text><text x="0" y="64.7272727272727" dx="0em" dy="0.3em" style="text-anchor: end; visibility: inherit; font-family: &quot;Helvetica Neue&quot;, sans-serif; font-size: 12px; font-weight: 200;" fill="rgb(50, 49, 63)" stroke="none" stroke-width="1px">0.78</text><text x="0" y="48.545454545454504" dx="0em" dy="0.3em" style="text-anchor: end; visibility: hidden; font-family: &quot;Helvetica Neue&quot;, sans-serif; font-size: 12px; font-weight: 200;" fill="rgb(50, 49, 63)" stroke="none" stroke-width="1px">0.8</text><text x="0" y="32.3636363636364" dx="0em" dy="0.3em" style="text-anchor: end; visibility: inherit; font-family: &quot;Helvetica Neue&quot;, sans-serif; font-size: 12px; font-weight: 200;" fill="rgb(50, 49, 63)" stroke="none" stroke-width="1px">0.82</text><text x="0" y="16.181818181818215" dx="0em" dy="0.3em" style="text-anchor: end; visibility: hidden; font-family: &quot;Helvetica Neue&quot;, sans-serif; font-size: 12px; font-weight: 200;" fill="rgb(50, 49, 63)" stroke="none" stroke-width="1px">0.84</text><text x="0" y="0" dx="0em" dy="0.3em" style="text-anchor: end; visibility: hidden; font-family: &quot;Helvetica Neue&quot;, sans-serif; font-size: 12px; font-weight: 200;" fill="rgb(50, 49, 63)" stroke="none" stroke-width="1px">0.86</text></g><line x1="58" y1="0" x2="58" y2="178" fill="rgb(0, 0, 0)" stroke="rgb(204, 204, 204)" stroke-width="1px"></line></g></g><g transform="translate(58, 0)" clip-path="url(#clip_0)"><clipPath id="clip_0"><rect width="272" height="178"></rect></clipPath><g><g><g><line x1="0" y1="0" x2="0" y2="178" fill="rgb(0, 0, 0)" stroke="rgb(60, 60, 60)" stroke-width="1px" opacity="0.25"></line><line x1="22.666666666666664" y1="0" x2="22.666666666666664" y2="178" fill="rgb(0, 0, 0)" stroke="rgb(60, 60, 60)" stroke-width="1px" opacity="0.25"></line><line x1="45.33333333333333" y1="0" x2="45.33333333333333" y2="178" fill="rgb(0, 0, 0)" stroke="rgb(60, 60, 60)" stroke-width="1px" opacity="0.25"></line><line x1="68" y1="0" x2="68" y2="178" fill="rgb(0, 0, 0)" stroke="rgb(60, 60, 60)" stroke-width="1px" opacity="0.25"></line><line x1="90.66666666666666" y1="0" x2="90.66666666666666" y2="178" fill="rgb(0, 0, 0)" stroke="rgb(60, 60, 60)" stroke-width="1px" opacity="0.25"></line><line x1="113.33333333333334" y1="0" x2="113.33333333333334" y2="178" fill="rgb(0, 0, 0)" stroke="rgb(60, 60, 60)" stroke-width="1px" opacity="0.25"></line><line x1="136" y1="0" x2="136" y2="178" fill="rgb(0, 0, 0)" stroke="rgb(60, 60, 60)" stroke-width="1px" opacity="0.25"></line><line x1="158.66666666666669" y1="0" x2="158.66666666666669" y2="178" fill="rgb(0, 0, 0)" stroke="rgb(60, 60, 60)" stroke-width="1px" opacity="0.25"></line><line x1="181.33333333333331" y1="0" x2="181.33333333333331" y2="178" fill="rgb(0, 0, 0)" stroke="rgb(60, 60, 60)" stroke-width="1px" opacity="0.25"></line><line x1="204" y1="0" x2="204" y2="178" fill="rgb(0, 0, 0)" stroke="rgb(60, 60, 60)" stroke-width="1px" opacity="0.25"></line><line x1="226.66666666666669" y1="0" x2="226.66666666666669" y2="178" fill="rgb(0, 0, 0)" stroke="rgb(60, 60, 60)" stroke-width="1px" opacity="0.25"></line><line x1="249.33333333333331" y1="0" x2="249.33333333333331" y2="178" fill="rgb(0, 0, 0)" stroke="rgb(60, 60, 60)" stroke-width="1px" opacity="0.25"></line><line x1="272" y1="0" x2="272" y2="178" fill="rgb(0, 0, 0)" stroke="rgb(60, 60, 60)" stroke-width="1px" opacity="0.25"></line></g><g><line x1="0" y1="178" x2="272" y2="178" fill="rgb(0, 0, 0)" stroke="rgb(60, 60, 60)" stroke-width="1px" opacity="0.25"></line><line x1="0" y1="161.8181818181818" x2="272" y2="161.8181818181818" fill="rgb(0, 0, 0)" stroke="rgb(60, 60, 60)" stroke-width="1px" opacity="0.25"></line><line x1="0" y1="145.6363636363636" x2="272" y2="145.6363636363636" fill="rgb(0, 0, 0)" stroke="rgb(60, 60, 60)" stroke-width="1px" opacity="0.25"></line><line x1="0" y1="129.4545454545455" x2="272" y2="129.4545454545455" fill="rgb(0, 0, 0)" stroke="rgb(60, 60, 60)" stroke-width="1px" opacity="0.25"></line><line x1="0" y1="113.2727272727273" x2="272" y2="113.2727272727273" fill="rgb(0, 0, 0)" stroke="rgb(60, 60, 60)" stroke-width="1px" opacity="0.25"></line><line x1="0" y1="97.09090909090911" x2="272" y2="97.09090909090911" fill="rgb(0, 0, 0)" stroke="rgb(60, 60, 60)" stroke-width="1px" opacity="0.25"></line><line x1="0" y1="80.90909090909089" x2="272" y2="80.90909090909089" fill="rgb(0, 0, 0)" stroke="rgb(60, 60, 60)" stroke-width="1px" opacity="0.25"></line><line x1="0" y1="64.7272727272727" x2="272" y2="64.7272727272727" fill="rgb(0, 0, 0)" stroke="rgb(60, 60, 60)" stroke-width="1px" opacity="0.25"></line><line x1="0" y1="48.545454545454504" x2="272" y2="48.545454545454504" fill="rgb(0, 0, 0)" stroke="rgb(60, 60, 60)" stroke-width="1px" opacity="0.25"></line><line x1="0" y1="32.3636363636364" x2="272" y2="32.3636363636364" fill="rgb(0, 0, 0)" stroke="rgb(60, 60, 60)" stroke-width="1px" opacity="0.25"></line><line x1="0" y1="16.181818181818215" x2="272" y2="16.181818181818215" fill="rgb(0, 0, 0)" stroke="rgb(60, 60, 60)" stroke-width="1px" opacity="0.25"></line><line x1="0" y1="0" x2="272" y2="0" fill="rgb(0, 0, 0)" stroke="rgb(60, 60, 60)" stroke-width="1px" opacity="0.25"></line></g></g></g><g><g><line x1="0" y1="695.8181818181819" x2="272" y2="695.8181818181819" fill="rgb(0, 0, 0)" stroke="rgb(153, 153, 153)" stroke-width="1.5px"></line></g></g><g><g><line x1="22.666666666666664" y1="0" x2="22.666666666666664" y2="178" fill="rgb(0, 0, 0)" stroke="rgb(153, 153, 153)" stroke-width="1.5px"></line></g></g><g><g><g><g><g><path stroke="rgb(255, 112, 67)" stroke-width="2px" d="M26.304213333333333,-13.447502518242146L30.462186666666668,13.123993399855323L32.310880000000004,51.02892271831715L36.47248,75.98398277185132L40.62773333333334,93.32540180852563L44.700480000000006,113.04846026281336L46.52469333333334,120.58733414352056L48.35752,119.69638045692662L52.46336,125.7552405828016L54.23272,125.68352088813614L58.272373333333334,126.6596234999177L60.04853333333333,121.18016382072526L61.82378666666666,121.95484589762921L65.93189333333333,126.45417207498879L70.09621333333332,122.56494754412299L74.23832,113.17503656250985L76.07976,110.37636148036155L77.90714666666666,114.12534197517726L82.03746666666666,102.77927776548071L83.85351999999999,97.23391859042466L87.98837333333333,91.00244419167807L89.81712,95.8752633305119L91.61549333333333,89.40514142183704L95.70909333333334,88.49739912250666L99.79453333333333,81.57423689986068L103.84098666666667,78.4408978131038L105.61986666666667,69.84773775828944L107.38333333333333,69.57474436553645L109.14589333333333,70.33280942299086L113.24493333333334,61.35185014418667L113.33333333333334,50.972930894608254" style="fill: none;" fill="none"></path></g><g><path stroke="rgb(0, 119, 187)" stroke-width="2px" d="M24.532586666666667,-37.21067328886565L26.379013333333333,4.49245403571561L30.61768,45.38101939146503L32.50944,76.62117896009893L36.758986666666665,100.42008686192017L38.647573333333334,111.60734555562043L42.90482666666667,113.85675983209474L44.798853333333334,129.25033283773L49.059733333333334,133.8190023983929L50.95512,136.58258993682907L52.84688,144.12548488066324L57.09144,144.7279239784102L58.98229333333333,146.1763163795966L63.23229333333333,137.5948619572668L65.11816,142.78563255587312L67.00629333333333,140.2720104122028L68,144.29122173246537" style="fill: none;" fill="none"></path></g><g><path stroke="rgb(204, 51, 17)" stroke-width="2px" d="M26.996906666666668,-17.864826652136657L28.47296,26.45520989616199L29.99525333333333,33.18444128079528L31.551546666666667,52.24862491843099L35.0472,75.89898454280713L38.564159999999994,92.65436741491669L40.11682666666667,100.53867796020933L43.68954666666667,108.43506767940008L47.30533333333333,116.09719359968054L50.93290666666667,122.8565862387056L52.51912,122.75334633685262L56.095013333333334,124.71175014487312L57.659013333333334,126.09002261606672L61.16690666666667,134.12219173218088L62.697359999999996,133.71971144600738L66.23653333333333,134.6152423944904L67.7688,146.26775555734847L71.30344000000001,139.94703073321574L74.71205333333333,138.11109756725997L76.21394666666666,139.91008473276202L79.85466666666666,136.15770627656747L81.46989333333335,134.5067046876372L83.10007999999999,133.05518912755264L86.80517333333334,131.35248708973552L88.45349333333334,117.6978876596404L90.09773333333334,128.01712799726556L91.74650666666668,133.64168663761674L95.44434666666666,134.2859443498976L99.07282666666667,137.18624789680257L100.65541333333333,128.71545339346744L104.22586666666666,131.09661895452115L105.78533333333334,127.78171523401456L109.28733333333334,130.9528520364969L112.89632,129.21388570469384L114.42949333333333,133.81708438160322L117.95688000000001,140.5410818931086L120.68730666666667,140.7120908669994L121.98474666666667,132.13179697322917L125.40197333333333,134.3607063447927L126.97730666666666,132.38649809478758L130.58085333333332,131.86769829059116L132.16661333333332,133.42687631809716L135.84813333333332,124.5739993452883L139.5632,122.29998291923135L141.2065333333333,121.46655594827533L144.92749333333333,113.65567602146776L146.55949333333334,117.62122153579354L150.20792,128.23263541622296L153.74392,127.34057001058804L155.25125333333335,124.73832469940545L157.88421333333332,118.9228836922932L159.27730666666668,126.1774094111394L162.80514666666667,118.92583591760285L164.41448,121.09778681085027L168.07741333333334,129.4036775293927L169.69082666666665,119.27578552036054L173.39546666666666,116.37605482564919L175.03109333333336,122.68751494044227L178.7561333333333,123.83579612184431L180.39946666666668,123.15508130490639L184.09549333333334,119.84046344990006L187.83685333333332,124.73259511393812L189.49514666666667,127.49921962717858L191.14754666666667,128.438781387208L194.87122666666664,128.98776141690013L196.4996,131.85427770980652L200.24776,122.46100853879508L201.88610666666668,116.96320366696433L205.52229333333335,118.3798053948419L209.15984,118.43483532326707L212.87626666666665,122.78357938713928L216.53693333333334,122.83731396071369L218.10184,121.80087593566014L219.67581333333334,120.11789612178208L223.31426666666667,119.95967545847793L224.91226666666665,116.94728860104507L228.60784,117.45520498172193L230.25842666666665,121.39348191563286L233.89416,119.19801228912527L235.46586666666667,119.92402888774352L239.11429333333334,117.56413722462776L242.78856,114.29923363420131L246.45104,114.88889744217852L248.08077333333333,111.35916723429737L251.63490666666667,104.07635060538779L253.14224,102.45590427761138" style="fill: none;" fill="none"></path></g></g></g></g><g opacity="0.2"><g><g><g><path stroke="rgb(255, 112, 67)" stroke-width="2px" d="M24.495866666666668,-49.951098918914795L26.304213333333333,8.454655322161585L30.462186666666668,38.63262948122892L32.310880000000004,95.60511959682812L36.47248,108.56530917774548L40.62773333333334,117.31482724709946L44.700480000000006,141.2527494213798L46.52469333333334,131.57908463478088L48.35752,118.38239682804453L52.46336,134.75194174593145L54.23272,125.57659183848989L58.272373333333334,128.11846551028165L60.04853333333333,112.97886568849738L61.82378666666666,123.11535133015028L65.93189333333333,133.19787255200472L70.09621333333332,116.73385373028842L74.23832,99.09414358572526L76.07976,106.1790594404394L77.90714666666666,119.74824159795588L82.03746666666666,85.76121852614664L83.85351999999999,88.91618394851685L87.98837333333333,81.65543764287776L89.81712,103.18439583344893L91.61549333333333,79.70003520358692L95.70909333333334,87.13579212535511L99.79453333333333,71.18952309001575L103.84098666666667,73.74089720032431L105.61986666666667,56.958010868592694L107.38333333333333,69.16525452787226L109.14589333333333,71.46990659020163L113.24493333333334,47.880414204164L113.33333333333334,35.404554085298" style="fill: none;" fill="none"></path></g><g><path stroke="rgb(0, 119, 187)" stroke-width="2px" d="M24.532586666666667,-37.210673288865536L26.379013333333333,29.514330430464298L30.61768,84.6340421329845L32.50944,113.35960661281239L36.758986666666665,131.49194101853806L38.647573333333334,127.08335174213758L42.90482666666667,117.07345823808151L44.798853333333334,151.69431005824697L49.059733333333334,140.5569025819952L50.95512,140.68619535186076L52.84688,155.37141379443082L57.09144,145.62830417806452L58.98229333333333,148.3441757288846L63.23229333333333,124.73949228633535L65.11816,150.56568689779803L67.00629333333333,136.50334999778056L68,150.31833791732788" style="fill: none;" fill="none"></path></g><g><path stroke="rgb(204, 51, 17)" stroke-width="2px" d="M23.750133333333334,-78.48033707792109L26.996906666666668,18.50447960333389L28.47296,69.00244498252869L29.99525333333333,41.09801738912407L31.551546666666667,77.13882307572798L35.0472,108.61594603278421L38.564159999999994,116.61483300815928L40.11682666666667,112.03407842462714L43.68954666666667,120.0807087204673L47.30533333333333,127.47455761649391L50.93290666666667,132.93436800349843L52.51912,122.59904831106013L56.095013333333334,127.64296132867986L57.659013333333334,128.15473114360464L61.16690666666667,146.16100389307195L62.697359999999996,133.11627487702805L66.23653333333333,135.95815985853022L67.7688,163.7435667298057L71.30344000000001,130.46690639582548L74.71205333333333,135.35736562988976L76.21394666666666,142.60846682028338L79.85466666666666,130.52926206588745L81.46989333333335,132.03023490038785L83.10007999999999,130.8779329820113L86.80517333333334,128.79844613508746L88.45349333333334,97.2160467451269L90.09773333333334,143.49596209959552L91.74650666666668,142.0785159631209L95.44434666666666,135.25233032486656L99.07282666666667,141.5367016142065L100.65541333333333,116.0092644474723L104.22586666666666,134.66836682232943L105.78533333333334,122.80936004898766L109.28733333333334,135.70955701307818L112.89632,126.60543628172442L114.42949333333333,140.721882278269L117.95688000000001,150.62707805633545L120.68730666666667,140.96860432624817L121.98474666666667,119.26135618036443L125.40197333333333,137.70407039468938L126.97730666666666,129.42518572373825L130.58085333333332,131.0894985849207L132.16661333333332,135.7656433582306L135.84813333333332,111.29468388990922L139.5632,118.88895828073674L141.2065333333333,120.2164154919711L144.92749333333333,101.93935613198714L146.55949333333334,123.56953980705956L150.20792,144.14975623650986L153.74392,126.0024719021537L155.25125333333335,120.83495673266324L157.88421333333332,110.19972218166698L159.27730666666668,137.0591979893771L162.80514666666667,108.04847567731684L164.41448,124.355713150718L168.07741333333334,141.86251360719854L169.69082666666665,104.0839475068179L173.39546666666666,112.02645878358321L175.03109333333336,132.15470511263067L178.7561333333333,125.55821789394727L180.39946666666668,122.13400907949969L184.09549333333334,114.86853666739032L187.83685333333332,132.07079260999507L189.49514666666667,131.64915639703923L191.14754666666667,129.8481240272522L194.87122666666664,129.81123146143827L196.4996,136.15405214916575L200.24776,108.3711047822779L201.88610666666668,108.71649635921825L205.52229333333335,120.50470798665827L209.15984,118.51738021590492L212.87626666666665,129.30669548294762L216.53693333333334,122.91791582107544L218.10184,120.2462188980796L219.67581333333334,117.59342640096492L223.31426666666667,119.72234446352178L224.91226666666665,112.42870831489563L228.60784,118.21707955273715L230.25842666666665,127.3008973164992L233.89416,115.90480784936386L235.46586666666667,121.01305378567088L239.11429333333334,114.02429972995412L242.78856,109.40187824856152L246.45104,115.77339315414429L248.08077333333333,106.06457192247565L251.63490666666667,93.15212566202338L253.14224,100.02523478594694" style="fill: none;" fill="none"></path></g></g></g></g></g></g><g transform="translate(58, 178)" clip-path="url(#clip_1)"><clipPath id="clip_1"><rect width="272" height="22"></rect></clipPath><g><g><line x1="0" y1="0" x2="0" y2="5" style="visibility: inherit;" fill="rgb(0, 0, 0)" stroke="rgb(204, 204, 204)" stroke-width="1px"></line><line x1="22.666666666666664" y1="0" x2="22.666666666666664" y2="5" style="visibility: inherit;" fill="rgb(0, 0, 0)" stroke="rgb(204, 204, 204)" stroke-width="1px"></line><line x1="45.33333333333333" y1="0" x2="45.33333333333333" y2="5" style="visibility: inherit;" fill="rgb(0, 0, 0)" stroke="rgb(204, 204, 204)" stroke-width="1px"></line><line x1="68" y1="0" x2="68" y2="5" style="visibility: inherit;" fill="rgb(0, 0, 0)" stroke="rgb(204, 204, 204)" stroke-width="1px"></line><line x1="90.66666666666666" y1="0" x2="90.66666666666666" y2="5" style="visibility: inherit;" fill="rgb(0, 0, 0)" stroke="rgb(204, 204, 204)" stroke-width="1px"></line><line x1="113.33333333333334" y1="0" x2="113.33333333333334" y2="5" style="visibility: inherit;" fill="rgb(0, 0, 0)" stroke="rgb(204, 204, 204)" stroke-width="1px"></line><line x1="136" y1="0" x2="136" y2="5" style="visibility: inherit;" fill="rgb(0, 0, 0)" stroke="rgb(204, 204, 204)" stroke-width="1px"></line><line x1="158.66666666666669" y1="0" x2="158.66666666666669" y2="5" style="visibility: inherit;" fill="rgb(0, 0, 0)" stroke="rgb(204, 204, 204)" stroke-width="1px"></line><line x1="181.33333333333331" y1="0" x2="181.33333333333331" y2="5" style="visibility: inherit;" fill="rgb(0, 0, 0)" stroke="rgb(204, 204, 204)" stroke-width="1px"></line><line x1="204" y1="0" x2="204" y2="5" style="visibility: inherit;" fill="rgb(0, 0, 0)" stroke="rgb(204, 204, 204)" stroke-width="1px"></line><line x1="226.66666666666669" y1="0" x2="226.66666666666669" y2="5" style="visibility: inherit;" fill="rgb(0, 0, 0)" stroke="rgb(204, 204, 204)" stroke-width="1px"></line><line x1="249.33333333333331" y1="0" x2="249.33333333333331" y2="5" style="visibility: inherit;" fill="rgb(0, 0, 0)" stroke="rgb(204, 204, 204)" stroke-width="1px"></line><line x1="272" y1="0" x2="272" y2="5" style="visibility: inherit;" fill="rgb(0, 0, 0)" stroke="rgb(204, 204, 204)" stroke-width="1px"></line></g><g transform="translate(0, 8)"><text x="0" y="0" dx="0em" dy="0.95em" style="text-anchor: middle; visibility: hidden; font-family: &quot;Helvetica Neue&quot;, sans-serif; font-size: 12px; font-weight: 200;" fill="rgb(50, 49, 63)" stroke="none" stroke-width="1px">-50k</text><text x="22.666666666666664" y="0" dx="0em" dy="0.95em" style="text-anchor: middle; visibility: inherit; font-family: &quot;Helvetica Neue&quot;, sans-serif; font-size: 12px; font-weight: 200;" fill="rgb(50, 49, 63)" stroke="none" stroke-width="1px">0</text><text x="45.33333333333333" y="0" dx="0em" dy="0.95em" style="text-anchor: middle; visibility: hidden; font-family: &quot;Helvetica Neue&quot;, sans-serif; font-size: 12px; font-weight: 200;" fill="rgb(50, 49, 63)" stroke="none" stroke-width="1px">50k</text><text x="68" y="0" dx="0em" dy="0.95em" style="text-anchor: middle; visibility: inherit; font-family: &quot;Helvetica Neue&quot;, sans-serif; font-size: 12px; font-weight: 200;" fill="rgb(50, 49, 63)" stroke="none" stroke-width="1px">100k</text><text x="90.66666666666666" y="0" dx="0em" dy="0.95em" style="text-anchor: middle; visibility: hidden; font-family: &quot;Helvetica Neue&quot;, sans-serif; font-size: 12px; font-weight: 200;" fill="rgb(50, 49, 63)" stroke="none" stroke-width="1px">150k</text><text x="113.33333333333334" y="0" dx="0em" dy="0.95em" style="text-anchor: middle; visibility: inherit; font-family: &quot;Helvetica Neue&quot;, sans-serif; font-size: 12px; font-weight: 200;" fill="rgb(50, 49, 63)" stroke="none" stroke-width="1px">200k</text><text x="136" y="0" dx="0em" dy="0.95em" style="text-anchor: middle; visibility: hidden; font-family: &quot;Helvetica Neue&quot;, sans-serif; font-size: 12px; font-weight: 200;" fill="rgb(50, 49, 63)" stroke="none" stroke-width="1px">250k</text><text x="158.66666666666669" y="0" dx="0em" dy="0.95em" style="text-anchor: middle; visibility: inherit; font-family: &quot;Helvetica Neue&quot;, sans-serif; font-size: 12px; font-weight: 200;" fill="rgb(50, 49, 63)" stroke="none" stroke-width="1px">300k</text><text x="181.33333333333331" y="0" dx="0em" dy="0.95em" style="text-anchor: middle; visibility: hidden; font-family: &quot;Helvetica Neue&quot;, sans-serif; font-size: 12px; font-weight: 200;" fill="rgb(50, 49, 63)" stroke="none" stroke-width="1px">350k</text><text x="204" y="0" dx="0em" dy="0.95em" style="text-anchor: middle; visibility: inherit; font-family: &quot;Helvetica Neue&quot;, sans-serif; font-size: 12px; font-weight: 200;" fill="rgb(50, 49, 63)" stroke="none" stroke-width="1px">400k</text><text x="226.66666666666669" y="0" dx="0em" dy="0.95em" style="text-anchor: middle; visibility: hidden; font-family: &quot;Helvetica Neue&quot;, sans-serif; font-size: 12px; font-weight: 200;" fill="rgb(50, 49, 63)" stroke="none" stroke-width="1px">450k</text><text x="249.33333333333331" y="0" dx="0em" dy="0.95em" style="text-anchor: middle; visibility: inherit; font-family: &quot;Helvetica Neue&quot;, sans-serif; font-size: 12px; font-weight: 200;" fill="rgb(50, 49, 63)" stroke="none" stroke-width="1px">500k</text><text x="272" y="0" dx="0em" dy="0.95em" style="text-anchor: middle; visibility: hidden; font-family: &quot;Helvetica Neue&quot;, sans-serif; font-size: 12px; font-weight: 200;" fill="rgb(50, 49, 63)" stroke="none" stroke-width="1px">550k</text></g><line x1="0" y1="0" x2="272" y2="0" fill="rgb(0, 0, 0)" stroke="rgb(204, 204, 204)" stroke-width="1px"></line></g></g></g></g></svg>