<svg viewBox="0 0 330 200" xmlns="http://www.w3.org/2000/svg"><g><g><g><g><g><line x1="58" y1="178" x2="53" y2="178" style="visibility: inherit;" fill="rgb(0, 0, 0)" stroke="rgb(204, 204, 204)" stroke-width="1px"></line><line x1="58" y1="155.75" x2="53" y2="155.75" style="visibility: inherit;" fill="rgb(0, 0, 0)" stroke="rgb(204, 204, 204)" stroke-width="1px"></line><line x1="58" y1="133.5" x2="53" y2="133.5" style="visibility: inherit;" fill="rgb(0, 0, 0)" stroke="rgb(204, 204, 204)" stroke-width="1px"></line><line x1="58" y1="111.24999999999999" x2="53" y2="111.24999999999999" style="visibility: inherit;" fill="rgb(0, 0, 0)" stroke="rgb(204, 204, 204)" stroke-width="1px"></line><line x1="58" y1="89.00000000000001" x2="53" y2="89.00000000000001" style="visibility: inherit;" fill="rgb(0, 0, 0)" stroke="rgb(204, 204, 204)" stroke-width="1px"></line><line x1="58" y1="66.75" x2="53" y2="66.75" style="visibility: inherit;" fill="rgb(0, 0, 0)" stroke="rgb(204, 204, 204)" stroke-width="1px"></line><line x1="58" y1="44.50000000000003" x2="53" y2="44.50000000000003" style="visibility: inherit;" fill="rgb(0, 0, 0)" stroke="rgb(204, 204, 204)" stroke-width="1px"></line><line x1="58" y1="22.25000000000003" x2="53" y2="22.25000000000003" style="visibility: inherit;" fill="rgb(0, 0, 0)" stroke="rgb(204, 204, 204)" stroke-width="1px"></line><line x1="58" y1="0" x2="53" y2="0" style="visibility: inherit;" fill="rgb(0, 0, 0)" stroke="rgb(204, 204, 204)" stroke-width="1px"></line></g><g transform="translate(48, 0)"><text x="0" y="178" dx="0em" dy="0.3em" style="text-anchor: end; visibility: hidden; font-family: &quot;Helvetica Neue&quot;, sans-serif; font-size: 12px; font-weight: 200;" fill="rgb(50, 49, 63)" stroke="none" stroke-width="1px">0.4</text><text x="0" y="155.75" dx="0em" dy="0.3em" style="text-anchor: end; visibility: inherit; font-family: &quot;Helvetica Neue&quot;, sans-serif; font-size: 12px; font-weight: 200;" fill="rgb(50, 49, 63)" stroke="none" stroke-width="1px">0.45</text><text x="0" y="133.5" dx="0em" dy="0.3em" style="text-anchor: end; visibility: hidden; font-family: &quot;Helvetica Neue&quot;, sans-serif; font-size: 12px; font-weight: 200;" fill="rgb(50, 49, 63)" stroke="none" stroke-width="1px">0.5</text><text x="0" y="111.24999999999999" dx="0em" dy="0.3em" style="text-anchor: end; visibility: inherit; font-family: &quot;Helvetica Neue&quot;, sans-serif; font-size: 12px; font-weight: 200;" fill="rgb(50, 49, 63)" stroke="none" stroke-width="1px">0.55</text><text x="0" y="89.00000000000001" dx="0em" dy="0.3em" style="text-anchor: end; visibility: hidden; font-family: &quot;Helvetica Neue&quot;, sans-serif; font-size: 12px; font-weight: 200;" fill="rgb(50, 49, 63)" stroke="none" stroke-width="1px">0.6</text><text x="0" y="66.75" dx="0em" dy="0.3em" style="text-anchor: end; visibility: inherit; font-family: &quot;Helvetica Neue&quot;, sans-serif; font-size: 12px; font-weight: 200;" fill="rgb(50, 49, 63)" stroke="none" stroke-width="1px">0.65</text><text x="0" y="44.50000000000003" dx="0em" dy="0.3em" style="text-anchor: end; visibility: hidden; font-family: &quot;Helvetica Neue&quot;, sans-serif; font-size: 12px; font-weight: 200;" fill="rgb(50, 49, 63)" stroke="none" stroke-width="1px">0.7</text><text x="0" y="22.25000000000003" dx="0em" dy="0.3em" style="text-anchor: end; visibility: inherit; font-family: &quot;Helvetica Neue&quot;, sans-serif; font-size: 12px; font-weight: 200;" fill="rgb(50, 49, 63)" stroke="none" stroke-width="1px">0.75</text><text x="0" y="0" dx="0em" dy="0.3em" style="text-anchor: end; visibility: hidden; font-family: &quot;Helvetica Neue&quot;, sans-serif; font-size: 12px; font-weight: 200;" fill="rgb(50, 49, 63)" stroke="none" stroke-width="1px">0.8</text></g><line x1="58" y1="0" x2="58" y2="178" fill="rgb(0, 0, 0)" stroke="rgb(204, 204, 204)" stroke-width="1px"></line></g></g><g transform="translate(58, 0)" clip-path="url(#clip_0)"><clipPath id="clip_0"><rect width="272" height="178"></rect></clipPath><g><g><g><line x1="0" y1="0" x2="0" y2="178" fill="rgb(0, 0, 0)" stroke="rgb(60, 60, 60)" stroke-width="1px" opacity="0.25"></line><line x1="22.666666666666664" y1="0" x2="22.666666666666664" y2="178" fill="rgb(0, 0, 0)" stroke="rgb(60, 60, 60)" stroke-width="1px" opacity="0.25"></line><line x1="45.33333333333333" y1="0" x2="45.33333333333333" y2="178" fill="rgb(0, 0, 0)" stroke="rgb(60, 60, 60)" stroke-width="1px" opacity="0.25"></line><line x1="68" y1="0" x2="68" y2="178" fill="rgb(0, 0, 0)" stroke="rgb(60, 60, 60)" stroke-width="1px" opacity="0.25"></line><line x1="90.66666666666666" y1="0" x2="90.66666666666666" y2="178" fill="rgb(0, 0, 0)" stroke="rgb(60, 60, 60)" stroke-width="1px" opacity="0.25"></line><line x1="113.33333333333334" y1="0" x2="113.33333333333334" y2="178" fill="rgb(0, 0, 0)" stroke="rgb(60, 60, 60)" stroke-width="1px" opacity="0.25"></line><line x1="136" y1="0" x2="136" y2="178" fill="rgb(0, 0, 0)" stroke="rgb(60, 60, 60)" stroke-width="1px" opacity="0.25"></line><line x1="158.66666666666669" y1="0" x2="158.66666666666669" y2="178" fill="rgb(0, 0, 0)" stroke="rgb(60, 60, 60)" stroke-width="1px" opacity="0.25"></line><line x1="181.33333333333331" y1="0" x2="181.33333333333331" y2="178" fill="rgb(0, 0, 0)" stroke="rgb(60, 60, 60)" stroke-width="1px" opacity="0.25"></line><line x1="204" y1="0" x2="204" y2="178" fill="rgb(0, 0, 0)" stroke="rgb(60, 60, 60)" stroke-width="1px" opacity="0.25"></line><line x1="226.66666666666669" y1="0" x2="226.66666666666669" y2="178" fill="rgb(0, 0, 0)" stroke="rgb(60, 60, 60)" stroke-width="1px" opacity="0.25"></line><line x1="249.33333333333331" y1="0" x2="249.33333333333331" y2="178" fill="rgb(0, 0, 0)" stroke="rgb(60, 60, 60)" stroke-width="1px" opacity="0.25"></line><line x1="272" y1="0" x2="272" y2="178" fill="rgb(0, 0, 0)" stroke="rgb(60, 60, 60)" stroke-width="1px" opacity="0.25"></line></g><g><line x1="0" y1="178" x2="272" y2="178" fill="rgb(0, 0, 0)" stroke="rgb(60, 60, 60)" stroke-width="1px" opacity="0.25"></line><line x1="0" y1="155.75" x2="272" y2="155.75" fill="rgb(0, 0, 0)" stroke="rgb(60, 60, 60)" stroke-width="1px" opacity="0.25"></line><line x1="0" y1="133.5" x2="272" y2="133.5" fill="rgb(0, 0, 0)" stroke="rgb(60, 60, 60)" stroke-width="1px" opacity="0.25"></line><line x1="0" y1="111.24999999999999" x2="272" y2="111.24999999999999" fill="rgb(0, 0, 0)" stroke="rgb(60, 60, 60)" stroke-width="1px" opacity="0.25"></line><line x1="0" y1="89.00000000000001" x2="272" y2="89.00000000000001" fill="rgb(0, 0, 0)" stroke="rgb(60, 60, 60)" stroke-width="1px" opacity="0.25"></line><line x1="0" y1="66.75" x2="272" y2="66.75" fill="rgb(0, 0, 0)" stroke="rgb(60, 60, 60)" stroke-width="1px" opacity="0.25"></line><line x1="0" y1="44.50000000000003" x2="272" y2="44.50000000000003" fill="rgb(0, 0, 0)" stroke="rgb(60, 60, 60)" stroke-width="1px" opacity="0.25"></line><line x1="0" y1="22.25000000000003" x2="272" y2="22.25000000000003" fill="rgb(0, 0, 0)" stroke="rgb(60, 60, 60)" stroke-width="1px" opacity="0.25"></line><line x1="0" y1="0" x2="272" y2="0" fill="rgb(0, 0, 0)" stroke="rgb(60, 60, 60)" stroke-width="1px" opacity="0.25"></line></g></g></g><g><g><line x1="0" y1="356" x2="272" y2="356" fill="rgb(0, 0, 0)" stroke="rgb(153, 153, 153)" stroke-width="1.5px"></line></g></g><g><g><line x1="22.666666666666664" y1="0" x2="22.666666666666664" y2="178" fill="rgb(0, 0, 0)" stroke="rgb(153, 153, 153)" stroke-width="1.5px"></line></g></g><g><g><g><g><g><path stroke="rgb(255, 112, 67)" stroke-width="2px" d="M24.495866666666668,185.36293244361877L26.304213333333333,156.7379356212914L30.462186666666668,133.26839157695676L32.310880000000004,116.3246690393152L36.47248,103.50444963925997L40.62773333333334,92.24628342594052L44.700480000000006,82.18838517782235L46.52469333333334,78.00934417293679L48.35752,73.04790412557497L52.46336,71.92234798752352L54.23272,69.14398907384825L58.272373333333334,66.90283635856723L60.04853333333333,66.4837309620013L61.82378666666666,65.79748421861004L65.93189333333333,63.899216718160005L70.09621333333332,63.48193395448072L74.23832,63.42018341247278L76.07976,63.282476024848535L77.90714666666666,61.629433989873164L82.03746666666666,63.08677231890961L83.85351999999999,61.45286432607388L87.98837333333333,62.020793854185214L89.81712,61.42572787682819L91.61549333333333,59.99275333947554L95.70909333333334,59.700939727288755L99.79453333333333,58.62358667206772L103.84098666666667,59.24209945177326L105.61986666666667,57.95350995072485L107.38333333333333,57.630035343245325L109.14589333333333,58.5424182658666L113.24493333333334,59.22213934409183L113.33333333333334,59.15860739767113" style="fill: none;" fill="none"></path></g><g><path stroke="rgb(0, 119, 187)" stroke-width="2px" d="M24.532586666666667,159.07231709361076L26.379013333333333,139.39909339323643L30.61768,119.49078763200313L32.50944,104.00221778507182L36.758986666666665,91.17513313107739L38.647573333333334,85.0702172118478L42.90482666666667,79.74459877050569L44.798853333333334,73.8994652556819L49.059733333333334,68.87986111227528L50.95512,67.71309123698126L52.84688,63.895161519051584L57.09144,61.70173128018442L58.98229333333333,59.82115105933771L63.23229333333333,59.340425119070574L65.11816,57.47858186349691L67.00629333333333,56.08625676943767L68,56.517087731047084" style="fill: none;" fill="none"></path></g><g><path stroke="rgb(204, 51, 17)" stroke-width="2px" d="M23.750133333333334,216.35454079508784L26.996906666666668,166.12589868158102L28.47296,144.0186048332526L29.99525333333333,130.2768913419808L31.551546666666667,122.13221484141417L35.0472,108.51729420341239L38.564159999999994,97.20818551783725L40.11682666666667,88.55461621762923L43.68954666666667,89.35711297603565L47.30533333333333,84.92400091005094L50.93290666666667,74.45256035123262L52.51912,72.46730997717323L56.095013333333334,69.51262319940214L57.659013333333334,69.99560241523655L61.16690666666667,63.80347996677635L62.697359999999996,60.17681790869L66.23653333333333,58.9640695904755L67.7688,58.28416222127865L71.30344000000001,58.29596196666739L74.71205333333333,54.574968662398845L76.21394666666666,52.06623205825994L79.85466666666666,55.51674111400419L81.46989333333335,55.38510998076222L83.10007999999999,54.091239067312785L86.80517333333334,53.7218113960603L88.45349333333334,52.80614676573852L90.09773333333334,51.74696650876851L91.74650666666668,51.2757280005427L95.44434666666666,51.7210709861742L99.07282666666667,50.46970984760058L100.65541333333333,50.126515256081035L104.22586666666666,47.584687428068264L105.78533333333334,51.50644618903455L109.28733333333334,49.884944050553486L112.89632,47.58343104282892L114.42949333333333,46.47554079200452L117.95688000000001,47.91281774638844L120.68730666666667,47.24322806943425L121.98474666666667,48.38252255663173L125.40197333333333,46.722156840399066L126.97730666666666,48.917238879674045L130.58085333333332,47.76874876472115L132.16661333333332,47.184583904888996L135.84813333333332,46.303974987441734L139.5632,48.82655634988217L141.2065333333333,48.30299316944709L144.92749333333333,47.51539005695042L146.55949333333334,44.82778214125716L150.20792,45.13850931352127L153.74392,43.96137516512957L155.25125333333335,45.939446954823126L157.88421333333332,45.67346078687626L159.27730666666668,43.20364407618638L162.80514666666667,44.91350111913741L164.41448,45.62190104456036L168.07741333333334,44.918861823864205L169.69082666666665,44.85431747292722L173.39546666666666,43.633837584586274L175.03109333333336,44.203796460587625L178.7561333333333,42.82827479503078L180.39946666666668,43.10541872299629L184.09549333333334,41.994189310770764L187.83685333333332,41.930322485388245L189.49514666666667,42.49390773607553L191.14754666666667,47.04450509925641L194.87122666666664,44.69503787744017L196.4996,43.39854104273306L200.24776,43.664258879141755L201.88610666666668,42.41739416224763L205.52229333333335,43.42328004898431L209.15984,42.75687108553535L212.87626666666665,42.636133158904784L216.53693333333334,43.56119690221689L218.10184,44.22430480648367L219.67581333333334,46.90685718732652L223.31426666666667,45.88893576549037L224.91226666666665,44.05015044263928L228.60784,44.05474708588082L230.25842666666665,44.01684898204303L233.89416,44.21425987521826L235.46586666666667,42.439439733266966L239.11429333333334,42.75777773823745L242.78856,43.55111027220735L246.45104,41.44021754538923L248.08077333333333,41.66535299465605L251.63490666666667,42.08951476481886L253.14224,43.06479804079132" style="fill: none;" fill="none"></path></g></g></g></g><g opacity="0.2"><g><g><g><path stroke="rgb(255, 112, 67)" stroke-width="2px" d="M24.495866666666668,185.36293244361877L26.304213333333333,139.56293752789497L30.462186666666668,110.73762929439546L32.310880000000004,96.39885133504869L36.47248,86.76637119054796L40.62773333333334,76.6721866130829L44.700480000000006,67.8054297566414L46.52469333333334,71.9162622690201L48.35752,65.73074376583101L52.46336,70.25102829933168L54.23272,65.00165021419527L58.272373333333334,63.553303539752974L60.04853333333333,65.85644131898881L61.82378666666666,64.76945853233339L65.93189333333333,61.05404680967332L70.09621333333332,62.85630410909654L74.23832,63.32758373022081L76.07976,63.07594990730287L77.90714666666666,59.150122761726394L82.03746666666666,65.27264660596849L83.85351999999999,59.002091944217696L87.98837333333333,62.872669458389296L89.81712,60.53314065933229L91.61549333333333,57.84330850839616L95.70909333333334,59.2632213830948L99.79453333333333,57.0075616836548L103.84098666666667,60.16986703872682L105.61986666666667,56.02062767744066L107.38333333333333,57.14482372999193L109.14589333333333,59.910992145538344L113.24493333333334,60.24172073602678L113.33333333333334,59.06330949068071" style="fill: none;" fill="none"></path></g><g><path stroke="rgb(0, 119, 187)" stroke-width="2px" d="M24.532586666666667,159.07231709361076L26.379013333333333,127.59515917301178L30.61768,100.37881410121919L32.50944,85.78765964508058L36.758986666666665,74.42809140682222L38.647573333333334,76.62492072582246L42.90482666666667,72.12887918949129L44.798853333333334,65.37720447778703L49.059733333333334,61.47692000865938L50.95512,65.98057395219804L52.84688,58.20289528369905L57.09144,58.423522472381606L58.98229333333333,57.00642114877702L63.23229333333333,58.62027800083162L65.11816,54.688005506992354L67.00629333333333,53.998751103878035L68,57.163151860237136" style="fill: none;" fill="none"></path></g><g><path stroke="rgb(204, 51, 17)" stroke-width="2px" d="M23.750133333333334,216.35454079508781L26.996906666666668,135.98871341347694L28.47296,122.79560273885727L29.99525333333333,114.11663627624512L31.551546666666667,111.49852520227434L35.0472,89.68295758962633L38.564159999999994,81.03597915172578L40.11682666666667,75.9376291036606L43.68954666666667,90.5406398177147L47.30533333333333,78.34134614467622L50.93290666666667,58.84037470817567L52.51912,69.50023806095125L56.095013333333334,65.09024059772493L57.659013333333334,70.71912503242494L61.16690666666667,54.522574901580825L62.697359999999996,54.739382624626174L66.23653333333333,57.14546030759813L67.7688,57.26447379589082L71.30344000000001,58.313659787178054L74.71205333333333,48.993818819522886L76.21394666666666,48.30326473712924L79.85466666666666,60.69239115715028L81.46989333333335,55.187665879726424L83.10007999999999,52.15044802427293L86.80517333333334,53.16767251491548L88.45349333333334,51.43265372514726L90.09773333333334,50.15819883346559L91.74650666666668,50.56887096166612L95.44434666666666,52.3890850543976L99.07282666666667,48.59266883134845L100.65541333333333,49.611723482608824L104.22586666666666,43.77194619178775L105.78533333333334,57.3890838623047L109.28733333333334,47.452690958976774L112.89632,44.131161630153684L114.42949333333333,44.813705444335966L117.95688000000001,50.0687331557274L120.68730666666667,46.23884356021884L121.98474666666667,50.09146428108217L125.40197333333333,44.231608271598844L126.97730666666666,52.20986193418504L130.58085333333332,46.046013593673734L132.16661333333332,46.30833661556247L135.84813333333332,44.9830616116524L139.5632,52.61042839288713L141.2065333333333,47.51764839887622L144.92749333333333,46.33398538827899L146.55949333333334,40.79637026786807L150.20792,45.60460007190707L153.74392,42.195673942565946L155.25125333333335,48.906554639339475L157.88421333333332,45.274481534957914L159.27730666666668,39.49891901016238L162.80514666666667,47.478286683559446L164.41448,46.68450093269351L168.07741333333334,43.86430299282077L169.69082666666665,44.75750094652179L173.39546666666666,41.803117752075224L175.03109333333336,45.05873477458957L178.7561333333333,40.76499229669574L180.39946666666668,43.521134614944486L184.09549333333334,40.32734519243243L187.83685333333332,41.83452224731448L189.49514666666667,43.33928561210635L191.14754666666667,53.870401144027724L194.87122666666664,41.17083704471591L196.4996,41.45379579067233L200.24776,44.06283563375476L201.88610666666668,40.54709708690646L205.52229333333335,44.932108879089384L209.15984,41.757257640361814L212.87626666666665,42.455026268959074L216.53693333333334,44.94879251718524L218.10184,45.21896666288379L219.67581333333334,50.93068575859071L223.31426666666667,44.362053632736234L224.91226666666665,41.29197245836261L228.60784,44.06164205074313L230.25842666666665,43.960001826286344L233.89416,44.51037621498111L235.46586666666667,39.777209520339994L239.11429333333334,43.235284745693235L242.78856,44.74110907316211L246.45104,38.27387845516208L248.08077333333333,42.00305616855624L251.63490666666667,42.72575742006305L253.14224,44.52772295475009" style="fill: none;" fill="none"></path></g></g></g></g></g></g><g transform="translate(58, 178)" clip-path="url(#clip_1)"><clipPath id="clip_1"><rect width="272" height="22"></rect></clipPath><g><g><line x1="0" y1="0" x2="0" y2="5" style="visibility: inherit;" fill="rgb(0, 0, 0)" stroke="rgb(204, 204, 204)" stroke-width="1px"></line><line x1="22.666666666666664" y1="0" x2="22.666666666666664" y2="5" style="visibility: inherit;" fill="rgb(0, 0, 0)" stroke="rgb(204, 204, 204)" stroke-width="1px"></line><line x1="45.33333333333333" y1="0" x2="45.33333333333333" y2="5" style="visibility: inherit;" fill="rgb(0, 0, 0)" stroke="rgb(204, 204, 204)" stroke-width="1px"></line><line x1="68" y1="0" x2="68" y2="5" style="visibility: inherit;" fill="rgb(0, 0, 0)" stroke="rgb(204, 204, 204)" stroke-width="1px"></line><line x1="90.66666666666666" y1="0" x2="90.66666666666666" y2="5" style="visibility: inherit;" fill="rgb(0, 0, 0)" stroke="rgb(204, 204, 204)" stroke-width="1px"></line><line x1="113.33333333333334" y1="0" x2="113.33333333333334" y2="5" style="visibility: inherit;" fill="rgb(0, 0, 0)" stroke="rgb(204, 204, 204)" stroke-width="1px"></line><line x1="136" y1="0" x2="136" y2="5" style="visibility: inherit;" fill="rgb(0, 0, 0)" stroke="rgb(204, 204, 204)" stroke-width="1px"></line><line x1="158.66666666666669" y1="0" x2="158.66666666666669" y2="5" style="visibility: inherit;" fill="rgb(0, 0, 0)" stroke="rgb(204, 204, 204)" stroke-width="1px"></line><line x1="181.33333333333331" y1="0" x2="181.33333333333331" y2="5" style="visibility: inherit;" fill="rgb(0, 0, 0)" stroke="rgb(204, 204, 204)" stroke-width="1px"></line><line x1="204" y1="0" x2="204" y2="5" style="visibility: inherit;" fill="rgb(0, 0, 0)" stroke="rgb(204, 204, 204)" stroke-width="1px"></line><line x1="226.66666666666669" y1="0" x2="226.66666666666669" y2="5" style="visibility: inherit;" fill="rgb(0, 0, 0)" stroke="rgb(204, 204, 204)" stroke-width="1px"></line><line x1="249.33333333333331" y1="0" x2="249.33333333333331" y2="5" style="visibility: inherit;" fill="rgb(0, 0, 0)" stroke="rgb(204, 204, 204)" stroke-width="1px"></line><line x1="272" y1="0" x2="272" y2="5" style="visibility: inherit;" fill="rgb(0, 0, 0)" stroke="rgb(204, 204, 204)" stroke-width="1px"></line></g><g transform="translate(0, 8)"><text x="0" y="0" dx="0em" dy="0.95em" style="text-anchor: middle; visibility: hidden; font-family: &quot;Helvetica Neue&quot;, sans-serif; font-size: 12px; font-weight: 200;" fill="rgb(50, 49, 63)" stroke="none" stroke-width="1px">-50k</text><text x="22.666666666666664" y="0" dx="0em" dy="0.95em" style="text-anchor: middle; visibility: inherit; font-family: &quot;Helvetica Neue&quot;, sans-serif; font-size: 12px; font-weight: 200;" fill="rgb(50, 49, 63)" stroke="none" stroke-width="1px">0</text><text x="45.33333333333333" y="0" dx="0em" dy="0.95em" style="text-anchor: middle; visibility: hidden; font-family: &quot;Helvetica Neue&quot;, sans-serif; font-size: 12px; font-weight: 200;" fill="rgb(50, 49, 63)" stroke="none" stroke-width="1px">50k</text><text x="68" y="0" dx="0em" dy="0.95em" style="text-anchor: middle; visibility: inherit; font-family: &quot;Helvetica Neue&quot;, sans-serif; font-size: 12px; font-weight: 200;" fill="rgb(50, 49, 63)" stroke="none" stroke-width="1px">100k</text><text x="90.66666666666666" y="0" dx="0em" dy="0.95em" style="text-anchor: middle; visibility: hidden; font-family: &quot;Helvetica Neue&quot;, sans-serif; font-size: 12px; font-weight: 200;" fill="rgb(50, 49, 63)" stroke="none" stroke-width="1px">150k</text><text x="113.33333333333334" y="0" dx="0em" dy="0.95em" style="text-anchor: middle; visibility: inherit; font-family: &quot;Helvetica Neue&quot;, sans-serif; font-size: 12px; font-weight: 200;" fill="rgb(50, 49, 63)" stroke="none" stroke-width="1px">200k</text><text x="136" y="0" dx="0em" dy="0.95em" style="text-anchor: middle; visibility: hidden; font-family: &quot;Helvetica Neue&quot;, sans-serif; font-size: 12px; font-weight: 200;" fill="rgb(50, 49, 63)" stroke="none" stroke-width="1px">250k</text><text x="158.66666666666669" y="0" dx="0em" dy="0.95em" style="text-anchor: middle; visibility: inherit; font-family: &quot;Helvetica Neue&quot;, sans-serif; font-size: 12px; font-weight: 200;" fill="rgb(50, 49, 63)" stroke="none" stroke-width="1px">300k</text><text x="181.33333333333331" y="0" dx="0em" dy="0.95em" style="text-anchor: middle; visibility: hidden; font-family: &quot;Helvetica Neue&quot;, sans-serif; font-size: 12px; font-weight: 200;" fill="rgb(50, 49, 63)" stroke="none" stroke-width="1px">350k</text><text x="204" y="0" dx="0em" dy="0.95em" style="text-anchor: middle; visibility: inherit; font-family: &quot;Helvetica Neue&quot;, sans-serif; font-size: 12px; font-weight: 200;" fill="rgb(50, 49, 63)" stroke="none" stroke-width="1px">400k</text><text x="226.66666666666669" y="0" dx="0em" dy="0.95em" style="text-anchor: middle; visibility: hidden; font-family: &quot;Helvetica Neue&quot;, sans-serif; font-size: 12px; font-weight: 200;" fill="rgb(50, 49, 63)" stroke="none" stroke-width="1px">450k</text><text x="249.33333333333331" y="0" dx="0em" dy="0.95em" style="text-anchor: middle; visibility: inherit; font-family: &quot;Helvetica Neue&quot;, sans-serif; font-size: 12px; font-weight: 200;" fill="rgb(50, 49, 63)" stroke="none" stroke-width="1px">500k</text><text x="272" y="0" dx="0em" dy="0.95em" style="text-anchor: middle; visibility: hidden; font-family: &quot;Helvetica Neue&quot;, sans-serif; font-size: 12px; font-weight: 200;" fill="rgb(50, 49, 63)" stroke="none" stroke-width="1px">550k</text></g><line x1="0" y1="0" x2="272" y2="0" fill="rgb(0, 0, 0)" stroke="rgb(204, 204, 204)" stroke-width="1px"></line></g></g></g></g></svg>