<svg viewBox="0 0 330 200" xmlns="http://www.w3.org/2000/svg"><g><g><g><g><g><line x1="70" y1="178" x2="65" y2="178" style="visibility: inherit;" fill="rgb(0, 0, 0)" stroke="rgb(204, 204, 204)" stroke-width="1px"></line><line x1="70" y1="165.28571428571428" x2="65" y2="165.28571428571428" style="visibility: inherit;" fill="rgb(0, 0, 0)" stroke="rgb(204, 204, 204)" stroke-width="1px"></line><line x1="70" y1="152.57142857142858" x2="65" y2="152.57142857142858" style="visibility: inherit;" fill="rgb(0, 0, 0)" stroke="rgb(204, 204, 204)" stroke-width="1px"></line><line x1="70" y1="139.85714285714286" x2="65" y2="139.85714285714286" style="visibility: inherit;" fill="rgb(0, 0, 0)" stroke="rgb(204, 204, 204)" stroke-width="1px"></line><line x1="70" y1="127.14285714285714" x2="65" y2="127.14285714285714" style="visibility: inherit;" fill="rgb(0, 0, 0)" stroke="rgb(204, 204, 204)" stroke-width="1px"></line><line x1="70" y1="114.42857142857144" x2="65" y2="114.42857142857144" style="visibility: inherit;" fill="rgb(0, 0, 0)" stroke="rgb(204, 204, 204)" stroke-width="1px"></line><line x1="70" y1="101.71428571428572" x2="65" y2="101.71428571428572" style="visibility: inherit;" fill="rgb(0, 0, 0)" stroke="rgb(204, 204, 204)" stroke-width="1px"></line><line x1="70" y1="89" x2="65" y2="89" style="visibility: inherit;" fill="rgb(0, 0, 0)" stroke="rgb(204, 204, 204)" stroke-width="1px"></line><line x1="70" y1="76.28571428571428" x2="65" y2="76.28571428571428" style="visibility: inherit;" fill="rgb(0, 0, 0)" stroke="rgb(204, 204, 204)" stroke-width="1px"></line><line x1="70" y1="63.57142857142854" x2="65" y2="63.57142857142854" style="visibility: inherit;" fill="rgb(0, 0, 0)" stroke="rgb(204, 204, 204)" stroke-width="1px"></line><line x1="70" y1="50.85714285714289" x2="65" y2="50.85714285714289" style="visibility: inherit;" fill="rgb(0, 0, 0)" stroke="rgb(204, 204, 204)" stroke-width="1px"></line><line x1="70" y1="38.14285714285717" x2="65" y2="38.14285714285717" style="visibility: inherit;" fill="rgb(0, 0, 0)" stroke="rgb(204, 204, 204)" stroke-width="1px"></line><line x1="70" y1="25.428571428571445" x2="65" y2="25.428571428571445" style="visibility: inherit;" fill="rgb(0, 0, 0)" stroke="rgb(204, 204, 204)" stroke-width="1px"></line><line x1="70" y1="12.714285714285722" x2="65" y2="12.714285714285722" style="visibility: inherit;" fill="rgb(0, 0, 0)" stroke="rgb(204, 204, 204)" stroke-width="1px"></line><line x1="70" y1="0" x2="65" y2="0" style="visibility: inherit;" fill="rgb(0, 0, 0)" stroke="rgb(204, 204, 204)" stroke-width="1px"></line></g><g transform="translate(60, 0)"><text x="0" y="178" dx="0em" dy="0.3em" style="text-anchor: end; visibility: hidden; font-family: &quot;Helvetica Neue&quot;, sans-serif; font-size: 12px; font-weight: 200;" fill="rgb(50, 49, 63)" stroke="none" stroke-width="1px">0.095</text><text x="0" y="165.28571428571428" dx="0em" dy="0.3em" style="text-anchor: end; visibility: inherit; font-family: &quot;Helvetica Neue&quot;, sans-serif; font-size: 12px; font-weight: 200;" fill="rgb(50, 49, 63)" stroke="none" stroke-width="1px">0.1</text><text x="0" y="152.57142857142858" dx="0em" dy="0.3em" style="text-anchor: end; visibility: hidden; font-family: &quot;Helvetica Neue&quot;, sans-serif; font-size: 12px; font-weight: 200;" fill="rgb(50, 49, 63)" stroke="none" stroke-width="1px">0.105</text><text x="0" y="139.85714285714286" dx="0em" dy="0.3em" style="text-anchor: end; visibility: inherit; font-family: &quot;Helvetica Neue&quot;, sans-serif; font-size: 12px; font-weight: 200;" fill="rgb(50, 49, 63)" stroke="none" stroke-width="1px">0.11</text><text x="0" y="127.14285714285714" dx="0em" dy="0.3em" style="text-anchor: end; visibility: hidden; font-family: &quot;Helvetica Neue&quot;, sans-serif; font-size: 12px; font-weight: 200;" fill="rgb(50, 49, 63)" stroke="none" stroke-width="1px">0.115</text><text x="0" y="114.42857142857144" dx="0em" dy="0.3em" style="text-anchor: end; visibility: inherit; font-family: &quot;Helvetica Neue&quot;, sans-serif; font-size: 12px; font-weight: 200;" fill="rgb(50, 49, 63)" stroke="none" stroke-width="1px">0.12</text><text x="0" y="101.71428571428572" dx="0em" dy="0.3em" style="text-anchor: end; visibility: hidden; font-family: &quot;Helvetica Neue&quot;, sans-serif; font-size: 12px; font-weight: 200;" fill="rgb(50, 49, 63)" stroke="none" stroke-width="1px">0.125</text><text x="0" y="89" dx="0em" dy="0.3em" style="text-anchor: end; visibility: inherit; font-family: &quot;Helvetica Neue&quot;, sans-serif; font-size: 12px; font-weight: 200;" fill="rgb(50, 49, 63)" stroke="none" stroke-width="1px">0.13</text><text x="0" y="76.28571428571428" dx="0em" dy="0.3em" style="text-anchor: end; visibility: hidden; font-family: &quot;Helvetica Neue&quot;, sans-serif; font-size: 12px; font-weight: 200;" fill="rgb(50, 49, 63)" stroke="none" stroke-width="1px">0.135</text><text x="0" y="63.57142857142854" dx="0em" dy="0.3em" style="text-anchor: end; visibility: inherit; font-family: &quot;Helvetica Neue&quot;, sans-serif; font-size: 12px; font-weight: 200;" fill="rgb(50, 49, 63)" stroke="none" stroke-width="1px">0.14</text><text x="0" y="50.85714285714289" dx="0em" dy="0.3em" style="text-anchor: end; visibility: hidden; font-family: &quot;Helvetica Neue&quot;, sans-serif; font-size: 12px; font-weight: 200;" fill="rgb(50, 49, 63)" stroke="none" stroke-width="1px">0.145</text><text x="0" y="38.14285714285717" dx="0em" dy="0.3em" style="text-anchor: end; visibility: inherit; font-family: &quot;Helvetica Neue&quot;, sans-serif; font-size: 12px; font-weight: 200;" fill="rgb(50, 49, 63)" stroke="none" stroke-width="1px">0.15</text><text x="0" y="25.428571428571445" dx="0em" dy="0.3em" style="text-anchor: end; visibility: hidden; font-family: &quot;Helvetica Neue&quot;, sans-serif; font-size: 12px; font-weight: 200;" fill="rgb(50, 49, 63)" stroke="none" stroke-width="1px">0.155</text><text x="0" y="12.714285714285722" dx="0em" dy="0.3em" style="text-anchor: end; visibility: inherit; font-family: &quot;Helvetica Neue&quot;, sans-serif; font-size: 12px; font-weight: 200;" fill="rgb(50, 49, 63)" stroke="none" stroke-width="1px">0.16</text><text x="0" y="0" dx="0em" dy="0.3em" style="text-anchor: end; visibility: hidden; font-family: &quot;Helvetica Neue&quot;, sans-serif; font-size: 12px; font-weight: 200;" fill="rgb(50, 49, 63)" stroke="none" stroke-width="1px">0.165</text></g><line x1="70" y1="0" x2="70" y2="178" fill="rgb(0, 0, 0)" stroke="rgb(204, 204, 204)" stroke-width="1px"></line></g></g><g transform="translate(70, 0)" clip-path="url(#clip_0)"><clipPath id="clip_0"><rect width="260" height="178"></rect></clipPath><g><g><g><line x1="0" y1="0" x2="0" y2="178" fill="rgb(0, 0, 0)" stroke="rgb(60, 60, 60)" stroke-width="1px" opacity="0.25"></line><line x1="21.666666666666664" y1="0" x2="21.666666666666664" y2="178" fill="rgb(0, 0, 0)" stroke="rgb(60, 60, 60)" stroke-width="1px" opacity="0.25"></line><line x1="43.33333333333333" y1="0" x2="43.33333333333333" y2="178" fill="rgb(0, 0, 0)" stroke="rgb(60, 60, 60)" stroke-width="1px" opacity="0.25"></line><line x1="65" y1="0" x2="65" y2="178" fill="rgb(0, 0, 0)" stroke="rgb(60, 60, 60)" stroke-width="1px" opacity="0.25"></line><line x1="86.66666666666666" y1="0" x2="86.66666666666666" y2="178" fill="rgb(0, 0, 0)" stroke="rgb(60, 60, 60)" stroke-width="1px" opacity="0.25"></line><line x1="108.33333333333334" y1="0" x2="108.33333333333334" y2="178" fill="rgb(0, 0, 0)" stroke="rgb(60, 60, 60)" stroke-width="1px" opacity="0.25"></line><line x1="130" y1="0" x2="130" y2="178" fill="rgb(0, 0, 0)" stroke="rgb(60, 60, 60)" stroke-width="1px" opacity="0.25"></line><line x1="151.66666666666669" y1="0" x2="151.66666666666669" y2="178" fill="rgb(0, 0, 0)" stroke="rgb(60, 60, 60)" stroke-width="1px" opacity="0.25"></line><line x1="173.33333333333331" y1="0" x2="173.33333333333331" y2="178" fill="rgb(0, 0, 0)" stroke="rgb(60, 60, 60)" stroke-width="1px" opacity="0.25"></line><line x1="195" y1="0" x2="195" y2="178" fill="rgb(0, 0, 0)" stroke="rgb(60, 60, 60)" stroke-width="1px" opacity="0.25"></line><line x1="216.66666666666669" y1="0" x2="216.66666666666669" y2="178" fill="rgb(0, 0, 0)" stroke="rgb(60, 60, 60)" stroke-width="1px" opacity="0.25"></line><line x1="238.33333333333331" y1="0" x2="238.33333333333331" y2="178" fill="rgb(0, 0, 0)" stroke="rgb(60, 60, 60)" stroke-width="1px" opacity="0.25"></line><line x1="260" y1="0" x2="260" y2="178" fill="rgb(0, 0, 0)" stroke="rgb(60, 60, 60)" stroke-width="1px" opacity="0.25"></line></g><g><line x1="0" y1="178" x2="260" y2="178" fill="rgb(0, 0, 0)" stroke="rgb(60, 60, 60)" stroke-width="1px" opacity="0.25"></line><line x1="0" y1="165.28571428571428" x2="260" y2="165.28571428571428" fill="rgb(0, 0, 0)" stroke="rgb(60, 60, 60)" stroke-width="1px" opacity="0.25"></line><line x1="0" y1="152.57142857142858" x2="260" y2="152.57142857142858" fill="rgb(0, 0, 0)" stroke="rgb(60, 60, 60)" stroke-width="1px" opacity="0.25"></line><line x1="0" y1="139.85714285714286" x2="260" y2="139.85714285714286" fill="rgb(0, 0, 0)" stroke="rgb(60, 60, 60)" stroke-width="1px" opacity="0.25"></line><line x1="0" y1="127.14285714285714" x2="260" y2="127.14285714285714" fill="rgb(0, 0, 0)" stroke="rgb(60, 60, 60)" stroke-width="1px" opacity="0.25"></line><line x1="0" y1="114.42857142857144" x2="260" y2="114.42857142857144" fill="rgb(0, 0, 0)" stroke="rgb(60, 60, 60)" stroke-width="1px" opacity="0.25"></line><line x1="0" y1="101.71428571428572" x2="260" y2="101.71428571428572" fill="rgb(0, 0, 0)" stroke="rgb(60, 60, 60)" stroke-width="1px" opacity="0.25"></line><line x1="0" y1="89" x2="260" y2="89" fill="rgb(0, 0, 0)" stroke="rgb(60, 60, 60)" stroke-width="1px" opacity="0.25"></line><line x1="0" y1="76.28571428571428" x2="260" y2="76.28571428571428" fill="rgb(0, 0, 0)" stroke="rgb(60, 60, 60)" stroke-width="1px" opacity="0.25"></line><line x1="0" y1="63.57142857142854" x2="260" y2="63.57142857142854" fill="rgb(0, 0, 0)" stroke="rgb(60, 60, 60)" stroke-width="1px" opacity="0.25"></line><line x1="0" y1="50.85714285714289" x2="260" y2="50.85714285714289" fill="rgb(0, 0, 0)" stroke="rgb(60, 60, 60)" stroke-width="1px" opacity="0.25"></line><line x1="0" y1="38.14285714285717" x2="260" y2="38.14285714285717" fill="rgb(0, 0, 0)" stroke="rgb(60, 60, 60)" stroke-width="1px" opacity="0.25"></line><line x1="0" y1="25.428571428571445" x2="260" y2="25.428571428571445" fill="rgb(0, 0, 0)" stroke="rgb(60, 60, 60)" stroke-width="1px" opacity="0.25"></line><line x1="0" y1="12.714285714285722" x2="260" y2="12.714285714285722" fill="rgb(0, 0, 0)" stroke="rgb(60, 60, 60)" stroke-width="1px" opacity="0.25"></line><line x1="0" y1="0" x2="260" y2="0" fill="rgb(0, 0, 0)" stroke="rgb(60, 60, 60)" stroke-width="1px" opacity="0.25"></line></g></g></g><g><g><line x1="0" y1="419.57142857142856" x2="260" y2="419.57142857142856" fill="rgb(0, 0, 0)" stroke="rgb(153, 153, 153)" stroke-width="1.5px"></line></g></g><g><g><line x1="21.666666666666664" y1="0" x2="21.666666666666664" y2="178" fill="rgb(0, 0, 0)" stroke="rgb(153, 153, 153)" stroke-width="1.5px"></line></g></g><g><g><g><g><g><path stroke="rgb(0, 119, 187)" stroke-width="2px" d="M29.35703333333333,-30.50213686266025L30.883666666666667,17.809718516193612L34.333866666666665,53.045960437498735L37.86076666666666,75.87670104121814L39.37656666666666,95.2292947329422L42.8896,112.07593032380042L46.414766666666665,121.45494154462045L47.94226666666666,128.13876879134142L51.3552,134.2318106709551L52.8775,136.7319003081801L56.35933333333333,141.2924590072102L59.761433333333336,143.62078421512862L61.24863333333334,141.42420746414666L64.73306666666666,140.38158479476198L68.17243333333333,144.57567279893163L69.62453333333333,146.92331722379024L71.08833333333332,140.8319174757985L74.44103333333334,141.64177443940815L77.83793333333334,146.94751664880965L81.27383333333333,148.206753294056L82.71596666666667,144.64523133930447L86.13756666666666,141.75998259723673L87.594,143.9064595178073L90.97053333333334,141.32157888150803L92.46119999999999,147.55758928111004L95.93393333333333,139.68510627606696L97.47486666666666,138.72615145960708L100.95323333333334,139.21218124919528L104.31763333333333,145.9046104684799L105.78663333333334,140.5020146731896L109.14583333333333,137.40086830990026L110.56586666666666,141.03555060425464L111.9872,137.07692497719466L115.27446666666667,144.0060665506796L116.33223333333333,141.12044161382286L119.58396666666667,136.03252934266283L121.08026666666667,135.25478153050724L122.59953333333333,135.3534971207384L126.09393333333334,140.22759487772953L127.66173333333333,145.66684578562536L131.22416666666666,141.3687107132808L132.79543333333334,141.73055297115798L136.36479999999997,142.71102855033126L137.956,140.003289353666L141.53879999999998,129.8171089954244L143.12263333333334,127.27896558270092L146.70239999999998,127.07536388905852L148.28536666666668,126.79959821215823L151.85733333333332,135.42154702172107L153.43076666666667,131.89537557224375L155.0146,134.80188352195327L156.0585,136.3121718886045L157.36673333333334,128.55732766098006L160.72723333333332,127.32927685051563L162.2374,126.18899257139266L165.7001666666667,131.07693735709537L167.23113333333333,132.78752827274408L170.7103666666667,122.36597428440425L172.2383,126.37458954201058L175.69066666666666,126.93704082763321L177.19433333333333,121.13796410166607L180.64366666666666,127.85217926197713L182.1703,118.31683101403223L185.7115,116.51013480172202L187.28233333333336,110.28481319446179L190.83263333333335,122.56770128206844L192.3844,121.3447883532516L193.94266666666667,114.37463377580048L195.5018,117.72653551668353L199.05253333333332,117.3669251462332L202.60153333333335,124.37182081957866L204.1611,124.5091265104L205.7310666666667,110.15526359790131L209.28873333333334,113.75510369589921L210.85739999999998,111.25908672124741L212.42433333333332,116.2042557539039" style="fill: none;" fill="none"></path></g><g><path stroke="rgb(255, 112, 67)" stroke-width="2px" d="M28.67193333333333,-29.184153014747068L30.159566666666667,11.507856998439308L33.501,47.570119462313954L36.8628,68.51834232082449L38.34696666666667,90.21690263102295L41.76206666666667,107.44453596627694L45.218333333333334,119.05758611207264L48.68586666666666,119.66714975076079L50.2021,127.00381860097849L53.62023333333334,132.446340919031L55.115233333333336,134.75267210547787L58.46836666666667,135.79560790477836L59.9313,133.12114443328184L63.31433333333333,129.00489200001596L64.779,134.3947457683354L68.1577,130.09937141175845L71.41593333333334,125.33252854484996L72.85156666666667,117.8742894596271L76.33166666666666,111.94507909721435L77.87563333333334,114.83624553071544L79.4339,116.16496664264318L82.97553333333333,110.77968294373619L84.55113333333334,108.35950862022415L86.12283333333333,111.41054610685694L87.69886666666667,114.75536588447602L91.23356666666666,111.00465995101085L94.70196666666666,104.31082608382471L96.21473333333333,94.65579730997848L99.62766666666667,95.16544530625666L101.11833333333334,99.99323910269743L104.46583333333334,96.76591723302612L107.9156,87.80335934761032L109.38113333333334,98.80852849477458L112.75290000000001,106.59605075883617L115.36286666666666,100.02133659729213L116.60306666666666,96.33761103138214L119.86953333333332,90.40947449631997L121.37536666666666,85.4305539900088L124.81993333333332,91.46382466179253L126.33573333333332,94.42905183822793L129.85483333333335,84.0900694806513L133.406,84.03938451114163L134.97683333333333,88.16544638295034L138.5336333333333,77.30310027178362L140.09363333333332,68.72142299448365L143.58110000000002,77.99000516890717L146.96110000000002,82.24047149552194L148.40193333333335,90.66148216841991L150.9187333333333,80.46623611040945L152.25036666666665,78.0347818758754L155.62256666666667,65.51490357250098L157.1609,73.09100260318729L160.66223333333332,76.12125871681422L162.20446666666666,72.03945956461918L165.74566666666666,65.78497976987019L167.30913333333334,70.9880597289117L170.86983333333333,78.62660769964988L172.44066666666666,77.27618145808162L175.97363333333334,76.30087023381857L179.5499333333333,74.16569281120913L181.1350666666667,66.0043949633825L182.71456666666666,70.11637159798755L186.27396666666667,65.75015463854538L187.8305,69.05994782871831L191.4133,57.424290655500386L192.9793666666667,47.90099650017936L196.45513333333335,50.58188718876464L199.93220000000002,48.02741624989565L203.48466666666667,39.83849635681861L206.98383333333334,58.65318062026968L208.4797,59.024700388599896L209.98423333333332,60.06810015755268L213.46216666666666,55.33144354157922L214.98966666666666,55.44891401983408L218.52220000000003,62.33229235410673L220.09996666666666,54.4507365032604L223.5753,49.36597126749581L225.0776666666667,44.15338551503589L228.56513333333334,45.06482803524838L232.0773,45.26507704079927L235.5782,36.328333708512304L237.13603333333333,26.425670583765225L240.53336666666667,27.29333116991549L241.9742,36.47054935240968" style="fill: none;" fill="none"></path></g></g></g></g><g opacity="0.2"><g><g><g><path stroke="rgb(0, 119, 187)" stroke-width="2px" d="M25.949733333333334,-36.36098851476393L29.35703333333333,52.299683792250505L30.883666666666667,74.6244604417256L34.333866666666665,99.05039788995471L37.86076666666666,107.45983436277935L39.37656666666666,122.90381335360664L42.8896,136.63848674297333L46.414766666666665,135.28716131619046L47.94226666666666,138.0634732927595L51.3552,143.31611004897528L52.8775,140.46842938661575L56.35933333333333,148.1184060403279L59.761433333333336,147.10871059553963L61.24863333333334,138.1319243311882L64.73306666666666,138.81838612897056L68.17243333333333,150.86503000770296L69.62453333333333,150.4441877944129L71.08833333333332,131.69574581725257L74.44103333333334,142.85648586068834L77.83793333333334,154.90583898339952L81.27383333333333,150.0955668262073L82.71596666666667,139.3030187232154L86.13756666666666,137.43214366265707L87.594,147.12615964242391L90.97053333333334,137.44426895039425L92.46119999999999,156.9115889242717L95.93393333333333,127.87639385461807L97.47486666666666,137.28772011825018L100.95323333333334,139.94122566495622L104.31763333333333,155.94325207812446L105.78663333333334,132.39812205518996L109.14583333333333,132.7491491351809L110.56586666666666,146.48757378544127L111.9872,131.1389867067337L115.27446666666667,154.39977873223168L116.33223333333333,136.7920042531831L119.58396666666667,128.40066098315376L121.08026666666667,134.0881598166057L122.59953333333333,135.5015705057553L126.09393333333334,147.53874150344305L127.66173333333333,153.82572214092528L131.22416666666666,134.92150810786657L132.79543333333334,142.27331635781698L136.36479999999997,144.18174191883634L137.956,135.94168055909023L141.53879999999998,114.53783845901489L143.12263333333334,123.47175046375821L146.70239999999998,126.76996134860175L148.28536666666668,126.38594969681333L151.85733333333332,148.35447023596083L153.43076666666667,126.60611839805331L155.0146,139.16164544650488L156.0585,138.5776044385774L157.36673333333334,116.92506131955557L160.72723333333332,125.48720063482013L162.2374,124.47856615270888L165.7001666666667,138.4088545356478L167.23113333333333,135.3534146462168L170.7103666666667,106.7336433018957L172.2383,132.38751242841994L175.69066666666666,127.78071775606702L177.19433333333333,112.43934901271548L180.64366666666666,137.9235020024436L182.1703,104.01380864211492L185.7115,113.80009048325675L187.28233333333336,100.94683078357153L190.83263333333335,140.9920334134783L192.3844,119.51041896002634L193.94266666666667,103.91940190962383L195.5018,122.75438812800817L199.05253333333332,116.82750959055765L202.60153333333335,134.87916432959693L204.1611,124.71508504663196L205.7310666666667,88.62446922915322L209.28873333333334,119.15486384289606L210.85739999999998,107.51506125926973L212.42433333333332,123.62200930288861" style="fill: none;" fill="none"></path></g><g><path stroke="rgb(255, 112, 67)" stroke-width="2px" d="M27.2168,-21.54646352359225L28.67193333333333,24.96185849394118L30.159566666666667,64.63534527165551L33.501,97.45721086433956L36.8628,98.47463618006026L38.34696666666667,121.85361186947142L41.76206666666667,132.85194884027754L45.218333333333334,136.30161214726314L48.68586666666666,120.57596651145391L50.2021,137.9688960484096L53.62023333333334,140.592353616442L55.115233333333336,138.20765054225922L58.46836666666667,137.35878567184722L59.9313,129.11133546488625L63.31433333333333,122.83225521019529L64.779,142.4781579375267L68.1577,123.6569642339434L71.41593333333334,118.18269995280676L72.85156666666667,106.6873398593494L76.33166666666666,103.05145865678789L77.87563333333334,119.17293809992927L79.4339,118.15803257056646L82.97553333333333,102.70179567166738L84.55113333333334,104.72925745589393L86.12283333333333,115.98709453003748L87.69886666666667,119.77259041581836L91.23356666666666,105.37860450574331L94.70196666666666,94.27007898262569L96.21473333333333,80.17325735092165L99.62766666666667,95.92991719927107L101.11833333333334,107.23492922101703L104.46583333333334,91.92493465968542L107.9156,74.35952290466854L109.38113333333334,115.3162819317409L112.75290000000001,118.2773340344429L115.36286666666666,90.1592654160091L116.60306666666666,90.81202270303456L119.86953333333332,81.51726971353804L121.37536666666666,77.96217324052539L124.81993333333332,100.51373066220965L126.33573333333332,98.87689260074072L129.85483333333335,68.58159594876427L133.406,83.96335705689022L134.97683333333333,94.35453919001989L138.5336333333333,61.00958110604968L140.09363333333332,55.84890707901546L143.58110000000002,91.8928784302303L146.96110000000002,88.61617098535811L148.40193333333335,103.29299817766463L150.9187333333333,65.17336702346803L152.25036666666665,74.38760052408492L155.62256666666667,46.73508611747198L157.1609,84.4551511492048L160.66223333333332,80.66664288725173L162.20446666666666,65.91676083632879L165.74566666666666,56.40326007774898L167.30913333333334,78.79267966747285L170.86983333333333,90.08442965575628L172.44066666666666,75.2505420957293L175.97363333333334,74.83790339742389L179.5499333333333,70.96292667729516L181.1350666666667,53.762448191642775L182.71456666666666,76.28433654989516L186.27396666666667,59.200829199382255L187.8305,74.02463761397772L191.4133,39.970804895673496L192.9793666666667,33.616055267197765L196.45513333333335,54.60322322164264L199.93220000000002,44.19570984159199L203.48466666666667,27.555116517203203L206.98383333333334,86.87520701544625L208.4797,59.58198004109521L209.98423333333332,61.633199810981765L213.46216666666666,48.22645861761913L214.98966666666666,55.62511973721642L218.52220000000003,72.65735985551562L220.09996666666666,42.628402726990856L223.5753,41.738823413848905L225.0776666666667,36.33450688634602L228.56513333333334,46.431991815567045L232.0773,45.5654505491257L235.5782,22.923218710081926L237.13603333333333,11.57167589664462L240.53336666666667,28.59482204914096L241.9742,50.23637662615096" style="fill: none;" fill="none"></path></g></g></g></g></g></g><g transform="translate(70, 178)" clip-path="url(#clip_1)"><clipPath id="clip_1"><rect width="260" height="22"></rect></clipPath><g><g><line x1="0" y1="0" x2="0" y2="5" style="visibility: inherit;" fill="rgb(0, 0, 0)" stroke="rgb(204, 204, 204)" stroke-width="1px"></line><line x1="21.666666666666664" y1="0" x2="21.666666666666664" y2="5" style="visibility: inherit;" fill="rgb(0, 0, 0)" stroke="rgb(204, 204, 204)" stroke-width="1px"></line><line x1="43.33333333333333" y1="0" x2="43.33333333333333" y2="5" style="visibility: inherit;" fill="rgb(0, 0, 0)" stroke="rgb(204, 204, 204)" stroke-width="1px"></line><line x1="65" y1="0" x2="65" y2="5" style="visibility: inherit;" fill="rgb(0, 0, 0)" stroke="rgb(204, 204, 204)" stroke-width="1px"></line><line x1="86.66666666666666" y1="0" x2="86.66666666666666" y2="5" style="visibility: inherit;" fill="rgb(0, 0, 0)" stroke="rgb(204, 204, 204)" stroke-width="1px"></line><line x1="108.33333333333334" y1="0" x2="108.33333333333334" y2="5" style="visibility: inherit;" fill="rgb(0, 0, 0)" stroke="rgb(204, 204, 204)" stroke-width="1px"></line><line x1="130" y1="0" x2="130" y2="5" style="visibility: inherit;" fill="rgb(0, 0, 0)" stroke="rgb(204, 204, 204)" stroke-width="1px"></line><line x1="151.66666666666669" y1="0" x2="151.66666666666669" y2="5" style="visibility: inherit;" fill="rgb(0, 0, 0)" stroke="rgb(204, 204, 204)" stroke-width="1px"></line><line x1="173.33333333333331" y1="0" x2="173.33333333333331" y2="5" style="visibility: inherit;" fill="rgb(0, 0, 0)" stroke="rgb(204, 204, 204)" stroke-width="1px"></line><line x1="195" y1="0" x2="195" y2="5" style="visibility: inherit;" fill="rgb(0, 0, 0)" stroke="rgb(204, 204, 204)" stroke-width="1px"></line><line x1="216.66666666666669" y1="0" x2="216.66666666666669" y2="5" style="visibility: inherit;" fill="rgb(0, 0, 0)" stroke="rgb(204, 204, 204)" stroke-width="1px"></line><line x1="238.33333333333331" y1="0" x2="238.33333333333331" y2="5" style="visibility: inherit;" fill="rgb(0, 0, 0)" stroke="rgb(204, 204, 204)" stroke-width="1px"></line><line x1="260" y1="0" x2="260" y2="5" style="visibility: inherit;" fill="rgb(0, 0, 0)" stroke="rgb(204, 204, 204)" stroke-width="1px"></line></g><g transform="translate(0, 8)"><text x="0" y="0" dx="0em" dy="0.95em" style="text-anchor: middle; visibility: hidden; font-family: &quot;Helvetica Neue&quot;, sans-serif; font-size: 12px; font-weight: 200;" fill="rgb(50, 49, 63)" stroke="none" stroke-width="1px">-50k</text><text x="21.666666666666664" y="0" dx="0em" dy="0.95em" style="text-anchor: middle; visibility: inherit; font-family: &quot;Helvetica Neue&quot;, sans-serif; font-size: 12px; font-weight: 200;" fill="rgb(50, 49, 63)" stroke="none" stroke-width="1px">0</text><text x="43.33333333333333" y="0" dx="0em" dy="0.95em" style="text-anchor: middle; visibility: hidden; font-family: &quot;Helvetica Neue&quot;, sans-serif; font-size: 12px; font-weight: 200;" fill="rgb(50, 49, 63)" stroke="none" stroke-width="1px">50k</text><text x="65" y="0" dx="0em" dy="0.95em" style="text-anchor: middle; visibility: inherit; font-family: &quot;Helvetica Neue&quot;, sans-serif; font-size: 12px; font-weight: 200;" fill="rgb(50, 49, 63)" stroke="none" stroke-width="1px">100k</text><text x="86.66666666666666" y="0" dx="0em" dy="0.95em" style="text-anchor: middle; visibility: hidden; font-family: &quot;Helvetica Neue&quot;, sans-serif; font-size: 12px; font-weight: 200;" fill="rgb(50, 49, 63)" stroke="none" stroke-width="1px">150k</text><text x="108.33333333333334" y="0" dx="0em" dy="0.95em" style="text-anchor: middle; visibility: inherit; font-family: &quot;Helvetica Neue&quot;, sans-serif; font-size: 12px; font-weight: 200;" fill="rgb(50, 49, 63)" stroke="none" stroke-width="1px">200k</text><text x="130" y="0" dx="0em" dy="0.95em" style="text-anchor: middle; visibility: hidden; font-family: &quot;Helvetica Neue&quot;, sans-serif; font-size: 12px; font-weight: 200;" fill="rgb(50, 49, 63)" stroke="none" stroke-width="1px">250k</text><text x="151.66666666666669" y="0" dx="0em" dy="0.95em" style="text-anchor: middle; visibility: inherit; font-family: &quot;Helvetica Neue&quot;, sans-serif; font-size: 12px; font-weight: 200;" fill="rgb(50, 49, 63)" stroke="none" stroke-width="1px">300k</text><text x="173.33333333333331" y="0" dx="0em" dy="0.95em" style="text-anchor: middle; visibility: hidden; font-family: &quot;Helvetica Neue&quot;, sans-serif; font-size: 12px; font-weight: 200;" fill="rgb(50, 49, 63)" stroke="none" stroke-width="1px">350k</text><text x="195" y="0" dx="0em" dy="0.95em" style="text-anchor: middle; visibility: inherit; font-family: &quot;Helvetica Neue&quot;, sans-serif; font-size: 12px; font-weight: 200;" fill="rgb(50, 49, 63)" stroke="none" stroke-width="1px">400k</text><text x="216.66666666666669" y="0" dx="0em" dy="0.95em" style="text-anchor: middle; visibility: hidden; font-family: &quot;Helvetica Neue&quot;, sans-serif; font-size: 12px; font-weight: 200;" fill="rgb(50, 49, 63)" stroke="none" stroke-width="1px">450k</text><text x="238.33333333333331" y="0" dx="0em" dy="0.95em" style="text-anchor: middle; visibility: inherit; font-family: &quot;Helvetica Neue&quot;, sans-serif; font-size: 12px; font-weight: 200;" fill="rgb(50, 49, 63)" stroke="none" stroke-width="1px">500k</text><text x="260" y="0" dx="0em" dy="0.95em" style="text-anchor: middle; visibility: hidden; font-family: &quot;Helvetica Neue&quot;, sans-serif; font-size: 12px; font-weight: 200;" fill="rgb(50, 49, 63)" stroke="none" stroke-width="1px">550k</text></g><line x1="0" y1="0" x2="260" y2="0" fill="rgb(0, 0, 0)" stroke="rgb(204, 204, 204)" stroke-width="1px"></line></g></g></g></g></svg>