<?xml version="1.0" encoding="UTF-8" standalone="no"?>
<!-- Created with Inkscape (http://www.inkscape.org/) -->

<svg
   xmlns:dc="http://purl.org/dc/elements/1.1/"
   xmlns:cc="http://creativecommons.org/ns#"
   xmlns:rdf="http://www.w3.org/1999/02/22-rdf-syntax-ns#"
   xmlns:svg="http://www.w3.org/2000/svg"
   xmlns="http://www.w3.org/2000/svg"
   xmlns:sodipodi="http://sodipodi.sourceforge.net/DTD/sodipodi-0.dtd"
   xmlns:inkscape="http://www.inkscape.org/namespaces/inkscape"
   width="1220"
   height="900"
   id="svg2"
   sodipodi:version="0.32"
   inkscape:version="0.92.3 (2405546, 2018-03-11)"
   version="1.0"
   sodipodi:docname="Overfitting_svg.svg"
   inkscape:output_extension="org.inkscape.output.svg.inkscape">
  <defs
     id="defs4">
    <marker
       inkscape:stockid="Arrow2Lstart"
       orient="auto"
       refY="0.0"
       refX="0.0"
       id="Arrow2Lstart"
       style="overflow:visible">
      <path
         id="path3162"
         style="font-size:12.0;fill-rule:evenodd;stroke-width:0.62500000;stroke-linejoin:round"
         d="M 8.7185878,4.0337352 L -2.2072895,0.016013256 L 8.7185884,-4.0017078 C 6.9730900,-1.6296469 6.9831476,1.6157441 8.7185878,4.0337352 z "
         transform="scale(1.1) translate(1,0)" />
    </marker>
    <marker
       inkscape:stockid="Arrow1Lstart"
       orient="auto"
       refY="0.0"
       refX="0.0"
       id="Arrow1Lstart"
       style="overflow:visible">
      <path
         id="path3144"
         d="M 0.0,0.0 L 5.0,-5.0 L -12.5,0.0 L 5.0,5.0 L 0.0,0.0 z "
         style="fill-rule:evenodd;stroke:#000000;stroke-width:1.0pt;marker-start:none"
         transform="scale(0.8) translate(12.5,0)" />
    </marker>
    <marker
       inkscape:stockid="Arrow1Lend"
       orient="auto"
       refY="0.0"
       refX="0.0"
       id="Arrow1Lend"
       style="overflow:visible;">
      <path
         id="path3147"
         d="M 0.0,0.0 L 5.0,-5.0 L -12.5,0.0 L 5.0,5.0 L 0.0,0.0 z "
         style="fill-rule:evenodd;stroke:#000000;stroke-width:1.0pt;marker-start:none;"
         transform="scale(0.8) rotate(180) translate(12.5,0)" />
    </marker>
  </defs>
  <sodipodi:namedview
     id="base"
     pagecolor="#ffffff"
     bordercolor="#666666"
     borderopacity="1.0"
     gridtolerance="10000"
     guidetolerance="10"
     objecttolerance="10"
     inkscape:pageopacity="0.0"
     inkscape:pageshadow="2"
     inkscape:zoom="0.7"
     inkscape:cx="434.00231"
     inkscape:cy="391.17971"
     inkscape:document-units="px"
     inkscape:current-layer="layer1"
     showgrid="true"
     width="1220px"
     height="900px"
     inkscape:window-width="1853"
     inkscape:window-height="1025"
     inkscape:window-x="67"
     inkscape:window-y="27"
     inkscape:object-points="false"
     inkscape:grid-points="true"
     inkscape:window-maximized="1" />
  <metadata
     id="metadata7">
    <rdf:RDF>
      <cc:Work
         rdf:about="">
        <dc:format>image/svg+xml</dc:format>
        <dc:type
           rdf:resource="http://purl.org/dc/dcmitype/StillImage" />
      </cc:Work>
    </rdf:RDF>
  </metadata>
  <g
     inkscape:label="Layer 1"
     inkscape:groupmode="layer"
     id="layer1">
    <g
       id="g5532"
       transform="matrix(0.74118001,0,0,0.74118001,168.78975,78.751237)">
      <path
         style="fill:#000000;fill-opacity:1;fill-rule:evenodd;stroke:none;stroke-width:4;stroke-linecap:round;stroke-linejoin:miter;stroke-miterlimit:4;stroke-opacity:1"
         d="m 39.8125,838 c -1.104569,0.0518 -1.958027,0.98918 -1.90625,2.09375 C 37.95803,841.19832 38.895431,842.05178 40,842 h 1140 c 0.7213,0.0102 1.3922,-0.36875 1.7558,-0.99175 0.3636,-0.62299 0.3636,-1.39351 0,-2.0165 -0.3636,-0.623 -1.0345,-1.00195 -1.7558,-0.99175 H 40 c -0.06247,-0.003 -0.125034,-0.003 -0.1875,0 z"
         id="path3345"
         inkscape:connector-curvature="0" />
      <path
         style="fill-rule:evenodd;stroke:#000000;stroke-width:0.80000004pt;marker-start:none"
         d="m 1140,840 -16,16 56,-16 -56,-16 z"
         id="path5538"
         inkscape:connector-curvature="0" />
    </g>
    <g
       id="g5524"
       transform="matrix(0.74118001,0,0,0.74118001,168.78975,78.751237)">
      <path
         style="fill:#000000;fill-opacity:1;fill-rule:evenodd;stroke:none;stroke-width:4;stroke-linecap:round;stroke-linejoin:miter;stroke-miterlimit:4;stroke-opacity:1"
         d="M 39.96875,77.96875 C 38.86417,77.985985 37.982717,78.895421 38,80 v 760 c -0.0102,0.72127 0.368751,1.39216 0.991746,1.75578 0.622995,0.36361 1.393513,0.36361 2.016508,0 C 41.631249,841.39216 42.010201,840.72127 42,840 V 80 c 0.0085,-0.541273 -0.202815,-1.062865 -0.5856,-1.44565 -0.382785,-0.382785 -0.904377,-0.59407 -1.44565,-0.5856 z"
         id="path2168"
         inkscape:connector-curvature="0" />
      <path
         style="fill-rule:evenodd;stroke:#000000;stroke-width:0.80000004pt;marker-start:none"
         d="M 40,120 56,136 40,80 24,136 Z"
         id="path5530"
         inkscape:connector-curvature="0" />
    </g>
    <path
       style="fill:none;fill-rule:evenodd;stroke:#0000ff;stroke-width:2.96472001;stroke-linecap:butt;stroke-linejoin:miter;stroke-miterlimit:4;stroke-dasharray:none;stroke-opacity:1"
       d="m 238.67244,265.10507 c 58.46598,83.68186 140.47498,186.12101 226.58931,243.53057 143.19991,90.49898 311.43672,108.64598 504.00241,118.5888"
       id="path3347"
       sodipodi:nodetypes="ccc"
       inkscape:connector-curvature="0" />
    <path
       sodipodi:nodetypes="czc"
       id="path3349"
       d="m 238.67244,213.22247 c 58.46598,83.68186 135.22642,154.7527 262.58948,218.11869 127.36306,63.36598 381.31941,-111.59037 468.00224,-63.52972"
       style="fill:none;fill-rule:evenodd;stroke:#ff0000;stroke-width:2.96472001;stroke-linecap:butt;stroke-linejoin:miter;stroke-miterlimit:4;stroke-dasharray:none;stroke-opacity:1"
       inkscape:connector-curvature="0" />
    <text
       xml:space="preserve"
       style="font-style:normal;font-variant:normal;font-weight:normal;font-stretch:normal;font-size:40px;line-height:1.25;font-family:sans-serif;-inkscape-font-specification:'sans-serif, Normal';font-variant-ligatures:normal;font-variant-caps:normal;font-variant-numeric:normal;font-feature-settings:normal;text-align:start;letter-spacing:0px;word-spacing:0px;writing-mode:lr-tb;text-anchor:start;fill:#000000;fill-opacity:1;stroke:none"
       x="101.14285"
       y="195.71428"
       id="text857"><tspan
         sodipodi:role="line"
         id="tspan863"
         x="101.14285"
         y="195.71428">Loss</tspan></text>
    <text
       xml:space="preserve"
       style="font-style:normal;font-weight:normal;font-size:40px;line-height:1.25;font-family:sans-serif;letter-spacing:0px;word-spacing:0px;fill:#000000;fill-opacity:1;stroke:none"
       x="854.28571"
       y="767.14288"
       id="text861"><tspan
         sodipodi:role="line"
         id="tspan859"
         x="854.28571"
         y="767.14288">Epochen</tspan></text>
    <path
       style="fill:none;stroke:#000000;stroke-width:1.61406648;stroke-linecap:butt;stroke-linejoin:miter;stroke-miterlimit:4;stroke-dasharray:none;stroke-opacity:1;marker-start:url(#Arrow1Lstart)"
       d="m 568.57142,423.80586 v -56.663"
       id="path865"
       inkscape:connector-curvature="0" />
    <text
       xml:space="preserve"
       style="font-style:normal;font-weight:normal;font-size:40px;line-height:1.25;font-family:sans-serif;letter-spacing:0px;word-spacing:0px;fill:#000000;fill-opacity:1;stroke:none"
       x="486"
       y="350.28571"
       id="text869"><tspan
         sodipodi:role="line"
         id="tspan867"
         x="486"
         y="350.28571">Early Stopping</tspan></text>
  </g>
</svg>
