<?xml version="1.0" encoding="UTF-8" standalone="no"?>
<!-- Created with Inkscape (http://www.inkscape.org/) -->

<svg
   xmlns:dc="http://purl.org/dc/elements/1.1/"
   xmlns:cc="http://creativecommons.org/ns#"
   xmlns:rdf="http://www.w3.org/1999/02/22-rdf-syntax-ns#"
   xmlns:svg="http://www.w3.org/2000/svg"
   xmlns="http://www.w3.org/2000/svg"
   xmlns:xlink="http://www.w3.org/1999/xlink"
   xmlns:sodipodi="http://sodipodi.sourceforge.net/DTD/sodipodi-0.dtd"
   xmlns:inkscape="http://www.inkscape.org/namespaces/inkscape"
   width="210mm"
   height="297mm"
   viewBox="0 0 210 297"
   version="1.1"
   id="svg1966"
   inkscape:version="0.92.3 (2405546, 2018-03-11)"
   sodipodi:docname="train_workflow_text.svg">
  <defs
     id="defs1960">
    <marker
       inkscape:stockid="Tail"
       orient="auto"
       refY="0.0"
       refX="0.0"
       id="Tail"
       style="overflow:visible"
       inkscape:isstock="true">
      <g
         id="g2027"
         transform="scale(-1.2)"
         style="stroke:#000000;stroke-opacity:1;fill:#000000;fill-opacity:1">
        <path
           id="path2015"
           d="M -3.8048674,-3.9585227 L 0.54352094,0"
           style="fill:#000000;fill-rule:evenodd;stroke:#000000;stroke-width:0.8;stroke-linecap:round;stroke-opacity:1;fill-opacity:1" />
        <path
           id="path2017"
           d="M -1.2866832,-3.9585227 L 3.0617053,0"
           style="fill:#000000;fill-rule:evenodd;stroke:#000000;stroke-width:0.8;stroke-linecap:round;stroke-opacity:1;fill-opacity:1" />
        <path
           id="path2019"
           d="M 1.3053582,-3.9585227 L 5.6537466,0"
           style="fill:#000000;fill-rule:evenodd;stroke:#000000;stroke-width:0.8;stroke-linecap:round;stroke-opacity:1;fill-opacity:1" />
        <path
           id="path2021"
           d="M -3.8048674,4.1775838 L 0.54352094,0.21974226"
           style="fill:#000000;fill-rule:evenodd;stroke:#000000;stroke-width:0.8;stroke-linecap:round;stroke-opacity:1;fill-opacity:1" />
        <path
           id="path2023"
           d="M -1.2866832,4.1775838 L 3.0617053,0.21974226"
           style="fill:#000000;fill-rule:evenodd;stroke:#000000;stroke-width:0.8;stroke-linecap:round;stroke-opacity:1;fill-opacity:1" />
        <path
           id="path2025"
           d="M 1.3053582,4.1775838 L 5.6537466,0.21974226"
           style="fill:#000000;fill-rule:evenodd;stroke:#000000;stroke-width:0.8;stroke-linecap:round;stroke-opacity:1;fill-opacity:1" />
      </g>
    </marker>
    <marker
       inkscape:stockid="Arrow1Lstart"
       orient="auto"
       refY="0.0"
       refX="0.0"
       id="marker1827"
       style="overflow:visible"
       inkscape:isstock="true">
      <path
         id="path1825"
         d="M 0.0,0.0 L 5.0,-5.0 L -12.5,0.0 L 5.0,5.0 L 0.0,0.0 z "
         style="fill-rule:evenodd;stroke:#000000;stroke-width:1pt;stroke-opacity:1;fill:#000000;fill-opacity:1"
         transform="scale(0.8) translate(12.5,0)" />
    </marker>
    <marker
       inkscape:isstock="true"
       style="overflow:visible"
       id="marker1685"
       refX="0.0"
       refY="0.0"
       orient="auto"
       inkscape:stockid="Arrow1Lstart">
      <path
         transform="scale(0.8) translate(12.5,0)"
         style="fill-rule:evenodd;stroke:#000000;stroke-width:1pt;stroke-opacity:1;fill:#000000;fill-opacity:1"
         d="M 0.0,0.0 L 5.0,-5.0 L -12.5,0.0 L 5.0,5.0 L 0.0,0.0 z "
         id="path1683" />
    </marker>
    <marker
       inkscape:stockid="Arrow1Lstart"
       orient="auto"
       refY="0.0"
       refX="0.0"
       id="marker1627"
       style="overflow:visible"
       inkscape:isstock="true"
       inkscape:collect="always">
      <path
         id="path1625"
         d="M 0.0,0.0 L 5.0,-5.0 L -12.5,0.0 L 5.0,5.0 L 0.0,0.0 z "
         style="fill-rule:evenodd;stroke:#000000;stroke-width:1pt;stroke-opacity:1;fill:#000000;fill-opacity:1"
         transform="scale(0.8) translate(12.5,0)" />
    </marker>
    <marker
       inkscape:stockid="Arrow1Lstart"
       orient="auto"
       refY="0.0"
       refX="0.0"
       id="marker1265"
       style="overflow:visible"
       inkscape:isstock="true">
      <path
         id="path1263"
         d="M 0.0,0.0 L 5.0,-5.0 L -12.5,0.0 L 5.0,5.0 L 0.0,0.0 z "
         style="fill-rule:evenodd;stroke:#000000;stroke-width:1pt;stroke-opacity:1;fill:#000000;fill-opacity:1"
         transform="scale(0.8) translate(12.5,0)" />
    </marker>
    <marker
       inkscape:isstock="true"
       style="overflow:visible"
       id="marker1147"
       refX="0.0"
       refY="0.0"
       orient="auto"
       inkscape:stockid="Arrow1Lstart">
      <path
         transform="scale(0.8) translate(12.5,0)"
         style="fill-rule:evenodd;stroke:#000000;stroke-width:1pt;stroke-opacity:1;fill:#000000;fill-opacity:1"
         d="M 0.0,0.0 L 5.0,-5.0 L -12.5,0.0 L 5.0,5.0 L 0.0,0.0 z "
         id="path1145" />
    </marker>
    <marker
       inkscape:stockid="Arrow1Lstart"
       orient="auto"
       refY="0"
       refX="0"
       id="marker20300"
       style="overflow:visible"
       inkscape:isstock="true">
      <path
         inkscape:connector-curvature="0"
         id="path20298"
         d="M 0,0 5,-5 -12.5,0 5,5 Z"
         style="fill:#000000;fill-opacity:1;fill-rule:evenodd;stroke:#000000;stroke-width:1.00000003pt;stroke-opacity:1"
         transform="matrix(0.8,0,0,0.8,10,0)" />
    </marker>
    <marker
       inkscape:isstock="true"
       style="overflow:visible"
       id="marker19215"
       refX="0.0"
       refY="0.0"
       orient="auto"
       inkscape:stockid="Arrow1Lstart">
      <path
         transform="scale(0.8) translate(12.5,0)"
         style="fill-rule:evenodd;stroke:#000000;stroke-width:1pt;stroke-opacity:1;fill:#000000;fill-opacity:1"
         d="M 0.0,0.0 L 5.0,-5.0 L -12.5,0.0 L 5.0,5.0 L 0.0,0.0 z "
         id="path19213" />
    </marker>
    <marker
       inkscape:isstock="true"
       style="overflow:visible"
       id="marker19121"
       refX="0.0"
       refY="0.0"
       orient="auto"
       inkscape:stockid="Arrow1Lstart">
      <path
         transform="scale(0.8) translate(12.5,0)"
         style="fill-rule:evenodd;stroke:#000000;stroke-width:1pt;stroke-opacity:1;fill:#000000;fill-opacity:1"
         d="M 0.0,0.0 L 5.0,-5.0 L -12.5,0.0 L 5.0,5.0 L 0.0,0.0 z "
         id="path19119" />
    </marker>
    <marker
       inkscape:isstock="true"
       style="overflow:visible"
       id="marker19033"
       refX="0"
       refY="0"
       orient="auto"
       inkscape:stockid="Arrow1Lstart"
       inkscape:collect="always">
      <path
         transform="matrix(0.8,0,0,0.8,10,0)"
         style="fill:#000000;fill-opacity:1;fill-rule:evenodd;stroke:#000000;stroke-width:1.00000003pt;stroke-opacity:1"
         d="M 0,0 5,-5 -12.5,0 5,5 Z"
         id="path19031"
         inkscape:connector-curvature="0" />
    </marker>
    <marker
       inkscape:isstock="true"
       style="overflow:visible"
       id="marker14231"
       refX="0.0"
       refY="0.0"
       orient="auto"
       inkscape:stockid="Arrow1Lstart"
       inkscape:collect="always">
      <path
         transform="scale(0.8) translate(12.5,0)"
         style="fill-rule:evenodd;stroke:#000000;stroke-width:1pt;stroke-opacity:1;fill:#000000;fill-opacity:1"
         d="M 0.0,0.0 L 5.0,-5.0 L -12.5,0.0 L 5.0,5.0 L 0.0,0.0 z "
         id="path14229" />
    </marker>
    <marker
       inkscape:stockid="Arrow1Lstart"
       orient="auto"
       refY="0.0"
       refX="0.0"
       id="Arrow1Lstart"
       style="overflow:visible"
       inkscape:isstock="true"
       inkscape:collect="always">
      <path
         id="path10552"
         d="M 0.0,0.0 L 5.0,-5.0 L -12.5,0.0 L 5.0,5.0 L 0.0,0.0 z "
         style="fill-rule:evenodd;stroke:#000000;stroke-width:1pt;stroke-opacity:1;fill:#000000;fill-opacity:1"
         transform="scale(0.8) translate(12.5,0)" />
    </marker>
    <marker
       inkscape:stockid="Arrow1Lend"
       orient="auto"
       refY="0.0"
       refX="0.0"
       id="Arrow1Lend"
       style="overflow:visible;"
       inkscape:isstock="true">
      <path
         id="path10555"
         d="M 0.0,0.0 L 5.0,-5.0 L -12.5,0.0 L 5.0,5.0 L 0.0,0.0 z "
         style="fill-rule:evenodd;stroke:#000000;stroke-width:1pt;stroke-opacity:1;fill:#000000;fill-opacity:1"
         transform="scale(0.8) rotate(180) translate(12.5,0)" />
    </marker>
    <symbol
       id="Process">
      <title
         id="title6230">Process</title>
      <desc
         id="desc6232">Any processing function.</desc>
      <rect
         x="3.96875"
         y="9.260417"
         width="31.75"
         height="21.166666"
         style="stroke-width:0.52916664"
         id="rect6234" />
    </symbol>
    <marker
       inkscape:stockid="Arrow1Lstart"
       orient="auto"
       refY="0"
       refX="0"
       id="Arrow1Lstart-0"
       style="overflow:visible"
       inkscape:isstock="true"
       inkscape:collect="always">
      <path
         inkscape:connector-curvature="0"
         id="path10552-3"
         d="M 0,0 5,-5 -12.5,0 5,5 Z"
         style="fill:#000000;fill-opacity:1;fill-rule:evenodd;stroke:#000000;stroke-width:1.00000003pt;stroke-opacity:1"
         transform="matrix(0.8,0,0,0.8,10,0)" />
    </marker>
    <marker
       inkscape:stockid="Arrow1Lstart"
       orient="auto"
       refY="0"
       refX="0"
       id="Arrow1Lstart-6"
       style="overflow:visible"
       inkscape:isstock="true">
      <path
         inkscape:connector-curvature="0"
         id="path10552-36"
         d="M 0,0 5,-5 -12.5,0 5,5 Z"
         style="fill:#000000;fill-opacity:1;fill-rule:evenodd;stroke:#000000;stroke-width:1.00000003pt;stroke-opacity:1"
         transform="matrix(0.8,0,0,0.8,10,0)" />
    </marker>
    <marker
       inkscape:stockid="Arrow1Lstart"
       orient="auto"
       refY="0"
       refX="0"
       id="Arrow1Lstart-3"
       style="overflow:visible"
       inkscape:isstock="true">
      <path
         inkscape:connector-curvature="0"
         id="path10552-4"
         d="M 0,0 5,-5 -12.5,0 5,5 Z"
         style="fill:#000000;fill-opacity:1;fill-rule:evenodd;stroke:#000000;stroke-width:1.00000003pt;stroke-opacity:1"
         transform="matrix(0.8,0,0,0.8,10,0)" />
    </marker>
    <marker
       inkscape:stockid="Arrow1Lstart"
       orient="auto"
       refY="0"
       refX="0"
       id="Arrow1Lstart-9"
       style="overflow:visible"
       inkscape:isstock="true">
      <path
         inkscape:connector-curvature="0"
         id="path10552-7"
         d="M 0,0 5,-5 -12.5,0 5,5 Z"
         style="fill:#000000;fill-opacity:1;fill-rule:evenodd;stroke:#000000;stroke-width:1.00000003pt;stroke-opacity:1"
         transform="matrix(0.8,0,0,0.8,10,0)" />
    </marker>
    <marker
       inkscape:isstock="true"
       style="overflow:visible"
       id="marker14231-4"
       refX="0"
       refY="0"
       orient="auto"
       inkscape:stockid="Arrow1Lstart">
      <path
         inkscape:connector-curvature="0"
         transform="matrix(0.8,0,0,0.8,10,0)"
         style="fill:#000000;fill-opacity:1;fill-rule:evenodd;stroke:#000000;stroke-width:1.00000003pt;stroke-opacity:1"
         d="M 0,0 5,-5 -12.5,0 5,5 Z"
         id="path14229-7" />
    </marker>
    <marker
       inkscape:isstock="true"
       style="overflow:visible"
       id="marker14231-5"
       refX="0"
       refY="0"
       orient="auto"
       inkscape:stockid="Arrow1Lstart">
      <path
         inkscape:connector-curvature="0"
         transform="matrix(0.8,0,0,0.8,10,0)"
         style="fill:#000000;fill-opacity:1;fill-rule:evenodd;stroke:#000000;stroke-width:1.00000003pt;stroke-opacity:1"
         d="M 0,0 5,-5 -12.5,0 5,5 Z"
         id="path14229-71" />
    </marker>
    <marker
       inkscape:isstock="true"
       style="overflow:visible"
       id="marker14231-3"
       refX="0"
       refY="0"
       orient="auto"
       inkscape:stockid="Arrow1Lstart">
      <path
         inkscape:connector-curvature="0"
         transform="matrix(0.8,0,0,0.8,10,0)"
         style="fill:#000000;fill-opacity:1;fill-rule:evenodd;stroke:#000000;stroke-width:1.00000003pt;stroke-opacity:1"
         d="M 0,0 5,-5 -12.5,0 5,5 Z"
         id="path14229-3" />
    </marker>
  </defs>
  <sodipodi:namedview
     id="base"
     pagecolor="#ffffff"
     bordercolor="#666666"
     borderopacity="1.0"
     inkscape:pageopacity="0.0"
     inkscape:pageshadow="2"
     inkscape:zoom="0.7"
     inkscape:cx="240.17778"
     inkscape:cy="761.40493"
     inkscape:document-units="mm"
     inkscape:current-layer="layer1"
     showgrid="true"
     objecttolerance="10000"
     inkscape:snap-bbox="true"
     inkscape:snap-global="false"
     inkscape:window-width="1853"
     inkscape:window-height="1025"
     inkscape:window-x="67"
     inkscape:window-y="27"
     inkscape:window-maximized="1">
    <inkscape:grid
       type="xygrid"
       id="grid2511" />
  </sodipodi:namedview>
  <metadata
     id="metadata1963">
    <rdf:RDF>
      <cc:Work
         rdf:about="">
        <dc:format>image/svg+xml</dc:format>
        <dc:type
           rdf:resource="http://purl.org/dc/dcmitype/StillImage" />
        <dc:title></dc:title>
      </cc:Work>
    </rdf:RDF>
  </metadata>
  <g
     inkscape:label="Layer 1"
     inkscape:groupmode="layer"
     id="layer1">
    <text
       xml:space="preserve"
       style="font-style:normal;font-weight:normal;font-size:4.23333311px;line-height:0;font-family:sans-serif;letter-spacing:0px;word-spacing:0px;fill:#000000;fill-opacity:1;stroke:none;stroke-width:0.26458332"
       x="95.25"
       y="61.520832"
       id="text10367"><tspan
         sodipodi:role="line"
         id="tspan10365"
         x="95.25"
         y="62.620506"
         style="stroke-width:0.26458332" /></text>
    <use
       id="use10310-3"
       style="fill:#aaccee;stroke:#000000"
       xlink:href="#Process"
       x="0"
       y="0"
       width="100%"
       height="100%"
       transform="matrix(1.4901538,0,0,0.83083422,15.541219,44.166597)" />
    <g
       aria-label="Input"
       style="font-style:normal;font-weight:normal;font-size:6.73415756px;line-height:1;font-family:sans-serif;letter-spacing:0px;word-spacing:0px;fill:#000000;fill-opacity:1;stroke:none;stroke-width:0.42088485"
       id="text10371-3-1"
       transform="matrix(1.3254331,0,0,1.3254331,-36.60078,-14.397095)">
      <path
         d="m 104.91844,33.786694 h 0.55672 v 4.114822 h -0.55672 z"
         style="font-size:5.64444447px;line-height:1;stroke-width:0.42088485"
         id="path20773"
         inkscape:connector-curvature="0" />
      <path
         d="m 109.12696,36.038408 v 1.863108 h -0.50711 v -1.846571 q 0,-0.438216 -0.17088,-0.655946 -0.17088,-0.21773 -0.51263,-0.21773 -0.41066,0 -0.64768,0.261827 -0.23702,0.261827 -0.23702,0.713824 v 1.744596 h -0.50988 V 34.81471 h 0.50988 v 0.479558 q 0.1819,-0.278364 0.42719,-0.416168 0.24805,-0.137804 0.57051,-0.137804 0.53192,0 0.80477,0.330729 0.27285,0.327974 0.27285,0.967383 z"
         style="font-size:5.64444447px;line-height:1;stroke-width:0.42088485"
         id="path20775"
         inkscape:connector-curvature="0" />
      <path
         d="m 110.63454,37.438495 v 1.63711 h -0.50988 V 34.81471 h 0.50988 v 0.468533 q 0.15985,-0.275607 0.40238,-0.407899 0.2453,-0.135048 0.58429,-0.135048 0.56224,0 0.91226,0.446485 0.35278,0.446484 0.35278,1.174088 0,0.727604 -0.35278,1.174089 -0.35002,0.446484 -0.91226,0.446484 -0.33899,0 -0.58429,-0.132291 -0.24253,-0.135048 -0.40238,-0.410656 z m 1.7253,-1.077626 q 0,-0.559483 -0.23151,-0.876432 -0.22875,-0.319705 -0.63114,-0.319705 -0.40239,0 -0.6339,0.319705 -0.22875,0.316949 -0.22875,0.876432 0,0.559484 0.22875,0.879189 0.23151,0.316948 0.6339,0.316948 0.40239,0 0.63114,-0.316948 0.23151,-0.319705 0.23151,-0.879189 z"
         style="font-size:5.64444447px;line-height:1;stroke-width:0.42088485"
         id="path20777"
         inkscape:connector-curvature="0" />
      <path
         d="m 113.67449,36.68333 v -1.86862 h 0.50712 v 1.849328 q 0,0.438216 0.17088,0.658702 0.17087,0.21773 0.51263,0.21773 0.41065,0 0.64767,-0.261827 0.23978,-0.261828 0.23978,-0.713824 V 34.81471 h 0.50712 v 3.086806 h -0.50712 v -0.474045 q -0.18466,0.28112 -0.42995,0.418923 -0.24253,0.135048 -0.56499,0.135048 -0.53192,0 -0.80753,-0.330729 -0.27561,-0.330729 -0.27561,-0.967383 z m 1.27606,-1.943034 z"
         style="font-size:5.64444447px;line-height:1;stroke-width:0.42088485"
         id="path20779"
         inkscape:connector-curvature="0" />
      <path
         d="m 117.81136,33.938278 v 0.876432 h 1.04455 v 0.394119 h -1.04455 v 1.675695 q 0,0.377582 0.10198,0.485069 0.10473,0.107487 0.42168,0.107487 h 0.52089 v 0.424436 h -0.52089 q -0.58705,0 -0.81029,-0.21773 -0.22324,-0.220486 -0.22324,-0.799262 v -1.675695 h -0.37207 V 34.81471 h 0.37207 v -0.876432 z"
         style="font-size:5.64444447px;line-height:1;stroke-width:0.42088485"
         id="path20781"
         inkscape:connector-curvature="0" />
    </g>
    <use
       id="use10310-7"
       style="fill:#aaccee;stroke:#000000"
       xlink:href="#Process"
       x="0"
       y="0"
       width="100%"
       height="100%"
       transform="matrix(1.4901538,0,0,0.83083422,81.687052,44.166597)" />
    <use
       id="use10310-9"
       style="fill:#aaccee;stroke:#000000"
       xlink:href="#Process"
       x="0"
       y="0"
       width="100%"
       height="100%"
       transform="matrix(1.4901913,0,0,0.83023096,81.686308,129.11605)" />
    <path
       style="fill:none;stroke:#000000;stroke-width:0.548;stroke-linecap:butt;stroke-linejoin:miter;stroke-opacity:1;marker-start:url(#Arrow1Lstart);stroke-miterlimit:4;stroke-dasharray:none"
       d="M 111.72403,96.911677 V 69.375285"
       id="path12020"
       inkscape:connector-curvature="0" />
    <path
       style="fill:none;stroke:#000000;stroke-width:0.47936386;stroke-linecap:butt;stroke-linejoin:miter;stroke-miterlimit:4;stroke-dasharray:none;stroke-opacity:1;marker-start:url(#Arrow1Lstart-0)"
       d="M 111.98593,136.22957 V 114.33049"
       id="path12020-4"
       inkscape:connector-curvature="0" />
    <use
       id="use10310-6"
       style="fill:#aaccee;stroke:#000000"
       xlink:href="#Process"
       x="0"
       y="0"
       width="100%"
       height="100%"
       transform="matrix(1.4901538,0,0,0.83083422,81.800446,87.709456)" />
    <path
       style="fill:none;stroke:#000000;stroke-width:0.50351679;stroke-linecap:butt;stroke-linejoin:miter;stroke-miterlimit:4;stroke-dasharray:none;stroke-opacity:1;marker-start:url(#Arrow1Lstart-6)"
       d="m 46.067635,114.145 v 33.62201"
       id="path12020-3"
       inkscape:connector-curvature="0" />
    <path
       style="fill:none;stroke:#000000;stroke-width:0.4954668;stroke-linecap:butt;stroke-linejoin:miter;stroke-miterlimit:4;stroke-dasharray:none;stroke-opacity:1;marker-start:url(#Arrow1Lstart-3)"
       d="M 46.226489,70.350849 V 98.47654"
       id="path12020-43"
       inkscape:connector-curvature="0" />
    <use
       id="use10310"
       style="fill:#aaccee;stroke:#000000"
       xlink:href="#Process"
       x="0"
       y="0"
       width="100%"
       height="100%"
       transform="matrix(1.4901538,0,0,0.83083422,15.579016,87.633861)" />
    <path
       style="fill:none;stroke:#000000;stroke-width:0.27349395px;stroke-linecap:butt;stroke-linejoin:miter;stroke-opacity:1"
       d="M 173.84587,147.05541 V 113.64316"
       id="path12020-2"
       inkscape:connector-curvature="0" />
    <use
       id="use10310-74"
       style="fill:#aaccee;stroke:#000000"
       xlink:href="#Process"
       x="0"
       y="0"
       width="100%"
       height="100%"
       transform="matrix(1.4901538,0,0,0.83083422,146.77453,87.822846)" />
    <path
       style="fill:none;stroke:#000000;stroke-width:0.49651703;stroke-linecap:butt;stroke-linejoin:miter;stroke-miterlimit:4;stroke-dasharray:none;stroke-opacity:1;marker-start:url(#marker14231)"
       d="M 87.007268,61.89881 H 68.980653"
       id="path14221"
       inkscape:connector-curvature="0" />
    <path
       style="fill:none;stroke:#000000;stroke-width:0.33975425px;stroke-linecap:butt;stroke-linejoin:miter;stroke-opacity:1"
       d="M 46.06237,147.61719 H 87.197522"
       id="path14221-6"
       inkscape:connector-curvature="0" />
    <path
       style="fill:none;stroke:#000000;stroke-width:0.45783812;stroke-linecap:butt;stroke-linejoin:miter;stroke-miterlimit:4;stroke-dasharray:none;stroke-opacity:1;marker-start:url(#marker19033)"
       d="m 135.57391,147.06179 h 38.42406"
       id="path14221-8"
       inkscape:connector-curvature="0" />
    <path
       style="fill:none;stroke:#000000;stroke-width:0.5;stroke-linecap:square;stroke-linejoin:round;stroke-miterlimit:4;stroke-dasharray:none;stroke-opacity:1;marker-start:url(#marker1627)"
       d="M 111.31399,50.971551 V 37.53825"
       id="path20290"
       inkscape:connector-curvature="0" />
    <g
       aria-label="Neurona-
les Netz"
       style="font-style:normal;font-weight:normal;font-size:8.1677618px;line-height:1;font-family:sans-serif;letter-spacing:0px;word-spacing:0px;fill:#000000;fill-opacity:1;stroke:none;stroke-width:0.20419404"
       id="text1094"
       transform="translate(40.065476,-121.70833)">
      <path
         d="m 53.414082,175.69516 h 1.084781 l 2.640165,4.98122 v -4.98122 h 0.781681 v 5.95433 h -1.084781 l -2.640165,-4.98122 v 4.98122 h -0.781681 z"
         style="line-height:1;stroke-width:0.20419404"
         id="path1381"
         inkscape:connector-curvature="0" />
      <path
         d="m 63.312707,179.23266 v 0.35894 H 59.93872 q 0.04786,0.75775 0.454651,1.15657 0.410781,0.39482 1.140615,0.39482 0.422745,0 0.817574,-0.10369 0.398816,-0.10369 0.789656,-0.31108 v 0.69394 q -0.394828,0.16751 -0.809597,0.25525 -0.414769,0.0877 -0.841503,0.0877 -1.068828,0 -1.69497,-0.62216 -0.622154,-0.62215 -0.622154,-1.683 0,-1.09675 0.590249,-1.73884 0.594236,-0.64608 1.599254,-0.64608 0.901325,0 1.423775,0.58227 0.526437,0.57828 0.526437,1.57532 z m -0.733822,-0.21536 q -0.008,-0.60221 -0.338994,-0.96115 -0.327029,-0.35893 -0.86942,-0.35893 -0.614177,0 -0.985077,0.34697 -0.366911,0.34697 -0.422745,0.9771 z"
         style="line-height:1;stroke-width:0.20419404"
         id="path1383"
         inkscape:connector-curvature="0" />
      <path
         d="m 64.441358,179.88672 v -2.70397 h 0.733822 v 2.67605 q 0,0.63412 0.247267,0.95318 0.247266,0.31506 0.741798,0.31506 0.594237,0 0.937219,-0.37887 0.346971,-0.37888 0.346971,-1.03294 v -2.53248 h 0.733822 v 4.46674 h -0.733822 v -0.68596 q -0.267208,0.40679 -0.622154,0.6062 -0.350959,0.19542 -0.817574,0.19542 -0.769716,0 -1.168532,-0.47858 -0.398817,-0.47858 -0.398817,-1.39985 z m 1.846521,-2.81165 z"
         style="line-height:1;stroke-width:0.20419404"
         id="path1385"
         inkscape:connector-curvature="0" />
      <path
         d="m 72.290067,177.86871 q -0.123634,-0.0718 -0.271196,-0.10369 -0.143574,-0.0359 -0.319053,-0.0359 -0.622154,0 -0.957159,0.4068 -0.331018,0.4028 -0.331018,1.16055 v 2.35302 H 69.67383 v -4.46674 h 0.737811 v 0.69394 q 0.231313,-0.4068 0.602213,-0.60222 0.370899,-0.1994 0.901325,-0.1994 0.07578,0 0.167503,0.012 0.09173,0.008 0.203396,0.0279 z"
         style="line-height:1;stroke-width:0.20419404"
         id="path1387"
         inkscape:connector-curvature="0" />
      <path
         d="m 74.623144,177.69722 q -0.590249,0 -0.933231,0.46263 -0.342982,0.45863 -0.342982,1.26026 0,0.80162 0.338994,1.26424 0.342982,0.45864 0.937219,0.45864 0.58626,0 0.929242,-0.46262 0.342982,-0.46263 0.342982,-1.26026 0,-0.79365 -0.342982,-1.25628 -0.342982,-0.46661 -0.929242,-0.46661 z m 0,-0.62215 q 0.957159,0 1.503538,0.62215 0.546379,0.62215 0.546379,1.72289 0,1.09674 -0.546379,1.72288 -0.546379,0.62216 -1.503538,0.62216 -0.961148,0 -1.507527,-0.62216 -0.54239,-0.62614 -0.54239,-1.72288 0,-1.10074 0.54239,-1.72289 0.546379,-0.62215 1.507527,-0.62215 z"
         style="line-height:1;stroke-width:0.20419404"
         id="path1389"
         inkscape:connector-curvature="0" />
      <path
         d="m 81.598445,178.95349 v 2.696 h -0.733823 v -2.67207 q 0,-0.63412 -0.247266,-0.94918 -0.247266,-0.31507 -0.741798,-0.31507 -0.594237,0 -0.937219,0.37888 -0.342982,0.37887 -0.342982,1.03293 v 2.52451 h -0.737811 v -4.46674 h 0.737811 v 0.69394 q 0.263219,-0.40281 0.618165,-0.60222 0.358935,-0.1994 0.82555,-0.1994 0.769716,0 1.164545,0.47857 0.394828,0.4746 0.394828,1.39985 z"
         style="line-height:1;stroke-width:0.20419404"
         id="path1391"
         inkscape:connector-curvature="0" />
      <path
         d="m 85.100053,179.40415 q -0.88936,0 -1.232343,0.2034 -0.342982,0.2034 -0.342982,0.69394 0,0.39084 0.255243,0.62215 0.259231,0.22733 0.701917,0.22733 0.610189,0 0.9771,-0.43072 0.3709,-0.43471 0.3709,-1.15258 v -0.16352 z m 1.463657,-0.3031 v 2.54844 h -0.733822 v -0.67799 q -0.251255,0.4068 -0.626142,0.60222 -0.374888,0.19143 -0.917278,0.19143 -0.685965,0 -1.092757,-0.38287 -0.402805,-0.38685 -0.402805,-1.03293 0,-0.75376 0.502509,-1.13663 0.506497,-0.38286 1.507526,-0.38286 h 1.028947 v -0.0718 q 0,-0.5065 -0.335006,-0.78168 -0.331018,-0.27917 -0.933231,-0.27917 -0.382864,0 -0.745787,0.0917 -0.362923,0.0917 -0.697929,0.27518 v -0.67799 q 0.402805,-0.15554 0.781681,-0.23131 0.378875,-0.0798 0.73781,-0.0798 0.969124,0 1.447704,0.5025 0.47858,0.50251 0.47858,1.52348 z"
         style="line-height:1;stroke-width:0.20419404"
         id="path1393"
         inkscape:connector-curvature="0" />
      <path
         d="m 87.708314,179.0851 h 2.149621 v 0.65406 h -2.149621 z"
         style="line-height:1;stroke-width:0.20419404"
         id="path1395"
         inkscape:connector-curvature="0" />
      <path
         d="m 53.382177,183.61167 h 0.733822 v 6.20558 h -0.733822 z"
         style="line-height:1;stroke-width:0.20419404"
         id="path1397"
         inkscape:connector-curvature="0" />
      <path
         d="m 59.468117,187.40042 v 0.35894 h -3.373988 q 0.04786,0.75775 0.454651,1.15657 0.410781,0.39483 1.140615,0.39483 0.422745,0 0.817574,-0.1037 0.398816,-0.10369 0.789656,-0.31107 v 0.69394 q -0.394828,0.1675 -0.809597,0.25524 -0.414769,0.0877 -0.841503,0.0877 -1.068828,0 -1.69497,-0.62215 -0.622154,-0.62216 -0.622154,-1.68301 0,-1.09675 0.590249,-1.73884 0.594236,-0.64608 1.599254,-0.64608 0.901325,0 1.423775,0.58227 0.526438,0.57828 0.526438,1.57532 z m -0.733823,-0.21536 q -0.008,-0.60221 -0.338994,-0.96114 -0.327029,-0.35894 -0.86942,-0.35894 -0.614177,0 -0.985077,0.34697 -0.366911,0.34697 -0.422745,0.9771 z"
         style="line-height:1;stroke-width:0.20419404"
         id="path1399"
         inkscape:connector-curvature="0" />
      <path
         d="m 63.520092,185.48212 v 0.69394 q -0.311077,-0.15953 -0.646083,-0.23929 -0.335006,-0.0798 -0.693941,-0.0798 -0.546378,0 -0.821561,0.16751 -0.271196,0.1675 -0.271196,0.50251 0,0.25524 0.19542,0.4028 0.19542,0.14357 0.785669,0.27518 l 0.251254,0.0558 q 0.781681,0.1675 1.10871,0.47459 0.331018,0.3031 0.331018,0.84948 0,0.62215 -0.494533,0.98508 -0.490544,0.36292 -1.351988,0.36292 -0.358934,0 -0.749775,-0.0718 -0.386852,-0.0678 -0.817573,-0.20738 v -0.75775 q 0.406792,0.21137 0.801621,0.31905 0.394828,0.10369 0.78168,0.10369 0.518462,0 0.797633,-0.17548 0.279172,-0.17947 0.279172,-0.50251 0,-0.29911 -0.203397,-0.45864 -0.199408,-0.15952 -0.881384,-0.30708 l -0.255243,-0.0598 q -0.681976,-0.14357 -0.985077,-0.43869 -0.3031,-0.29912 -0.3031,-0.81758 0,-0.63013 0.446674,-0.97311 0.446675,-0.34298 1.268237,-0.34298 0.406793,0 0.765728,0.0598 0.358934,0.0598 0.662035,0.17947 z"
         style="line-height:1;stroke-width:0.20419404"
         id="path1401"
         inkscape:connector-curvature="0" />
      <path
         d="m 67.564091,183.86292 h 1.084781 l 2.640165,4.98122 v -4.98122 h 0.781681 v 5.95433 h -1.084781 l -2.640165,-4.98122 v 4.98122 h -0.781681 z"
         style="line-height:1;stroke-width:0.20419404"
         id="path1403"
         inkscape:connector-curvature="0" />
      <path
         d="m 77.462717,187.40042 v 0.35894 H 74.08873 q 0.04786,0.75775 0.45465,1.15657 0.410781,0.39483 1.140616,0.39483 0.422745,0 0.817573,-0.1037 0.398817,-0.10369 0.789657,-0.31107 v 0.69394 q -0.394828,0.1675 -0.809597,0.25524 -0.41477,0.0877 -0.841503,0.0877 -1.068828,0 -1.69497,-0.62215 -0.622154,-0.62216 -0.622154,-1.68301 0,-1.09675 0.590248,-1.73884 0.594237,-0.64608 1.599254,-0.64608 0.901326,0 1.423775,0.58227 0.526438,0.57828 0.526438,1.57532 z m -0.733822,-0.21536 q -0.008,-0.60221 -0.338994,-0.96114 -0.32703,-0.35894 -0.86942,-0.35894 -0.614178,0 -0.985077,0.34697 -0.366911,0.34697 -0.422745,0.9771 z"
         style="line-height:1;stroke-width:0.20419404"
         id="path1405"
         inkscape:connector-curvature="0" />
      <path
         d="m 79.392988,184.08227 v 1.26824 h 1.511515 v 0.57031 h -1.511515 v 2.4248 q 0,0.54638 0.147563,0.70192 0.15155,0.15553 0.610189,0.15553 h 0.753763 v 0.61418 H 80.15074 q -0.849479,0 -1.172521,-0.31506 -0.323041,-0.31906 -0.323041,-1.15657 v -2.4248 h -0.538402 v -0.57031 h 0.538402 v -1.26824 z"
         style="line-height:1;stroke-width:0.20419404"
         id="path1407"
         inkscape:connector-curvature="0" />
      <path
         d="m 81.554575,185.35051 h 3.485656 v 0.67001 l -2.75981,3.21047 h 2.75981 v 0.58626 h -3.58536 v -0.67001 l 2.75981,-3.21047 h -2.660106 z"
         style="line-height:1;stroke-width:0.20419404"
         id="path1409"
         inkscape:connector-curvature="0" />
    </g>
    <g
       aria-label="Vorher-
sage"
       style="font-style:normal;font-weight:normal;font-size:8.1677618px;line-height:1;font-family:sans-serif;letter-spacing:0px;word-spacing:0px;fill:#000000;fill-opacity:1;stroke:none;stroke-width:0.20419404"
       id="text1094-7"
       transform="translate(32.18305,-109.40782)">
      <path
         d="m 68.053907,212.44736 -2.273254,-5.95433 h 0.841503 l 1.886402,5.01312 1.89039,-5.01312 h 0.837515 l -2.269266,5.95433 z"
         style="line-height:1;stroke-width:0.20419404"
         id="path1358"
         inkscape:connector-curvature="0" />
      <path
         d="m 73.162746,208.49509 q -0.590248,0 -0.93323,0.46262 -0.342982,0.45864 -0.342982,1.26026 0,0.80162 0.338994,1.26425 0.342982,0.45864 0.937218,0.45864 0.586261,0 0.929243,-0.46263 0.342982,-0.46262 0.342982,-1.26026 0,-0.79364 -0.342982,-1.25627 -0.342982,-0.46661 -0.929243,-0.46661 z m 0,-0.62216 q 0.95716,0 1.503539,0.62216 0.546378,0.62215 0.546378,1.72288 0,1.09675 -0.546378,1.72289 -0.546379,0.62215 -1.503539,0.62215 -0.961147,0 -1.507526,-0.62215 -0.54239,-0.62614 -0.54239,-1.72289 0,-1.10073 0.54239,-1.72288 0.546379,-0.62216 1.507526,-0.62216 z"
         style="line-height:1;stroke-width:0.20419404"
         id="path1360"
         inkscape:connector-curvature="0" />
      <path
         d="m 79.013385,208.66658 q -0.123634,-0.0718 -0.271196,-0.1037 -0.143574,-0.0359 -0.319053,-0.0359 -0.622154,0 -0.957159,0.40679 -0.331018,0.40281 -0.331018,1.16056 v 2.35302 h -0.737811 v -4.46675 h 0.737811 v 0.69394 q 0.231313,-0.40679 0.602213,-0.60221 0.370899,-0.19941 0.901325,-0.19941 0.07577,0 0.167503,0.012 0.09173,0.008 0.203396,0.0279 z"
         style="line-height:1;stroke-width:0.20419404"
         id="path1362"
         inkscape:connector-curvature="0" />
      <path
         d="m 83.360484,209.75136 v 2.696 h -0.733822 v -2.67207 q 0,-0.63412 -0.247267,-0.94919 -0.247266,-0.31506 -0.741798,-0.31506 -0.594237,0 -0.937219,0.37887 -0.342982,0.37888 -0.342982,1.03294 v 2.52451 h -0.737811 v -6.20559 h 0.737811 v 2.43278 q 0.263219,-0.4028 0.618165,-0.60221 0.358935,-0.19941 0.825551,-0.19941 0.769715,0 1.164544,0.47858 0.394828,0.47459 0.394828,1.39985 z"
         style="line-height:1;stroke-width:0.20419404"
         id="path1364"
         inkscape:connector-curvature="0" />
      <path
         d="m 88.652779,210.03053 v 0.35893 h -3.373988 q 0.04786,0.75776 0.454651,1.15657 0.410781,0.39483 1.140615,0.39483 0.422746,0 0.817574,-0.10369 0.398816,-0.10369 0.789657,-0.31108 v 0.69394 q -0.394829,0.1675 -0.809598,0.25524 -0.414769,0.0877 -0.841503,0.0877 -1.068828,0 -1.69497,-0.62215 -0.622154,-0.62215 -0.622154,-1.68301 0,-1.09674 0.590249,-1.73884 0.594236,-0.64608 1.599254,-0.64608 0.901325,0 1.423775,0.58227 0.526438,0.57829 0.526438,1.57533 z m -0.733823,-0.21536 q -0.008,-0.60221 -0.338994,-0.96115 -0.327029,-0.35893 -0.86942,-0.35893 -0.614177,0 -0.985076,0.34697 -0.366912,0.34697 -0.422746,0.9771 z"
         style="line-height:1;stroke-width:0.20419404"
         id="path1366"
         inkscape:connector-curvature="0" />
      <path
         d="m 92.445525,208.66658 q -0.123633,-0.0718 -0.271195,-0.1037 -0.143574,-0.0359 -0.319053,-0.0359 -0.622154,0 -0.95716,0.40679 -0.331018,0.40281 -0.331018,1.16056 v 2.35302 h -0.73781 v -4.46675 h 0.73781 v 0.69394 q 0.231314,-0.40679 0.602213,-0.60221 0.3709,-0.19941 0.901325,-0.19941 0.07578,0 0.167503,0.012 0.09173,0.008 0.203397,0.0279 z"
         style="line-height:1;stroke-width:0.20419404"
         id="path1368"
         inkscape:connector-curvature="0" />
      <path
         d="M 92.325879,209.88297 H 94.4755 v 0.65406 h -2.149621 z"
         style="line-height:1;stroke-width:0.20419404"
         id="path1370"
         inkscape:connector-curvature="0" />
      <path
         d="m 69.334108,216.27998 v 0.69394 q -0.311077,-0.15952 -0.646082,-0.23929 -0.335006,-0.0798 -0.693941,-0.0798 -0.546379,0 -0.821562,0.1675 -0.271195,0.16751 -0.271195,0.50251 0,0.25525 0.19542,0.40281 0.19542,0.14357 0.785668,0.27518 l 0.251255,0.0558 q 0.78168,0.1675 1.108709,0.47459 0.331018,0.3031 0.331018,0.84948 0,0.62215 -0.494532,0.98507 -0.490545,0.36293 -1.351988,0.36293 -0.358935,0 -0.749775,-0.0718 -0.386852,-0.0678 -0.817574,-0.20739 v -0.75775 q 0.406793,0.21138 0.801621,0.31906 0.394828,0.10369 0.78168,0.10369 0.518462,0 0.797633,-0.17548 0.279172,-0.17947 0.279172,-0.50251 0,-0.29911 -0.203396,-0.45864 -0.199409,-0.15953 -0.881385,-0.30709 l -0.255242,-0.0598 q -0.681977,-0.14357 -0.985077,-0.4387 -0.303101,-0.29911 -0.303101,-0.81757 0,-0.63013 0.446675,-0.97311 0.446674,-0.34299 1.268236,-0.34299 0.406793,0 0.765728,0.0598 0.358935,0.0598 0.662035,0.17946 z"
         style="line-height:1;stroke-width:0.20419404"
         id="path1372"
         inkscape:connector-curvature="0" />
      <path
         d="m 72.775895,218.36978 q -0.889361,0 -1.232343,0.2034 -0.342982,0.20339 -0.342982,0.69394 0,0.39084 0.255242,0.62215 0.259231,0.22733 0.701917,0.22733 0.610189,0 0.977101,-0.43072 0.370899,-0.43471 0.370899,-1.15258 v -0.16352 z m 1.463656,-0.3031 v 2.54844 h -0.733822 v -0.67799 q -0.251254,0.40679 -0.626142,0.60221 -0.374887,0.19144 -0.917278,0.19144 -0.685964,0 -1.092757,-0.38287 -0.402805,-0.38685 -0.402805,-1.03293 0,-0.75377 0.502509,-1.13663 0.506497,-0.38286 1.507526,-0.38286 h 1.028947 v -0.0718 q 0,-0.5065 -0.335006,-0.78168 -0.331018,-0.27917 -0.933231,-0.27917 -0.382863,0 -0.745786,0.0917 -0.362923,0.0917 -0.697929,0.27518 v -0.67799 q 0.402804,-0.15554 0.78168,-0.23131 0.378876,-0.0798 0.737811,-0.0798 0.969124,0 1.447703,0.50251 0.47858,0.50251 0.47858,1.52348 z"
         style="line-height:1;stroke-width:0.20419404"
         id="path1374"
         inkscape:connector-curvature="0" />
      <path
         d="m 78.694332,218.3299 q 0,-0.79763 -0.331018,-1.23633 -0.32703,-0.4387 -0.921266,-0.4387 -0.590249,0 -0.921266,0.4387 -0.32703,0.4387 -0.32703,1.23633 0,0.79365 0.32703,1.23234 0.331017,0.4387 0.921266,0.4387 0.594236,0 0.921266,-0.4387 0.331018,-0.43869 0.331018,-1.23234 z m 0.733822,1.73086 q 0,1.14062 -0.506497,1.69497 -0.506497,0.55835 -1.551396,0.55835 -0.386852,0 -0.729834,-0.0598 -0.342983,-0.0558 -0.666024,-0.17547 v -0.71389 q 0.323041,0.17548 0.638107,0.25923 0.315065,0.0838 0.642094,0.0838 0.721858,0 1.080793,-0.37888 0.358935,-0.37489 0.358935,-1.13663 v -0.36292 q -0.227326,0.39483 -0.582272,0.59025 -0.354947,0.19542 -0.84948,0.19542 -0.821562,0 -1.32407,-0.62614 -0.502509,-0.62614 -0.502509,-1.65908 0,-1.03692 0.502509,-1.66306 0.502508,-0.62615 1.32407,-0.62615 0.494533,0 0.84948,0.19542 0.354946,0.19542 0.582272,0.59025 v -0.67799 h 0.733822 z"
         style="line-height:1;stroke-width:0.20419404"
         id="path1376"
         inkscape:connector-curvature="0" />
      <path
         d="m 84.76033,218.19829 v 0.35894 h -3.373987 q 0.04786,0.75775 0.454651,1.15656 0.41078,0.39483 1.140615,0.39483 0.422745,0 0.817573,-0.10369 0.398817,-0.10369 0.789657,-0.31108 v 0.69394 q -0.394828,0.16751 -0.809597,0.25525 -0.414769,0.0877 -0.841503,0.0877 -1.068828,0 -1.69497,-0.62216 -0.622154,-0.62215 -0.622154,-1.683 0,-1.09675 0.590248,-1.73884 0.594237,-0.64609 1.599255,-0.64609 0.901325,0 1.423774,0.58228 0.526438,0.57828 0.526438,1.57532 z m -0.733822,-0.21536 q -0.008,-0.60221 -0.338994,-0.96115 -0.32703,-0.35893 -0.86942,-0.35893 -0.614177,0 -0.985077,0.34697 -0.366911,0.34697 -0.422745,0.9771 z"
         style="line-height:1;stroke-width:0.20419404"
         id="path1378"
         inkscape:connector-curvature="0" />
    </g>
    <g
       aria-label="Fehler-
Funktion"
       style="font-style:normal;font-weight:normal;font-size:8.1677618px;line-height:1;font-family:sans-serif;letter-spacing:0px;word-spacing:0px;fill:#000000;fill-opacity:1;stroke:none;stroke-width:0.20419404"
       id="text1094-3"
       transform="translate(-11.749115,-53.715803)">
      <path
         d="m 108.21251,192.32774 h 3.42185 v 0.67799 h -2.61624 v 1.75479 h 2.36099 v 0.67799 h -2.36099 v 2.84356 h -0.80561 z"
         style="line-height:1;stroke-width:0.20419404"
         id="path1327"
         inkscape:connector-curvature="0" />
      <path
         d="m 116.26063,195.86525 v 0.35893 h -3.37399 q 0.0479,0.75775 0.45465,1.15657 0.41078,0.39483 1.14062,0.39483 0.42274,0 0.81757,-0.1037 0.39882,-0.10369 0.78966,-0.31107 v 0.69394 q -0.39483,0.1675 -0.8096,0.25524 -0.41477,0.0877 -0.8415,0.0877 -1.06883,0 -1.69497,-0.62215 -0.62216,-0.62216 -0.62216,-1.68301 0,-1.09674 0.59025,-1.73884 0.59424,-0.64608 1.59925,-0.64608 0.90133,0 1.42378,0.58227 0.52644,0.57828 0.52644,1.57533 z m -0.73383,-0.21536 q -0.008,-0.60222 -0.33899,-0.96115 -0.32703,-0.35894 -0.86942,-0.35894 -0.61418,0 -0.98508,0.34697 -0.36691,0.34697 -0.42274,0.9771 z"
         style="line-height:1;stroke-width:0.20419404"
         id="path1329"
         inkscape:connector-curvature="0" />
      <path
         d="m 121.17803,195.58607 v 2.696 h -0.73382 V 195.61 q 0,-0.63411 -0.24726,-0.94918 -0.24727,-0.31506 -0.7418,-0.31506 -0.59424,0 -0.93722,0.37887 -0.34298,0.37888 -0.34298,1.03294 v 2.5245 h -0.73781 v -6.20558 h 0.73781 v 2.43278 q 0.26322,-0.4028 0.61816,-0.60221 0.35894,-0.19941 0.82555,-0.19941 0.76972,0 1.16455,0.47858 0.39482,0.47459 0.39482,1.39984 z"
         style="line-height:1;stroke-width:0.20419404"
         id="path1331"
         inkscape:connector-curvature="0" />
      <path
         d="m 122.64967,192.07649 h 0.73382 v 6.20558 h -0.73382 z"
         style="line-height:1;stroke-width:0.20419404"
         id="path1333"
         inkscape:connector-curvature="0" />
      <path
         d="m 128.73561,195.86525 v 0.35893 h -3.37399 q 0.0479,0.75775 0.45465,1.15657 0.41078,0.39483 1.14062,0.39483 0.42274,0 0.81757,-0.1037 0.39882,-0.10369 0.78966,-0.31107 v 0.69394 q -0.39483,0.1675 -0.8096,0.25524 -0.41477,0.0877 -0.8415,0.0877 -1.06883,0 -1.69497,-0.62215 -0.62216,-0.62216 -0.62216,-1.68301 0,-1.09674 0.59025,-1.73884 0.59424,-0.64608 1.59925,-0.64608 0.90133,0 1.42378,0.58227 0.52644,0.57828 0.52644,1.57533 z m -0.73383,-0.21536 q -0.008,-0.60222 -0.33899,-0.96115 -0.32703,-0.35894 -0.86942,-0.35894 -0.61418,0 -0.98508,0.34697 -0.36691,0.34697 -0.42274,0.9771 z"
         style="line-height:1;stroke-width:0.20419404"
         id="path1335"
         inkscape:connector-curvature="0" />
      <path
         d="m 132.52835,194.50129 q -0.12363,-0.0718 -0.27119,-0.10369 -0.14358,-0.0359 -0.31906,-0.0359 -0.62215,0 -0.95716,0.40679 -0.33101,0.40281 -0.33101,1.16056 v 2.35301 h -0.73781 v -4.46674 h 0.73781 v 0.69394 q 0.23131,-0.40679 0.60221,-0.60221 0.3709,-0.19941 0.90132,-0.19941 0.0758,0 0.16751,0.012 0.0917,0.008 0.20339,0.0279 z"
         style="line-height:1;stroke-width:0.20419404"
         id="path1337"
         inkscape:connector-curvature="0" />
      <path
         d="m 132.40871,195.71768 h 2.14962 v 0.65406 h -2.14962 z"
         style="line-height:1;stroke-width:0.20419404"
         id="path1339"
         inkscape:connector-curvature="0" />
      <path
         d="m 108.21251,200.49551 h 3.42185 v 0.67798 h -2.61624 v 1.7548 h 2.36099 v 0.67798 h -2.36099 v 2.84357 h -0.80561 z"
         style="line-height:1;stroke-width:0.20419404"
         id="path1341"
         inkscape:connector-curvature="0" />
      <path
         d="m 112.36419,204.68707 v -2.70398 h 0.73382 v 2.67606 q 0,0.63412 0.24727,0.95317 0.24726,0.31507 0.7418,0.31507 0.59423,0 0.93722,-0.37888 0.34697,-0.37888 0.34697,-1.03293 v -2.53249 h 0.73382 v 4.46675 h -0.73382 v -0.68597 q -0.26721,0.40679 -0.62216,0.6062 -0.35096,0.19542 -0.81757,0.19542 -0.76972,0 -1.16853,-0.47858 -0.39882,-0.47858 -0.39882,-1.39984 z m 1.84652,-2.81166 z"
         style="line-height:1;stroke-width:0.20419404"
         id="path1343"
         inkscape:connector-curvature="0" />
      <path
         d="m 121.33756,203.75384 v 2.696 h -0.73382 v -2.67207 q 0,-0.63412 -0.24727,-0.94919 -0.24726,-0.31506 -0.7418,-0.31506 -0.59423,0 -0.93721,0.37887 -0.34299,0.37888 -0.34299,1.03294 v 2.52451 h -0.73781 v -4.46675 h 0.73781 v 0.69394 q 0.26322,-0.4028 0.61817,-0.60221 0.35893,-0.19941 0.82555,-0.19941 0.76971,0 1.16454,0.47858 0.39483,0.47459 0.39483,1.39985 z"
         style="line-height:1;stroke-width:0.20419404"
         id="path1345"
         inkscape:connector-curvature="0" />
      <path
         d="m 122.78128,200.24425 h 0.73781 v 3.66512 l 2.1895,-1.92628 h 0.93722 l -2.36897,2.0898 2.46867,2.37695 h -0.95716 l -2.26926,-2.18153 v 2.18153 h -0.73781 z"
         style="line-height:1;stroke-width:0.20419404"
         id="path1347"
         inkscape:connector-curvature="0" />
      <path
         d="m 128.27298,200.71485 v 1.26824 h 1.51151 v 0.57031 h -1.51151 v 2.4248 q 0,0.54638 0.14756,0.70192 0.15155,0.15554 0.61019,0.15554 h 0.75376 v 0.61418 h -0.75376 q -0.84948,0 -1.17252,-0.31507 -0.32304,-0.31905 -0.32304,-1.15657 v -2.4248 h -0.5384 v -0.57031 h 0.5384 v -1.26824 z"
         style="line-height:1;stroke-width:0.20419404"
         id="path1349"
         inkscape:connector-curvature="0" />
      <path
         d="m 130.75362,201.98309 h 0.73382 v 4.46675 h -0.73382 z m 0,-1.73884 h 0.73382 v 0.92924 h -0.73382 z"
         style="line-height:1;stroke-width:0.20419404"
         id="path1351"
         inkscape:connector-curvature="0" />
      <path
         d="m 134.74976,202.49756 q -0.59025,0 -0.93323,0.46263 -0.34298,0.45864 -0.34298,1.26026 0,0.80162 0.33899,1.26425 0.34298,0.45864 0.93722,0.45864 0.58626,0 0.92924,-0.46263 0.34298,-0.46263 0.34298,-1.26026 0,-0.79364 -0.34298,-1.25627 -0.34298,-0.46662 -0.92924,-0.46662 z m 0,-0.62215 q 0.95716,0 1.50354,0.62215 0.54638,0.62216 0.54638,1.72289 0,1.09675 -0.54638,1.72289 -0.54638,0.62215 -1.50354,0.62215 -0.96115,0 -1.50753,-0.62215 -0.54239,-0.62614 -0.54239,-1.72289 0,-1.10073 0.54239,-1.72289 0.54638,-0.62215 1.50753,-0.62215 z"
         style="line-height:1;stroke-width:0.20419404"
         id="path1353"
         inkscape:connector-curvature="0" />
      <path
         d="m 141.72506,203.75384 v 2.696 h -0.73382 v -2.67207 q 0,-0.63412 -0.24727,-0.94919 -0.24726,-0.31506 -0.7418,-0.31506 -0.59423,0 -0.93722,0.37887 -0.34298,0.37888 -0.34298,1.03294 v 2.52451 h -0.73781 v -4.46675 h 0.73781 v 0.69394 q 0.26322,-0.4028 0.61817,-0.60221 0.35893,-0.19941 0.82555,-0.19941 0.76971,0 1.16454,0.47858 0.39483,0.47459 0.39483,1.39985 z"
         style="line-height:1;stroke-width:0.20419404"
         id="path1355"
         inkscape:connector-curvature="0" />
    </g>
    <g
       aria-label="Labels"
       style="font-style:normal;font-weight:normal;font-size:8.1677618px;line-height:1;font-family:sans-serif;letter-spacing:0px;word-spacing:0px;fill:#000000;fill-opacity:1;stroke:none;stroke-width:0.20419404"
       id="text1094-0"
       transform="translate(8.3229612,-86.584583)">
      <path
         d="m 156.05376,187.78416 h 0.80561 v 5.27635 h 2.89939 v 0.67798 h -3.705 z"
         style="line-height:1;stroke-width:0.20419404"
         id="path1314"
         inkscape:connector-curvature="0" />
      <path
         d="m 162.59834,191.49316 q -0.88936,0 -1.23235,0.20339 -0.34298,0.2034 -0.34298,0.69395 0,0.39084 0.25524,0.62215 0.25923,0.22732 0.70192,0.22732 0.61019,0 0.9771,-0.43072 0.3709,-0.43471 0.3709,-1.15258 v -0.16351 z m 1.46365,-0.3031 v 2.54843 h -0.73382 v -0.67798 q -0.25125,0.40679 -0.62614,0.60221 -0.37489,0.19143 -0.91728,0.19143 -0.68596,0 -1.09276,-0.38286 -0.4028,-0.38685 -0.4028,-1.03294 0,-0.75376 0.50251,-1.13662 0.50649,-0.38287 1.50752,-0.38287 h 1.02895 v -0.0718 q 0,-0.5065 -0.33501,-0.78169 -0.33101,-0.27917 -0.93323,-0.27917 -0.38286,0 -0.74578,0.0917 -0.36293,0.0917 -0.69793,0.27518 v -0.67798 q 0.4028,-0.15554 0.78168,-0.23132 0.37887,-0.0798 0.73781,-0.0798 0.96912,0 1.4477,0.50251 0.47858,0.50251 0.47858,1.52348 z"
         style="line-height:1;stroke-width:0.20419404"
         id="path1316"
         inkscape:connector-curvature="0" />
      <path
         d="m 168.78398,191.50911 q 0,-0.8096 -0.33501,-1.26824 -0.33101,-0.46262 -0.91329,-0.46262 -0.58227,0 -0.91727,0.46262 -0.33102,0.45864 -0.33102,1.26824 0,0.8096 0.33102,1.27223 0.335,0.45863 0.91727,0.45863 0.58228,0 0.91329,-0.45863 0.33501,-0.46263 0.33501,-1.27223 z m -2.49659,-1.55937 q 0.23131,-0.39882 0.58227,-0.59025 0.35495,-0.19542 0.84549,-0.19542 0.81359,0 1.32008,0.64608 0.51049,0.64609 0.51049,1.69896 0,1.05288 -0.51049,1.69896 -0.50649,0.64608 -1.32008,0.64608 -0.49054,0 -0.84549,-0.19143 -0.35096,-0.19542 -0.58227,-0.59424 v 0.67001 h -0.73781 v -6.20558 h 0.73781 z"
         style="line-height:1;stroke-width:0.20419404"
         id="path1318"
         inkscape:connector-curvature="0" />
      <path
         d="m 174.58277,191.32167 v 0.35893 h -3.37399 q 0.0479,0.75775 0.45465,1.15657 0.41079,0.39483 1.14062,0.39483 0.42275,0 0.81757,-0.10369 0.39882,-0.1037 0.78966,-0.31108 v 0.69394 q -0.39483,0.1675 -0.8096,0.25524 -0.41477,0.0877 -0.8415,0.0877 -1.06883,0 -1.69497,-0.62215 -0.62215,-0.62216 -0.62215,-1.68301 0,-1.09674 0.59024,-1.73884 0.59424,-0.64608 1.59926,-0.64608 0.90132,0 1.42377,0.58227 0.52644,0.57829 0.52644,1.57533 z m -0.73382,-0.21536 q -0.008,-0.60222 -0.339,-0.96115 -0.32702,-0.35894 -0.86941,-0.35894 -0.61418,0 -0.98508,0.34697 -0.36691,0.34697 -0.42275,0.9771 z"
         style="line-height:1;stroke-width:0.20419404"
         id="path1320"
         inkscape:connector-curvature="0" />
      <path
         d="m 175.7872,187.53291 h 0.73382 v 6.20558 h -0.73382 z"
         style="line-height:1;stroke-width:0.20419404"
         id="path1322"
         inkscape:connector-curvature="0" />
      <path
         d="m 180.90002,189.40336 v 0.69394 q -0.31107,-0.15953 -0.64608,-0.23929 -0.335,-0.0798 -0.69394,-0.0798 -0.54638,0 -0.82156,0.1675 -0.2712,0.1675 -0.2712,0.50251 0,0.25524 0.19542,0.4028 0.19542,0.14358 0.78567,0.27519 l 0.25126,0.0558 q 0.78168,0.1675 1.10871,0.47459 0.33101,0.3031 0.33101,0.84948 0,0.62216 -0.49453,0.98508 -0.49054,0.36292 -1.35199,0.36292 -0.35893,0 -0.74977,-0.0718 -0.38685,-0.0678 -0.81757,-0.20738 v -0.75775 q 0.40679,0.21137 0.80162,0.31905 0.39482,0.10369 0.78168,0.10369 0.51846,0 0.79763,-0.17548 0.27917,-0.17946 0.27917,-0.5025 0,-0.29912 -0.2034,-0.45864 -0.1994,-0.15953 -0.88138,-0.30709 l -0.25524,-0.0598 q -0.68198,-0.14358 -0.98508,-0.4387 -0.3031,-0.29911 -0.3031,-0.81758 0,-0.63013 0.44667,-0.97311 0.44668,-0.34298 1.26824,-0.34298 0.40679,0 0.76573,0.0598 0.35893,0.0598 0.66203,0.17947 z"
         style="line-height:1;stroke-width:0.20419404"
         id="path1324"
         inkscape:connector-curvature="0" />
    </g>
    <g
       aria-label="Opti-
mierer"
       style="font-style:normal;font-weight:normal;font-size:8.1677618px;line-height:1;font-family:sans-serif;letter-spacing:0px;word-spacing:0px;fill:#000000;fill-opacity:1;stroke:none;stroke-width:0.20419404"
       id="text1094-5"
       transform="translate(-84.729812,-157.66754)">
      <path
         d="m 119.18197,255.4152 q -0.8774,0 -1.39586,0.65406 -0.51448,0.65406 -0.51448,1.78271 0,1.12466 0.51448,1.77872 0.51846,0.65406 1.39586,0.65406 0.87739,0 1.38788,-0.65406 0.51447,-0.65406 0.51447,-1.77872 0,-1.12865 -0.51447,-1.78271 -0.51049,-0.65406 -1.38788,-0.65406 z m 0,-0.65406 q 1.25228,0 2.00205,0.8415 0.74978,0.83752 0.74978,2.24933 0,1.40782 -0.74978,2.24932 -0.74977,0.83752 -2.00205,0.83752 -1.25628,0 -2.01004,-0.83752 -0.74977,-0.83751 -0.74977,-2.24932 0,-1.41181 0.74977,-2.24933 0.75376,-0.8415 2.01004,-0.8415 z"
         style="line-height:1;stroke-width:0.20419404"
         id="path1291"
         inkscape:connector-curvature="0" />
      <path
         d="m 123.87205,260.15314 v 2.36897 h -0.73781 v -6.1657 h 0.73781 v 0.67798 q 0.23131,-0.39881 0.58227,-0.59024 0.35495,-0.19542 0.84549,-0.19542 0.81359,0 1.32008,0.64608 0.51049,0.64608 0.51049,1.69896 0,1.05287 -0.51049,1.69895 -0.50649,0.64609 -1.32008,0.64609 -0.49054,0 -0.84549,-0.19143 -0.35096,-0.19542 -0.58227,-0.59424 z m 2.49659,-1.55937 q 0,-0.8096 -0.33501,-1.26824 -0.33102,-0.46263 -0.91329,-0.46263 -0.58227,0 -0.91728,0.46263 -0.33101,0.45864 -0.33101,1.26824 0,0.80959 0.33101,1.27222 0.33501,0.45864 0.91728,0.45864 0.58227,0 0.91329,-0.45864 0.33501,-0.46263 0.33501,-1.27222 z"
         style="line-height:1;stroke-width:0.20419404"
         id="path1293"
         inkscape:connector-curvature="0" />
      <path
         d="m 129.07261,255.08817 v 1.26824 h 1.51152 v 0.5703 h -1.51152 v 2.42481 q 0,0.54638 0.14757,0.70191 0.15155,0.15554 0.61019,0.15554 h 0.75376 v 0.61418 h -0.75376 q -0.84948,0 -1.17252,-0.31506 -0.32305,-0.31906 -0.32305,-1.15657 v -2.42481 h -0.5384 v -0.5703 h 0.5384 v -1.26824 z"
         style="line-height:1;stroke-width:0.20419404"
         id="path1295"
         inkscape:connector-curvature="0" />
      <path
         d="m 131.55325,256.35641 h 0.73383 v 4.46674 h -0.73383 z m 0,-1.73884 h 0.73383 v 0.92924 h -0.73383 z"
         style="line-height:1;stroke-width:0.20419404"
         id="path1297"
         inkscape:connector-curvature="0" />
      <path
         d="m 133.44763,258.25876 h 2.14962 v 0.65406 h -2.14962 z"
         style="line-height:1;stroke-width:0.20419404"
         id="path1299"
         inkscape:connector-curvature="0" />
      <path
         d="m 120.21091,265.38162 q 0.27519,-0.49453 0.65805,-0.72983 0.38286,-0.2353 0.90132,-0.2353 0.69793,0 1.07681,0.49054 0.37887,0.48656 0.37887,1.38788 v 2.696 h -0.73781 v -2.67207 q 0,-0.64209 -0.22732,-0.95317 -0.22733,-0.31108 -0.69394,-0.31108 -0.57031,0 -0.90133,0.37888 -0.33101,0.37887 -0.33101,1.03293 v 2.52451 h -0.73782 v -2.67207 q 0,-0.64608 -0.22732,-0.95317 -0.22733,-0.31108 -0.70192,-0.31108 -0.56233,0 -0.89335,0.38287 -0.33101,0.37887 -0.33101,1.02894 v 2.52451 h -0.73782 v -4.46674 h 0.73782 v 0.69394 q 0.25125,-0.41078 0.60221,-0.6062 0.35096,-0.19542 0.83352,-0.19542 0.48656,0 0.82555,0.24726 0.34299,0.24727 0.5065,0.71787 z"
         style="line-height:1;stroke-width:0.20419404"
         id="path1301"
         inkscape:connector-curvature="0" />
      <path
         d="m 124.69361,264.52417 h 0.73382 v 4.46674 h -0.73382 z m 0,-1.73884 h 0.73382 v 0.92924 h -0.73382 z"
         style="line-height:1;stroke-width:0.20419404"
         id="path1303"
         inkscape:connector-curvature="0" />
      <path
         d="m 130.77955,266.57408 v 0.35894 h -3.37399 q 0.0479,0.75775 0.45465,1.15657 0.41078,0.39483 1.14062,0.39483 0.42274,0 0.81757,-0.1037 0.39882,-0.10369 0.78966,-0.31107 v 0.69394 q -0.39483,0.1675 -0.8096,0.25524 -0.41477,0.0877 -0.8415,0.0877 -1.06883,0 -1.69497,-0.62215 -0.62216,-0.62216 -0.62216,-1.68301 0,-1.09675 0.59025,-1.73884 0.59424,-0.64608 1.59926,-0.64608 0.90132,0 1.42377,0.58227 0.52644,0.57828 0.52644,1.57532 z m -0.73382,-0.21536 q -0.008,-0.60221 -0.339,-0.96114 -0.32703,-0.35894 -0.86942,-0.35894 -0.61418,0 -0.98507,0.34697 -0.36692,0.34697 -0.42275,0.9771 z"
         style="line-height:1;stroke-width:0.20419404"
         id="path1305"
         inkscape:connector-curvature="0" />
      <path
         d="m 134.57229,265.21013 q -0.12363,-0.0718 -0.27119,-0.10369 -0.14358,-0.0359 -0.31905,-0.0359 -0.62216,0 -0.95716,0.40679 -0.33102,0.4028 -0.33102,1.16056 v 2.35301 h -0.73781 v -4.46674 h 0.73781 v 0.69394 q 0.23131,-0.40679 0.60221,-0.60221 0.3709,-0.19941 0.90133,-0.19941 0.0758,0 0.1675,0.012 0.0917,0.008 0.2034,0.0279 z"
         style="line-height:1;stroke-width:0.20419404"
         id="path1307"
         inkscape:connector-curvature="0" />
      <path
         d="m 138.99517,266.57408 v 0.35894 h -3.37399 q 0.0479,0.75775 0.45465,1.15657 0.41078,0.39483 1.14062,0.39483 0.42274,0 0.81757,-0.1037 0.39882,-0.10369 0.78966,-0.31107 v 0.69394 q -0.39483,0.1675 -0.8096,0.25524 -0.41477,0.0877 -0.8415,0.0877 -1.06883,0 -1.69497,-0.62215 -0.62216,-0.62216 -0.62216,-1.68301 0,-1.09675 0.59025,-1.73884 0.59424,-0.64608 1.59926,-0.64608 0.90132,0 1.42377,0.58227 0.52644,0.57828 0.52644,1.57532 z m -0.73382,-0.21536 q -0.008,-0.60221 -0.339,-0.96114 -0.32703,-0.35894 -0.86942,-0.35894 -0.61418,0 -0.98507,0.34697 -0.36692,0.34697 -0.42275,0.9771 z"
         style="line-height:1;stroke-width:0.20419404"
         id="path1309"
         inkscape:connector-curvature="0" />
      <path
         d="m 142.78791,265.21013 q -0.12363,-0.0718 -0.27119,-0.10369 -0.14358,-0.0359 -0.31906,-0.0359 -0.62215,0 -0.95715,0.40679 -0.33102,0.4028 -0.33102,1.16056 v 2.35301 h -0.73781 v -4.46674 h 0.73781 v 0.69394 q 0.23131,-0.40679 0.60221,-0.60221 0.3709,-0.19941 0.90133,-0.19941 0.0758,0 0.1675,0.012 0.0917,0.008 0.20339,0.0279 z"
         style="line-height:1;stroke-width:0.20419404"
         id="path1311"
         inkscape:connector-curvature="0" />
    </g>
    <g
       aria-label="Gewichte"
       style="font-style:normal;font-weight:normal;font-size:8.1677618px;line-height:1;font-family:sans-serif;letter-spacing:0px;word-spacing:0px;fill:#000000;fill-opacity:1;stroke:none;stroke-width:0.20419404"
       id="text1094-59"
       transform="translate(2.6726953,-172.91265)">
      <path
         d="m 27.548024,234.85033 v -1.59925 H 26.23193 v -0.66203 h 2.113727 v 2.55641 q -0.466615,0.33102 -1.028947,0.50251 -0.562331,0.1675 -1.200437,0.1675 -1.395858,0 -2.185515,-0.81359 -0.785668,-0.81757 -0.785668,-2.27325 0,-1.45967 0.785668,-2.27325 0.789657,-0.81758 2.185515,-0.81758 0.582272,0 1.104721,0.14358 0.526438,0.14357 0.969125,0.42274 v 0.85746 q -0.446675,-0.37888 -0.949184,-0.57031 -0.502508,-0.19143 -1.056863,-0.19143 -1.092758,0 -1.643124,0.61019 -0.546379,0.61019 -0.546379,1.8186 0,1.20443 0.546379,1.81462 0.550366,0.61019 1.643124,0.61019 0.426733,0 0.761739,-0.0718 0.335006,-0.0758 0.602213,-0.23132 z"
         style="line-height:1;stroke-width:0.20419404"
         id="path1274"
         inkscape:connector-curvature="0" />
      <path
         d="m 33.610035,233.28299 v 0.35893 h -3.373988 q 0.04786,0.75775 0.454651,1.15657 0.410781,0.39483 1.140615,0.39483 0.422745,0 0.817574,-0.1037 0.398816,-0.10369 0.789656,-0.31107 v 0.69394 q -0.394828,0.1675 -0.809597,0.25524 -0.414769,0.0877 -0.841503,0.0877 -1.068828,0 -1.69497,-0.62215 -0.622154,-0.62216 -0.622154,-1.68301 0,-1.09674 0.590249,-1.73884 0.594236,-0.64608 1.599254,-0.64608 0.901325,0 1.423775,0.58227 0.526438,0.57828 0.526438,1.57533 z m -0.733823,-0.21537 q -0.008,-0.60221 -0.338994,-0.96114 -0.327029,-0.35894 -0.86942,-0.35894 -0.614177,0 -0.985077,0.34697 -0.366911,0.34697 -0.422745,0.9771 z"
         style="line-height:1;stroke-width:0.20419404"
         id="path1276"
         inkscape:connector-curvature="0" />
      <path
         d="m 34.387727,231.23307 h 0.733822 l 0.917278,3.48566 0.91329,-3.48566 h 0.865432 l 0.917277,3.48566 0.91329,-3.48566 h 0.733823 l -1.168533,4.46674 h -0.865432 l -0.961147,-3.66113 -0.965136,3.66113 h -0.865432 z"
         style="line-height:1;stroke-width:0.20419404"
         id="path1278"
         inkscape:connector-curvature="0" />
      <path
         d="m 41.498624,231.23307 h 0.733823 v 4.46674 h -0.733823 z m 0,-1.73884 h 0.733823 v 0.92924 h -0.733823 z"
         style="line-height:1;stroke-width:0.20419404"
         id="path1280"
         inkscape:connector-curvature="0" />
      <path
         d="m 46.978363,231.40456 v 0.68596 q -0.311077,-0.17149 -0.626142,-0.25524 -0.311077,-0.0877 -0.63013,-0.0877 -0.713881,0 -1.10871,0.45465 -0.394828,0.45067 -0.394828,1.26824 0,0.81757 0.394828,1.27222 0.394829,0.45067 1.10871,0.45067 0.319053,0 0.63013,-0.0838 0.315065,-0.0877 0.626142,-0.25924 v 0.67799 q -0.307089,0.14358 -0.638106,0.21536 -0.32703,0.0718 -0.697929,0.0718 -1.009006,0 -1.603242,-0.63412 -0.594237,-0.63412 -0.594237,-1.71092 0,-1.09276 0.598225,-1.7189 0.602213,-0.62614 1.647112,-0.62614 0.338994,0 0.662035,0.0718 0.323042,0.0678 0.626142,0.20738 z"
         style="line-height:1;stroke-width:0.20419404"
         id="path1282"
         inkscape:connector-curvature="0" />
      <path
         d="m 51.975533,233.00381 v 2.696 h -0.733822 v -2.67207 q 0,-0.63411 -0.247266,-0.94918 -0.247266,-0.31506 -0.741799,-0.31506 -0.594236,0 -0.937219,0.37887 -0.342982,0.37888 -0.342982,1.03294 v 2.5245 h -0.73781 v -6.20558 h 0.73781 v 2.43278 q 0.263219,-0.4028 0.618166,-0.60221 0.358935,-0.19941 0.82555,-0.19941 0.769716,0 1.164544,0.47858 0.394828,0.47459 0.394828,1.39984 z"
         style="line-height:1;stroke-width:0.20419404"
         id="path1284"
         inkscape:connector-curvature="0" />
      <path
         d="m 54.173014,229.96483 v 1.26824 h 1.511514 v 0.57031 h -1.511514 v 2.4248 q 0,0.54638 0.147562,0.70192 0.15155,0.15554 0.610189,0.15554 h 0.753763 v 0.61417 h -0.753763 q -0.849479,0 -1.17252,-0.31506 -0.323042,-0.31905 -0.323042,-1.15657 v -2.4248 h -0.538402 v -0.57031 h 0.538402 v -1.26824 z"
         style="line-height:1;stroke-width:0.20419404"
         id="path1286"
         inkscape:connector-curvature="0" />
      <path
         d="m 60.474316,233.28299 v 0.35893 h -3.373988 q 0.04786,0.75775 0.454651,1.15657 0.410781,0.39483 1.140615,0.39483 0.422746,0 0.817574,-0.1037 0.398816,-0.10369 0.789657,-0.31107 v 0.69394 q -0.394829,0.1675 -0.809598,0.25524 -0.414769,0.0877 -0.841503,0.0877 -1.068828,0 -1.69497,-0.62215 -0.622154,-0.62216 -0.622154,-1.68301 0,-1.09674 0.590249,-1.73884 0.594236,-0.64608 1.599254,-0.64608 0.901325,0 1.423775,0.58227 0.526438,0.57828 0.526438,1.57533 z m -0.733823,-0.21537 q -0.008,-0.60221 -0.338994,-0.96114 -0.327029,-0.35894 -0.86942,-0.35894 -0.614177,0 -0.985076,0.34697 -0.366912,0.34697 -0.422746,0.9771 z"
         style="line-height:1;stroke-width:0.20419404"
         id="path1288"
         inkscape:connector-curvature="0" />
    </g>
  </g>
</svg>
