<svg viewBox="0 0 330 200" xmlns="http://www.w3.org/2000/svg"><g><g><g><g><g><line x1="51.41600036621094" y1="166.62526413733826" x2="46.41600036621094" y2="166.62526413733826" style="visibility: inherit;" fill="rgb(0, 0, 0)" stroke="rgb(204, 204, 204)" stroke-width="1px"></line><line x1="51.41600036621094" y1="148.7075261469581" x2="46.41600036621094" y2="148.7075261469581" style="visibility: inherit;" fill="rgb(0, 0, 0)" stroke="rgb(204, 204, 204)" stroke-width="1px"></line><line x1="51.41600036621094" y1="130.7897881565778" x2="46.41600036621094" y2="130.7897881565778" style="visibility: inherit;" fill="rgb(0, 0, 0)" stroke="rgb(204, 204, 204)" stroke-width="1px"></line><line x1="51.41600036621094" y1="112.87205016619752" x2="46.41600036621094" y2="112.87205016619752" style="visibility: inherit;" fill="rgb(0, 0, 0)" stroke="rgb(204, 204, 204)" stroke-width="1px"></line><line x1="51.41600036621094" y1="94.95431217581725" x2="46.41600036621094" y2="94.95431217581725" style="visibility: inherit;" fill="rgb(0, 0, 0)" stroke="rgb(204, 204, 204)" stroke-width="1px"></line><line x1="51.41600036621094" y1="77.03657418543696" x2="46.41600036621094" y2="77.03657418543696" style="visibility: inherit;" fill="rgb(0, 0, 0)" stroke="rgb(204, 204, 204)" stroke-width="1px"></line><line x1="51.41600036621094" y1="59.11883619505669" x2="46.41600036621094" y2="59.11883619505669" style="visibility: inherit;" fill="rgb(0, 0, 0)" stroke="rgb(204, 204, 204)" stroke-width="1px"></line><line x1="51.41600036621094" y1="41.2010982046765" x2="46.41600036621094" y2="41.2010982046765" style="visibility: inherit;" fill="rgb(0, 0, 0)" stroke="rgb(204, 204, 204)" stroke-width="1px"></line><line x1="51.41600036621094" y1="23.28336021429621" x2="46.41600036621094" y2="23.28336021429621" style="visibility: inherit;" fill="rgb(0, 0, 0)" stroke="rgb(204, 204, 204)" stroke-width="1px"></line><line x1="51.41600036621094" y1="5.365622223915949" x2="46.41600036621094" y2="5.365622223915949" style="visibility: inherit;" fill="rgb(0, 0, 0)" stroke="rgb(204, 204, 204)" stroke-width="1px"></line></g><g transform="translate(41.41600036621094, 0)"><text style="text-anchor: end; visibility: inherit; font-family: &quot;Helvetica Neue&quot;, sans-serif; font-size: 12px; font-weight: 200;" x="0" y="166.62526413733826" dx="0em" dy="0.3em" fill="rgb(50, 49, 63)" stroke="none" stroke-width="1px">0.68</text><text style="text-anchor: end; visibility: hidden; font-family: &quot;Helvetica Neue&quot;, sans-serif; font-size: 12px; font-weight: 200;" x="0" y="148.7075261469581" dx="0em" dy="0.3em" fill="rgb(50, 49, 63)" stroke="none" stroke-width="1px">0.7</text><text style="text-anchor: end; visibility: inherit; font-family: &quot;Helvetica Neue&quot;, sans-serif; font-size: 12px; font-weight: 200;" x="0" y="130.7897881565778" dx="0em" dy="0.3em" fill="rgb(50, 49, 63)" stroke="none" stroke-width="1px">0.72</text><text style="text-anchor: end; visibility: hidden; font-family: &quot;Helvetica Neue&quot;, sans-serif; font-size: 12px; font-weight: 200;" x="0" y="112.87205016619752" dx="0em" dy="0.3em" fill="rgb(50, 49, 63)" stroke="none" stroke-width="1px">0.74</text><text style="text-anchor: end; visibility: inherit; font-family: &quot;Helvetica Neue&quot;, sans-serif; font-size: 12px; font-weight: 200;" x="0" y="94.95431217581725" dx="0em" dy="0.3em" fill="rgb(50, 49, 63)" stroke="none" stroke-width="1px">0.76</text><text style="text-anchor: end; visibility: hidden; font-family: &quot;Helvetica Neue&quot;, sans-serif; font-size: 12px; font-weight: 200;" x="0" y="77.03657418543696" dx="0em" dy="0.3em" fill="rgb(50, 49, 63)" stroke="none" stroke-width="1px">0.78</text><text style="text-anchor: end; visibility: inherit; font-family: &quot;Helvetica Neue&quot;, sans-serif; font-size: 12px; font-weight: 200;" x="0" y="59.11883619505669" dx="0em" dy="0.3em" fill="rgb(50, 49, 63)" stroke="none" stroke-width="1px">0.8</text><text style="text-anchor: end; visibility: hidden; font-family: &quot;Helvetica Neue&quot;, sans-serif; font-size: 12px; font-weight: 200;" x="0" y="41.2010982046765" dx="0em" dy="0.3em" fill="rgb(50, 49, 63)" stroke="none" stroke-width="1px">0.82</text><text style="text-anchor: end; visibility: inherit; font-family: &quot;Helvetica Neue&quot;, sans-serif; font-size: 12px; font-weight: 200;" x="0" y="23.28336021429621" dx="0em" dy="0.3em" fill="rgb(50, 49, 63)" stroke="none" stroke-width="1px">0.84</text><text style="text-anchor: end; visibility: hidden; font-family: &quot;Helvetica Neue&quot;, sans-serif; font-size: 12px; font-weight: 200;" x="0" y="5.365622223915949" dx="0em" dy="0.3em" fill="rgb(50, 49, 63)" stroke="none" stroke-width="1px">0.86</text></g><line x1="51.41600036621094" y1="0" x2="51.41600036621094" y2="177.95999908447266" fill="rgb(0, 0, 0)" stroke="rgb(204, 204, 204)" stroke-width="1px"></line></g></g><g transform="translate(51, 0)" clip-path="url(#clip_0)"><clipPath id="clip_0"><rect width="278" height="177"></rect></clipPath><g><g><g><line x1="18.214901690615832" y1="0" x2="18.214901690615832" y2="177.95999908447266" fill="rgb(0, 0, 0)" stroke="rgb(60, 60, 60)" stroke-width="1px" opacity="0.25"></line><line x1="42.429984566279025" y1="0" x2="42.429984566279025" y2="177.95999908447266" fill="rgb(0, 0, 0)" stroke="rgb(60, 60, 60)" stroke-width="1px" opacity="0.25"></line><line x1="66.64506744194222" y1="0" x2="66.64506744194222" y2="177.95999908447266" fill="rgb(0, 0, 0)" stroke="rgb(60, 60, 60)" stroke-width="1px" opacity="0.25"></line><line x1="90.8601503176054" y1="0" x2="90.8601503176054" y2="177.95999908447266" fill="rgb(0, 0, 0)" stroke="rgb(60, 60, 60)" stroke-width="1px" opacity="0.25"></line><line x1="115.07523319326857" y1="0" x2="115.07523319326857" y2="177.95999908447266" fill="rgb(0, 0, 0)" stroke="rgb(60, 60, 60)" stroke-width="1px" opacity="0.25"></line><line x1="139.29031606893176" y1="0" x2="139.29031606893176" y2="177.95999908447266" fill="rgb(0, 0, 0)" stroke="rgb(60, 60, 60)" stroke-width="1px" opacity="0.25"></line><line x1="163.50539894459496" y1="0" x2="163.50539894459496" y2="177.95999908447266" fill="rgb(0, 0, 0)" stroke="rgb(60, 60, 60)" stroke-width="1px" opacity="0.25"></line><line x1="187.72048182025813" y1="0" x2="187.72048182025813" y2="177.95999908447266" fill="rgb(0, 0, 0)" stroke="rgb(60, 60, 60)" stroke-width="1px" opacity="0.25"></line><line x1="211.93556469592136" y1="0" x2="211.93556469592136" y2="177.95999908447266" fill="rgb(0, 0, 0)" stroke="rgb(60, 60, 60)" stroke-width="1px" opacity="0.25"></line><line x1="236.15064757158453" y1="0" x2="236.15064757158453" y2="177.95999908447266" fill="rgb(0, 0, 0)" stroke="rgb(60, 60, 60)" stroke-width="1px" opacity="0.25"></line><line x1="260.3657304472477" y1="0" x2="260.3657304472477" y2="177.95999908447266" fill="rgb(0, 0, 0)" stroke="rgb(60, 60, 60)" stroke-width="1px" opacity="0.25"></line></g><g><line x1="0" y1="166.62526413733826" x2="278.58399963378906" y2="166.62526413733826" fill="rgb(0, 0, 0)" stroke="rgb(60, 60, 60)" stroke-width="1px" opacity="0.25"></line><line x1="0" y1="148.7075261469581" x2="278.58399963378906" y2="148.7075261469581" fill="rgb(0, 0, 0)" stroke="rgb(60, 60, 60)" stroke-width="1px" opacity="0.25"></line><line x1="0" y1="130.7897881565778" x2="278.58399963378906" y2="130.7897881565778" fill="rgb(0, 0, 0)" stroke="rgb(60, 60, 60)" stroke-width="1px" opacity="0.25"></line><line x1="0" y1="112.87205016619752" x2="278.58399963378906" y2="112.87205016619752" fill="rgb(0, 0, 0)" stroke="rgb(60, 60, 60)" stroke-width="1px" opacity="0.25"></line><line x1="0" y1="94.95431217581725" x2="278.58399963378906" y2="94.95431217581725" fill="rgb(0, 0, 0)" stroke="rgb(60, 60, 60)" stroke-width="1px" opacity="0.25"></line><line x1="0" y1="77.03657418543696" x2="278.58399963378906" y2="77.03657418543696" fill="rgb(0, 0, 0)" stroke="rgb(60, 60, 60)" stroke-width="1px" opacity="0.25"></line><line x1="0" y1="59.11883619505669" x2="278.58399963378906" y2="59.11883619505669" fill="rgb(0, 0, 0)" stroke="rgb(60, 60, 60)" stroke-width="1px" opacity="0.25"></line><line x1="0" y1="41.2010982046765" x2="278.58399963378906" y2="41.2010982046765" fill="rgb(0, 0, 0)" stroke="rgb(60, 60, 60)" stroke-width="1px" opacity="0.25"></line><line x1="0" y1="23.28336021429621" x2="278.58399963378906" y2="23.28336021429621" fill="rgb(0, 0, 0)" stroke="rgb(60, 60, 60)" stroke-width="1px" opacity="0.25"></line><line x1="0" y1="5.365622223915949" x2="278.58399963378906" y2="5.365622223915949" fill="rgb(0, 0, 0)" stroke="rgb(60, 60, 60)" stroke-width="1px" opacity="0.25"></line></g></g></g><g><g><line x1="0" y1="775.8283558102673" x2="278.58399963378906" y2="775.8283558102673" fill="rgb(0, 0, 0)" stroke="rgb(153, 153, 153)" stroke-width="1.5px"></line></g></g><g><g><line x1="18.214901690615832" y1="0" x2="18.214901690615832" y2="177.95999908447266" fill="rgb(0, 0, 0)" stroke="rgb(153, 153, 153)" stroke-width="1.5px"></line></g></g><g><g><g><g><g><path style="fill: none;" stroke="rgb(204, 51, 17)" stroke-width="2px" d="M20.02667419137295,-34.569915981954466L23.743205111129736,16.477845431217588L27.51300921321298,56.81532581743035L29.116047699581888,87.24517207052087L32.90909828122577,109.69172284993775L36.72103662751267,114.53182962951338L38.32649662216914,123.34331883123977L39.924207790305395,124.40099916121542L41.53160499159192,134.14230504480147L45.30964222185288,129.31605688038675L48.69636371284314,142.1633298544966L50.19140292958659,144.59329673303012L53.84981765044178,138.42239439000485L55.47949272797391,143.34545971335928L59.26382587978256,151.4086854240568L60.862989952891354,155.46983906028285L64.65604053453524,150.5546696842341L66.28716851703992,148.71266202076245L70.07198597050606,145.7370236463457L71.66436982040968,157.6613243461335L75.46129481531366,157.7299970028575L77.09920302102353,158.6482794073568L78.73711122673338,163.89599972580473L80.39536010205879,157.45138320205842L84.45622950030751,161.1153044930964L86.53824232595703,160.17403916095702L88.44154783998415,165.49830186373345L92.84045979517714,156.01412656071568L94.77911933020272,164.14013545590657L99.1857801119159,161.07363673739292L101.14720182484464,157.86915783212035L105.62699215684232,159.58918134605096L107.61601906424929,153.77969118623815L112.12341459072525,156.0830493146633L114.11680021304983,157.46042911443152L115.07523319326857,153.44666292168654L117.18581981671137,145.56066760669114L121.58182596195928,157.1889070314727L123.55874532792842,151.96154723722677L128.03417694500848,158.9948253005558L130.04402882368854,156.11895941859564L132.0509748924235,151.06937222870803L136.58452270840516,150.88078955641478L141.09724555311377,143.92566618664313L143.09450558869844,149.11427346819664L145.10290456240594,150.87424258081816L147.11759945766116,143.31794459868658L151.64242984380758,147.1124906281832L153.66099915232283,139.34234207379333L158.17856501360657,128.2231152361822L160.18018376410888,132.61760764946146L163.50539894459496,132.10183852879106L165.35688418126819,125.8913367498823L169.1339528082141,132.89830286273602L172.9352365180357,122.48063460555491L176.8048067615667,137.2072834674547L178.46402424020715,129.56783806341795L182.33892180197077,128.2979645100595L184.0305874916646,133.8220449024441L187.72048182025813,137.66507936105722L189.59182342488938,131.27636473588134L193.39988735791619,122.79663088006012L195.0474815967763,113.17305641377908L196.7037932654717,126.93421712241349L200.55108563275707,137.17445219994102L202.21611473128763,136.57113574732867L202.24953154565603,134.36521362236053L203.44866244965888,136.25700760242358L204.8909127857334,125.25649445562743L208.63456459831093,122.69466904232877L210.29378207695137,121.14345509335456L211.93556469592136,119.80744951870619L213.12646247174646,123.58041209434363L214.57113431610853,125.01086588689775L216.2138855383935,123.00404576202511L219.96625478080625,118.68587233435328L221.64436002408974,124.3716882828385L225.49116808971758,125.02511844802399L227.1900983042741,122.79643806410252L228.87546807242026,116.112620876311L232.74842842755385,124.31650209689775L234.4522016586855,123.81124759726954L238.35422011326986,126.81229812248992L240.03765267478596,122.48045677669099L243.97260364208125,116.75370726528047L245.7199640223891,117.24566813979996L249.63651152669885,124.24748395244302L251.34948648932325,124.43108746007296L253.05664983205753,127.12702236912264L256.889897451275,119.89760449075769L260.3657304472477,115.15886304167444" fill="none"></path></g><g><path style="fill: none;" stroke="rgb(0, 119, 187)" stroke-width="2px" d="M51.39537685016456,-22.07539754635951L53.096728573008654,7.47856455635619L56.98809239112773,34.481251983795545L60.79034470426436,56.29360902622959L62.45246799284988,76.6201189420478L66.34673762091404,94.34828525046898L70.1906398765968,93.98878890824612L71.81353473092376,96.88987749771148L73.44950573000357,106.97239682095427L77.19654765418369,110.09136109221474L80.99298834743016,119.43905665063647L84.83301618985283,127.30498400662835L86.44477210605697,138.9164411158613L90.26881799378171,151.6557608709403L91.89655586468378,151.93497017118833L95.67023438002713,151.4226391154088L97.33623208187277,148.30422829168157L101.21742556518406,138.52894918781337L102.93960225930122,153.5826886417818L106.82709166416018,149.4353854669065L110.58720973309318,161.54488852962106L112.22899235206313,161.08103780127135L115.98329880110595,159.32880755629333L117.57035533277693,160.85862866591896L119.15886476942042,160.45564311220346L122.83277714331604,156.4673978337758L124.01495748930591,163.54269513843403L127.64915712728545,158.99403734186436L129.32145075067874,158.87904512349184L131.01941236192025,164.13871668633774L134.9248209281072,156.8725046411413L136.67702432499019,153.7126534068255L140.65846825140673,153.29166633043084L142.41454606154986,155.1486557851476L146.4037388144866,154.08344319835356L148.18209450087528,150.22036046901388L152.18630060519496,140.69460425901966L153.95642316340593,146.4829014993063L157.95723915612302,155.4864163867903L159.72639311101895,155.56220798947518L163.7184916739008,154.41810229371927L165.47699099233145,154.89460546186376L167.24711355054245,153.8967949122169L168.4137962434919,156.0132778931494L169.87590294752442,147.7984336774086L173.6316623015398,150.9825684757141L175.31945357797352,145.68633892047725L179.189508123162,150.52272616968287L180.90054587915637,149.60883539794682L184.78900388733035,143.44606385072447L186.49665153172214,135.41962001308357L190.35508283713028,137.8046116120807L192.0356095887013,143.15075866873127L195.8906507825069,140.38897041167394L197.59684552192613,137.3698593237794L201.5545586671245,140.8177049099234L203.3101521756101,141.08363997313708L207.27803565561626,147.51671016468964L209.01231989117127,143.5076299135599L210.75386865158896,138.9847610865762L212.4963860153217,148.96234225076833L216.46475379698538,139.3166694795216L220.431184372019,144.78949588991645L222.17418603740924,141.88847447365822L223.9288109425798,140.77632537485084L227.9049275507637,143.22766686485318L229.6580995509617,146.53349705565188L231.40933434452967,150.66173478527577L232.6263844098605,142.8752148243907L234.08945971720806,135.6010190662786L237.92173873311054,142.00394416465107L239.6226061542971,145.28357841567777L243.56772745640015,144.0152715317247L245.3107291217904,139.0517844954985L247.0605110103858,140.00223684533262L251.0656857180205,144.13159568442634L252.83387106960143,135.2122580628953L254.6078680410725,141.20916482365286L258.59367068240664,143.04069840825275L260.3361880461394,125.59275039791008L262.1009832861177,130.78029669947304L263.8454378564805,137.18015361496032L267.8525497707452,136.89065743752835" fill="none"></path></g></g></g></g><g opacity="0.2"><g><g><g><path style="fill: none;" stroke="rgb(204, 51, 17)" stroke-width="2px" d="M20.02667419137295,-34.569915981954466L23.743205111129736,47.106502279120974L27.51300921321298,95.53930698819462L29.116047699581888,123.0306712641552L32.90909828122577,138.99793954754477L36.72103662751267,121.22743974410696L38.32649662216914,135.9438893735355L39.924207790305395,125.94310723605105L41.53160499159192,148.50883907183604L45.30964222185288,122.14964082649712L48.69636371284314,161.31771549534545L50.19140292958659,148.22502327838475L53.84981765044178,129.18618994229314L55.47949272797391,150.72041290091943L59.26382587978256,163.49404597096174L60.862989952891354,161.55870527443213L64.65604053453524,143.18399555511448L66.28716851703992,145.95011821110128L70.07198597050606,141.27401939327714L71.66436982040968,175.546685467499L75.46129481531366,157.83300222177184L77.09920302102353,160.02567279763196L78.73711122673338,171.76747659639315L80.39536010205879,147.7845347590659L84.45622950030751,166.611160388069L86.53824232595703,158.7621451768146L88.44154783998415,173.48468229456932L92.84045979517714,141.7878781666321L94.77911933020272,176.3291413134899L99.1857801119159,156.47389035442995L101.14720182484464,153.06244053685168L105.62699215684232,162.1692162747197L107.61601906424929,145.0654566400557L112.12341459072525,159.53808634231612L114.11680021304983,159.5264987548883L115.07523319326857,147.42601373606837L117.18581981671137,133.73167475620727L121.58182596195928,174.63126606070026L123.55874532792842,144.12050757497312L128.03417694500848,169.54474237204514L130.04402882368854,151.80516060142168L132.0509748924235,143.49499144995178L136.58452270840516,150.59791554811093L141.09724555311377,133.492981134998L143.09450558869844,156.89718438917848L145.10290456240594,153.5141962494759L147.11759945766116,131.9834976261963L151.64242984380758,152.80430967221508L153.66099915232283,127.6871192424704L158.17856501360657,111.54427497998998L160.18018376410888,139.20934626932723L163.50539894459496,131.32818484778915L165.35688418126819,116.57558408154657L169.1339528082141,143.40875203199812L172.9352365180357,106.85413221979937L176.8048067615667,159.29725676029068L178.46402424020715,118.10866995736714L182.33892180197077,126.39315418002234L184.0305874916646,142.10816549101986L187.72048182025813,143.42963104897638L189.59182342488938,121.69329279811807L193.39988735791619,110.07703009632847L195.0474815967763,98.73769471435794L196.7037932654717,147.57595818536493L200.55108563275707,152.53480481623228L202.21611473128763,135.6661610684104L202.24953154565603,131.05633043490855L203.44866244965888,139.0946985725182L204.8909127857334,108.75572473543316L208.63456459831093,118.85193092238096L210.29378207695137,118.8166341698934L211.93556469592136,117.80344115673356L213.12646247174646,129.23985595779993L214.57113431610853,127.15654657572874L216.2138855383935,119.99381557471628L219.96625478080625,112.20861219284556L221.64436002408974,132.9004122055664L225.49116808971758,126.00526369580217L227.1900983042741,119.45341748822014L228.87546807242026,106.08689509462383L232.74842842755385,136.62232392777796L234.4522016586855,123.05336584782722L238.35422011326986,131.3138739103207L240.03765267478596,115.98269475799256L243.97260364208125,108.16358299816481L245.7199640223891,117.98360945157921L249.63651152669885,134.7502076714076L251.34948648932325,124.70649272151769L253.05664983205753,131.17092473269713L256.889897451275,109.05347767321008L260.3657304472477,108.05075086804956" fill="none"></path></g><g><path style="fill: none;" stroke="rgb(0, 119, 187)" stroke-width="2px" d="M47.58101699559009,-7.626799448489578L51.39537685016456,44.961356831421085L53.096728573008654,51.648676353769986L56.98809239112773,74.8971146654298L60.79034470426436,88.96941191171578L62.45246799284988,107.08599076639682L66.34673762091404,120.9280314366975L70.1906398765968,93.44969652171568L71.81353473092376,101.24077379583093L73.44950573000357,122.09463983548022L77.19654765418369,114.7695224134169L80.99298834743016,133.46008733842865L84.83301618985283,139.1036162089258L86.44477210605697,156.33339753174505L90.26881799378171,170.7645895941714L91.89655586468378,152.35378213706014L95.67023438002713,150.65414471659713L97.33623208187277,143.62662003524952L101.21742556518406,123.86604553936722L102.93960225930122,176.16328395611274L106.82709166416018,143.2144329967452L110.58720973309318,179.70913910804978L112.22899235206313,160.3852618010376L115.98329880110595,156.70046239800735L117.57035533277693,163.15336022077938L119.15886476942042,159.8511647989492L122.83277714331604,150.48503001897527L124.01495748930591,174.15564098595507L127.64915712728545,152.17105068923507L129.32145075067874,158.70655679657327L131.01941236192025,172.02822401302956L134.9248209281072,145.97318658791616L136.67702432499019,148.97287655915338L140.65846825140673,152.66018571614262L142.41454606154986,157.93413996641846L146.4037388144866,152.48562431843948L148.18209450087528,144.4257363756067L152.18630060519496,126.40596994491948L153.95642316340593,155.1653473594114L157.95723915612302,168.99168871771306L159.72639311101895,155.6758953935013L163.7184916739008,152.70194375009916L165.47699099233145,155.60936021407696L167.24711355054245,152.40007908775107L168.4137962434919,159.18800236454254L169.87590294752442,135.47616735381027L173.6316623015398,155.75877067316947L175.31945357797352,137.7419945876249L179.189508123162,157.77730704348969L180.90054587915637,148.2379992403431L184.78900388733035,134.20190652989155L186.49665153172214,123.37995425662271L190.35508283713028,141.38209901057638L192.0356095887013,151.16997925370708L195.8906507825069,136.24628802608765L197.59684552192613,132.84119269193752L201.5545586671245,145.9894732891396L203.3101521756101,141.48254256795772L207.27803565561626,157.16631545201844L209.01231989117127,137.4940095368652L210.75386865158896,132.20045784610085L212.4963860153217,163.92871399705646L216.46475379698538,124.84816032265151L220.431184372019,152.9987355055088L222.17418603740924,137.53694234927065L223.9288109425798,139.1081017266398L227.9049275507637,146.90467909985674L229.6580995509617,151.4922423418498L231.40933434452967,156.85409137971183L232.6263844098605,131.19543488306294L234.08945971720806,124.68972542911058L237.92173873311054,151.60833181220974L239.6226061542971,150.20302979221776L243.56772745640015,142.11281120579505L245.3107291217904,131.60655394115915L247.0605110103858,141.42791537008367L251.0656857180205,150.32563394306706L252.83387106960143,121.83325163059894L254.6078680410725,150.20452496478907L258.59367068240664,145.78799878515247L260.3361880461394,99.420828382396L262.1009832861177,138.56161615181753L263.8454378564805,146.77993898819122L267.8525497707452,136.45641317138038" fill="none"></path></g></g></g></g></g></g><g transform="translate(51, 177)" clip-path="url(#clip_1)"><clipPath id="clip_1"><rect width="278" height="22"></rect></clipPath><g><g><line x1="18.214901690615832" y1="0" x2="18.214901690615832" y2="5" style="visibility: inherit;" fill="rgb(0, 0, 0)" stroke="rgb(204, 204, 204)" stroke-width="1px"></line><line x1="42.429984566279025" y1="0" x2="42.429984566279025" y2="5" style="visibility: inherit;" fill="rgb(0, 0, 0)" stroke="rgb(204, 204, 204)" stroke-width="1px"></line><line x1="66.64506744194222" y1="0" x2="66.64506744194222" y2="5" style="visibility: inherit;" fill="rgb(0, 0, 0)" stroke="rgb(204, 204, 204)" stroke-width="1px"></line><line x1="90.8601503176054" y1="0" x2="90.8601503176054" y2="5" style="visibility: inherit;" fill="rgb(0, 0, 0)" stroke="rgb(204, 204, 204)" stroke-width="1px"></line><line x1="115.07523319326857" y1="0" x2="115.07523319326857" y2="5" style="visibility: inherit;" fill="rgb(0, 0, 0)" stroke="rgb(204, 204, 204)" stroke-width="1px"></line><line x1="139.29031606893176" y1="0" x2="139.29031606893176" y2="5" style="visibility: inherit;" fill="rgb(0, 0, 0)" stroke="rgb(204, 204, 204)" stroke-width="1px"></line><line x1="163.50539894459496" y1="0" x2="163.50539894459496" y2="5" style="visibility: inherit;" fill="rgb(0, 0, 0)" stroke="rgb(204, 204, 204)" stroke-width="1px"></line><line x1="187.72048182025813" y1="0" x2="187.72048182025813" y2="5" style="visibility: inherit;" fill="rgb(0, 0, 0)" stroke="rgb(204, 204, 204)" stroke-width="1px"></line><line x1="211.93556469592136" y1="0" x2="211.93556469592136" y2="5" style="visibility: inherit;" fill="rgb(0, 0, 0)" stroke="rgb(204, 204, 204)" stroke-width="1px"></line><line x1="236.15064757158453" y1="0" x2="236.15064757158453" y2="5" style="visibility: inherit;" fill="rgb(0, 0, 0)" stroke="rgb(204, 204, 204)" stroke-width="1px"></line><line x1="260.3657304472477" y1="0" x2="260.3657304472477" y2="5" style="visibility: inherit;" fill="rgb(0, 0, 0)" stroke="rgb(204, 204, 204)" stroke-width="1px"></line></g><g transform="translate(0, 8)"><text style="text-anchor: middle; visibility: inherit; font-family: &quot;Helvetica Neue&quot;, sans-serif; font-size: 12px; font-weight: 200;" x="18.214901690615832" y="0" dx="0em" dy="0.95em" fill="rgb(50, 49, 63)" stroke="none" stroke-width="1px">0</text><text style="text-anchor: middle; visibility: hidden; font-family: &quot;Helvetica Neue&quot;, sans-serif; font-size: 12px; font-weight: 200;" x="42.429984566279025" y="0" dx="0em" dy="0.95em" fill="rgb(50, 49, 63)" stroke="none" stroke-width="1px">50k</text><text style="text-anchor: middle; visibility: inherit; font-family: &quot;Helvetica Neue&quot;, sans-serif; font-size: 12px; font-weight: 200;" x="66.64506744194222" y="0" dx="0em" dy="0.95em" fill="rgb(50, 49, 63)" stroke="none" stroke-width="1px">100k</text><text style="text-anchor: middle; visibility: hidden; font-family: &quot;Helvetica Neue&quot;, sans-serif; font-size: 12px; font-weight: 200;" x="90.8601503176054" y="0" dx="0em" dy="0.95em" fill="rgb(50, 49, 63)" stroke="none" stroke-width="1px">150k</text><text style="text-anchor: middle; visibility: inherit; font-family: &quot;Helvetica Neue&quot;, sans-serif; font-size: 12px; font-weight: 200;" x="115.07523319326857" y="0" dx="0em" dy="0.95em" fill="rgb(50, 49, 63)" stroke="none" stroke-width="1px">200k</text><text style="text-anchor: middle; visibility: hidden; font-family: &quot;Helvetica Neue&quot;, sans-serif; font-size: 12px; font-weight: 200;" x="139.29031606893176" y="0" dx="0em" dy="0.95em" fill="rgb(50, 49, 63)" stroke="none" stroke-width="1px">250k</text><text style="text-anchor: middle; visibility: inherit; font-family: &quot;Helvetica Neue&quot;, sans-serif; font-size: 12px; font-weight: 200;" x="163.50539894459496" y="0" dx="0em" dy="0.95em" fill="rgb(50, 49, 63)" stroke="none" stroke-width="1px">300k</text><text style="text-anchor: middle; visibility: hidden; font-family: &quot;Helvetica Neue&quot;, sans-serif; font-size: 12px; font-weight: 200;" x="187.72048182025813" y="0" dx="0em" dy="0.95em" fill="rgb(50, 49, 63)" stroke="none" stroke-width="1px">350k</text><text style="text-anchor: middle; visibility: inherit; font-family: &quot;Helvetica Neue&quot;, sans-serif; font-size: 12px; font-weight: 200;" x="211.93556469592136" y="0" dx="0em" dy="0.95em" fill="rgb(50, 49, 63)" stroke="none" stroke-width="1px">400k</text><text style="text-anchor: middle; visibility: hidden; font-family: &quot;Helvetica Neue&quot;, sans-serif; font-size: 12px; font-weight: 200;" x="236.15064757158453" y="0" dx="0em" dy="0.95em" fill="rgb(50, 49, 63)" stroke="none" stroke-width="1px">450k</text><text style="text-anchor: middle; visibility: inherit; font-family: &quot;Helvetica Neue&quot;, sans-serif; font-size: 12px; font-weight: 200;" x="260.3657304472477" y="0" dx="0em" dy="0.95em" fill="rgb(50, 49, 63)" stroke="none" stroke-width="1px">500k</text></g><line x1="0" y1="0" x2="278.58399963378906" y2="0" fill="rgb(0, 0, 0)" stroke="rgb(204, 204, 204)" stroke-width="1px"></line></g></g></g></g></svg>