<svg viewBox="0 0 330 200" xmlns="http://www.w3.org/2000/svg"><g><g><g><g><g><line x1="51.41600036621094" y1="160.47010863904455" x2="46.41600036621094" y2="160.47010863904455" style="visibility: inherit;" fill="rgb(0, 0, 0)" stroke="rgb(204, 204, 204)" stroke-width="1px"></line><line x1="51.41600036621094" y1="140.4823479741258" x2="46.41600036621094" y2="140.4823479741258" style="visibility: inherit;" fill="rgb(0, 0, 0)" stroke="rgb(204, 204, 204)" stroke-width="1px"></line><line x1="51.41600036621094" y1="120.49458730920688" x2="46.41600036621094" y2="120.49458730920688" style="visibility: inherit;" fill="rgb(0, 0, 0)" stroke="rgb(204, 204, 204)" stroke-width="1px"></line><line x1="51.41600036621094" y1="100.506826644288" x2="46.41600036621094" y2="100.506826644288" style="visibility: inherit;" fill="rgb(0, 0, 0)" stroke="rgb(204, 204, 204)" stroke-width="1px"></line><line x1="51.41600036621094" y1="80.5190659793691" x2="46.41600036621094" y2="80.5190659793691" style="visibility: inherit;" fill="rgb(0, 0, 0)" stroke="rgb(204, 204, 204)" stroke-width="1px"></line><line x1="51.41600036621094" y1="60.53130531445021" x2="46.41600036621094" y2="60.53130531445021" style="visibility: inherit;" fill="rgb(0, 0, 0)" stroke="rgb(204, 204, 204)" stroke-width="1px"></line><line x1="51.41600036621094" y1="40.54354464953133" x2="46.41600036621094" y2="40.54354464953133" style="visibility: inherit;" fill="rgb(0, 0, 0)" stroke="rgb(204, 204, 204)" stroke-width="1px"></line><line x1="51.41600036621094" y1="20.555783984612532" x2="46.41600036621094" y2="20.555783984612532" style="visibility: inherit;" fill="rgb(0, 0, 0)" stroke="rgb(204, 204, 204)" stroke-width="1px"></line><line x1="51.41600036621094" y1="0.5680233196936513" x2="46.41600036621094" y2="0.5680233196936513" style="visibility: inherit;" fill="rgb(0, 0, 0)" stroke="rgb(204, 204, 204)" stroke-width="1px"></line></g><g transform="translate(41.41600036621094, 0)"><text style="text-anchor: end; visibility: inherit; font-family: &quot;Helvetica Neue&quot;, sans-serif; font-size: 12px; font-weight: 200;" x="0" y="160.47010863904455" dx="0em" dy="0.3em" fill="rgb(50, 49, 63)" stroke="none" stroke-width="1px">0.68</text><text style="text-anchor: end; visibility: hidden; font-family: &quot;Helvetica Neue&quot;, sans-serif; font-size: 12px; font-weight: 200;" x="0" y="140.4823479741258" dx="0em" dy="0.3em" fill="rgb(50, 49, 63)" stroke="none" stroke-width="1px">0.7</text><text style="text-anchor: end; visibility: inherit; font-family: &quot;Helvetica Neue&quot;, sans-serif; font-size: 12px; font-weight: 200;" x="0" y="120.49458730920688" dx="0em" dy="0.3em" fill="rgb(50, 49, 63)" stroke="none" stroke-width="1px">0.72</text><text style="text-anchor: end; visibility: hidden; font-family: &quot;Helvetica Neue&quot;, sans-serif; font-size: 12px; font-weight: 200;" x="0" y="100.506826644288" dx="0em" dy="0.3em" fill="rgb(50, 49, 63)" stroke="none" stroke-width="1px">0.74</text><text style="text-anchor: end; visibility: inherit; font-family: &quot;Helvetica Neue&quot;, sans-serif; font-size: 12px; font-weight: 200;" x="0" y="80.5190659793691" dx="0em" dy="0.3em" fill="rgb(50, 49, 63)" stroke="none" stroke-width="1px">0.76</text><text style="text-anchor: end; visibility: hidden; font-family: &quot;Helvetica Neue&quot;, sans-serif; font-size: 12px; font-weight: 200;" x="0" y="60.53130531445021" dx="0em" dy="0.3em" fill="rgb(50, 49, 63)" stroke="none" stroke-width="1px">0.78</text><text style="text-anchor: end; visibility: inherit; font-family: &quot;Helvetica Neue&quot;, sans-serif; font-size: 12px; font-weight: 200;" x="0" y="40.54354464953133" dx="0em" dy="0.3em" fill="rgb(50, 49, 63)" stroke="none" stroke-width="1px">0.8</text><text style="text-anchor: end; visibility: hidden; font-family: &quot;Helvetica Neue&quot;, sans-serif; font-size: 12px; font-weight: 200;" x="0" y="20.555783984612532" dx="0em" dy="0.3em" fill="rgb(50, 49, 63)" stroke="none" stroke-width="1px">0.82</text><text style="text-anchor: end; visibility: hidden; font-family: &quot;Helvetica Neue&quot;, sans-serif; font-size: 12px; font-weight: 200;" x="0" y="0.5680233196936513" dx="0em" dy="0.3em" fill="rgb(50, 49, 63)" stroke="none" stroke-width="1px">0.84</text></g><line x1="51.41600036621094" y1="0" x2="51.41600036621094" y2="177.95999908447266" fill="rgb(0, 0, 0)" stroke="rgb(204, 204, 204)" stroke-width="1px"></line></g></g><g transform="translate(51, 0)" clip-path="url(#clip_0)"><clipPath id="clip_0"><rect width="278" height="177"></rect></clipPath><g><g><g><line x1="13.887324619579454" y1="0" x2="13.887324619579454" y2="177.95999908447266" fill="rgb(0, 0, 0)" stroke="rgb(60, 60, 60)" stroke-width="1px" opacity="0.25"></line><line x1="38.5029061279055" y1="0" x2="38.5029061279055" y2="177.95999908447266" fill="rgb(0, 0, 0)" stroke="rgb(60, 60, 60)" stroke-width="1px" opacity="0.25"></line><line x1="63.11848763623154" y1="0" x2="63.11848763623154" y2="177.95999908447266" fill="rgb(0, 0, 0)" stroke="rgb(60, 60, 60)" stroke-width="1px" opacity="0.25"></line><line x1="87.73406914455758" y1="0" x2="87.73406914455758" y2="177.95999908447266" fill="rgb(0, 0, 0)" stroke="rgb(60, 60, 60)" stroke-width="1px" opacity="0.25"></line><line x1="112.34965065288362" y1="0" x2="112.34965065288362" y2="177.95999908447266" fill="rgb(0, 0, 0)" stroke="rgb(60, 60, 60)" stroke-width="1px" opacity="0.25"></line><line x1="136.96523216120966" y1="0" x2="136.96523216120966" y2="177.95999908447266" fill="rgb(0, 0, 0)" stroke="rgb(60, 60, 60)" stroke-width="1px" opacity="0.25"></line><line x1="161.5808136695357" y1="0" x2="161.5808136695357" y2="177.95999908447266" fill="rgb(0, 0, 0)" stroke="rgb(60, 60, 60)" stroke-width="1px" opacity="0.25"></line><line x1="186.19639517786175" y1="0" x2="186.19639517786175" y2="177.95999908447266" fill="rgb(0, 0, 0)" stroke="rgb(60, 60, 60)" stroke-width="1px" opacity="0.25"></line><line x1="210.8119766861878" y1="0" x2="210.8119766861878" y2="177.95999908447266" fill="rgb(0, 0, 0)" stroke="rgb(60, 60, 60)" stroke-width="1px" opacity="0.25"></line><line x1="235.42755819451386" y1="0" x2="235.42755819451386" y2="177.95999908447266" fill="rgb(0, 0, 0)" stroke="rgb(60, 60, 60)" stroke-width="1px" opacity="0.25"></line><line x1="260.0431397028399" y1="0" x2="260.0431397028399" y2="177.95999908447266" fill="rgb(0, 0, 0)" stroke="rgb(60, 60, 60)" stroke-width="1px" opacity="0.25"></line></g><g><line x1="0" y1="160.47010863904455" x2="278.58399963378906" y2="160.47010863904455" fill="rgb(0, 0, 0)" stroke="rgb(60, 60, 60)" stroke-width="1px" opacity="0.25"></line><line x1="0" y1="140.4823479741258" x2="278.58399963378906" y2="140.4823479741258" fill="rgb(0, 0, 0)" stroke="rgb(60, 60, 60)" stroke-width="1px" opacity="0.25"></line><line x1="0" y1="120.49458730920688" x2="278.58399963378906" y2="120.49458730920688" fill="rgb(0, 0, 0)" stroke="rgb(60, 60, 60)" stroke-width="1px" opacity="0.25"></line><line x1="0" y1="100.506826644288" x2="278.58399963378906" y2="100.506826644288" fill="rgb(0, 0, 0)" stroke="rgb(60, 60, 60)" stroke-width="1px" opacity="0.25"></line><line x1="0" y1="80.5190659793691" x2="278.58399963378906" y2="80.5190659793691" fill="rgb(0, 0, 0)" stroke="rgb(60, 60, 60)" stroke-width="1px" opacity="0.25"></line><line x1="0" y1="60.53130531445021" x2="278.58399963378906" y2="60.53130531445021" fill="rgb(0, 0, 0)" stroke="rgb(60, 60, 60)" stroke-width="1px" opacity="0.25"></line><line x1="0" y1="40.54354464953133" x2="278.58399963378906" y2="40.54354464953133" fill="rgb(0, 0, 0)" stroke="rgb(60, 60, 60)" stroke-width="1px" opacity="0.25"></line><line x1="0" y1="20.555783984612532" x2="278.58399963378906" y2="20.555783984612532" fill="rgb(0, 0, 0)" stroke="rgb(60, 60, 60)" stroke-width="1px" opacity="0.25"></line><line x1="0" y1="0.5680233196936513" x2="278.58399963378906" y2="0.5680233196936513" fill="rgb(0, 0, 0)" stroke="rgb(60, 60, 60)" stroke-width="1px" opacity="0.25"></line></g></g></g><g><g><line x1="0" y1="840.0539712462863" x2="278.58399963378906" y2="840.0539712462863" fill="rgb(0, 0, 0)" stroke="rgb(153, 153, 153)" stroke-width="1.5px"></line></g></g><g><g><line x1="13.887324619579454" y1="0" x2="13.887324619579454" y2="177.95999908447266" fill="rgb(0, 0, 0)" stroke="rgb(153, 153, 153)" stroke-width="1.5px"></line></g></g><g><g><g><g><g><path style="fill: none;" stroke="rgb(204, 51, 17)" stroke-width="2px" d="M19.00933481983194,-27.73992223432367L20.654640287848448,7.685201329534294L22.31471510476996,38.711233682953576L23.9742976100613,57.78845609905582L27.813836013729993,78.67465978374531L31.64648205457636,83.12868642654053L33.29671063889454,103.1611969740366L37.13575673093306,112.91625076137471L38.77023134308592,128.00274377425427L42.609769746754615,133.33389137732104L46.46752368073947,132.72485344394954L48.11479839527665,146.05591163703545L49.758134616772494,144.5728499414656L51.39950159174767,148.81734872818996L55.2444554233482,153.89793106858758L56.86908380289772,162.55473807843111L60.71945306243008,152.60808691175066L64.55997608935911,156.7007719426914L66.20922005041696,154.29765780525912L70.03595835170132,159.8834345239209L71.67929457319717,158.142592642767L73.53777097707578,151.4516743272709L75.12744523088348,140.80883168773124L79.03541495114531,153.7457818612288L80.77179807074265,154.72497500974245L82.41119579919716,148.55388168468727L84.07176292774884,146.71209073676997L88.16681106747394,134.45568616285988L92.34358293780672,147.85527874922525L94.15479742518934,146.40689535922513L98.19372203907548,137.77694277200783L99.95127455876995,141.43598104719433L104.0827537591274,138.29002147383875L105.79402898558624,130.27664584880426L107.4885656166194,136.67136781345405L111.39604302525106,133.26025592531215L113.0748256841189,133.71530892850683L114.28591229432854,126.35477520789021L115.73724698005945,122.05937836440454L119.58466236981081,128.1112804937086L121.3067684521333,121.0714753319183L125.26643089356263,115.34299560322837L127.01561411554428,131.85981465199893L130.9944767105501,117.00911008003331L132.76384470936858,124.88468752731565L134.52878190351555,117.72218135576891L138.49632133102753,117.54603245547638L140.26864319962704,125.22154237638748L143.96048811424575,119.1055548782173L147.93885839762143,127.41135639957231L149.6890262428634,123.62306706014672L153.7476433219562,121.3064895569965L155.52045750218585,120.92658092383013L159.61452101865063,103.59065768914795L161.39816605474394,108.1435018859566L161.5808136695357,116.55484267282019L163.51805993424097,106.11099252529131L167.46886076632728,102.68520247555458L169.16930513692247,107.07390824630674L173.08219797348596,114.96063912582096L174.83384275361843,97.97912706643056L176.58204135233976,103.54666761924533L180.6416430546929,108.36343413528179L182.4031340674287,112.57502578146646L186.19639517786175,113.75562101989429L188.13610300071784,102.1269577041164L189.79470088274886,95.53192525785379L193.77208654286417,90.91934617976055L195.50994659735198,91.1776949127237L197.236483484346,85.32139432032157L201.26359261910812,81.96320602156226L203.00588347826744,79.35368358219968L207.05317738986642,76.87495688306272L208.7939913141352,87.60808302080481L210.56286700132353,87.70201872670006L210.8119766861878,87.79850526868324L213.90418603526373,87.44887943806415L215.3737362513108,83.42376273353533L216.99836463086032,70.4790181453133L218.62446994530032,79.72712779489162L222.47090071179136,71.5355232436252L226.3498240458734,81.07608715112644L228.05322228624954,76.63416441381531L231.98629989964988,76.81384354562346L233.70151361915003,70.21820672660188L237.621791130166,70.55097180053508L239.3232201240215,79.5636699243882L243.24300532340735,77.84255160324032L244.96511140572983,65.53355479111302L248.87849655392353,72.29919469089727L250.597648766465,72.49815623452741L252.31630866737635,69.8940764870831L256.24347854121464,67.94817642296813L257.95573839093385,63.91440672410209L260.0431397028399,68.78026120198551" fill="none"></path></g><g><path style="fill: none;" stroke="rgb(0, 119, 187)" stroke-width="2px" d="M19.0231195454766,-15.52290780818106L20.68024049261711,2.232971961233062L22.319145909441456,17.799784154725643L23.974789921691464,44.682700495468765L27.85420556740365,55.35152864479181L29.517726565736325,74.59718057390666L33.40058839285967,107.37090388017994L37.287881024654524,116.71537565563132L38.95730976254919,124.11526028143513L42.84706395249488,138.7529168342934L44.522400429951546,142.3091588800439L48.39246215469056,140.54175950312583L50.05549084139307,150.0320672743642L53.63902719737518,157.49237799260263L57.42194976357472,145.14484460837883L61.24278032529709,146.30226653028012L62.88907041657394,153.39336888641193L66.70350092710414,148.69578415126352L70.50857751666119,150.95826207550797L72.13517514273137,157.92015476259647L75.97372892313973,146.4532204065398L77.60672660040208,142.52135100787103L79.24267814744543,139.57809034191055L83.07384725340128,133.63823825052376L84.70832186555414,143.26397855112396L86.36101200802315,148.8632851568789L90.21876594200802,148.8456364364305L91.88770236827253,149.33520549068874L95.74348705573671,155.65958140001652L97.39666950983589,151.48951272690857L99.0478827174144,157.37567103622305L100.69269587380074,145.1323323328627L104.54848056126494,151.19567237062938L106.22923246665344,155.69998812676292L110.01510890263398,152.42336301082898L111.93906275332473,150.36829780078645L113.21858068012753,155.92436201948806L114.65662295184394,156.00140875481708L118.41936074120666,144.91985015309132L120.05432766498967,141.15892278201304L123.88992757561705,130.36391270907185L125.52686374592072,136.05939984625613L129.30141701440743,149.01817842999478L130.93490700329997,138.74331353981995L134.73506047655533,139.92913045302467L136.39218142369583,121.74895712900258L140.21941203661038,137.11210727424665L141.87850223027152,137.4559366496646L145.7510255131614,142.5857816918577L147.3978079160684,152.25197583152445L151.22602315224327,158.44448481980993L152.85114384342296,150.5243253723709L154.14444649587043,139.4103254579433L155.64550465624814,135.58828322860617L157.3267488732668,139.7324469203668L161.21847230973313,136.14363526277492L162.96716322008464,150.48396405814447L164.7439158933556,141.40551724336711L168.75920954899374,133.8175215163704L170.53448528737422,143.73414201537807L172.3215765048787,139.68045050629325L174.10472922934184,132.62538829959277L178.1505462060503,123.10324562088579L182.19833242927945,127.95385053527576L183.9873928933046,122.68588515570246L185.76857637124706,123.10372323164478L189.81685490610633,122.68356936114864L191.5852382816645,123.28063319750842L193.37036025264828,121.3642728905987L197.41076180142494,130.21621433354295L199.18997603284674,135.73134060898758L203.2476084886792,137.90321237896165L205.19076249294648,139.67837743710655L206.85822198432047,135.0946746873418L208.52174298265314,125.89800964647792L212.46368220539645,119.69330877301996L214.17643436674578,120.56936531910426L218.23012832953694,134.95393876170746L219.96946531891524,143.91921766276948L223.93946630457808,132.54471841614404L225.65123384266707,128.40766315876002L227.3684168086879,122.79228729355721L229.0595072583099,130.09150634577713L230.7387822288079,124.58324597040337L232.43331885984105,124.88628606967532L234.15444031890323,112.00342874865633L235.87162328492403,123.86294491045047L237.61982188364536,136.01819316256768L239.37245128703816,131.95166851273427L241.11818832760866,123.48374097614672L242.84127903319148,116.46673304376637L246.77977207452363,112.27680528896848L248.46790865436466,108.99699260456245L252.40000164450464,103.33287629792285L256.40151057449816,107.13410131197136L260.0431397028399,115.71376509840114" fill="none"></path></g><g><path style="fill: none;" stroke="rgb(255, 112, 67)" stroke-width="2px" d="M19.50706187793029,-7.0237274224354L23.339215607146485,37.97391146581856L24.96876710299767,71.91929476719271L28.82455179046186,96.9590785263262L32.699536631502546,102.35835916960542L34.33154968550456,112.18783303289001L35.955685753423914,113.36770636884881L37.5896680539466,124.23441792972882L41.43019108087563,118.8505969769045L44.872926310630106,133.18210564955353L46.39269231295415,135.8928047577716L50.11161436723206,129.00898274936867L51.7682430027424,134.5008060740428L55.615166080863595,143.49557013294185L57.240779083673445,148.02590576726868L61.09656377113764,142.54289060270125L62.75466934153848,140.48807719153382L66.60208473128984,137.16866557355377L68.22080537127735,150.4705716853545L72.08052855178288,150.54717804200286L73.74552648500607,151.5715489159264L75.41052441822923,157.4255343809378L77.09619943991939,150.23637620020205L81.22423245886567,154.32358753791027L83.34068015695155,153.2735785361552L85.27546486350599,159.21294926907836L89.74713140030849,148.63307438963605L91.71785485586507,157.6978749266948L96.19739837875024,154.2771059380067L98.19126048092465,150.70241601627905L102.74514305996496,152.62115254166721L104.76706692505887,146.1404963917736L109.34901126701868,148.7099597370505L111.37536593678408,150.24646717996782L112.34965065288362,145.76899362451113L114.49514473714932,136.97193525445206L118.96385740417084,149.94357635678827L120.97347347851057,144.1123036518909L125.5229252528794,151.9581309932171L127.56601851807046,148.75001850804253L129.6061579134805,143.11705634159603L134.2146870834693,142.90668685626412L138.80204685336096,135.14804336094033L140.8323400161677,140.93608650475826L142.87395634646825,142.89938351354448L144.921972727961,134.47011215904968L149.5216402886068,138.7030392121362L151.57359516314085,130.0352112910341L156.16587804933417,117.63138861383925L158.20060201681238,122.53357340120391L161.5808136695357,121.95821786537394L163.46292103166232,115.03022152830692L167.302459435331,122.84669711948422L171.16661342050804,111.225483553193L175.10018334553854,127.65349098392929L176.78684299048902,119.13146624896663L180.72582834345135,117.71488516753404L182.44547286762304,123.87715837612956L186.19639517786175,128.1641756897567L188.0986873168252,121.03737771151636L191.96973366482453,111.57798663752246L193.64457783065106,100.84260791525735L195.32828360582053,116.19358507896752L199.2392071958634,127.61686674499123L200.9317745803759,126.9438496003886L200.96574408285738,124.48307896611634L202.1847076791497,126.59343046925451L203.6508117137856,114.3220363854978L207.45638061497277,111.46424522604387L209.1430402599233,109.73382070656344L210.8119766861878,108.24346742160047L212.02257098476727,112.45231750078038L213.49113657755402,114.04803053459902L215.16105762707883,111.80936400342013L218.97548813760906,106.99231527616136L220.68134793613604,113.33500922693331L224.59177921454872,114.06392968329772L226.3188084131729,111.57777154568358L228.03205288615234,104.12177802968436L231.96906899259403,113.27344742280458L233.70102130751985,112.70982125420763L237.66757611177152,116.05758086949157L239.37885133823033,111.22528517989537L243.3788833333333,104.83692864273263L245.15514369497413,105.3857253837989L249.13646784813076,113.19645566449007L250.87777408402977,113.40127074604318L252.61317258036675,116.40866496953362L256.5098191331348,108.34403792916594L260.0431397028399,103.05783327609764" fill="none"></path></g></g></g></g><g opacity="0.2"><g><g><g><path style="fill: none;" stroke="rgb(204, 51, 17)" stroke-width="2px" d="M19.00933481983194,-16.135996773035686L20.654640287848448,49.34514664063133L22.31471510476996,79.21882152357817L23.9742976100613,84.17912250059504L27.813836013729993,108.5422652321101L31.64648205457636,89.62270003039183L33.29671063889454,132.70525891674475L37.13575673093306,127.40136874258322L38.77023134308592,150.4956499123128L42.609769746754615,141.30160091208865L46.46752368073947,131.8132851584153L48.11479839527665,166.0263819958688L49.758134616772494,142.3500006814621L51.39950159174767,155.18110335888144L55.2444554233482,161.51665464700767L56.86908380289772,175.5377506308346L60.71945306243008,137.68962543392223L64.55997608935911,162.83942540147964L66.20922005041696,150.69311839160105L70.03595835170132,168.26191579955156L71.67929457319717,155.53136419092212L73.53777097707578,141.41537611433313L75.12744523088348,124.84464337319241L79.03541495114531,173.15115195129215L80.77179807074265,156.19376222702624L82.41119579919716,139.29725117118647L84.07176292774884,143.94940601144376L88.16681106747394,116.07108607592319L92.34358293780672,167.9546631853227L94.15479742518934,144.23432056240472L98.19372203907548,124.83201492142497L99.95127455876995,146.9245381978845L104.0827537591274,133.57108224900855L105.79402898558624,118.25658261788584L107.4885656166194,146.26345066149207L111.39604302525106,128.14358812476465L113.0748256841189,134.39788843076445L114.28591229432854,115.31397465156317L115.73724698005945,115.61628310778875L119.58466236981081,137.18913368038383L121.3067684521333,110.51176759431432L125.26643089356263,106.75027601267476L127.01561411554428,156.63504322086254L130.9944767105501,94.73305322440027L132.76384470936858,136.6980536975023L134.52878190351555,106.97842209885093L138.49632133102753,117.2818091050434L140.26864319962704,136.7348072575991L143.96048811424575,109.93157363103606L147.93885839762143,139.87005868154415L149.6890262428634,117.94063305102466L153.7476433219562,117.83162330227731L155.52045750218585,120.35671797408077L159.61452101865063,77.58677283714103L161.39816605474394,114.97276818116708L161.5808136695357,129.17185385311262L163.51805993424097,90.44521730400028L167.46886076632728,97.54651740095014L169.16930513692247,113.65696690243468L173.08219797348596,126.79073544509188L174.83384275361843,72.50685897734564L176.58204135233976,111.89797844846713L180.6416430546929,115.58858390933655L182.4031340674287,118.89241325074335L186.19639517786175,115.52651387753615L188.13610300071784,84.6839627304496L189.79470088274886,85.63937658845985L193.77208654286417,84.00047756262055L195.50994659735198,91.56521801216844L197.236483484346,76.53694343171841L201.26359261910812,76.92592357342346L203.00588347826744,75.43939992315558L207.05317738986642,73.15686683435719L208.7939913141352,103.70777222741803L210.56286700132353,87.84292228554295L210.8119766861878,87.94323508165803L213.90418603526373,86.92444069213562L215.3737362513108,77.3860876767422L216.99836463086032,51.061901262980356L218.62446994530032,93.5992922692591L222.47090071179136,59.24811641672561L226.3498240458734,95.38693301237825L228.05322228624954,69.97128030784846L231.98629989964988,77.08336224333561L233.70151361915003,60.32475149806969L237.621791130166,71.05011941143496L239.3232201240215,93.0827171101678L243.24300532340735,75.26087412151853L244.96511140572983,47.07005957292222L248.87849655392353,82.44765454057355L250.597648766465,72.79659854997249L252.31630866737635,65.98795686591647L256.24347854121464,65.02932632679563L257.95573839093385,57.86375217580293L260.0431397028399,76.07904291881081" fill="none"></path></g><g><path style="fill: none;" stroke="rgb(0, 119, 187)" stroke-width="2px" d="M17.38126025887125,-43.59745866389284L19.0231195454766,18.96931209542211L20.68024049261711,23.113886570063983L22.319145909441456,38.12381415454993L23.974789921691464,81.87145164459915L27.85420556740365,70.60812359957411L29.517726565736325,102.65752584481444L33.40058839285967,155.70577978891788L37.287881024654524,130.59082720005838L38.95730976254919,135.14797081121617L42.84706395249488,160.62974418301897L44.522400429951546,147.631910201368L48.39246215469056,137.89412295711878L50.05549084139307,164.2563734306891L53.63902719737518,168.67758248084064L57.42194976357472,126.62876959435744L61.24278032529709,148.0381055438315L62.88907041657394,164.02894216253753L66.70350092710414,141.64983642639302L70.50857751666119,154.35185488220827L72.13517514273137,168.36276470918503L75.97372892313973,129.25304526707038L77.60672660040208,136.6235934866093L79.24267814744543,135.16322026240707L83.07384725340128,124.72848544419935L84.70832186555414,157.7025643723933L86.36101200802315,157.26223646925646L90.21876594200802,148.8191633720147L91.88770236827253,150.06955880149872L95.74348705573671,165.1461431667761L97.39666950983589,145.2344105469508L99.0478827174144,166.20490779750588L100.69269587380074,126.76732515478713L104.54848056126494,160.2906821666966L106.22923246665344,162.45646164481477L110.01510890263398,147.50842538762305L111.93906275332473,147.2857000047999L113.21858068012753,164.2584583165941L114.65662295184394,156.1169788575534L118.41936074120666,128.29751227272266L120.05432766498967,135.51753172992034L123.88992757561705,114.17139760745223L125.52686374592072,144.60263054956587L129.30141701440743,168.45634630223537L130.93490700329997,123.33101620615949L134.73506047655533,141.70785582272083L136.39218142369583,94.47869714398979L140.21941203661038,160.15683249159534L141.87850223027152,137.97168071278492L145.7510255131614,150.2805492550851L147.3978079160684,166.75126704095436L151.22602315224327,167.73324830221125L152.85114384342296,138.64408620123308L154.14444649587043,122.73932558631935L155.64550465624814,129.85521988460425L157.3267488732668,145.94869245800518L161.21847230973313,130.76041777638827L162.96716322008464,171.9944572511959L164.7439158933556,127.78784702120225L168.75920954899374,122.4355279258759L170.53448528737422,158.60907276388906L172.3215765048787,133.59991324266633L174.10472922934184,122.04279498954187L178.1505462060503,108.82003160282532L182.19833242927945,135.22975790686104L183.9873928933046,114.78393708634243L185.76857637124706,123.73048034555828L189.81685490610633,122.05333855540432L191.5852382816645,124.17622895204813L193.37036025264828,118.489732430234L197.41076180142494,143.4941264979596L199.18997603284674,144.00403002215484L203.2476084886792,141.16102003392265L205.19076249294648,142.34112502432365L206.85822198432047,128.2191205626945L208.52174298265314,112.10301208518212L212.46368220539645,110.38625746283309L214.17643436674578,121.88345013823084L218.23012832953694,156.53079892561232L219.96946531891524,157.36713601436253L223.93946630457808,115.48296954620592L225.65123384266707,122.20208027268419L227.3684168086879,114.36922349575276L229.0595072583099,141.04033492410727L230.7387822288079,116.32085540734268L232.43331885984105,125.34084621858338L234.15444031890323,92.67914276712773L235.87162328492403,141.6522191531416L237.61982188364536,154.2510655407435L239.37245128703816,125.85188153798424L241.11818832760866,110.78184967126542L242.84127903319148,105.94122114519577L246.77977207452363,105.99191365677173L248.46790865436466,104.07727357795346L252.40000164450464,94.83670183796333L256.40151057449816,112.8359388330441L260.0431397028399,128.58326077804566" fill="none"></path></g><g><path style="fill: none;" stroke="rgb(255, 112, 67)" stroke-width="2px" d="M15.729062428032409,-63.96899797802462L19.50706187793029,27.14343491091833L23.339215607146485,81.17164479854237L24.96876710299767,111.83906552960859L28.82455179046186,129.6510202022513L32.699536631502546,109.82750804029199L34.33154968550456,126.24413792896856L35.955685753423914,115.08797301946072L37.5896680539466,140.2607067319732L41.43019108087563,110.85625031398969L44.872926310630106,154.54938292966523L46.39269231295415,139.94410191525617L50.11161436723206,118.70572660999244L51.7682430027424,142.7277820074488L55.615166080863595,156.97714321378933L57.240779083673445,154.8182140750733L61.09656377113764,134.3206880841106L62.75466934153848,137.40637879168526L66.60208473128984,132.19005382553388L68.22080537127735,170.422215006148L72.08052855178288,150.66208337570086L73.74552648500607,153.10807151945158L75.41052441822923,166.20639700172373L77.09619943991939,139.45272409153105L81.22423245886567,160.45437549432376L83.34068015695155,151.6985695113314L85.27546486350599,168.12199017124144L89.74713140030849,132.7632783130726L91.71785485586507,171.29506738232013L96.19739837875024,149.1459543455819L98.19126048092465,145.34038231909372L102.74514305996496,155.49925694798506L104.76706692505887,136.4195129405938L109.34901126701868,152.56415457092038L111.37536593678408,152.55122827830937L112.34965065288362,139.05278340678257L114.49514473714932,123.77634783546836L118.96385740417084,169.40103788987705L120.97347347851057,135.36539462702373L125.5229252528794,163.7268719789868L127.56601851807046,143.93784978671314L129.6061579134805,134.66761309870324L134.2146870834693,142.591132628418L138.80204685336096,123.51007812131499L140.8323400161677,149.61815121898098L142.87395634646825,145.84432902641754L144.921972727961,121.82620512809632L149.5216402886068,145.0524297915283L151.57359516314085,117.03346940967305L156.16587804933417,99.02565459829742L158.20060201681238,129.88685058219158L161.5808136695357,121.09518456163318L163.46292103166232,104.63822702273697L167.302459435331,134.57141050622948L171.16661342050804,93.79366320377417L175.10018334553854,152.29550213001843L176.78684299048902,106.34842914652742L180.72582834345135,115.59001354538569L182.44547286762304,133.12056818902155L186.19639517786175,134.59470166019682L188.0986873168252,110.34718074415643L191.96973366482453,97.38890002653183L193.64457783065106,84.73953983186013L195.32828360582053,139.22005082453262L199.2392071958634,144.75178924402672L200.9317745803759,125.93432388348495L200.96574408285738,120.79192301470817L202.1847076791497,129.75895772396177L203.6508117137856,95.9149452598627L207.45638061497277,107.17755848686316L209.1430402599233,107.13818392734295L210.8119766861878,106.0079374941559L212.02257098476727,118.7655926195504L213.49113657755402,116.44160008532677L215.16105762707883,108.4513642066519L218.97548813760906,99.76674218527329L220.68134793613604,122.84905015309128L224.59177921454872,115.15731036784427L226.3188084131729,107.84853433926217L228.03205288615234,92.93778775568566L231.96906899259403,127.00095151248502L233.70102130751985,111.86438200131222L237.66757611177152,121.07922029241773L239.37885133823033,103.97684164550098L243.3788833333333,95.25439383698871L245.15514369497413,106.2089204953983L249.13646784813076,124.91255108552684L250.87777408402977,113.70849336837263L252.61317258036675,120.91975630476928L256.5098191331348,96.2470973686142L260.0431397028399,95.12852629649518" fill="none"></path></g></g></g></g></g></g><g transform="translate(51, 177)" clip-path="url(#clip_1)"><clipPath id="clip_1"><rect width="278" height="22"></rect></clipPath><g><g><line x1="13.887324619579454" y1="0" x2="13.887324619579454" y2="5" style="visibility: inherit;" fill="rgb(0, 0, 0)" stroke="rgb(204, 204, 204)" stroke-width="1px"></line><line x1="38.5029061279055" y1="0" x2="38.5029061279055" y2="5" style="visibility: inherit;" fill="rgb(0, 0, 0)" stroke="rgb(204, 204, 204)" stroke-width="1px"></line><line x1="63.11848763623154" y1="0" x2="63.11848763623154" y2="5" style="visibility: inherit;" fill="rgb(0, 0, 0)" stroke="rgb(204, 204, 204)" stroke-width="1px"></line><line x1="87.73406914455758" y1="0" x2="87.73406914455758" y2="5" style="visibility: inherit;" fill="rgb(0, 0, 0)" stroke="rgb(204, 204, 204)" stroke-width="1px"></line><line x1="112.34965065288362" y1="0" x2="112.34965065288362" y2="5" style="visibility: inherit;" fill="rgb(0, 0, 0)" stroke="rgb(204, 204, 204)" stroke-width="1px"></line><line x1="136.96523216120966" y1="0" x2="136.96523216120966" y2="5" style="visibility: inherit;" fill="rgb(0, 0, 0)" stroke="rgb(204, 204, 204)" stroke-width="1px"></line><line x1="161.5808136695357" y1="0" x2="161.5808136695357" y2="5" style="visibility: inherit;" fill="rgb(0, 0, 0)" stroke="rgb(204, 204, 204)" stroke-width="1px"></line><line x1="186.19639517786175" y1="0" x2="186.19639517786175" y2="5" style="visibility: inherit;" fill="rgb(0, 0, 0)" stroke="rgb(204, 204, 204)" stroke-width="1px"></line><line x1="210.8119766861878" y1="0" x2="210.8119766861878" y2="5" style="visibility: inherit;" fill="rgb(0, 0, 0)" stroke="rgb(204, 204, 204)" stroke-width="1px"></line><line x1="235.42755819451386" y1="0" x2="235.42755819451386" y2="5" style="visibility: inherit;" fill="rgb(0, 0, 0)" stroke="rgb(204, 204, 204)" stroke-width="1px"></line><line x1="260.0431397028399" y1="0" x2="260.0431397028399" y2="5" style="visibility: inherit;" fill="rgb(0, 0, 0)" stroke="rgb(204, 204, 204)" stroke-width="1px"></line></g><g transform="translate(0, 8)"><text style="text-anchor: middle; visibility: inherit; font-family: &quot;Helvetica Neue&quot;, sans-serif; font-size: 12px; font-weight: 200;" x="13.887324619579454" y="0" dx="0em" dy="0.95em" fill="rgb(50, 49, 63)" stroke="none" stroke-width="1px">0</text><text style="text-anchor: middle; visibility: hidden; font-family: &quot;Helvetica Neue&quot;, sans-serif; font-size: 12px; font-weight: 200;" x="38.5029061279055" y="0" dx="0em" dy="0.95em" fill="rgb(50, 49, 63)" stroke="none" stroke-width="1px">50k</text><text style="text-anchor: middle; visibility: inherit; font-family: &quot;Helvetica Neue&quot;, sans-serif; font-size: 12px; font-weight: 200;" x="63.11848763623154" y="0" dx="0em" dy="0.95em" fill="rgb(50, 49, 63)" stroke="none" stroke-width="1px">100k</text><text style="text-anchor: middle; visibility: hidden; font-family: &quot;Helvetica Neue&quot;, sans-serif; font-size: 12px; font-weight: 200;" x="87.73406914455758" y="0" dx="0em" dy="0.95em" fill="rgb(50, 49, 63)" stroke="none" stroke-width="1px">150k</text><text style="text-anchor: middle; visibility: inherit; font-family: &quot;Helvetica Neue&quot;, sans-serif; font-size: 12px; font-weight: 200;" x="112.34965065288362" y="0" dx="0em" dy="0.95em" fill="rgb(50, 49, 63)" stroke="none" stroke-width="1px">200k</text><text style="text-anchor: middle; visibility: hidden; font-family: &quot;Helvetica Neue&quot;, sans-serif; font-size: 12px; font-weight: 200;" x="136.96523216120966" y="0" dx="0em" dy="0.95em" fill="rgb(50, 49, 63)" stroke="none" stroke-width="1px">250k</text><text style="text-anchor: middle; visibility: inherit; font-family: &quot;Helvetica Neue&quot;, sans-serif; font-size: 12px; font-weight: 200;" x="161.5808136695357" y="0" dx="0em" dy="0.95em" fill="rgb(50, 49, 63)" stroke="none" stroke-width="1px">300k</text><text style="text-anchor: middle; visibility: hidden; font-family: &quot;Helvetica Neue&quot;, sans-serif; font-size: 12px; font-weight: 200;" x="186.19639517786175" y="0" dx="0em" dy="0.95em" fill="rgb(50, 49, 63)" stroke="none" stroke-width="1px">350k</text><text style="text-anchor: middle; visibility: inherit; font-family: &quot;Helvetica Neue&quot;, sans-serif; font-size: 12px; font-weight: 200;" x="210.8119766861878" y="0" dx="0em" dy="0.95em" fill="rgb(50, 49, 63)" stroke="none" stroke-width="1px">400k</text><text style="text-anchor: middle; visibility: hidden; font-family: &quot;Helvetica Neue&quot;, sans-serif; font-size: 12px; font-weight: 200;" x="235.42755819451386" y="0" dx="0em" dy="0.95em" fill="rgb(50, 49, 63)" stroke="none" stroke-width="1px">450k</text><text style="text-anchor: middle; visibility: inherit; font-family: &quot;Helvetica Neue&quot;, sans-serif; font-size: 12px; font-weight: 200;" x="260.0431397028399" y="0" dx="0em" dy="0.95em" fill="rgb(50, 49, 63)" stroke="none" stroke-width="1px">500k</text></g><line x1="0" y1="0" x2="278.58399963378906" y2="0" fill="rgb(0, 0, 0)" stroke="rgb(204, 204, 204)" stroke-width="1px"></line></g></g></g></g></svg>