<?xml version="1.0" encoding="UTF-8" standalone="no"?>
<!-- Created with Inkscape (http://www.inkscape.org/) -->

<svg
   xmlns:osb="http://www.openswatchbook.org/uri/2009/osb"
   xmlns:dc="http://purl.org/dc/elements/1.1/"
   xmlns:cc="http://creativecommons.org/ns#"
   xmlns:rdf="http://www.w3.org/1999/02/22-rdf-syntax-ns#"
   xmlns:svg="http://www.w3.org/2000/svg"
   xmlns="http://www.w3.org/2000/svg"
   xmlns:xlink="http://www.w3.org/1999/xlink"
   xmlns:sodipodi="http://sodipodi.sourceforge.net/DTD/sodipodi-0.dtd"
   xmlns:inkscape="http://www.inkscape.org/namespaces/inkscape"
   width="210mm"
   height="297mm"
   viewBox="0 0 357.00001 504.89999"
   version="1.1"
   id="svg1966"
   inkscape:version="0.92.3 (2405546, 2018-03-11)"
   sodipodi:docname="synch_asynch.svg">
  <defs
     id="defs1960">
    <marker
       inkscape:stockid="Arrow2Lstart"
       orient="auto"
       refY="0.0"
       refX="0.0"
       id="Arrow2Lstart"
       style="overflow:visible"
       inkscape:isstock="true">
      <path
         id="path1446"
         style="fill-rule:evenodd;stroke-width:0.625;stroke-linejoin:round;stroke:#000000;stroke-opacity:1;fill:#000000;fill-opacity:1"
         d="M 8.7185878,4.0337352 L -2.2072895,0.016013256 L 8.7185884,-4.0017078 C 6.9730900,-1.6296469 6.9831476,1.6157441 8.7185878,4.0337352 z "
         transform="scale(1.1) translate(1,0)" />
    </marker>
    <marker
       inkscape:stockid="Arrow1Lstart"
       orient="auto"
       refY="0.0"
       refX="0.0"
       id="Arrow1Lstart"
       style="overflow:visible"
       inkscape:isstock="true">
      <path
         id="path1428"
         d="M 0.0,0.0 L 5.0,-5.0 L -12.5,0.0 L 5.0,5.0 L 0.0,0.0 z "
         style="fill-rule:evenodd;stroke:#000000;stroke-width:1pt;stroke-opacity:1;fill:#000000;fill-opacity:1"
         transform="scale(0.8) translate(12.5,0)" />
    </marker>
    <marker
       inkscape:stockid="Arrow1Lend"
       orient="auto"
       refY="0.0"
       refX="0.0"
       id="marker1691"
       style="overflow:visible;"
       inkscape:isstock="true">
      <path
         id="path1431"
         d="M 0.0,0.0 L 5.0,-5.0 L -12.5,0.0 L 5.0,5.0 L 0.0,0.0 z "
         style="fill-rule:evenodd;stroke:#000000;stroke-width:1pt;stroke-opacity:1;fill:#000000;fill-opacity:1"
         transform="scale(0.8) rotate(180) translate(12.5,0)" />
    </marker>
    <linearGradient
       id="linearGradient27195"
       osb:paint="solid">
      <stop
         style="stop-color:#fffff9;stop-opacity:1;"
         offset="0"
         id="stop27193" />
    </linearGradient>
    <marker
       inkscape:stockid="Arrow1Lstart"
       orient="auto"
       refY="0"
       refX="0"
       id="marker20300"
       style="overflow:visible"
       inkscape:isstock="true">
      <path
         inkscape:connector-curvature="0"
         id="path20298"
         d="M 0,0 5,-5 -12.5,0 5,5 Z"
         style="fill:#000000;fill-opacity:1;fill-rule:evenodd;stroke:#000000;stroke-width:1.00000003pt;stroke-opacity:1"
         transform="matrix(0.8,0,0,0.8,10,0)" />
    </marker>
    <marker
       inkscape:isstock="true"
       style="overflow:visible"
       id="marker19215"
       refX="0"
       refY="0"
       orient="auto"
       inkscape:stockid="Arrow1Lstart">
      <path
         transform="matrix(0.8,0,0,0.8,10,0)"
         style="fill:#000000;fill-opacity:1;fill-rule:evenodd;stroke:#000000;stroke-width:1.00000003pt;stroke-opacity:1"
         d="M 0,0 5,-5 -12.5,0 5,5 Z"
         id="path19213"
         inkscape:connector-curvature="0" />
    </marker>
    <marker
       inkscape:isstock="true"
       style="overflow:visible"
       id="marker19121"
       refX="0"
       refY="0"
       orient="auto"
       inkscape:stockid="Arrow1Lstart">
      <path
         transform="matrix(0.8,0,0,0.8,10,0)"
         style="fill:#000000;fill-opacity:1;fill-rule:evenodd;stroke:#000000;stroke-width:1.00000003pt;stroke-opacity:1"
         d="M 0,0 5,-5 -12.5,0 5,5 Z"
         id="path19119"
         inkscape:connector-curvature="0" />
    </marker>
    <marker
       inkscape:isstock="true"
       style="overflow:visible"
       id="marker14231"
       refX="0"
       refY="0"
       orient="auto"
       inkscape:stockid="Arrow1Lstart">
      <path
         transform="matrix(0.8,0,0,0.8,10,0)"
         style="fill:#000000;fill-opacity:1;fill-rule:evenodd;stroke:#000000;stroke-width:1.00000003pt;stroke-opacity:1"
         d="M 0,0 5,-5 -12.5,0 5,5 Z"
         id="path14229"
         inkscape:connector-curvature="0" />
    </marker>
    <marker
       inkscape:stockid="Arrow1Lend"
       orient="auto"
       refY="0"
       refX="0"
       id="Arrow1Lend"
       style="overflow:visible"
       inkscape:isstock="true">
      <path
         id="path10555"
         d="M 0,0 5,-5 -12.5,0 5,5 Z"
         style="fill:#000000;fill-opacity:1;fill-rule:evenodd;stroke:#000000;stroke-width:1.00000003pt;stroke-opacity:1"
         transform="matrix(-0.8,0,0,-0.8,-10,0)"
         inkscape:connector-curvature="0" />
    </marker>
    <symbol
       id="Process">
      <title
         id="title6230">Process</title>
      <desc
         id="desc6232">Any processing function.</desc>
      <rect
         x="3.96875"
         y="9.260417"
         width="31.75"
         height="21.166666"
         style="stroke-width:0.52916664"
         id="rect6234" />
    </symbol>
    <marker
       inkscape:stockid="Arrow1Lstart"
       orient="auto"
       refY="0"
       refX="0"
       id="Arrow1Lstart-6"
       style="overflow:visible"
       inkscape:isstock="true">
      <path
         inkscape:connector-curvature="0"
         id="path10552-36"
         d="M 0,0 5,-5 -12.5,0 5,5 Z"
         style="fill:#000000;fill-opacity:1;fill-rule:evenodd;stroke:#000000;stroke-width:1.00000003pt;stroke-opacity:1"
         transform="matrix(0.8,0,0,0.8,10,0)" />
    </marker>
    <marker
       inkscape:stockid="Arrow1Lstart"
       orient="auto"
       refY="0"
       refX="0"
       id="Arrow1Lstart-3"
       style="overflow:visible"
       inkscape:isstock="true">
      <path
         inkscape:connector-curvature="0"
         id="path10552-4"
         d="M 0,0 5,-5 -12.5,0 5,5 Z"
         style="fill:#000000;fill-opacity:1;fill-rule:evenodd;stroke:#000000;stroke-width:1.00000003pt;stroke-opacity:1"
         transform="matrix(0.8,0,0,0.8,10,0)" />
    </marker>
    <marker
       inkscape:stockid="Arrow1Lstart"
       orient="auto"
       refY="0"
       refX="0"
       id="Arrow1Lstart-9"
       style="overflow:visible"
       inkscape:isstock="true">
      <path
         inkscape:connector-curvature="0"
         id="path10552-7"
         d="M 0,0 5,-5 -12.5,0 5,5 Z"
         style="fill:#000000;fill-opacity:1;fill-rule:evenodd;stroke:#000000;stroke-width:1.00000003pt;stroke-opacity:1"
         transform="matrix(0.8,0,0,0.8,10,0)" />
    </marker>
    <marker
       inkscape:isstock="true"
       style="overflow:visible"
       id="marker14231-4"
       refX="0"
       refY="0"
       orient="auto"
       inkscape:stockid="Arrow1Lstart">
      <path
         inkscape:connector-curvature="0"
         transform="matrix(0.8,0,0,0.8,10,0)"
         style="fill:#000000;fill-opacity:1;fill-rule:evenodd;stroke:#000000;stroke-width:1.00000003pt;stroke-opacity:1"
         d="M 0,0 5,-5 -12.5,0 5,5 Z"
         id="path14229-7" />
    </marker>
    <marker
       inkscape:isstock="true"
       style="overflow:visible"
       id="marker14231-5"
       refX="0"
       refY="0"
       orient="auto"
       inkscape:stockid="Arrow1Lstart">
      <path
         inkscape:connector-curvature="0"
         transform="matrix(0.8,0,0,0.8,10,0)"
         style="fill:#000000;fill-opacity:1;fill-rule:evenodd;stroke:#000000;stroke-width:1.00000003pt;stroke-opacity:1"
         d="M 0,0 5,-5 -12.5,0 5,5 Z"
         id="path14229-71" />
    </marker>
    <marker
       inkscape:isstock="true"
       style="overflow:visible"
       id="marker14231-3"
       refX="0"
       refY="0"
       orient="auto"
       inkscape:stockid="Arrow1Lstart">
      <path
         inkscape:connector-curvature="0"
         transform="matrix(0.8,0,0,0.8,10,0)"
         style="fill:#000000;fill-opacity:1;fill-rule:evenodd;stroke:#000000;stroke-width:1.00000003pt;stroke-opacity:1"
         d="M 0,0 5,-5 -12.5,0 5,5 Z"
         id="path14229-3" />
    </marker>
    <marker
       inkscape:isstock="true"
       style="overflow:visible"
       id="marker14231-0"
       refX="0"
       refY="0"
       orient="auto"
       inkscape:stockid="Arrow1Lstart">
      <path
         transform="matrix(0.8,0,0,0.8,10,0)"
         style="fill:#000000;fill-opacity:1;fill-rule:evenodd;stroke:#000000;stroke-width:1.00000003pt;stroke-opacity:1"
         d="M 0,0 5,-5 -12.5,0 5,5 Z"
         id="path14229-35"
         inkscape:connector-curvature="0" />
    </marker>
    <marker
       inkscape:isstock="true"
       style="overflow:visible"
       id="marker14231-0-0"
       refX="0"
       refY="0"
       orient="auto"
       inkscape:stockid="Arrow1Lstart">
      <path
         transform="matrix(0.8,0,0,0.8,10,0)"
         style="fill:#000000;fill-opacity:1;fill-rule:evenodd;stroke:#000000;stroke-width:1.00000003pt;stroke-opacity:1"
         d="M 0,0 5,-5 -12.5,0 5,5 Z"
         id="path14229-35-9"
         inkscape:connector-curvature="0" />
    </marker>
    <marker
       inkscape:isstock="true"
       style="overflow:visible"
       id="marker14231-0-0-8"
       refX="0"
       refY="0"
       orient="auto"
       inkscape:stockid="Arrow1Lstart">
      <path
         transform="matrix(0.8,0,0,0.8,10,0)"
         style="fill:#000000;fill-opacity:1;fill-rule:evenodd;stroke:#000000;stroke-width:1.00000003pt;stroke-opacity:1"
         d="M 0,0 5,-5 -12.5,0 5,5 Z"
         id="path14229-35-9-0"
         inkscape:connector-curvature="0" />
    </marker>
    <marker
       inkscape:isstock="true"
       style="overflow:visible"
       id="marker14231-0-0-8-1"
       refX="0"
       refY="0"
       orient="auto"
       inkscape:stockid="Arrow1Lstart">
      <path
         transform="matrix(0.8,0,0,0.8,10,0)"
         style="fill:#000000;fill-opacity:1;fill-rule:evenodd;stroke:#000000;stroke-width:1.00000003pt;stroke-opacity:1"
         d="M 0,0 5,-5 -12.5,0 5,5 Z"
         id="path14229-35-9-0-2"
         inkscape:connector-curvature="0" />
    </marker>
    <marker
       inkscape:stockid="Arrow1Lstart"
       orient="auto"
       refY="0"
       refX="0"
       id="Arrow1Lstart-3-6"
       style="overflow:visible"
       inkscape:isstock="true">
      <path
         inkscape:connector-curvature="0"
         id="path10552-4-3"
         d="M 0,0 5,-5 -12.5,0 5,5 Z"
         style="fill:#000000;fill-opacity:1;fill-rule:evenodd;stroke:#000000;stroke-width:1.00000003pt;stroke-opacity:1"
         transform="matrix(0.8,0,0,0.8,10,0)" />
    </marker>
    <marker
       inkscape:stockid="Arrow1Lstart"
       orient="auto"
       refY="0"
       refX="0"
       id="Arrow1Lstart-3-6-1"
       style="overflow:visible"
       inkscape:isstock="true">
      <path
         inkscape:connector-curvature="0"
         id="path10552-4-3-0"
         d="M 0,0 5,-5 -12.5,0 5,5 Z"
         style="fill:#000000;fill-opacity:1;fill-rule:evenodd;stroke:#000000;stroke-width:1.00000003pt;stroke-opacity:1"
         transform="matrix(0.8,0,0,0.8,10,0)" />
    </marker>
    <marker
       inkscape:stockid="Arrow1Lstart"
       orient="auto"
       refY="0"
       refX="0"
       id="Arrow1Lstart-3-6-1-5"
       style="overflow:visible"
       inkscape:isstock="true">
      <path
         inkscape:connector-curvature="0"
         id="path10552-4-3-0-0"
         d="M 0,0 5,-5 -12.5,0 5,5 Z"
         style="fill:#000000;fill-opacity:1;fill-rule:evenodd;stroke:#000000;stroke-width:1.00000003pt;stroke-opacity:1"
         transform="matrix(0.8,0,0,0.8,10,0)" />
    </marker>
    <marker
       inkscape:stockid="Arrow1Lstart"
       orient="auto"
       refY="0"
       refX="0"
       id="Arrow1Lstart-3-6-1-5-1"
       style="overflow:visible"
       inkscape:isstock="true">
      <path
         inkscape:connector-curvature="0"
         id="path10552-4-3-0-0-8"
         d="M 0,0 5,-5 -12.5,0 5,5 Z"
         style="fill:#000000;fill-opacity:1;fill-rule:evenodd;stroke:#000000;stroke-width:1.00000003pt;stroke-opacity:1"
         transform="matrix(0.8,0,0,0.8,10,0)" />
    </marker>
    <marker
       inkscape:stockid="Arrow1Lstart"
       orient="auto"
       refY="0"
       refX="0"
       id="Arrow1Lstart-3-9"
       style="overflow:visible"
       inkscape:isstock="true">
      <path
         inkscape:connector-curvature="0"
         id="path10552-4-2"
         d="M 0,0 5,-5 -12.5,0 5,5 Z"
         style="fill:#000000;fill-opacity:1;fill-rule:evenodd;stroke:#000000;stroke-width:1.00000003pt;stroke-opacity:1"
         transform="matrix(0.8,0,0,0.8,10,0)" />
    </marker>
    <marker
       inkscape:stockid="Arrow1Lstart"
       orient="auto"
       refY="0"
       refX="0"
       id="Arrow1Lstart-3-9-9"
       style="overflow:visible"
       inkscape:isstock="true">
      <path
         inkscape:connector-curvature="0"
         id="path10552-4-2-9"
         d="M 0,0 5,-5 -12.5,0 5,5 Z"
         style="fill:#000000;fill-opacity:1;fill-rule:evenodd;stroke:#000000;stroke-width:1.00000003pt;stroke-opacity:1"
         transform="matrix(0.8,0,0,0.8,10,0)" />
    </marker>
    <marker
       inkscape:stockid="Arrow2Lstart"
       orient="auto"
       refY="0"
       refX="0"
       id="Arrow2Lstart-3"
       style="overflow:visible"
       inkscape:isstock="true">
      <path
         inkscape:connector-curvature="0"
         id="path1446-0"
         style="fill:#000000;fill-opacity:1;fill-rule:evenodd;stroke:#000000;stroke-width:0.625;stroke-linejoin:round;stroke-opacity:1"
         d="M 8.7185878,4.0337352 -2.2072895,0.01601326 8.7185884,-4.0017078 c -1.7454984,2.3720609 -1.7354408,5.6174519 -6e-7,8.035443 z"
         transform="matrix(1.1,0,0,1.1,1.1,0)" />
    </marker>
    <marker
       inkscape:stockid="Arrow2Lstart"
       orient="auto"
       refY="0"
       refX="0"
       id="Arrow2Lstart-3-0"
       style="overflow:visible"
       inkscape:isstock="true">
      <path
         inkscape:connector-curvature="0"
         id="path1446-0-9"
         style="fill:#000000;fill-opacity:1;fill-rule:evenodd;stroke:#000000;stroke-width:0.625;stroke-linejoin:round;stroke-opacity:1"
         d="M 8.7185878,4.0337352 -2.2072895,0.01601326 8.7185884,-4.0017078 c -1.7454984,2.3720609 -1.7354408,5.6174519 -6e-7,8.035443 z"
         transform="matrix(1.1,0,0,1.1,1.1,0)" />
    </marker>
    <marker
       inkscape:stockid="Arrow2Lstart"
       orient="auto"
       refY="0"
       refX="0"
       id="Arrow2Lstart-3-0-8"
       style="overflow:visible"
       inkscape:isstock="true">
      <path
         inkscape:connector-curvature="0"
         id="path1446-0-9-0"
         style="fill:#000000;fill-opacity:1;fill-rule:evenodd;stroke:#000000;stroke-width:0.625;stroke-linejoin:round;stroke-opacity:1"
         d="M 8.7185878,4.0337352 -2.2072895,0.01601326 8.7185884,-4.0017078 c -1.7454984,2.3720609 -1.7354408,5.6174519 -6e-7,8.035443 z"
         transform="matrix(1.1,0,0,1.1,1.1,0)" />
    </marker>
    <marker
       inkscape:stockid="Arrow2Lstart"
       orient="auto"
       refY="0"
       refX="0"
       id="Arrow2Lstart-3-2"
       style="overflow:visible"
       inkscape:isstock="true">
      <path
         inkscape:connector-curvature="0"
         id="path1446-0-1"
         style="fill:#000000;fill-opacity:1;fill-rule:evenodd;stroke:#000000;stroke-width:0.625;stroke-linejoin:round;stroke-opacity:1"
         d="M 8.7185878,4.0337352 -2.2072895,0.01601326 8.7185884,-4.0017078 c -1.7454984,2.3720609 -1.7354408,5.6174519 -6e-7,8.035443 z"
         transform="matrix(1.1,0,0,1.1,1.1,0)" />
    </marker>
    <marker
       inkscape:stockid="Arrow2Lstart"
       orient="auto"
       refY="0"
       refX="0"
       id="Arrow2Lstart-3-0-9"
       style="overflow:visible"
       inkscape:isstock="true">
      <path
         inkscape:connector-curvature="0"
         id="path1446-0-9-6"
         style="fill:#000000;fill-opacity:1;fill-rule:evenodd;stroke:#000000;stroke-width:0.625;stroke-linejoin:round;stroke-opacity:1"
         d="M 8.7185878,4.0337352 -2.2072895,0.01601326 8.7185884,-4.0017078 c -1.7454984,2.3720609 -1.7354408,5.6174519 -6e-7,8.035443 z"
         transform="matrix(1.1,0,0,1.1,1.1,0)" />
    </marker>
  </defs>
  <sodipodi:namedview
     id="base"
     pagecolor="#ffffff"
     bordercolor="#666666"
     borderopacity="1.0"
     inkscape:pageopacity="0.0"
     inkscape:pageshadow="2"
     inkscape:zoom="1.4"
     inkscape:cx="472.1514"
     inkscape:cy="542.20195"
     inkscape:document-units="mm"
     inkscape:current-layer="layer1"
     showgrid="true"
     objecttolerance="10000"
     inkscape:snap-bbox="true"
     inkscape:snap-global="false"
     inkscape:window-width="1853"
     inkscape:window-height="1025"
     inkscape:window-x="67"
     inkscape:window-y="27"
     inkscape:window-maximized="1"
     scale-x="1.7">
    <inkscape:grid
       type="xygrid"
       id="grid2511" />
  </sodipodi:namedview>
  <metadata
     id="metadata1963">
    <rdf:RDF>
      <cc:Work
         rdf:about="">
        <dc:format>image/svg+xml</dc:format>
        <dc:type
           rdf:resource="http://purl.org/dc/dcmitype/StillImage" />
        <dc:title></dc:title>
      </cc:Work>
    </rdf:RDF>
  </metadata>
  <g
     inkscape:label="Layer 1"
     inkscape:groupmode="layer"
     id="layer1">
    <text
       xml:space="preserve"
       style="font-style:normal;font-weight:normal;font-size:4.23333311px;line-height:0;font-family:sans-serif;letter-spacing:0px;word-spacing:0px;fill:#000000;fill-opacity:1;stroke:none;stroke-width:0.26458332"
       x="95.25"
       y="61.520832"
       id="text10367"><tspan
         sodipodi:role="line"
         id="tspan10365"
         x="95.25"
         y="62.620506"
         style="stroke-width:0.26458332" /></text>
    <g
       id="g23879">
      <flowRoot
         style="font-style:normal;font-weight:normal;font-size:16px;line-height:0;font-family:sans-serif;letter-spacing:0px;word-spacing:0px;fill:#000000;fill-opacity:1;stroke:none"
         id="flowRoot23867"
         xml:space="preserve"><flowRegion
           id="flowRegion23869"><rect
             y="297.73013"
             x="380.32242"
             height="89.398499"
             width="191.92899"
             id="rect23871" /></flowRegion><flowPara
           id="flowPara23873" /></flowRoot>    </g>
    <g
       id="g2835">
      <path
         inkscape:connector-curvature="0"
         id="path14221-8-3"
         d="M 351.86907,248.8572 H 44.445355"
         style="fill:none;stroke:#000000;stroke-width:1.09922874;stroke-linecap:butt;stroke-linejoin:miter;stroke-miterlimit:4;stroke-dasharray:none;stroke-opacity:1;marker-start:url(#Arrow2Lstart-3)" />
      <path
         inkscape:connector-curvature="0"
         id="path14221-8-3-2"
         d="M 352.83076,274.30255 H 45.087912"
         style="fill:none;stroke:#000000;stroke-width:1.09979904;stroke-linecap:butt;stroke-linejoin:miter;stroke-miterlimit:4;stroke-dasharray:none;stroke-opacity:1;marker-start:url(#Arrow2Lstart-3-0)" />
      <use
         transform="matrix(0.43042169,0,0,0.52148639,42.863582,232.64449)"
         height="100%"
         width="100%"
         y="0"
         x="0"
         xlink:href="#Process"
         style="fill:#aaccee;stroke:#000000"
         id="use10310-3-5-4-4" />
      <use
         transform="matrix(1.9208172,0,0,0.50837456,51.520838,258.093)"
         height="100%"
         width="100%"
         y="0"
         x="0"
         xlink:href="#Process"
         style="fill:#00b700;fill-opacity:0.81385277;stroke:#000000"
         id="use10310-3-5-6-7-8" />
      <use
         transform="matrix(0.43042169,0,0,0.52148639,57.642451,232.96577)"
         height="100%"
         width="100%"
         y="0"
         x="0"
         xlink:href="#Process"
         style="fill:#aaccee;stroke:#000000"
         id="use10310-3-5-4-4-1" />
      <use
         transform="matrix(0.43042169,0,0,0.52148639,104.61361,232.32321)"
         height="100%"
         width="100%"
         y="0"
         x="0"
         xlink:href="#Process"
         style="fill:#aaccee;stroke:#000000"
         id="use10310-3-5-4-4-1-2" />
      <use
         transform="matrix(1.9208172,0,0,0.50837456,114.17039,258.6713)"
         height="100%"
         width="100%"
         y="0"
         x="0"
         xlink:href="#Process"
         style="fill:#00b700;fill-opacity:0.81385277;stroke:#000000"
         id="use10310-3-5-6-7-8-8" />
      <use
         transform="matrix(0.43042169,0,0,0.52148639,118.68584,232.58023)"
         height="100%"
         width="100%"
         y="0"
         x="0"
         xlink:href="#Process"
         style="fill:#aaccee;stroke:#000000"
         id="use10310-3-5-4-4-1-2-9" />
      <use
         transform="matrix(1.9208172,0,0,0.50837456,176.81995,258.6713)"
         height="100%"
         width="100%"
         y="0"
         x="0"
         xlink:href="#Process"
         style="fill:#00b700;fill-opacity:0.81385277;stroke:#000000"
         id="use10310-3-5-6-7-8-8-3" />
      <use
         transform="matrix(1.5954583,0,0,0.51055749,38.936353,185.99772)"
         height="100%"
         width="100%"
         y="0"
         x="0"
         xlink:href="#Process"
         style="fill:#aaccee;stroke:#000000"
         id="use10310-3-5" />
      <g
         aria-label="prepare Frame"
         style="font-style:normal;font-variant:normal;font-weight:normal;font-stretch:normal;font-size:6.34865952px;line-height:1;font-family:sans-serif;-inkscape-font-specification:'sans-serif, Normal';font-variant-ligatures:normal;font-variant-caps:normal;font-variant-numeric:normal;font-feature-settings:normal;text-align:start;letter-spacing:0px;word-spacing:0px;writing-mode:lr-tb;text-anchor:start;fill:#000000;fill-opacity:1;stroke:none;stroke-width:0.47339374"
         id="text10371-4">
        <path
           d="m 48.474957,197.68366 v 1.84136 H 47.90147 v -4.79249 h 0.573487 v 0.52699 q 0.179796,-0.31 0.45259,-0.45879 0.275894,-0.1519 0.657186,-0.1519 0.632386,0 1.026077,0.50219 0.396791,0.50219 0.396791,1.32057 0,0.81838 -0.396791,1.32057 -0.393691,0.50219 -1.026077,0.50219 -0.381292,0 -0.657186,-0.1488 -0.272794,-0.15189 -0.45259,-0.46189 z m 1.940557,-1.21207 q 0,-0.62929 -0.260394,-0.98578 -0.257294,-0.35959 -0.709884,-0.35959 -0.45259,0 -0.712985,0.35959 -0.257294,0.35649 -0.257294,0.98578 0,0.62929 0.257294,0.98888 0.260395,0.35649 0.712985,0.35649 0.45259,0 0.709884,-0.35649 0.260394,-0.35959 0.260394,-0.98888 z"
           style="stroke-width:0.47339374"
           id="path2837" />
        <path
           d="m 53.964936,195.26572 q -0.0961,-0.0558 -0.210796,-0.0806 -0.111597,-0.0279 -0.247994,-0.0279 -0.483589,0 -0.743984,0.31619 -0.257294,0.3131 -0.257294,0.90208 v 1.82896 h -0.573487 v -3.47192 h 0.573487 v 0.53939 q 0.179796,-0.3162 0.46809,-0.46809 0.288293,-0.155 0.700584,-0.155 0.0589,0 0.130197,0.009 0.0713,0.006 0.158097,0.0217 z"
           style="stroke-width:0.47339374"
           id="path2839" />
        <path
           d="m 57.40276,196.32589 v 0.279 h -2.622542 q 0.0372,0.58898 0.353392,0.89898 0.319293,0.30689 0.88658,0.30689 0.328593,0 0.635486,-0.0806 0.309993,-0.0806 0.613787,-0.24179 v 0.53939 q -0.306893,0.13019 -0.629286,0.19839 -0.322393,0.0682 -0.654086,0.0682 -0.830781,0 -1.317471,-0.48359 -0.483589,-0.48359 -0.483589,-1.30817 0,-0.85248 0.45879,-1.35157 0.46189,-0.50219 1.243072,-0.50219 0.700585,0 1.106676,0.45259 0.409191,0.44949 0.409191,1.22447 z m -0.570388,-0.16739 q -0.0062,-0.46809 -0.263494,-0.74709 -0.254194,-0.27899 -0.675785,-0.27899 -0.477389,0 -0.765683,0.26969 -0.285194,0.2697 -0.328593,0.75949 z"
           style="stroke-width:0.47339374"
           id="path2841" />
        <path
           d="m 58.890727,197.68366 v 1.84136 h -0.573488 v -4.79249 h 0.573488 v 0.52699 q 0.179796,-0.31 0.45259,-0.45879 0.275894,-0.1519 0.657185,-0.1519 0.632386,0 1.026077,0.50219 0.396792,0.50219 0.396792,1.32057 0,0.81838 -0.396792,1.32057 -0.393691,0.50219 -1.026077,0.50219 -0.381291,0 -0.657185,-0.1488 -0.272794,-0.15189 -0.45259,-0.46189 z m 1.940557,-1.21207 q 0,-0.62929 -0.260395,-0.98578 -0.257294,-0.35959 -0.709884,-0.35959 -0.45259,0 -0.712984,0.35959 -0.257294,0.35649 -0.257294,0.98578 0,0.62929 0.257294,0.98888 0.260394,0.35649 0.712984,0.35649 0.45259,0 0.709884,-0.35649 0.260395,-0.35959 0.260395,-0.98888 z"
           style="stroke-width:0.47339374"
           id="path2843" />
        <path
           d="m 63.946715,196.45919 q -0.691285,0 -0.957879,0.1581 -0.266594,0.15809 -0.266594,0.53939 0,0.30379 0.198396,0.48358 0.201495,0.1767 0.545588,0.1767 0.474289,0 0.759483,-0.33479 0.288293,-0.33789 0.288293,-0.89588 v -0.1271 z m 1.137675,-0.23559 v 1.98085 h -0.570388 v -0.52699 q -0.195295,0.3162 -0.486689,0.46809 -0.291393,0.1488 -0.712984,0.1488 -0.533188,0 -0.849381,-0.29759 -0.313093,-0.3007 -0.313093,-0.80289 0,-0.58588 0.390591,-0.88348 0.393691,-0.29759 1.171774,-0.29759 h 0.799782 v -0.0558 q 0,-0.39369 -0.260394,-0.60758 -0.257294,-0.217 -0.725384,-0.217 -0.297593,0 -0.579687,0.0713 -0.282094,0.0713 -0.542488,0.21389 v -0.52698 q 0.313093,-0.1209 0.607587,-0.1798 0.294493,-0.062 0.573487,-0.062 0.753283,0 1.125275,0.39059 0.371992,0.39059 0.371992,1.18418 z"
           style="stroke-width:0.47339374"
           id="path2845" />
        <path
           d="m 68.27422,195.26572 q -0.0961,-0.0558 -0.210795,-0.0806 -0.111598,-0.0279 -0.247995,-0.0279 -0.483589,0 -0.743983,0.31619 -0.257295,0.3131 -0.257295,0.90208 v 1.82896 h -0.573487 v -3.47192 h 0.573487 v 0.53939 q 0.179796,-0.3162 0.46809,-0.46809 0.288294,-0.155 0.700584,-0.155 0.0589,0 0.130198,0.009 0.0713,0.006 0.158096,0.0217 z"
           style="stroke-width:0.47339374"
           id="path2847" />
        <path
           d="m 71.712043,196.32589 v 0.279 h -2.622542 q 0.0372,0.58898 0.353392,0.89898 0.319293,0.30689 0.886581,0.30689 0.328592,0 0.635486,-0.0806 0.309993,-0.0806 0.613786,-0.24179 v 0.53939 q -0.306893,0.13019 -0.629286,0.19839 -0.322393,0.0682 -0.654086,0.0682 -0.830781,0 -1.31747,-0.48359 -0.48359,-0.48359 -0.48359,-1.30817 0,-0.85248 0.45879,-1.35157 0.46189,-0.50219 1.243073,-0.50219 0.700584,0 1.106675,0.45259 0.409191,0.44949 0.409191,1.22447 z m -0.570387,-0.16739 q -0.0062,-0.46809 -0.263495,-0.74709 -0.254194,-0.27899 -0.675785,-0.27899 -0.477389,0 -0.765683,0.26969 -0.285193,0.2697 -0.328592,0.75949 z"
           style="stroke-width:0.47339374"
           id="path2849" />
        <path
           d="m 74.694177,193.57625 h 2.659741 v 0.52699 h -2.033555 v 1.36397 h 1.835159 v 0.52699 h -1.835159 v 2.21025 h -0.626186 z"
           style="stroke-width:0.47339374"
           id="path2851" />
        <path
           d="m 79.880362,195.26572 q -0.0961,-0.0558 -0.210795,-0.0806 -0.111598,-0.0279 -0.247995,-0.0279 -0.483589,0 -0.743983,0.31619 -0.257295,0.3131 -0.257295,0.90208 v 1.82896 h -0.573487 v -3.47192 h 0.573487 v 0.53939 q 0.179796,-0.3162 0.46809,-0.46809 0.288294,-0.155 0.700584,-0.155 0.0589,0 0.130198,0.009 0.0713,0.006 0.158096,0.0217 z"
           style="stroke-width:0.47339374"
           id="path2853" />
        <path
           d="m 82.062714,196.45919 q -0.691285,0 -0.957879,0.1581 -0.266594,0.15809 -0.266594,0.53939 0,0.30379 0.198396,0.48358 0.201495,0.1767 0.545588,0.1767 0.474289,0 0.759483,-0.33479 0.288294,-0.33789 0.288294,-0.89588 v -0.1271 z m 1.137675,-0.23559 v 1.98085 h -0.570387 v -0.52699 q -0.195296,0.3162 -0.48669,0.46809 -0.291393,0.1488 -0.712984,0.1488 -0.533188,0 -0.849381,-0.29759 -0.313093,-0.3007 -0.313093,-0.80289 0,-0.58588 0.390591,-0.88348 0.393692,-0.29759 1.171774,-0.29759 h 0.799783 v -0.0558 q 0,-0.39369 -0.260395,-0.60758 -0.257294,-0.217 -0.725384,-0.217 -0.297593,0 -0.579687,0.0713 -0.282093,0.0713 -0.542488,0.21389 v -0.52698 q 0.313093,-0.1209 0.607587,-0.1798 0.294493,-0.062 0.573487,-0.062 0.753283,0 1.125275,0.39059 0.371992,0.39059 0.371992,1.18418 z"
           style="stroke-width:0.47339374"
           id="path2855" />
        <path
           d="m 87.081502,195.39901 q 0.213895,-0.38439 0.511489,-0.56728 0.297593,-0.1829 0.700584,-0.1829 0.542488,0 0.836982,0.38129 0.294493,0.37819 0.294493,1.07878 v 2.09555 h -0.573487 v -2.07695 q 0,-0.49909 -0.176696,-0.74089 -0.176696,-0.24179 -0.539388,-0.24179 -0.44329,0 -0.700585,0.29449 -0.257294,0.2945 -0.257294,0.80289 v 1.96225 h -0.573487 v -2.07695 q 0,-0.50219 -0.176697,-0.74089 -0.176696,-0.24179 -0.545587,-0.24179 -0.437091,0 -0.694385,0.29759 -0.257294,0.2945 -0.257294,0.79979 v 1.96225 h -0.573488 v -3.47192 h 0.573488 v 0.53939 q 0.195295,-0.3193 0.468089,-0.47119 0.272794,-0.1519 0.647886,-0.1519 0.378192,0 0.641686,0.1922 0.266594,0.19219 0.393691,0.55798 z"
           style="stroke-width:0.47339374"
           id="path2857" />
        <path
           d="m 93.535562,196.32589 v 0.279 H 90.91302 q 0.0372,0.58898 0.353392,0.89898 0.319293,0.30689 0.88658,0.30689 0.328593,0 0.635486,-0.0806 0.309993,-0.0806 0.613787,-0.24179 v 0.53939 q -0.306893,0.13019 -0.629286,0.19839 -0.322393,0.0682 -0.654086,0.0682 -0.830781,0 -1.317471,-0.48359 -0.483589,-0.48359 -0.483589,-1.30817 0,-0.85248 0.45879,-1.35157 0.46189,-0.50219 1.243072,-0.50219 0.700585,0 1.106676,0.45259 0.409191,0.44949 0.409191,1.22447 z m -0.570388,-0.16739 q -0.0062,-0.46809 -0.263494,-0.74709 -0.254194,-0.27899 -0.675785,-0.27899 -0.477389,0 -0.765683,0.26969 -0.285194,0.2697 -0.328593,0.75949 z"
           style="stroke-width:0.47339374"
           id="path2859" />
      </g>
      <use
         transform="matrix(1.5954583,0,0,0.51055749,38.978478,203.87586)"
         height="100%"
         width="100%"
         y="0"
         x="0"
         xlink:href="#Process"
         style="fill:#00b700;fill-opacity:0.81385277;stroke:#000000"
         id="use10310-3-5-6" />
      <g
         aria-label="Inferenz"
         style="font-style:normal;font-variant:normal;font-weight:normal;font-stretch:normal;font-size:6.34865952px;line-height:1;font-family:sans-serif;-inkscape-font-specification:'sans-serif, Normal';font-variant-ligatures:normal;font-variant-caps:normal;font-variant-numeric:normal;font-feature-settings:normal;text-align:start;letter-spacing:0px;word-spacing:0px;writing-mode:lr-tb;text-anchor:start;fill:#000000;fill-opacity:1;stroke:none;stroke-width:0.47339374"
         id="text10371-4-9">
        <path
           d="m 56.168527,211.79516 h 0.626186 v 4.6282 h -0.626186 z"
           style="stroke-width:0.47339374"
           id="path2862" />
        <path
           d="m 60.902122,214.3278 v 2.09556 h -0.570387 v -2.07696 q 0,-0.49289 -0.192196,-0.73778 -0.192196,-0.2449 -0.576587,-0.2449 -0.46189,0 -0.728484,0.2945 -0.266594,0.29449 -0.266594,0.80288 v 1.96226 h -0.573488 v -3.47193 h 0.573488 v 0.53939 q 0.204595,-0.31309 0.480489,-0.46809 0.278994,-0.155 0.641686,-0.155 0.598287,0 0.90518,0.372 0.306893,0.36889 0.306893,1.08807 z"
           style="stroke-width:0.47339374"
           id="path2864" />
        <path
           d="m 63.803658,211.59986 v 0.47429 H 63.25807 q -0.306893,0 -0.427791,0.124 -0.117797,0.124 -0.117797,0.44639 v 0.30689 h 0.939279 v 0.44329 h -0.939279 v 3.02864 h -0.573487 v -3.02864 h -0.545588 v -0.44329 h 0.545588 v -0.24179 q 0,-0.57969 0.269694,-0.84318 0.269694,-0.2666 0.855581,-0.2666 z"
           style="stroke-width:0.47339374"
           id="path2866" />
        <path
           d="m 67.247682,214.5448 v 0.27899 H 64.62514 q 0.0372,0.58899 0.353392,0.89898 0.319293,0.30689 0.88658,0.30689 0.328593,0 0.635486,-0.0806 0.309994,-0.0806 0.613787,-0.2418 v 0.53939 q -0.306893,0.1302 -0.629286,0.19839 -0.322393,0.0682 -0.654086,0.0682 -0.830781,0 -1.317471,-0.48359 -0.483589,-0.48359 -0.483589,-1.30817 0,-0.85248 0.45879,-1.35157 0.46189,-0.50219 1.243072,-0.50219 0.700585,0 1.106676,0.45259 0.409191,0.44949 0.409191,1.22448 z m -0.570388,-0.1674 q -0.0062,-0.46809 -0.263494,-0.74708 -0.254194,-0.279 -0.675785,-0.279 -0.477389,0 -0.765683,0.2697 -0.285193,0.26969 -0.328593,0.75948 z"
           style="stroke-width:0.47339374"
           id="path2868" />
        <path
           d="m 70.195716,213.48462 q -0.0961,-0.0558 -0.210795,-0.0806 -0.111597,-0.0279 -0.247994,-0.0279 -0.48359,0 -0.743984,0.3162 -0.257294,0.31309 -0.257294,0.90208 v 1.82896 h -0.573488 v -3.47193 h 0.573488 v 0.53939 q 0.179796,-0.31619 0.468089,-0.46809 0.288294,-0.155 0.700585,-0.155 0.0589,0 0.130197,0.009 0.0713,0.006 0.158096,0.0217 z"
           style="stroke-width:0.47339374"
           id="path2870" />
        <path
           d="m 73.63354,214.5448 v 0.27899 h -2.622542 q 0.0372,0.58899 0.353393,0.89898 0.319293,0.30689 0.88658,0.30689 0.328593,0 0.635486,-0.0806 0.309993,-0.0806 0.613786,-0.2418 v 0.53939 q -0.306893,0.1302 -0.629286,0.19839 -0.322393,0.0682 -0.654085,0.0682 -0.830782,0 -1.317471,-0.48359 -0.483589,-0.48359 -0.483589,-1.30817 0,-0.85248 0.458789,-1.35157 0.46189,-0.50219 1.243073,-0.50219 0.700584,0 1.106675,0.45259 0.409191,0.44949 0.409191,1.22448 z m -0.570387,-0.1674 q -0.0062,-0.46809 -0.263494,-0.74708 -0.254195,-0.279 -0.675785,-0.279 -0.47739,0 -0.765683,0.2697 -0.285194,0.26969 -0.328593,0.75948 z"
           style="stroke-width:0.47339374"
           id="path2872" />
        <path
           d="m 77.455757,214.3278 v 2.09556 h -0.570388 v -2.07696 q 0,-0.49289 -0.192196,-0.73778 -0.192195,-0.2449 -0.576587,-0.2449 -0.46189,0 -0.728484,0.2945 -0.266594,0.29449 -0.266594,0.80288 v 1.96226 h -0.573487 v -3.47193 h 0.573487 v 0.53939 q 0.204596,-0.31309 0.48049,-0.46809 0.278993,-0.155 0.641685,-0.155 0.598287,0 0.90518,0.372 0.306894,0.36889 0.306894,1.08807 z"
           style="stroke-width:0.47339374"
           id="path2874" />
        <path
           d="m 78.351637,212.95143 h 2.70934 v 0.52079 l -2.145153,2.49545 h 2.145153 v 0.45569 h -2.786838 v -0.52079 l 2.145152,-2.49545 h -2.067654 z"
           style="stroke-width:0.47339374"
           id="path2876" />
      </g>
      <g
         aria-label="F4"
         style="font-style:normal;font-variant:normal;font-weight:normal;font-stretch:normal;font-size:6.34865952px;line-height:1;font-family:sans-serif;-inkscape-font-specification:'sans-serif, Normal';font-variant-ligatures:normal;font-variant-caps:normal;font-variant-numeric:normal;font-feature-settings:normal;text-align:start;letter-spacing:0px;word-spacing:0px;writing-mode:lr-tb;text-anchor:start;fill:#000000;fill-opacity:1;stroke:none;stroke-width:0.47339374"
         id="text10371-4-9-7-9-0">
        <path
           d="m 123.46381,240.42123 h 2.65974 v 0.52698 h -2.03356 v 1.36397 h 1.83516 v 0.52699 h -1.83516 v 2.21025 h -0.62618 z"
           style=""
           id="path2879" />
        <path
           d="m 128.89799,240.96681 -1.58097,2.47065 h 1.58097 z m -0.1643,-0.54558 h 0.78738 v 3.01623 h 0.66029 v 0.52079 h -0.66029 v 1.09117 h -0.62308 v -1.09117 h -2.08936 v -0.60449 z"
           style=""
           id="path2881" />
      </g>
      <g
         aria-label="F1"
         style="font-style:normal;font-variant:normal;font-weight:normal;font-stretch:normal;font-size:6.34865952px;line-height:1;font-family:sans-serif;-inkscape-font-specification:'sans-serif, Normal';font-variant-ligatures:normal;font-variant-caps:normal;font-variant-numeric:normal;font-feature-settings:normal;text-align:start;letter-spacing:0px;word-spacing:0px;writing-mode:lr-tb;text-anchor:start;fill:#000000;fill-opacity:1;stroke:none;stroke-width:0.47339374"
         id="text10371-4-9-7-97">
        <path
           d="m 48.09839,240.8756 h 2.659741 v 0.52699 h -2.033555 v 1.36397 h 1.835159 v 0.52699 h -1.835159 v 2.21025 H 48.09839 Z"
           style="stroke-width:0.47339374"
           id="path2884" />
        <path
           d="m 51.920605,244.97681 h 1.022978 v -3.53082 l -1.112876,0.22319 v -0.57038 l 1.106676,-0.2232 h 0.626186 v 4.10121 h 1.022977 v 0.52699 h -2.665941 z"
           style="stroke-width:0.47339374"
           id="path2886" />
      </g>
      <g
         aria-label="F2"
         style="font-style:normal;font-variant:normal;font-weight:normal;font-stretch:normal;font-size:6.34865952px;line-height:1;font-family:sans-serif;-inkscape-font-specification:'sans-serif, Normal';font-variant-ligatures:normal;font-variant-caps:normal;font-variant-numeric:normal;font-feature-settings:normal;text-align:start;letter-spacing:0px;word-spacing:0px;writing-mode:lr-tb;text-anchor:start;fill:#000000;fill-opacity:1;stroke:none;stroke-width:0.47339374"
         id="text10371-4-9-7-4-3">
        <path
           d="m 63.344198,241.13547 h 2.659741 v 0.52699 h -2.033555 v 1.36397 h 1.835159 v 0.52699 h -1.835159 v 2.21025 h -0.626186 z"
           style="stroke-width:0.47339374"
           id="path2889" />
        <path
           d="m 67.597304,245.23668 h 2.185451 v 0.52699 H 66.84402 v -0.52699 q 0.356492,-0.36889 0.970279,-0.98887 0.616886,-0.62309 0.774983,-0.80289 0.300693,-0.33789 0.41849,-0.57038 0.120898,-0.2356 0.120898,-0.46189 0,-0.3689 -0.260395,-0.60139 -0.257294,-0.2325 -0.672685,-0.2325 -0.294493,0 -0.623086,0.1023 -0.325493,0.1023 -0.697485,0.31 v -0.63239 q 0.378192,-0.1519 0.706785,-0.2294 0.328593,-0.0775 0.601387,-0.0775 0.719184,0 1.146974,0.35959 0.427791,0.35959 0.427791,0.96098 0,0.28519 -0.108498,0.54248 -0.105398,0.2542 -0.387491,0.60139 -0.0775,0.0899 -0.492889,0.52079 -0.415391,0.42779 -1.171774,1.19967 z"
           style="stroke-width:0.47339374"
           id="path2891" />
      </g>
      <g
         aria-label="F3"
         style="font-style:normal;font-variant:normal;font-weight:normal;font-stretch:normal;font-size:6.34865952px;line-height:1;font-family:sans-serif;-inkscape-font-specification:'sans-serif, Normal';font-variant-ligatures:normal;font-variant-caps:normal;font-variant-numeric:normal;font-feature-settings:normal;text-align:start;letter-spacing:0px;word-spacing:0px;writing-mode:lr-tb;text-anchor:start;fill:#000000;fill-opacity:1;stroke:none;stroke-width:0.47339374"
         id="text10371-4-9-7-93-9">
        <path
           d="m 110.4529,239.96375 h 2.65974 v 0.52699 h -2.03356 v 1.36397 h 1.83516 v 0.52699 h -1.83516 v 2.21025 h -0.62618 z"
           style="stroke-width:0.47339374"
           id="path2894" />
        <path
           d="m 116.06377,242.0965 q 0.44949,0.0961 0.70059,0.3999 0.25419,0.30379 0.25419,0.75018 0,0.68508 -0.47119,1.06018 -0.47119,0.37509 -1.33917,0.37509 -0.29139,0 -0.60138,-0.0589 -0.3069,-0.0558 -0.63549,-0.1705 v -0.60448 q 0.26039,0.15189 0.57039,0.22939 0.30999,0.0775 0.64788,0.0775 0.58899,0 0.89588,-0.2325 0.31,-0.23249 0.31,-0.67578 0,-0.40919 -0.2883,-0.63859 -0.28519,-0.23249 -0.79668,-0.23249 h -0.53939 v -0.51459 h 0.56419 q 0.46189,0 0.70678,-0.1829 0.2449,-0.18599 0.2449,-0.53318 0,-0.3565 -0.2542,-0.54559 -0.25109,-0.1922 -0.72228,-0.1922 -0.25729,0 -0.55179,0.0558 -0.29449,0.0558 -0.64788,0.1736 v -0.55799 q 0.35649,-0.0992 0.66648,-0.1488 0.31309,-0.0496 0.58899,-0.0496 0.71298,0 1.12837,0.3255 0.41539,0.32239 0.41539,0.87418 0,0.38439 -0.22009,0.65098 -0.2201,0.2635 -0.62619,0.36579 z"
           style="stroke-width:0.47339374"
           id="path2896" />
      </g>
      <g
         aria-label="Inf 5"
         style="font-style:normal;font-variant:normal;font-weight:normal;font-stretch:normal;font-size:9.76587677px;line-height:1;font-family:sans-serif;-inkscape-font-specification:'sans-serif, Normal';font-variant-ligatures:normal;font-variant-caps:normal;font-variant-numeric:normal;font-feature-settings:normal;text-align:start;letter-spacing:0px;word-spacing:0px;writing-mode:lr-tb;text-anchor:start;fill:#000000;fill-opacity:1;stroke:none;stroke-width:0.7282061"
         id="text10371-4-9-7-93-2">
        <path
           d="m 186.76528,264.37215 h 0.96323 v 7.11937 h -0.96323 z"
           style=""
           id="path2899" />
        <path
           d="m 194.04677,268.26801 v 3.22351 h -0.87741 v -3.1949 q 0,-0.75819 -0.29564,-1.1349 -0.29565,-0.37671 -0.88694,-0.37671 -0.71051,0 -1.1206,0.45301 -0.41009,0.45301 -0.41009,1.23504 v 3.01846 h -0.88217 v -5.34072 h 0.88217 v 0.82972 q 0.31472,-0.48162 0.73912,-0.72004 0.42916,-0.23843 0.98708,-0.23843 0.92031,0 1.3924,0.57222 0.47208,0.56745 0.47208,1.67374 z"
           style=""
           id="path2901" />
        <path
           d="m 198.51008,264.07174 v 0.72958 h -0.83926 q -0.47208,0 -0.65805,0.19074 -0.1812,0.19074 -0.1812,0.68666 v 0.47208 h 1.44485 v 0.6819 h -1.44485 v 4.65882 h -0.88217 v -4.65882 h -0.83926 v -0.6819 h 0.83926 v -0.37194 q 0,-0.89171 0.41485,-1.29703 0.41486,-0.41009 1.31611,-0.41009 z"
           style=""
           id="path2903" />
        <path
           d="m 202.48223,264.37215 h 3.78142 v 0.81065 h -2.89925 v 1.74527 q 0.20982,-0.0715 0.41963,-0.10491 0.20982,-0.0381 0.41963,-0.0381 1.19212,0 1.88832,0.65329 0.6962,0.65328 0.6962,1.76911 0,1.1492 -0.71527,1.78818 -0.71527,0.63421 -2.01707,0.63421 -0.44824,0 -0.91555,-0.0763 -0.46255,-0.0763 -0.95847,-0.22889 v -0.96801 q 0.42916,0.23366 0.88694,0.3481 0.45777,0.11445 0.968,0.11445 0.82495,0 1.30657,-0.43393 0.48162,-0.43394 0.48162,-1.17782 0,-0.74389 -0.48162,-1.17782 -0.48162,-0.43393 -1.30657,-0.43393 -0.38625,0 -0.77249,0.0858 -0.38148,0.0858 -0.78204,0.26703 z"
           style=""
           id="path2905" />
      </g>
      <path
         inkscape:connector-curvature="0"
         id="path14221-8-3-2-4"
         d="M 352.4154,293.8304 H 44.672552"
         style="fill:none;stroke:#000000;stroke-width:1.09979904;stroke-linecap:butt;stroke-linejoin:miter;stroke-miterlimit:4;stroke-dasharray:none;stroke-opacity:1;marker-start:url(#Arrow2Lstart-3-0-9)" />
      <use
         transform="matrix(1.9208172,0,0,0.50837456,65.49881,277.62085)"
         height="100%"
         width="100%"
         y="0"
         x="0"
         xlink:href="#Process"
         style="fill:#00b700;fill-opacity:0.81385277;stroke:#000000"
         id="use10310-3-5-6-7-8-3" />
      <use
         transform="matrix(1.9208172,0,0,0.50837456,128.14831,278.19915)"
         height="100%"
         width="100%"
         y="0"
         x="0"
         xlink:href="#Process"
         style="fill:#00b700;fill-opacity:0.81385277;stroke:#000000"
         id="use10310-3-5-6-7-8-8-33" />
      <use
         transform="matrix(1.9208172,0,0,0.50837456,190.79787,278.19915)"
         height="100%"
         width="100%"
         y="0"
         x="0"
         xlink:href="#Process"
         style="fill:#00b700;fill-opacity:0.81385277;stroke:#000000"
         id="use10310-3-5-6-7-8-8-3-8" />
      <use
         transform="matrix(0.43042169,0,0,0.52148639,168.59333,232.37671)"
         height="100%"
         width="100%"
         y="0"
         x="0"
         xlink:href="#Process"
         style="fill:#aaccee;stroke:#000000"
         id="use10310-3-5-4-4-1-2-9-6" />
      <g
         aria-label="F5"
         style="font-style:normal;font-variant:normal;font-weight:normal;font-stretch:normal;font-size:6.34865952px;line-height:1;font-family:sans-serif;-inkscape-font-specification:'sans-serif, Normal';font-variant-ligatures:normal;font-variant-caps:normal;font-variant-numeric:normal;font-feature-settings:normal;text-align:start;letter-spacing:0px;word-spacing:0px;writing-mode:lr-tb;text-anchor:start;fill:#000000;fill-opacity:1;stroke:none;stroke-width:0.47339374"
         id="text10371-4-9-7-9-0-4">
        <path
           d="m 173.37136,240.21775 h 2.65974 v 0.52699 h -2.03355 v 1.36397 h 1.83516 v 0.52699 h -1.83516 v 2.21025 h -0.62619 z"
           style=""
           id="path2908" />
        <path
           d="m 177.09128,240.21775 h 2.45825 v 0.52699 h -1.88476 v 1.13457 q 0.13639,-0.0465 0.27279,-0.0682 0.1364,-0.0248 0.2728,-0.0248 0.77498,0 1.22757,0.4247 0.45259,0.42469 0.45259,1.15007 0,0.74708 -0.46499,1.16247 -0.46499,0.4123 -1.31127,0.4123 -0.2914,0 -0.59519,-0.0496 -0.30069,-0.0496 -0.62309,-0.1488 v -0.62929 q 0.279,0.1519 0.57659,0.2263 0.29759,0.0744 0.62929,0.0744 0.53629,0 0.84938,-0.2821 0.31309,-0.28209 0.31309,-0.76568 0,-0.48359 -0.31309,-0.76568 -0.31309,-0.2821 -0.84938,-0.2821 -0.2511,0 -0.50219,0.0558 -0.248,0.0558 -0.50839,0.1736 z"
           style=""
           id="path2910" />
      </g>
      <use
         transform="matrix(0.43042169,0,0,0.52148639,183.31675,232.38708)"
         height="100%"
         width="100%"
         y="0"
         x="0"
         xlink:href="#Process"
         style="fill:#aaccee;stroke:#000000"
         id="use10310-3-5-4-4-1-2-9-6-0-9" />
      <g
         aria-label="F6"
         style="font-style:normal;font-variant:normal;font-weight:normal;font-stretch:normal;font-size:6.34865952px;line-height:1;font-family:sans-serif;-inkscape-font-specification:'sans-serif, Normal';font-variant-ligatures:normal;font-variant-caps:normal;font-variant-numeric:normal;font-feature-settings:normal;text-align:start;letter-spacing:0px;word-spacing:0px;writing-mode:lr-tb;text-anchor:start;fill:#000000;fill-opacity:1;stroke:none;stroke-width:0.47339374"
         id="text10371-4-9-7-9-0-4-3-2">
        <path
           d="m 188.09469,240.22813 h 2.65974 v 0.52698 h -2.03355 v 1.36397 h 1.83516 v 0.52699 h -1.83516 v 2.21025 h -0.62619 z"
           style="stroke-width:0.47339374"
           id="path2913" />
        <path
           d="m 193.22508,242.29268 q -0.42159,0 -0.66959,0.28829 -0.24489,0.2883 -0.24489,0.79049 0,0.49909 0.24489,0.79048 0.248,0.28829 0.66959,0.28829 0.42159,0 0.66648,-0.28829 0.248,-0.29139 0.248,-0.79048 0,-0.50219 -0.248,-0.79049 -0.24489,-0.28829 -0.66648,-0.28829 z m 1.24307,-1.96226 v 0.57039 q -0.2356,-0.1116 -0.47739,-0.1705 -0.2387,-0.0589 -0.47429,-0.0589 -0.61999,0 -0.94858,0.41849 -0.32549,0.41849 -0.37199,1.26477 0.18289,-0.2697 0.45879,-0.41229 0.27589,-0.1457 0.60759,-0.1457 0.69748,0 1.10047,0.42469 0.40609,0.42159 0.40609,1.15008 0,0.71298 -0.42159,1.14387 -0.42159,0.43089 -1.12217,0.43089 -0.80289,0 -1.22758,-0.61379 -0.42469,-0.61688 -0.42469,-1.78556 0,-1.09737 0.52079,-1.74836 0.52079,-0.65408 1.39807,-0.65408 0.2356,0 0.47429,0.0465 0.24179,0.0465 0.50219,0.13949 z"
           style="stroke-width:0.47339374"
           id="path2915" />
      </g>
      <g
         aria-label="Inf 1"
         style="font-style:normal;font-variant:normal;font-weight:normal;font-stretch:normal;font-size:9.76587677px;line-height:1;font-family:sans-serif;-inkscape-font-specification:'sans-serif, Normal';font-variant-ligatures:normal;font-variant-caps:normal;font-variant-numeric:normal;font-feature-settings:normal;text-align:start;letter-spacing:0px;word-spacing:0px;writing-mode:lr-tb;text-anchor:start;fill:#000000;fill-opacity:1;stroke:none;stroke-width:0.7282061"
         id="text10371-4-9-7-93-2-4">
        <path
           d="m 61.598169,264.63818 h 0.963236 v 7.11936 h -0.963236 z"
           style=""
           id="path2918" />
        <path
           d="m 68.87966,268.53404 v 3.2235 h -0.877403 v -3.19489 q 0,-0.75819 -0.295646,-1.13491 -0.295647,-0.37671 -0.88694,-0.37671 -0.710506,0 -1.120597,0.45301 -0.41009,0.45301 -0.41009,1.23504 v 3.01846 h -0.882172 v -5.34072 h 0.882172 v 0.82972 q 0.314721,-0.48162 0.739117,-0.72004 0.429164,-0.23843 0.987078,-0.23843 0.920319,0 1.3924,0.57222 0.472081,0.56745 0.472081,1.67375 z"
           style=""
           id="path2920" />
        <path
           d="m 73.342971,264.33776 v 0.72958 h -0.839255 q -0.472081,0 -0.658052,0.19074 -0.181203,0.19074 -0.181203,0.68666 v 0.47208 h 1.444854 v 0.6819 h -1.444854 v 4.65882 h -0.882172 v -4.65882 h -0.839255 v -0.6819 h 0.839255 v -0.37194 q 0,-0.89171 0.414859,-1.29703 0.414859,-0.41009 1.316105,-0.41009 z"
           style=""
           id="path2922" />
        <path
           d="m 77.472487,270.94689 h 1.573603 v -5.43131 l -1.711889,0.34333 v -0.8774 l 1.702352,-0.34333 h 0.963236 v 6.30871 h 1.573603 v 0.81065 h -4.100905 z"
           style=""
           id="path2924" />
      </g>
      <g
         aria-label="Inf 2"
         style="font-style:normal;font-variant:normal;font-weight:normal;font-stretch:normal;font-size:9.76587677px;line-height:1;font-family:sans-serif;-inkscape-font-specification:'sans-serif, Normal';font-variant-ligatures:normal;font-variant-caps:normal;font-variant-numeric:normal;font-feature-settings:normal;text-align:start;letter-spacing:0px;word-spacing:0px;writing-mode:lr-tb;text-anchor:start;fill:#000000;fill-opacity:1;stroke:none;stroke-width:0.7282061"
         id="text10371-4-9-7-93-2-4-5">
        <path
           d="m 76.757921,283.98415 h 0.963236 v 7.11937 h -0.963236 z"
           style=""
           id="path2927" />
        <path
           d="m 84.039412,287.88001 v 3.22351 h -0.877403 v -3.1949 q 0,-0.75819 -0.295646,-1.1349 -0.295647,-0.37671 -0.88694,-0.37671 -0.710506,0 -1.120597,0.45301 -0.41009,0.45301 -0.41009,1.23504 v 3.01846 h -0.882172 v -5.34072 h 0.882172 v 0.82972 q 0.31472,-0.48162 0.739116,-0.72004 0.429165,-0.23843 0.987079,-0.23843 0.920319,0 1.3924,0.57222 0.472081,0.56745 0.472081,1.67374 z"
           style=""
           id="path2929" />
        <path
           d="m 88.502723,283.68374 v 0.72958 h -0.839255 q -0.472081,0 -0.658053,0.19074 -0.181202,0.19074 -0.181202,0.68666 v 0.47208 h 1.444853 v 0.6819 h -1.444853 v 4.65882 h -0.882172 v -4.65882 h -0.839255 v -0.6819 h 0.839255 v -0.37194 q 0,-0.89171 0.414859,-1.29703 0.414859,-0.41009 1.316105,-0.41009 z"
           style=""
           id="path2931" />
        <path
           d="m 93.29506,290.29287 h 3.361788 v 0.81065 h -4.520532 v -0.81065 q 0.548377,-0.56745 1.492538,-1.52115 0.948931,-0.95847 1.192124,-1.23504 0.462544,-0.51976 0.643747,-0.8774 0.185971,-0.36241 0.185971,-0.71051 0,-0.56745 -0.400553,-0.92508 -0.395785,-0.35764 -1.034764,-0.35764 -0.453007,0 -0.958467,0.15736 -0.500692,0.15736 -1.072911,0.47685 v -0.97278 q 0.581756,-0.23365 1.087216,-0.35286 0.505461,-0.11922 0.925088,-0.11922 1.106291,0 1.764343,0.55315 0.658053,0.55314 0.658053,1.47823 0,0.4387 -0.166898,0.83449 -0.162129,0.39102 -0.596062,0.92509 -0.119212,0.13828 -0.75819,0.8011 -0.638979,0.65806 -1.802491,1.84541 z"
           style=""
           id="path2933" />
      </g>
      <g
         aria-label="Inf 3"
         style="font-style:normal;font-variant:normal;font-weight:normal;font-stretch:normal;font-size:9.76587677px;line-height:1;font-family:sans-serif;-inkscape-font-specification:'sans-serif, Normal';font-variant-ligatures:normal;font-variant-caps:normal;font-variant-numeric:normal;font-feature-settings:normal;text-align:start;letter-spacing:0px;word-spacing:0px;writing-mode:lr-tb;text-anchor:start;fill:#000000;fill-opacity:1;stroke:none;stroke-width:0.7282061"
         id="text10371-4-9-7-93-2-4-5-4">
        <path
           d="m 123.70292,264.06478 h 0.96324 v 7.11936 h -0.96324 z"
           style=""
           id="path2936" />
        <path
           d="m 130.98441,267.96064 v 3.2235 h -0.8774 v -3.19489 q 0,-0.75819 -0.29565,-1.1349 -0.29564,-0.37671 -0.88694,-0.37671 -0.7105,0 -1.12059,0.45301 -0.41009,0.453 -0.41009,1.23504 v 3.01845 h -0.88218 v -5.34071 h 0.88218 v 0.82972 q 0.31472,-0.48162 0.73911,-0.72005 0.42917,-0.23842 0.98708,-0.23842 0.92032,0 1.3924,0.57222 0.47208,0.56745 0.47208,1.67374 z"
           style=""
           id="path2938" />
        <path
           d="m 135.44772,263.76437 v 0.72958 h -0.83925 q -0.47208,0 -0.65805,0.19074 -0.18121,0.19073 -0.18121,0.68666 v 0.47208 h 1.44486 v 0.68189 h -1.44486 v 4.65882 h -0.88217 v -4.65882 h -0.83925 v -0.68189 h 0.83925 v -0.37194 q 0,-0.89171 0.41486,-1.29703 0.41486,-0.41009 1.3161,-0.41009 z"
           style=""
           id="path2940" />
        <path
           d="m 142.32866,267.3455 q 0.69143,0.14783 1.07768,0.61514 0.39102,0.46731 0.39102,1.15398 0,1.05383 -0.72481,1.63082 -0.72482,0.57699 -2.05999,0.57699 -0.44824,0 -0.92509,-0.0906 -0.47208,-0.0858 -0.97754,-0.26227 v -0.92986 q 0.40055,0.23366 0.8774,0.35287 0.47685,0.11922 0.99661,0.11922 0.90602,0 1.3781,-0.35764 0.47685,-0.35764 0.47685,-1.03953 0,-0.62944 -0.44347,-0.98231 -0.4387,-0.35764 -1.2255,-0.35764 h -0.82972 v -0.79157 h 0.86786 q 0.71051,0 1.08722,-0.28134 0.37671,-0.28611 0.37671,-0.82018 0,-0.54838 -0.39101,-0.83926 -0.38625,-0.29564 -1.11106,-0.29564 -0.39579,0 -0.8488,0.0858 -0.453,0.0858 -0.99661,0.26703 v -0.85832 q 0.54838,-0.1526 1.02522,-0.22889 0.48162,-0.0763 0.90602,-0.0763 1.09675,0 1.73573,0.50069 0.63898,0.49593 0.63898,1.34472 0,0.59129 -0.33856,1.00138 -0.33857,0.40532 -0.96324,0.56268 z"
           style=""
           id="path2942" />
      </g>
      <g
         aria-label="Inf 4"
         style="font-style:normal;font-variant:normal;font-weight:normal;font-stretch:normal;font-size:9.76587677px;line-height:1;font-family:sans-serif;-inkscape-font-specification:'sans-serif, Normal';font-variant-ligatures:normal;font-variant-caps:normal;font-variant-numeric:normal;font-feature-settings:normal;text-align:start;letter-spacing:0px;word-spacing:0px;writing-mode:lr-tb;text-anchor:start;fill:#000000;fill-opacity:1;stroke:none;stroke-width:0.7282061"
         id="text10371-4-9-7-93-2-4-5-4-9">
        <path
           d="m 137.74147,283.59371 h 0.96324 v 7.11936 h -0.96324 z"
           style=""
           id="path2945" />
        <path
           d="m 145.02296,287.48957 v 3.2235 h -0.8774 v -3.19489 q 0,-0.75819 -0.29565,-1.1349 -0.29564,-0.37671 -0.88694,-0.37671 -0.7105,0 -1.12059,0.45301 -0.41009,0.453 -0.41009,1.23504 v 3.01845 h -0.88217 v -5.34071 h 0.88217 v 0.82972 q 0.31472,-0.48162 0.73911,-0.72004 0.42917,-0.23843 0.98708,-0.23843 0.92032,0 1.3924,0.57222 0.47208,0.56745 0.47208,1.67374 z"
           style=""
           id="path2947" />
        <path
           d="m 149.48627,283.2933 v 0.72958 h -0.83925 q -0.47208,0 -0.65805,0.19074 -0.18121,0.19074 -0.18121,0.68666 v 0.47208 h 1.44486 v 0.68189 h -1.44486 v 4.65882 h -0.88217 v -4.65882 h -0.83925 v -0.68189 h 0.83925 v -0.37194 q 0,-0.89171 0.41486,-1.29703 0.41486,-0.41009 1.31611,-0.41009 z"
           style=""
           id="path2949" />
        <path
           d="m 156.09541,284.43297 -2.43193,3.80049 h 2.43193 z m -0.25273,-0.83926 h 1.21119 v 4.63975 h 1.01569 v 0.8011 h -1.01569 v 1.67851 h -0.95846 v -1.67851 h -3.21397 v -0.92985 z"
           style=""
           id="path2951" />
      </g>
      <g
         aria-label="Inf 6"
         style="font-style:normal;font-variant:normal;font-weight:normal;font-stretch:normal;font-size:9.76587677px;line-height:1;font-family:sans-serif;-inkscape-font-specification:'sans-serif, Normal';font-variant-ligatures:normal;font-variant-caps:normal;font-variant-numeric:normal;font-feature-settings:normal;text-align:start;letter-spacing:0px;word-spacing:0px;writing-mode:lr-tb;text-anchor:start;fill:#000000;fill-opacity:1;stroke:none;stroke-width:0.7282061"
         id="text10371-4-9-7-93-2-2">
        <path
           d="m 201.06935,283.91497 h 0.96324 v 7.11936 h -0.96324 z"
           style=""
           id="path2954" />
        <path
           d="m 208.35084,287.81083 v 3.2235 h -0.8774 v -3.19489 q 0,-0.75819 -0.29565,-1.1349 -0.29564,-0.37671 -0.88694,-0.37671 -0.7105,0 -1.12059,0.45301 -0.41009,0.453 -0.41009,1.23504 v 3.01845 H 203.878 v -5.34071 h 0.88217 v 0.82972 q 0.31472,-0.48162 0.73911,-0.72005 0.42917,-0.23842 0.98708,-0.23842 0.92032,0 1.3924,0.57222 0.47208,0.56745 0.47208,1.67374 z"
           style=""
           id="path2956" />
        <path
           d="m 212.81415,283.61455 v 0.72958 h -0.83925 q -0.47208,0 -0.65805,0.19074 -0.18121,0.19074 -0.18121,0.68667 v 0.47208 h 1.44486 v 0.68189 h -1.44486 v 4.65882 h -0.88217 v -4.65882 h -0.83925 v -0.68189 h 0.83925 v -0.37194 q 0,-0.89171 0.41486,-1.29703 0.41486,-0.4101 1.31611,-0.4101 z"
           style=""
           id="path2958" />
        <path
           d="m 218.95598,287.09079 q -0.64852,0 -1.03,0.44347 -0.37671,0.44347 -0.37671,1.21596 0,0.76773 0.37671,1.21597 0.38148,0.44347 1.03,0.44347 0.64851,0 1.02522,-0.44347 0.38148,-0.44824 0.38148,-1.21597 0,-0.77249 -0.38148,-1.21596 -0.37671,-0.44347 -1.02522,-0.44347 z m 1.91216,-3.01846 v 0.8774 q -0.3624,-0.17166 -0.73435,-0.26226 -0.36717,-0.0906 -0.72958,-0.0906 -0.95369,0 -1.45916,0.64375 -0.50069,0.64375 -0.57221,1.94555 0.28134,-0.41486 0.70573,-0.63421 0.4244,-0.22412 0.93463,-0.22412 1.07291,0 1.69281,0.65328 0.62468,0.64852 0.62468,1.76911 0,1.09676 -0.64852,1.75958 -0.64851,0.66282 -1.72619,0.66282 -1.23504,0 -1.88833,-0.94416 -0.65328,-0.94893 -0.65328,-2.74666 0,-1.68804 0.80111,-2.68943 0.8011,-1.00615 2.15059,-1.00615 0.3624,0 0.72958,0.0715 0.37194,0.0715 0.77249,0.21458 z"
           style=""
           id="path2960" />
      </g>
      <g
         aria-label="t/ms"
         style="font-style:normal;font-weight:normal;font-size:17.99166679px;line-height:1.25;font-family:sans-serif;letter-spacing:0px;word-spacing:0px;fill:#000000;fill-opacity:1;stroke:none;stroke-width:0.44979167"
         id="text2616">
        <path
           d="m 292.4462,299.82058 v 2.79363 h 3.32951 v 1.25625 h -3.32951 v 5.34128 q 0,1.20354 0.32504,1.54616 0.33383,0.34261 1.34411,0.34261 h 1.66036 v 1.35289 h -1.66036 q -1.87121,0 -2.58279,-0.69401 -0.71159,-0.7028 -0.71159,-2.54765 v -5.34128 H 289.635 v -1.25625 h 1.18597 v -2.79363 z"
           style="stroke-width:0.44979167"
           id="path2963" />
        <path
           d="m 300.78316,299.3374 h 1.49345 l -4.5682,14.78515 h -1.49345 z"
           style="stroke-width:0.44979167"
           id="path2965" />
        <path
           d="m 311.65019,304.50298 q 0.60617,-1.08934 1.44953,-1.60765 0.84336,-0.51832 1.98541,-0.51832 1.53737,0 2.37194,1.08056 0.83458,1.07177 0.83458,3.05717 v 5.93866 h -1.62523 v -5.88595 q 0,-1.41438 -0.50074,-2.09961 -0.50074,-0.68523 -1.52859,-0.68523 -1.25625,0 -1.98541,0.83458 -0.72915,0.83457 -0.72915,2.27531 v 5.5609 h -1.62523 v -5.88595 q 0,-1.42316 -0.50074,-2.09961 -0.50074,-0.68523 -1.54616,-0.68523 -1.23868,0 -1.96784,0.84336 -0.72915,0.83457 -0.72915,2.26653 v 5.5609 h -1.62523 v -9.83919 h 1.62523 v 1.52859 q 0.55345,-0.90486 1.32653,-1.33532 0.77308,-0.43047 1.83607,-0.43047 1.07176,0 1.81849,0.54467 0.75551,0.54467 1.11569,1.5813 z"
           style="stroke-width:0.44979167"
           id="path2967" />
        <path
           d="m 327.79701,302.90411 v 1.52859 q -0.68523,-0.3514 -1.42317,-0.5271 -0.73794,-0.1757 -1.52859,-0.1757 -1.20354,0 -1.80971,0.36897 -0.59738,0.36897 -0.59738,1.10691 0,0.56224 0.43047,0.88728 0.43046,0.31626 1.73064,0.60617 l 0.55346,0.12299 q 1.72186,0.36897 2.44223,1.04541 0.72915,0.66766 0.72915,1.87121 0,1.37046 -1.08934,2.16989 -1.08055,0.79943 -2.97811,0.79943 -0.79065,0 -1.65158,-0.15813 -0.85214,-0.14934 -1.80092,-0.45682 v -1.66914 q 0.89607,0.4656 1.76578,0.7028 0.86971,0.22841 1.72186,0.22841 1.14205,0 1.757,-0.38654 0.61495,-0.39533 0.61495,-1.10691 0,-0.65888 -0.44804,-1.01028 -0.43925,-0.3514 -1.94148,-0.67644 l -0.56224,-0.13178 q -1.50224,-0.31626 -2.16989,-0.96635 -0.66766,-0.65887 -0.66766,-1.80092 0,-1.38803 0.98391,-2.14354 0.98392,-0.75551 2.79363,-0.75551 0.89607,0 1.68672,0.13178 0.79065,0.13177 1.45831,0.39532 z"
           style="stroke-width:0.44979167"
           id="path2969" />
      </g>
    </g>
  </g>
</svg>
