<svg viewBox="0 0 330 200" xmlns="http://www.w3.org/2000/svg"><g><g><g><g><g><line x1="70" y1="178" x2="65" y2="178" style="visibility: inherit;" fill="rgb(0, 0, 0)" stroke="rgb(204, 204, 204)" stroke-width="1px"></line><line x1="70" y1="160.2" x2="65" y2="160.2" style="visibility: inherit;" fill="rgb(0, 0, 0)" stroke="rgb(204, 204, 204)" stroke-width="1px"></line><line x1="70" y1="142.39999999999998" x2="65" y2="142.39999999999998" style="visibility: inherit;" fill="rgb(0, 0, 0)" stroke="rgb(204, 204, 204)" stroke-width="1px"></line><line x1="70" y1="124.59999999999997" x2="65" y2="124.59999999999997" style="visibility: inherit;" fill="rgb(0, 0, 0)" stroke="rgb(204, 204, 204)" stroke-width="1px"></line><line x1="70" y1="106.79999999999994" x2="65" y2="106.79999999999994" style="visibility: inherit;" fill="rgb(0, 0, 0)" stroke="rgb(204, 204, 204)" stroke-width="1px"></line><line x1="70" y1="88.99999999999994" x2="65" y2="88.99999999999994" style="visibility: inherit;" fill="rgb(0, 0, 0)" stroke="rgb(204, 204, 204)" stroke-width="1px"></line><line x1="70" y1="71.19999999999993" x2="65" y2="71.19999999999993" style="visibility: inherit;" fill="rgb(0, 0, 0)" stroke="rgb(204, 204, 204)" stroke-width="1px"></line><line x1="70" y1="53.400000000000034" x2="65" y2="53.400000000000034" style="visibility: inherit;" fill="rgb(0, 0, 0)" stroke="rgb(204, 204, 204)" stroke-width="1px"></line><line x1="70" y1="35.60000000000002" x2="65" y2="35.60000000000002" style="visibility: inherit;" fill="rgb(0, 0, 0)" stroke="rgb(204, 204, 204)" stroke-width="1px"></line><line x1="70" y1="17.80000000000001" x2="65" y2="17.80000000000001" style="visibility: inherit;" fill="rgb(0, 0, 0)" stroke="rgb(204, 204, 204)" stroke-width="1px"></line><line x1="70" y1="0" x2="65" y2="0" style="visibility: inherit;" fill="rgb(0, 0, 0)" stroke="rgb(204, 204, 204)" stroke-width="1px"></line></g><g transform="translate(60, 0)"><text x="0" y="178" dx="0em" dy="0.3em" style="text-anchor: end; visibility: hidden; font-family: &quot;Helvetica Neue&quot;, sans-serif; font-size: 12px; font-weight: 200;" fill="rgb(50, 49, 63)" stroke="none" stroke-width="1px">0.072</text><text x="0" y="160.2" dx="0em" dy="0.3em" style="text-anchor: end; visibility: inherit; font-family: &quot;Helvetica Neue&quot;, sans-serif; font-size: 12px; font-weight: 200;" fill="rgb(50, 49, 63)" stroke="none" stroke-width="1px">0.074</text><text x="0" y="142.39999999999998" dx="0em" dy="0.3em" style="text-anchor: end; visibility: hidden; font-family: &quot;Helvetica Neue&quot;, sans-serif; font-size: 12px; font-weight: 200;" fill="rgb(50, 49, 63)" stroke="none" stroke-width="1px">0.076</text><text x="0" y="124.59999999999997" dx="0em" dy="0.3em" style="text-anchor: end; visibility: inherit; font-family: &quot;Helvetica Neue&quot;, sans-serif; font-size: 12px; font-weight: 200;" fill="rgb(50, 49, 63)" stroke="none" stroke-width="1px">0.078</text><text x="0" y="106.79999999999994" dx="0em" dy="0.3em" style="text-anchor: end; visibility: hidden; font-family: &quot;Helvetica Neue&quot;, sans-serif; font-size: 12px; font-weight: 200;" fill="rgb(50, 49, 63)" stroke="none" stroke-width="1px">0.08</text><text x="0" y="88.99999999999994" dx="0em" dy="0.3em" style="text-anchor: end; visibility: inherit; font-family: &quot;Helvetica Neue&quot;, sans-serif; font-size: 12px; font-weight: 200;" fill="rgb(50, 49, 63)" stroke="none" stroke-width="1px">0.082</text><text x="0" y="71.19999999999993" dx="0em" dy="0.3em" style="text-anchor: end; visibility: hidden; font-family: &quot;Helvetica Neue&quot;, sans-serif; font-size: 12px; font-weight: 200;" fill="rgb(50, 49, 63)" stroke="none" stroke-width="1px">0.084</text><text x="0" y="53.400000000000034" dx="0em" dy="0.3em" style="text-anchor: end; visibility: inherit; font-family: &quot;Helvetica Neue&quot;, sans-serif; font-size: 12px; font-weight: 200;" fill="rgb(50, 49, 63)" stroke="none" stroke-width="1px">0.086</text><text x="0" y="35.60000000000002" dx="0em" dy="0.3em" style="text-anchor: end; visibility: hidden; font-family: &quot;Helvetica Neue&quot;, sans-serif; font-size: 12px; font-weight: 200;" fill="rgb(50, 49, 63)" stroke="none" stroke-width="1px">0.088</text><text x="0" y="17.80000000000001" dx="0em" dy="0.3em" style="text-anchor: end; visibility: inherit; font-family: &quot;Helvetica Neue&quot;, sans-serif; font-size: 12px; font-weight: 200;" fill="rgb(50, 49, 63)" stroke="none" stroke-width="1px">0.09</text><text x="0" y="0" dx="0em" dy="0.3em" style="text-anchor: end; visibility: hidden; font-family: &quot;Helvetica Neue&quot;, sans-serif; font-size: 12px; font-weight: 200;" fill="rgb(50, 49, 63)" stroke="none" stroke-width="1px">0.092</text></g><line x1="70" y1="0" x2="70" y2="178" fill="rgb(0, 0, 0)" stroke="rgb(204, 204, 204)" stroke-width="1px"></line></g></g><g transform="translate(70, 0)" clip-path="url(#clip_0)"><clipPath id="clip_0"><rect width="260" height="178"></rect></clipPath><g><g><g><line x1="0" y1="0" x2="0" y2="178" fill="rgb(0, 0, 0)" stroke="rgb(60, 60, 60)" stroke-width="1px" opacity="0.25"></line><line x1="21.666666666666664" y1="0" x2="21.666666666666664" y2="178" fill="rgb(0, 0, 0)" stroke="rgb(60, 60, 60)" stroke-width="1px" opacity="0.25"></line><line x1="43.33333333333333" y1="0" x2="43.33333333333333" y2="178" fill="rgb(0, 0, 0)" stroke="rgb(60, 60, 60)" stroke-width="1px" opacity="0.25"></line><line x1="65" y1="0" x2="65" y2="178" fill="rgb(0, 0, 0)" stroke="rgb(60, 60, 60)" stroke-width="1px" opacity="0.25"></line><line x1="86.66666666666666" y1="0" x2="86.66666666666666" y2="178" fill="rgb(0, 0, 0)" stroke="rgb(60, 60, 60)" stroke-width="1px" opacity="0.25"></line><line x1="108.33333333333334" y1="0" x2="108.33333333333334" y2="178" fill="rgb(0, 0, 0)" stroke="rgb(60, 60, 60)" stroke-width="1px" opacity="0.25"></line><line x1="130" y1="0" x2="130" y2="178" fill="rgb(0, 0, 0)" stroke="rgb(60, 60, 60)" stroke-width="1px" opacity="0.25"></line><line x1="151.66666666666669" y1="0" x2="151.66666666666669" y2="178" fill="rgb(0, 0, 0)" stroke="rgb(60, 60, 60)" stroke-width="1px" opacity="0.25"></line><line x1="173.33333333333331" y1="0" x2="173.33333333333331" y2="178" fill="rgb(0, 0, 0)" stroke="rgb(60, 60, 60)" stroke-width="1px" opacity="0.25"></line><line x1="195" y1="0" x2="195" y2="178" fill="rgb(0, 0, 0)" stroke="rgb(60, 60, 60)" stroke-width="1px" opacity="0.25"></line><line x1="216.66666666666669" y1="0" x2="216.66666666666669" y2="178" fill="rgb(0, 0, 0)" stroke="rgb(60, 60, 60)" stroke-width="1px" opacity="0.25"></line><line x1="238.33333333333331" y1="0" x2="238.33333333333331" y2="178" fill="rgb(0, 0, 0)" stroke="rgb(60, 60, 60)" stroke-width="1px" opacity="0.25"></line><line x1="260" y1="0" x2="260" y2="178" fill="rgb(0, 0, 0)" stroke="rgb(60, 60, 60)" stroke-width="1px" opacity="0.25"></line></g><g><line x1="0" y1="178" x2="260" y2="178" fill="rgb(0, 0, 0)" stroke="rgb(60, 60, 60)" stroke-width="1px" opacity="0.25"></line><line x1="0" y1="160.2" x2="260" y2="160.2" fill="rgb(0, 0, 0)" stroke="rgb(60, 60, 60)" stroke-width="1px" opacity="0.25"></line><line x1="0" y1="142.39999999999998" x2="260" y2="142.39999999999998" fill="rgb(0, 0, 0)" stroke="rgb(60, 60, 60)" stroke-width="1px" opacity="0.25"></line><line x1="0" y1="124.59999999999997" x2="260" y2="124.59999999999997" fill="rgb(0, 0, 0)" stroke="rgb(60, 60, 60)" stroke-width="1px" opacity="0.25"></line><line x1="0" y1="106.79999999999994" x2="260" y2="106.79999999999994" fill="rgb(0, 0, 0)" stroke="rgb(60, 60, 60)" stroke-width="1px" opacity="0.25"></line><line x1="0" y1="88.99999999999994" x2="260" y2="88.99999999999994" fill="rgb(0, 0, 0)" stroke="rgb(60, 60, 60)" stroke-width="1px" opacity="0.25"></line><line x1="0" y1="71.19999999999993" x2="260" y2="71.19999999999993" fill="rgb(0, 0, 0)" stroke="rgb(60, 60, 60)" stroke-width="1px" opacity="0.25"></line><line x1="0" y1="53.400000000000034" x2="260" y2="53.400000000000034" fill="rgb(0, 0, 0)" stroke="rgb(60, 60, 60)" stroke-width="1px" opacity="0.25"></line><line x1="0" y1="35.60000000000002" x2="260" y2="35.60000000000002" fill="rgb(0, 0, 0)" stroke="rgb(60, 60, 60)" stroke-width="1px" opacity="0.25"></line><line x1="0" y1="17.80000000000001" x2="260" y2="17.80000000000001" fill="rgb(0, 0, 0)" stroke="rgb(60, 60, 60)" stroke-width="1px" opacity="0.25"></line><line x1="0" y1="0" x2="260" y2="0" fill="rgb(0, 0, 0)" stroke="rgb(60, 60, 60)" stroke-width="1px" opacity="0.25"></line></g></g></g><g><g><line x1="0" y1="818.7999999999998" x2="260" y2="818.7999999999998" fill="rgb(0, 0, 0)" stroke="rgb(153, 153, 153)" stroke-width="1.5px"></line></g></g><g><g><line x1="21.666666666666664" y1="0" x2="21.666666666666664" y2="178" fill="rgb(0, 0, 0)" stroke="rgb(153, 153, 153)" stroke-width="1.5px"></line></g></g><g><g><g><g><g><path stroke="rgb(255, 112, 67)" stroke-width="2px" d="M33.8117,-8.944469225754887L35.350033333333336,17.52834896988881L38.84226666666667,56.836101666537985L40.3689,78.16001667738541L43.85983333333333,72.47862653651448L45.399033333333335,83.65337844863119L46.91223333333333,98.57905745031354L50.378033333333335,110.27474532264178L51.889066666666665,118.28653996958987L55.3657,133.47063965047425L56.475033333333336,119.66486255588028L57.747299999999996,112.2797852778234L59.161699999999996,125.05071107382057L62.49576666666666,133.14851864478774L64.0068,133.5398059348123L65.51826666666668,120.33572321752231L68.9923,123.32626684114194L70.5068,134.10282835473188L73.06303333333334,144.03961359107808L74.27723333333333,133.12516508018285L75.64699999999999,133.86170805397956L77.0354,137.48976026229698L78.4095,124.76230899196808L79.84686666666667,131.59454140215126L81.26906666666666,125.52152598560193L82.6618,133.76036853318084L84.09743333333334,132.98911573664296L87.4497,149.7909066080013L88.52263333333333,142.14573399090915L89.83823333333333,140.14708777248748L93.16146666666667,135.1112467912762L96.66843333333333,136.0485918691905L98.20113333333333,123.67860650542599L99.7802,120.45627693843122L101.35536666666667,124.78481355119965L104.91563333333333,139.74854301227788L106.47649999999999,141.5891542682783L110.0164,142.7527492627724L111.57076666666667,137.78032599036516L115.10763333333334,142.43880052224316L116.6854,141.13050599123136L118.26966666666667,140.156730964297L119.86909999999999,131.15675084958963L121.46679999999999,139.22860161297757L123.06276666666668,132.98971819296338L126.66983333333334,126.74198574191205L128.25453333333334,135.9043602321764L129.844,144.3519242700616L131.44213333333335,133.8228259930907L133.03766666666667,119.22800146160984L136.6456,124.28250667940836L140.24183333333335,128.88150901014467L141.83173333333335,144.48882361421119L143.4225,140.14122464280763L147.03,140.37243796122934L148.61079999999998,141.0621238704494L150.19766666666666,140.95826520180537L151.79493333333335,146.45213196787736L152.86223333333334,142.79185237475326L154.10373333333334,150.184161336351L157.4118,147.3798556942513L160.80133333333336,136.52631092898676L162.2621,127.88573379536052L163.3632,129.64178096306082L166.63876666666667,128.9452187076315L168.13463333333334,142.5979805693093L169.676,143.5988570466674L171.24986666666666,137.31333729833574L172.7921,141.05053788668044L176.37879999999998,119.41833340791534L177.9726,125.95152012626923L179.56596666666667,125.59055385184642L181.1654,136.3265570425532L184.79196666666667,131.19700823685778L186.3953,129.69982157743726L187.99213333333333,136.92994251130074L189.59373333333335,138.896604344118L191.18883333333332,146.8999707084109L192.77960000000002,157.67478601343691L196.40096666666668,139.51096504573377L197.99823333333336,124.35863651540487L199.58596666666665,125.39754975382445L201.1789,131.56477249708152L202.7688,125.3726636186026L204.3613,136.03601539938353L207.9766,119.5641802430671L209.57993333333334,121.25596976283319L211.16983333333332,119.217672462482L212.76146666666668,105.90523657036947L214.35656666666668,112.63502490540219L215.94906666666668,124.19324007761395L219.57043333333334,122.20170664985125L221.17376666666667,120.48365242123091L224.7765,124.47358703636812L226.37116666666665,134.2790086819153L227.96583333333334,137.93896133145213L229.56526666666664,121.75829015755963" style="fill: none;" fill="none"></path></g><g><path stroke="rgb(0, 119, 187)" stroke-width="2px" d="M25.805866666666667,-19.6998488239943L27.2168,47.21828714828112L28.67193333333333,42.53217006268747L30.159566666666667,33.540736798062085L33.501,32.566741624279956L36.8628,39.42356488710459L38.34696666666667,56.218646504148154L41.76206666666667,30.24934875691244L45.218333333333334,39.13280156857252L48.68586666666666,90.26233446139862L50.2021,84.6758728596713L53.62023333333334,102.08440118997868L55.115233333333336,102.22412023834626L58.46836666666667,116.79749800385216L59.9313,114.21328601307133L63.31433333333333,118.41488199307062L64.779,130.0448067282759L68.1577,119.41974784344083L71.41593333333334,130.43435741901916L72.85156666666667,135.60631696921627L76.33166666666666,112.27195107774507L77.87563333333334,116.04748808994732L79.4339,131.44590036932897L82.97553333333333,133.96750284922678L84.55113333333334,140.14109107079173L86.12283333333333,148.4609070661319L87.69886666666667,146.039866961192L91.23356666666666,144.79657186304698L94.70196666666666,142.30297698943386L96.21473333333333,141.53686893295986L99.62766666666667,143.47659797317874L101.11833333333334,129.24716579943112L104.46583333333334,138.81467638742328L107.9156,138.09513985786535L109.38113333333334,144.80038132951822L112.75290000000001,132.2617130092827L115.36286666666666,131.42796134234106L116.60306666666666,118.6047879677269L119.86953333333332,138.26128170383492L121.37536666666666,128.58100156420414L124.81993333333332,133.19183179143795L126.33573333333332,135.33583659951447L129.85483333333335,139.26915569507415L133.406,131.41234181205235L134.97683333333333,126.49104747193039L138.5336333333333,129.8737033977402L140.09363333333332,138.03693438156645L143.58110000000002,130.77191727022998L146.96110000000002,124.04780900389862L148.40193333333335,120.54496591751607L150.9187333333333,120.92288898625982L152.25036666666665,135.40656751634629L155.62256666666667,130.6220977273055L157.1609,120.84120679416428L160.66223333333332,124.97640974353807L162.20446666666666,129.9038196815922L165.74566666666666,138.90716937386367L167.30913333333334,136.75891787054147L170.86983333333333,138.50087209607375L172.44066666666666,139.44742815056568L175.97363333333334,148.87044805025542L179.5499333333333,149.6666423734156L181.1350666666667,142.23936477757255L182.71456666666666,114.15811790619337L186.27396666666667,132.06706408735542L187.8305,135.07663462922838L191.4133,138.24698714951194L192.9793666666667,138.27129472338865L196.45513333333335,132.2981242075186L199.93220000000002,147.01200861064325L203.48466666666667,148.31023622469738L206.98383333333334,135.0958442814149L208.4797,135.0698426632284L209.98423333333332,115.53573784757847L213.46216666666666,127.3957805080962L214.98966666666666,143.24018690370025L218.52220000000003,126.24040232051905L220.09996666666666,123.16529380768239L223.5753,126.83739376479201L225.0776666666667,126.63553092249524L228.56513333333334,128.81800190549066L232.0773,117.95336216176139L235.5782,122.84043105056637L237.13603333333333,140.63689210898136L240.53336666666667,141.55741329244634L241.9742,130.4135938790551" style="fill: none;" fill="none"></path></g></g></g></g><g opacity="0.2"><g><g><g><path stroke="rgb(255, 112, 67)" stroke-width="2px" d="M24.041766666666668,-71.1156667292118L27.384933333333333,24.0759602665901L28.868233333333333,8.787090229988081L30.3745,-64.84902436733245L33.8117,31.26491074562071L35.350033333333336,55.384902554750425L38.84226666666667,114.14718245267865L40.3689,109.60864936113354L43.85983333333333,64.04242430925368L45.399033333333335,100.31415213942525L46.91223333333333,120.88635106682774L50.378033333333335,127.78008868098254L51.889066666666665,130.28853600025172L55.3657,156.22894083261485L56.475033333333336,98.96593381762501L57.747299999999996,101.20529447793957L59.161699999999996,144.2038572311401L62.49576666666666,145.2939963817596L64.0068,134.12670110464092L65.51826666666668,100.5303232848644L68.9923,127.81198387145992L70.5068,150.2674578607082L73.06303333333334,158.9446737349033L74.27723333333333,116.75356988906857L75.64699999999999,134.96651937365527L77.0354,142.93182929158206L78.4095,105.67115162611005L79.84686666666667,141.84288372397418L81.26906666666666,116.41200621724126L82.6618,146.11862962245937L84.09743333333334,131.83223669528957L87.4497,174.99359090924258L88.52263333333333,130.67797561287875L89.83823333333333,137.14911853075023L93.16146666666667,127.55748544931407L96.66843333333333,137.45460947155948L98.20113333333333,105.12362857460973L99.7802,115.62278260588643L101.35536666666667,131.2776184558868L104.91563333333333,162.19413717389102L106.47649999999999,144.35007115006442L110.0164,144.4981417536735L111.57076666666667,130.32169108390804L115.10763333333334,149.42651231884952L116.6854,139.16806419491763L118.26966666666667,138.6960684239864L119.86909999999999,117.6567806780338L121.46679999999999,151.33637775778766L123.06276666666668,123.63139306306836L126.66983333333334,117.37038706541058L128.25453333333334,149.64792196750636L129.844,157.02327032685275L131.44213333333335,118.02917857766148L133.03766666666667,97.33576466441151L136.6456,131.86426450610156L140.24183333333335,135.78001250624652L141.83173333333335,167.8997955203056L143.4225,133.61982618570323L147.03,140.7192579388618L148.61079999999998,142.0966527342796L150.19766666666666,140.80247719883914L151.79493333333335,154.69293211698528L152.86223333333334,137.30143298506732L154.10373333333334,161.2726247787475L157.4118,143.17339723110194L160.80133333333336,120.24599378108975L162.2621,114.92486809492108L163.3632,132.275851714611L166.63876666666667,127.90037532448764L168.13463333333334,163.0771233618259L169.676,145.1001717627048L171.24986666666666,127.88505767583842L172.7921,146.65633876919742L176.37879999999998,86.97002668976782L177.9726,135.75130020380016L179.56596666666667,125.04910444021222L181.1654,152.43056182861324L184.79196666666667,123.50268502831456L186.3953,127.45404158830638L187.99213333333333,147.77512391209598L189.59373333333335,141.8465970933437L191.18883333333332,158.90502025485034L192.77960000000002,173.83700897097583L196.40096666666668,112.26523359417912L197.99823333333336,101.63014371991154L199.58596666666665,126.95591961145398L201.1789,140.81560661196704L202.7688,116.08450030088422L204.3613,152.0310430705547L207.9766,94.85642750859257L209.57993333333334,123.79365404248234L211.16983333333332,116.16022651195523L212.76146666666668,85.9365827322006L214.35656666666668,122.72970740795132L215.94906666666668,141.53056283593173L219.57043333333334,119.21440650820729L221.17376666666667,117.90657107830044L224.7765,130.45848895907397L226.37116666666665,148.98714115023608L227.96583333333334,143.42889030575748L229.56526666666664,97.48728339672085" style="fill: none;" fill="none"></path></g><g><path stroke="rgb(0, 119, 187)" stroke-width="2px" d="M22.702333333333332,-137.78337846398352L25.805866666666667,51.15026895999907L27.2168,111.45969768166539L28.67193333333333,37.02129637002943L30.159566666666667,21.801521527767164L33.501,31.21935566067694L36.8628,49.22893186211584L38.34696666666667,80.70603673458098L41.76206666666667,-8.050321143865602L45.218333333333334,52.32369368076323L48.68586666666666,166.49289270043369L50.2021,76.32658173441885L53.62023333333334,128.14035181999202L55.115233333333336,102.43342508673665L58.46836666666667,138.6404341936111L59.9313,110.33879061341283L63.31433333333333,124.71549798846242L64.779,147.48674099445338L68.1577,103.48377813696858L71.41593333333334,146.95526500344272L72.85156666666667,143.36397265195842L76.33166666666666,77.27117006778715L77.87563333333334,121.71071906685826L79.4339,154.543336379528L82.97553333333333,137.74988864660259L84.55113333333334,149.40144707560535L86.12283333333333,160.94060977101321L87.69886666666667,142.4083105206489L91.23356666666666,142.93163036108012L94.70196666666666,138.56258605718608L96.21473333333333,140.3877071022987L99.62766666666667,146.3861911475658L101.11833333333334,107.90301923751828L104.46583333333334,153.16594158411021L107.9156,137.01583509445186L109.38113333333334,154.85824336409564L112.75290000000001,113.45371072292325L115.36286666666666,130.17733384966846L116.60306666666666,99.37002797722813L119.86953333333332,167.74602224230762L121.37536666666666,114.06058137416836L124.81993333333332,140.10807712674136L126.33573333333332,138.55184381008144L129.85483333333335,145.16913433670993L133.406,119.62712098956105L134.97683333333333,119.10910596251485L138.5336333333333,134.9476872861385L140.09363333333332,150.28178085684772L143.58110000000002,119.87439160346982L146.96110000000002,113.96164660453793L148.40193333333335,115.29070128798482L150.9187333333333,121.4897735893726L152.25036666666665,157.13208531141277L155.62256666666667,123.44539304375645L157.1609,106.16987039446828L160.66223333333332,131.17921416759486L162.20446666666666,137.29493458867069L165.74566666666666,152.41219391226764L167.30913333333334,133.53654061555858L170.86983333333333,141.1138034343719L172.44066666666666,140.86726223230357L175.97363333333334,163.00497789978976L179.5499333333333,150.86093385815616L181.1350666666667,131.0984483838081L182.71456666666666,72.03624759912489L186.27396666666667,158.9304833590984L187.8305,139.59099044203754L191.4133,143.00251592993732L192.9793666666667,138.30775608420367L196.45513333333335,123.33836843371388L199.93220000000002,169.08283521533008L203.48466666666667,150.2575776457786L206.98383333333334,115.27425636649129L208.4797,135.03084023594852L209.98423333333332,86.23458062410353L213.46216666666666,145.1858444988727L214.98966666666666,167.0067964971065L218.52220000000003,100.74072544574734L220.09996666666666,118.55263103842732L223.5753,132.34554370045657L225.0776666666667,126.33273665904996L228.56513333333334,132.09170837998386L232.0773,101.65640254616734L235.5782,130.17103438377376L237.13603333333333,167.33158369660373L240.53336666666667,142.93819506764407L241.9742,113.69786475896832" style="fill: none;" fill="none"></path></g></g></g></g></g></g><g transform="translate(70, 178)" clip-path="url(#clip_1)"><clipPath id="clip_1"><rect width="260" height="22"></rect></clipPath><g><g><line x1="0" y1="0" x2="0" y2="5" style="visibility: inherit;" fill="rgb(0, 0, 0)" stroke="rgb(204, 204, 204)" stroke-width="1px"></line><line x1="21.666666666666664" y1="0" x2="21.666666666666664" y2="5" style="visibility: inherit;" fill="rgb(0, 0, 0)" stroke="rgb(204, 204, 204)" stroke-width="1px"></line><line x1="43.33333333333333" y1="0" x2="43.33333333333333" y2="5" style="visibility: inherit;" fill="rgb(0, 0, 0)" stroke="rgb(204, 204, 204)" stroke-width="1px"></line><line x1="65" y1="0" x2="65" y2="5" style="visibility: inherit;" fill="rgb(0, 0, 0)" stroke="rgb(204, 204, 204)" stroke-width="1px"></line><line x1="86.66666666666666" y1="0" x2="86.66666666666666" y2="5" style="visibility: inherit;" fill="rgb(0, 0, 0)" stroke="rgb(204, 204, 204)" stroke-width="1px"></line><line x1="108.33333333333334" y1="0" x2="108.33333333333334" y2="5" style="visibility: inherit;" fill="rgb(0, 0, 0)" stroke="rgb(204, 204, 204)" stroke-width="1px"></line><line x1="130" y1="0" x2="130" y2="5" style="visibility: inherit;" fill="rgb(0, 0, 0)" stroke="rgb(204, 204, 204)" stroke-width="1px"></line><line x1="151.66666666666669" y1="0" x2="151.66666666666669" y2="5" style="visibility: inherit;" fill="rgb(0, 0, 0)" stroke="rgb(204, 204, 204)" stroke-width="1px"></line><line x1="173.33333333333331" y1="0" x2="173.33333333333331" y2="5" style="visibility: inherit;" fill="rgb(0, 0, 0)" stroke="rgb(204, 204, 204)" stroke-width="1px"></line><line x1="195" y1="0" x2="195" y2="5" style="visibility: inherit;" fill="rgb(0, 0, 0)" stroke="rgb(204, 204, 204)" stroke-width="1px"></line><line x1="216.66666666666669" y1="0" x2="216.66666666666669" y2="5" style="visibility: inherit;" fill="rgb(0, 0, 0)" stroke="rgb(204, 204, 204)" stroke-width="1px"></line><line x1="238.33333333333331" y1="0" x2="238.33333333333331" y2="5" style="visibility: inherit;" fill="rgb(0, 0, 0)" stroke="rgb(204, 204, 204)" stroke-width="1px"></line><line x1="260" y1="0" x2="260" y2="5" style="visibility: inherit;" fill="rgb(0, 0, 0)" stroke="rgb(204, 204, 204)" stroke-width="1px"></line></g><g transform="translate(0, 8)"><text x="0" y="0" dx="0em" dy="0.95em" style="text-anchor: middle; visibility: hidden; font-family: &quot;Helvetica Neue&quot;, sans-serif; font-size: 12px; font-weight: 200;" fill="rgb(50, 49, 63)" stroke="none" stroke-width="1px">-50k</text><text x="21.666666666666664" y="0" dx="0em" dy="0.95em" style="text-anchor: middle; visibility: inherit; font-family: &quot;Helvetica Neue&quot;, sans-serif; font-size: 12px; font-weight: 200;" fill="rgb(50, 49, 63)" stroke="none" stroke-width="1px">0</text><text x="43.33333333333333" y="0" dx="0em" dy="0.95em" style="text-anchor: middle; visibility: hidden; font-family: &quot;Helvetica Neue&quot;, sans-serif; font-size: 12px; font-weight: 200;" fill="rgb(50, 49, 63)" stroke="none" stroke-width="1px">50k</text><text x="65" y="0" dx="0em" dy="0.95em" style="text-anchor: middle; visibility: inherit; font-family: &quot;Helvetica Neue&quot;, sans-serif; font-size: 12px; font-weight: 200;" fill="rgb(50, 49, 63)" stroke="none" stroke-width="1px">100k</text><text x="86.66666666666666" y="0" dx="0em" dy="0.95em" style="text-anchor: middle; visibility: hidden; font-family: &quot;Helvetica Neue&quot;, sans-serif; font-size: 12px; font-weight: 200;" fill="rgb(50, 49, 63)" stroke="none" stroke-width="1px">150k</text><text x="108.33333333333334" y="0" dx="0em" dy="0.95em" style="text-anchor: middle; visibility: inherit; font-family: &quot;Helvetica Neue&quot;, sans-serif; font-size: 12px; font-weight: 200;" fill="rgb(50, 49, 63)" stroke="none" stroke-width="1px">200k</text><text x="130" y="0" dx="0em" dy="0.95em" style="text-anchor: middle; visibility: hidden; font-family: &quot;Helvetica Neue&quot;, sans-serif; font-size: 12px; font-weight: 200;" fill="rgb(50, 49, 63)" stroke="none" stroke-width="1px">250k</text><text x="151.66666666666669" y="0" dx="0em" dy="0.95em" style="text-anchor: middle; visibility: inherit; font-family: &quot;Helvetica Neue&quot;, sans-serif; font-size: 12px; font-weight: 200;" fill="rgb(50, 49, 63)" stroke="none" stroke-width="1px">300k</text><text x="173.33333333333331" y="0" dx="0em" dy="0.95em" style="text-anchor: middle; visibility: hidden; font-family: &quot;Helvetica Neue&quot;, sans-serif; font-size: 12px; font-weight: 200;" fill="rgb(50, 49, 63)" stroke="none" stroke-width="1px">350k</text><text x="195" y="0" dx="0em" dy="0.95em" style="text-anchor: middle; visibility: inherit; font-family: &quot;Helvetica Neue&quot;, sans-serif; font-size: 12px; font-weight: 200;" fill="rgb(50, 49, 63)" stroke="none" stroke-width="1px">400k</text><text x="216.66666666666669" y="0" dx="0em" dy="0.95em" style="text-anchor: middle; visibility: hidden; font-family: &quot;Helvetica Neue&quot;, sans-serif; font-size: 12px; font-weight: 200;" fill="rgb(50, 49, 63)" stroke="none" stroke-width="1px">450k</text><text x="238.33333333333331" y="0" dx="0em" dy="0.95em" style="text-anchor: middle; visibility: inherit; font-family: &quot;Helvetica Neue&quot;, sans-serif; font-size: 12px; font-weight: 200;" fill="rgb(50, 49, 63)" stroke="none" stroke-width="1px">500k</text><text x="260" y="0" dx="0em" dy="0.95em" style="text-anchor: middle; visibility: hidden; font-family: &quot;Helvetica Neue&quot;, sans-serif; font-size: 12px; font-weight: 200;" fill="rgb(50, 49, 63)" stroke="none" stroke-width="1px">550k</text></g><line x1="0" y1="0" x2="260" y2="0" fill="rgb(0, 0, 0)" stroke="rgb(204, 204, 204)" stroke-width="1px"></line></g></g></g></g></svg>