<svg viewBox="0 0 330 200" xmlns="http://www.w3.org/2000/svg"><g><g><g><g><g><line x1="58" y1="154.55431332963983" x2="53" y2="154.55431332963983" style="visibility: inherit;" fill="rgb(0, 0, 0)" stroke="rgb(204, 204, 204)" stroke-width="1px"></line><line x1="58" y1="130.9270847558309" x2="53" y2="130.9270847558309" style="visibility: inherit;" fill="rgb(0, 0, 0)" stroke="rgb(204, 204, 204)" stroke-width="1px"></line><line x1="58" y1="107.29985618202193" x2="53" y2="107.29985618202193" style="visibility: inherit;" fill="rgb(0, 0, 0)" stroke="rgb(204, 204, 204)" stroke-width="1px"></line><line x1="58" y1="83.67262760821296" x2="53" y2="83.67262760821296" style="visibility: inherit;" fill="rgb(0, 0, 0)" stroke="rgb(204, 204, 204)" stroke-width="1px"></line><line x1="58" y1="60.04539903440407" x2="53" y2="60.04539903440407" style="visibility: inherit;" fill="rgb(0, 0, 0)" stroke="rgb(204, 204, 204)" stroke-width="1px"></line><line x1="58" y1="36.41817046059512" x2="53" y2="36.41817046059512" style="visibility: inherit;" fill="rgb(0, 0, 0)" stroke="rgb(204, 204, 204)" stroke-width="1px"></line><line x1="58" y1="12.790941886786129" x2="53" y2="12.790941886786129" style="visibility: inherit;" fill="rgb(0, 0, 0)" stroke="rgb(204, 204, 204)" stroke-width="1px"></line></g><g transform="translate(48, 0)"><text x="0" y="154.55431332963983" dx="0em" dy="0.3em" style="text-anchor: end; visibility: inherit; font-family: &quot;Helvetica Neue&quot;, sans-serif; font-size: 12px; font-weight: 200;" fill="rgb(50, 49, 63)" stroke="none" stroke-width="1px">0.11</text><text x="0" y="130.9270847558309" dx="0em" dy="0.3em" style="text-anchor: end; visibility: inherit; font-family: &quot;Helvetica Neue&quot;, sans-serif; font-size: 12px; font-weight: 200;" fill="rgb(50, 49, 63)" stroke="none" stroke-width="1px">0.12</text><text x="0" y="107.29985618202193" dx="0em" dy="0.3em" style="text-anchor: end; visibility: inherit; font-family: &quot;Helvetica Neue&quot;, sans-serif; font-size: 12px; font-weight: 200;" fill="rgb(50, 49, 63)" stroke="none" stroke-width="1px">0.13</text><text x="0" y="83.67262760821296" dx="0em" dy="0.3em" style="text-anchor: end; visibility: inherit; font-family: &quot;Helvetica Neue&quot;, sans-serif; font-size: 12px; font-weight: 200;" fill="rgb(50, 49, 63)" stroke="none" stroke-width="1px">0.14</text><text x="0" y="60.04539903440407" dx="0em" dy="0.3em" style="text-anchor: end; visibility: inherit; font-family: &quot;Helvetica Neue&quot;, sans-serif; font-size: 12px; font-weight: 200;" fill="rgb(50, 49, 63)" stroke="none" stroke-width="1px">0.15</text><text x="0" y="36.41817046059512" dx="0em" dy="0.3em" style="text-anchor: end; visibility: inherit; font-family: &quot;Helvetica Neue&quot;, sans-serif; font-size: 12px; font-weight: 200;" fill="rgb(50, 49, 63)" stroke="none" stroke-width="1px">0.16</text><text x="0" y="12.790941886786129" dx="0em" dy="0.3em" style="text-anchor: end; visibility: inherit; font-family: &quot;Helvetica Neue&quot;, sans-serif; font-size: 12px; font-weight: 200;" fill="rgb(50, 49, 63)" stroke="none" stroke-width="1px">0.17</text></g><line x1="58" y1="0" x2="58" y2="178" fill="rgb(0, 0, 0)" stroke="rgb(204, 204, 204)" stroke-width="1px"></line></g></g><g transform="translate(58, 0)" clip-path="url(#clip_0)"><clipPath id="clip_0"><rect width="272" height="178"></rect></clipPath><g><g><g><line x1="6.634148301875789" y1="0" x2="6.634148301875789" y2="178" fill="rgb(0, 0, 0)" stroke="rgb(60, 60, 60)" stroke-width="1px" opacity="0.25"></line><line x1="27.695123584896496" y1="0" x2="27.695123584896496" y2="178" fill="rgb(0, 0, 0)" stroke="rgb(60, 60, 60)" stroke-width="1px" opacity="0.25"></line><line x1="48.7560988679172" y1="0" x2="48.7560988679172" y2="178" fill="rgb(0, 0, 0)" stroke="rgb(60, 60, 60)" stroke-width="1px" opacity="0.25"></line><line x1="69.81707415093793" y1="0" x2="69.81707415093793" y2="178" fill="rgb(0, 0, 0)" stroke="rgb(60, 60, 60)" stroke-width="1px" opacity="0.25"></line><line x1="90.87804943395862" y1="0" x2="90.87804943395862" y2="178" fill="rgb(0, 0, 0)" stroke="rgb(60, 60, 60)" stroke-width="1px" opacity="0.25"></line><line x1="111.93902471697933" y1="0" x2="111.93902471697933" y2="178" fill="rgb(0, 0, 0)" stroke="rgb(60, 60, 60)" stroke-width="1px" opacity="0.25"></line><line x1="133.00000000000003" y1="0" x2="133.00000000000003" y2="178" fill="rgb(0, 0, 0)" stroke="rgb(60, 60, 60)" stroke-width="1px" opacity="0.25"></line><line x1="154.06097528302075" y1="0" x2="154.06097528302075" y2="178" fill="rgb(0, 0, 0)" stroke="rgb(60, 60, 60)" stroke-width="1px" opacity="0.25"></line><line x1="175.12195056604145" y1="0" x2="175.12195056604145" y2="178" fill="rgb(0, 0, 0)" stroke="rgb(60, 60, 60)" stroke-width="1px" opacity="0.25"></line><line x1="196.18292584906214" y1="0" x2="196.18292584906214" y2="178" fill="rgb(0, 0, 0)" stroke="rgb(60, 60, 60)" stroke-width="1px" opacity="0.25"></line><line x1="217.24390113208287" y1="0" x2="217.24390113208287" y2="178" fill="rgb(0, 0, 0)" stroke="rgb(60, 60, 60)" stroke-width="1px" opacity="0.25"></line><line x1="238.30487641510356" y1="0" x2="238.30487641510356" y2="178" fill="rgb(0, 0, 0)" stroke="rgb(60, 60, 60)" stroke-width="1px" opacity="0.25"></line><line x1="259.3658516981243" y1="0" x2="259.3658516981243" y2="178" fill="rgb(0, 0, 0)" stroke="rgb(60, 60, 60)" stroke-width="1px" opacity="0.25"></line></g><g><line x1="0" y1="154.55431332963983" x2="272" y2="154.55431332963983" fill="rgb(0, 0, 0)" stroke="rgb(60, 60, 60)" stroke-width="1px" opacity="0.25"></line><line x1="0" y1="130.9270847558309" x2="272" y2="130.9270847558309" fill="rgb(0, 0, 0)" stroke="rgb(60, 60, 60)" stroke-width="1px" opacity="0.25"></line><line x1="0" y1="107.29985618202193" x2="272" y2="107.29985618202193" fill="rgb(0, 0, 0)" stroke="rgb(60, 60, 60)" stroke-width="1px" opacity="0.25"></line><line x1="0" y1="83.67262760821296" x2="272" y2="83.67262760821296" fill="rgb(0, 0, 0)" stroke="rgb(60, 60, 60)" stroke-width="1px" opacity="0.25"></line><line x1="0" y1="60.04539903440407" x2="272" y2="60.04539903440407" fill="rgb(0, 0, 0)" stroke="rgb(60, 60, 60)" stroke-width="1px" opacity="0.25"></line><line x1="0" y1="36.41817046059512" x2="272" y2="36.41817046059512" fill="rgb(0, 0, 0)" stroke="rgb(60, 60, 60)" stroke-width="1px" opacity="0.25"></line><line x1="0" y1="12.790941886786129" x2="272" y2="12.790941886786129" fill="rgb(0, 0, 0)" stroke="rgb(60, 60, 60)" stroke-width="1px" opacity="0.25"></line></g></g></g><g><g><line x1="0" y1="414.45382764153817" x2="272" y2="414.45382764153817" fill="rgb(0, 0, 0)" stroke="rgb(153, 153, 153)" stroke-width="1.5px"></line></g></g><g><g><line x1="27.695123584896496" y1="0" x2="27.695123584896496" y2="178" fill="rgb(0, 0, 0)" stroke="rgb(153, 153, 153)" stroke-width="1.5px"></line></g></g><g><g><g><g><g><path stroke="rgb(255, 112, 67)" stroke-width="2px" d="M34.50455811340275,-2.5122111189336067L35.950604676334954,35.29720434154359L39.1986282844824,68.80484044749073L42.4664492093959,88.2691053230628L43.90912601628282,108.43055425116093L47.228756940392536,124.43779365669303L50.588403717540004,135.22818316027025L53.959002201834636,135.79456572179254L55.43284925214043,142.6115098974165L58.75542871278978,147.66848760408385L60.20863600731821,149.8114398443287L63.46803254211849,150.78049477480715L64.89006959322805,148.29548849237204L68.1785302739189,144.47082860609171L69.60225220305111,149.47886876757727L72.88650068868536,145.48777583426013L76.05365015174601,141.05861290199528L77.44915037399896,134.1287104448451L80.83196422395775,128.61952134673015L82.3327693226258,131.30587949945365L83.84747466498065,132.54047490370385L87.2901016847432,127.53668107099497L88.82165580732448,125.28795026475575L90.3494189543548,128.12285431300032L91.88139429644173,131.23072931282064L95.31728180411373,127.74572085876524L98.68872272741967,121.52607366940697L100.15920002168018,112.55500062398804L103.47672484826161,113.02854549984049L104.92571994773344,117.51434163888578L108.17964062896013,114.51564107443727L111.53296911352268,106.18798474661149L112.9575334816662,116.41355513163597L116.23504245520989,123.64941456925544L118.77204753780256,117.54044872590815L119.97757776300267,114.11767579533189L123.15273039667088,108.60948445536206L124.6164681788408,103.98326732067628L127.96474202933544,109.5891451660091L129.43816786013556,112.34431764857295L132.8588914656038,102.73774183013873L136.31078531449091,102.69064734969477L137.83770602250988,106.52442178050553L141.29507572497056,96.43155694390707L142.81146594534806,88.45779989872727L146.20144052690307,97.06980196126466L149.4869526710543,101.01916811918284L150.8875075273752,108.84364007388685L153.33395041625084,99.37061837247188L154.6283579571453,97.11140671650199L157.90628815019465,85.47842815059921L159.40161739528912,92.51784143414342L162.80507100102528,95.33343624783397L164.3041912216707,91.5407889954236L167.7463970219276,85.72937233224593L169.26615699835037,90.56386961517032L172.727317676362,97.66130799795938L174.25423838438098,96.40654504081769L177.68844101403033,95.50032420607695L181.16476559424575,93.51640131243983L182.70558654595152,85.9332443013907L184.24093164408376,89.75393128370433L187.70082866357836,85.69701418974329L189.21384912791058,88.77234386195545L192.6964920007109,77.96094879753579L194.21877929416766,69.11227837908794L197.59738094906984,71.60325657888681L200.977246262489,69.22974263897292L204.43040376989305,61.62092030973476L207.8317512781009,79.102785025781L209.28580101164064,79.44798658422026L210.7482751352936,80.41747261705368L214.1289828877241,76.01635756206072L215.61378164517706,76.1255065108406L219.04756305532075,82.52127096503749L220.58122327543032,75.19803921651888L223.95940371082685,70.47347532164827L225.4197717369515,65.63014562930191L228.8097463185065,66.47702217592348L232.22373041188416,66.66308567693922L235.62676279811464,58.35941521670409L237.14104692096384,49.15825007083444L240.44340784534148,49.96444616608278L241.84396270166238,58.49155640027682L242.87342317349643,58.125128336813006L244.1261299833305,59.19519707471706L245.57638874131928,60.96944920895662" style="fill: none;" fill="none"></path></g></g></g></g><g opacity="0.2"><g><g><g><path stroke="rgb(255, 112, 67)" stroke-width="2px" d="M31.71861230296477,-35.86275391409265L33.09010301339508,4.584429598386947L34.50455811340275,47.79813344247691L35.950604676334954,84.66117716674265L39.1986282844824,115.15796393101382L42.4664492093959,116.10331552336882L43.90912601628282,137.8261403382378L47.228756940392536,148.04536253367078L50.588403717540004,151.25065401792813L53.959002201834636,136.63900251592872L55.43284925214043,152.7998286516851L58.75542871278978,155.23744225446674L60.20863600731821,153.02166993817085L63.46803254211849,152.2329380828309L64.89006959322805,144.56973168768025L68.1785302739189,138.73545724455596L69.60225220305111,156.9896574689511L72.88650068868536,139.50174443712257L76.05365015174601,134.41527334663397L77.44915037399896,123.73423681144007L80.83196422395775,120.3559189817718L82.3327693226258,135.33536369108327L83.84747466498065,134.39235338511955L87.2901016847432,120.03102588675665L88.82165580732448,121.91486364520654L90.3494189543548,132.3752031316247L91.88139429644173,135.89253704123092L95.31728180411373,122.51821138786742L98.68872272741967,112.19660632287399L100.15920002168018,99.09839403076498L103.47672484826161,113.73886271939965L104.92571994773344,124.24303531193979L108.17964062896013,110.01759044255509L111.53296911352268,93.6965006127687L112.9575334816662,131.75191044549544L116.23504245520989,134.50320361373412L118.77204753780256,108.37700001759671L119.97757776300267,108.98351641853147L123.15273039667088,100.3471974638152L124.6164681788408,97.04394162792373L127.96474202933544,117.99796192726407L129.43816786013556,116.47707637043003L132.8588914656038,88.32787810664816L136.31078531449091,102.62000562904095L137.83770602250988,112.27508342612376L141.29507572497056,81.29225968995355L142.81146594534806,76.49716433140526L146.20144052690307,109.98780505478062L149.4869526710543,106.94321735598021L150.8875075273752,120.58034800584787L153.33395041625084,85.16108582041844L154.6283579571453,93.72258923255697L157.90628815019465,68.0289603017754L159.40161739528912,103.07696135944857L162.80507100102528,99.5568284683671L164.3041912216707,85.8518181168101L167.7463970219276,77.01224733748151L169.26615699835037,97.81561553955595L172.727317676362,108.30746557214212L174.25423838438098,94.5244006051052L177.68844101403033,94.14099295396574L181.16476559424575,90.54051697198433L182.70558654595152,74.55850878481723L184.24093164408376,95.48496175717483L187.70082866357836,79.6116385488018L189.21384912791058,93.38533837027369L192.6964920007109,61.743856200906336L194.21877929416766,55.83927275141606L197.59738094906984,75.33972387858525L200.977246262489,65.66947172910197L204.43040376989305,50.207686815877636L207.8317512781009,105.32558209985037L209.28580101164064,79.96578892187912L210.7482751352936,81.87170166630371L214.1289828877241,69.41468497957139L215.61378164517706,76.28922993401042L219.04756305532075,92.11491764633278L220.58122327543032,64.21319159374092L223.95940371082685,63.386629479342275L225.4197717369515,58.36515109078235L228.8097463185065,67.74733699585578L232.22373041188416,66.94218092846292L235.62676279811464,45.9039095263515L237.14104692096384,35.35650235202996L240.44340784534148,51.17374030895532L241.84396270166238,71.28222175156789L242.87342317349643,57.57548624161733L244.1261299833305,60.80030018157319L245.57638874131928,63.63082741031596" style="fill: none;" fill="none"></path></g></g></g></g></g></g><g transform="translate(58, 178)" clip-path="url(#clip_1)"><clipPath id="clip_1"><rect width="272" height="22"></rect></clipPath><g><g><line x1="6.634148301875789" y1="0" x2="6.634148301875789" y2="5" style="visibility: inherit;" fill="rgb(0, 0, 0)" stroke="rgb(204, 204, 204)" stroke-width="1px"></line><line x1="27.695123584896496" y1="0" x2="27.695123584896496" y2="5" style="visibility: inherit;" fill="rgb(0, 0, 0)" stroke="rgb(204, 204, 204)" stroke-width="1px"></line><line x1="48.7560988679172" y1="0" x2="48.7560988679172" y2="5" style="visibility: inherit;" fill="rgb(0, 0, 0)" stroke="rgb(204, 204, 204)" stroke-width="1px"></line><line x1="69.81707415093793" y1="0" x2="69.81707415093793" y2="5" style="visibility: inherit;" fill="rgb(0, 0, 0)" stroke="rgb(204, 204, 204)" stroke-width="1px"></line><line x1="90.87804943395862" y1="0" x2="90.87804943395862" y2="5" style="visibility: inherit;" fill="rgb(0, 0, 0)" stroke="rgb(204, 204, 204)" stroke-width="1px"></line><line x1="111.93902471697933" y1="0" x2="111.93902471697933" y2="5" style="visibility: inherit;" fill="rgb(0, 0, 0)" stroke="rgb(204, 204, 204)" stroke-width="1px"></line><line x1="133.00000000000003" y1="0" x2="133.00000000000003" y2="5" style="visibility: inherit;" fill="rgb(0, 0, 0)" stroke="rgb(204, 204, 204)" stroke-width="1px"></line><line x1="154.06097528302075" y1="0" x2="154.06097528302075" y2="5" style="visibility: inherit;" fill="rgb(0, 0, 0)" stroke="rgb(204, 204, 204)" stroke-width="1px"></line><line x1="175.12195056604145" y1="0" x2="175.12195056604145" y2="5" style="visibility: inherit;" fill="rgb(0, 0, 0)" stroke="rgb(204, 204, 204)" stroke-width="1px"></line><line x1="196.18292584906214" y1="0" x2="196.18292584906214" y2="5" style="visibility: inherit;" fill="rgb(0, 0, 0)" stroke="rgb(204, 204, 204)" stroke-width="1px"></line><line x1="217.24390113208287" y1="0" x2="217.24390113208287" y2="5" style="visibility: inherit;" fill="rgb(0, 0, 0)" stroke="rgb(204, 204, 204)" stroke-width="1px"></line><line x1="238.30487641510356" y1="0" x2="238.30487641510356" y2="5" style="visibility: inherit;" fill="rgb(0, 0, 0)" stroke="rgb(204, 204, 204)" stroke-width="1px"></line><line x1="259.3658516981243" y1="0" x2="259.3658516981243" y2="5" style="visibility: inherit;" fill="rgb(0, 0, 0)" stroke="rgb(204, 204, 204)" stroke-width="1px"></line></g><g transform="translate(0, 8)"><text x="6.634148301875789" y="0" dx="0em" dy="0.95em" style="text-anchor: middle; visibility: hidden; font-family: &quot;Helvetica Neue&quot;, sans-serif; font-size: 12px; font-weight: 200;" fill="rgb(50, 49, 63)" stroke="none" stroke-width="1px">-50k</text><text x="27.695123584896496" y="0" dx="0em" dy="0.95em" style="text-anchor: middle; visibility: inherit; font-family: &quot;Helvetica Neue&quot;, sans-serif; font-size: 12px; font-weight: 200;" fill="rgb(50, 49, 63)" stroke="none" stroke-width="1px">0</text><text x="48.7560988679172" y="0" dx="0em" dy="0.95em" style="text-anchor: middle; visibility: hidden; font-family: &quot;Helvetica Neue&quot;, sans-serif; font-size: 12px; font-weight: 200;" fill="rgb(50, 49, 63)" stroke="none" stroke-width="1px">50k</text><text x="69.81707415093793" y="0" dx="0em" dy="0.95em" style="text-anchor: middle; visibility: inherit; font-family: &quot;Helvetica Neue&quot;, sans-serif; font-size: 12px; font-weight: 200;" fill="rgb(50, 49, 63)" stroke="none" stroke-width="1px">100k</text><text x="90.87804943395862" y="0" dx="0em" dy="0.95em" style="text-anchor: middle; visibility: hidden; font-family: &quot;Helvetica Neue&quot;, sans-serif; font-size: 12px; font-weight: 200;" fill="rgb(50, 49, 63)" stroke="none" stroke-width="1px">150k</text><text x="111.93902471697933" y="0" dx="0em" dy="0.95em" style="text-anchor: middle; visibility: inherit; font-family: &quot;Helvetica Neue&quot;, sans-serif; font-size: 12px; font-weight: 200;" fill="rgb(50, 49, 63)" stroke="none" stroke-width="1px">200k</text><text x="133.00000000000003" y="0" dx="0em" dy="0.95em" style="text-anchor: middle; visibility: hidden; font-family: &quot;Helvetica Neue&quot;, sans-serif; font-size: 12px; font-weight: 200;" fill="rgb(50, 49, 63)" stroke="none" stroke-width="1px">250k</text><text x="154.06097528302075" y="0" dx="0em" dy="0.95em" style="text-anchor: middle; visibility: inherit; font-family: &quot;Helvetica Neue&quot;, sans-serif; font-size: 12px; font-weight: 200;" fill="rgb(50, 49, 63)" stroke="none" stroke-width="1px">300k</text><text x="175.12195056604145" y="0" dx="0em" dy="0.95em" style="text-anchor: middle; visibility: hidden; font-family: &quot;Helvetica Neue&quot;, sans-serif; font-size: 12px; font-weight: 200;" fill="rgb(50, 49, 63)" stroke="none" stroke-width="1px">350k</text><text x="196.18292584906214" y="0" dx="0em" dy="0.95em" style="text-anchor: middle; visibility: inherit; font-family: &quot;Helvetica Neue&quot;, sans-serif; font-size: 12px; font-weight: 200;" fill="rgb(50, 49, 63)" stroke="none" stroke-width="1px">400k</text><text x="217.24390113208287" y="0" dx="0em" dy="0.95em" style="text-anchor: middle; visibility: hidden; font-family: &quot;Helvetica Neue&quot;, sans-serif; font-size: 12px; font-weight: 200;" fill="rgb(50, 49, 63)" stroke="none" stroke-width="1px">450k</text><text x="238.30487641510356" y="0" dx="0em" dy="0.95em" style="text-anchor: middle; visibility: inherit; font-family: &quot;Helvetica Neue&quot;, sans-serif; font-size: 12px; font-weight: 200;" fill="rgb(50, 49, 63)" stroke="none" stroke-width="1px">500k</text><text x="259.3658516981243" y="0" dx="0em" dy="0.95em" style="text-anchor: middle; visibility: hidden; font-family: &quot;Helvetica Neue&quot;, sans-serif; font-size: 12px; font-weight: 200;" fill="rgb(50, 49, 63)" stroke="none" stroke-width="1px">550k</text></g><line x1="0" y1="0" x2="272" y2="0" fill="rgb(0, 0, 0)" stroke="rgb(204, 204, 204)" stroke-width="1px"></line></g></g></g></g></svg>