<svg viewBox="0 0 330 200" xmlns="http://www.w3.org/2000/svg"><g><g><g><g><g><line x1="58" y1="154.55431332963983" x2="53" y2="154.55431332963983" style="visibility: inherit;" fill="rgb(0, 0, 0)" stroke="rgb(204, 204, 204)" stroke-width="1px"></line><line x1="58" y1="130.9270847558309" x2="53" y2="130.9270847558309" style="visibility: inherit;" fill="rgb(0, 0, 0)" stroke="rgb(204, 204, 204)" stroke-width="1px"></line><line x1="58" y1="107.29985618202193" x2="53" y2="107.29985618202193" style="visibility: inherit;" fill="rgb(0, 0, 0)" stroke="rgb(204, 204, 204)" stroke-width="1px"></line><line x1="58" y1="83.67262760821296" x2="53" y2="83.67262760821296" style="visibility: inherit;" fill="rgb(0, 0, 0)" stroke="rgb(204, 204, 204)" stroke-width="1px"></line><line x1="58" y1="60.04539903440407" x2="53" y2="60.04539903440407" style="visibility: inherit;" fill="rgb(0, 0, 0)" stroke="rgb(204, 204, 204)" stroke-width="1px"></line><line x1="58" y1="36.41817046059512" x2="53" y2="36.41817046059512" style="visibility: inherit;" fill="rgb(0, 0, 0)" stroke="rgb(204, 204, 204)" stroke-width="1px"></line><line x1="58" y1="12.790941886786129" x2="53" y2="12.790941886786129" style="visibility: inherit;" fill="rgb(0, 0, 0)" stroke="rgb(204, 204, 204)" stroke-width="1px"></line></g><g transform="translate(48, 0)"><text x="0" y="154.55431332963983" dx="0em" dy="0.3em" style="text-anchor: end; visibility: inherit; font-family: &quot;Helvetica Neue&quot;, sans-serif; font-size: 12px; font-weight: 200;" fill="rgb(50, 49, 63)" stroke="none" stroke-width="1px">0.11</text><text x="0" y="130.9270847558309" dx="0em" dy="0.3em" style="text-anchor: end; visibility: inherit; font-family: &quot;Helvetica Neue&quot;, sans-serif; font-size: 12px; font-weight: 200;" fill="rgb(50, 49, 63)" stroke="none" stroke-width="1px">0.12</text><text x="0" y="107.29985618202193" dx="0em" dy="0.3em" style="text-anchor: end; visibility: inherit; font-family: &quot;Helvetica Neue&quot;, sans-serif; font-size: 12px; font-weight: 200;" fill="rgb(50, 49, 63)" stroke="none" stroke-width="1px">0.13</text><text x="0" y="83.67262760821296" dx="0em" dy="0.3em" style="text-anchor: end; visibility: inherit; font-family: &quot;Helvetica Neue&quot;, sans-serif; font-size: 12px; font-weight: 200;" fill="rgb(50, 49, 63)" stroke="none" stroke-width="1px">0.14</text><text x="0" y="60.04539903440407" dx="0em" dy="0.3em" style="text-anchor: end; visibility: inherit; font-family: &quot;Helvetica Neue&quot;, sans-serif; font-size: 12px; font-weight: 200;" fill="rgb(50, 49, 63)" stroke="none" stroke-width="1px">0.15</text><text x="0" y="36.41817046059512" dx="0em" dy="0.3em" style="text-anchor: end; visibility: inherit; font-family: &quot;Helvetica Neue&quot;, sans-serif; font-size: 12px; font-weight: 200;" fill="rgb(50, 49, 63)" stroke="none" stroke-width="1px">0.16</text><text x="0" y="12.790941886786129" dx="0em" dy="0.3em" style="text-anchor: end; visibility: inherit; font-family: &quot;Helvetica Neue&quot;, sans-serif; font-size: 12px; font-weight: 200;" fill="rgb(50, 49, 63)" stroke="none" stroke-width="1px">0.17</text></g><line x1="58" y1="0" x2="58" y2="178" fill="rgb(0, 0, 0)" stroke="rgb(204, 204, 204)" stroke-width="1px"></line></g></g><g transform="translate(58, 0)" clip-path="url(#clip_0)"><clipPath id="clip_0"><rect width="272" height="178"></rect></clipPath><g><g><g><line x1="6.634148301875789" y1="0" x2="6.634148301875789" y2="178" fill="rgb(0, 0, 0)" stroke="rgb(60, 60, 60)" stroke-width="1px" opacity="0.25"></line><line x1="27.695123584896496" y1="0" x2="27.695123584896496" y2="178" fill="rgb(0, 0, 0)" stroke="rgb(60, 60, 60)" stroke-width="1px" opacity="0.25"></line><line x1="48.7560988679172" y1="0" x2="48.7560988679172" y2="178" fill="rgb(0, 0, 0)" stroke="rgb(60, 60, 60)" stroke-width="1px" opacity="0.25"></line><line x1="69.81707415093793" y1="0" x2="69.81707415093793" y2="178" fill="rgb(0, 0, 0)" stroke="rgb(60, 60, 60)" stroke-width="1px" opacity="0.25"></line><line x1="90.87804943395862" y1="0" x2="90.87804943395862" y2="178" fill="rgb(0, 0, 0)" stroke="rgb(60, 60, 60)" stroke-width="1px" opacity="0.25"></line><line x1="111.93902471697933" y1="0" x2="111.93902471697933" y2="178" fill="rgb(0, 0, 0)" stroke="rgb(60, 60, 60)" stroke-width="1px" opacity="0.25"></line><line x1="133.00000000000003" y1="0" x2="133.00000000000003" y2="178" fill="rgb(0, 0, 0)" stroke="rgb(60, 60, 60)" stroke-width="1px" opacity="0.25"></line><line x1="154.06097528302075" y1="0" x2="154.06097528302075" y2="178" fill="rgb(0, 0, 0)" stroke="rgb(60, 60, 60)" stroke-width="1px" opacity="0.25"></line><line x1="175.12195056604145" y1="0" x2="175.12195056604145" y2="178" fill="rgb(0, 0, 0)" stroke="rgb(60, 60, 60)" stroke-width="1px" opacity="0.25"></line><line x1="196.18292584906214" y1="0" x2="196.18292584906214" y2="178" fill="rgb(0, 0, 0)" stroke="rgb(60, 60, 60)" stroke-width="1px" opacity="0.25"></line><line x1="217.24390113208287" y1="0" x2="217.24390113208287" y2="178" fill="rgb(0, 0, 0)" stroke="rgb(60, 60, 60)" stroke-width="1px" opacity="0.25"></line><line x1="238.30487641510356" y1="0" x2="238.30487641510356" y2="178" fill="rgb(0, 0, 0)" stroke="rgb(60, 60, 60)" stroke-width="1px" opacity="0.25"></line><line x1="259.3658516981243" y1="0" x2="259.3658516981243" y2="178" fill="rgb(0, 0, 0)" stroke="rgb(60, 60, 60)" stroke-width="1px" opacity="0.25"></line></g><g><line x1="0" y1="154.55431332963983" x2="272" y2="154.55431332963983" fill="rgb(0, 0, 0)" stroke="rgb(60, 60, 60)" stroke-width="1px" opacity="0.25"></line><line x1="0" y1="130.9270847558309" x2="272" y2="130.9270847558309" fill="rgb(0, 0, 0)" stroke="rgb(60, 60, 60)" stroke-width="1px" opacity="0.25"></line><line x1="0" y1="107.29985618202193" x2="272" y2="107.29985618202193" fill="rgb(0, 0, 0)" stroke="rgb(60, 60, 60)" stroke-width="1px" opacity="0.25"></line><line x1="0" y1="83.67262760821296" x2="272" y2="83.67262760821296" fill="rgb(0, 0, 0)" stroke="rgb(60, 60, 60)" stroke-width="1px" opacity="0.25"></line><line x1="0" y1="60.04539903440407" x2="272" y2="60.04539903440407" fill="rgb(0, 0, 0)" stroke="rgb(60, 60, 60)" stroke-width="1px" opacity="0.25"></line><line x1="0" y1="36.41817046059512" x2="272" y2="36.41817046059512" fill="rgb(0, 0, 0)" stroke="rgb(60, 60, 60)" stroke-width="1px" opacity="0.25"></line><line x1="0" y1="12.790941886786129" x2="272" y2="12.790941886786129" fill="rgb(0, 0, 0)" stroke="rgb(60, 60, 60)" stroke-width="1px" opacity="0.25"></line></g></g></g><g><g><line x1="0" y1="414.45382764153817" x2="272" y2="414.45382764153817" fill="rgb(0, 0, 0)" stroke="rgb(153, 153, 153)" stroke-width="1.5px"></line></g></g><g><g><line x1="27.695123584896496" y1="0" x2="27.695123584896496" y2="178" fill="rgb(0, 0, 0)" stroke="rgb(153, 153, 153)" stroke-width="1.5px"></line></g></g><g><g><g><g><g><path stroke="rgb(0, 119, 187)" stroke-width="2px" d="M35.17050615185187,-3.736829879712417L36.6544624702935,41.152646238416054L40.008212174361724,73.89277654008423L43.436517730931826,95.10620287308387L44.90994356173196,113.08787187619016L48.324770094120936,128.74110316065145L51.75139077266841,137.45571155039545L53.236189530121365,143.66606098153534L56.55371435670279,149.32747588263624L58.03345848008783,151.6504608556479L61.417957208069254,155.88795265139962L64.72495154700917,158.05134087146448L66.17057689043571,156.0103681364782L69.5576029354511,155.04160415400347L72.9008221518778,158.9385857918254L74.31232871534584,161.11992466852843L75.73520820546673,155.46003557155257L78.99418352076135,156.2125228139069L82.29612322563334,161.14240982259597L85.63597268601477,162.3124429929345L87.03779120085262,159.00321685209815L90.36374041754725,156.32235718553684L91.77945917607191,158.31677912831825L95.06160156417785,155.9150096934363L96.51059666364968,161.7092653209662L99.88624978201224,154.3944637039715L101.38410634414068,153.5034406001335L104.76523531607681,153.95504036713328L108.03558355802427,160.17338241290028L109.46351768221308,155.1535028610432L112.72881129009261,152.27203961517853L114.10914761014178,155.64924346648868L115.49074758870795,151.9710442097427L118.68611875864785,158.40933006614202L119.7143155719649,155.72812085417695L122.87514674244066,151.0006328577764L124.32961769548606,150.27798017623675L125.80641328233149,150.369702820615L129.20312737597706,154.89852277886575L130.72709954745645,159.95246081986613L134.18994510349071,155.95880273802496L135.71728703101536,156.2950123343266L139.1868720991402,157.2060316845578L140.73359012392524,154.69010690688864L144.21623299672552,145.2255086971835L145.75579028991436,142.86716565247184L149.23548462617504,142.67798696552842L150.7741994803525,142.4217563432445L154.24631186551133,150.43293211249477L155.7757598905643,147.1565522709741L157.31531718375308,149.85716515724184L158.33003497288902,151.26046571431283L159.60169666047784,144.05496942306246L162.86825392687433,142.91391290399696L164.33620390410087,141.85440559436935L167.70216897383327,146.3960916671541L169.19033748733148,147.98550547570576L172.57230889827895,138.30220734515763L174.05752887523758,142.02685500072764L177.41338467683408,142.54946261651006L178.87501636147573,137.16118857577763L182.22792362653263,143.39977326119796L183.71187994497427,134.5399026539202L187.15408574523116,132.86119158312349L188.68100645325018,127.0768675610928L192.13205786312594,138.4896441383219L193.6404449128959,137.3533615368323L195.15515025525076,130.8769680100147L196.67069803661693,133.99142329159642L200.12217066599834,133.65728747732118L203.57195841735714,140.16596106422412L205.087927418229,140.2935401124862L206.61400568723667,126.95649517060372L210.07221782870863,130.30132502325495L211.59703243919935,127.98212420814573L213.1201621716674,132.57698080081354L214.17868678939203,138.7285769457014L215.45119091599213,136.69664909003095L218.78430086428298,136.80086490105754L220.26362376816235,134.99752644236793L223.69487786127212,144.32238294337205L225.21084686214394,144.2954422100683L226.732712936095,141.80527388739466L230.21619824790665,145.2513153451913L231.7540706630728,132.7983453944669L233.2969977123069,136.46685472724803L236.7636342438921,138.9889594929864L238.27918202525828,130.62448645917252L239.81410590388484,126.22079696106728L241.33133856327362,119.51231451396237L244.8165087531079,125.01005008789332" style="fill: none;" fill="none"></path></g><g><path stroke="rgb(255, 112, 67)" stroke-width="2px" d="M34.50455811340275,-2.5122111189336067L35.950604676334954,35.29720434154359L39.1986282844824,68.80484044749073L42.4664492093959,88.2691053230628L43.90912601628282,108.43055425116093L47.228756940392536,124.43779365669303L50.588403717540004,135.22818316027025L53.959002201834636,135.79456572179254L55.43284925214043,142.6115098974165L58.75542871278978,147.66848760408385L60.20863600731821,149.8114398443287L63.46803254211849,150.78049477480715L64.89006959322805,148.29548849237204L68.1785302739189,144.47082860609171L69.60225220305111,149.47886876757727L72.88650068868536,145.48777583426013L76.05365015174601,141.05861290199528L77.44915037399896,134.1287104448451L80.83196422395775,128.61952134673015L82.3327693226258,131.30587949945365L83.84747466498065,132.54047490370385L87.2901016847432,127.53668107099497L88.82165580732448,125.28795026475575L90.3494189543548,128.12285431300032L91.88139429644173,131.23072931282064L95.31728180411373,127.74572085876524L98.68872272741967,121.52607366940697L100.15920002168018,112.55500062398804L103.47672484826161,113.02854549984049L104.92571994773344,117.51434163888578L108.17964062896013,114.51564107443727L111.53296911352268,106.18798474661149L112.9575334816662,116.41355513163597L116.23504245520989,123.64941456925544L118.77204753780256,117.54044872590815L119.97757776300267,114.11767579533189L123.15273039667088,108.60948445536206L124.6164681788408,103.98326732067628L127.96474202933544,109.5891451660091L129.43816786013556,112.34431764857295L132.8588914656038,102.73774183013873L136.31078531449091,102.69064734969477L137.83770602250988,106.52442178050553L141.29507572497056,96.43155694390707L142.81146594534806,88.45779989872727L146.20144052690307,97.06980196126466L149.4869526710543,101.01916811918284L150.8875075273752,108.84364007388685L153.33395041625084,99.37061837247188L154.6283579571453,97.11140671650199L157.90628815019465,85.47842815059921L159.40161739528912,92.51784143414342L162.80507100102528,95.33343624783397L164.3041912216707,91.5407889954236L167.7463970219276,85.72937233224593L169.26615699835037,90.56386961517032L172.727317676362,97.66130799795938L174.25423838438098,96.40654504081769L177.68844101403033,95.50032420607695L181.16476559424575,93.51640131243983L182.70558654595152,85.9332443013907L184.24093164408376,89.75393128370433L187.70082866357836,85.69701418974329L189.21384912791058,88.77234386195545L192.6964920007109,77.96094879753579L194.21877929416766,69.11227837908794L197.59738094906984,71.60325657888681L200.977246262489,69.22974263897292L204.43040376989305,61.62092030973476L207.8317512781009,79.102785025781L209.28580101164064,79.44798658422026L210.7482751352936,80.41747261705368L214.1289828877241,76.01635756206072L215.61378164517706,76.1255065108406L219.04756305532075,82.52127096503749L220.58122327543032,75.19803921651888L223.95940371082685,70.47347532164827L225.4197717369515,65.63014562930191L228.8097463185065,66.47702217592348L232.22373041188416,66.66308567693922L235.62676279811464,58.35941521670409L237.14104692096384,49.15825007083444L240.44340784534148,49.96444616608278L241.84396270166238,58.49155640027682L242.87342317349643,58.125128336813006L244.1261299833305,59.19519707471706L245.57638874131928,60.96944920895662" style="fill: none;" fill="none"></path></g></g></g></g><g opacity="0.2"><g><g><g><path stroke="rgb(0, 119, 187)" stroke-width="2px" d="M31.85845717884403,-9.180644431117173L35.17050615185187,73.19936562920768L36.6544624702935,93.94267015333502L40.008212174361724,116.63829066194222L43.436517730931826,124.45200832510217L44.90994356173196,138.8019462573362L48.324770094120936,151.56366464441624L51.75139077266841,150.30806619973424L53.236189530121365,152.88770610781404L56.55371435670279,157.7682496178146L58.03345848008783,155.12229673352536L61.417957208069254,162.2303541990923L64.72495154700917,161.29218489882476L66.17057689043571,152.95130812083363L69.5576029354511,153.58914142770857L72.9008221518778,164.7824091765322L74.31232871534584,164.39137914187836L75.73520820546673,146.97106415322594L78.99418352076135,157.34118489712392L82.29612322563334,168.53696996890957L85.63597268601477,164.06745424800246L87.03779120085262,154.03944297574105L90.36374041754725,152.30109944303348L91.77945917607191,161.30839786699278L95.06160156417785,152.31236578356283L96.51059666364968,170.40063393634912L99.88624978201224,143.42227250842294L101.38410634414068,152.16690676513466L104.76523531607681,154.6324397680406L108.03558355802427,169.50089341948092L109.46351768221308,147.62368453204567L112.72881129009261,147.9498450903704L114.10914761014178,160.71504900155168L115.49074758870795,146.45374548270092L118.68611875864785,168.06675868472288L119.7143155719649,151.70630707771207L122.87514674244066,143.90940090706073L124.32961769548606,149.19400115795224L125.80641328233149,150.5072867868759L129.20312737597706,161.69175270716102L130.72709954745645,167.53336787528644L134.18994510349071,149.96831561814602L135.71728703101536,156.79932672863336L139.1868720991402,158.57256070966778L140.73359012392524,150.9162197407772L144.21623299672552,131.02861138351113L145.75579028991436,139.32965108553674L149.23548462617504,142.39421893511968L150.7741994803525,142.03741040982374L154.24631186551133,162.44969576627307L155.7757598905643,142.24198250871683L157.31531718375308,153.90808448663165L158.33003497288902,153.36541654991558L159.60169666047784,133.24672498619827L162.86825392687433,141.20232812539976L164.33620390410087,140.26514462992856L167.70216897383327,153.20862077632975L169.19033748733148,150.36962618853292L172.57230889827895,123.77726014933654L174.05752887523758,147.6138264840825L177.41338467683408,143.33337404018351L178.87501636147573,129.07877751467913L182.22792362653263,152.75765028932832L183.71187994497427,121.25009674300362L187.15408574523116,130.34312497692844L188.68100645325018,118.40038152804681L192.13205786312594,155.60880900416547L193.6404449128959,135.64893763459787L195.15515025525076,121.16237771978838L196.67069803661693,138.66310621396903L200.12217066599834,133.15608375590824L203.57195841735714,149.92897144457868L205.087927418229,140.4849086848792L206.61400568723667,106.95092775777998L210.07221782870863,135.31856980223174L211.59703243919935,124.50332298548196L213.1201621716674,139.4692656898153L214.17868678939203,147.9559711630332L215.45119091599213,133.64875730652534L218.78430086428298,136.95718861759747L220.26362376816235,132.2925187543335L223.69487786127212,158.30966769487821L225.21084686214394,144.25503111011272L226.732712936095,138.0700214033841L230.21619824790665,150.42037753188623L231.7540706630728,114.1188904683803L233.2969977123069,141.96961872641978L236.7636342438921,142.772116641594L238.27918202525828,118.0777769084517L239.81410590388484,119.61526271390946L241.33133856327362,109.44959084330505L244.8165087531079,133.25665344878976" style="fill: none;" fill="none"></path></g><g><path stroke="rgb(255, 112, 67)" stroke-width="2px" d="M31.71861230296477,-35.86275391409265L33.09010301339508,4.584429598386947L34.50455811340275,47.79813344247691L35.950604676334954,84.66117716674265L39.1986282844824,115.15796393101382L42.4664492093959,116.10331552336882L43.90912601628282,137.8261403382378L47.228756940392536,148.04536253367078L50.588403717540004,151.25065401792813L53.959002201834636,136.63900251592872L55.43284925214043,152.7998286516851L58.75542871278978,155.23744225446674L60.20863600731821,153.02166993817085L63.46803254211849,152.2329380828309L64.89006959322805,144.56973168768025L68.1785302739189,138.73545724455596L69.60225220305111,156.9896574689511L72.88650068868536,139.50174443712257L76.05365015174601,134.41527334663397L77.44915037399896,123.73423681144007L80.83196422395775,120.3559189817718L82.3327693226258,135.33536369108327L83.84747466498065,134.39235338511955L87.2901016847432,120.03102588675665L88.82165580732448,121.91486364520654L90.3494189543548,132.3752031316247L91.88139429644173,135.89253704123092L95.31728180411373,122.51821138786742L98.68872272741967,112.19660632287399L100.15920002168018,99.09839403076498L103.47672484826161,113.73886271939965L104.92571994773344,124.24303531193979L108.17964062896013,110.01759044255509L111.53296911352268,93.6965006127687L112.9575334816662,131.75191044549544L116.23504245520989,134.50320361373412L118.77204753780256,108.37700001759671L119.97757776300267,108.98351641853147L123.15273039667088,100.3471974638152L124.6164681788408,97.04394162792373L127.96474202933544,117.99796192726407L129.43816786013556,116.47707637043003L132.8588914656038,88.32787810664816L136.31078531449091,102.62000562904095L137.83770602250988,112.27508342612376L141.29507572497056,81.29225968995355L142.81146594534806,76.49716433140526L146.20144052690307,109.98780505478062L149.4869526710543,106.94321735598021L150.8875075273752,120.58034800584787L153.33395041625084,85.16108582041844L154.6283579571453,93.72258923255697L157.90628815019465,68.0289603017754L159.40161739528912,103.07696135944857L162.80507100102528,99.5568284683671L164.3041912216707,85.8518181168101L167.7463970219276,77.01224733748151L169.26615699835037,97.81561553955595L172.727317676362,108.30746557214212L174.25423838438098,94.5244006051052L177.68844101403033,94.14099295396574L181.16476559424575,90.54051697198433L182.70558654595152,74.55850878481723L184.24093164408376,95.48496175717483L187.70082866357836,79.6116385488018L189.21384912791058,93.38533837027369L192.6964920007109,61.743856200906336L194.21877929416766,55.83927275141606L197.59738094906984,75.33972387858525L200.977246262489,65.66947172910197L204.43040376989305,50.207686815877636L207.8317512781009,105.32558209985037L209.28580101164064,79.96578892187912L210.7482751352936,81.87170166630371L214.1289828877241,69.41468497957139L215.61378164517706,76.28922993401042L219.04756305532075,92.11491764633278L220.58122327543032,64.21319159374092L223.95940371082685,63.386629479342275L225.4197717369515,58.36515109078235L228.8097463185065,67.74733699585578L232.22373041188416,66.94218092846292L235.62676279811464,45.9039095263515L237.14104692096384,35.35650235202996L240.44340784534148,51.17374030895532L241.84396270166238,71.28222175156789L242.87342317349643,57.57548624161733L244.1261299833305,60.80030018157319L245.57638874131928,63.63082741031596" style="fill: none;" fill="none"></path></g></g></g></g></g></g><g transform="translate(58, 178)" clip-path="url(#clip_1)"><clipPath id="clip_1"><rect width="272" height="22"></rect></clipPath><g><g><line x1="6.634148301875789" y1="0" x2="6.634148301875789" y2="5" style="visibility: inherit;" fill="rgb(0, 0, 0)" stroke="rgb(204, 204, 204)" stroke-width="1px"></line><line x1="27.695123584896496" y1="0" x2="27.695123584896496" y2="5" style="visibility: inherit;" fill="rgb(0, 0, 0)" stroke="rgb(204, 204, 204)" stroke-width="1px"></line><line x1="48.7560988679172" y1="0" x2="48.7560988679172" y2="5" style="visibility: inherit;" fill="rgb(0, 0, 0)" stroke="rgb(204, 204, 204)" stroke-width="1px"></line><line x1="69.81707415093793" y1="0" x2="69.81707415093793" y2="5" style="visibility: inherit;" fill="rgb(0, 0, 0)" stroke="rgb(204, 204, 204)" stroke-width="1px"></line><line x1="90.87804943395862" y1="0" x2="90.87804943395862" y2="5" style="visibility: inherit;" fill="rgb(0, 0, 0)" stroke="rgb(204, 204, 204)" stroke-width="1px"></line><line x1="111.93902471697933" y1="0" x2="111.93902471697933" y2="5" style="visibility: inherit;" fill="rgb(0, 0, 0)" stroke="rgb(204, 204, 204)" stroke-width="1px"></line><line x1="133.00000000000003" y1="0" x2="133.00000000000003" y2="5" style="visibility: inherit;" fill="rgb(0, 0, 0)" stroke="rgb(204, 204, 204)" stroke-width="1px"></line><line x1="154.06097528302075" y1="0" x2="154.06097528302075" y2="5" style="visibility: inherit;" fill="rgb(0, 0, 0)" stroke="rgb(204, 204, 204)" stroke-width="1px"></line><line x1="175.12195056604145" y1="0" x2="175.12195056604145" y2="5" style="visibility: inherit;" fill="rgb(0, 0, 0)" stroke="rgb(204, 204, 204)" stroke-width="1px"></line><line x1="196.18292584906214" y1="0" x2="196.18292584906214" y2="5" style="visibility: inherit;" fill="rgb(0, 0, 0)" stroke="rgb(204, 204, 204)" stroke-width="1px"></line><line x1="217.24390113208287" y1="0" x2="217.24390113208287" y2="5" style="visibility: inherit;" fill="rgb(0, 0, 0)" stroke="rgb(204, 204, 204)" stroke-width="1px"></line><line x1="238.30487641510356" y1="0" x2="238.30487641510356" y2="5" style="visibility: inherit;" fill="rgb(0, 0, 0)" stroke="rgb(204, 204, 204)" stroke-width="1px"></line><line x1="259.3658516981243" y1="0" x2="259.3658516981243" y2="5" style="visibility: inherit;" fill="rgb(0, 0, 0)" stroke="rgb(204, 204, 204)" stroke-width="1px"></line></g><g transform="translate(0, 8)"><text x="6.634148301875789" y="0" dx="0em" dy="0.95em" style="text-anchor: middle; visibility: hidden; font-family: &quot;Helvetica Neue&quot;, sans-serif; font-size: 12px; font-weight: 200;" fill="rgb(50, 49, 63)" stroke="none" stroke-width="1px">-50k</text><text x="27.695123584896496" y="0" dx="0em" dy="0.95em" style="text-anchor: middle; visibility: inherit; font-family: &quot;Helvetica Neue&quot;, sans-serif; font-size: 12px; font-weight: 200;" fill="rgb(50, 49, 63)" stroke="none" stroke-width="1px">0</text><text x="48.7560988679172" y="0" dx="0em" dy="0.95em" style="text-anchor: middle; visibility: hidden; font-family: &quot;Helvetica Neue&quot;, sans-serif; font-size: 12px; font-weight: 200;" fill="rgb(50, 49, 63)" stroke="none" stroke-width="1px">50k</text><text x="69.81707415093793" y="0" dx="0em" dy="0.95em" style="text-anchor: middle; visibility: inherit; font-family: &quot;Helvetica Neue&quot;, sans-serif; font-size: 12px; font-weight: 200;" fill="rgb(50, 49, 63)" stroke="none" stroke-width="1px">100k</text><text x="90.87804943395862" y="0" dx="0em" dy="0.95em" style="text-anchor: middle; visibility: hidden; font-family: &quot;Helvetica Neue&quot;, sans-serif; font-size: 12px; font-weight: 200;" fill="rgb(50, 49, 63)" stroke="none" stroke-width="1px">150k</text><text x="111.93902471697933" y="0" dx="0em" dy="0.95em" style="text-anchor: middle; visibility: inherit; font-family: &quot;Helvetica Neue&quot;, sans-serif; font-size: 12px; font-weight: 200;" fill="rgb(50, 49, 63)" stroke="none" stroke-width="1px">200k</text><text x="133.00000000000003" y="0" dx="0em" dy="0.95em" style="text-anchor: middle; visibility: hidden; font-family: &quot;Helvetica Neue&quot;, sans-serif; font-size: 12px; font-weight: 200;" fill="rgb(50, 49, 63)" stroke="none" stroke-width="1px">250k</text><text x="154.06097528302075" y="0" dx="0em" dy="0.95em" style="text-anchor: middle; visibility: inherit; font-family: &quot;Helvetica Neue&quot;, sans-serif; font-size: 12px; font-weight: 200;" fill="rgb(50, 49, 63)" stroke="none" stroke-width="1px">300k</text><text x="175.12195056604145" y="0" dx="0em" dy="0.95em" style="text-anchor: middle; visibility: hidden; font-family: &quot;Helvetica Neue&quot;, sans-serif; font-size: 12px; font-weight: 200;" fill="rgb(50, 49, 63)" stroke="none" stroke-width="1px">350k</text><text x="196.18292584906214" y="0" dx="0em" dy="0.95em" style="text-anchor: middle; visibility: inherit; font-family: &quot;Helvetica Neue&quot;, sans-serif; font-size: 12px; font-weight: 200;" fill="rgb(50, 49, 63)" stroke="none" stroke-width="1px">400k</text><text x="217.24390113208287" y="0" dx="0em" dy="0.95em" style="text-anchor: middle; visibility: hidden; font-family: &quot;Helvetica Neue&quot;, sans-serif; font-size: 12px; font-weight: 200;" fill="rgb(50, 49, 63)" stroke="none" stroke-width="1px">450k</text><text x="238.30487641510356" y="0" dx="0em" dy="0.95em" style="text-anchor: middle; visibility: inherit; font-family: &quot;Helvetica Neue&quot;, sans-serif; font-size: 12px; font-weight: 200;" fill="rgb(50, 49, 63)" stroke="none" stroke-width="1px">500k</text><text x="259.3658516981243" y="0" dx="0em" dy="0.95em" style="text-anchor: middle; visibility: hidden; font-family: &quot;Helvetica Neue&quot;, sans-serif; font-size: 12px; font-weight: 200;" fill="rgb(50, 49, 63)" stroke="none" stroke-width="1px">550k</text></g><line x1="0" y1="0" x2="272" y2="0" fill="rgb(0, 0, 0)" stroke="rgb(204, 204, 204)" stroke-width="1px"></line></g></g></g></g></svg>