<svg viewBox="0 0 330 200" xmlns="http://www.w3.org/2000/svg"><g><g><g><g><g><line x1="70" y1="163.18992597628406" x2="65" y2="163.18992597628406" style="visibility: inherit;" fill="rgb(0, 0, 0)" stroke="rgb(204, 204, 204)" stroke-width="1px"></line><line x1="70" y1="147.8224818336595" x2="65" y2="147.8224818336595" style="visibility: inherit;" fill="rgb(0, 0, 0)" stroke="rgb(204, 204, 204)" stroke-width="1px"></line><line x1="70" y1="132.45503769103496" x2="65" y2="132.45503769103496" style="visibility: inherit;" fill="rgb(0, 0, 0)" stroke="rgb(204, 204, 204)" stroke-width="1px"></line><line x1="70" y1="117.08759354841041" x2="65" y2="117.08759354841041" style="visibility: inherit;" fill="rgb(0, 0, 0)" stroke="rgb(204, 204, 204)" stroke-width="1px"></line><line x1="70" y1="101.72014940578588" x2="65" y2="101.72014940578588" style="visibility: inherit;" fill="rgb(0, 0, 0)" stroke="rgb(204, 204, 204)" stroke-width="1px"></line><line x1="70" y1="86.35270526316133" x2="65" y2="86.35270526316133" style="visibility: inherit;" fill="rgb(0, 0, 0)" stroke="rgb(204, 204, 204)" stroke-width="1px"></line><line x1="70" y1="70.98526112053689" x2="65" y2="70.98526112053689" style="visibility: inherit;" fill="rgb(0, 0, 0)" stroke="rgb(204, 204, 204)" stroke-width="1px"></line><line x1="70" y1="55.617816977912355" x2="65" y2="55.617816977912355" style="visibility: inherit;" fill="rgb(0, 0, 0)" stroke="rgb(204, 204, 204)" stroke-width="1px"></line><line x1="70" y1="40.250372835287806" x2="65" y2="40.250372835287806" style="visibility: inherit;" fill="rgb(0, 0, 0)" stroke="rgb(204, 204, 204)" stroke-width="1px"></line><line x1="70" y1="24.882928692663285" x2="65" y2="24.882928692663285" style="visibility: inherit;" fill="rgb(0, 0, 0)" stroke="rgb(204, 204, 204)" stroke-width="1px"></line><line x1="70" y1="9.515484550038735" x2="65" y2="9.515484550038735" style="visibility: inherit;" fill="rgb(0, 0, 0)" stroke="rgb(204, 204, 204)" stroke-width="1px"></line></g><g transform="translate(60, 0)"><text x="0" y="163.18992597628406" dx="0em" dy="0.3em" style="text-anchor: end; visibility: inherit; font-family: &quot;Helvetica Neue&quot;, sans-serif; font-size: 12px; font-weight: 200;" fill="rgb(50, 49, 63)" stroke="none" stroke-width="1px">0.074</text><text x="0" y="147.8224818336595" dx="0em" dy="0.3em" style="text-anchor: end; visibility: hidden; font-family: &quot;Helvetica Neue&quot;, sans-serif; font-size: 12px; font-weight: 200;" fill="rgb(50, 49, 63)" stroke="none" stroke-width="1px">0.076</text><text x="0" y="132.45503769103496" dx="0em" dy="0.3em" style="text-anchor: end; visibility: inherit; font-family: &quot;Helvetica Neue&quot;, sans-serif; font-size: 12px; font-weight: 200;" fill="rgb(50, 49, 63)" stroke="none" stroke-width="1px">0.078</text><text x="0" y="117.08759354841041" dx="0em" dy="0.3em" style="text-anchor: end; visibility: hidden; font-family: &quot;Helvetica Neue&quot;, sans-serif; font-size: 12px; font-weight: 200;" fill="rgb(50, 49, 63)" stroke="none" stroke-width="1px">0.08</text><text x="0" y="101.72014940578588" dx="0em" dy="0.3em" style="text-anchor: end; visibility: inherit; font-family: &quot;Helvetica Neue&quot;, sans-serif; font-size: 12px; font-weight: 200;" fill="rgb(50, 49, 63)" stroke="none" stroke-width="1px">0.082</text><text x="0" y="86.35270526316133" dx="0em" dy="0.3em" style="text-anchor: end; visibility: hidden; font-family: &quot;Helvetica Neue&quot;, sans-serif; font-size: 12px; font-weight: 200;" fill="rgb(50, 49, 63)" stroke="none" stroke-width="1px">0.084</text><text x="0" y="70.98526112053689" dx="0em" dy="0.3em" style="text-anchor: end; visibility: inherit; font-family: &quot;Helvetica Neue&quot;, sans-serif; font-size: 12px; font-weight: 200;" fill="rgb(50, 49, 63)" stroke="none" stroke-width="1px">0.086</text><text x="0" y="55.617816977912355" dx="0em" dy="0.3em" style="text-anchor: end; visibility: hidden; font-family: &quot;Helvetica Neue&quot;, sans-serif; font-size: 12px; font-weight: 200;" fill="rgb(50, 49, 63)" stroke="none" stroke-width="1px">0.088</text><text x="0" y="40.250372835287806" dx="0em" dy="0.3em" style="text-anchor: end; visibility: inherit; font-family: &quot;Helvetica Neue&quot;, sans-serif; font-size: 12px; font-weight: 200;" fill="rgb(50, 49, 63)" stroke="none" stroke-width="1px">0.09</text><text x="0" y="24.882928692663285" dx="0em" dy="0.3em" style="text-anchor: end; visibility: hidden; font-family: &quot;Helvetica Neue&quot;, sans-serif; font-size: 12px; font-weight: 200;" fill="rgb(50, 49, 63)" stroke="none" stroke-width="1px">0.092</text><text x="0" y="9.515484550038735" dx="0em" dy="0.3em" style="text-anchor: end; visibility: inherit; font-family: &quot;Helvetica Neue&quot;, sans-serif; font-size: 12px; font-weight: 200;" fill="rgb(50, 49, 63)" stroke="none" stroke-width="1px">0.094</text></g><line x1="70" y1="0" x2="70" y2="178" fill="rgb(0, 0, 0)" stroke="rgb(204, 204, 204)" stroke-width="1px"></line></g></g><g transform="translate(70, 0)" clip-path="url(#clip_0)"><clipPath id="clip_0"><rect width="260" height="178"></rect></clipPath><g><g><g><line x1="12.21921561962413" y1="0" x2="12.21921561962413" y2="178" fill="rgb(0, 0, 0)" stroke="rgb(60, 60, 60)" stroke-width="1px" opacity="0.25"></line><line x1="30.924906055403046" y1="0" x2="30.924906055403046" y2="178" fill="rgb(0, 0, 0)" stroke="rgb(60, 60, 60)" stroke-width="1px" opacity="0.25"></line><line x1="49.63059649118196" y1="0" x2="49.63059649118196" y2="178" fill="rgb(0, 0, 0)" stroke="rgb(60, 60, 60)" stroke-width="1px" opacity="0.25"></line><line x1="68.33628692696088" y1="0" x2="68.33628692696088" y2="178" fill="rgb(0, 0, 0)" stroke="rgb(60, 60, 60)" stroke-width="1px" opacity="0.25"></line><line x1="87.0419773627398" y1="0" x2="87.0419773627398" y2="178" fill="rgb(0, 0, 0)" stroke="rgb(60, 60, 60)" stroke-width="1px" opacity="0.25"></line><line x1="105.7476677985187" y1="0" x2="105.7476677985187" y2="178" fill="rgb(0, 0, 0)" stroke="rgb(60, 60, 60)" stroke-width="1px" opacity="0.25"></line><line x1="124.45335823429762" y1="0" x2="124.45335823429762" y2="178" fill="rgb(0, 0, 0)" stroke="rgb(60, 60, 60)" stroke-width="1px" opacity="0.25"></line><line x1="143.15904867007657" y1="0" x2="143.15904867007657" y2="178" fill="rgb(0, 0, 0)" stroke="rgb(60, 60, 60)" stroke-width="1px" opacity="0.25"></line><line x1="161.86473910585548" y1="0" x2="161.86473910585548" y2="178" fill="rgb(0, 0, 0)" stroke="rgb(60, 60, 60)" stroke-width="1px" opacity="0.25"></line><line x1="180.57042954163438" y1="0" x2="180.57042954163438" y2="178" fill="rgb(0, 0, 0)" stroke="rgb(60, 60, 60)" stroke-width="1px" opacity="0.25"></line><line x1="199.27611997741334" y1="0" x2="199.27611997741334" y2="178" fill="rgb(0, 0, 0)" stroke="rgb(60, 60, 60)" stroke-width="1px" opacity="0.25"></line><line x1="217.98181041319225" y1="0" x2="217.98181041319225" y2="178" fill="rgb(0, 0, 0)" stroke="rgb(60, 60, 60)" stroke-width="1px" opacity="0.25"></line><line x1="236.68750084897115" y1="0" x2="236.68750084897115" y2="178" fill="rgb(0, 0, 0)" stroke="rgb(60, 60, 60)" stroke-width="1px" opacity="0.25"></line><line x1="255.3931912847501" y1="0" x2="255.3931912847501" y2="178" fill="rgb(0, 0, 0)" stroke="rgb(60, 60, 60)" stroke-width="1px" opacity="0.25"></line></g><g><line x1="0" y1="163.18992597628406" x2="260" y2="163.18992597628406" fill="rgb(0, 0, 0)" stroke="rgb(60, 60, 60)" stroke-width="1px" opacity="0.25"></line><line x1="0" y1="147.8224818336595" x2="260" y2="147.8224818336595" fill="rgb(0, 0, 0)" stroke="rgb(60, 60, 60)" stroke-width="1px" opacity="0.25"></line><line x1="0" y1="132.45503769103496" x2="260" y2="132.45503769103496" fill="rgb(0, 0, 0)" stroke="rgb(60, 60, 60)" stroke-width="1px" opacity="0.25"></line><line x1="0" y1="117.08759354841041" x2="260" y2="117.08759354841041" fill="rgb(0, 0, 0)" stroke="rgb(60, 60, 60)" stroke-width="1px" opacity="0.25"></line><line x1="0" y1="101.72014940578588" x2="260" y2="101.72014940578588" fill="rgb(0, 0, 0)" stroke="rgb(60, 60, 60)" stroke-width="1px" opacity="0.25"></line><line x1="0" y1="86.35270526316133" x2="260" y2="86.35270526316133" fill="rgb(0, 0, 0)" stroke="rgb(60, 60, 60)" stroke-width="1px" opacity="0.25"></line><line x1="0" y1="70.98526112053689" x2="260" y2="70.98526112053689" fill="rgb(0, 0, 0)" stroke="rgb(60, 60, 60)" stroke-width="1px" opacity="0.25"></line><line x1="0" y1="55.617816977912355" x2="260" y2="55.617816977912355" fill="rgb(0, 0, 0)" stroke="rgb(60, 60, 60)" stroke-width="1px" opacity="0.25"></line><line x1="0" y1="40.250372835287806" x2="260" y2="40.250372835287806" fill="rgb(0, 0, 0)" stroke="rgb(60, 60, 60)" stroke-width="1px" opacity="0.25"></line><line x1="0" y1="24.882928692663285" x2="260" y2="24.882928692663285" fill="rgb(0, 0, 0)" stroke="rgb(60, 60, 60)" stroke-width="1px" opacity="0.25"></line><line x1="0" y1="9.515484550038735" x2="260" y2="9.515484550038735" fill="rgb(0, 0, 0)" stroke="rgb(60, 60, 60)" stroke-width="1px" opacity="0.25"></line></g></g></g><g><g><line x1="0" y1="731.7853592533916" x2="260" y2="731.7853592533916" fill="rgb(0, 0, 0)" stroke="rgb(153, 153, 153)" stroke-width="1.5px"></line></g></g><g><g><line x1="30.924906055403046" y1="0" x2="30.924906055403046" y2="178" fill="rgb(0, 0, 0)" stroke="rgb(153, 153, 153)" stroke-width="1.5px"></line></g></g><g><g><g><g><g><path stroke="rgb(255, 112, 67)" stroke-width="2px" d="M31.81903805823328,-94.07091244932343L34.49844115625425,7.875269904973408L35.71655571743218,65.64834387590012L36.97282988709909,61.60263361979571L38.25716259241967,53.83997359416273L41.14195417142549,52.99908503077603L44.04432909944095,58.91885179972584L45.32566889429181,73.41871014920544L48.27405982077928,50.998388095619504L51.25799155909472,58.667824324654745L54.25165025643678,102.80997268246308L55.56067447313259,97.98695938923491L58.511684196281074,113.01643055335263L59.80237683634982,113.13705553489474L62.69726948819096,125.71882906190476L63.96027770641476,123.48777662252132L66.88098421105728,127.11518064120193L68.14548888451594,137.1557547283477L71.06245425107129,127.98272108088706L73.87541597880374,137.49206924973635L75.11485502707843,141.95722652476823L78.11936302487325,121.81174537641168L79.45233052532686,125.0713158339077L80.79764378146807,138.36537429393587L83.8552759401005,140.54237346583096L85.21555374859034,145.87227639585706L86.57246453280175,153.05510266469437L87.9331164551003,150.9649229692046L90.98476279279328,149.89153712799435L93.97916971775277,147.73871803054578L95.28520102397884,147.07730663924923L98.23172138142274,148.75195145258576L99.51867288340434,136.46711976093795L102.40870205573218,144.72713012863113L105.3870220869169,144.10592577882443L106.65227498799298,149.89482599109604L109.5632545336089,139.06969761839295L111.81654200350282,138.34988682229488L112.88725572404681,127.27913398153234L115.70732561414485,144.24936260678453L117.00737109943148,135.89199382415904L119.98120176491162,139.87270595720065L121.2898518677987,141.72371012178684L124.32803010837792,145.11950009347962L127.39389277080208,138.33640186391028L128.75005532739604,134.08765378069464L131.82078146933353,137.0080344544924L133.1675911807096,144.0556746886099L136.1784591132526,137.78349802267314L139.09654682123409,131.97830936021205L140.3404752352134,128.95416635625912L142.51332823623346,129.28044229160344L143.66297997041642,141.78477492030197L146.57433362984105,137.6541528846189L147.90243765078137,129.20992282393627L150.92527722520325,132.78000711286427L152.25674827042198,137.03403503369913L155.3140063152457,144.8069829827158L156.66380893709152,142.9523124781308L159.73790210330742,144.45621047025867L161.09406465990136,145.27340975650966L164.14421454235946,153.4086755971457L167.23177580568915,154.09606165264228L168.60028411797074,147.68379909163752L169.96392895073902,123.44014781348191L173.03689977552878,138.90164950405926L174.38071657643513,141.4999308071784L177.47388954689555,144.2370215525653L178.82593685159364,144.25800724266603L181.82670371130132,139.1011328462051L184.82859291243508,151.80421131171366L187.89557791628542,152.92502256696025L190.9165469216637,141.5165152598175L192.2079877893499,141.49406703425015L193.50691093321038,124.62950160556065L196.50954836196163,134.8687456007657L197.82829953768405,148.5478484242201L200.87807530633344,133.87126190631636L202.24022368386687,131.21639908027552L205.2406164297658,134.38666823628768L206.5376690045827,134.2123920591266L209.54853693712568,136.09660559418734L212.58072935676546,126.71673231376607L215.6031948173786,130.93593221094972L216.9481339597111,146.30032104530844L219.88118622004126,147.0950433974995L221.12511463402055,137.47414326430933L222.03944878252142,130.37317037170163L223.15206324964154,132.00305905805712L224.4401370930493,140.27960988504307" style="fill: none;" fill="none"></path></g></g></g></g><g opacity="0.2"><g><g><g><path stroke="rgb(255, 112, 67)" stroke-width="2px" d="M31.81903805823328,-94.07091244932343L34.49844115625425,69.04297931755131L35.71655571743218,121.11049488798966L36.97282988709909,56.84487835861697L38.25716259241967,43.70504466469632L41.14195417142549,51.83583342772967L44.04432909944095,67.38421299559215L45.32566889429181,94.55964282138667L48.27405982077928,17.93276798993611L51.25799155909472,70.05604329799614L54.25165025643678,168.6228291824326L55.56067447313259,90.77868607475021L58.511684196281074,135.51156346850502L59.80237683634982,113.31775669031158L62.69726948819096,144.5766999499403L63.96027770641476,120.14277147448155L66.88098421105728,132.55475167341035L68.14548888451594,152.21406655839328L71.06245425107129,114.2245680290461L73.87541597880374,151.75522231092123L75.11485502707843,148.6547175574791L78.11936302487325,91.59418654951493L79.45233052532686,129.96060716561894L80.79764378146807,158.30630450318182L83.8552759401005,143.80785675049555L85.21555374859034,153.86710806129474L86.57246453280175,163.8293236890665L87.9331164551003,147.82965663488807L90.98476279279328,148.2814593549192L93.97916971775277,144.50949057420326L95.28520102397884,146.08518977163567L98.23172138142274,151.2639183393922L99.51867288340434,118.03987369002857L102.40870205573218,157.11714508852316L105.3870220869169,143.17411928081177L106.65227498799298,158.57817616023044L109.5632545336089,122.83200522682085L111.81654200350282,137.2701706348299L112.88725572404681,110.67300478205036L115.70732561414485,169.7047054879506L117.00737109943148,123.35594066697857L119.98120176491162,145.84377415197383L121.2898518677987,144.50021636732984L124.32803010837792,150.21318504954792L127.39389277080208,128.16175452131867L128.75005532739604,127.7145316565337L131.82078146933353,141.38860546491586L133.1675911807096,154.62713503939068L136.1784591132526,128.3752330239791L139.09654682123409,123.27052636663817L140.3404752352134,124.41795185036646L142.51332823623346,129.76985619461746L143.66297997041642,160.5412738632952L146.57433362984105,131.45821983110474L147.90243765078137,116.54357773292602L150.92527722520325,138.13513354625286L152.25674827042198,143.41507691494897L155.3140063152457,156.4664049062381L156.66380893709152,140.17030672125364L159.73790210330742,146.71205745845023L161.09406465990136,146.49920868588617L164.14421454235946,165.61157435809952L167.23177580568915,155.12714073588737L168.60028411797074,138.06540525013048L169.96392895073902,87.07467089624879L173.03689977552878,162.09390203992518L174.38071657643513,145.3973527618569L177.47388954689555,148.34265767064568L178.82593685159364,144.2894857778171L181.82670371130132,131.36582125151398L184.82859291243508,170.85882900997638L187.89557791628542,154.60623944983018L190.9165469216637,124.40375429910344L192.2079877893499,141.460394695899L193.50691093321038,99.33265346252634L196.50954836196163,150.22761159357324L197.82829953768405,169.06650265940183L200.87807530633344,111.85638212946081L202.24022368386687,127.23410484121423L205.2406164297658,139.142071970306L206.5376690045827,133.95097779338488L209.54853693712568,138.92292589677848L212.58072935676546,112.6469223931341L215.6031948173786,137.2647320567251L216.9481339597111,169.3469042968464L219.88118622004126,148.28712692578628L221.12511463402055,123.04279306452415L222.03944878252142,119.72171103279011L223.15206324964154,134.44789208759042L224.4401370930493,152.69443612552215" style="fill: none;" fill="none"></path></g></g></g></g></g></g><g transform="translate(70, 178)" clip-path="url(#clip_1)"><clipPath id="clip_1"><rect width="260" height="22"></rect></clipPath><g><g><line x1="12.21921561962413" y1="0" x2="12.21921561962413" y2="5" style="visibility: inherit;" fill="rgb(0, 0, 0)" stroke="rgb(204, 204, 204)" stroke-width="1px"></line><line x1="30.924906055403046" y1="0" x2="30.924906055403046" y2="5" style="visibility: inherit;" fill="rgb(0, 0, 0)" stroke="rgb(204, 204, 204)" stroke-width="1px"></line><line x1="49.63059649118196" y1="0" x2="49.63059649118196" y2="5" style="visibility: inherit;" fill="rgb(0, 0, 0)" stroke="rgb(204, 204, 204)" stroke-width="1px"></line><line x1="68.33628692696088" y1="0" x2="68.33628692696088" y2="5" style="visibility: inherit;" fill="rgb(0, 0, 0)" stroke="rgb(204, 204, 204)" stroke-width="1px"></line><line x1="87.0419773627398" y1="0" x2="87.0419773627398" y2="5" style="visibility: inherit;" fill="rgb(0, 0, 0)" stroke="rgb(204, 204, 204)" stroke-width="1px"></line><line x1="105.7476677985187" y1="0" x2="105.7476677985187" y2="5" style="visibility: inherit;" fill="rgb(0, 0, 0)" stroke="rgb(204, 204, 204)" stroke-width="1px"></line><line x1="124.45335823429762" y1="0" x2="124.45335823429762" y2="5" style="visibility: inherit;" fill="rgb(0, 0, 0)" stroke="rgb(204, 204, 204)" stroke-width="1px"></line><line x1="143.15904867007657" y1="0" x2="143.15904867007657" y2="5" style="visibility: inherit;" fill="rgb(0, 0, 0)" stroke="rgb(204, 204, 204)" stroke-width="1px"></line><line x1="161.86473910585548" y1="0" x2="161.86473910585548" y2="5" style="visibility: inherit;" fill="rgb(0, 0, 0)" stroke="rgb(204, 204, 204)" stroke-width="1px"></line><line x1="180.57042954163438" y1="0" x2="180.57042954163438" y2="5" style="visibility: inherit;" fill="rgb(0, 0, 0)" stroke="rgb(204, 204, 204)" stroke-width="1px"></line><line x1="199.27611997741334" y1="0" x2="199.27611997741334" y2="5" style="visibility: inherit;" fill="rgb(0, 0, 0)" stroke="rgb(204, 204, 204)" stroke-width="1px"></line><line x1="217.98181041319225" y1="0" x2="217.98181041319225" y2="5" style="visibility: inherit;" fill="rgb(0, 0, 0)" stroke="rgb(204, 204, 204)" stroke-width="1px"></line><line x1="236.68750084897115" y1="0" x2="236.68750084897115" y2="5" style="visibility: inherit;" fill="rgb(0, 0, 0)" stroke="rgb(204, 204, 204)" stroke-width="1px"></line><line x1="255.3931912847501" y1="0" x2="255.3931912847501" y2="5" style="visibility: inherit;" fill="rgb(0, 0, 0)" stroke="rgb(204, 204, 204)" stroke-width="1px"></line></g><g transform="translate(0, 8)"><text x="12.21921561962413" y="0" dx="0em" dy="0.95em" style="text-anchor: middle; visibility: inherit; font-family: &quot;Helvetica Neue&quot;, sans-serif; font-size: 12px; font-weight: 200;" fill="rgb(50, 49, 63)" stroke="none" stroke-width="1px">-50k</text><text x="30.924906055403046" y="0" dx="0em" dy="0.95em" style="text-anchor: middle; visibility: hidden; font-family: &quot;Helvetica Neue&quot;, sans-serif; font-size: 12px; font-weight: 200;" fill="rgb(50, 49, 63)" stroke="none" stroke-width="1px">0</text><text x="49.63059649118196" y="0" dx="0em" dy="0.95em" style="text-anchor: middle; visibility: inherit; font-family: &quot;Helvetica Neue&quot;, sans-serif; font-size: 12px; font-weight: 200;" fill="rgb(50, 49, 63)" stroke="none" stroke-width="1px">50k</text><text x="68.33628692696088" y="0" dx="0em" dy="0.95em" style="text-anchor: middle; visibility: hidden; font-family: &quot;Helvetica Neue&quot;, sans-serif; font-size: 12px; font-weight: 200;" fill="rgb(50, 49, 63)" stroke="none" stroke-width="1px">100k</text><text x="87.0419773627398" y="0" dx="0em" dy="0.95em" style="text-anchor: middle; visibility: inherit; font-family: &quot;Helvetica Neue&quot;, sans-serif; font-size: 12px; font-weight: 200;" fill="rgb(50, 49, 63)" stroke="none" stroke-width="1px">150k</text><text x="105.7476677985187" y="0" dx="0em" dy="0.95em" style="text-anchor: middle; visibility: hidden; font-family: &quot;Helvetica Neue&quot;, sans-serif; font-size: 12px; font-weight: 200;" fill="rgb(50, 49, 63)" stroke="none" stroke-width="1px">200k</text><text x="124.45335823429762" y="0" dx="0em" dy="0.95em" style="text-anchor: middle; visibility: inherit; font-family: &quot;Helvetica Neue&quot;, sans-serif; font-size: 12px; font-weight: 200;" fill="rgb(50, 49, 63)" stroke="none" stroke-width="1px">250k</text><text x="143.15904867007657" y="0" dx="0em" dy="0.95em" style="text-anchor: middle; visibility: hidden; font-family: &quot;Helvetica Neue&quot;, sans-serif; font-size: 12px; font-weight: 200;" fill="rgb(50, 49, 63)" stroke="none" stroke-width="1px">300k</text><text x="161.86473910585548" y="0" dx="0em" dy="0.95em" style="text-anchor: middle; visibility: inherit; font-family: &quot;Helvetica Neue&quot;, sans-serif; font-size: 12px; font-weight: 200;" fill="rgb(50, 49, 63)" stroke="none" stroke-width="1px">350k</text><text x="180.57042954163438" y="0" dx="0em" dy="0.95em" style="text-anchor: middle; visibility: hidden; font-family: &quot;Helvetica Neue&quot;, sans-serif; font-size: 12px; font-weight: 200;" fill="rgb(50, 49, 63)" stroke="none" stroke-width="1px">400k</text><text x="199.27611997741334" y="0" dx="0em" dy="0.95em" style="text-anchor: middle; visibility: inherit; font-family: &quot;Helvetica Neue&quot;, sans-serif; font-size: 12px; font-weight: 200;" fill="rgb(50, 49, 63)" stroke="none" stroke-width="1px">450k</text><text x="217.98181041319225" y="0" dx="0em" dy="0.95em" style="text-anchor: middle; visibility: hidden; font-family: &quot;Helvetica Neue&quot;, sans-serif; font-size: 12px; font-weight: 200;" fill="rgb(50, 49, 63)" stroke="none" stroke-width="1px">500k</text><text x="236.68750084897115" y="0" dx="0em" dy="0.95em" style="text-anchor: middle; visibility: inherit; font-family: &quot;Helvetica Neue&quot;, sans-serif; font-size: 12px; font-weight: 200;" fill="rgb(50, 49, 63)" stroke="none" stroke-width="1px">550k</text><text x="255.3931912847501" y="0" dx="0em" dy="0.95em" style="text-anchor: middle; visibility: hidden; font-family: &quot;Helvetica Neue&quot;, sans-serif; font-size: 12px; font-weight: 200;" fill="rgb(50, 49, 63)" stroke="none" stroke-width="1px">600k</text></g><line x1="0" y1="0" x2="260" y2="0" fill="rgb(0, 0, 0)" stroke="rgb(204, 204, 204)" stroke-width="1px"></line></g></g></g></g></svg>