<svg viewBox="0 0 330 200" xmlns="http://www.w3.org/2000/svg"><g><g><g><g><g><line x1="58" y1="166.41813793743688" x2="53" y2="166.41813793743688" style="visibility: inherit;" fill="rgb(0, 0, 0)" stroke="rgb(204, 204, 204)" stroke-width="1px"></line><line x1="58" y1="153.33043720412218" x2="53" y2="153.33043720412218" style="visibility: inherit;" fill="rgb(0, 0, 0)" stroke="rgb(204, 204, 204)" stroke-width="1px"></line><line x1="58" y1="140.24273647080736" x2="53" y2="140.24273647080736" style="visibility: inherit;" fill="rgb(0, 0, 0)" stroke="rgb(204, 204, 204)" stroke-width="1px"></line><line x1="58" y1="127.15503573749251" x2="53" y2="127.15503573749251" style="visibility: inherit;" fill="rgb(0, 0, 0)" stroke="rgb(204, 204, 204)" stroke-width="1px"></line><line x1="58" y1="114.06733500417769" x2="53" y2="114.06733500417769" style="visibility: inherit;" fill="rgb(0, 0, 0)" stroke="rgb(204, 204, 204)" stroke-width="1px"></line><line x1="58" y1="100.97963427086285" x2="53" y2="100.97963427086285" style="visibility: inherit;" fill="rgb(0, 0, 0)" stroke="rgb(204, 204, 204)" stroke-width="1px"></line><line x1="58" y1="87.89193353754803" x2="53" y2="87.89193353754803" style="visibility: inherit;" fill="rgb(0, 0, 0)" stroke="rgb(204, 204, 204)" stroke-width="1px"></line><line x1="58" y1="74.8042328042332" x2="53" y2="74.8042328042332" style="visibility: inherit;" fill="rgb(0, 0, 0)" stroke="rgb(204, 204, 204)" stroke-width="1px"></line><line x1="58" y1="61.71653207091835" x2="53" y2="61.71653207091835" style="visibility: inherit;" fill="rgb(0, 0, 0)" stroke="rgb(204, 204, 204)" stroke-width="1px"></line><line x1="58" y1="48.628831337603515" x2="53" y2="48.628831337603515" style="visibility: inherit;" fill="rgb(0, 0, 0)" stroke="rgb(204, 204, 204)" stroke-width="1px"></line><line x1="58" y1="35.54113060428867" x2="53" y2="35.54113060428867" style="visibility: inherit;" fill="rgb(0, 0, 0)" stroke="rgb(204, 204, 204)" stroke-width="1px"></line><line x1="58" y1="22.453429870973878" x2="53" y2="22.453429870973878" style="visibility: inherit;" fill="rgb(0, 0, 0)" stroke="rgb(204, 204, 204)" stroke-width="1px"></line><line x1="58" y1="9.36572913765903" x2="53" y2="9.36572913765903" style="visibility: inherit;" fill="rgb(0, 0, 0)" stroke="rgb(204, 204, 204)" stroke-width="1px"></line></g><g transform="translate(48, 0)"><text x="0" y="166.41813793743688" dx="0em" dy="0.3em" style="text-anchor: end; visibility: inherit; font-family: &quot;Helvetica Neue&quot;, sans-serif; font-size: 12px; font-weight: 200;" fill="rgb(50, 49, 63)" stroke="none" stroke-width="1px">0.68</text><text x="0" y="153.33043720412218" dx="0em" dy="0.3em" style="text-anchor: end; visibility: hidden; font-family: &quot;Helvetica Neue&quot;, sans-serif; font-size: 12px; font-weight: 200;" fill="rgb(50, 49, 63)" stroke="none" stroke-width="1px">0.69</text><text x="0" y="140.24273647080736" dx="0em" dy="0.3em" style="text-anchor: end; visibility: inherit; font-family: &quot;Helvetica Neue&quot;, sans-serif; font-size: 12px; font-weight: 200;" fill="rgb(50, 49, 63)" stroke="none" stroke-width="1px">0.7</text><text x="0" y="127.15503573749251" dx="0em" dy="0.3em" style="text-anchor: end; visibility: hidden; font-family: &quot;Helvetica Neue&quot;, sans-serif; font-size: 12px; font-weight: 200;" fill="rgb(50, 49, 63)" stroke="none" stroke-width="1px">0.71</text><text x="0" y="114.06733500417769" dx="0em" dy="0.3em" style="text-anchor: end; visibility: inherit; font-family: &quot;Helvetica Neue&quot;, sans-serif; font-size: 12px; font-weight: 200;" fill="rgb(50, 49, 63)" stroke="none" stroke-width="1px">0.72</text><text x="0" y="100.97963427086285" dx="0em" dy="0.3em" style="text-anchor: end; visibility: hidden; font-family: &quot;Helvetica Neue&quot;, sans-serif; font-size: 12px; font-weight: 200;" fill="rgb(50, 49, 63)" stroke="none" stroke-width="1px">0.73</text><text x="0" y="87.89193353754803" dx="0em" dy="0.3em" style="text-anchor: end; visibility: inherit; font-family: &quot;Helvetica Neue&quot;, sans-serif; font-size: 12px; font-weight: 200;" fill="rgb(50, 49, 63)" stroke="none" stroke-width="1px">0.74</text><text x="0" y="74.8042328042332" dx="0em" dy="0.3em" style="text-anchor: end; visibility: hidden; font-family: &quot;Helvetica Neue&quot;, sans-serif; font-size: 12px; font-weight: 200;" fill="rgb(50, 49, 63)" stroke="none" stroke-width="1px">0.75</text><text x="0" y="61.71653207091835" dx="0em" dy="0.3em" style="text-anchor: end; visibility: inherit; font-family: &quot;Helvetica Neue&quot;, sans-serif; font-size: 12px; font-weight: 200;" fill="rgb(50, 49, 63)" stroke="none" stroke-width="1px">0.76</text><text x="0" y="48.628831337603515" dx="0em" dy="0.3em" style="text-anchor: end; visibility: hidden; font-family: &quot;Helvetica Neue&quot;, sans-serif; font-size: 12px; font-weight: 200;" fill="rgb(50, 49, 63)" stroke="none" stroke-width="1px">0.77</text><text x="0" y="35.54113060428867" dx="0em" dy="0.3em" style="text-anchor: end; visibility: inherit; font-family: &quot;Helvetica Neue&quot;, sans-serif; font-size: 12px; font-weight: 200;" fill="rgb(50, 49, 63)" stroke="none" stroke-width="1px">0.78</text><text x="0" y="22.453429870973878" dx="0em" dy="0.3em" style="text-anchor: end; visibility: hidden; font-family: &quot;Helvetica Neue&quot;, sans-serif; font-size: 12px; font-weight: 200;" fill="rgb(50, 49, 63)" stroke="none" stroke-width="1px">0.79</text><text x="0" y="9.36572913765903" dx="0em" dy="0.3em" style="text-anchor: end; visibility: inherit; font-family: &quot;Helvetica Neue&quot;, sans-serif; font-size: 12px; font-weight: 200;" fill="rgb(50, 49, 63)" stroke="none" stroke-width="1px">0.8</text></g><line x1="58" y1="0" x2="58" y2="178" fill="rgb(0, 0, 0)" stroke="rgb(204, 204, 204)" stroke-width="1px"></line></g></g><g transform="translate(58, 0)" clip-path="url(#clip_0)"><clipPath id="clip_0"><rect width="272" height="178"></rect></clipPath><g><g><g><line x1="4.232997693092149" y1="0" x2="4.232997693092149" y2="178" fill="rgb(0, 0, 0)" stroke="rgb(60, 60, 60)" stroke-width="1px" opacity="0.25"></line><line x1="29.13825605687072" y1="0" x2="29.13825605687072" y2="178" fill="rgb(0, 0, 0)" stroke="rgb(60, 60, 60)" stroke-width="1px" opacity="0.25"></line><line x1="54.043514420649295" y1="0" x2="54.043514420649295" y2="178" fill="rgb(0, 0, 0)" stroke="rgb(60, 60, 60)" stroke-width="1px" opacity="0.25"></line><line x1="78.94877278442787" y1="0" x2="78.94877278442787" y2="178" fill="rgb(0, 0, 0)" stroke="rgb(60, 60, 60)" stroke-width="1px" opacity="0.25"></line><line x1="103.85403114820643" y1="0" x2="103.85403114820643" y2="178" fill="rgb(0, 0, 0)" stroke="rgb(60, 60, 60)" stroke-width="1px" opacity="0.25"></line><line x1="128.759289511985" y1="0" x2="128.759289511985" y2="178" fill="rgb(0, 0, 0)" stroke="rgb(60, 60, 60)" stroke-width="1px" opacity="0.25"></line><line x1="153.6645478757636" y1="0" x2="153.6645478757636" y2="178" fill="rgb(0, 0, 0)" stroke="rgb(60, 60, 60)" stroke-width="1px" opacity="0.25"></line><line x1="178.5698062395422" y1="0" x2="178.5698062395422" y2="178" fill="rgb(0, 0, 0)" stroke="rgb(60, 60, 60)" stroke-width="1px" opacity="0.25"></line><line x1="203.47506460332076" y1="0" x2="203.47506460332076" y2="178" fill="rgb(0, 0, 0)" stroke="rgb(60, 60, 60)" stroke-width="1px" opacity="0.25"></line><line x1="228.38032296709932" y1="0" x2="228.38032296709932" y2="178" fill="rgb(0, 0, 0)" stroke="rgb(60, 60, 60)" stroke-width="1px" opacity="0.25"></line><line x1="253.28558133087787" y1="0" x2="253.28558133087787" y2="178" fill="rgb(0, 0, 0)" stroke="rgb(60, 60, 60)" stroke-width="1px" opacity="0.25"></line></g><g><line x1="0" y1="166.41813793743688" x2="272" y2="166.41813793743688" fill="rgb(0, 0, 0)" stroke="rgb(60, 60, 60)" stroke-width="1px" opacity="0.25"></line><line x1="0" y1="153.33043720412218" x2="272" y2="153.33043720412218" fill="rgb(0, 0, 0)" stroke="rgb(60, 60, 60)" stroke-width="1px" opacity="0.25"></line><line x1="0" y1="140.24273647080736" x2="272" y2="140.24273647080736" fill="rgb(0, 0, 0)" stroke="rgb(60, 60, 60)" stroke-width="1px" opacity="0.25"></line><line x1="0" y1="127.15503573749251" x2="272" y2="127.15503573749251" fill="rgb(0, 0, 0)" stroke="rgb(60, 60, 60)" stroke-width="1px" opacity="0.25"></line><line x1="0" y1="114.06733500417769" x2="272" y2="114.06733500417769" fill="rgb(0, 0, 0)" stroke="rgb(60, 60, 60)" stroke-width="1px" opacity="0.25"></line><line x1="0" y1="100.97963427086285" x2="272" y2="100.97963427086285" fill="rgb(0, 0, 0)" stroke="rgb(60, 60, 60)" stroke-width="1px" opacity="0.25"></line><line x1="0" y1="87.89193353754803" x2="272" y2="87.89193353754803" fill="rgb(0, 0, 0)" stroke="rgb(60, 60, 60)" stroke-width="1px" opacity="0.25"></line><line x1="0" y1="74.8042328042332" x2="272" y2="74.8042328042332" fill="rgb(0, 0, 0)" stroke="rgb(60, 60, 60)" stroke-width="1px" opacity="0.25"></line><line x1="0" y1="61.71653207091835" x2="272" y2="61.71653207091835" fill="rgb(0, 0, 0)" stroke="rgb(60, 60, 60)" stroke-width="1px" opacity="0.25"></line><line x1="0" y1="48.628831337603515" x2="272" y2="48.628831337603515" fill="rgb(0, 0, 0)" stroke="rgb(60, 60, 60)" stroke-width="1px" opacity="0.25"></line><line x1="0" y1="35.54113060428867" x2="272" y2="35.54113060428867" fill="rgb(0, 0, 0)" stroke="rgb(60, 60, 60)" stroke-width="1px" opacity="0.25"></line><line x1="0" y1="22.453429870973878" x2="272" y2="22.453429870973878" fill="rgb(0, 0, 0)" stroke="rgb(60, 60, 60)" stroke-width="1px" opacity="0.25"></line><line x1="0" y1="9.36572913765903" x2="272" y2="9.36572913765903" fill="rgb(0, 0, 0)" stroke="rgb(60, 60, 60)" stroke-width="1px" opacity="0.25"></line></g></g></g><g><g><line x1="0" y1="1056.3817878028449" x2="272" y2="1056.3817878028449" fill="rgb(0, 0, 0)" stroke="rgb(153, 153, 153)" stroke-width="1.5px"></line></g></g><g><g><line x1="4.232997693092149" y1="0" x2="4.232997693092149" y2="178" fill="rgb(0, 0, 0)" stroke="rgb(153, 153, 153)" stroke-width="1.5px"></line></g></g><g><g><g><g><g><path stroke="rgb(0, 119, 187)" stroke-width="2px" d="M44.111297385174396,-26.626462412629905L48.02192105345491,5.238452836477364L49.731417987544674,34.93274559528547L53.73668163760754,60.83120837218503L57.69014235027375,60.30603264472879L59.35929276581419,64.54413226200656L61.041892020871074,79.27333475523547L64.89573170008217,83.82972139311062L68.80037810635537,97.48544535563781L72.74985397768339,108.9765055866208L74.40754797437648,125.93928021865867L78.3405863751844,144.5497102394563L80.01471784239759,144.9575974142287L83.89595330580885,144.20915075896167L85.6094350812368,139.65357263337643L89.60124989178324,125.37320671165806L91.37251186661517,147.3646921320397L95.37080204433619,141.30604088574557L99.23809056306372,158.9963935629703L100.92666708012791,158.3187701351883L104.78797833684814,155.75899779400908L106.42026897001018,157.99386034965502L108.05405391867407,157.40515274273397L111.83267971762655,151.57886365611594L113.04855443094623,161.91491988958816L116.7863356061821,155.26994360834948L118.50629274878465,155.10195546815814L120.2526494652528,162.78562707972108L124.26936953416302,152.17067012886096L126.07151402936603,147.55455314593337L130.1664366095385,146.9395477394022L131.97256594607973,149.6523591736695L136.07545820892864,148.0962270814595L137.90450038316453,142.45278361814073L142.02283390619894,128.53693703060242L143.84340829259116,136.9928595445956L147.95825507945466,150.14578191220681L149.77783325551232,150.2565032336784L153.88371414936483,148.58511893713677L155.69233401174245,149.28122587502142L157.51290839813467,147.82355907920893L158.7128437461015,150.91545559834213L160.21662324610645,138.9146748386123L164.07942881832852,143.5662668372373L165.8153253262839,135.82918892359766L169.795683717983,142.89449917447934L171.5554892739676,141.5594278691794L175.55477566202313,132.5564488389986L177.31109448183682,120.83089565184947L181.2794983495213,124.31504709059722L183.0079232799675,132.12504774930758L186.97284041148106,128.09044715222825L188.72766491579293,123.67993256381195L192.7981803427689,128.7167704984173L194.60381157414284,129.10526580108382L198.68478720963157,138.50311473811485L200.4685018136454,132.64638856310341L202.25968799516838,126.03908649234187L204.05187038702584,140.61498847164455L208.1333441276819,126.52395994233615L212.21282544766882,134.5190220716166L214.00550594469362,130.2810205853454L215.81014096573298,128.65632057200312L219.89958438906544,132.2374002633719L221.702725094603,137.06677283657942L223.50387337947146,143.09757203570868L224.755611664835,131.7225153118344L226.26038737517447,121.09589523190783L230.20189356382608,130.44970624871362L231.95123891129788,135.24081008282604L236.00880360392472,133.3879845817396L237.8014841009495,126.13699866390866L239.60113807031613,127.5254815095204L243.7204678036851,133.55791849855802L245.5390497694082,120.52796777680211L247.3636089971386,129.28864069796268L251.46301452381658,131.96426453520462L253.25519691567408,106.4751629429836L255.0702921452263,114.0534692639624L256.8644669577529,123.40279807889446L260.98578911179095,122.9798831623238" style="fill: none;" fill="none"></path></g><g><path stroke="rgb(255, 112, 67)" stroke-width="2px" d="M12.285365827269038,-15.481953898877265L13.995360866526074,15.355907133905504L17.836249811388,53.612279257390554L21.70054969911189,80.71546806329023L23.40655989703072,93.46897891675529L27.332126720329498,106.24202881228693L31.305013534519453,118.63613804017072L35.29085108305858,129.57000307369702L37.033721063355806,129.40300417110066L40.96277462282551,132.57088094074024L42.681237449926236,134.8003482885091L46.5355752343046,147.7930323552713L48.21717827902694,147.14198789570418L52.105885319947326,148.5905817334889L53.78948078533875,167.4394655057527L57.67320677458638,157.21518119030645L61.41845952733141,154.245410603044L63.068681946515376,157.15541804233408L67.0689645449055,151.08564198614386L68.84371325590834,148.41501320223807L70.63489943743132,146.0670692262661L74.70591296957454,143.31281077909185L76.51702335778853,121.22539032158468L78.32365079949703,137.91759731792035L80.13525929287827,147.01577644894124L84.19830314234511,148.05791547667246L88.18513690121878,152.7493913579568L89.92402204017782,139.04719520330914L93.8470983376402,142.89892334774743L95.56058011306818,137.53679810739732L99.40844253027197,142.66636871423086L103.37385776695278,139.8534498345069L105.05844944267878,147.29949650521687L108.93420574925,158.17610705334604L111.93429317175077,158.4527279185475L113.35987016049344,144.57340763156904L117.11458691141671,148.1788490583527L118.84550236769931,144.98540732380903L122.80494034237284,144.14620662317895L124.54731221750279,146.66830335973563L128.59242428094768,132.3480578660419L132.67439612677103,128.66965212541686L134.48002735814498,127.3215165010528L138.56847457114284,114.6867856200972L140.3616531733349,121.1013766571105L144.3704035595687,138.2661980219244L148.25562386431818,136.82320998036909L149.91182354550944,132.61386743495646L152.80481835704595,123.20692061623001L154.3354955360838,134.94170350695293L158.21174994782228,123.21169607976768L159.98002329165058,126.72500255483573L164.0047130432372,140.16045348210432L165.77746933357093,123.77776790447537L169.84798476054692,119.08721865800929L171.64514820407717,129.29651655575435L175.73807836358054,131.1539543654033L177.5437095949545,130.0528430182462L181.60476102375225,124.6911801884948L185.71562296927752,132.6045993664267L187.5376916711716,137.07983858415912L189.35328500589102,138.59965582565403L193.44472084989255,139.4876754853051L195.23391461074644,144.1244977468335L199.35224813378085,128.93012410644735L201.15240020831476,120.03697946173395L205.14770175503213,122.32844748645687L209.14449761725132,122.41746285253157L213.22796377857645,129.4519085784993L217.25016300432668,129.5388286031927L218.96962204176197,127.86230615705998L220.69904318254274,125.13995000440035L224.6968352550965,124.8840152672918L226.45265596974286,120.01123555365618L230.51320929337334,120.83283143530018L232.32681020742368,127.20331333502344L236.32161364897377,123.65196340413635L238.04854426391816,124.82635405213054L242.05729465015196,121.00903816056942L246.0944370309205,115.72779218010999L250.11862867733984,116.68162114609646L251.9093167536955,110.97199666372585L255.81446126513598,99.19145093470843L257.47066094632726,96.57024776037467L258.68802997514877,98.00832134426749L260.1693947426263,92.2735889242118L261.8843708335561,98.5512075147854" style="fill: none;" fill="none"></path></g></g></g></g><g opacity="0.2"><g><g><g><path stroke="rgb(0, 119, 187)" stroke-width="2px" d="M40.109022366115184,-1.5471680690393441L44.111297385174396,32.41566845678679L48.02192105345491,52.97339902395113L49.731417987544674,79.43928020704047L53.73668163760754,99.66063693505264L57.69014235027375,59.51849129031153L59.35929276581419,70.9002056348895L61.041892020871074,101.36489464932853L64.89573170008217,90.66388487813688L68.80037810635537,117.96828238707195L72.74985397768339,126.21271781486348L74.40754797437648,151.3831072663201L78.3405863751844,172.46513481236707L80.01471784239759,145.56942527729987L83.89595330580885,143.08648396784378L85.6094350812368,132.82021710147475L89.60124989178324,103.95267975280608L91.37251186661517,180.3519000053458L95.37080204433619,132.21806736482918L99.23809056306372,185.5319167124938L100.92666708012791,157.30233512833962L104.78797833684814,151.91933958782568L106.42026897001018,161.34615402304524L108.05405391867407,156.52209135765315L111.83267971762655,142.83943017642565L113.04855443094623,177.41900407988095L116.7863356061821,145.30247924817678L118.50629274878465,154.84997325880644L120.2526494652528,174.31113447138773L124.26936953416302,136.24823472385492L126.07151402936603,140.63037767709557L130.1664366095385,146.01703963004923L131.97256594607973,153.72157632389545L136.07545820892864,145.76202894354913L137.90450038316453,133.98761842404255L142.02283390619894,107.66316715059675L143.84340829259116,149.67674331511074L147.95825507945466,169.87516546318074L149.77783325551232,150.42258521588394L153.88371414936483,146.07804249234445L155.69233401174245,150.3253862818432L157.51290839813467,145.63705888549674L158.7128437461015,155.55330037703374L160.21662324610645,120.91350369903634L164.07942881832852,150.54365483517063L165.8153253262839,124.22357205314238L169.795683717983,153.49246455079944L171.5554892739676,139.55682091123L175.55477566202313,119.05198029372826L177.31109448183682,103.24256587112652L181.2794983495213,129.54127424871882L183.0079232799675,143.84004873737302L186.97284041148106,122.03854625660887L188.72766491579293,117.06416068118749L192.7981803427689,136.27202740032556L194.60381157414284,129.68800875508367L198.68478720963157,152.59988814366142L200.4685018136454,123.8612993005861L202.25968799516838,116.12813338619978L204.05187038702584,162.4788414405985L208.1333441276819,105.38741714837353L212.21282544766882,146.51161526553736L214.00550594469362,123.92401835593822L215.81014096573298,126.21927055198981L219.89958438906544,137.6090198004251L221.702725094603,144.3108316963905L223.50387337947146,152.1437708344029L224.755611664835,114.6599302260228L226.26038737517447,105.15596511201812L230.20189356382608,144.48042277392221L231.95123891129788,142.4274658339946L236.00880360392472,130.60874633010994L237.8014841009495,115.2605197871621L239.60113807031613,129.60820577793788L243.7204678036851,142.6065739821146L245.5390497694082,100.98304169416853L247.3636089971386,142.42965007970338L251.46301452381658,135.9777002910674L253.25519691567408,68.24151055465191L255.0702921452263,125.42092874543059L256.8644669577529,137.42679130129255L260.98578911179095,122.34551078746782" style="fill: none;" fill="none"></path></g><g><path stroke="rgb(255, 112, 67)" stroke-width="2px" d="M8.990898250908407,-39.227980835086186L10.612728675557669,42.456567971274865L12.285365827269038,-2.681103626997583L13.995360866526074,55.61781849830635L17.836249811388,106.53461419813512L21.70054969911189,119.47346170674756L23.40655989703072,112.06372017481138L27.332126720329498,125.07979637098428L31.305013534519453,137.0399457845125L35.29085108305858,145.8716312728647L37.033721063355806,129.1534146178597L40.96277462282551,137.31235242790754L42.681237449926236,138.1401815515353L46.5355752343046,167.26678604302037L48.21717827902694,146.16588037334753L52.105885319947326,150.76285949380178L53.78948078533875,195.70800543460032L57.67320677458638,141.88031228394513L61.41845952733141,149.79102617094514L63.068681946515376,161.52026960954515L67.0689645449055,141.9811776304256L68.84371325590834,144.4091227532856L70.63489943743132,142.54518107594282L74.70591296957454,139.18144268442103L76.51702335778853,88.0943538280827L78.32365079949703,162.95586510164105L80.13525929287827,160.66303117762416L84.19830314234511,149.62112305831215L88.18513690121878,159.78660258697604L89.92402204017782,118.49390551513487L93.8470983376402,148.67651479803996L95.56058011306818,129.49361088700223L99.40844253027197,150.36072425706027L103.37385776695278,135.63407163581107L105.05844944267878,158.46856631927773L108.93420574925,174.49102270726087L111.93429317175077,158.86765921378202L113.35987016049344,123.75442727840647L117.11458691141671,153.58701118647951L118.84550236769931,140.19524472839637L122.80494034237284,142.8874055732435L124.54731221750279,150.45144846274997L128.59242428094768,110.8676896317035L132.67439612677103,123.15204351543497L134.48002735814498,125.29931306471671L138.56847457114284,95.73468929984584L140.3616531733349,130.72326321227027L144.3704035595687,164.01343006856732L148.25562386431818,134.65872791806532L149.91182354550944,126.29985361688875L152.80481835704595,109.09650038820855L154.3354955360838,152.54387784298626L158.21174994782228,105.61668493902016L159.98002329165058,131.99496226743233L164.0047130432372,160.31362987299462L165.77746933357093,99.20373953804096L169.84798476054692,112.05139478831184L171.64514820407717,144.61046340237L175.73807836358054,133.94011107987657L177.5437095949545,128.4011759975108L181.60476102375225,116.64868594386735L185.71562296927752,144.47472813332433L187.5376916711716,143.79269741075768L189.35328500589102,140.8793816878965L193.44472084989255,140.81970497478164L195.23391461074644,151.07973113912556L199.35224813378085,106.13856364586805L201.15240020831476,106.69726249466393L205.14770175503213,125.76564952354133L209.14449761725132,122.5509859016438L213.22796377857645,140.0035771674509L217.25016300432668,129.6692086402331L218.96962204176197,125.3475224878605L220.69904318254274,121.05641577541083L224.6968352550965,124.50011316162903L226.45265596974286,112.70206598320244L230.51320929337334,122.0652252577661L232.32681020742368,136.75903618460828L236.32161364897377,118.32493850780565L238.04854426391816,126.58794002412182L242.05729465015196,115.28306432322773L246.0944370309205,107.8059232094206L250.11862867733984,118.11236459507614L251.9093167536955,102.4075599401699L255.81446126513598,81.52063234118222L257.47066094632726,92.63844299887435L258.68802997514877,100.16543172010685L260.1693947426263,83.67149029412839L261.8843708335561,107.96763540064568" style="fill: none;" fill="none"></path></g></g></g></g></g></g><g transform="translate(58, 178)" clip-path="url(#clip_1)"><clipPath id="clip_1"><rect width="272" height="22"></rect></clipPath><g><g><line x1="4.232997693092149" y1="0" x2="4.232997693092149" y2="5" style="visibility: inherit;" fill="rgb(0, 0, 0)" stroke="rgb(204, 204, 204)" stroke-width="1px"></line><line x1="29.13825605687072" y1="0" x2="29.13825605687072" y2="5" style="visibility: inherit;" fill="rgb(0, 0, 0)" stroke="rgb(204, 204, 204)" stroke-width="1px"></line><line x1="54.043514420649295" y1="0" x2="54.043514420649295" y2="5" style="visibility: inherit;" fill="rgb(0, 0, 0)" stroke="rgb(204, 204, 204)" stroke-width="1px"></line><line x1="78.94877278442787" y1="0" x2="78.94877278442787" y2="5" style="visibility: inherit;" fill="rgb(0, 0, 0)" stroke="rgb(204, 204, 204)" stroke-width="1px"></line><line x1="103.85403114820643" y1="0" x2="103.85403114820643" y2="5" style="visibility: inherit;" fill="rgb(0, 0, 0)" stroke="rgb(204, 204, 204)" stroke-width="1px"></line><line x1="128.759289511985" y1="0" x2="128.759289511985" y2="5" style="visibility: inherit;" fill="rgb(0, 0, 0)" stroke="rgb(204, 204, 204)" stroke-width="1px"></line><line x1="153.6645478757636" y1="0" x2="153.6645478757636" y2="5" style="visibility: inherit;" fill="rgb(0, 0, 0)" stroke="rgb(204, 204, 204)" stroke-width="1px"></line><line x1="178.5698062395422" y1="0" x2="178.5698062395422" y2="5" style="visibility: inherit;" fill="rgb(0, 0, 0)" stroke="rgb(204, 204, 204)" stroke-width="1px"></line><line x1="203.47506460332076" y1="0" x2="203.47506460332076" y2="5" style="visibility: inherit;" fill="rgb(0, 0, 0)" stroke="rgb(204, 204, 204)" stroke-width="1px"></line><line x1="228.38032296709932" y1="0" x2="228.38032296709932" y2="5" style="visibility: inherit;" fill="rgb(0, 0, 0)" stroke="rgb(204, 204, 204)" stroke-width="1px"></line><line x1="253.28558133087787" y1="0" x2="253.28558133087787" y2="5" style="visibility: inherit;" fill="rgb(0, 0, 0)" stroke="rgb(204, 204, 204)" stroke-width="1px"></line></g><g transform="translate(0, 8)"><text x="4.232997693092149" y="0" dx="0em" dy="0.95em" style="text-anchor: middle; visibility: inherit; font-family: &quot;Helvetica Neue&quot;, sans-serif; font-size: 12px; font-weight: 200;" fill="rgb(50, 49, 63)" stroke="none" stroke-width="1px">0</text><text x="29.13825605687072" y="0" dx="0em" dy="0.95em" style="text-anchor: middle; visibility: hidden; font-family: &quot;Helvetica Neue&quot;, sans-serif; font-size: 12px; font-weight: 200;" fill="rgb(50, 49, 63)" stroke="none" stroke-width="1px">50k</text><text x="54.043514420649295" y="0" dx="0em" dy="0.95em" style="text-anchor: middle; visibility: inherit; font-family: &quot;Helvetica Neue&quot;, sans-serif; font-size: 12px; font-weight: 200;" fill="rgb(50, 49, 63)" stroke="none" stroke-width="1px">100k</text><text x="78.94877278442787" y="0" dx="0em" dy="0.95em" style="text-anchor: middle; visibility: hidden; font-family: &quot;Helvetica Neue&quot;, sans-serif; font-size: 12px; font-weight: 200;" fill="rgb(50, 49, 63)" stroke="none" stroke-width="1px">150k</text><text x="103.85403114820643" y="0" dx="0em" dy="0.95em" style="text-anchor: middle; visibility: inherit; font-family: &quot;Helvetica Neue&quot;, sans-serif; font-size: 12px; font-weight: 200;" fill="rgb(50, 49, 63)" stroke="none" stroke-width="1px">200k</text><text x="128.759289511985" y="0" dx="0em" dy="0.95em" style="text-anchor: middle; visibility: hidden; font-family: &quot;Helvetica Neue&quot;, sans-serif; font-size: 12px; font-weight: 200;" fill="rgb(50, 49, 63)" stroke="none" stroke-width="1px">250k</text><text x="153.6645478757636" y="0" dx="0em" dy="0.95em" style="text-anchor: middle; visibility: inherit; font-family: &quot;Helvetica Neue&quot;, sans-serif; font-size: 12px; font-weight: 200;" fill="rgb(50, 49, 63)" stroke="none" stroke-width="1px">300k</text><text x="178.5698062395422" y="0" dx="0em" dy="0.95em" style="text-anchor: middle; visibility: hidden; font-family: &quot;Helvetica Neue&quot;, sans-serif; font-size: 12px; font-weight: 200;" fill="rgb(50, 49, 63)" stroke="none" stroke-width="1px">350k</text><text x="203.47506460332076" y="0" dx="0em" dy="0.95em" style="text-anchor: middle; visibility: inherit; font-family: &quot;Helvetica Neue&quot;, sans-serif; font-size: 12px; font-weight: 200;" fill="rgb(50, 49, 63)" stroke="none" stroke-width="1px">400k</text><text x="228.38032296709932" y="0" dx="0em" dy="0.95em" style="text-anchor: middle; visibility: hidden; font-family: &quot;Helvetica Neue&quot;, sans-serif; font-size: 12px; font-weight: 200;" fill="rgb(50, 49, 63)" stroke="none" stroke-width="1px">450k</text><text x="253.28558133087787" y="0" dx="0em" dy="0.95em" style="text-anchor: middle; visibility: inherit; font-family: &quot;Helvetica Neue&quot;, sans-serif; font-size: 12px; font-weight: 200;" fill="rgb(50, 49, 63)" stroke="none" stroke-width="1px">500k</text></g><line x1="0" y1="0" x2="272" y2="0" fill="rgb(0, 0, 0)" stroke="rgb(204, 204, 204)" stroke-width="1px"></line></g></g></g></g></svg>