<?xml version="1.0" encoding="UTF-8" standalone="no"?>
<!-- Created with Inkscape (http://www.inkscape.org/) -->

<svg
   xmlns:dc="http://purl.org/dc/elements/1.1/"
   xmlns:cc="http://creativecommons.org/ns#"
   xmlns:rdf="http://www.w3.org/1999/02/22-rdf-syntax-ns#"
   xmlns:svg="http://www.w3.org/2000/svg"
   xmlns="http://www.w3.org/2000/svg"
   xmlns:sodipodi="http://sodipodi.sourceforge.net/DTD/sodipodi-0.dtd"
   xmlns:inkscape="http://www.inkscape.org/namespaces/inkscape"
   width="210mm"
   height="297mm"
   viewBox="0 0 210 297"
   version="1.1"
   id="svg8"
   inkscape:version="0.92.3 (2405546, 2018-03-11)"
   sodipodi:docname="drawing_ink.svg">
  <defs
     id="defs2" />
  <sodipodi:namedview
     id="base"
     pagecolor="#ffffff"
     bordercolor="#666666"
     borderopacity="1.0"
     inkscape:pageopacity="0.0"
     inkscape:pageshadow="2"
     inkscape:zoom="1.979899"
     inkscape:cx="279.39665"
     inkscape:cy="724.77432"
     inkscape:document-units="mm"
     inkscape:current-layer="layer1"
     showgrid="false"
     inkscape:window-width="1853"
     inkscape:window-height="1025"
     inkscape:window-x="67"
     inkscape:window-y="27"
     inkscape:window-maximized="1" />
  <metadata
     id="metadata5">
    <rdf:RDF>
      <cc:Work
         rdf:about="">
        <dc:format>image/svg+xml</dc:format>
        <dc:type
           rdf:resource="http://purl.org/dc/dcmitype/StillImage" />
        <dc:title></dc:title>
      </cc:Work>
    </rdf:RDF>
  </metadata>
  <g
     inkscape:label="Layer 1"
     inkscape:groupmode="layer"
     id="layer1">
    <rect
       style="fill:#ffffff;stroke:#000000;stroke-width:0.18668211;stroke-opacity:1"
       id="rect10"
       width="66.96666"
       height="24.266045"
       x="32.823006"
       y="72.00872" />
    <g
       aria-label="Text 1"
       transform="matrix(2.1802633,0,0,0.87184766,-57.969126,5.7959607)"
       style="font-style:normal;font-weight:normal;font-size:12.36920547px;line-height:1.25;font-family:sans-serif;letter-spacing:0px;word-spacing:0px;fill:#000000;fill-opacity:1;stroke:none;stroke-width:0.30923012"
       id="text838">
      <path
         d="m 36.446973,77.966421 h 7.628079 l -0.193269,1.02674 h -3.219134 l -1.54615,7.990459 h -1.22605 L 39.4366,78.993161 h -3.188936 z"
         style="font-style:italic;font-variant:normal;font-weight:normal;font-stretch:normal;font-size:12.36920547px;font-family:sans-serif;-inkscape-font-specification:'sans-serif, Italic';font-variant-ligatures:normal;font-variant-caps:normal;font-variant-numeric:normal;font-feature-settings:normal;text-align:start;writing-mode:lr-tb;text-anchor:start;stroke-width:0.30923012"
         id="path1044"
         inkscape:connector-curvature="0" />
      <path
         d="m 47.704882,82.99745 q 0.01812,-0.09663 0.02416,-0.199309 0.01208,-0.102674 0.01208,-0.205348 0,-0.736837 -0.434855,-1.165652 -0.428815,-0.428816 -1.171692,-0.428816 -0.827432,0 -1.461596,0.52545 -0.634163,0.51941 -0.960304,1.479715 z m 0.966345,0.86971 h -5.169942 q -0.03624,0.229506 -0.04832,0.362379 -0.01208,0.132872 -0.01208,0.229507 0,0.839511 0.51337,1.298525 0.51941,0.459013 1.461596,0.459013 0.724758,0 1.371,-0.163071 0.646243,-0.16307 1.201891,-0.477132 l -0.211388,1.099216 q -0.597925,0.241587 -1.238128,0.36238 -0.634164,0.120793 -1.292486,0.120793 -1.407238,0 -2.168234,-0.670402 -0.754957,-0.676441 -0.754957,-1.914569 0,-1.056939 0.374459,-1.962887 0.380498,-0.911987 1.111295,-1.624666 0.471093,-0.446934 1.117336,-0.68852 0.652282,-0.241586 1.38308,-0.241586 1.147534,0 1.823975,0.68852 0.68248,0.68852 0.68248,1.848133 0,0.277824 -0.03624,0.597926 -0.03624,0.314062 -0.108713,0.676441 z"
         style="font-style:italic;font-variant:normal;font-weight:normal;font-stretch:normal;font-size:12.36920547px;font-family:sans-serif;-inkscape-font-specification:'sans-serif, Italic';font-variant-ligatures:normal;font-variant-caps:normal;font-variant-numeric:normal;font-feature-settings:normal;text-align:start;writing-mode:lr-tb;text-anchor:start;stroke-width:0.30923012"
         id="path1046"
         inkscape:connector-curvature="0" />
      <path
         d="m 56.788518,80.21921 -3.104381,3.315769 1.90249,3.448641 h -1.274366 l -1.431398,-2.681605 -2.488336,2.681605 h -1.346842 l 3.327848,-3.563394 -1.769618,-3.201016 h 1.274366 l 1.298525,2.446059 2.26487,-2.446059 z"
         style="font-style:italic;font-variant:normal;font-weight:normal;font-stretch:normal;font-size:12.36920547px;font-family:sans-serif;-inkscape-font-specification:'sans-serif, Italic';font-variant-ligatures:normal;font-variant-caps:normal;font-variant-numeric:normal;font-feature-settings:normal;text-align:start;writing-mode:lr-tb;text-anchor:start;stroke-width:0.30923012"
         id="path1048"
         inkscape:connector-curvature="0" />
      <path
         d="m 61.916182,80.21921 -0.16911,0.863671 H 59.53052 l -0.718718,3.672107 q -0.03624,0.205349 -0.05436,0.344261 -0.01812,0.138912 -0.01812,0.217427 0,0.386538 0.229507,0.561688 0.235546,0.175149 0.748916,0.175149 h 1.123375 l -0.187229,0.930107 h -1.062978 q -0.990503,0 -1.479715,-0.386538 -0.483172,-0.386538 -0.483172,-1.171692 0,-0.138912 0.01812,-0.301983 0.01812,-0.16911 0.05436,-0.368419 l 0.718718,-3.672107 h -0.942185 l 0.17515,-0.863671 h 0.924066 l 0.374459,-1.920609 h 1.111295 l -0.368418,1.920609 z"
         style="font-style:italic;font-variant:normal;font-weight:normal;font-stretch:normal;font-size:12.36920547px;font-family:sans-serif;-inkscape-font-specification:'sans-serif, Italic';font-variant-ligatures:normal;font-variant-caps:normal;font-variant-numeric:normal;font-feature-settings:normal;text-align:start;writing-mode:lr-tb;text-anchor:start;stroke-width:0.30923012"
         id="path1050"
         inkscape:connector-curvature="0" />
      <path
         d="m 66.28285,85.956879 h 1.993085 l 1.346842,-6.939559 -2.25279,0.434855 0.211388,-1.0509 2.24071,-0.434854 h 1.226049 l -1.55823,7.990458 h 1.987046 l -0.193269,1.026741 h -5.20014 z"
         style="font-style:italic;font-variant:normal;font-weight:normal;font-stretch:normal;font-size:12.36920547px;font-family:sans-serif;-inkscape-font-specification:'sans-serif, Italic';font-variant-ligatures:normal;font-variant-caps:normal;font-variant-numeric:normal;font-feature-settings:normal;text-align:start;writing-mode:lr-tb;text-anchor:start;stroke-width:0.30923012"
         id="path1052"
         inkscape:connector-curvature="0" />
    </g>
    <g
       aria-label="Text 2"
       transform="matrix(1.0271043,0,0,0.97361092,44.366742,-5.078121)"
       style="font-style:normal;font-weight:normal;font-size:12.36920547px;line-height:1.25;font-family:sans-serif;letter-spacing:0px;word-spacing:0px;fill:#000000;fill-opacity:1;stroke:none;stroke-width:0.30923012"
       id="text846">
      <path
         id="path1063"
         style="font-style:normal;font-variant:normal;font-weight:normal;font-stretch:normal;font-size:4.12306833px;font-family:sans-serif;-inkscape-font-specification:'sans-serif, Normal';font-variant-ligatures:normal;font-variant-caps:normal;font-variant-numeric:normal;font-feature-settings:normal;text-align:start;writing-mode:lr-tb;text-anchor:start;stroke-width:0.30923012"
         d="m 49.442639,94.919167 h 1.419318 v 0.342247 h -1.90853 v -0.342247 q 0.23152,-0.239573 0.630137,-0.642217 0.40063,-0.404656 0.503304,-0.521423 0.195282,-0.21944 0.271784,-0.370432 0.07852,-0.153004 0.07852,-0.299969 0,-0.239573 -0.16911,-0.390564 -0.167097,-0.150991 -0.436868,-0.150991 -0.191256,0 -0.404657,0.06644 -0.211388,0.06644 -0.452974,0.201322 v -0.410697 q 0.245613,-0.09865 0.459014,-0.148978 0.213401,-0.05033 0.390564,-0.05033 0.467066,0 0.74489,0.233533 0.277824,0.233533 0.277824,0.624097 0,0.185216 -0.07046,0.352313 -0.06845,0.165084 -0.251652,0.390564 -0.05033,0.05838 -0.320101,0.338221 -0.269771,0.277824 -0.760996,0.779115 z m -2.967483,-2.552759 v 0.640203 h 0.76301 v 0.28789 h -0.76301 v 1.224036 q 0,0.27581 0.07449,0.354326 0.0765,0.07852 0.308023,0.07852 h 0.380498 v 0.310036 h -0.380498 q -0.428816,0 -0.591886,-0.159045 -0.163071,-0.161057 -0.163071,-0.583832 v -1.224036 h -0.271784 v -0.28789 h 0.271784 v -0.640203 z m -0.932119,0.640203 -0.815353,1.097203 0.857631,1.1576 h -0.436868 l -0.656309,-0.885816 -0.656309,0.885816 h -0.436868 l 0.87575,-1.179746 -0.801261,-1.075057 h 0.436868 l 0.597926,0.803273 0.597925,-0.803273 z m -2.409821,1.034793 v 0.18119 h -1.703181 q 0.02416,0.382511 0.229507,0.583833 0.207361,0.199308 0.57578,0.199308 0.213401,0 0.412709,-0.05234 0.201322,-0.05234 0.398617,-0.157031 v 0.3503 q -0.199308,0.08456 -0.408683,0.128846 -0.209375,0.04429 -0.424789,0.04429 -0.539542,0 -0.855617,-0.314062 -0.314062,-0.314062 -0.314062,-0.849578 0,-0.553634 0.297956,-0.877762 0.29997,-0.326141 0.8073,-0.326141 0.454987,0 0.718719,0.293929 0.265744,0.291917 0.265744,0.795221 z M 42.762784,93.93269 q -0.004,-0.303995 -0.171123,-0.485185 -0.165084,-0.181189 -0.438881,-0.181189 -0.310036,0 -0.497265,0.175149 -0.185216,0.17515 -0.213401,0.493239 z m -3.778808,-1.677009 h 2.542693 v 0.342247 h -1.067005 v 2.663486 h -0.408683 v -2.663486 h -1.067005 z"
         inkscape:connector-curvature="0" />
    </g>
    <g
       aria-label="hi"
       style="font-style:normal;font-weight:normal;font-size:10.58333302px;line-height:1.25;font-family:sans-serif;letter-spacing:0px;word-spacing:0px;fill:#000000;fill-opacity:1;stroke:none;stroke-width:0.26458332"
       id="text1069"
       transform="matrix(1.69376,0,0,1.5318228,-33.548977,-53.480317)">
      <path
         id="path1073"
         style="stroke-width:0.26458332"
         d="m 55.690168,105.32628 h 0.950846 v 5.78776 h -0.950846 z m 0,-2.2531 h 0.950846 v 1.20406 h -0.950846 z m -1.906861,4.54753 v 3.49333 h -0.950846 v -3.46232 q 0,-0.82166 -0.320394,-1.2299 -0.320394,-0.40825 -0.961182,-0.40825 -0.769978,0 -1.214396,0.49093 -0.444417,0.49093 -0.444417,1.33842 v 3.27112 h -0.956014 v -8.04086 h 0.956014 v 3.15227 q 0.341064,-0.52194 0.800985,-0.78032 0.465088,-0.25838 1.069702,-0.25838 0.997355,0 1.508952,0.62012 0.511596,0.61495 0.511596,1.81384 z"
         inkscape:connector-curvature="0" />
    </g>
    <g
       aria-label="hi"
       style="font-style:normal;font-weight:normal;font-size:10.58333302px;line-height:1.25;font-family:sans-serif;letter-spacing:0px;word-spacing:0px;fill:#000000;fill-opacity:1;stroke:none;stroke-width:0.26458332"
       id="text1079"
       transform="matrix(2.0579841,0,0,1.5484428,-88.978635,-53.141246)">
      <path
         d="m 82.381147,103.87893 v 3.49333 H 81.4303 v -3.46232 q 0,-0.82166 -0.320394,-1.2299 -0.320393,-0.40824 -0.961181,-0.40824 -0.769979,0 -1.214396,0.49092 -0.444418,0.49093 -0.444418,1.33842 v 3.27112 h -0.956014 v -8.040852 h 0.956014 v 3.152262 q 0.341065,-0.52193 0.800985,-0.78031 0.465088,-0.25839 1.069702,-0.25839 0.997355,0 1.508952,0.62012 0.511597,0.61495 0.511597,1.81384 z"
         style="stroke-width:0.26458332"
         id="path1081"
         inkscape:connector-curvature="0" />
      <path
         d="m 84.288007,101.5845 h 0.950846 v 5.78776 h -0.950846 z m 0,-2.253092 h 0.950846 v 1.204062 h -0.950846 z"
         style="stroke-width:0.26458332"
         id="path1083"
         inkscape:connector-curvature="0" />
    </g>
  </g>
</svg>
