<svg viewBox="0 0 330 200" xmlns="http://www.w3.org/2000/svg"><g><g><g><g><g><line x1="34" y1="161.12499701485018" x2="29" y2="161.12499701485018" style="visibility: inherit;" fill="rgb(0, 0, 0)" stroke="rgb(204, 204, 204)" stroke-width="1px"></line><line x1="34" y1="140.7635378188507" x2="29" y2="140.7635378188507" style="visibility: inherit;" fill="rgb(0, 0, 0)" stroke="rgb(204, 204, 204)" stroke-width="1px"></line><line x1="34" y1="120.40207862285119" x2="29" y2="120.40207862285119" style="visibility: inherit;" fill="rgb(0, 0, 0)" stroke="rgb(204, 204, 204)" stroke-width="1px"></line><line x1="34" y1="100.0406194268517" x2="29" y2="100.0406194268517" style="visibility: inherit;" fill="rgb(0, 0, 0)" stroke="rgb(204, 204, 204)" stroke-width="1px"></line><line x1="34" y1="79.6791602308522" x2="29" y2="79.6791602308522" style="visibility: inherit;" fill="rgb(0, 0, 0)" stroke="rgb(204, 204, 204)" stroke-width="1px"></line><line x1="34" y1="59.31770103485272" x2="29" y2="59.31770103485272" style="visibility: inherit;" fill="rgb(0, 0, 0)" stroke="rgb(204, 204, 204)" stroke-width="1px"></line><line x1="34" y1="38.95624183885323" x2="29" y2="38.95624183885323" style="visibility: inherit;" fill="rgb(0, 0, 0)" stroke="rgb(204, 204, 204)" stroke-width="1px"></line><line x1="34" y1="18.594782642853744" x2="29" y2="18.594782642853744" style="visibility: inherit;" fill="rgb(0, 0, 0)" stroke="rgb(204, 204, 204)" stroke-width="1px"></line></g><g transform="translate(24, 0)"><text x="0" y="161.12499701485018" dx="0em" dy="0.3em" style="text-anchor: end; visibility: inherit; font-family: &quot;Helvetica Neue&quot;, sans-serif; font-size: 12px; font-weight: 200;" fill="rgb(50, 49, 63)" stroke="none" stroke-width="1px">4</text><text x="0" y="140.7635378188507" dx="0em" dy="0.3em" style="text-anchor: end; visibility: hidden; font-family: &quot;Helvetica Neue&quot;, sans-serif; font-size: 12px; font-weight: 200;" fill="rgb(50, 49, 63)" stroke="none" stroke-width="1px">5</text><text x="0" y="120.40207862285119" dx="0em" dy="0.3em" style="text-anchor: end; visibility: inherit; font-family: &quot;Helvetica Neue&quot;, sans-serif; font-size: 12px; font-weight: 200;" fill="rgb(50, 49, 63)" stroke="none" stroke-width="1px">6</text><text x="0" y="100.0406194268517" dx="0em" dy="0.3em" style="text-anchor: end; visibility: hidden; font-family: &quot;Helvetica Neue&quot;, sans-serif; font-size: 12px; font-weight: 200;" fill="rgb(50, 49, 63)" stroke="none" stroke-width="1px">7</text><text x="0" y="79.6791602308522" dx="0em" dy="0.3em" style="text-anchor: end; visibility: inherit; font-family: &quot;Helvetica Neue&quot;, sans-serif; font-size: 12px; font-weight: 200;" fill="rgb(50, 49, 63)" stroke="none" stroke-width="1px">8</text><text x="0" y="59.31770103485272" dx="0em" dy="0.3em" style="text-anchor: end; visibility: hidden; font-family: &quot;Helvetica Neue&quot;, sans-serif; font-size: 12px; font-weight: 200;" fill="rgb(50, 49, 63)" stroke="none" stroke-width="1px">9</text><text x="0" y="38.95624183885323" dx="0em" dy="0.3em" style="text-anchor: end; visibility: inherit; font-family: &quot;Helvetica Neue&quot;, sans-serif; font-size: 12px; font-weight: 200;" fill="rgb(50, 49, 63)" stroke="none" stroke-width="1px">10</text><text x="0" y="18.594782642853744" dx="0em" dy="0.3em" style="text-anchor: end; visibility: hidden; font-family: &quot;Helvetica Neue&quot;, sans-serif; font-size: 12px; font-weight: 200;" fill="rgb(50, 49, 63)" stroke="none" stroke-width="1px">11</text></g><line x1="34" y1="0" x2="34" y2="178" fill="rgb(0, 0, 0)" stroke="rgb(204, 204, 204)" stroke-width="1px"></line></g></g><g transform="translate(34, 0)" clip-path="url(#clip_0)"><clipPath id="clip_0"><rect width="296" height="178"></rect></clipPath><g><g><g><line x1="23.790968553461763" y1="0" x2="23.790968553461763" y2="178" fill="rgb(0, 0, 0)" stroke="rgb(60, 60, 60)" stroke-width="1px" opacity="0.25"></line><line x1="59.84855893871725" y1="0" x2="59.84855893871725" y2="178" fill="rgb(0, 0, 0)" stroke="rgb(60, 60, 60)" stroke-width="1px" opacity="0.25"></line><line x1="95.90614932397274" y1="0" x2="95.90614932397274" y2="178" fill="rgb(0, 0, 0)" stroke="rgb(60, 60, 60)" stroke-width="1px" opacity="0.25"></line><line x1="131.96373970922824" y1="0" x2="131.96373970922824" y2="178" fill="rgb(0, 0, 0)" stroke="rgb(60, 60, 60)" stroke-width="1px" opacity="0.25"></line><line x1="168.02133009448372" y1="0" x2="168.02133009448372" y2="178" fill="rgb(0, 0, 0)" stroke="rgb(60, 60, 60)" stroke-width="1px" opacity="0.25"></line><line x1="204.07892047973922" y1="0" x2="204.07892047973922" y2="178" fill="rgb(0, 0, 0)" stroke="rgb(60, 60, 60)" stroke-width="1px" opacity="0.25"></line><line x1="240.13651086499468" y1="0" x2="240.13651086499468" y2="178" fill="rgb(0, 0, 0)" stroke="rgb(60, 60, 60)" stroke-width="1px" opacity="0.25"></line><line x1="276.1941012502502" y1="0" x2="276.1941012502502" y2="178" fill="rgb(0, 0, 0)" stroke="rgb(60, 60, 60)" stroke-width="1px" opacity="0.25"></line></g><g><line x1="0" y1="161.12499701485018" x2="296" y2="161.12499701485018" fill="rgb(0, 0, 0)" stroke="rgb(60, 60, 60)" stroke-width="1px" opacity="0.25"></line><line x1="0" y1="140.7635378188507" x2="296" y2="140.7635378188507" fill="rgb(0, 0, 0)" stroke="rgb(60, 60, 60)" stroke-width="1px" opacity="0.25"></line><line x1="0" y1="120.40207862285119" x2="296" y2="120.40207862285119" fill="rgb(0, 0, 0)" stroke="rgb(60, 60, 60)" stroke-width="1px" opacity="0.25"></line><line x1="0" y1="100.0406194268517" x2="296" y2="100.0406194268517" fill="rgb(0, 0, 0)" stroke="rgb(60, 60, 60)" stroke-width="1px" opacity="0.25"></line><line x1="0" y1="79.6791602308522" x2="296" y2="79.6791602308522" fill="rgb(0, 0, 0)" stroke="rgb(60, 60, 60)" stroke-width="1px" opacity="0.25"></line><line x1="0" y1="59.31770103485272" x2="296" y2="59.31770103485272" fill="rgb(0, 0, 0)" stroke="rgb(60, 60, 60)" stroke-width="1px" opacity="0.25"></line><line x1="0" y1="38.95624183885323" x2="296" y2="38.95624183885323" fill="rgb(0, 0, 0)" stroke="rgb(60, 60, 60)" stroke-width="1px" opacity="0.25"></line><line x1="0" y1="18.594782642853744" x2="296" y2="18.594782642853744" fill="rgb(0, 0, 0)" stroke="rgb(60, 60, 60)" stroke-width="1px" opacity="0.25"></line></g></g></g><g><g><line x1="0" y1="242.57083379884813" x2="296" y2="242.57083379884813" fill="rgb(0, 0, 0)" stroke="rgb(153, 153, 153)" stroke-width="1.5px"></line></g></g><g><g><line x1="-12.266621831793728" y1="0" x2="-12.266621831793728" y2="178" fill="rgb(0, 0, 0)" stroke="rgb(153, 153, 153)" stroke-width="1.5px"></line></g></g><g><g><g><g><g><path stroke="rgb(0, 119, 187)" stroke-width="2px" d="M-0.09357931773147345,9.239059573485235L5.639577553524149,51.75856604118712L11.408792015165028,76.87560185885836L17.185217994882958,96.552269989587L22.86068272152217,108.37705024105856L35.394301139436976,106.23549125216724L47.95676562965999,118.82508406570328L53.56732669360575,130.0126320425145L59.22836838409086,137.48530520578927L64.93989070111532,142.8346214617876L70.66583605429389,147.55243910219664L76.41341596170362,147.2193091580491L89.0840532230824,149.9117073428007L94.92538286549379,152.45869593075292L107.69698137995128,153.81838341308662L113.55994557659383,154.0366735761511L119.372429146697,155.7224108418643L132.18008525153977,155.23842775172378L137.9709342674118,157.04314362603284L143.81226390982317,157.44178551690447L149.84109302223789,159.41393799843283L156.064633122733,158.8299018696848L168.3170023356428,157.59969467371607L173.8338136645869,155.75851229389605L186.14387502211312,158.0581682464687L191.67510938721134,159.79431472374367L197.17749768000132,158.85455540779367L202.78805874394706,160.37590890131455L208.41304284404694,161.79198225694913L213.99475783568448,159.6842414814431L219.47551157424328,161.52803776361895L225.1077071924202,164.13033446903933L230.75432584675121,161.85693224348583L236.47305968185273,164.01139518433945L248.94898595515113,159.26789411245812L254.42252817563292,160.6981104590292L259.8672243238065,160.9154551710556L265.30470895390306,159.5104823429648L277.5354436125817,158.97084201225832L283.03783190537166,158.43854905886954" style="fill: none;" fill="none"></path></g></g></g></g><g opacity="0.2"><g><g><g><path stroke="rgb(0, 119, 187)" stroke-width="2px" d="M-0.09357931773147345,4.854017223226805L5.639577553524149,92.57729225018085L11.408792015165028,106.41323598043972L17.185217994882958,122.24212790106633L22.86068272152217,124.73497824973427L35.394301139436976,103.17302763310882L47.95676562965999,137.18083124792983L53.56732669360575,146.51209223899198L59.22836838409086,148.58135395803123L64.93989070111532,150.8100779410528L70.66583605429389,154.60349140754994L76.41341596170362,146.72070196889484L89.0840532230824,153.94502993159898L94.92538286549379,156.27618492320642L107.69698137995128,155.85695567963032L113.55994557659383,154.36401644766656L119.372429146697,158.25058873192492L132.18008525153977,154.5125268464655L137.9709342674118,159.75005247931708L143.81226390982317,158.03972649074322L149.84109302223789,162.37210182620794L156.064633122733,157.95385920733722L168.3170023356428,155.75439845274008L173.8338136645869,152.99675181050233L186.14387502211312,161.50764236834556L191.67510938721134,162.3985299973331L197.17749768000132,157.44491787662056L202.78805874394706,162.65793774021427L208.41304284404694,163.9160915077588L213.99475783568448,156.52263101713382L219.47551157424328,164.293731820029L225.1077071924202,168.0337792165079L230.75432584675121,158.44682906799477L236.47305968185273,167.243089503028L248.94898595515113,152.15264262695237L254.42252817563292,162.84343495675802L259.8672243238065,161.24147223707766L265.30470895390306,157.40302310865394L277.5354436125817,158.16138151800203L283.03783190537166,157.6401096298537" style="fill: none;" fill="none"></path></g></g></g></g></g></g><g transform="translate(34, 178)" clip-path="url(#clip_1)"><clipPath id="clip_1"><rect width="296" height="22"></rect></clipPath><g><g><line x1="23.790968553461763" y1="0" x2="23.790968553461763" y2="5" style="visibility: inherit;" fill="rgb(0, 0, 0)" stroke="rgb(204, 204, 204)" stroke-width="1px"></line><line x1="59.84855893871725" y1="0" x2="59.84855893871725" y2="5" style="visibility: inherit;" fill="rgb(0, 0, 0)" stroke="rgb(204, 204, 204)" stroke-width="1px"></line><line x1="95.90614932397274" y1="0" x2="95.90614932397274" y2="5" style="visibility: inherit;" fill="rgb(0, 0, 0)" stroke="rgb(204, 204, 204)" stroke-width="1px"></line><line x1="131.96373970922824" y1="0" x2="131.96373970922824" y2="5" style="visibility: inherit;" fill="rgb(0, 0, 0)" stroke="rgb(204, 204, 204)" stroke-width="1px"></line><line x1="168.02133009448372" y1="0" x2="168.02133009448372" y2="5" style="visibility: inherit;" fill="rgb(0, 0, 0)" stroke="rgb(204, 204, 204)" stroke-width="1px"></line><line x1="204.07892047973922" y1="0" x2="204.07892047973922" y2="5" style="visibility: inherit;" fill="rgb(0, 0, 0)" stroke="rgb(204, 204, 204)" stroke-width="1px"></line><line x1="240.13651086499468" y1="0" x2="240.13651086499468" y2="5" style="visibility: inherit;" fill="rgb(0, 0, 0)" stroke="rgb(204, 204, 204)" stroke-width="1px"></line><line x1="276.1941012502502" y1="0" x2="276.1941012502502" y2="5" style="visibility: inherit;" fill="rgb(0, 0, 0)" stroke="rgb(204, 204, 204)" stroke-width="1px"></line></g><g transform="translate(0, 8)"><text x="23.790968553461763" y="0" dx="0em" dy="0.95em" style="text-anchor: middle; visibility: inherit; font-family: &quot;Helvetica Neue&quot;, sans-serif; font-size: 12px; font-weight: 200;" fill="rgb(50, 49, 63)" stroke="none" stroke-width="1px">5k</text><text x="59.84855893871725" y="0" dx="0em" dy="0.95em" style="text-anchor: middle; visibility: inherit; font-family: &quot;Helvetica Neue&quot;, sans-serif; font-size: 12px; font-weight: 200;" fill="rgb(50, 49, 63)" stroke="none" stroke-width="1px">10k</text><text x="95.90614932397274" y="0" dx="0em" dy="0.95em" style="text-anchor: middle; visibility: inherit; font-family: &quot;Helvetica Neue&quot;, sans-serif; font-size: 12px; font-weight: 200;" fill="rgb(50, 49, 63)" stroke="none" stroke-width="1px">15k</text><text x="131.96373970922824" y="0" dx="0em" dy="0.95em" style="text-anchor: middle; visibility: inherit; font-family: &quot;Helvetica Neue&quot;, sans-serif; font-size: 12px; font-weight: 200;" fill="rgb(50, 49, 63)" stroke="none" stroke-width="1px">20k</text><text x="168.02133009448372" y="0" dx="0em" dy="0.95em" style="text-anchor: middle; visibility: inherit; font-family: &quot;Helvetica Neue&quot;, sans-serif; font-size: 12px; font-weight: 200;" fill="rgb(50, 49, 63)" stroke="none" stroke-width="1px">25k</text><text x="204.07892047973922" y="0" dx="0em" dy="0.95em" style="text-anchor: middle; visibility: inherit; font-family: &quot;Helvetica Neue&quot;, sans-serif; font-size: 12px; font-weight: 200;" fill="rgb(50, 49, 63)" stroke="none" stroke-width="1px">30k</text><text x="240.13651086499468" y="0" dx="0em" dy="0.95em" style="text-anchor: middle; visibility: inherit; font-family: &quot;Helvetica Neue&quot;, sans-serif; font-size: 12px; font-weight: 200;" fill="rgb(50, 49, 63)" stroke="none" stroke-width="1px">35k</text><text x="276.1941012502502" y="0" dx="0em" dy="0.95em" style="text-anchor: middle; visibility: inherit; font-family: &quot;Helvetica Neue&quot;, sans-serif; font-size: 12px; font-weight: 200;" fill="rgb(50, 49, 63)" stroke="none" stroke-width="1px">40k</text></g><line x1="0" y1="0" x2="296" y2="0" fill="rgb(0, 0, 0)" stroke="rgb(204, 204, 204)" stroke-width="1px"></line></g></g></g></g></svg>