<svg viewBox="0 0 330 200" xmlns="http://www.w3.org/2000/svg"><g><g><g><g><g><line x1="61.77000045776367" y1="174.24857057843886" x2="56.77000045776367" y2="174.24857057843886" style="visibility: inherit;" fill="rgb(0, 0, 0)" stroke="rgb(204, 204, 204)" stroke-width="1px"></line><line x1="61.77000045776367" y1="161.53714207240512" x2="56.77000045776367" y2="161.53714207240512" style="visibility: inherit;" fill="rgb(0, 0, 0)" stroke="rgb(204, 204, 204)" stroke-width="1px"></line><line x1="61.77000045776367" y1="148.82571356637135" x2="56.77000045776367" y2="148.82571356637135" style="visibility: inherit;" fill="rgb(0, 0, 0)" stroke="rgb(204, 204, 204)" stroke-width="1px"></line><line x1="61.77000045776367" y1="136.11428506033758" x2="56.77000045776367" y2="136.11428506033758" style="visibility: inherit;" fill="rgb(0, 0, 0)" stroke="rgb(204, 204, 204)" stroke-width="1px"></line><line x1="61.77000045776367" y1="123.40285655430387" x2="56.77000045776367" y2="123.40285655430387" style="visibility: inherit;" fill="rgb(0, 0, 0)" stroke="rgb(204, 204, 204)" stroke-width="1px"></line><line x1="61.77000045776367" y1="110.6914280482701" x2="56.77000045776367" y2="110.6914280482701" style="visibility: inherit;" fill="rgb(0, 0, 0)" stroke="rgb(204, 204, 204)" stroke-width="1px"></line><line x1="61.77000045776367" y1="97.97999954223633" x2="56.77000045776367" y2="97.97999954223633" style="visibility: inherit;" fill="rgb(0, 0, 0)" stroke="rgb(204, 204, 204)" stroke-width="1px"></line><line x1="61.77000045776367" y1="85.26857103620257" x2="56.77000045776367" y2="85.26857103620257" style="visibility: inherit;" fill="rgb(0, 0, 0)" stroke="rgb(204, 204, 204)" stroke-width="1px"></line><line x1="61.77000045776367" y1="72.5571425301688" x2="56.77000045776367" y2="72.5571425301688" style="visibility: inherit;" fill="rgb(0, 0, 0)" stroke="rgb(204, 204, 204)" stroke-width="1px"></line><line x1="61.77000045776367" y1="59.84571402413512" x2="56.77000045776367" y2="59.84571402413512" style="visibility: inherit;" fill="rgb(0, 0, 0)" stroke="rgb(204, 204, 204)" stroke-width="1px"></line><line x1="61.77000045776367" y1="47.134285518101365" x2="56.77000045776367" y2="47.134285518101365" style="visibility: inherit;" fill="rgb(0, 0, 0)" stroke="rgb(204, 204, 204)" stroke-width="1px"></line><line x1="61.77000045776367" y1="34.422857012067595" x2="56.77000045776367" y2="34.422857012067595" style="visibility: inherit;" fill="rgb(0, 0, 0)" stroke="rgb(204, 204, 204)" stroke-width="1px"></line><line x1="61.77000045776367" y1="21.711428506033826" x2="56.77000045776367" y2="21.711428506033826" style="visibility: inherit;" fill="rgb(0, 0, 0)" stroke="rgb(204, 204, 204)" stroke-width="1px"></line><line x1="61.77000045776367" y1="9.000000000000057" x2="56.77000045776367" y2="9.000000000000057" style="visibility: inherit;" fill="rgb(0, 0, 0)" stroke="rgb(204, 204, 204)" stroke-width="1px"></line></g><g transform="translate(51.77000045776367, 0)"><text style="text-anchor: end; visibility: hidden; font-family: &quot;Helvetica Neue&quot;, sans-serif; font-size: 12px; font-weight: 200;" x="0" y="174.24857057843886" dx="0em" dy="0.3em" fill="rgb(50, 49, 63)" stroke="none" stroke-width="1px">0.1</text><text style="text-anchor: end; visibility: inherit; font-family: &quot;Helvetica Neue&quot;, sans-serif; font-size: 12px; font-weight: 200;" x="0" y="161.53714207240512" dx="0em" dy="0.3em" fill="rgb(50, 49, 63)" stroke="none" stroke-width="1px">0.105</text><text style="text-anchor: end; visibility: hidden; font-family: &quot;Helvetica Neue&quot;, sans-serif; font-size: 12px; font-weight: 200;" x="0" y="148.82571356637135" dx="0em" dy="0.3em" fill="rgb(50, 49, 63)" stroke="none" stroke-width="1px">0.11</text><text style="text-anchor: end; visibility: inherit; font-family: &quot;Helvetica Neue&quot;, sans-serif; font-size: 12px; font-weight: 200;" x="0" y="136.11428506033758" dx="0em" dy="0.3em" fill="rgb(50, 49, 63)" stroke="none" stroke-width="1px">0.115</text><text style="text-anchor: end; visibility: hidden; font-family: &quot;Helvetica Neue&quot;, sans-serif; font-size: 12px; font-weight: 200;" x="0" y="123.40285655430387" dx="0em" dy="0.3em" fill="rgb(50, 49, 63)" stroke="none" stroke-width="1px">0.12</text><text style="text-anchor: end; visibility: inherit; font-family: &quot;Helvetica Neue&quot;, sans-serif; font-size: 12px; font-weight: 200;" x="0" y="110.6914280482701" dx="0em" dy="0.3em" fill="rgb(50, 49, 63)" stroke="none" stroke-width="1px">0.125</text><text style="text-anchor: end; visibility: hidden; font-family: &quot;Helvetica Neue&quot;, sans-serif; font-size: 12px; font-weight: 200;" x="0" y="97.97999954223633" dx="0em" dy="0.3em" fill="rgb(50, 49, 63)" stroke="none" stroke-width="1px">0.13</text><text style="text-anchor: end; visibility: inherit; font-family: &quot;Helvetica Neue&quot;, sans-serif; font-size: 12px; font-weight: 200;" x="0" y="85.26857103620257" dx="0em" dy="0.3em" fill="rgb(50, 49, 63)" stroke="none" stroke-width="1px">0.135</text><text style="text-anchor: end; visibility: hidden; font-family: &quot;Helvetica Neue&quot;, sans-serif; font-size: 12px; font-weight: 200;" x="0" y="72.5571425301688" dx="0em" dy="0.3em" fill="rgb(50, 49, 63)" stroke="none" stroke-width="1px">0.14</text><text style="text-anchor: end; visibility: inherit; font-family: &quot;Helvetica Neue&quot;, sans-serif; font-size: 12px; font-weight: 200;" x="0" y="59.84571402413512" dx="0em" dy="0.3em" fill="rgb(50, 49, 63)" stroke="none" stroke-width="1px">0.145</text><text style="text-anchor: end; visibility: hidden; font-family: &quot;Helvetica Neue&quot;, sans-serif; font-size: 12px; font-weight: 200;" x="0" y="47.134285518101365" dx="0em" dy="0.3em" fill="rgb(50, 49, 63)" stroke="none" stroke-width="1px">0.15</text><text style="text-anchor: end; visibility: inherit; font-family: &quot;Helvetica Neue&quot;, sans-serif; font-size: 12px; font-weight: 200;" x="0" y="34.422857012067595" dx="0em" dy="0.3em" fill="rgb(50, 49, 63)" stroke="none" stroke-width="1px">0.155</text><text style="text-anchor: end; visibility: hidden; font-family: &quot;Helvetica Neue&quot;, sans-serif; font-size: 12px; font-weight: 200;" x="0" y="21.711428506033826" dx="0em" dy="0.3em" fill="rgb(50, 49, 63)" stroke="none" stroke-width="1px">0.16</text><text style="text-anchor: end; visibility: inherit; font-family: &quot;Helvetica Neue&quot;, sans-serif; font-size: 12px; font-weight: 200;" x="0" y="9.000000000000057" dx="0em" dy="0.3em" fill="rgb(50, 49, 63)" stroke="none" stroke-width="1px">0.165</text></g><line x1="61.77000045776367" y1="0" x2="61.77000045776367" y2="177.95999908447266" fill="rgb(0, 0, 0)" stroke="rgb(204, 204, 204)" stroke-width="1px"></line></g></g><g transform="translate(61, 0)" clip-path="url(#clip_0)"><clipPath id="clip_0"><rect width="268" height="177"></rect></clipPath><g><g><g><line x1="0.9999999999999991" y1="0" x2="0.9999999999999991" y2="177.95999908447266" fill="rgb(0, 0, 0)" stroke="rgb(60, 60, 60)" stroke-width="1px" opacity="0.25"></line><line x1="23.352499961853027" y1="0" x2="23.352499961853027" y2="177.95999908447266" fill="rgb(0, 0, 0)" stroke="rgb(60, 60, 60)" stroke-width="1px" opacity="0.25"></line><line x1="45.704999923706055" y1="0" x2="45.704999923706055" y2="177.95999908447266" fill="rgb(0, 0, 0)" stroke="rgb(60, 60, 60)" stroke-width="1px" opacity="0.25"></line><line x1="68.05749988555907" y1="0" x2="68.05749988555907" y2="177.95999908447266" fill="rgb(0, 0, 0)" stroke="rgb(60, 60, 60)" stroke-width="1px" opacity="0.25"></line><line x1="90.40999984741211" y1="0" x2="90.40999984741211" y2="177.95999908447266" fill="rgb(0, 0, 0)" stroke="rgb(60, 60, 60)" stroke-width="1px" opacity="0.25"></line><line x1="112.76249980926512" y1="0" x2="112.76249980926512" y2="177.95999908447266" fill="rgb(0, 0, 0)" stroke="rgb(60, 60, 60)" stroke-width="1px" opacity="0.25"></line><line x1="135.11499977111816" y1="0" x2="135.11499977111816" y2="177.95999908447266" fill="rgb(0, 0, 0)" stroke="rgb(60, 60, 60)" stroke-width="1px" opacity="0.25"></line><line x1="157.46749973297116" y1="0" x2="157.46749973297116" y2="177.95999908447266" fill="rgb(0, 0, 0)" stroke="rgb(60, 60, 60)" stroke-width="1px" opacity="0.25"></line><line x1="179.81999969482422" y1="0" x2="179.81999969482422" y2="177.95999908447266" fill="rgb(0, 0, 0)" stroke="rgb(60, 60, 60)" stroke-width="1px" opacity="0.25"></line><line x1="202.17249965667725" y1="0" x2="202.17249965667725" y2="177.95999908447266" fill="rgb(0, 0, 0)" stroke="rgb(60, 60, 60)" stroke-width="1px" opacity="0.25"></line><line x1="224.52499961853025" y1="0" x2="224.52499961853025" y2="177.95999908447266" fill="rgb(0, 0, 0)" stroke="rgb(60, 60, 60)" stroke-width="1px" opacity="0.25"></line><line x1="246.87749958038333" y1="0" x2="246.87749958038333" y2="177.95999908447266" fill="rgb(0, 0, 0)" stroke="rgb(60, 60, 60)" stroke-width="1px" opacity="0.25"></line></g><g><line x1="0" y1="174.24857057843886" x2="268.2299995422363" y2="174.24857057843886" fill="rgb(0, 0, 0)" stroke="rgb(60, 60, 60)" stroke-width="1px" opacity="0.25"></line><line x1="0" y1="161.53714207240512" x2="268.2299995422363" y2="161.53714207240512" fill="rgb(0, 0, 0)" stroke="rgb(60, 60, 60)" stroke-width="1px" opacity="0.25"></line><line x1="0" y1="148.82571356637135" x2="268.2299995422363" y2="148.82571356637135" fill="rgb(0, 0, 0)" stroke="rgb(60, 60, 60)" stroke-width="1px" opacity="0.25"></line><line x1="0" y1="136.11428506033758" x2="268.2299995422363" y2="136.11428506033758" fill="rgb(0, 0, 0)" stroke="rgb(60, 60, 60)" stroke-width="1px" opacity="0.25"></line><line x1="0" y1="123.40285655430387" x2="268.2299995422363" y2="123.40285655430387" fill="rgb(0, 0, 0)" stroke="rgb(60, 60, 60)" stroke-width="1px" opacity="0.25"></line><line x1="0" y1="110.6914280482701" x2="268.2299995422363" y2="110.6914280482701" fill="rgb(0, 0, 0)" stroke="rgb(60, 60, 60)" stroke-width="1px" opacity="0.25"></line><line x1="0" y1="97.97999954223633" x2="268.2299995422363" y2="97.97999954223633" fill="rgb(0, 0, 0)" stroke="rgb(60, 60, 60)" stroke-width="1px" opacity="0.25"></line><line x1="0" y1="85.26857103620257" x2="268.2299995422363" y2="85.26857103620257" fill="rgb(0, 0, 0)" stroke="rgb(60, 60, 60)" stroke-width="1px" opacity="0.25"></line><line x1="0" y1="72.5571425301688" x2="268.2299995422363" y2="72.5571425301688" fill="rgb(0, 0, 0)" stroke="rgb(60, 60, 60)" stroke-width="1px" opacity="0.25"></line><line x1="0" y1="59.84571402413512" x2="268.2299995422363" y2="59.84571402413512" fill="rgb(0, 0, 0)" stroke="rgb(60, 60, 60)" stroke-width="1px" opacity="0.25"></line><line x1="0" y1="47.134285518101365" x2="268.2299995422363" y2="47.134285518101365" fill="rgb(0, 0, 0)" stroke="rgb(60, 60, 60)" stroke-width="1px" opacity="0.25"></line><line x1="0" y1="34.422857012067595" x2="268.2299995422363" y2="34.422857012067595" fill="rgb(0, 0, 0)" stroke="rgb(60, 60, 60)" stroke-width="1px" opacity="0.25"></line><line x1="0" y1="21.711428506033826" x2="268.2299995422363" y2="21.711428506033826" fill="rgb(0, 0, 0)" stroke="rgb(60, 60, 60)" stroke-width="1px" opacity="0.25"></line><line x1="0" y1="9.000000000000057" x2="268.2299995422363" y2="9.000000000000057" fill="rgb(0, 0, 0)" stroke="rgb(60, 60, 60)" stroke-width="1px" opacity="0.25"></line></g></g></g><g><g><line x1="0" y1="428.47714069911393" x2="268.2299995422363" y2="428.47714069911393" fill="rgb(0, 0, 0)" stroke="rgb(153, 153, 153)" stroke-width="1.5px"></line></g></g><g><g><line x1="23.352499961853027" y1="0" x2="23.352499961853027" y2="177.95999908447266" fill="rgb(0, 0, 0)" stroke="rgb(153, 153, 153)" stroke-width="1.5px"></line></g></g><g><g><g><g><g><path style="fill: none;" stroke="rgb(204, 51, 17)" stroke-width="2px" d="M31.93541289720535,-1.7855265881048297L33.415148394680024,44.967881886016954L36.916443988704685,74.96949294998566L40.435174532699584,96.15174186644097L41.91714528017044,115.77934438755088L43.3919632276535,122.66921616141352L44.87572217512131,130.65645573125852L48.36315921916962,136.94249451982893L51.48937986383438,137.05705264832915L52.86942321147919,136.6026883657513L56.24643890571594,135.2132258208819L57.75076215314865,135.10970397876565L61.244010847187035,146.38876107041165L62.7201699446678,147.28346794921092L66.22146553869247,137.7411425098446L67.72712993612289,129.00050232245485L71.22082568016052,134.44483913762562L72.69072607765197,139.69426477618526L76.19559807167053,133.85266644235338L77.70752116909027,132.6672829808445L79.21944426651,132.2259587304527L80.7501434638977,125.80532253580182L84.49865770750046,129.46784173385632L86.42052565422057,121.8066555003204L88.17743215122222,121.04720937922093L92.23798729429244,120.63088752136937L94.02752844123839,127.56039717689143L98.0952363842964,118.0627585743197L99.9057888812065,113.454071071063L104.0410013741493,103.8875854282656L105.87703572101593,111.616279258055L110.03773006391525,115.9947922436213L111.87778786077499,100.00579501180415L112.76249980926512,95.86200413327998L114.71074370594025,85.69928332050209L118.76861654901504,94.8768832923075L120.59347464590073,99.41616880514609L124.7246636888504,108.75625009435394L126.5799211856842,101.37021505154075L128.43249638252257,85.51679103422914L132.61733142538068,84.00602212241449L136.78294331827163,82.74773369403886L138.62657751512526,88.07612030096993L140.48049386196135,88.21947867233098L142.34022185878752,89.2979224594575L146.51701000165937,92.63345496372446L148.38031439847944,84.03169906742882L152.55039679136274,77.10203936992677L154.39805443820953,75.20938988727389L157.46749973297116,70.63906899414926L159.17657188005447,64.34217734173737L162.6631148241043,65.28064366033684L166.17201026811597,56.11559402948541L169.74393976202012,64.42122366237535L171.27553305940629,61.94525512477013L174.852380103302,46.50377046554411L176.41392575063705,50.01175744733928L179.81999969482422,64.91882462875603L181.5474008918762,61.40581323834873L185.06255503587724,52.899596484585174L186.5834191332817,47.91254610015329L188.11233013067246,54.529432030315846L191.66369532461167,64.0889591201954L193.20065322198866,56.076507105803316L193.23149967193604,46.311968398986295L194.33839547004698,60.125270485161636L195.66971036777494,57.01873966665667L199.12540686187742,54.20941280208875L200.6570001592636,51.48450390708852L202.17249965667725,52.86080319222235L203.27179560480118,45.918732373593684L204.6053457525253,49.842376043887384L206.12173934993743,51.757422405335745L209.58548274402617,46.23520687161917L211.1345109913826,47.584594069373054L214.68542913532255,45.48617508250135L216.25368053264617,38.898878469676504L217.80941452999116,36.45795679643987L221.3844733738899,36.74547780713971L222.95719527120588,30.88484846715116L226.5590771150589,44.17966225036011L228.1130229124069,39.78692979752742L231.74530415620802,32.963384289878746L233.35826055345535,38.98597516076609L236.97355389728548,44.370014840331095L238.55476974458696,45.067065455100845L240.1306209918976,46.5524450352608L243.66902173585893,34.67005249905128L246.87749958038333,26.161720908080753" fill="none"></path></g><g><path style="fill: none;" stroke="rgb(0, 119, 187)" stroke-width="2px" d="M31.28629629831314,-21.49528229299699L32.8612534456253,26.805716240654704L36.42066553955078,62.0340397241137L40.059205483341216,84.85964970689882L41.62298638067245,104.20789440162568L45.247220724487306,121.05074414502778L48.883972468280795,130.42764767463672L50.45982371559143,137.10997290332904L53.98078950958252,143.20164552870938L55.55127615690232,145.70117333517936L59.14332290077209,150.2607071661012L62.653112444782245,152.5885091428962L64.18738804216383,150.39242601596519L67.78211708602905,149.35003764917224L71.33035292997359,153.54318314008364L72.82841747741698,155.8902999923224L74.33855237483978,149.8002691295372L77.79737821893691,150.60994409865253L81.30180316295623,155.91449397914434L84.84646260690688,157.17344764338688L86.33424500436782,153.61272604896604L89.86415179834366,150.72812569224214L91.36668684577941,152.8741202474083L94.85010043983459,150.28982049645728L96.38795243721009,156.52442951333333L99.97061113109588,148.65371564608614L101.56032092838286,147.69497633002297L105.14879127225875,148.18089689693386L108.6196874663353,154.87182216511806L110.13518696374892,149.4704404640864L113.60071855783461,146.36999100357076L115.06570140533447,150.00385649669238L116.53202540283203,146.0461204687859L119.92334669704437,152.97370489616543L121.01459574518202,150.08872842919266L124.36925893945693,145.00195953527398L125.9129225868225,144.22438650190796L127.48027988414765,144.32307990835267L131.0852910779953,149.19608233740757L132.70271797523498,154.63411091375227L136.37791601896285,150.33694173656477L137.99891931619644,150.6987026797139L141.6812701599121,151.67895792225335L143.3228377571106,148.97182722023345L147.0190471508026,138.78793594367758L148.65301489801405,136.25036291331506L152.3460949417114,136.04680697390944L153.9791685889244,135.77110326824257L157.6642017326355,144.39111451687276L159.28744027986525,140.86573548361054L160.92140802707672,143.7715902705168L161.9983514752388,145.2815392387558L163.3479954229355,137.5284377126419L166.8148681670189,136.3006628749681L168.37283741436002,135.16063484536832L171.94521395826337,140.04748119137173L173.52464160556792,141.75768769576922L177.11400604944228,131.3384756832763L178.69030434675219,135.34619010784724L182.25195169067382,135.9085149970296L183.80321518802643,130.11074146419872L187.3617331819534,136.82344777758024L188.9366903292656,127.29024235356673L192.58998292303085,125.48395214969796L194.21053917026518,119.26002952313291L197.87321981401445,131.54015734799333L199.47410586128234,130.31751923736059L201.08169765853881,123.34893102263115L202.69018355579377,126.70007950992775L206.35331124954223,126.34054995264623L210.01465074329377,133.34387145610344L211.62358369054795,133.48114629100715L213.2432458377838,119.13050903950764L216.91352633152007,122.72954016615907L218.53184732875823,120.23408410703624L220.14838012599944,125.17814184031776L221.27181677408217,131.79724863479092L222.62235482177735,129.61089778233378L226.1598614657402,129.72303381444812L227.72990106306074,127.78264475711919L231.37157035684584,137.8161741972104L232.9805033041,137.78718601484945L234.59569495134357,135.10776921378255L238.29279844503404,138.81570385222486L239.92497799224853,125.41632975958231L241.5625221394539,129.3636394460901L245.24174363317493,132.07741980456586L246.85022953042986,123.07726131134046L248.47927972764973,118.33889904061796L250.0895538249016,111.12058354974538L253.78844551858904,117.03613750265959" fill="none"></path></g></g></g></g><g opacity="0.2"><g><g><g><path style="fill: none;" stroke="rgb(204, 51, 17)" stroke-width="2px" d="M28.455575703144074,-17.12262437835082L31.93541289720535,76.81587312448842L33.415148394680024,99.94989025158398L36.916443988704685,114.13959635510346L40.435174532699584,125.4544177275086L41.91714528017044,143.84713003437827L43.3919632276535,132.71471535047425L44.87572217512131,142.4360826553659L48.36315921916962,146.27652952075147L51.48937986383438,137.22785080728534L52.86942321147919,135.92361457224573L56.24643890571594,133.13356883986415L57.75076215314865,134.95462402565687L61.244010847187035,163.29408859966895L62.7201699446678,148.62489725079985L66.22146553869247,123.43169234312073L67.72712993612289,115.89176128896696L71.22082568016052,142.61051497046523L72.69072607765197,147.5679234157284L76.19559807167053,125.0905893087413L77.70752116909027,130.88924679412898L79.21944426651,131.56398106804238L80.7501434638977,116.17444430238237L84.49865770750046,134.96159449931923L86.42052565422057,110.31490882147625L88.17743215122222,119.90804214078614L92.23798729429244,120.0064053737442L94.02752844123839,137.95465527711667L98.0952363842964,103.8163059196627L99.9057888812065,106.54104134446881L104.0410013741493,89.53785886747993L105.87703572101593,123.20931908008825L110.03773006391525,122.56256140834681L111.87778786077499,76.02229985123381L112.76249980926512,89.64631792234569L114.71074370594025,70.45520225856947L118.76861654901504,108.64328316482008L120.59347464590073,106.2250970491211L124.7246636888504,122.76637199695239L126.5799211856842,90.29116250213086L128.43249638252257,61.73665502733448L132.61733142538068,81.73986875578316L136.78294331827163,80.86030105202023L138.62657751512526,96.06870020998183L140.48049386196135,88.43451622935022L142.34022185878752,90.91558814004645L146.51701000165937,97.63675371993767L148.38031439847944,71.1290652232751L152.55039679136274,66.70754982381392L154.39805443820953,72.37041566331746L157.46749973297116,63.78358765449539L159.17657188005447,54.89683986314722L162.6631148241043,66.68834313823344L166.17201026811597,42.36801958322263L169.74393976202012,76.87966811170251L171.27553305940629,58.23130231836355L174.852380103302,23.34154347671037L176.41392575063705,55.27373792003142L179.81999969482422,87.2794254008794L181.5474008918762,56.136296152737856L185.06255503587724,40.14027135394008L186.5834191332817,40.4319705235057L188.11233013067246,64.45476092555955L191.66369532461167,78.42824975501465L193.20065322198866,44.05782908421537L193.23149967193604,31.665160338760728L194.33839547004698,80.84522361442451L195.66971036777494,52.35894343889926L199.12540686187742,49.99542250523706L200.6570001592636,47.397140564588085L202.17249965667725,54.9252521199231L203.27179560480118,35.50562614565081L204.6053457525253,55.727841549327934L206.12173934993743,54.629991947508245L209.58548274402617,37.95188357104436L211.1345109913826,49.608674866003895L214.68542913532255,42.33854660219379L216.25368053264617,29.01793355043921L217.80941452999116,32.79657428658501L221.3844733738899,37.17675932318954L222.95719527120588,22.093904457168264L226.5590771150589,64.12188292517342L228.1130229124069,33.19783111827837L231.74530415620802,22.72806602840572L233.35826055345535,48.019861467097115L236.97355389728548,52.44607435967859L238.55476974458696,46.11264137725544L240.1306209918976,48.78051440550078L243.66902173585893,16.846463694737025L246.87749958038333,13.399223521625004" fill="none"></path></g><g><path style="fill: none;" stroke="rgb(0, 119, 187)" stroke-width="2px" d="M27.77114215431213,-27.352817319089326L31.28629629831314,61.28793078532088L32.8612534456253,83.60769051622897L36.42066553955078,108.02813886411793L40.059205483341216,116.43568553268425L41.62298638067245,131.8761938870002L45.247220724487306,145.60778076226552L48.883972468280795,144.25675901106828L50.45982371559143,147.0324470830258L53.98078950958252,152.2839034444147L55.55127615690232,149.4368627249407L59.14332290077209,157.08512024342863L62.653112444782245,156.0756517016864L64.18738804216383,147.1008827388466L67.78211708602905,147.78719027202004L71.33035292997359,159.83112697780763L72.82841747741698,159.410379337966L74.33855237483978,140.6661505902652L77.79737821893691,151.82438254482628L81.30180316295623,163.8710278857598L84.84646260690688,159.06183671334412L86.33424500436782,148.27171395757125L89.86415179834366,146.40125932799754L91.36668684577941,156.0930968273468L94.85010043983459,146.4133818908886L96.38795243721009,165.8763270859918L99.97061113109588,136.84765692861515L101.56032092838286,146.25686823906256L105.14879127225875,148.90977747873927L108.6196874663353,164.90820784861074L110.13518696374892,141.36836898723314L113.60071855783461,141.7193171829287L115.06570140533447,155.45465447608845L116.53202540283203,140.10951659701686L119.92334669704437,163.36508135859958L121.01459574518202,145.76126377336877L124.36925893945693,137.3718062416164L125.9129225868225,143.05802695618974L127.48027988414765,144.47112001768997L131.0852910779953,156.50558597121892L132.70271797523498,162.79115377172698L136.37791601896285,143.8911879738854L137.99891931619644,151.24134409428086L141.6812701599121,153.14934078580777L143.3228377571106,144.91113116762565L147.0190471508026,123.51209902979645L148.65301489801405,132.44400336791372L152.3460949417114,135.74147306480785L153.9791685889244,135.35754770974776L157.6642017326355,157.32113138971354L159.28744027986525,135.5776669337427L160.92140802707672,148.13037245086355L161.9983514752388,147.54646269111035L163.3479954229355,125.89878542348323L166.8148681670189,134.45900061845856L168.37283741436002,133.45059280096933L171.94521395826337,147.3777507103752L173.52464160556792,144.3229974523651L177.11400604944228,115.70965766453813L178.69030434675219,141.35776174470348L182.25195169067382,136.75200233080304L183.80321518802643,121.4140811649525L187.3617331819534,146.89250724765236L188.9366903292656,112.99043421754654L192.58998292303085,122.77451684389482L194.21053917026518,109.92414558328542L197.87321981401445,149.9603490852839L199.47410586128234,128.4835620714114L201.08169765853881,112.89604870053711L202.69018355579377,131.72680224087264L206.35331124954223,125.80125561672392L210.01465074329377,143.84885371128934L211.62358369054795,133.68705854336264L213.2432458377838,97.60455316225834L216.91352633152007,128.1280868561362L218.53184732875823,116.49090001835202L220.14838012599944,132.59422844024002L221.27181677408217,141.72590882650073L222.62235482177735,126.33137150364814L226.1598614657402,129.8912378626197L227.72990106306074,124.87206117112581L231.37157035684584,152.86646835734717L232.9805033041,137.74370374130808L234.59569495134357,131.08864401218204L238.29279844503404,144.37760580988834L239.92497799224853,105.31726862061846L241.5625221394539,135.28460397585184L245.24174363317493,136.14809034227963L246.85022953042986,109.57702357150234L248.47927972764973,111.23135563453425L250.0895538249016,100.29311031343651L253.78844551858904,125.90946843203096" fill="none"></path></g></g></g></g></g></g><g transform="translate(61, 177)" clip-path="url(#clip_1)"><clipPath id="clip_1"><rect width="268" height="22"></rect></clipPath><g><g><line x1="0.9999999999999991" y1="0" x2="0.9999999999999991" y2="5" style="visibility: inherit;" fill="rgb(0, 0, 0)" stroke="rgb(204, 204, 204)" stroke-width="1px"></line><line x1="23.352499961853027" y1="0" x2="23.352499961853027" y2="5" style="visibility: inherit;" fill="rgb(0, 0, 0)" stroke="rgb(204, 204, 204)" stroke-width="1px"></line><line x1="45.704999923706055" y1="0" x2="45.704999923706055" y2="5" style="visibility: inherit;" fill="rgb(0, 0, 0)" stroke="rgb(204, 204, 204)" stroke-width="1px"></line><line x1="68.05749988555907" y1="0" x2="68.05749988555907" y2="5" style="visibility: inherit;" fill="rgb(0, 0, 0)" stroke="rgb(204, 204, 204)" stroke-width="1px"></line><line x1="90.40999984741211" y1="0" x2="90.40999984741211" y2="5" style="visibility: inherit;" fill="rgb(0, 0, 0)" stroke="rgb(204, 204, 204)" stroke-width="1px"></line><line x1="112.76249980926512" y1="0" x2="112.76249980926512" y2="5" style="visibility: inherit;" fill="rgb(0, 0, 0)" stroke="rgb(204, 204, 204)" stroke-width="1px"></line><line x1="135.11499977111816" y1="0" x2="135.11499977111816" y2="5" style="visibility: inherit;" fill="rgb(0, 0, 0)" stroke="rgb(204, 204, 204)" stroke-width="1px"></line><line x1="157.46749973297116" y1="0" x2="157.46749973297116" y2="5" style="visibility: inherit;" fill="rgb(0, 0, 0)" stroke="rgb(204, 204, 204)" stroke-width="1px"></line><line x1="179.81999969482422" y1="0" x2="179.81999969482422" y2="5" style="visibility: inherit;" fill="rgb(0, 0, 0)" stroke="rgb(204, 204, 204)" stroke-width="1px"></line><line x1="202.17249965667725" y1="0" x2="202.17249965667725" y2="5" style="visibility: inherit;" fill="rgb(0, 0, 0)" stroke="rgb(204, 204, 204)" stroke-width="1px"></line><line x1="224.52499961853025" y1="0" x2="224.52499961853025" y2="5" style="visibility: inherit;" fill="rgb(0, 0, 0)" stroke="rgb(204, 204, 204)" stroke-width="1px"></line><line x1="246.87749958038333" y1="0" x2="246.87749958038333" y2="5" style="visibility: inherit;" fill="rgb(0, 0, 0)" stroke="rgb(204, 204, 204)" stroke-width="1px"></line></g><g transform="translate(0, 8)"><text style="text-anchor: middle; visibility: hidden; font-family: &quot;Helvetica Neue&quot;, sans-serif; font-size: 12px; font-weight: 200;" x="0.9999999999999991" y="0" dx="0em" dy="0.95em" fill="rgb(50, 49, 63)" stroke="none" stroke-width="1px">-50k</text><text style="text-anchor: middle; visibility: inherit; font-family: &quot;Helvetica Neue&quot;, sans-serif; font-size: 12px; font-weight: 200;" x="23.352499961853027" y="0" dx="0em" dy="0.95em" fill="rgb(50, 49, 63)" stroke="none" stroke-width="1px">0</text><text style="text-anchor: middle; visibility: hidden; font-family: &quot;Helvetica Neue&quot;, sans-serif; font-size: 12px; font-weight: 200;" x="45.704999923706055" y="0" dx="0em" dy="0.95em" fill="rgb(50, 49, 63)" stroke="none" stroke-width="1px">50k</text><text style="text-anchor: middle; visibility: inherit; font-family: &quot;Helvetica Neue&quot;, sans-serif; font-size: 12px; font-weight: 200;" x="68.05749988555907" y="0" dx="0em" dy="0.95em" fill="rgb(50, 49, 63)" stroke="none" stroke-width="1px">100k</text><text style="text-anchor: middle; visibility: hidden; font-family: &quot;Helvetica Neue&quot;, sans-serif; font-size: 12px; font-weight: 200;" x="90.40999984741211" y="0" dx="0em" dy="0.95em" fill="rgb(50, 49, 63)" stroke="none" stroke-width="1px">150k</text><text style="text-anchor: middle; visibility: inherit; font-family: &quot;Helvetica Neue&quot;, sans-serif; font-size: 12px; font-weight: 200;" x="112.76249980926512" y="0" dx="0em" dy="0.95em" fill="rgb(50, 49, 63)" stroke="none" stroke-width="1px">200k</text><text style="text-anchor: middle; visibility: hidden; font-family: &quot;Helvetica Neue&quot;, sans-serif; font-size: 12px; font-weight: 200;" x="135.11499977111816" y="0" dx="0em" dy="0.95em" fill="rgb(50, 49, 63)" stroke="none" stroke-width="1px">250k</text><text style="text-anchor: middle; visibility: inherit; font-family: &quot;Helvetica Neue&quot;, sans-serif; font-size: 12px; font-weight: 200;" x="157.46749973297116" y="0" dx="0em" dy="0.95em" fill="rgb(50, 49, 63)" stroke="none" stroke-width="1px">300k</text><text style="text-anchor: middle; visibility: hidden; font-family: &quot;Helvetica Neue&quot;, sans-serif; font-size: 12px; font-weight: 200;" x="179.81999969482422" y="0" dx="0em" dy="0.95em" fill="rgb(50, 49, 63)" stroke="none" stroke-width="1px">350k</text><text style="text-anchor: middle; visibility: inherit; font-family: &quot;Helvetica Neue&quot;, sans-serif; font-size: 12px; font-weight: 200;" x="202.17249965667725" y="0" dx="0em" dy="0.95em" fill="rgb(50, 49, 63)" stroke="none" stroke-width="1px">400k</text><text style="text-anchor: middle; visibility: hidden; font-family: &quot;Helvetica Neue&quot;, sans-serif; font-size: 12px; font-weight: 200;" x="224.52499961853025" y="0" dx="0em" dy="0.95em" fill="rgb(50, 49, 63)" stroke="none" stroke-width="1px">450k</text><text style="text-anchor: middle; visibility: inherit; font-family: &quot;Helvetica Neue&quot;, sans-serif; font-size: 12px; font-weight: 200;" x="246.87749958038333" y="0" dx="0em" dy="0.95em" fill="rgb(50, 49, 63)" stroke="none" stroke-width="1px">500k</text></g><line x1="0" y1="0" x2="268.2299995422363" y2="0" fill="rgb(0, 0, 0)" stroke="rgb(204, 204, 204)" stroke-width="1px"></line></g></g></g></g></svg>