<svg viewBox="0 0 330 200" xmlns="http://www.w3.org/2000/svg"><g><g><g><g><g><line x1="51.41600036621094" y1="175.74143010021973" x2="46.41600036621094" y2="175.74143010021973" style="visibility: inherit;" fill="rgb(0, 0, 0)" stroke="rgb(204, 204, 204)" stroke-width="1px"></line><line x1="51.41600036621094" y1="158.14711828125" x2="46.41600036621094" y2="158.14711828125" style="visibility: inherit;" fill="rgb(0, 0, 0)" stroke="rgb(204, 204, 204)" stroke-width="1px"></line><line x1="51.41600036621094" y1="140.55280646228033" x2="46.41600036621094" y2="140.55280646228033" style="visibility: inherit;" fill="rgb(0, 0, 0)" stroke="rgb(204, 204, 204)" stroke-width="1px"></line><line x1="51.41600036621094" y1="122.95849464331059" x2="46.41600036621094" y2="122.95849464331059" style="visibility: inherit;" fill="rgb(0, 0, 0)" stroke="rgb(204, 204, 204)" stroke-width="1px"></line><line x1="51.41600036621094" y1="105.36418282434084" x2="46.41600036621094" y2="105.36418282434084" style="visibility: inherit;" fill="rgb(0, 0, 0)" stroke="rgb(204, 204, 204)" stroke-width="1px"></line><line x1="51.41600036621094" y1="87.7698710053711" x2="46.41600036621094" y2="87.7698710053711" style="visibility: inherit;" fill="rgb(0, 0, 0)" stroke="rgb(204, 204, 204)" stroke-width="1px"></line><line x1="51.41600036621094" y1="70.17555918640136" x2="46.41600036621094" y2="70.17555918640136" style="visibility: inherit;" fill="rgb(0, 0, 0)" stroke="rgb(204, 204, 204)" stroke-width="1px"></line><line x1="51.41600036621094" y1="52.581247367431615" x2="46.41600036621094" y2="52.581247367431615" style="visibility: inherit;" fill="rgb(0, 0, 0)" stroke="rgb(204, 204, 204)" stroke-width="1px"></line><line x1="51.41600036621094" y1="34.98693554846196" x2="46.41600036621094" y2="34.98693554846196" style="visibility: inherit;" fill="rgb(0, 0, 0)" stroke="rgb(204, 204, 204)" stroke-width="1px"></line><line x1="51.41600036621094" y1="17.392623729492215" x2="46.41600036621094" y2="17.392623729492215" style="visibility: inherit;" fill="rgb(0, 0, 0)" stroke="rgb(204, 204, 204)" stroke-width="1px"></line></g><g transform="translate(41.41600036621094, 0)"><text style="text-anchor: end; visibility: hidden; font-family: &quot;Helvetica Neue&quot;, sans-serif; font-size: 12px; font-weight: 200;" x="0" y="175.74143010021973" dx="0em" dy="0.3em" fill="rgb(50, 49, 63)" stroke="none" stroke-width="1px">0.54</text><text style="text-anchor: end; visibility: inherit; font-family: &quot;Helvetica Neue&quot;, sans-serif; font-size: 12px; font-weight: 200;" x="0" y="158.14711828125" dx="0em" dy="0.3em" fill="rgb(50, 49, 63)" stroke="none" stroke-width="1px">0.56</text><text style="text-anchor: end; visibility: hidden; font-family: &quot;Helvetica Neue&quot;, sans-serif; font-size: 12px; font-weight: 200;" x="0" y="140.55280646228033" dx="0em" dy="0.3em" fill="rgb(50, 49, 63)" stroke="none" stroke-width="1px">0.58</text><text style="text-anchor: end; visibility: inherit; font-family: &quot;Helvetica Neue&quot;, sans-serif; font-size: 12px; font-weight: 200;" x="0" y="122.95849464331059" dx="0em" dy="0.3em" fill="rgb(50, 49, 63)" stroke="none" stroke-width="1px">0.6</text><text style="text-anchor: end; visibility: hidden; font-family: &quot;Helvetica Neue&quot;, sans-serif; font-size: 12px; font-weight: 200;" x="0" y="105.36418282434084" dx="0em" dy="0.3em" fill="rgb(50, 49, 63)" stroke="none" stroke-width="1px">0.62</text><text style="text-anchor: end; visibility: inherit; font-family: &quot;Helvetica Neue&quot;, sans-serif; font-size: 12px; font-weight: 200;" x="0" y="87.7698710053711" dx="0em" dy="0.3em" fill="rgb(50, 49, 63)" stroke="none" stroke-width="1px">0.64</text><text style="text-anchor: end; visibility: hidden; font-family: &quot;Helvetica Neue&quot;, sans-serif; font-size: 12px; font-weight: 200;" x="0" y="70.17555918640136" dx="0em" dy="0.3em" fill="rgb(50, 49, 63)" stroke="none" stroke-width="1px">0.66</text><text style="text-anchor: end; visibility: inherit; font-family: &quot;Helvetica Neue&quot;, sans-serif; font-size: 12px; font-weight: 200;" x="0" y="52.581247367431615" dx="0em" dy="0.3em" fill="rgb(50, 49, 63)" stroke="none" stroke-width="1px">0.68</text><text style="text-anchor: end; visibility: hidden; font-family: &quot;Helvetica Neue&quot;, sans-serif; font-size: 12px; font-weight: 200;" x="0" y="34.98693554846196" dx="0em" dy="0.3em" fill="rgb(50, 49, 63)" stroke="none" stroke-width="1px">0.7</text><text style="text-anchor: end; visibility: inherit; font-family: &quot;Helvetica Neue&quot;, sans-serif; font-size: 12px; font-weight: 200;" x="0" y="17.392623729492215" dx="0em" dy="0.3em" fill="rgb(50, 49, 63)" stroke="none" stroke-width="1px">0.72</text></g><line x1="51.41600036621094" y1="0" x2="51.41600036621094" y2="177.95999908447266" fill="rgb(0, 0, 0)" stroke="rgb(204, 204, 204)" stroke-width="1px"></line></g></g><g transform="translate(51, 0)" clip-path="url(#clip_0)"><clipPath id="clip_0"><rect width="278" height="177"></rect></clipPath><g><g><g><line x1="12.707072370951414" y1="0" x2="12.707072370951414" y2="177.95999908447266" fill="rgb(0, 0, 0)" stroke="rgb(60, 60, 60)" stroke-width="1px" opacity="0.25"></line><line x1="38.06950532910795" y1="0" x2="38.06950532910795" y2="177.95999908447266" fill="rgb(0, 0, 0)" stroke="rgb(60, 60, 60)" stroke-width="1px" opacity="0.25"></line><line x1="63.43193828726448" y1="0" x2="63.43193828726448" y2="177.95999908447266" fill="rgb(0, 0, 0)" stroke="rgb(60, 60, 60)" stroke-width="1px" opacity="0.25"></line><line x1="88.79437124542102" y1="0" x2="88.79437124542102" y2="177.95999908447266" fill="rgb(0, 0, 0)" stroke="rgb(60, 60, 60)" stroke-width="1px" opacity="0.25"></line><line x1="114.15680420357755" y1="0" x2="114.15680420357755" y2="177.95999908447266" fill="rgb(0, 0, 0)" stroke="rgb(60, 60, 60)" stroke-width="1px" opacity="0.25"></line><line x1="139.51923716173405" y1="0" x2="139.51923716173405" y2="177.95999908447266" fill="rgb(0, 0, 0)" stroke="rgb(60, 60, 60)" stroke-width="1px" opacity="0.25"></line><line x1="164.8816701198906" y1="0" x2="164.8816701198906" y2="177.95999908447266" fill="rgb(0, 0, 0)" stroke="rgb(60, 60, 60)" stroke-width="1px" opacity="0.25"></line><line x1="190.24410307804712" y1="0" x2="190.24410307804712" y2="177.95999908447266" fill="rgb(0, 0, 0)" stroke="rgb(60, 60, 60)" stroke-width="1px" opacity="0.25"></line><line x1="215.60653603620366" y1="0" x2="215.60653603620366" y2="177.95999908447266" fill="rgb(0, 0, 0)" stroke="rgb(60, 60, 60)" stroke-width="1px" opacity="0.25"></line><line x1="240.96896899436018" y1="0" x2="240.96896899436018" y2="177.95999908447266" fill="rgb(0, 0, 0)" stroke="rgb(60, 60, 60)" stroke-width="1px" opacity="0.25"></line><line x1="266.3314019525167" y1="0" x2="266.3314019525167" y2="177.95999908447266" fill="rgb(0, 0, 0)" stroke="rgb(60, 60, 60)" stroke-width="1px" opacity="0.25"></line></g><g><line x1="0" y1="175.74143010021973" x2="278.58399963378906" y2="175.74143010021973" fill="rgb(0, 0, 0)" stroke="rgb(60, 60, 60)" stroke-width="1px" opacity="0.25"></line><line x1="0" y1="158.14711828125" x2="278.58399963378906" y2="158.14711828125" fill="rgb(0, 0, 0)" stroke="rgb(60, 60, 60)" stroke-width="1px" opacity="0.25"></line><line x1="0" y1="140.55280646228033" x2="278.58399963378906" y2="140.55280646228033" fill="rgb(0, 0, 0)" stroke="rgb(60, 60, 60)" stroke-width="1px" opacity="0.25"></line><line x1="0" y1="122.95849464331059" x2="278.58399963378906" y2="122.95849464331059" fill="rgb(0, 0, 0)" stroke="rgb(60, 60, 60)" stroke-width="1px" opacity="0.25"></line><line x1="0" y1="105.36418282434084" x2="278.58399963378906" y2="105.36418282434084" fill="rgb(0, 0, 0)" stroke="rgb(60, 60, 60)" stroke-width="1px" opacity="0.25"></line><line x1="0" y1="87.7698710053711" x2="278.58399963378906" y2="87.7698710053711" fill="rgb(0, 0, 0)" stroke="rgb(60, 60, 60)" stroke-width="1px" opacity="0.25"></line><line x1="0" y1="70.17555918640136" x2="278.58399963378906" y2="70.17555918640136" fill="rgb(0, 0, 0)" stroke="rgb(60, 60, 60)" stroke-width="1px" opacity="0.25"></line><line x1="0" y1="52.581247367431615" x2="278.58399963378906" y2="52.581247367431615" fill="rgb(0, 0, 0)" stroke="rgb(60, 60, 60)" stroke-width="1px" opacity="0.25"></line><line x1="0" y1="34.98693554846196" x2="278.58399963378906" y2="34.98693554846196" fill="rgb(0, 0, 0)" stroke="rgb(60, 60, 60)" stroke-width="1px" opacity="0.25"></line><line x1="0" y1="17.392623729492215" x2="278.58399963378906" y2="17.392623729492215" fill="rgb(0, 0, 0)" stroke="rgb(60, 60, 60)" stroke-width="1px" opacity="0.25"></line></g></g></g><g><g><line x1="0" y1="650.7878492124025" x2="278.58399963378906" y2="650.7878492124025" fill="rgb(0, 0, 0)" stroke="rgb(153, 153, 153)" stroke-width="1.5px"></line></g></g><g><g><line x1="12.707072370951414" y1="0" x2="12.707072370951414" y2="177.95999908447266" fill="rgb(0, 0, 0)" stroke="rgb(153, 153, 153)" stroke-width="1.5px"></line></g></g><g><g><g><g><g><path style="fill: none;" stroke="rgb(204, 51, 17)" stroke-width="2px" d="M19.679712439807812,196.20692511235126L21.390154918505885,177.4826390256432L23.100090148544798,160.13210690341631L27.056122441358056,137.18398610302157L31.00505325294303,118.42262004004147L32.70535075845784,106.4823210629737L36.66087580261193,97.94233023980826L38.34494135103353,87.6594172502458L42.30097364384678,81.73291814423298L46.27577413704907,77.870914718557L47.97302815060891,70.1794703425859L49.66622417489544,67.0400024157419L51.357391204545316,63.57917407569424L55.31900323260937,60.12840882896829L56.992923807847696,54.57359197028401L60.96011557116254,53.52307420577597L64.91716236129413,50.549329717781916L66.61644536949062,48.33509117046208L70.55928919716564,43.31186696959372L72.25248522145216,39.238231336369154L74.16734890979298,36.96060532462428L75.80525483023072,38.45943614881642L79.83179468666766,39.22202279818717L81.62086070753602,35.91474836139329L83.30999874254924,35.58337306009469L85.02094846990647,34.63619348278857L89.24024281682541,33.500139163253124L93.5437404411654,31.27299140126999L95.40990825822657,27.376043383914606L99.57137625800088,31.106990284346978L101.38225397121326,31.30385992775726L105.63908471891025,33.28292566810143L107.40228105816131,35.504952268819295L109.14823094300078,29.308839297558677L113.17426355077856,29.1516640579392L114.90398147852484,28.697108560160586L116.15181318006614,27.289112633230502L117.64718222727905,27.132935223721745L121.6113304986389,25.633065267002962L123.38568630839154,27.437013481189894L127.4654872740406,26.916503245075518L129.26774176004722,25.980659448444328L133.3673254234036,25.27692810952618L135.1903771044359,25.745499332852916L137.00886354753573,22.053380176277273L141.09678049173138,20.569704664180477L142.92287566471865,21.898805971577133L146.726733359783,21.91724843785198L150.82580977448023,21.39607632024726L152.62907875780516,26.777765821314574L156.810836703946,25.510152058998358L158.63743912559246,27.76441531498105L162.85571897519304,26.207725143642648L164.69348086734107,25.441881006780136L164.8816701198906,26.428556530342348L166.8776935936975,28.31090662804195L170.94836408348164,24.53987575972866L172.7004009522311,27.18856272570818L176.73201329525966,25.984618169928325L178.53680402456206,24.36917621199899L180.33804401325034,23.23287367022388L184.52081645670953,22.671294449324847L186.33575215919518,24.620623686216987L190.24410307804712,24.65458106798468L192.24266279514987,23.057981768660767L193.95158352787044,23.64125860802085L198.04964544524938,24.723219200450814L199.84023321209523,25.64107318919551L201.61915425978032,22.244300804485533L205.76844829173473,19.203530768309236L207.56360129651307,20.448789359607247L211.73369252349315,20.124736648277292L213.527323782294,21.29764555771868L215.3498682146671,18.77566527582985L215.60653603620366,20.830583193717246L218.7925648644073,22.352891995099498L220.30670211200925,20.87403958507926L221.98062268724755,20.193469390535284L223.65606500846337,19.20058038546378L227.61919878250492,21.83550151269307L231.61581096805122,23.47553809948883L233.37089132875565,22.13559290687965L237.42330086680988,21.344063405407724L239.19055519533424,21.0685879851587L243.22977626825025,23.56709150256023L244.98282763431806,23.814671803616392L249.0215414585749,20.691519230063676L250.7958972683275,21.375707222714198L254.82801686001525,21.507915294176513L256.5993291778129,22.745259613168315L258.37013424695135,24.312785493673374L262.4164568010957,25.067554798683062L264.180667637665,24.096508821485884L266.3314019525167,21.387279939757207" fill="none"></path></g><g><path style="fill: none;" stroke="rgb(0, 119, 187)" stroke-width="2px" d="M23.100597397203963,180.4856167606942L27.097716831409432,165.33727914051678L28.811710050721647,150.7350063099773L32.81238022554126,129.61338070498624L36.81761563829334,121.42338931203932L38.53769584151552,115.60138654746689L42.545467497563415,100.4539304227591L44.27163468469554,94.75591788779339L48.25911639437692,95.79415161531439L49.97260236502997,87.8628114741482L53.6648653550784,80.74824580614963L57.56256405208789,73.76800925086337L61.499320895852954,64.2997642488421L63.19556041209446,58.898572427535754L67.12572302329039,61.57590397874624L71.04624790996223,61.98369359302811L72.72219747983722,60.42933041304515L76.67721527533214,60.18136608020845L78.35975907777625,57.7698341312895L80.04534637217533,56.29032850231539L83.9927554377828,56.67651014104092L85.6768209862044,59.99230969928614L87.37965473501504,54.23105151686373L91.35445522821733,51.23742713138536L93.07402818278035,51.45216206347142L97.04679968134599,48.63882521218201L98.75014067881577,48.91611334181786L100.45145268164892,49.13838206237651L102.14617045191292,47.059588762369145L106.11894195047859,48.63927977969075L107.85068887286151,48.18122448454392L111.75143106182597,48.082300703478865L113.7337588218355,48.11743454939645L115.05209808700046,42.021767543787234L116.53377142041596,43.72648916251953L120.41067292239978,48.544828917142695L122.09524571948053,51.117551496007664L126.04722002302049,47.21638351337967L127.73382181473791,45.75890014370131L131.6228972845416,45.813497797538986L133.30594833564487,44.01207535686473L137.22140073572507,40.800488708380044L138.92879972246817,41.281316184373395L142.87215079880235,40.92735641818123L144.5815787801821,36.585881445847406L148.57159673315928,35.50539071597251L150.26834349805995,37.693459564915486L154.21270907171245,37.28787564610761L155.88713689560996,38.16302965297558L157.2196791232315,41.1855236553082L158.7662802850199,40.1006994139766L160.49853445606198,42.457169619281274L164.5083351067465,38.4030319369688L166.31008234409396,36.07739115927268L168.1407427550137,34.325279980169654L172.2778628191482,35.30142826618123L174.10700148409046,34.54893063677653L175.9483141168526,34.21864111789742L177.78556876034148,32.92725775768872L181.95413824134408,37.5973970615789L186.12473671698334,35.65825376181073L187.96807834438215,35.500599521364336L189.80330399323435,39.31278111600486L193.97440971753278,35.50637228476498L195.79644690124672,33.27668199376089L197.63573053937225,31.930562093726564L201.79872028512406,34.30427663084848L203.63191693933962,31.293143102262235L207.81266038816213,30.83673064129573L209.81477084587902,29.347625494905856L211.53282205446453,29.24207372417169L213.24681527377678,28.006544725031205L217.30835528769595,28.309567428326943L219.07307337292448,30.976491852800564L223.2497588324737,30.581049154112492L225.04186834529705,31.75724601615073L229.13232153278852,29.359873800263898L230.89602512069877,31.197031424930458L232.66530844385974,34.24964037025603L234.4077075880851,39.23966757343993L236.13793276449053,34.66416873722818L237.88388264933005,34.79111932895802L239.65722396176434,34.555489395437064L241.42650728492532,33.585846038096264L243.22774727361363,35.774313091959556L245.03355250023435,33.91297023310307L246.8322562456268,34.9352034272932L248.60762655269775,34.158718621550236L252.6656158260028,33.38515933820736L254.40497147827318,35.252919105345796L258.4563665190091,35.83521294445768L262.579283620687,37.06245828314849L266.3314019525167,34.295865785495266" fill="none"></path></g><g><path style="fill: none;" stroke="rgb(255, 112, 67)" stroke-width="2px" d="M22.445739378224363,187.66696518790968L24.124732440054323,159.03505816278076L28.097503938619962,140.5885817244538L32.09005813489296,125.91817978132335L33.77158744001874,118.64495451018365L35.44500076659791,110.29918032972331L37.12855906636034,106.38351891388568L41.085605856491924,98.78553252297542L44.632795730019694,86.33055539933417L46.19867234085628,82.01236529572577L50.03042871217457,80.3212980857416L51.73732045025851,79.07465800999289L55.7009614729592,80.37400813531178L57.37589654551586,76.40115836237999L61.3486680440815,73.81755708626041L63.05708152814292,65.48811048575585L67.02122979950279,67.95620959155482L68.68906339083117,64.12084149281216L72.6658928786701,60.35902423487893L74.38140784395982,60.21773030450528L76.09692280924952,55.756033982680876L77.83374221822407,57.40281853692669L82.08702222530692,53.17590160660683L84.26768421104923,46.36821793887498L86.26117144156034,46.27527539170947L90.86851101273905,49.17072894383884L92.89902739536906,47.07794747700143L97.51448294509439,44.54133039990194L99.56884001470506,43.91549806777175L104.26089011196403,40.84944684488133L106.34416035514701,46.82646907840487L111.06512362597827,49.5650158142773L113.15295910709371,42.38467369611823L114.15680420357755,41.780318707714684L116.36739386021047,41.1259775980912L120.9716899394342,35.39608438893083L123.0422789661381,45.33634405750226L127.72976382546459,38.827921985978975L129.83484576099158,37.16430299215233L131.9368842045636,34.06008487332463L136.68523890298965,32.29189529844655L141.4117819090717,31.32557453794729L143.50367537946045,32.57998408885865L145.60723556900996,32.66569684634908L147.71738999112858,33.857504797481454L152.4566142136897,35.320503364040604L154.57082662508162,35.382076213781374L159.3024421177553,34.54647829814118L161.39890082607653,34.1979994292482L164.8816701198906,34.13109522079847L166.82088174387124,31.147768551230342L170.7769140366845,34.857589021039786L174.7583087624559,38.8289840349606L178.8112255491693,35.522881525761306L180.5490594554622,32.97761874710545L184.60755597742641,31.416336293857853L186.3793755438832,35.0122277098352L190.24410307804712,32.16631805270157L192.20411189705345,29.669183016992008L196.19260810405316,32.575830893896494L197.91826804252614,34.698107660160844L199.65305845686404,32.18649591329017L203.68264180525594,30.89877065289201L205.42656269545878,32.84804337017235L205.46156285294103,30.54753364248026L206.71751053302896,34.460575688641626L208.22809704001676,29.83494740227374L212.14912917534778,31.395305924238926L213.88696308164063,31.93588745453843L215.60653603620366,33.95561111540607L216.8538604890858,34.28234022803119L218.3669832393694,32.048009174365376L220.08757069125076,31.834744977101565L224.0177333024467,32.00356932455182L225.77534990644693,32.13496170068521L229.80442600617968,31.121279621269906L231.58385430252395,34.329047832240434L233.34907963641163,32.44133883751178L237.4055471637392,33.92942150306135L239.1900479466751,32.87690660863814L243.27695039355243,32.568712716255476L245.0401467328035,31.334170816407465L249.1615420885039,29.934294077646086L250.99169525076448,32.850611386873084L255.0938151574167,34.53087278299898L256.8879536648767,32.102263060557874L258.67600518842676,29.440850935696545L262.69087832570295,31.498103369695627L266.3314019525167,30.23723453351255" fill="none"></path></g></g></g></g><g opacity="0.2"><g><g><g><path style="fill: none;" stroke="rgb(204, 51, 17)" stroke-width="2px" d="M17.984487420884626,195.80833750359187L19.679712439807812,168.40966842998884L21.390154918505885,153.03621111083729L23.100090148544798,136.13007478681243L27.056122441358056,104.36780618852411L31.00505325294303,91.06836821110223L32.70535075845784,88.87269935547225L36.66087580261193,85.26143915209803L38.34494135103353,72.3283130298949L42.30097364384678,72.87542123163449L46.27577413704907,72.09051969130098L47.97302815060891,58.65737211885936L49.66622417489544,62.33449085217269L51.357391204545316,58.390372409902284L55.31900323260937,54.95372120708325L56.992923807847696,46.2427770496563L60.96011557116254,51.947457594821856L64.91716236129413,46.088984797815954L66.61644536949062,45.01385478358665L70.55928919716564,35.77719595962327L72.25248522145216,33.12785831336163L74.16734890979298,33.54419328765837L75.80525483023072,40.70767173205692L79.83179468666766,40.36589952015942L81.62086070753602,30.953845168611338L83.30999874254924,35.08631061688601L85.02094846990647,33.21542498931575L89.24024281682541,31.796058311829768L93.5437404411654,27.932270496841795L95.40990825822657,21.530622133243924L99.57137625800088,36.703410189595274L101.38225397121326,31.59916437877129L105.63908471891025,36.25152419356388L107.40228105816131,38.83799211259861L109.14823094300078,20.01466993653193L113.17426355077856,28.91590119996934L114.90398147852484,28.015275316024628L116.15181318006614,25.177118747541016L117.64718222727905,26.89866910977159L121.6113304986389,23.38326033372914L123.38568630839154,30.142935801168107L127.4654872740406,26.135737891129565L129.26774176004722,24.57689375374065L133.3673254234036,24.221331101258755L135.1903771044359,26.448356167799233L137.00886354753573,16.515201441621258L141.09678049173138,18.344191396085364L142.92287566471865,23.8924579326455L146.726733359783,21.944912137263884L150.82580977448023,20.614318143843946L152.62907875780516,34.85030007289234L156.810836703946,23.60873141552713L158.63743912559246,31.14581019895141L162.85571897519304,23.872689886636692L164.69348086734107,24.29311480148698L164.8816701198906,27.908569815685354L166.8776935936975,31.134431774590922L170.94836408348164,18.883329457259038L172.7004009522311,31.16159317467728L176.73201329525966,24.178701336258342L178.53680402456206,21.94601327510523L180.33804401325034,21.528419857561232L184.52081645670953,21.828925617976182L186.33575215919518,27.54461754155517L190.24410307804712,24.70551714063609L192.24266279514987,20.663082819674685L193.95158352787044,24.5161738670611L198.04964544524938,26.34616008909589L199.84023321209523,27.017854172312695L201.61915425978032,17.149142227420725L205.76844829173473,14.642375714044817L207.56360129651307,22.316677246554065L211.73369252349315,19.638657581282303L213.527323782294,23.057008921880993L215.3498682146671,14.992694852996522L215.60653603620366,23.912960070548507L218.7925648644073,24.636355197172946L220.30670211200925,18.655760970048988L221.98062268724755,19.17261409871938L223.65606500846337,17.711246877856638L227.61919878250492,25.787883203537035L231.61581096805122,25.935592979682355L233.37089132875565,20.125675117965955L237.42330086680988,20.156769153199974L239.19055519533424,20.65537485478532L243.22977626825025,27.3148467786624L244.98282763431806,24.18604225520059L249.0215414585749,16.00679036973446L250.7958972683275,22.401989211690193L254.82801686001525,21.70622740136986L256.5993291778129,24.60127609165599L258.37013424695135,26.664074314431048L262.4164568010957,26.199708756197822L264.180667637665,22.639939855690017L266.3314019525167,17.323436617164106" fill="none"></path></g><g><path style="fill: none;" stroke="rgb(0, 119, 187)" stroke-width="2px" d="M19.706089370084293,187.0185309026709L21.394720156438357,163.95210514284264L23.100597397203963,163.50514804952962L27.097716831409432,143.67491397026137L28.811710050721647,129.4447523412315L32.81238022554126,98.46308560218196L36.81761563829334,109.2622065878701L38.53769584151552,106.92118753718337L42.545467497563415,77.81517802301656L44.27163468469554,86.22750408489945L48.25911639437692,97.34946819864112L49.97260236502997,75.97512425500379L53.6648653550784,70.08141504707501L57.56256405208789,63.300608220109424L61.499320895852954,50.09980073219032L63.19556041209446,50.79760751278744L67.12572302329039,65.59165658685349L71.04624790996223,62.59535565029944L72.72219747983722,58.097836790053236L76.67721527533214,59.80942447657645L78.35975907777625,54.152564774806166L80.04534637217533,54.07108057454708L83.9927554377828,57.2557809522407L85.6768209862044,64.96600055243171L87.37965473501504,45.58917308811863L91.35445522821733,46.74699331071895L93.07402818278035,51.77426434291982L97.04679968134599,44.41882086818117L98.75014067881577,49.33204548110052L100.45145268164892,49.47178511667997L102.14617045191292,43.94139896125776L106.11894195047859,51.00881623778331L107.85068887286151,47.4941415536351L111.75143106182597,47.93391503341181L113.7337588218355,48.17013531794666L115.05209808700046,32.87826706932478L116.53377142041596,46.283571584921134L120.41067292239978,55.77233853941584L122.09524571948053,54.97663536121017L126.04722002302049,41.3646315422539L127.73382181473791,43.57267508981511L131.6228972845416,45.895394278281486L133.30594833564487,41.30994169613405L137.22140073572507,35.983108735953664L138.92879972246817,42.00255739833628L142.87215079880235,40.39641676890511L144.5815787801821,30.07366898743433L148.57159673315928,33.884654621173325L150.26834349805995,40.97556283831412L154.21270907171245,36.679499767897624L155.88713689560996,39.47576066327508L157.2196791232315,45.71926465880253L158.7662802850199,38.473463051980076L160.49853445606198,45.99187492723689L164.5083351067465,32.32182541350147L166.31008234409396,32.588929992729135L168.1407427550137,31.69711321151516L172.2778628191482,36.76565069519859L174.10700148409046,33.42018419266947L175.9483141168526,33.72320683957892L177.78556876034148,30.990182717375518L181.95413824134408,44.60260601741419L186.12473671698334,32.74953881215873L187.96807834438215,35.26411816069461L189.80330399323435,45.03105350796565L193.97440971753278,29.796759037905247L195.79644690124672,29.93214655725464L197.63573053937225,29.911382243675092L201.79872028512406,37.86484843653142L203.63191693933962,26.776442809382957L207.81266038816213,30.15211194984593L209.81477084587902,27.113967775320987L211.53282205446453,29.08374606807058L213.24681527377678,26.15325122632038L217.30835528769595,28.76410148327045L219.07307337292448,34.97687848951102L223.2497588324737,29.987885106080512L225.04186834529705,33.521541309207976L229.13232153278852,25.76381547643348L230.89602512069877,33.952767861930454L232.66530844385974,38.82855378824428L234.4077075880851,46.72470837821567L236.13793276449053,27.80092048291064L237.88388264933005,34.98154521655289L239.65722396176434,34.20204449515549L241.42650728492532,32.131381002085135L243.22774727361363,39.057013672754465L245.03355250023435,31.12095594481835L246.8322562456268,36.46855321857828L248.60762655269775,32.993991412936L252.6656158260028,32.224820413193044L254.40497147827318,38.05455875605355L258.4563665190091,36.708653703125464L262.579283620687,38.9033262911847L266.3314019525167,30.145977039015605" fill="none"></path></g><g><path style="fill: none;" stroke="rgb(255, 112, 67)" stroke-width="2px" d="M18.497315815298553,181.98307998936295L22.445739378224363,146.47112243050353L24.124732440054323,125.36393550122915L28.097503938619962,116.50486208657443L32.09005813489296,105.62373254927421L33.77158744001874,108.24412600084923L35.44500076659791,98.13096145518L37.12855906636034,100.60867890359866L41.085605856491924,87.50340823219955L44.632795730019694,67.76105543969723L46.19867234085628,75.55857954016584L50.03042871217457,77.79021889861289L51.73732045025851,77.20714019405622L55.7009614729592,82.32150598599348L57.37589654551586,70.4446856644463L61.3486680440815,69.94324846555462L63.05708152814292,52.9960554305884L67.02122979950279,71.65798226019596L68.68906339083117,58.3681399125343L72.6658928786701,54.71650465497764L74.38140784395982,60.00579405828192L76.09692280924952,49.063577588355L77.83374221822407,59.87297586056229L82.08702222530692,46.835556254243784L84.26768421104923,36.156721468938116L86.26117144156034,46.135861808775815L90.86851101273905,53.513904826829545L92.89902739536906,43.93877720449268L97.51448294509439,40.736406186202345L99.56884001470506,42.97674977710949L104.26089011196403,36.25037062058723L106.34416035514701,55.79200171515404L111.06512362597827,53.67283572192949L113.15295910709371,31.6141608274676L114.15680420357755,40.87378624069319L116.36739386021047,40.144465943779664L120.9716899394342,26.801244628380715L123.0422789661381,60.24673350499394L127.72976382546459,29.06528890044433L129.83484576099158,34.66887450474792L131.9368842045636,29.403757698817827L136.68523890298965,29.639610937405564L141.4117819090717,29.876093397616927L143.50367537946045,34.46159841489967L145.60723556900996,32.794265982571204L147.71738999112858,35.64521672406849L152.4566142136897,37.51500121379743L154.57082662508162,35.474435488390355L159.3024421177553,33.29308142469779L161.39890082607653,33.67528112591302L164.8816701198906,34.030738908124306L166.82088174387124,26.67277854689118L170.7769140366845,40.42231972574422L174.7583087624559,44.78607655583539L178.8112255491693,30.56372776196551L180.5490594554622,29.15972457912295L184.60755597742641,29.07441261398685L186.3793755438832,40.40606483380063L190.24410307804712,27.89745356700135L192.20411189705345,25.923480463427637L196.19260810405316,36.935802709253096L197.91826804252614,37.881522809557396L199.65305845686404,28.41907829298424L203.68264180525594,28.967182762294556L205.42656269545878,35.77195244609311L205.46156285294103,27.096769050941987L206.71751053302896,40.33013875788353L208.22809704001676,22.896504972722028L212.14912917534778,33.73584370718666L213.88696308164063,32.74675974998772L215.60653603620366,36.98519660670746L216.8538604890858,34.77243389696909L218.3669832393694,28.696512593866373L220.08757069125076,31.514848681205905L224.0177333024467,32.25680584572717L225.77534990644693,32.33205026488534L229.80442600617968,29.60075650214688L231.58385430252395,39.140700148696226L233.34907963641163,29.609775345418797L237.4055471637392,36.16154550138589L239.1900479466751,31.29813426700332L243.27695039355243,32.10642187768144L245.0401467328035,29.482357966635306L249.1615420885039,27.834478969503834L250.99169525076448,37.225087350713466L255.0938151574167,37.051264877187805L256.8879536648767,28.459348476896054L258.67600518842676,25.44873274840461L262.69087832570295,34.58398202069421L266.3314019525167,28.34593127923813" fill="none"></path></g></g></g></g></g></g><g transform="translate(51, 177)" clip-path="url(#clip_1)"><clipPath id="clip_1"><rect width="278" height="22"></rect></clipPath><g><g><line x1="12.707072370951414" y1="0" x2="12.707072370951414" y2="5" style="visibility: inherit;" fill="rgb(0, 0, 0)" stroke="rgb(204, 204, 204)" stroke-width="1px"></line><line x1="38.06950532910795" y1="0" x2="38.06950532910795" y2="5" style="visibility: inherit;" fill="rgb(0, 0, 0)" stroke="rgb(204, 204, 204)" stroke-width="1px"></line><line x1="63.43193828726448" y1="0" x2="63.43193828726448" y2="5" style="visibility: inherit;" fill="rgb(0, 0, 0)" stroke="rgb(204, 204, 204)" stroke-width="1px"></line><line x1="88.79437124542102" y1="0" x2="88.79437124542102" y2="5" style="visibility: inherit;" fill="rgb(0, 0, 0)" stroke="rgb(204, 204, 204)" stroke-width="1px"></line><line x1="114.15680420357755" y1="0" x2="114.15680420357755" y2="5" style="visibility: inherit;" fill="rgb(0, 0, 0)" stroke="rgb(204, 204, 204)" stroke-width="1px"></line><line x1="139.51923716173405" y1="0" x2="139.51923716173405" y2="5" style="visibility: inherit;" fill="rgb(0, 0, 0)" stroke="rgb(204, 204, 204)" stroke-width="1px"></line><line x1="164.8816701198906" y1="0" x2="164.8816701198906" y2="5" style="visibility: inherit;" fill="rgb(0, 0, 0)" stroke="rgb(204, 204, 204)" stroke-width="1px"></line><line x1="190.24410307804712" y1="0" x2="190.24410307804712" y2="5" style="visibility: inherit;" fill="rgb(0, 0, 0)" stroke="rgb(204, 204, 204)" stroke-width="1px"></line><line x1="215.60653603620366" y1="0" x2="215.60653603620366" y2="5" style="visibility: inherit;" fill="rgb(0, 0, 0)" stroke="rgb(204, 204, 204)" stroke-width="1px"></line><line x1="240.96896899436018" y1="0" x2="240.96896899436018" y2="5" style="visibility: inherit;" fill="rgb(0, 0, 0)" stroke="rgb(204, 204, 204)" stroke-width="1px"></line><line x1="266.3314019525167" y1="0" x2="266.3314019525167" y2="5" style="visibility: inherit;" fill="rgb(0, 0, 0)" stroke="rgb(204, 204, 204)" stroke-width="1px"></line></g><g transform="translate(0, 8)"><text style="text-anchor: middle; visibility: inherit; font-family: &quot;Helvetica Neue&quot;, sans-serif; font-size: 12px; font-weight: 200;" x="12.707072370951414" y="0" dx="0em" dy="0.95em" fill="rgb(50, 49, 63)" stroke="none" stroke-width="1px">0</text><text style="text-anchor: middle; visibility: hidden; font-family: &quot;Helvetica Neue&quot;, sans-serif; font-size: 12px; font-weight: 200;" x="38.06950532910795" y="0" dx="0em" dy="0.95em" fill="rgb(50, 49, 63)" stroke="none" stroke-width="1px">50k</text><text style="text-anchor: middle; visibility: inherit; font-family: &quot;Helvetica Neue&quot;, sans-serif; font-size: 12px; font-weight: 200;" x="63.43193828726448" y="0" dx="0em" dy="0.95em" fill="rgb(50, 49, 63)" stroke="none" stroke-width="1px">100k</text><text style="text-anchor: middle; visibility: hidden; font-family: &quot;Helvetica Neue&quot;, sans-serif; font-size: 12px; font-weight: 200;" x="88.79437124542102" y="0" dx="0em" dy="0.95em" fill="rgb(50, 49, 63)" stroke="none" stroke-width="1px">150k</text><text style="text-anchor: middle; visibility: inherit; font-family: &quot;Helvetica Neue&quot;, sans-serif; font-size: 12px; font-weight: 200;" x="114.15680420357755" y="0" dx="0em" dy="0.95em" fill="rgb(50, 49, 63)" stroke="none" stroke-width="1px">200k</text><text style="text-anchor: middle; visibility: hidden; font-family: &quot;Helvetica Neue&quot;, sans-serif; font-size: 12px; font-weight: 200;" x="139.51923716173405" y="0" dx="0em" dy="0.95em" fill="rgb(50, 49, 63)" stroke="none" stroke-width="1px">250k</text><text style="text-anchor: middle; visibility: inherit; font-family: &quot;Helvetica Neue&quot;, sans-serif; font-size: 12px; font-weight: 200;" x="164.8816701198906" y="0" dx="0em" dy="0.95em" fill="rgb(50, 49, 63)" stroke="none" stroke-width="1px">300k</text><text style="text-anchor: middle; visibility: hidden; font-family: &quot;Helvetica Neue&quot;, sans-serif; font-size: 12px; font-weight: 200;" x="190.24410307804712" y="0" dx="0em" dy="0.95em" fill="rgb(50, 49, 63)" stroke="none" stroke-width="1px">350k</text><text style="text-anchor: middle; visibility: inherit; font-family: &quot;Helvetica Neue&quot;, sans-serif; font-size: 12px; font-weight: 200;" x="215.60653603620366" y="0" dx="0em" dy="0.95em" fill="rgb(50, 49, 63)" stroke="none" stroke-width="1px">400k</text><text style="text-anchor: middle; visibility: hidden; font-family: &quot;Helvetica Neue&quot;, sans-serif; font-size: 12px; font-weight: 200;" x="240.96896899436018" y="0" dx="0em" dy="0.95em" fill="rgb(50, 49, 63)" stroke="none" stroke-width="1px">450k</text><text style="text-anchor: middle; visibility: hidden; font-family: &quot;Helvetica Neue&quot;, sans-serif; font-size: 12px; font-weight: 200;" x="266.3314019525167" y="0" dx="0em" dy="0.95em" fill="rgb(50, 49, 63)" stroke="none" stroke-width="1px">500k</text></g><line x1="0" y1="0" x2="278.58399963378906" y2="0" fill="rgb(0, 0, 0)" stroke="rgb(204, 204, 204)" stroke-width="1px"></line></g></g></g></g></svg>