<svg viewBox="0 0 330 200" xmlns="http://www.w3.org/2000/svg"><g><g><g><g><g><line x1="58" y1="178" x2="53" y2="178" style="visibility: inherit;" fill="rgb(0, 0, 0)" stroke="rgb(204, 204, 204)" stroke-width="1px"></line><line x1="58" y1="152.57142857142858" x2="53" y2="152.57142857142858" style="visibility: inherit;" fill="rgb(0, 0, 0)" stroke="rgb(204, 204, 204)" stroke-width="1px"></line><line x1="58" y1="127.14285714285715" x2="53" y2="127.14285714285715" style="visibility: inherit;" fill="rgb(0, 0, 0)" stroke="rgb(204, 204, 204)" stroke-width="1px"></line><line x1="58" y1="101.7142857142857" x2="53" y2="101.7142857142857" style="visibility: inherit;" fill="rgb(0, 0, 0)" stroke="rgb(204, 204, 204)" stroke-width="1px"></line><line x1="58" y1="76.2857142857143" x2="53" y2="76.2857142857143" style="visibility: inherit;" fill="rgb(0, 0, 0)" stroke="rgb(204, 204, 204)" stroke-width="1px"></line><line x1="58" y1="50.85714285714286" x2="53" y2="50.85714285714286" style="visibility: inherit;" fill="rgb(0, 0, 0)" stroke="rgb(204, 204, 204)" stroke-width="1px"></line><line x1="58" y1="25.428571428571445" x2="53" y2="25.428571428571445" style="visibility: inherit;" fill="rgb(0, 0, 0)" stroke="rgb(204, 204, 204)" stroke-width="1px"></line><line x1="58" y1="0" x2="53" y2="0" style="visibility: inherit;" fill="rgb(0, 0, 0)" stroke="rgb(204, 204, 204)" stroke-width="1px"></line></g><g transform="translate(48, 0)"><text x="0" y="178" dx="0em" dy="0.3em" style="text-anchor: end; visibility: hidden; font-family: &quot;Helvetica Neue&quot;, sans-serif; font-size: 12px; font-weight: 200;" fill="rgb(50, 49, 63)" stroke="none" stroke-width="1px">0.4</text><text x="0" y="152.57142857142858" dx="0em" dy="0.3em" style="text-anchor: end; visibility: inherit; font-family: &quot;Helvetica Neue&quot;, sans-serif; font-size: 12px; font-weight: 200;" fill="rgb(50, 49, 63)" stroke="none" stroke-width="1px">0.45</text><text x="0" y="127.14285714285715" dx="0em" dy="0.3em" style="text-anchor: end; visibility: inherit; font-family: &quot;Helvetica Neue&quot;, sans-serif; font-size: 12px; font-weight: 200;" fill="rgb(50, 49, 63)" stroke="none" stroke-width="1px">0.5</text><text x="0" y="101.7142857142857" dx="0em" dy="0.3em" style="text-anchor: end; visibility: inherit; font-family: &quot;Helvetica Neue&quot;, sans-serif; font-size: 12px; font-weight: 200;" fill="rgb(50, 49, 63)" stroke="none" stroke-width="1px">0.55</text><text x="0" y="76.2857142857143" dx="0em" dy="0.3em" style="text-anchor: end; visibility: inherit; font-family: &quot;Helvetica Neue&quot;, sans-serif; font-size: 12px; font-weight: 200;" fill="rgb(50, 49, 63)" stroke="none" stroke-width="1px">0.6</text><text x="0" y="50.85714285714286" dx="0em" dy="0.3em" style="text-anchor: end; visibility: inherit; font-family: &quot;Helvetica Neue&quot;, sans-serif; font-size: 12px; font-weight: 200;" fill="rgb(50, 49, 63)" stroke="none" stroke-width="1px">0.65</text><text x="0" y="25.428571428571445" dx="0em" dy="0.3em" style="text-anchor: end; visibility: inherit; font-family: &quot;Helvetica Neue&quot;, sans-serif; font-size: 12px; font-weight: 200;" fill="rgb(50, 49, 63)" stroke="none" stroke-width="1px">0.7</text><text x="0" y="0" dx="0em" dy="0.3em" style="text-anchor: end; visibility: hidden; font-family: &quot;Helvetica Neue&quot;, sans-serif; font-size: 12px; font-weight: 200;" fill="rgb(50, 49, 63)" stroke="none" stroke-width="1px">0.75</text></g><line x1="58" y1="0" x2="58" y2="178" fill="rgb(0, 0, 0)" stroke="rgb(204, 204, 204)" stroke-width="1px"></line></g></g><g transform="translate(58, 0)" clip-path="url(#clip_0)"><clipPath id="clip_0"><rect width="272" height="178"></rect></clipPath><g><g><g><line x1="0" y1="0" x2="0" y2="178" fill="rgb(0, 0, 0)" stroke="rgb(60, 60, 60)" stroke-width="1px" opacity="0.25"></line><line x1="22.666666666666664" y1="0" x2="22.666666666666664" y2="178" fill="rgb(0, 0, 0)" stroke="rgb(60, 60, 60)" stroke-width="1px" opacity="0.25"></line><line x1="45.33333333333333" y1="0" x2="45.33333333333333" y2="178" fill="rgb(0, 0, 0)" stroke="rgb(60, 60, 60)" stroke-width="1px" opacity="0.25"></line><line x1="68" y1="0" x2="68" y2="178" fill="rgb(0, 0, 0)" stroke="rgb(60, 60, 60)" stroke-width="1px" opacity="0.25"></line><line x1="90.66666666666666" y1="0" x2="90.66666666666666" y2="178" fill="rgb(0, 0, 0)" stroke="rgb(60, 60, 60)" stroke-width="1px" opacity="0.25"></line><line x1="113.33333333333334" y1="0" x2="113.33333333333334" y2="178" fill="rgb(0, 0, 0)" stroke="rgb(60, 60, 60)" stroke-width="1px" opacity="0.25"></line><line x1="136" y1="0" x2="136" y2="178" fill="rgb(0, 0, 0)" stroke="rgb(60, 60, 60)" stroke-width="1px" opacity="0.25"></line><line x1="158.66666666666669" y1="0" x2="158.66666666666669" y2="178" fill="rgb(0, 0, 0)" stroke="rgb(60, 60, 60)" stroke-width="1px" opacity="0.25"></line><line x1="181.33333333333331" y1="0" x2="181.33333333333331" y2="178" fill="rgb(0, 0, 0)" stroke="rgb(60, 60, 60)" stroke-width="1px" opacity="0.25"></line><line x1="204" y1="0" x2="204" y2="178" fill="rgb(0, 0, 0)" stroke="rgb(60, 60, 60)" stroke-width="1px" opacity="0.25"></line><line x1="226.66666666666669" y1="0" x2="226.66666666666669" y2="178" fill="rgb(0, 0, 0)" stroke="rgb(60, 60, 60)" stroke-width="1px" opacity="0.25"></line><line x1="249.33333333333331" y1="0" x2="249.33333333333331" y2="178" fill="rgb(0, 0, 0)" stroke="rgb(60, 60, 60)" stroke-width="1px" opacity="0.25"></line><line x1="272" y1="0" x2="272" y2="178" fill="rgb(0, 0, 0)" stroke="rgb(60, 60, 60)" stroke-width="1px" opacity="0.25"></line></g><g><line x1="0" y1="178" x2="272" y2="178" fill="rgb(0, 0, 0)" stroke="rgb(60, 60, 60)" stroke-width="1px" opacity="0.25"></line><line x1="0" y1="152.57142857142858" x2="272" y2="152.57142857142858" fill="rgb(0, 0, 0)" stroke="rgb(60, 60, 60)" stroke-width="1px" opacity="0.25"></line><line x1="0" y1="127.14285714285715" x2="272" y2="127.14285714285715" fill="rgb(0, 0, 0)" stroke="rgb(60, 60, 60)" stroke-width="1px" opacity="0.25"></line><line x1="0" y1="101.7142857142857" x2="272" y2="101.7142857142857" fill="rgb(0, 0, 0)" stroke="rgb(60, 60, 60)" stroke-width="1px" opacity="0.25"></line><line x1="0" y1="76.2857142857143" x2="272" y2="76.2857142857143" fill="rgb(0, 0, 0)" stroke="rgb(60, 60, 60)" stroke-width="1px" opacity="0.25"></line><line x1="0" y1="50.85714285714286" x2="272" y2="50.85714285714286" fill="rgb(0, 0, 0)" stroke="rgb(60, 60, 60)" stroke-width="1px" opacity="0.25"></line><line x1="0" y1="25.428571428571445" x2="272" y2="25.428571428571445" fill="rgb(0, 0, 0)" stroke="rgb(60, 60, 60)" stroke-width="1px" opacity="0.25"></line><line x1="0" y1="0" x2="272" y2="0" fill="rgb(0, 0, 0)" stroke="rgb(60, 60, 60)" stroke-width="1px" opacity="0.25"></line></g></g></g><g><g><line x1="0" y1="381.42857142857144" x2="272" y2="381.42857142857144" fill="rgb(0, 0, 0)" stroke="rgb(153, 153, 153)" stroke-width="1.5px"></line></g></g><g><g><line x1="22.666666666666664" y1="0" x2="22.666666666666664" y2="178" fill="rgb(0, 0, 0)" stroke="rgb(153, 153, 153)" stroke-width="1.5px"></line></g></g><g><g><g><g><g><path stroke="rgb(255, 112, 67)" stroke-width="2px" d="M27.23966666666667,186.41477993556433L31.760533333333335,153.70049785290448L42.15546666666667,126.8781618022363L46.77719999999999,107.51390747350308L57.1812,92.86222815915426L67.56933333333333,79.99575248678916L77.7512,68.50101163179696L82.31173333333332,63.72496476907061L86.8938,58.054747572085674L97.1584,56.76839770002685L101.58179999999999,53.59313037011228L111.68093333333334,51.03181298121969L116.12133333333334,50.55283538514432L120.55946666666667,49.76855339269716L130.82973333333334,47.59910482075429L141.24053333333333,47.12221023369224L151.5958,47.051638185683174L156.1994,46.89425831411262L160.76786666666666,45.00506741699789L171.09366666666668,46.67059693589667L175.6338,44.803273515512984L185.97093333333333,45.45233583335454L190.5428,44.77226043066079L195.03873333333334,43.13457524511489L205.27273333333335,42.80107397404427L215.48633333333333,41.56981333950597L225.6024666666667,42.27668508774087L230.04966666666667,40.80401137225695L234.45833333333331,40.43432610656606L238.86473333333333,41.477049446704655L249.1123333333333,42.25387353610495L249.33333333333331,42.18126559733841" style="fill: none;" fill="none"></path></g><g><path stroke="rgb(0, 119, 187)" stroke-width="2px" d="M27.331466666666664,156.36836239269803L31.947533333333332,133.88467816369877L42.544200000000004,111.13232872228929L47.2736,93.43110604008207L57.897466666666666,78.77158072123129L62.61893333333333,71.79453395639749L73.26206666666667,65.70811288057793L77.99713333333332,59.02796029220788L88.64933333333335,53.2912698426003L93.3878,51.957818556549995L98.11720000000001,47.59447030748751L108.7286,45.08769289163931L113.45573333333334,42.9384583535288L124.08073333333334,42.3890572789378L128.7954,40.26123641542503L133.51573333333334,38.67000773650017L136,39.1623859783395" style="fill: none;" fill="none"></path></g><g><path stroke="rgb(204, 51, 17)" stroke-width="2px" d="M25.37533333333333,221.83376090867182L33.492266666666666,164.42959849323546L37.182399999999994,139.16411980943153L40.98813333333334,123.45930439083517L44.87886666666667,114.15110267590188L53.617999999999995,98.59119337532844L62.410399999999996,85.66649773467113L66.29206666666667,75.77670424871911L75.22386666666667,76.6938434011836L84.26333333333334,71.62742961148679L93.33226666666667,59.660068972837266L97.2978,57.39121140248369L106.23753333333333,54.014426513602444L110.14753333333333,54.56640276027032L118.91726666666666,47.489691390601536L122.74340000000001,43.34493475278856L131.59133333333332,41.95893667482915L135.422,41.18189968146132L144.2586,41.19538510476269L152.78013333333334,36.94282132845581L156.53486666666666,34.07569378086848L165.63666666666668,38.01913270171906L169.67473333333334,37.868697120871104L173.75019999999998,36.3899875055003L183.01293333333334,35.96778445264033L187.13373333333334,34.92131058941544L191.24433333333332,33.71081886716402L195.36626666666666,33.17226057204877L204.61086666666665,33.68122398419905L213.68206666666669,32.25109696868637L217.63853333333333,31.858874578378305L226.56466666666668,28.953928489220857L230.46333333333334,33.43593850175375L239.21833333333333,31.58279320063255L248.24079999999998,28.952492620375892L252.07373333333334,27.686332333719434L260.8922,29.328934567301047" style="fill: none;" fill="none"></path></g></g></g></g><g opacity="0.2"><g><g><g><path stroke="rgb(255, 112, 67)" stroke-width="2px" d="M27.23966666666667,186.41477993556433L31.760533333333335,134.07192860330855L42.15546666666667,101.1287191935948L46.77719999999999,84.74154438291278L57.1812,73.73299564634051L67.56933333333333,62.19678470066616L77.7512,52.06334829330444L82.31173333333332,56.76144259316581L86.8938,49.69227858952115L97.1584,54.85831805637905L101.58179999999999,48.859028816223145L111.68093333333334,47.20377547400338L116.12133333333334,49.835932935987216L120.55946666666667,48.59366689409529L130.82973333333334,44.347482068198076L141.24053333333333,46.40720469611031L151.5958,46.945809977395186L156.1994,46.658228465488975L160.76786666666666,42.171568870544434L171.09366666666668,49.16873897824968L175.6338,42.00239079339164L185.97093333333333,46.4259079524449L190.5428,43.75216075352262L195.03873333333334,40.67806686673845L205.27273333333335,42.30082443782263L215.48633333333333,39.72292763846261L225.6024666666667,43.33699090140206L230.04966666666667,38.59500305993217L234.45833333333331,39.87979854856218L238.86473333333333,43.041133880615234L249.1123333333333,43.41910941260201L249.33333333333331,42.07235370363509" style="fill: none;" fill="none"></path></g><g><path stroke="rgb(0, 119, 187)" stroke-width="2px" d="M27.331466666666664,156.36836239269803L31.947533333333332,120.39446762629919L42.544200000000004,89.29007325853621L47.2736,72.61446816580636L57.897466666666666,59.63210446493966L62.61893333333333,62.14276654379708L73.26206666666667,57.0044333594186L77.99713333333332,49.28823368889945L88.64933333333335,44.83076572418213L93.3878,49.97779880251204L98.11720000000001,41.08902318137032L108.7286,41.34116853986467L113.45573333333334,39.72162417003088L124.08073333333334,41.5660320009504L128.7954,37.07200629370553L133.51573333333334,36.284286975860596L136,39.900744983128135" style="fill: none;" fill="none"></path></g><g><path stroke="rgb(204, 51, 17)" stroke-width="2px" d="M25.37533333333333,221.8337609086718L33.492266666666666,129.98710104397367L37.182399999999994,114.90926027297974L40.98813333333334,104.99044145856585L44.87886666666667,101.99831451688495L53.617999999999995,77.06623724528723L62.410399999999996,67.18397617340088L66.29206666666667,61.35729040418353L75.22386666666667,78.04644550595965L84.26333333333334,64.10439559391567L93.33226666666667,41.8175710950579L97.2978,54.000272069658564L106.23753333333333,48.960274968828486L110.14753333333333,55.39328575134277L118.91726666666666,36.88294274466378L122.74340000000001,37.130722999572754L131.59133333333332,39.880526065826416L135.422,40.016541481018066L144.2586,41.21561118534635L152.78013333333334,30.564364365168984L156.53486666666666,29.77515969957625L165.63666666666668,43.93416132245744L169.67473333333334,37.643046719687334L173.75019999999998,34.17194059916906L183.01293333333334,35.33448287418912L187.13373333333334,33.35160425731115L191.24433333333332,31.895084381103516L195.36626666666666,32.36442395618985L204.61086666666665,34.444668633597246L213.68206666666669,30.105907235826777L217.63853333333333,31.270541122981484L226.56466666666668,24.59650993347168L230.46333333333334,40.158952985491084L239.21833333333333,28.803075381687705L248.24079999999998,25.007041863032754L252.07373333333334,25.787091936383945L260.8922,31.792837892259882" style="fill: none;" fill="none"></path></g></g></g></g></g></g><g transform="translate(58, 178)" clip-path="url(#clip_1)"><clipPath id="clip_1"><rect width="272" height="22"></rect></clipPath><g><g><line x1="0" y1="0" x2="0" y2="5" style="visibility: inherit;" fill="rgb(0, 0, 0)" stroke="rgb(204, 204, 204)" stroke-width="1px"></line><line x1="22.666666666666664" y1="0" x2="22.666666666666664" y2="5" style="visibility: inherit;" fill="rgb(0, 0, 0)" stroke="rgb(204, 204, 204)" stroke-width="1px"></line><line x1="45.33333333333333" y1="0" x2="45.33333333333333" y2="5" style="visibility: inherit;" fill="rgb(0, 0, 0)" stroke="rgb(204, 204, 204)" stroke-width="1px"></line><line x1="68" y1="0" x2="68" y2="5" style="visibility: inherit;" fill="rgb(0, 0, 0)" stroke="rgb(204, 204, 204)" stroke-width="1px"></line><line x1="90.66666666666666" y1="0" x2="90.66666666666666" y2="5" style="visibility: inherit;" fill="rgb(0, 0, 0)" stroke="rgb(204, 204, 204)" stroke-width="1px"></line><line x1="113.33333333333334" y1="0" x2="113.33333333333334" y2="5" style="visibility: inherit;" fill="rgb(0, 0, 0)" stroke="rgb(204, 204, 204)" stroke-width="1px"></line><line x1="136" y1="0" x2="136" y2="5" style="visibility: inherit;" fill="rgb(0, 0, 0)" stroke="rgb(204, 204, 204)" stroke-width="1px"></line><line x1="158.66666666666669" y1="0" x2="158.66666666666669" y2="5" style="visibility: inherit;" fill="rgb(0, 0, 0)" stroke="rgb(204, 204, 204)" stroke-width="1px"></line><line x1="181.33333333333331" y1="0" x2="181.33333333333331" y2="5" style="visibility: inherit;" fill="rgb(0, 0, 0)" stroke="rgb(204, 204, 204)" stroke-width="1px"></line><line x1="204" y1="0" x2="204" y2="5" style="visibility: inherit;" fill="rgb(0, 0, 0)" stroke="rgb(204, 204, 204)" stroke-width="1px"></line><line x1="226.66666666666669" y1="0" x2="226.66666666666669" y2="5" style="visibility: inherit;" fill="rgb(0, 0, 0)" stroke="rgb(204, 204, 204)" stroke-width="1px"></line><line x1="249.33333333333331" y1="0" x2="249.33333333333331" y2="5" style="visibility: inherit;" fill="rgb(0, 0, 0)" stroke="rgb(204, 204, 204)" stroke-width="1px"></line><line x1="272" y1="0" x2="272" y2="5" style="visibility: inherit;" fill="rgb(0, 0, 0)" stroke="rgb(204, 204, 204)" stroke-width="1px"></line></g><g transform="translate(0, 8)"><text x="0" y="0" dx="0em" dy="0.95em" style="text-anchor: middle; visibility: hidden; font-family: &quot;Helvetica Neue&quot;, sans-serif; font-size: 12px; font-weight: 200;" fill="rgb(50, 49, 63)" stroke="none" stroke-width="1px">-20k</text><text x="22.666666666666664" y="0" dx="0em" dy="0.95em" style="text-anchor: middle; visibility: inherit; font-family: &quot;Helvetica Neue&quot;, sans-serif; font-size: 12px; font-weight: 200;" fill="rgb(50, 49, 63)" stroke="none" stroke-width="1px">0</text><text x="45.33333333333333" y="0" dx="0em" dy="0.95em" style="text-anchor: middle; visibility: hidden; font-family: &quot;Helvetica Neue&quot;, sans-serif; font-size: 12px; font-weight: 200;" fill="rgb(50, 49, 63)" stroke="none" stroke-width="1px">20k</text><text x="68" y="0" dx="0em" dy="0.95em" style="text-anchor: middle; visibility: inherit; font-family: &quot;Helvetica Neue&quot;, sans-serif; font-size: 12px; font-weight: 200;" fill="rgb(50, 49, 63)" stroke="none" stroke-width="1px">40k</text><text x="90.66666666666666" y="0" dx="0em" dy="0.95em" style="text-anchor: middle; visibility: hidden; font-family: &quot;Helvetica Neue&quot;, sans-serif; font-size: 12px; font-weight: 200;" fill="rgb(50, 49, 63)" stroke="none" stroke-width="1px">60k</text><text x="113.33333333333334" y="0" dx="0em" dy="0.95em" style="text-anchor: middle; visibility: inherit; font-family: &quot;Helvetica Neue&quot;, sans-serif; font-size: 12px; font-weight: 200;" fill="rgb(50, 49, 63)" stroke="none" stroke-width="1px">80k</text><text x="136" y="0" dx="0em" dy="0.95em" style="text-anchor: middle; visibility: hidden; font-family: &quot;Helvetica Neue&quot;, sans-serif; font-size: 12px; font-weight: 200;" fill="rgb(50, 49, 63)" stroke="none" stroke-width="1px">100k</text><text x="158.66666666666669" y="0" dx="0em" dy="0.95em" style="text-anchor: middle; visibility: inherit; font-family: &quot;Helvetica Neue&quot;, sans-serif; font-size: 12px; font-weight: 200;" fill="rgb(50, 49, 63)" stroke="none" stroke-width="1px">120k</text><text x="181.33333333333331" y="0" dx="0em" dy="0.95em" style="text-anchor: middle; visibility: hidden; font-family: &quot;Helvetica Neue&quot;, sans-serif; font-size: 12px; font-weight: 200;" fill="rgb(50, 49, 63)" stroke="none" stroke-width="1px">140k</text><text x="204" y="0" dx="0em" dy="0.95em" style="text-anchor: middle; visibility: inherit; font-family: &quot;Helvetica Neue&quot;, sans-serif; font-size: 12px; font-weight: 200;" fill="rgb(50, 49, 63)" stroke="none" stroke-width="1px">160k</text><text x="226.66666666666669" y="0" dx="0em" dy="0.95em" style="text-anchor: middle; visibility: hidden; font-family: &quot;Helvetica Neue&quot;, sans-serif; font-size: 12px; font-weight: 200;" fill="rgb(50, 49, 63)" stroke="none" stroke-width="1px">180k</text><text x="249.33333333333331" y="0" dx="0em" dy="0.95em" style="text-anchor: middle; visibility: inherit; font-family: &quot;Helvetica Neue&quot;, sans-serif; font-size: 12px; font-weight: 200;" fill="rgb(50, 49, 63)" stroke="none" stroke-width="1px">200k</text><text x="272" y="0" dx="0em" dy="0.95em" style="text-anchor: middle; visibility: hidden; font-family: &quot;Helvetica Neue&quot;, sans-serif; font-size: 12px; font-weight: 200;" fill="rgb(50, 49, 63)" stroke="none" stroke-width="1px">220k</text></g><line x1="0" y1="0" x2="272" y2="0" fill="rgb(0, 0, 0)" stroke="rgb(204, 204, 204)" stroke-width="1px"></line></g></g></g></g></svg>