<?xml version="1.0" encoding="UTF-8" standalone="no"?>
<!-- Created with Inkscape (http://www.inkscape.org/) -->

<svg
   xmlns:dc="http://purl.org/dc/elements/1.1/"
   xmlns:cc="http://creativecommons.org/ns#"
   xmlns:rdf="http://www.w3.org/1999/02/22-rdf-syntax-ns#"
   xmlns:svg="http://www.w3.org/2000/svg"
   xmlns="http://www.w3.org/2000/svg"
   xmlns:xlink="http://www.w3.org/1999/xlink"
   xmlns:sodipodi="http://sodipodi.sourceforge.net/DTD/sodipodi-0.dtd"
   xmlns:inkscape="http://www.inkscape.org/namespaces/inkscape"
   width="210mm"
   height="297mm"
   viewBox="0 0 210 297"
   version="1.1"
   id="svg1966"
   inkscape:version="0.92.3 (2405546, 2018-03-11)"
   sodipodi:docname="infer_workflow.svg">
  <defs
     id="defs1960">
    <marker
       inkscape:stockid="Tail"
       orient="auto"
       refY="0.0"
       refX="0.0"
       id="Tail"
       style="overflow:visible"
       inkscape:isstock="true">
      <g
         id="g2027"
         transform="scale(-1.2)"
         style="stroke:#000000;stroke-opacity:1;fill:#000000;fill-opacity:1">
        <path
           id="path2015"
           d="M -3.8048674,-3.9585227 L 0.54352094,0"
           style="fill:#000000;fill-rule:evenodd;stroke:#000000;stroke-width:0.8;stroke-linecap:round;stroke-opacity:1;fill-opacity:1" />
        <path
           id="path2017"
           d="M -1.2866832,-3.9585227 L 3.0617053,0"
           style="fill:#000000;fill-rule:evenodd;stroke:#000000;stroke-width:0.8;stroke-linecap:round;stroke-opacity:1;fill-opacity:1" />
        <path
           id="path2019"
           d="M 1.3053582,-3.9585227 L 5.6537466,0"
           style="fill:#000000;fill-rule:evenodd;stroke:#000000;stroke-width:0.8;stroke-linecap:round;stroke-opacity:1;fill-opacity:1" />
        <path
           id="path2021"
           d="M -3.8048674,4.1775838 L 0.54352094,0.21974226"
           style="fill:#000000;fill-rule:evenodd;stroke:#000000;stroke-width:0.8;stroke-linecap:round;stroke-opacity:1;fill-opacity:1" />
        <path
           id="path2023"
           d="M -1.2866832,4.1775838 L 3.0617053,0.21974226"
           style="fill:#000000;fill-rule:evenodd;stroke:#000000;stroke-width:0.8;stroke-linecap:round;stroke-opacity:1;fill-opacity:1" />
        <path
           id="path2025"
           d="M 1.3053582,4.1775838 L 5.6537466,0.21974226"
           style="fill:#000000;fill-rule:evenodd;stroke:#000000;stroke-width:0.8;stroke-linecap:round;stroke-opacity:1;fill-opacity:1" />
      </g>
    </marker>
    <marker
       inkscape:stockid="Arrow1Lstart"
       orient="auto"
       refY="0.0"
       refX="0.0"
       id="marker1827"
       style="overflow:visible"
       inkscape:isstock="true">
      <path
         id="path1825"
         d="M 0.0,0.0 L 5.0,-5.0 L -12.5,0.0 L 5.0,5.0 L 0.0,0.0 z "
         style="fill-rule:evenodd;stroke:#000000;stroke-width:1pt;stroke-opacity:1;fill:#000000;fill-opacity:1"
         transform="scale(0.8) translate(12.5,0)" />
    </marker>
    <marker
       inkscape:isstock="true"
       style="overflow:visible"
       id="marker1685"
       refX="0.0"
       refY="0.0"
       orient="auto"
       inkscape:stockid="Arrow1Lstart">
      <path
         transform="scale(0.8) translate(12.5,0)"
         style="fill-rule:evenodd;stroke:#000000;stroke-width:1pt;stroke-opacity:1;fill:#000000;fill-opacity:1"
         d="M 0.0,0.0 L 5.0,-5.0 L -12.5,0.0 L 5.0,5.0 L 0.0,0.0 z "
         id="path1683" />
    </marker>
    <marker
       inkscape:stockid="Arrow1Lstart"
       orient="auto"
       refY="0.0"
       refX="0.0"
       id="marker1627"
       style="overflow:visible"
       inkscape:isstock="true"
       inkscape:collect="always">
      <path
         id="path1625"
         d="M 0.0,0.0 L 5.0,-5.0 L -12.5,0.0 L 5.0,5.0 L 0.0,0.0 z "
         style="fill-rule:evenodd;stroke:#000000;stroke-width:1pt;stroke-opacity:1;fill:#000000;fill-opacity:1"
         transform="scale(0.8) translate(12.5,0)" />
    </marker>
    <marker
       inkscape:stockid="Arrow1Lstart"
       orient="auto"
       refY="0.0"
       refX="0.0"
       id="marker1265"
       style="overflow:visible"
       inkscape:isstock="true">
      <path
         id="path1263"
         d="M 0.0,0.0 L 5.0,-5.0 L -12.5,0.0 L 5.0,5.0 L 0.0,0.0 z "
         style="fill-rule:evenodd;stroke:#000000;stroke-width:1pt;stroke-opacity:1;fill:#000000;fill-opacity:1"
         transform="scale(0.8) translate(12.5,0)" />
    </marker>
    <marker
       inkscape:isstock="true"
       style="overflow:visible"
       id="marker1147"
       refX="0.0"
       refY="0.0"
       orient="auto"
       inkscape:stockid="Arrow1Lstart">
      <path
         transform="scale(0.8) translate(12.5,0)"
         style="fill-rule:evenodd;stroke:#000000;stroke-width:1pt;stroke-opacity:1;fill:#000000;fill-opacity:1"
         d="M 0.0,0.0 L 5.0,-5.0 L -12.5,0.0 L 5.0,5.0 L 0.0,0.0 z "
         id="path1145" />
    </marker>
    <marker
       inkscape:stockid="Arrow1Lstart"
       orient="auto"
       refY="0"
       refX="0"
       id="marker20300"
       style="overflow:visible"
       inkscape:isstock="true">
      <path
         inkscape:connector-curvature="0"
         id="path20298"
         d="M 0,0 5,-5 -12.5,0 5,5 Z"
         style="fill:#000000;fill-opacity:1;fill-rule:evenodd;stroke:#000000;stroke-width:1.00000003pt;stroke-opacity:1"
         transform="matrix(0.8,0,0,0.8,10,0)" />
    </marker>
    <marker
       inkscape:isstock="true"
       style="overflow:visible"
       id="marker19215"
       refX="0.0"
       refY="0.0"
       orient="auto"
       inkscape:stockid="Arrow1Lstart">
      <path
         transform="scale(0.8) translate(12.5,0)"
         style="fill-rule:evenodd;stroke:#000000;stroke-width:1pt;stroke-opacity:1;fill:#000000;fill-opacity:1"
         d="M 0.0,0.0 L 5.0,-5.0 L -12.5,0.0 L 5.0,5.0 L 0.0,0.0 z "
         id="path19213" />
    </marker>
    <marker
       inkscape:isstock="true"
       style="overflow:visible"
       id="marker19121"
       refX="0.0"
       refY="0.0"
       orient="auto"
       inkscape:stockid="Arrow1Lstart">
      <path
         transform="scale(0.8) translate(12.5,0)"
         style="fill-rule:evenodd;stroke:#000000;stroke-width:1pt;stroke-opacity:1;fill:#000000;fill-opacity:1"
         d="M 0.0,0.0 L 5.0,-5.0 L -12.5,0.0 L 5.0,5.0 L 0.0,0.0 z "
         id="path19119" />
    </marker>
    <marker
       inkscape:stockid="Arrow1Lstart"
       orient="auto"
       refY="0.0"
       refX="0.0"
       id="Arrow1Lstart"
       style="overflow:visible"
       inkscape:isstock="true"
       inkscape:collect="always">
      <path
         id="path10552"
         d="M 0.0,0.0 L 5.0,-5.0 L -12.5,0.0 L 5.0,5.0 L 0.0,0.0 z "
         style="fill-rule:evenodd;stroke:#000000;stroke-width:1pt;stroke-opacity:1;fill:#000000;fill-opacity:1"
         transform="scale(0.8) translate(12.5,0)" />
    </marker>
    <marker
       inkscape:stockid="Arrow1Lend"
       orient="auto"
       refY="0.0"
       refX="0.0"
       id="Arrow1Lend"
       style="overflow:visible;"
       inkscape:isstock="true">
      <path
         id="path10555"
         d="M 0.0,0.0 L 5.0,-5.0 L -12.5,0.0 L 5.0,5.0 L 0.0,0.0 z "
         style="fill-rule:evenodd;stroke:#000000;stroke-width:1pt;stroke-opacity:1;fill:#000000;fill-opacity:1"
         transform="scale(0.8) rotate(180) translate(12.5,0)" />
    </marker>
    <symbol
       id="Process">
      <title
         id="title6230">Process</title>
      <desc
         id="desc6232">Any processing function.</desc>
      <rect
         x="3.96875"
         y="9.260417"
         width="31.75"
         height="21.166666"
         style="stroke-width:0.52916664"
         id="rect6234" />
    </symbol>
    <marker
       inkscape:stockid="Arrow1Lstart"
       orient="auto"
       refY="0"
       refX="0"
       id="Arrow1Lstart-0"
       style="overflow:visible"
       inkscape:isstock="true"
       inkscape:collect="always">
      <path
         inkscape:connector-curvature="0"
         id="path10552-3"
         d="M 0,0 5,-5 -12.5,0 5,5 Z"
         style="fill:#000000;fill-opacity:1;fill-rule:evenodd;stroke:#000000;stroke-width:1.00000003pt;stroke-opacity:1"
         transform="matrix(0.8,0,0,0.8,10,0)" />
    </marker>
    <marker
       inkscape:stockid="Arrow1Lstart"
       orient="auto"
       refY="0"
       refX="0"
       id="Arrow1Lstart-6"
       style="overflow:visible"
       inkscape:isstock="true">
      <path
         inkscape:connector-curvature="0"
         id="path10552-36"
         d="M 0,0 5,-5 -12.5,0 5,5 Z"
         style="fill:#000000;fill-opacity:1;fill-rule:evenodd;stroke:#000000;stroke-width:1.00000003pt;stroke-opacity:1"
         transform="matrix(0.8,0,0,0.8,10,0)" />
    </marker>
    <marker
       inkscape:stockid="Arrow1Lstart"
       orient="auto"
       refY="0"
       refX="0"
       id="Arrow1Lstart-3"
       style="overflow:visible"
       inkscape:isstock="true">
      <path
         inkscape:connector-curvature="0"
         id="path10552-4"
         d="M 0,0 5,-5 -12.5,0 5,5 Z"
         style="fill:#000000;fill-opacity:1;fill-rule:evenodd;stroke:#000000;stroke-width:1.00000003pt;stroke-opacity:1"
         transform="matrix(0.8,0,0,0.8,10,0)" />
    </marker>
    <marker
       inkscape:stockid="Arrow1Lstart"
       orient="auto"
       refY="0"
       refX="0"
       id="Arrow1Lstart-9"
       style="overflow:visible"
       inkscape:isstock="true">
      <path
         inkscape:connector-curvature="0"
         id="path10552-7"
         d="M 0,0 5,-5 -12.5,0 5,5 Z"
         style="fill:#000000;fill-opacity:1;fill-rule:evenodd;stroke:#000000;stroke-width:1.00000003pt;stroke-opacity:1"
         transform="matrix(0.8,0,0,0.8,10,0)" />
    </marker>
    <marker
       inkscape:isstock="true"
       style="overflow:visible"
       id="marker14231-4"
       refX="0"
       refY="0"
       orient="auto"
       inkscape:stockid="Arrow1Lstart">
      <path
         inkscape:connector-curvature="0"
         transform="matrix(0.8,0,0,0.8,10,0)"
         style="fill:#000000;fill-opacity:1;fill-rule:evenodd;stroke:#000000;stroke-width:1.00000003pt;stroke-opacity:1"
         d="M 0,0 5,-5 -12.5,0 5,5 Z"
         id="path14229-7" />
    </marker>
    <marker
       inkscape:isstock="true"
       style="overflow:visible"
       id="marker14231-5"
       refX="0"
       refY="0"
       orient="auto"
       inkscape:stockid="Arrow1Lstart">
      <path
         inkscape:connector-curvature="0"
         transform="matrix(0.8,0,0,0.8,10,0)"
         style="fill:#000000;fill-opacity:1;fill-rule:evenodd;stroke:#000000;stroke-width:1.00000003pt;stroke-opacity:1"
         d="M 0,0 5,-5 -12.5,0 5,5 Z"
         id="path14229-71" />
    </marker>
    <marker
       inkscape:isstock="true"
       style="overflow:visible"
       id="marker14231-3"
       refX="0"
       refY="0"
       orient="auto"
       inkscape:stockid="Arrow1Lstart">
      <path
         inkscape:connector-curvature="0"
         transform="matrix(0.8,0,0,0.8,10,0)"
         style="fill:#000000;fill-opacity:1;fill-rule:evenodd;stroke:#000000;stroke-width:1.00000003pt;stroke-opacity:1"
         d="M 0,0 5,-5 -12.5,0 5,5 Z"
         id="path14229-3" />
    </marker>
  </defs>
  <sodipodi:namedview
     id="base"
     pagecolor="#ffffff"
     bordercolor="#666666"
     borderopacity="1.0"
     inkscape:pageopacity="0.0"
     inkscape:pageshadow="2"
     inkscape:zoom="0.7"
     inkscape:cx="581.57569"
     inkscape:cy="864.20472"
     inkscape:document-units="mm"
     inkscape:current-layer="layer1"
     showgrid="true"
     objecttolerance="10000"
     inkscape:snap-bbox="true"
     inkscape:snap-global="false"
     inkscape:window-width="1853"
     inkscape:window-height="1025"
     inkscape:window-x="67"
     inkscape:window-y="27"
     inkscape:window-maximized="1">
    <inkscape:grid
       type="xygrid"
       id="grid2511" />
  </sodipodi:namedview>
  <metadata
     id="metadata1963">
    <rdf:RDF>
      <cc:Work
         rdf:about="">
        <dc:format>image/svg+xml</dc:format>
        <dc:type
           rdf:resource="http://purl.org/dc/dcmitype/StillImage" />
        <dc:title></dc:title>
      </cc:Work>
    </rdf:RDF>
  </metadata>
  <g
     inkscape:label="Layer 1"
     inkscape:groupmode="layer"
     id="layer1">
    <text
       xml:space="preserve"
       style="font-style:normal;font-weight:normal;font-size:4.23333311px;line-height:0;font-family:sans-serif;letter-spacing:0px;word-spacing:0px;fill:#000000;fill-opacity:1;stroke:none;stroke-width:0.26458332"
       x="95.25"
       y="61.520832"
       id="text10367"><tspan
         sodipodi:role="line"
         id="tspan10365"
         x="95.25"
         y="62.620506"
         style="stroke-width:0.26458332" /></text>
    <g
       aria-label="Input"
       style="font-style:normal;font-weight:normal;font-size:6.73415756px;line-height:1;font-family:sans-serif;letter-spacing:0px;word-spacing:0px;fill:#000000;fill-opacity:1;stroke:none;stroke-width:0.42088485"
       id="text10371-3-1"
       transform="matrix(1.3254331,0,0,1.3254331,-36.60078,-14.397095)">
      <path
         d="m 104.91844,33.786694 h 0.55672 v 4.114822 h -0.55672 z"
         style="font-size:5.64444447px;line-height:1;stroke-width:0.42088485"
         id="path20773"
         inkscape:connector-curvature="0" />
      <path
         d="m 109.12696,36.038408 v 1.863108 h -0.50711 v -1.846571 q 0,-0.438216 -0.17088,-0.655946 -0.17088,-0.21773 -0.51263,-0.21773 -0.41066,0 -0.64768,0.261827 -0.23702,0.261827 -0.23702,0.713824 v 1.744596 h -0.50988 V 34.81471 h 0.50988 v 0.479558 q 0.1819,-0.278364 0.42719,-0.416168 0.24805,-0.137804 0.57051,-0.137804 0.53192,0 0.80477,0.330729 0.27285,0.327974 0.27285,0.967383 z"
         style="font-size:5.64444447px;line-height:1;stroke-width:0.42088485"
         id="path20775"
         inkscape:connector-curvature="0" />
      <path
         d="m 110.63454,37.438495 v 1.63711 h -0.50988 V 34.81471 h 0.50988 v 0.468533 q 0.15985,-0.275607 0.40238,-0.407899 0.2453,-0.135048 0.58429,-0.135048 0.56224,0 0.91226,0.446485 0.35278,0.446484 0.35278,1.174088 0,0.727604 -0.35278,1.174089 -0.35002,0.446484 -0.91226,0.446484 -0.33899,0 -0.58429,-0.132291 -0.24253,-0.135048 -0.40238,-0.410656 z m 1.7253,-1.077626 q 0,-0.559483 -0.23151,-0.876432 -0.22875,-0.319705 -0.63114,-0.319705 -0.40239,0 -0.6339,0.319705 -0.22875,0.316949 -0.22875,0.876432 0,0.559484 0.22875,0.879189 0.23151,0.316948 0.6339,0.316948 0.40239,0 0.63114,-0.316948 0.23151,-0.319705 0.23151,-0.879189 z"
         style="font-size:5.64444447px;line-height:1;stroke-width:0.42088485"
         id="path20777"
         inkscape:connector-curvature="0" />
      <path
         d="m 113.67449,36.68333 v -1.86862 h 0.50712 v 1.849328 q 0,0.438216 0.17088,0.658702 0.17087,0.21773 0.51263,0.21773 0.41065,0 0.64767,-0.261827 0.23978,-0.261828 0.23978,-0.713824 V 34.81471 h 0.50712 v 3.086806 h -0.50712 v -0.474045 q -0.18466,0.28112 -0.42995,0.418923 -0.24253,0.135048 -0.56499,0.135048 -0.53192,0 -0.80753,-0.330729 -0.27561,-0.330729 -0.27561,-0.967383 z m 1.27606,-1.943034 z"
         style="font-size:5.64444447px;line-height:1;stroke-width:0.42088485"
         id="path20779"
         inkscape:connector-curvature="0" />
      <path
         d="m 117.81136,33.938278 v 0.876432 h 1.04455 v 0.394119 h -1.04455 v 1.675695 q 0,0.377582 0.10198,0.485069 0.10473,0.107487 0.42168,0.107487 h 0.52089 v 0.424436 h -0.52089 q -0.58705,0 -0.81029,-0.21773 -0.22324,-0.220486 -0.22324,-0.799262 v -1.675695 h -0.37207 V 34.81471 h 0.37207 v -0.876432 z"
         style="font-size:5.64444447px;line-height:1;stroke-width:0.42088485"
         id="path20781"
         inkscape:connector-curvature="0" />
    </g>
    <path
       style="fill:none;stroke:#000000;stroke-width:0.52310967;stroke-linecap:butt;stroke-linejoin:miter;stroke-miterlimit:4;stroke-dasharray:none;stroke-opacity:1;marker-start:url(#Arrow1Lstart)"
       d="M 111.19486,94.467064 V 69.375285"
       id="path12020"
       inkscape:connector-curvature="0" />
    <path
       style="fill:none;stroke:#000000;stroke-width:0.43054911;stroke-linecap:butt;stroke-linejoin:miter;stroke-miterlimit:4;stroke-dasharray:none;stroke-opacity:1;marker-start:url(#Arrow1Lstart-0)"
       d="m 110.92759,130.40908 v -17.6661"
       id="path12020-4"
       inkscape:connector-curvature="0" />
    <use
       id="use10310-6"
       style="fill:#aaccee;stroke:#000000"
       xlink:href="#Process"
       x="0"
       y="0"
       width="100%"
       height="100%"
       transform="matrix(1.4901538,0,0,0.83083422,81.800446,87.709456)" />
    <path
       style="fill:none;stroke:#000000;stroke-width:0.56829113;stroke-linecap:square;stroke-linejoin:round;stroke-miterlimit:4;stroke-dasharray:none;stroke-opacity:1;marker-start:url(#marker1627)"
       d="M 111.31399,54.9646 V 37.611205"
       id="path20290"
       inkscape:connector-curvature="0" />
    <use
       id="use10310-7"
       style="fill:#aaccee;stroke:#000000"
       xlink:href="#Process"
       x="0"
       y="0"
       width="100%"
       height="100%"
       transform="matrix(1.4901538,0,0,0.83083422,81.687052,47.341599)" />
    <g
       aria-label="Neurona-
les Netz"
       style="font-style:normal;font-weight:normal;font-size:8.1677618px;line-height:1;font-family:sans-serif;letter-spacing:0px;word-spacing:0px;fill:#000000;fill-opacity:1;stroke:none;stroke-width:0.20419404"
       id="text1094"
       transform="translate(40.065476,-119.06248)">
      <path
         d="m 53.414082,175.69516 h 1.084781 l 2.640165,4.98122 v -4.98122 h 0.781681 v 5.95433 h -1.084781 l -2.640165,-4.98122 v 4.98122 h -0.781681 z"
         style="line-height:1;stroke-width:0.20419404"
         id="path1381"
         inkscape:connector-curvature="0" />
      <path
         d="m 63.312707,179.23266 v 0.35894 H 59.93872 q 0.04786,0.75775 0.454651,1.15657 0.410781,0.39482 1.140615,0.39482 0.422745,0 0.817574,-0.10369 0.398816,-0.10369 0.789656,-0.31108 v 0.69394 q -0.394828,0.16751 -0.809597,0.25525 -0.414769,0.0877 -0.841503,0.0877 -1.068828,0 -1.69497,-0.62216 -0.622154,-0.62215 -0.622154,-1.683 0,-1.09675 0.590249,-1.73884 0.594236,-0.64608 1.599254,-0.64608 0.901325,0 1.423775,0.58227 0.526437,0.57828 0.526437,1.57532 z m -0.733822,-0.21536 q -0.008,-0.60221 -0.338994,-0.96115 -0.327029,-0.35893 -0.86942,-0.35893 -0.614177,0 -0.985077,0.34697 -0.366911,0.34697 -0.422745,0.9771 z"
         style="line-height:1;stroke-width:0.20419404"
         id="path1383"
         inkscape:connector-curvature="0" />
      <path
         d="m 64.441358,179.88672 v -2.70397 h 0.733822 v 2.67605 q 0,0.63412 0.247267,0.95318 0.247266,0.31506 0.741798,0.31506 0.594237,0 0.937219,-0.37887 0.346971,-0.37888 0.346971,-1.03294 v -2.53248 h 0.733822 v 4.46674 h -0.733822 v -0.68596 q -0.267208,0.40679 -0.622154,0.6062 -0.350959,0.19542 -0.817574,0.19542 -0.769716,0 -1.168532,-0.47858 -0.398817,-0.47858 -0.398817,-1.39985 z m 1.846521,-2.81165 z"
         style="line-height:1;stroke-width:0.20419404"
         id="path1385"
         inkscape:connector-curvature="0" />
      <path
         d="m 72.290067,177.86871 q -0.123634,-0.0718 -0.271196,-0.10369 -0.143574,-0.0359 -0.319053,-0.0359 -0.622154,0 -0.957159,0.4068 -0.331018,0.4028 -0.331018,1.16055 v 2.35302 H 69.67383 v -4.46674 h 0.737811 v 0.69394 q 0.231313,-0.4068 0.602213,-0.60222 0.370899,-0.1994 0.901325,-0.1994 0.07578,0 0.167503,0.012 0.09173,0.008 0.203396,0.0279 z"
         style="line-height:1;stroke-width:0.20419404"
         id="path1387"
         inkscape:connector-curvature="0" />
      <path
         d="m 74.623144,177.69722 q -0.590249,0 -0.933231,0.46263 -0.342982,0.45863 -0.342982,1.26026 0,0.80162 0.338994,1.26424 0.342982,0.45864 0.937219,0.45864 0.58626,0 0.929242,-0.46262 0.342982,-0.46263 0.342982,-1.26026 0,-0.79365 -0.342982,-1.25628 -0.342982,-0.46661 -0.929242,-0.46661 z m 0,-0.62215 q 0.957159,0 1.503538,0.62215 0.546379,0.62215 0.546379,1.72289 0,1.09674 -0.546379,1.72288 -0.546379,0.62216 -1.503538,0.62216 -0.961148,0 -1.507527,-0.62216 -0.54239,-0.62614 -0.54239,-1.72288 0,-1.10074 0.54239,-1.72289 0.546379,-0.62215 1.507527,-0.62215 z"
         style="line-height:1;stroke-width:0.20419404"
         id="path1389"
         inkscape:connector-curvature="0" />
      <path
         d="m 81.598445,178.95349 v 2.696 h -0.733823 v -2.67207 q 0,-0.63412 -0.247266,-0.94918 -0.247266,-0.31507 -0.741798,-0.31507 -0.594237,0 -0.937219,0.37888 -0.342982,0.37887 -0.342982,1.03293 v 2.52451 h -0.737811 v -4.46674 h 0.737811 v 0.69394 q 0.263219,-0.40281 0.618165,-0.60222 0.358935,-0.1994 0.82555,-0.1994 0.769716,0 1.164545,0.47857 0.394828,0.4746 0.394828,1.39985 z"
         style="line-height:1;stroke-width:0.20419404"
         id="path1391"
         inkscape:connector-curvature="0" />
      <path
         d="m 85.100053,179.40415 q -0.88936,0 -1.232343,0.2034 -0.342982,0.2034 -0.342982,0.69394 0,0.39084 0.255243,0.62215 0.259231,0.22733 0.701917,0.22733 0.610189,0 0.9771,-0.43072 0.3709,-0.43471 0.3709,-1.15258 v -0.16352 z m 1.463657,-0.3031 v 2.54844 h -0.733822 v -0.67799 q -0.251255,0.4068 -0.626142,0.60222 -0.374888,0.19143 -0.917278,0.19143 -0.685965,0 -1.092757,-0.38287 -0.402805,-0.38685 -0.402805,-1.03293 0,-0.75376 0.502509,-1.13663 0.506497,-0.38286 1.507526,-0.38286 h 1.028947 v -0.0718 q 0,-0.5065 -0.335006,-0.78168 -0.331018,-0.27917 -0.933231,-0.27917 -0.382864,0 -0.745787,0.0917 -0.362923,0.0917 -0.697929,0.27518 v -0.67799 q 0.402805,-0.15554 0.781681,-0.23131 0.378875,-0.0798 0.73781,-0.0798 0.969124,0 1.447704,0.5025 0.47858,0.50251 0.47858,1.52348 z"
         style="line-height:1;stroke-width:0.20419404"
         id="path1393"
         inkscape:connector-curvature="0" />
      <path
         d="m 87.708314,179.0851 h 2.149621 v 0.65406 h -2.149621 z"
         style="line-height:1;stroke-width:0.20419404"
         id="path1395"
         inkscape:connector-curvature="0" />
      <path
         d="m 53.382177,183.61167 h 0.733822 v 6.20558 h -0.733822 z"
         style="line-height:1;stroke-width:0.20419404"
         id="path1397"
         inkscape:connector-curvature="0" />
      <path
         d="m 59.468117,187.40042 v 0.35894 h -3.373988 q 0.04786,0.75775 0.454651,1.15657 0.410781,0.39483 1.140615,0.39483 0.422745,0 0.817574,-0.1037 0.398816,-0.10369 0.789656,-0.31107 v 0.69394 q -0.394828,0.1675 -0.809597,0.25524 -0.414769,0.0877 -0.841503,0.0877 -1.068828,0 -1.69497,-0.62215 -0.622154,-0.62216 -0.622154,-1.68301 0,-1.09675 0.590249,-1.73884 0.594236,-0.64608 1.599254,-0.64608 0.901325,0 1.423775,0.58227 0.526438,0.57828 0.526438,1.57532 z m -0.733823,-0.21536 q -0.008,-0.60221 -0.338994,-0.96114 -0.327029,-0.35894 -0.86942,-0.35894 -0.614177,0 -0.985077,0.34697 -0.366911,0.34697 -0.422745,0.9771 z"
         style="line-height:1;stroke-width:0.20419404"
         id="path1399"
         inkscape:connector-curvature="0" />
      <path
         d="m 63.520092,185.48212 v 0.69394 q -0.311077,-0.15953 -0.646083,-0.23929 -0.335006,-0.0798 -0.693941,-0.0798 -0.546378,0 -0.821561,0.16751 -0.271196,0.1675 -0.271196,0.50251 0,0.25524 0.19542,0.4028 0.19542,0.14357 0.785669,0.27518 l 0.251254,0.0558 q 0.781681,0.1675 1.10871,0.47459 0.331018,0.3031 0.331018,0.84948 0,0.62215 -0.494533,0.98508 -0.490544,0.36292 -1.351988,0.36292 -0.358934,0 -0.749775,-0.0718 -0.386852,-0.0678 -0.817573,-0.20738 v -0.75775 q 0.406792,0.21137 0.801621,0.31905 0.394828,0.10369 0.78168,0.10369 0.518462,0 0.797633,-0.17548 0.279172,-0.17947 0.279172,-0.50251 0,-0.29911 -0.203397,-0.45864 -0.199408,-0.15952 -0.881384,-0.30708 l -0.255243,-0.0598 q -0.681976,-0.14357 -0.985077,-0.43869 -0.3031,-0.29912 -0.3031,-0.81758 0,-0.63013 0.446674,-0.97311 0.446675,-0.34298 1.268237,-0.34298 0.406793,0 0.765728,0.0598 0.358934,0.0598 0.662035,0.17947 z"
         style="line-height:1;stroke-width:0.20419404"
         id="path1401"
         inkscape:connector-curvature="0" />
      <path
         d="m 67.564091,183.86292 h 1.084781 l 2.640165,4.98122 v -4.98122 h 0.781681 v 5.95433 h -1.084781 l -2.640165,-4.98122 v 4.98122 h -0.781681 z"
         style="line-height:1;stroke-width:0.20419404"
         id="path1403"
         inkscape:connector-curvature="0" />
      <path
         d="m 77.462717,187.40042 v 0.35894 H 74.08873 q 0.04786,0.75775 0.45465,1.15657 0.410781,0.39483 1.140616,0.39483 0.422745,0 0.817573,-0.1037 0.398817,-0.10369 0.789657,-0.31107 v 0.69394 q -0.394828,0.1675 -0.809597,0.25524 -0.41477,0.0877 -0.841503,0.0877 -1.068828,0 -1.69497,-0.62215 -0.622154,-0.62216 -0.622154,-1.68301 0,-1.09675 0.590248,-1.73884 0.594237,-0.64608 1.599254,-0.64608 0.901326,0 1.423775,0.58227 0.526438,0.57828 0.526438,1.57532 z m -0.733822,-0.21536 q -0.008,-0.60221 -0.338994,-0.96114 -0.32703,-0.35894 -0.86942,-0.35894 -0.614178,0 -0.985077,0.34697 -0.366911,0.34697 -0.422745,0.9771 z"
         style="line-height:1;stroke-width:0.20419404"
         id="path1405"
         inkscape:connector-curvature="0" />
      <path
         d="m 79.392988,184.08227 v 1.26824 h 1.511515 v 0.57031 h -1.511515 v 2.4248 q 0,0.54638 0.147563,0.70192 0.15155,0.15553 0.610189,0.15553 h 0.753763 v 0.61418 H 80.15074 q -0.849479,0 -1.172521,-0.31506 -0.323041,-0.31906 -0.323041,-1.15657 v -2.4248 h -0.538402 v -0.57031 h 0.538402 v -1.26824 z"
         style="line-height:1;stroke-width:0.20419404"
         id="path1407"
         inkscape:connector-curvature="0" />
      <path
         d="m 81.554575,185.35051 h 3.485656 v 0.67001 l -2.75981,3.21047 h 2.75981 v 0.58626 h -3.58536 v -0.67001 l 2.75981,-3.21047 h -2.660106 z"
         style="line-height:1;stroke-width:0.20419404"
         id="path1409"
         inkscape:connector-curvature="0" />
    </g>
    <g
       aria-label="Vorher-
sage"
       style="font-style:normal;font-weight:normal;font-size:8.1677618px;line-height:1;font-family:sans-serif;letter-spacing:0px;word-spacing:0px;fill:#000000;fill-opacity:1;stroke:none;stroke-width:0.20419404"
       id="text1094-7"
       transform="translate(32.18305,-109.93699)">
      <path
         d="m 68.053907,212.44736 -2.273254,-5.95433 h 0.841503 l 1.886402,5.01312 1.89039,-5.01312 h 0.837515 l -2.269266,5.95433 z"
         style="line-height:1;stroke-width:0.20419404"
         id="path1358"
         inkscape:connector-curvature="0" />
      <path
         d="m 73.162746,208.49509 q -0.590248,0 -0.93323,0.46262 -0.342982,0.45864 -0.342982,1.26026 0,0.80162 0.338994,1.26425 0.342982,0.45864 0.937218,0.45864 0.586261,0 0.929243,-0.46263 0.342982,-0.46262 0.342982,-1.26026 0,-0.79364 -0.342982,-1.25627 -0.342982,-0.46661 -0.929243,-0.46661 z m 0,-0.62216 q 0.95716,0 1.503539,0.62216 0.546378,0.62215 0.546378,1.72288 0,1.09675 -0.546378,1.72289 -0.546379,0.62215 -1.503539,0.62215 -0.961147,0 -1.507526,-0.62215 -0.54239,-0.62614 -0.54239,-1.72289 0,-1.10073 0.54239,-1.72288 0.546379,-0.62216 1.507526,-0.62216 z"
         style="line-height:1;stroke-width:0.20419404"
         id="path1360"
         inkscape:connector-curvature="0" />
      <path
         d="m 79.013385,208.66658 q -0.123634,-0.0718 -0.271196,-0.1037 -0.143574,-0.0359 -0.319053,-0.0359 -0.622154,0 -0.957159,0.40679 -0.331018,0.40281 -0.331018,1.16056 v 2.35302 h -0.737811 v -4.46675 h 0.737811 v 0.69394 q 0.231313,-0.40679 0.602213,-0.60221 0.370899,-0.19941 0.901325,-0.19941 0.07577,0 0.167503,0.012 0.09173,0.008 0.203396,0.0279 z"
         style="line-height:1;stroke-width:0.20419404"
         id="path1362"
         inkscape:connector-curvature="0" />
      <path
         d="m 83.360484,209.75136 v 2.696 h -0.733822 v -2.67207 q 0,-0.63412 -0.247267,-0.94919 -0.247266,-0.31506 -0.741798,-0.31506 -0.594237,0 -0.937219,0.37887 -0.342982,0.37888 -0.342982,1.03294 v 2.52451 h -0.737811 v -6.20559 h 0.737811 v 2.43278 q 0.263219,-0.4028 0.618165,-0.60221 0.358935,-0.19941 0.825551,-0.19941 0.769715,0 1.164544,0.47858 0.394828,0.47459 0.394828,1.39985 z"
         style="line-height:1;stroke-width:0.20419404"
         id="path1364"
         inkscape:connector-curvature="0" />
      <path
         d="m 88.652779,210.03053 v 0.35893 h -3.373988 q 0.04786,0.75776 0.454651,1.15657 0.410781,0.39483 1.140615,0.39483 0.422746,0 0.817574,-0.10369 0.398816,-0.10369 0.789657,-0.31108 v 0.69394 q -0.394829,0.1675 -0.809598,0.25524 -0.414769,0.0877 -0.841503,0.0877 -1.068828,0 -1.69497,-0.62215 -0.622154,-0.62215 -0.622154,-1.68301 0,-1.09674 0.590249,-1.73884 0.594236,-0.64608 1.599254,-0.64608 0.901325,0 1.423775,0.58227 0.526438,0.57829 0.526438,1.57533 z m -0.733823,-0.21536 q -0.008,-0.60221 -0.338994,-0.96115 -0.327029,-0.35893 -0.86942,-0.35893 -0.614177,0 -0.985076,0.34697 -0.366912,0.34697 -0.422746,0.9771 z"
         style="line-height:1;stroke-width:0.20419404"
         id="path1366"
         inkscape:connector-curvature="0" />
      <path
         d="m 92.445525,208.66658 q -0.123633,-0.0718 -0.271195,-0.1037 -0.143574,-0.0359 -0.319053,-0.0359 -0.622154,0 -0.95716,0.40679 -0.331018,0.40281 -0.331018,1.16056 v 2.35302 h -0.73781 v -4.46675 h 0.73781 v 0.69394 q 0.231314,-0.40679 0.602213,-0.60221 0.3709,-0.19941 0.901325,-0.19941 0.07578,0 0.167503,0.012 0.09173,0.008 0.203397,0.0279 z"
         style="line-height:1;stroke-width:0.20419404"
         id="path1368"
         inkscape:connector-curvature="0" />
      <path
         d="M 92.325879,209.88297 H 94.4755 v 0.65406 h -2.149621 z"
         style="line-height:1;stroke-width:0.20419404"
         id="path1370"
         inkscape:connector-curvature="0" />
      <path
         d="m 69.334108,216.27998 v 0.69394 q -0.311077,-0.15952 -0.646082,-0.23929 -0.335006,-0.0798 -0.693941,-0.0798 -0.546379,0 -0.821562,0.1675 -0.271195,0.16751 -0.271195,0.50251 0,0.25525 0.19542,0.40281 0.19542,0.14357 0.785668,0.27518 l 0.251255,0.0558 q 0.78168,0.1675 1.108709,0.47459 0.331018,0.3031 0.331018,0.84948 0,0.62215 -0.494532,0.98507 -0.490545,0.36293 -1.351988,0.36293 -0.358935,0 -0.749775,-0.0718 -0.386852,-0.0678 -0.817574,-0.20739 v -0.75775 q 0.406793,0.21138 0.801621,0.31906 0.394828,0.10369 0.78168,0.10369 0.518462,0 0.797633,-0.17548 0.279172,-0.17947 0.279172,-0.50251 0,-0.29911 -0.203396,-0.45864 -0.199409,-0.15953 -0.881385,-0.30709 l -0.255242,-0.0598 q -0.681977,-0.14357 -0.985077,-0.4387 -0.303101,-0.29911 -0.303101,-0.81757 0,-0.63013 0.446675,-0.97311 0.446674,-0.34299 1.268236,-0.34299 0.406793,0 0.765728,0.0598 0.358935,0.0598 0.662035,0.17946 z"
         style="line-height:1;stroke-width:0.20419404"
         id="path1372"
         inkscape:connector-curvature="0" />
      <path
         d="m 72.775895,218.36978 q -0.889361,0 -1.232343,0.2034 -0.342982,0.20339 -0.342982,0.69394 0,0.39084 0.255242,0.62215 0.259231,0.22733 0.701917,0.22733 0.610189,0 0.977101,-0.43072 0.370899,-0.43471 0.370899,-1.15258 v -0.16352 z m 1.463656,-0.3031 v 2.54844 h -0.733822 v -0.67799 q -0.251254,0.40679 -0.626142,0.60221 -0.374887,0.19144 -0.917278,0.19144 -0.685964,0 -1.092757,-0.38287 -0.402805,-0.38685 -0.402805,-1.03293 0,-0.75377 0.502509,-1.13663 0.506497,-0.38286 1.507526,-0.38286 h 1.028947 v -0.0718 q 0,-0.5065 -0.335006,-0.78168 -0.331018,-0.27917 -0.933231,-0.27917 -0.382863,0 -0.745786,0.0917 -0.362923,0.0917 -0.697929,0.27518 v -0.67799 q 0.402804,-0.15554 0.78168,-0.23131 0.378876,-0.0798 0.737811,-0.0798 0.969124,0 1.447703,0.50251 0.47858,0.50251 0.47858,1.52348 z"
         style="line-height:1;stroke-width:0.20419404"
         id="path1374"
         inkscape:connector-curvature="0" />
      <path
         d="m 78.694332,218.3299 q 0,-0.79763 -0.331018,-1.23633 -0.32703,-0.4387 -0.921266,-0.4387 -0.590249,0 -0.921266,0.4387 -0.32703,0.4387 -0.32703,1.23633 0,0.79365 0.32703,1.23234 0.331017,0.4387 0.921266,0.4387 0.594236,0 0.921266,-0.4387 0.331018,-0.43869 0.331018,-1.23234 z m 0.733822,1.73086 q 0,1.14062 -0.506497,1.69497 -0.506497,0.55835 -1.551396,0.55835 -0.386852,0 -0.729834,-0.0598 -0.342983,-0.0558 -0.666024,-0.17547 v -0.71389 q 0.323041,0.17548 0.638107,0.25923 0.315065,0.0838 0.642094,0.0838 0.721858,0 1.080793,-0.37888 0.358935,-0.37489 0.358935,-1.13663 v -0.36292 q -0.227326,0.39483 -0.582272,0.59025 -0.354947,0.19542 -0.84948,0.19542 -0.821562,0 -1.32407,-0.62614 -0.502509,-0.62614 -0.502509,-1.65908 0,-1.03692 0.502509,-1.66306 0.502508,-0.62615 1.32407,-0.62615 0.494533,0 0.84948,0.19542 0.354946,0.19542 0.582272,0.59025 v -0.67799 h 0.733822 z"
         style="line-height:1;stroke-width:0.20419404"
         id="path1376"
         inkscape:connector-curvature="0" />
      <path
         d="m 84.76033,218.19829 v 0.35894 h -3.373987 q 0.04786,0.75775 0.454651,1.15656 0.41078,0.39483 1.140615,0.39483 0.422745,0 0.817573,-0.10369 0.398817,-0.10369 0.789657,-0.31108 v 0.69394 q -0.394828,0.16751 -0.809597,0.25525 -0.414769,0.0877 -0.841503,0.0877 -1.068828,0 -1.69497,-0.62216 -0.622154,-0.62215 -0.622154,-1.683 0,-1.09675 0.590248,-1.73884 0.594237,-0.64609 1.599255,-0.64609 0.901325,0 1.423774,0.58228 0.526438,0.57828 0.526438,1.57532 z m -0.733822,-0.21536 q -0.008,-0.60221 -0.338994,-0.96115 -0.32703,-0.35893 -0.86942,-0.35893 -0.614177,0 -0.985077,0.34697 -0.366911,0.34697 -0.422745,0.9771 z"
         style="line-height:1;stroke-width:0.20419404"
         id="path1378"
         inkscape:connector-curvature="0" />
    </g>
    <g
       aria-label="Input"
       style="font-style:normal;font-weight:normal;font-size:6.73415756px;line-height:1;font-family:sans-serif;letter-spacing:0px;word-spacing:0px;fill:#000000;fill-opacity:1;stroke:none;stroke-width:0.42088485"
       id="text10371-3-1-2"
       transform="matrix(1.3254331,0,0,1.3254331,-36.94718,95.708186)">
      <g
         aria-label="Output"
         style="font-style:normal;font-weight:normal;font-size:5.55257797px;line-height:1.25;font-family:sans-serif;letter-spacing:0px;word-spacing:0px;fill:#000000;fill-opacity:1;stroke:none;stroke-width:0.05842489"
         id="text3036"
         transform="translate(-19.106047,-5.8477612)">
        <path
           d="m 123.26422,34.57391 q -0.59647,0 -0.94893,0.44464 -0.34975,0.44464 -0.34975,1.211916 0,0.764564 0.34975,1.209204 0.35246,0.44464 0.94893,0.44464 0.59647,0 0.9435,-0.44464 0.34975,-0.44464 0.34975,-1.209204 0,-0.767276 -0.34975,-1.211916 -0.34703,-0.44464 -0.9435,-0.44464 z m 0,-0.44464 q 0.85132,0 1.36103,0.572068 0.50971,0.569356 0.50971,1.529128 0,0.95706 -0.50971,1.529127 -0.50971,0.569357 -1.36103,0.569357 -0.85404,0 -1.36646,-0.569357 -0.50971,-0.569356 -0.50971,-1.529127 0,-0.959772 0.50971,-1.529128 0.51242,-0.572068 1.36646,-0.572068 z"
           style="stroke-width:0.05842489"
           id="path3038"
           inkscape:connector-curvature="0" />
        <path
           d="m 125.9185,37.051965 v -1.838207 h 0.49887 v 1.819229 q 0,0.431084 0.16809,0.647981 0.1681,0.214186 0.50429,0.214186 0.40397,0 0.63714,-0.257565 0.23587,-0.257566 0.23587,-0.702206 v -1.721625 h 0.49887 v 3.036566 h -0.49887 v -0.46633 q -0.18165,0.276545 -0.42295,0.412106 -0.23859,0.13285 -0.5558,0.13285 -0.52326,0 -0.79439,-0.325347 -0.27112,-0.325346 -0.27112,-0.951638 z m 1.2553,-1.91141 z"
           style="stroke-width:0.05842489"
           id="path3040"
           inkscape:connector-curvature="0" />
        <path
           d="m 129.98804,34.35159 v 0.862168 h 1.02756 v 0.387705 h -1.02756 v 1.648421 q 0,0.371437 0.10032,0.477175 0.10302,0.105737 0.41481,0.105737 h 0.51243 v 0.417528 h -0.51243 q -0.57749,0 -0.79709,-0.214186 -0.21961,-0.216898 -0.21961,-0.786254 v -1.648421 h -0.36602 v -0.387705 h 0.36602 V 34.35159 Z"
           style="stroke-width:0.05842489"
           id="path3042"
           inkscape:connector-curvature="0" />
        <path
           d="m 132.15702,37.794839 v 1.610465 h -0.50158 v -4.191546 h 0.50158 v 0.460908 q 0.15725,-0.271122 0.39584,-0.401261 0.24129,-0.13285 0.57477,-0.13285 0.55309,0 0.89742,0.439218 0.34703,0.439217 0.34703,1.154979 0,0.715762 -0.34703,1.15498 -0.34433,0.439218 -0.89742,0.439218 -0.33348,0 -0.57477,-0.130139 -0.23859,-0.13285 -0.39584,-0.403972 z m 1.69722,-1.060087 q 0,-0.550377 -0.22774,-0.862167 -0.22503,-0.314502 -0.62087,-0.314502 -0.39584,0 -0.62358,0.314502 -0.22503,0.31179 -0.22503,0.862167 0,0.550378 0.22503,0.86488 0.22774,0.31179 0.62358,0.31179 0.39584,0 0.62087,-0.31179 0.22774,-0.314502 0.22774,-0.86488 z"
           style="stroke-width:0.05842489"
           id="path3044"
           inkscape:connector-curvature="0" />
        <path
           d="m 135.14749,37.051965 v -1.838207 h 0.49887 v 1.819229 q 0,0.431084 0.16809,0.647981 0.1681,0.214186 0.50429,0.214186 0.40397,0 0.63714,-0.257565 0.23587,-0.257566 0.23587,-0.702206 v -1.721625 h 0.49887 v 3.036566 h -0.49887 v -0.46633 q -0.18165,0.276545 -0.42295,0.412106 -0.23858,0.13285 -0.5558,0.13285 -0.52326,0 -0.79438,-0.325347 -0.27113,-0.325346 -0.27113,-0.951638 z m 1.2553,-1.91141 z"
           style="stroke-width:0.05842489"
           id="path3046"
           inkscape:connector-curvature="0" />
        <path
           d="m 139.21703,34.35159 v 0.862168 h 1.02756 v 0.387705 h -1.02756 v 1.648421 q 0,0.371437 0.10032,0.477175 0.10303,0.105737 0.41482,0.105737 h 0.51242 v 0.417528 h -0.51242 q -0.57749,0 -0.7971,-0.214186 -0.21961,-0.216898 -0.21961,-0.786254 v -1.648421 h -0.36602 v -0.387705 h 0.36602 V 34.35159 Z"
           style="stroke-width:0.05842489"
           id="path3048"
           inkscape:connector-curvature="0" />
      </g>
    </g>
  </g>
</svg>
