<svg viewBox="0 0 330 200" xmlns="http://www.w3.org/2000/svg"><g><g><g><g><g><line x1="70" y1="178" x2="65" y2="178" style="visibility: inherit;" fill="rgb(0, 0, 0)" stroke="rgb(204, 204, 204)" stroke-width="1px"></line><line x1="70" y1="164.3076923076923" x2="65" y2="164.3076923076923" style="visibility: inherit;" fill="rgb(0, 0, 0)" stroke="rgb(204, 204, 204)" stroke-width="1px"></line><line x1="70" y1="150.61538461538458" x2="65" y2="150.61538461538458" style="visibility: inherit;" fill="rgb(0, 0, 0)" stroke="rgb(204, 204, 204)" stroke-width="1px"></line><line x1="70" y1="136.92307692307693" x2="65" y2="136.92307692307693" style="visibility: inherit;" fill="rgb(0, 0, 0)" stroke="rgb(204, 204, 204)" stroke-width="1px"></line><line x1="70" y1="123.23076923076924" x2="65" y2="123.23076923076924" style="visibility: inherit;" fill="rgb(0, 0, 0)" stroke="rgb(204, 204, 204)" stroke-width="1px"></line><line x1="70" y1="109.53846153846153" x2="65" y2="109.53846153846153" style="visibility: inherit;" fill="rgb(0, 0, 0)" stroke="rgb(204, 204, 204)" stroke-width="1px"></line><line x1="70" y1="95.84615384615383" x2="65" y2="95.84615384615383" style="visibility: inherit;" fill="rgb(0, 0, 0)" stroke="rgb(204, 204, 204)" stroke-width="1px"></line><line x1="70" y1="82.15384615384613" x2="65" y2="82.15384615384613" style="visibility: inherit;" fill="rgb(0, 0, 0)" stroke="rgb(204, 204, 204)" stroke-width="1px"></line><line x1="70" y1="68.46153846153851" x2="65" y2="68.46153846153851" style="visibility: inherit;" fill="rgb(0, 0, 0)" stroke="rgb(204, 204, 204)" stroke-width="1px"></line><line x1="70" y1="54.769230769230816" x2="65" y2="54.769230769230816" style="visibility: inherit;" fill="rgb(0, 0, 0)" stroke="rgb(204, 204, 204)" stroke-width="1px"></line><line x1="70" y1="41.07692307692312" x2="65" y2="41.07692307692312" style="visibility: inherit;" fill="rgb(0, 0, 0)" stroke="rgb(204, 204, 204)" stroke-width="1px"></line><line x1="70" y1="27.384615384615415" x2="65" y2="27.384615384615415" style="visibility: inherit;" fill="rgb(0, 0, 0)" stroke="rgb(204, 204, 204)" stroke-width="1px"></line><line x1="70" y1="13.692307692307708" x2="65" y2="13.692307692307708" style="visibility: inherit;" fill="rgb(0, 0, 0)" stroke="rgb(204, 204, 204)" stroke-width="1px"></line><line x1="70" y1="0" x2="65" y2="0" style="visibility: inherit;" fill="rgb(0, 0, 0)" stroke="rgb(204, 204, 204)" stroke-width="1px"></line></g><g transform="translate(60, 0)"><text x="0" y="178" dx="0em" dy="0.3em" style="text-anchor: end; visibility: hidden; font-family: &quot;Helvetica Neue&quot;, sans-serif; font-size: 12px; font-weight: 200;" fill="rgb(50, 49, 63)" stroke="none" stroke-width="1px">0.105</text><text x="0" y="164.3076923076923" dx="0em" dy="0.3em" style="text-anchor: end; visibility: inherit; font-family: &quot;Helvetica Neue&quot;, sans-serif; font-size: 12px; font-weight: 200;" fill="rgb(50, 49, 63)" stroke="none" stroke-width="1px">0.11</text><text x="0" y="150.61538461538458" dx="0em" dy="0.3em" style="text-anchor: end; visibility: hidden; font-family: &quot;Helvetica Neue&quot;, sans-serif; font-size: 12px; font-weight: 200;" fill="rgb(50, 49, 63)" stroke="none" stroke-width="1px">0.115</text><text x="0" y="136.92307692307693" dx="0em" dy="0.3em" style="text-anchor: end; visibility: inherit; font-family: &quot;Helvetica Neue&quot;, sans-serif; font-size: 12px; font-weight: 200;" fill="rgb(50, 49, 63)" stroke="none" stroke-width="1px">0.12</text><text x="0" y="123.23076923076924" dx="0em" dy="0.3em" style="text-anchor: end; visibility: hidden; font-family: &quot;Helvetica Neue&quot;, sans-serif; font-size: 12px; font-weight: 200;" fill="rgb(50, 49, 63)" stroke="none" stroke-width="1px">0.125</text><text x="0" y="109.53846153846153" dx="0em" dy="0.3em" style="text-anchor: end; visibility: inherit; font-family: &quot;Helvetica Neue&quot;, sans-serif; font-size: 12px; font-weight: 200;" fill="rgb(50, 49, 63)" stroke="none" stroke-width="1px">0.13</text><text x="0" y="95.84615384615383" dx="0em" dy="0.3em" style="text-anchor: end; visibility: hidden; font-family: &quot;Helvetica Neue&quot;, sans-serif; font-size: 12px; font-weight: 200;" fill="rgb(50, 49, 63)" stroke="none" stroke-width="1px">0.135</text><text x="0" y="82.15384615384613" dx="0em" dy="0.3em" style="text-anchor: end; visibility: inherit; font-family: &quot;Helvetica Neue&quot;, sans-serif; font-size: 12px; font-weight: 200;" fill="rgb(50, 49, 63)" stroke="none" stroke-width="1px">0.14</text><text x="0" y="68.46153846153851" dx="0em" dy="0.3em" style="text-anchor: end; visibility: hidden; font-family: &quot;Helvetica Neue&quot;, sans-serif; font-size: 12px; font-weight: 200;" fill="rgb(50, 49, 63)" stroke="none" stroke-width="1px">0.145</text><text x="0" y="54.769230769230816" dx="0em" dy="0.3em" style="text-anchor: end; visibility: inherit; font-family: &quot;Helvetica Neue&quot;, sans-serif; font-size: 12px; font-weight: 200;" fill="rgb(50, 49, 63)" stroke="none" stroke-width="1px">0.15</text><text x="0" y="41.07692307692312" dx="0em" dy="0.3em" style="text-anchor: end; visibility: hidden; font-family: &quot;Helvetica Neue&quot;, sans-serif; font-size: 12px; font-weight: 200;" fill="rgb(50, 49, 63)" stroke="none" stroke-width="1px">0.155</text><text x="0" y="27.384615384615415" dx="0em" dy="0.3em" style="text-anchor: end; visibility: inherit; font-family: &quot;Helvetica Neue&quot;, sans-serif; font-size: 12px; font-weight: 200;" fill="rgb(50, 49, 63)" stroke="none" stroke-width="1px">0.16</text><text x="0" y="13.692307692307708" dx="0em" dy="0.3em" style="text-anchor: end; visibility: hidden; font-family: &quot;Helvetica Neue&quot;, sans-serif; font-size: 12px; font-weight: 200;" fill="rgb(50, 49, 63)" stroke="none" stroke-width="1px">0.165</text><text x="0" y="0" dx="0em" dy="0.3em" style="text-anchor: end; visibility: hidden; font-family: &quot;Helvetica Neue&quot;, sans-serif; font-size: 12px; font-weight: 200;" fill="rgb(50, 49, 63)" stroke="none" stroke-width="1px">0.17</text></g><line x1="70" y1="0" x2="70" y2="178" fill="rgb(0, 0, 0)" stroke="rgb(204, 204, 204)" stroke-width="1px"></line></g></g><g transform="translate(70, 0)" clip-path="url(#clip_0)"><clipPath id="clip_0"><rect width="260" height="178"></rect></clipPath><g><g><g><line x1="0" y1="0" x2="0" y2="178" fill="rgb(0, 0, 0)" stroke="rgb(60, 60, 60)" stroke-width="1px" opacity="0.25"></line><line x1="21.666666666666664" y1="0" x2="21.666666666666664" y2="178" fill="rgb(0, 0, 0)" stroke="rgb(60, 60, 60)" stroke-width="1px" opacity="0.25"></line><line x1="43.33333333333333" y1="0" x2="43.33333333333333" y2="178" fill="rgb(0, 0, 0)" stroke="rgb(60, 60, 60)" stroke-width="1px" opacity="0.25"></line><line x1="65" y1="0" x2="65" y2="178" fill="rgb(0, 0, 0)" stroke="rgb(60, 60, 60)" stroke-width="1px" opacity="0.25"></line><line x1="86.66666666666666" y1="0" x2="86.66666666666666" y2="178" fill="rgb(0, 0, 0)" stroke="rgb(60, 60, 60)" stroke-width="1px" opacity="0.25"></line><line x1="108.33333333333334" y1="0" x2="108.33333333333334" y2="178" fill="rgb(0, 0, 0)" stroke="rgb(60, 60, 60)" stroke-width="1px" opacity="0.25"></line><line x1="130" y1="0" x2="130" y2="178" fill="rgb(0, 0, 0)" stroke="rgb(60, 60, 60)" stroke-width="1px" opacity="0.25"></line><line x1="151.66666666666669" y1="0" x2="151.66666666666669" y2="178" fill="rgb(0, 0, 0)" stroke="rgb(60, 60, 60)" stroke-width="1px" opacity="0.25"></line><line x1="173.33333333333331" y1="0" x2="173.33333333333331" y2="178" fill="rgb(0, 0, 0)" stroke="rgb(60, 60, 60)" stroke-width="1px" opacity="0.25"></line><line x1="195" y1="0" x2="195" y2="178" fill="rgb(0, 0, 0)" stroke="rgb(60, 60, 60)" stroke-width="1px" opacity="0.25"></line><line x1="216.66666666666669" y1="0" x2="216.66666666666669" y2="178" fill="rgb(0, 0, 0)" stroke="rgb(60, 60, 60)" stroke-width="1px" opacity="0.25"></line><line x1="238.33333333333331" y1="0" x2="238.33333333333331" y2="178" fill="rgb(0, 0, 0)" stroke="rgb(60, 60, 60)" stroke-width="1px" opacity="0.25"></line><line x1="260" y1="0" x2="260" y2="178" fill="rgb(0, 0, 0)" stroke="rgb(60, 60, 60)" stroke-width="1px" opacity="0.25"></line></g><g><line x1="0" y1="178" x2="260" y2="178" fill="rgb(0, 0, 0)" stroke="rgb(60, 60, 60)" stroke-width="1px" opacity="0.25"></line><line x1="0" y1="164.3076923076923" x2="260" y2="164.3076923076923" fill="rgb(0, 0, 0)" stroke="rgb(60, 60, 60)" stroke-width="1px" opacity="0.25"></line><line x1="0" y1="150.61538461538458" x2="260" y2="150.61538461538458" fill="rgb(0, 0, 0)" stroke="rgb(60, 60, 60)" stroke-width="1px" opacity="0.25"></line><line x1="0" y1="136.92307692307693" x2="260" y2="136.92307692307693" fill="rgb(0, 0, 0)" stroke="rgb(60, 60, 60)" stroke-width="1px" opacity="0.25"></line><line x1="0" y1="123.23076923076924" x2="260" y2="123.23076923076924" fill="rgb(0, 0, 0)" stroke="rgb(60, 60, 60)" stroke-width="1px" opacity="0.25"></line><line x1="0" y1="109.53846153846153" x2="260" y2="109.53846153846153" fill="rgb(0, 0, 0)" stroke="rgb(60, 60, 60)" stroke-width="1px" opacity="0.25"></line><line x1="0" y1="95.84615384615383" x2="260" y2="95.84615384615383" fill="rgb(0, 0, 0)" stroke="rgb(60, 60, 60)" stroke-width="1px" opacity="0.25"></line><line x1="0" y1="82.15384615384613" x2="260" y2="82.15384615384613" fill="rgb(0, 0, 0)" stroke="rgb(60, 60, 60)" stroke-width="1px" opacity="0.25"></line><line x1="0" y1="68.46153846153851" x2="260" y2="68.46153846153851" fill="rgb(0, 0, 0)" stroke="rgb(60, 60, 60)" stroke-width="1px" opacity="0.25"></line><line x1="0" y1="54.769230769230816" x2="260" y2="54.769230769230816" fill="rgb(0, 0, 0)" stroke="rgb(60, 60, 60)" stroke-width="1px" opacity="0.25"></line><line x1="0" y1="41.07692307692312" x2="260" y2="41.07692307692312" fill="rgb(0, 0, 0)" stroke="rgb(60, 60, 60)" stroke-width="1px" opacity="0.25"></line><line x1="0" y1="27.384615384615415" x2="260" y2="27.384615384615415" fill="rgb(0, 0, 0)" stroke="rgb(60, 60, 60)" stroke-width="1px" opacity="0.25"></line><line x1="0" y1="13.692307692307708" x2="260" y2="13.692307692307708" fill="rgb(0, 0, 0)" stroke="rgb(60, 60, 60)" stroke-width="1px" opacity="0.25"></line><line x1="0" y1="0" x2="260" y2="0" fill="rgb(0, 0, 0)" stroke="rgb(60, 60, 60)" stroke-width="1px" opacity="0.25"></line></g></g></g><g><g><line x1="0" y1="465.5384615384615" x2="260" y2="465.5384615384615" fill="rgb(0, 0, 0)" stroke="rgb(153, 153, 153)" stroke-width="1.5px"></line></g></g><g><g><line x1="21.666666666666664" y1="0" x2="21.666666666666664" y2="178" fill="rgb(0, 0, 0)" stroke="rgb(153, 153, 153)" stroke-width="1.5px"></line></g></g><g><g><g><g><g><path stroke="rgb(255, 112, 67)" stroke-width="2px" d="M28.868233333333333,-12.19628559781134L30.3745,33.33907255737978L33.8117,66.4923077889422L35.350033333333336,88.54635473682079L38.84226666666667,111.00741949402536L40.3689,128.09306183166768L43.85983333333333,141.19548873231145L45.399033333333335,145.65260001744048L46.91223333333333,146.74408002137815L50.378033333333335,145.53329055743396L51.889066666666665,150.13837423932694L55.3657,151.69321156070367L56.475033333333336,148.8958077406757L57.747299999999996,149.84736488496745L59.161699999999996,143.67382015220994L62.49576666666666,140.050716361082L64.0068,138.82799549030224L65.51826666666668,138.69634603988197L68.9923,133.83421435344323L70.5068,134.7076218489926L73.06303333333334,129.53850106944995L74.27723333333333,137.10970625067495L75.64699999999999,135.42225256888247L77.0354,135.2779606879526L78.4095,134.96699190992604L79.84686666666667,126.76831964280146L81.26906666666666,129.32449150436116L82.6618,139.85985983541195L84.09743333333334,138.35487996865285L87.4497,121.39253186293172L88.52263333333333,117.19668435968106L89.83823333333333,121.0765279881735L93.16146666666667,123.4339452078105L96.66843333333333,122.6544797581893L98.20113333333333,125.60558950580995L99.7802,131.82060352747797L101.35536666666667,115.91987632551943L104.91563333333333,120.7130457957405L106.47649999999999,112.4564456478038L110.0164,112.1273198069879L111.57076666666667,112.57810882082251L115.10763333333334,100.04516212422912L116.6854,102.78632325209257L118.26966666666667,106.50900510545229L119.86909999999999,98.59024603841655L121.46679999999999,99.14058845035372L123.06276666666668,98.92878887208337L126.66983333333334,93.10176059416388L128.25453333333334,96.63685341549439L129.844,93.24413504340556L131.44213333333335,91.12432887361287L133.03766666666667,101.41047463998888L136.6456,93.67321888685575L140.24183333333335,77.89896754532448L141.83173333333335,71.97981123439182L143.4225,69.4457480100722L147.03,86.2977885605889L148.61079999999998,83.49273900355728L150.19766666666666,67.21672261226877L151.79493333333335,58.146973713587286L152.86223333333334,79.23392482521727L154.10373333333334,70.85340815828101L157.4118,73.26817572235888L160.80133333333336,80.77820177699864L162.2621,75.73793640216257L163.3632,63.44109396028563L166.63876666666667,61.816882897589934L168.13463333333334,67.79332668961318L169.676,68.43885732428663L171.24986666666666,71.9942265811212L172.7921,71.53750766063847L176.37879999999998,57.84848467280611L177.9726,57.18257981676862L179.56596666666667,63.070644499617L181.1654,52.99663697677592L184.79196666666667,60.334677028184046L186.3953,58.9734703824073L187.99213333333333,59.13748397105907L189.59373333333335,49.4431902930194L191.18883333333332,55.10732385903917L192.77960000000002,46.895950584262266L196.40096666666668,61.2853885344563L197.99823333333336,77.48009159599212L199.58596666666665,68.57430891607729L201.1789,69.28431692553895L202.7688,65.50327826684872L204.3613,51.44099395408084L207.9766,63.38367175145338L209.57993333333334,69.3028757994377L211.16983333333332,52.076847934379245L212.76146666666668,41.28123044360157L214.35656666666668,43.31229094360896L215.94906666666668,50.74056224457587L219.57043333333334,57.91104316785621L221.17376666666667,56.2836113200604L224.7765,40.21988752685263L226.37116666666665,39.42128414815642L227.96583333333334,31.533174909893205L229.56526666666664,34.356028522467" style="fill: none;" fill="none"></path></g><g><path stroke="rgb(0, 119, 187)" stroke-width="2px" d="M28.67193333333333,-17.73678016972758L30.159566666666667,26.08538445985772L33.501,64.92166711326117L36.8628,87.48129173011868L38.34696666666667,110.84897206417855L41.76206666666667,129.40180796368284L45.218333333333334,141.90816965915516L48.68586666666666,142.56462280851161L50.2021,150.46565080105376L53.62023333333334,156.32682868203338L55.115233333333336,158.81056995974538L58.46836666666667,159.9337315897613L59.9313,157.0535401589189L63.31433333333333,152.62065292309407L64.779,158.42511082743812L68.1577,153.79932305881678L71.41593333333334,148.66579997137688L72.85156666666667,140.6338501872907L76.33166666666666,134.24854672007697L77.87563333333334,137.3621105715397L79.4339,138.79304099976957L82.97553333333333,132.99350470863897L84.55113333333334,130.38716312947213L86.12283333333333,133.67289580738438L87.69886666666667,137.27500941405108L91.23356666666666,133.23578763955013L94.70196666666666,126.02704347488813L96.21473333333333,115.62932017997682L99.62766666666667,116.1781718682764L101.11833333333334,121.37733441828952L104.46583333333334,117.90175702018196L107.9156,108.24977160511881L109.38113333333334,120.10149222514184L112.75290000000001,128.48805466336202L115.36286666666666,121.40759325862228L116.60306666666666,117.44050418764229L119.86953333333332,111.05635714988304L121.37536666666666,105.69444275847101L124.81993333333332,112.1918111742381L126.33573333333332,115.38513274886085L129.85483333333335,104.250844056086L133.406,104.1962602427679L134.97683333333333,108.63971148933113L138.5336333333333,96.94180029269005L140.09363333333332,87.69999399405931L143.58110000000002,97.68154402805389L146.96110000000002,102.25896930286977L148.40193333333335,111.32775002752913L150.9187333333333,100.34825427274865L152.25036666666665,97.72976509709659L155.62256666666667,84.24681923192412L157.1609,92.40569511112479L160.66223333333332,95.66904784887686L162.20446666666666,91.27326414651294L165.74566666666666,84.53767052139867L167.30913333333334,90.14098740036643L170.86983333333333,98.36711598423834L172.44066666666666,96.91281080101098L175.97363333333334,95.86247563642L179.5499333333333,93.56305379668675L181.1350666666667,84.7739638067196L182.71456666666666,89.20224633629428L186.27396666666667,84.5001665338181L187.8305,88.06455920015817L191.4133,75.53385147515426L192.9793666666667,65.2779962309624L196.45513333333335,68.16510928020807L199.93220000000002,65.41414057681068L203.48466666666667,56.59530376888158L206.98383333333334,76.8572714372135L208.4797,77.25736964926142L209.98423333333332,78.38103093890288L213.46216666666666,73.2800161217007L214.98966666666666,73.40652279059056L218.52220000000003,80.81939176596109L220.09996666666666,72.33156238812659L223.5753,66.8556613649955L225.0776666666667,61.24210747773097L228.56513333333334,62.2236609610367L232.0773,62.43931373624537L235.5782,52.81512860916709L237.13603333333333,42.15072216713179L240.53336666666667,43.08512587529361L241.9742,52.96828391797966" style="fill: none;" fill="none"></path></g></g></g></g><g opacity="0.2"><g><g><g><path stroke="rgb(255, 112, 67)" stroke-width="2px" d="M24.041766666666668,-122.6717333060044L27.384933333333333,14.009803221775968L28.868233333333333,62.65555405616762L30.3745,92.79003616479729L33.8117,112.35516727887668L35.350033333333336,120.08399473703825L38.84226666666667,143.75586753625134L40.3689,153.29106556452237L43.85983333333333,160.65106567052695L45.399033333333335,152.29784127382132L46.91223333333333,148.37536024130307L50.378033333333335,143.72105979919434L51.889066666666665,157.0369779238334L55.3657,154.02363988986383L56.475033333333336,144.7016749565418L57.747299999999996,151.27429793431207L59.161699999999996,134.41507051541254L62.49576666666666,134.61661261778613L64.0068,136.99402594566345L65.51826666666668,138.4988790842203L68.9923,126.54117681429936L70.5068,136.0177158484092L73.06303333333334,121.7848811332996L74.27723333333333,148.4664602096264L75.64699999999999,132.89107924241284L77.0354,135.0615232357612L78.4095,134.50053922029642L79.84686666666667,114.47031879425049L81.26906666666666,133.15874788394342L82.6618,155.66290883834546L84.09743333333334,136.09741046795477L87.4497,95.9490117293138L88.52263333333333,110.90291340534505L89.83823333333333,126.89629326416896L93.16146666666667,126.9700709764774L96.66843333333333,121.48528159581699L98.20113333333333,130.0322540998459L99.7802,141.14312452536362L101.35536666666667,92.06878557572L104.91563333333333,127.90279999146095L106.47649999999999,100.0715454358321L110.0164,111.63363104600174L111.57076666666667,113.25429234137903L115.10763333333334,81.24574208259584L116.6854,106.89806494346033L118.26966666666667,112.09302788514358L119.86909999999999,86.71210743830756L121.46679999999999,99.96610206824084L123.06276666666668,98.61108950468211L126.66983333333334,84.36121817735527L128.25453333333334,101.93949264746448L129.844,88.15505748528702L131.44213333333335,87.94461961892937L133.03766666666667,116.8396932895367L136.6456,82.06733525716342L140.24183333333335,54.23759053303647L141.83173333333335,63.101076767994826L143.4225,65.6446531735934L147.03,111.57584938636194L148.61079999999998,79.28516466800984L150.19766666666666,42.80269802533667L151.79493333333335,44.5423503655654L152.86223333333334,110.86435149266171L154.10373333333334,58.282633157876845L157.4118,76.89032706847559L160.80133333333336,92.04324085895833L162.2621,68.17753833990832L163.3632,44.99583029747012L166.63876666666667,59.38056630354663L168.13463333333334,76.75799237764801L169.676,69.40715327629678L171.24986666666666,77.32728046637317L172.7921,70.85242927991429L176.37879999999998,37.314950191057676L177.9726,56.18372253271251L179.56596666666667,71.9027415238894L181.1654,37.88562569251431L184.79196666666667,71.34173710529622L186.3953,56.93166041374208L187.99213333333333,59.38350435403679L189.59373333333335,34.90174977595993L191.18883333333332,63.60352420806886L192.77960000000002,34.57889067209686L196.40096666666668,82.86954545974733L197.99823333333336,101.77214618829582L199.58596666666665,55.21563489620503L201.1789,70.34932893973132L202.7688,59.83172027881331L204.3613,30.347567484929044L207.9766,81.29768844751213L209.57993333333334,78.1816818714142L211.16983333333332,26.237806136791562L212.76146666666668,25.087804207435056L214.35656666666668,46.35888169361999L215.94906666666668,61.88296919602617L219.57043333333334,68.66676455277664L221.17376666666667,53.842463548366865L224.7765,16.12430183704086L226.37116666666665,38.22337908011221L227.96583333333334,19.701011052498473L229.56526666666664,38.590308941327635" style="fill: none;" fill="none"></path></g><g><path stroke="rgb(0, 119, 187)" stroke-width="2px" d="M27.2168,-9.51157610233011L28.67193333333333,40.57430914732129L30.159566666666667,83.29960260024438L33.501,118.64622708467337L36.8628,119.74191588621873L38.34696666666667,144.9192743209692L41.76206666666667,156.76363721260657L45.218333333333334,160.47865923551413L48.68586666666666,143.5433485507965L50.2021,162.2741957444411L53.62023333333334,165.0994577407837L55.115233333333336,162.53131596858685L58.46836666666667,161.61715380045084L59.9313,152.73528434680057L63.31433333333333,145.97319791867181L64.779,167.13032393272107L68.1577,146.8613460980929L71.41593333333334,140.9659845645611L72.85156666666667,128.58636600237628L76.33166666666666,124.67080163038695L77.87563333333334,142.0323948768469L79.4339,140.93941969137924L82.97553333333333,124.29424149256486L84.55113333333334,126.47766187557808L86.12283333333333,138.60148641696344L87.69886666666667,142.67817429395822L91.23356666666666,127.17695869849278L94.70196666666666,115.21393121205844L96.21473333333333,100.03273868560792L99.62766666666667,117.00144929152269L101.11833333333334,129.17607762263373L104.46583333333334,112.6883911719689L107.9156,93.77179389733536L109.38113333333334,137.8790728495671L112.75290000000001,141.0678981909385L115.36286666666666,110.78690121724057L116.60306666666666,111.48987060326797L119.86953333333332,101.48013661457944L121.37536666666666,97.65157118210428L124.81993333333332,121.93786379007193L126.33573333333332,120.17511510848999L129.85483333333335,87.54941102174614L133.406,104.11438452280485L134.97683333333333,115.30488835848296L138.5336333333333,79.39493349882274L140.09363333333332,73.83728454663205L143.58110000000002,112.65386907870953L146.96110000000002,109.12510721500104L148.40193333333335,124.93092111440805L150.9187333333333,83.87901064065788L152.25036666666665,93.80203133362991L155.62256666666667,64.0224004342006L157.1609,104.64400892991287L160.66223333333332,100.56407695550186L162.20446666666666,84.67958859296947L165.74566666666666,74.43428008372969L167.30913333333334,98.54596271881692L170.86983333333333,110.70630886004523L172.44066666666666,94.73135302617001L175.97363333333334,94.28697288953343L179.5499333333333,90.1139210370871L181.1350666666667,71.59032882176915L182.71456666666666,95.84467013065633L186.27396666666667,77.44704683010396L187.8305,93.41114819966832L191.4133,56.73778988764839L192.9793666666667,49.89421336467453L196.45513333333335,72.49577885407669L199.93220000000002,61.287687521714446L203.48466666666667,43.367048556988095L206.98383333333334,107.25022293971136L208.4797,77.8575169673333L209.98423333333332,80.06652287336497L213.46216666666666,65.62849389589752L214.98966666666666,73.59628279392537L218.52220000000003,91.93869522901683L220.09996666666666,59.59981832137477L223.5753,58.64180983029881L225.0776666666667,52.82177664683418L228.56513333333334,63.69599118599527L232.0773,62.762792899058425L235.5782,38.3788509185498L237.13603333333333,26.154112504078824L240.53336666666667,44.486731437536406L241.9742,67.79302098200873" style="fill: none;" fill="none"></path></g></g></g></g></g></g><g transform="translate(70, 178)" clip-path="url(#clip_1)"><clipPath id="clip_1"><rect width="260" height="22"></rect></clipPath><g><g><line x1="0" y1="0" x2="0" y2="5" style="visibility: inherit;" fill="rgb(0, 0, 0)" stroke="rgb(204, 204, 204)" stroke-width="1px"></line><line x1="21.666666666666664" y1="0" x2="21.666666666666664" y2="5" style="visibility: inherit;" fill="rgb(0, 0, 0)" stroke="rgb(204, 204, 204)" stroke-width="1px"></line><line x1="43.33333333333333" y1="0" x2="43.33333333333333" y2="5" style="visibility: inherit;" fill="rgb(0, 0, 0)" stroke="rgb(204, 204, 204)" stroke-width="1px"></line><line x1="65" y1="0" x2="65" y2="5" style="visibility: inherit;" fill="rgb(0, 0, 0)" stroke="rgb(204, 204, 204)" stroke-width="1px"></line><line x1="86.66666666666666" y1="0" x2="86.66666666666666" y2="5" style="visibility: inherit;" fill="rgb(0, 0, 0)" stroke="rgb(204, 204, 204)" stroke-width="1px"></line><line x1="108.33333333333334" y1="0" x2="108.33333333333334" y2="5" style="visibility: inherit;" fill="rgb(0, 0, 0)" stroke="rgb(204, 204, 204)" stroke-width="1px"></line><line x1="130" y1="0" x2="130" y2="5" style="visibility: inherit;" fill="rgb(0, 0, 0)" stroke="rgb(204, 204, 204)" stroke-width="1px"></line><line x1="151.66666666666669" y1="0" x2="151.66666666666669" y2="5" style="visibility: inherit;" fill="rgb(0, 0, 0)" stroke="rgb(204, 204, 204)" stroke-width="1px"></line><line x1="173.33333333333331" y1="0" x2="173.33333333333331" y2="5" style="visibility: inherit;" fill="rgb(0, 0, 0)" stroke="rgb(204, 204, 204)" stroke-width="1px"></line><line x1="195" y1="0" x2="195" y2="5" style="visibility: inherit;" fill="rgb(0, 0, 0)" stroke="rgb(204, 204, 204)" stroke-width="1px"></line><line x1="216.66666666666669" y1="0" x2="216.66666666666669" y2="5" style="visibility: inherit;" fill="rgb(0, 0, 0)" stroke="rgb(204, 204, 204)" stroke-width="1px"></line><line x1="238.33333333333331" y1="0" x2="238.33333333333331" y2="5" style="visibility: inherit;" fill="rgb(0, 0, 0)" stroke="rgb(204, 204, 204)" stroke-width="1px"></line><line x1="260" y1="0" x2="260" y2="5" style="visibility: inherit;" fill="rgb(0, 0, 0)" stroke="rgb(204, 204, 204)" stroke-width="1px"></line></g><g transform="translate(0, 8)"><text x="0" y="0" dx="0em" dy="0.95em" style="text-anchor: middle; visibility: hidden; font-family: &quot;Helvetica Neue&quot;, sans-serif; font-size: 12px; font-weight: 200;" fill="rgb(50, 49, 63)" stroke="none" stroke-width="1px">-50k</text><text x="21.666666666666664" y="0" dx="0em" dy="0.95em" style="text-anchor: middle; visibility: inherit; font-family: &quot;Helvetica Neue&quot;, sans-serif; font-size: 12px; font-weight: 200;" fill="rgb(50, 49, 63)" stroke="none" stroke-width="1px">0</text><text x="43.33333333333333" y="0" dx="0em" dy="0.95em" style="text-anchor: middle; visibility: hidden; font-family: &quot;Helvetica Neue&quot;, sans-serif; font-size: 12px; font-weight: 200;" fill="rgb(50, 49, 63)" stroke="none" stroke-width="1px">50k</text><text x="65" y="0" dx="0em" dy="0.95em" style="text-anchor: middle; visibility: inherit; font-family: &quot;Helvetica Neue&quot;, sans-serif; font-size: 12px; font-weight: 200;" fill="rgb(50, 49, 63)" stroke="none" stroke-width="1px">100k</text><text x="86.66666666666666" y="0" dx="0em" dy="0.95em" style="text-anchor: middle; visibility: hidden; font-family: &quot;Helvetica Neue&quot;, sans-serif; font-size: 12px; font-weight: 200;" fill="rgb(50, 49, 63)" stroke="none" stroke-width="1px">150k</text><text x="108.33333333333334" y="0" dx="0em" dy="0.95em" style="text-anchor: middle; visibility: inherit; font-family: &quot;Helvetica Neue&quot;, sans-serif; font-size: 12px; font-weight: 200;" fill="rgb(50, 49, 63)" stroke="none" stroke-width="1px">200k</text><text x="130" y="0" dx="0em" dy="0.95em" style="text-anchor: middle; visibility: hidden; font-family: &quot;Helvetica Neue&quot;, sans-serif; font-size: 12px; font-weight: 200;" fill="rgb(50, 49, 63)" stroke="none" stroke-width="1px">250k</text><text x="151.66666666666669" y="0" dx="0em" dy="0.95em" style="text-anchor: middle; visibility: inherit; font-family: &quot;Helvetica Neue&quot;, sans-serif; font-size: 12px; font-weight: 200;" fill="rgb(50, 49, 63)" stroke="none" stroke-width="1px">300k</text><text x="173.33333333333331" y="0" dx="0em" dy="0.95em" style="text-anchor: middle; visibility: hidden; font-family: &quot;Helvetica Neue&quot;, sans-serif; font-size: 12px; font-weight: 200;" fill="rgb(50, 49, 63)" stroke="none" stroke-width="1px">350k</text><text x="195" y="0" dx="0em" dy="0.95em" style="text-anchor: middle; visibility: inherit; font-family: &quot;Helvetica Neue&quot;, sans-serif; font-size: 12px; font-weight: 200;" fill="rgb(50, 49, 63)" stroke="none" stroke-width="1px">400k</text><text x="216.66666666666669" y="0" dx="0em" dy="0.95em" style="text-anchor: middle; visibility: hidden; font-family: &quot;Helvetica Neue&quot;, sans-serif; font-size: 12px; font-weight: 200;" fill="rgb(50, 49, 63)" stroke="none" stroke-width="1px">450k</text><text x="238.33333333333331" y="0" dx="0em" dy="0.95em" style="text-anchor: middle; visibility: inherit; font-family: &quot;Helvetica Neue&quot;, sans-serif; font-size: 12px; font-weight: 200;" fill="rgb(50, 49, 63)" stroke="none" stroke-width="1px">500k</text><text x="260" y="0" dx="0em" dy="0.95em" style="text-anchor: middle; visibility: hidden; font-family: &quot;Helvetica Neue&quot;, sans-serif; font-size: 12px; font-weight: 200;" fill="rgb(50, 49, 63)" stroke="none" stroke-width="1px">550k</text></g><line x1="0" y1="0" x2="260" y2="0" fill="rgb(0, 0, 0)" stroke="rgb(204, 204, 204)" stroke-width="1px"></line></g></g></g></g></svg>