<svg viewBox="0 0 330 200" xmlns="http://www.w3.org/2000/svg"><g><g><g><g><g><line x1="58" y1="178" x2="53" y2="178" style="visibility: inherit;" fill="rgb(0, 0, 0)" stroke="rgb(204, 204, 204)" stroke-width="1px"></line><line x1="58" y1="165.28571428571428" x2="53" y2="165.28571428571428" style="visibility: inherit;" fill="rgb(0, 0, 0)" stroke="rgb(204, 204, 204)" stroke-width="1px"></line><line x1="58" y1="152.57142857142856" x2="53" y2="152.57142857142856" style="visibility: inherit;" fill="rgb(0, 0, 0)" stroke="rgb(204, 204, 204)" stroke-width="1px"></line><line x1="58" y1="139.85714285714297" x2="53" y2="139.85714285714297" style="visibility: inherit;" fill="rgb(0, 0, 0)" stroke="rgb(204, 204, 204)" stroke-width="1px"></line><line x1="58" y1="127.14285714285725" x2="53" y2="127.14285714285725" style="visibility: inherit;" fill="rgb(0, 0, 0)" stroke="rgb(204, 204, 204)" stroke-width="1px"></line><line x1="58" y1="114.42857142857152" x2="53" y2="114.42857142857152" style="visibility: inherit;" fill="rgb(0, 0, 0)" stroke="rgb(204, 204, 204)" stroke-width="1px"></line><line x1="58" y1="101.7142857142858" x2="53" y2="101.7142857142858" style="visibility: inherit;" fill="rgb(0, 0, 0)" stroke="rgb(204, 204, 204)" stroke-width="1px"></line><line x1="58" y1="89.00000000000007" x2="53" y2="89.00000000000007" style="visibility: inherit;" fill="rgb(0, 0, 0)" stroke="rgb(204, 204, 204)" stroke-width="1px"></line><line x1="58" y1="76.28571428571435" x2="53" y2="76.28571428571435" style="visibility: inherit;" fill="rgb(0, 0, 0)" stroke="rgb(204, 204, 204)" stroke-width="1px"></line><line x1="58" y1="63.571428571428626" x2="53" y2="63.571428571428626" style="visibility: inherit;" fill="rgb(0, 0, 0)" stroke="rgb(204, 204, 204)" stroke-width="1px"></line><line x1="58" y1="50.85714285714289" x2="53" y2="50.85714285714289" style="visibility: inherit;" fill="rgb(0, 0, 0)" stroke="rgb(204, 204, 204)" stroke-width="1px"></line><line x1="58" y1="38.14285714285717" x2="53" y2="38.14285714285717" style="visibility: inherit;" fill="rgb(0, 0, 0)" stroke="rgb(204, 204, 204)" stroke-width="1px"></line><line x1="58" y1="25.428571428571445" x2="53" y2="25.428571428571445" style="visibility: inherit;" fill="rgb(0, 0, 0)" stroke="rgb(204, 204, 204)" stroke-width="1px"></line><line x1="58" y1="12.714285714285722" x2="53" y2="12.714285714285722" style="visibility: inherit;" fill="rgb(0, 0, 0)" stroke="rgb(204, 204, 204)" stroke-width="1px"></line><line x1="58" y1="0" x2="53" y2="0" style="visibility: inherit;" fill="rgb(0, 0, 0)" stroke="rgb(204, 204, 204)" stroke-width="1px"></line></g><g transform="translate(48, 0)"><text x="0" y="178" dx="0em" dy="0.3em" style="text-anchor: end; visibility: hidden; font-family: &quot;Helvetica Neue&quot;, sans-serif; font-size: 12px; font-weight: 200;" fill="rgb(50, 49, 63)" stroke="none" stroke-width="1px">0.66</text><text x="0" y="165.28571428571428" dx="0em" dy="0.3em" style="text-anchor: end; visibility: inherit; font-family: &quot;Helvetica Neue&quot;, sans-serif; font-size: 12px; font-weight: 200;" fill="rgb(50, 49, 63)" stroke="none" stroke-width="1px">0.67</text><text x="0" y="152.57142857142856" dx="0em" dy="0.3em" style="text-anchor: end; visibility: hidden; font-family: &quot;Helvetica Neue&quot;, sans-serif; font-size: 12px; font-weight: 200;" fill="rgb(50, 49, 63)" stroke="none" stroke-width="1px">0.68</text><text x="0" y="139.85714285714297" dx="0em" dy="0.3em" style="text-anchor: end; visibility: inherit; font-family: &quot;Helvetica Neue&quot;, sans-serif; font-size: 12px; font-weight: 200;" fill="rgb(50, 49, 63)" stroke="none" stroke-width="1px">0.69</text><text x="0" y="127.14285714285725" dx="0em" dy="0.3em" style="text-anchor: end; visibility: hidden; font-family: &quot;Helvetica Neue&quot;, sans-serif; font-size: 12px; font-weight: 200;" fill="rgb(50, 49, 63)" stroke="none" stroke-width="1px">0.7</text><text x="0" y="114.42857142857152" dx="0em" dy="0.3em" style="text-anchor: end; visibility: inherit; font-family: &quot;Helvetica Neue&quot;, sans-serif; font-size: 12px; font-weight: 200;" fill="rgb(50, 49, 63)" stroke="none" stroke-width="1px">0.71</text><text x="0" y="101.7142857142858" dx="0em" dy="0.3em" style="text-anchor: end; visibility: hidden; font-family: &quot;Helvetica Neue&quot;, sans-serif; font-size: 12px; font-weight: 200;" fill="rgb(50, 49, 63)" stroke="none" stroke-width="1px">0.72</text><text x="0" y="89.00000000000007" dx="0em" dy="0.3em" style="text-anchor: end; visibility: inherit; font-family: &quot;Helvetica Neue&quot;, sans-serif; font-size: 12px; font-weight: 200;" fill="rgb(50, 49, 63)" stroke="none" stroke-width="1px">0.73</text><text x="0" y="76.28571428571435" dx="0em" dy="0.3em" style="text-anchor: end; visibility: hidden; font-family: &quot;Helvetica Neue&quot;, sans-serif; font-size: 12px; font-weight: 200;" fill="rgb(50, 49, 63)" stroke="none" stroke-width="1px">0.74</text><text x="0" y="63.571428571428626" dx="0em" dy="0.3em" style="text-anchor: end; visibility: inherit; font-family: &quot;Helvetica Neue&quot;, sans-serif; font-size: 12px; font-weight: 200;" fill="rgb(50, 49, 63)" stroke="none" stroke-width="1px">0.75</text><text x="0" y="50.85714285714289" dx="0em" dy="0.3em" style="text-anchor: end; visibility: hidden; font-family: &quot;Helvetica Neue&quot;, sans-serif; font-size: 12px; font-weight: 200;" fill="rgb(50, 49, 63)" stroke="none" stroke-width="1px">0.76</text><text x="0" y="38.14285714285717" dx="0em" dy="0.3em" style="text-anchor: end; visibility: inherit; font-family: &quot;Helvetica Neue&quot;, sans-serif; font-size: 12px; font-weight: 200;" fill="rgb(50, 49, 63)" stroke="none" stroke-width="1px">0.77</text><text x="0" y="25.428571428571445" dx="0em" dy="0.3em" style="text-anchor: end; visibility: hidden; font-family: &quot;Helvetica Neue&quot;, sans-serif; font-size: 12px; font-weight: 200;" fill="rgb(50, 49, 63)" stroke="none" stroke-width="1px">0.78</text><text x="0" y="12.714285714285722" dx="0em" dy="0.3em" style="text-anchor: end; visibility: inherit; font-family: &quot;Helvetica Neue&quot;, sans-serif; font-size: 12px; font-weight: 200;" fill="rgb(50, 49, 63)" stroke="none" stroke-width="1px">0.79</text><text x="0" y="0" dx="0em" dy="0.3em" style="text-anchor: end; visibility: hidden; font-family: &quot;Helvetica Neue&quot;, sans-serif; font-size: 12px; font-weight: 200;" fill="rgb(50, 49, 63)" stroke="none" stroke-width="1px">0.8</text></g><line x1="58" y1="0" x2="58" y2="178" fill="rgb(0, 0, 0)" stroke="rgb(204, 204, 204)" stroke-width="1px"></line></g></g><g transform="translate(58, 0)" clip-path="url(#clip_0)"><clipPath id="clip_0"><rect width="272" height="178"></rect></clipPath><g><g><g><line x1="0" y1="0" x2="0" y2="178" fill="rgb(0, 0, 0)" stroke="rgb(60, 60, 60)" stroke-width="1px" opacity="0.25"></line><line x1="22.666666666666664" y1="0" x2="22.666666666666664" y2="178" fill="rgb(0, 0, 0)" stroke="rgb(60, 60, 60)" stroke-width="1px" opacity="0.25"></line><line x1="45.33333333333333" y1="0" x2="45.33333333333333" y2="178" fill="rgb(0, 0, 0)" stroke="rgb(60, 60, 60)" stroke-width="1px" opacity="0.25"></line><line x1="68" y1="0" x2="68" y2="178" fill="rgb(0, 0, 0)" stroke="rgb(60, 60, 60)" stroke-width="1px" opacity="0.25"></line><line x1="90.66666666666666" y1="0" x2="90.66666666666666" y2="178" fill="rgb(0, 0, 0)" stroke="rgb(60, 60, 60)" stroke-width="1px" opacity="0.25"></line><line x1="113.33333333333334" y1="0" x2="113.33333333333334" y2="178" fill="rgb(0, 0, 0)" stroke="rgb(60, 60, 60)" stroke-width="1px" opacity="0.25"></line><line x1="136" y1="0" x2="136" y2="178" fill="rgb(0, 0, 0)" stroke="rgb(60, 60, 60)" stroke-width="1px" opacity="0.25"></line><line x1="158.66666666666669" y1="0" x2="158.66666666666669" y2="178" fill="rgb(0, 0, 0)" stroke="rgb(60, 60, 60)" stroke-width="1px" opacity="0.25"></line><line x1="181.33333333333331" y1="0" x2="181.33333333333331" y2="178" fill="rgb(0, 0, 0)" stroke="rgb(60, 60, 60)" stroke-width="1px" opacity="0.25"></line><line x1="204" y1="0" x2="204" y2="178" fill="rgb(0, 0, 0)" stroke="rgb(60, 60, 60)" stroke-width="1px" opacity="0.25"></line><line x1="226.66666666666669" y1="0" x2="226.66666666666669" y2="178" fill="rgb(0, 0, 0)" stroke="rgb(60, 60, 60)" stroke-width="1px" opacity="0.25"></line><line x1="249.33333333333331" y1="0" x2="249.33333333333331" y2="178" fill="rgb(0, 0, 0)" stroke="rgb(60, 60, 60)" stroke-width="1px" opacity="0.25"></line><line x1="272" y1="0" x2="272" y2="178" fill="rgb(0, 0, 0)" stroke="rgb(60, 60, 60)" stroke-width="1px" opacity="0.25"></line></g><g><line x1="0" y1="178" x2="272" y2="178" fill="rgb(0, 0, 0)" stroke="rgb(60, 60, 60)" stroke-width="1px" opacity="0.25"></line><line x1="0" y1="165.28571428571428" x2="272" y2="165.28571428571428" fill="rgb(0, 0, 0)" stroke="rgb(60, 60, 60)" stroke-width="1px" opacity="0.25"></line><line x1="0" y1="152.57142857142856" x2="272" y2="152.57142857142856" fill="rgb(0, 0, 0)" stroke="rgb(60, 60, 60)" stroke-width="1px" opacity="0.25"></line><line x1="0" y1="139.85714285714297" x2="272" y2="139.85714285714297" fill="rgb(0, 0, 0)" stroke="rgb(60, 60, 60)" stroke-width="1px" opacity="0.25"></line><line x1="0" y1="127.14285714285725" x2="272" y2="127.14285714285725" fill="rgb(0, 0, 0)" stroke="rgb(60, 60, 60)" stroke-width="1px" opacity="0.25"></line><line x1="0" y1="114.42857142857152" x2="272" y2="114.42857142857152" fill="rgb(0, 0, 0)" stroke="rgb(60, 60, 60)" stroke-width="1px" opacity="0.25"></line><line x1="0" y1="101.7142857142858" x2="272" y2="101.7142857142858" fill="rgb(0, 0, 0)" stroke="rgb(60, 60, 60)" stroke-width="1px" opacity="0.25"></line><line x1="0" y1="89.00000000000007" x2="272" y2="89.00000000000007" fill="rgb(0, 0, 0)" stroke="rgb(60, 60, 60)" stroke-width="1px" opacity="0.25"></line><line x1="0" y1="76.28571428571435" x2="272" y2="76.28571428571435" fill="rgb(0, 0, 0)" stroke="rgb(60, 60, 60)" stroke-width="1px" opacity="0.25"></line><line x1="0" y1="63.571428571428626" x2="272" y2="63.571428571428626" fill="rgb(0, 0, 0)" stroke="rgb(60, 60, 60)" stroke-width="1px" opacity="0.25"></line><line x1="0" y1="50.85714285714289" x2="272" y2="50.85714285714289" fill="rgb(0, 0, 0)" stroke="rgb(60, 60, 60)" stroke-width="1px" opacity="0.25"></line><line x1="0" y1="38.14285714285717" x2="272" y2="38.14285714285717" fill="rgb(0, 0, 0)" stroke="rgb(60, 60, 60)" stroke-width="1px" opacity="0.25"></line><line x1="0" y1="25.428571428571445" x2="272" y2="25.428571428571445" fill="rgb(0, 0, 0)" stroke="rgb(60, 60, 60)" stroke-width="1px" opacity="0.25"></line><line x1="0" y1="12.714285714285722" x2="272" y2="12.714285714285722" fill="rgb(0, 0, 0)" stroke="rgb(60, 60, 60)" stroke-width="1px" opacity="0.25"></line><line x1="0" y1="0" x2="272" y2="0" fill="rgb(0, 0, 0)" stroke="rgb(60, 60, 60)" stroke-width="1px" opacity="0.25"></line></g></g></g><g><g><line x1="0" y1="1017.1428571428571" x2="272" y2="1017.1428571428571" fill="rgb(0, 0, 0)" stroke="rgb(153, 153, 153)" stroke-width="1.5px"></line></g></g><g><g><line x1="22.666666666666664" y1="0" x2="22.666666666666664" y2="178" fill="rgb(0, 0, 0)" stroke="rgb(153, 153, 153)" stroke-width="1.5px"></line></g></g><g><g><g><g><g><path stroke="rgb(255, 112, 67)" stroke-width="2px" d="M31.7764,-5.445775440075465L35.37224,31.558457042850932L36.98157333333334,38.74838683209265L40.63498666666666,82.19656925027408L42.232079999999996,96.18855859966044L45.88413333333333,109.78710276284036L47.494373333333336,125.06909227331926L49.07741333333333,115.38256696534532L52.70317333333333,121.01705534763602L54.283946666666665,124.09148519512283L57.92104,133.32116121059917L59.08157333333333,130.4232789560411L60.41256,131.26668051449874L61.89224,124.65975954258332L65.38018666666666,119.14645147931232L66.96096,122.1619472741888L68.54218666666667,130.63565134635888L72.17656,128.25445034629956L73.76096,126.71246840985566L76.43517333333332,132.68666908241326L77.70541333333334,138.65864731186073L79.13839999999999,132.1212831435529L80.59088,131.7222414963672L82.02839999999999,142.9044507599591L83.53210666666666,137.57084076577047L85.01994666666666,147.48499607088792L86.47695999999999,137.63138639102732L87.97885333333335,125.63514562073837L91.48584,123.13804260434982L92.60829333333334,122.68731482167746L93.98461333333334,132.6013318909328L97.46122666666666,148.58657030425132L101.13005333333332,150.5228371715582L102.73349333333334,148.30085384933696L104.38544,144.51386937644767L106.03330666666666,133.88914391598297L109.75789333333333,148.98898139223996L111.3908,145.17582963213226L115.09408,136.44725854837418L116.72018666666666,143.09883927520502L120.42029333333333,120.41254808540464L122.07088,117.83290579494252L123.72826666666666,130.485408648926L125.40151999999999,122.88056005865685L127.07296,116.91266350126091L128.74258666666668,124.0106664770826L132.51613333333333,101.51580901405711L134.17397333333332,108.40247324556452L135.8368,115.28300169550215L137.50869333333335,115.14630943034345L139.1778666666667,125.46148580011939L142.95232000000001,108.0166173422957L146.71453333333335,109.79754035057718L148.37781333333334,111.64772051630263L150.042,107.28362496103945L153.816,120.80783601134465L155.46976,116.85376062453302L157.12986666666666,106.01656108347301L158.80085333333335,103.03915344368902L159.91741333333331,122.83390223881224L161.21621333333334,116.55155684207536L164.67696,116.19138644387255L168.22293333333334,114.1776193582582L169.75112000000001,114.05526956341077L170.90304,101.40157052699999L174.32978666666668,99.08964109571475L175.89469333333332,101.50036606197874L177.50719999999998,105.92146756907631L179.15370666666666,98.30155438918919L180.76712,95.50126258575358L184.51936,97.49489812195644L186.18671999999998,100.36294443009785L187.85362666666668,117.00954672114287L189.52688,100.65789711042272L193.32082666666668,97.18888752881821L194.99816,93.31936559725582L196.66869333333332,99.96060450719216L198.34421333333333,95.05081272033705L200.01293333333334,98.4813233370057L201.67712,87.09138213805899L205.46562666666665,90.85482796131524L207.13661333333334,99.25489933209143L208.79762666666667,95.22789449045976L210.46408000000002,98.03872124965653L212.12736,103.67324130561492L213.79335999999998,93.71919846346198L217.57552,109.1887981471604L219.25285333333332,119.70748887266689L220.91613333333333,97.05336126314047L222.58122666666668,88.08501474208927L224.24994666666666,80.61030308266291L225.91594666666668,84.79263176153272L229.70445333333333,89.99247875163488L231.38178666666667,92.91695762059241L235.1508,70.93596981139527L236.81906666666666,79.04962826047704L238.4873333333333,83.59444190597594L240.16058666666666,86.8194975399565" style="fill: none;" fill="none"></path></g><g><path stroke="rgb(0, 119, 187)" stroke-width="2px" d="M29.99525333333333,-24.13873513017873L31.551546666666667,5.819267728963041L35.0472,42.98411856726838L38.564159999999994,69.31400593772628L40.11682666666667,81.70363679461471L43.68954666666667,94.11224921048588L47.30533333333333,106.15273279949804L50.93290666666667,116.77463551796598L52.51912,116.6124013864827L56.095013333333334,119.68989308480064L57.659013333333334,121.85574982524773L61.16690666666667,134.4777298648557L62.697359999999996,133.84526084372592L66.23653333333333,135.25252376277066L67.7688,153.56361587583334L71.30344000000001,143.63104829505332L74.71205333333333,140.74601046283712L76.21394666666666,143.57299029434034L79.85466666666666,137.6763955774632L81.46989333333335,135.0819645091442L83.10007999999999,132.80101148615418L86.80517333333334,130.12533685529874L88.45349333333334,108.66810917943498L90.09773333333334,124.88405828141737L91.74650666666668,133.72265043054063L95.44434666666666,134.73505540698193L99.07282666666667,139.2926752664041L100.65541333333333,125.98142676116319L104.22586666666666,129.72325835710467L105.78533333333334,124.51412393916578L109.28733333333334,129.49733891449515L112.89632,126.76467753594753L114.42949333333333,133.99827545680512L117.95688000000001,144.5645572605993L120.68730666666667,144.83328564814192L121.98474666666667,131.3499666722173L125.40197333333333,134.85253854181713L126.97730666666666,131.7502112918091L130.58085333333332,130.9349544566433L132.16661333333332,133.38509135700986L135.84813333333332,119.47342754259593L139.5632,115.89997315879218L141.2065333333333,114.59030220443267L144.92749333333333,102.31606231944936L146.55949333333334,108.54763384196133L150.20792,125.22271279692183L153.74392,123.8208957309241L155.25125333333335,119.73165309906575L157.88421333333332,110.59310294503221L159.27730666666668,121.99307193179051L162.80514666666667,110.59774215623311L164.41448,114.01080784562188L168.07741333333334,127.06292183190283L169.69082666666665,111.1476629605666L173.39546666666666,106.59094329744879L175.03109333333336,116.50895204926647L178.7561333333333,118.3133939057554L180.39946666666668,117.24369919342436L184.09549333333334,112.03501399270012L187.83685333333332,119.72264946475994L189.49514666666667,124.07020227128066L191.14754666666667,125.5466564656126L194.87122666666664,126.40933936941451L196.4996,130.9138649725531L200.24776,116.15301341810658L201.88610666666668,107.51360576237256L205.52229333333335,109.73969419189444L209.15984,109.82616979370543L212.87626666666665,116.65991046550464L216.53693333333334,116.74435050969296L218.10184,115.11566218460884L219.67581333333334,112.4709796199433L223.31426666666667,112.22234714903679L224.91226666666665,107.4885963730709L228.60784,108.28675068556308L230.25842666666665,114.47547158170882L233.89416,111.02544788291118L235.46586666666667,112.16633110931127L239.11429333333334,108.4579299244151L242.78856,103.32736713945926L246.45104,104.253981694852L248.08077333333333,98.70726279675306L251.63490666666667,87.26283666560941L253.14224,84.71642100767505" style="fill: none;" fill="none"></path></g></g></g></g><g opacity="0.2"><g><g><g><path stroke="rgb(255, 112, 67)" stroke-width="2px" d="M25.151386666666667,-109.05833908489768L28.64885333333333,8.910025187901141L30.200613333333333,-21.262161902018903L31.7764,49.54012138502944L35.37224,82.74863209043235L36.98157333333334,49.030101469584935L40.63498666666666,145.5444363185338L42.232079999999996,116.82402508599422L45.88413333333333,129.97935601643158L47.494373333333336,147.85347001893183L49.07741333333333,100.90549264635364L52.70317333333333,129.45039033889776L54.283946666666665,128.69710683822638L57.92104,147.15482609612604L59.08157333333333,126.07849938528884L60.41256,132.53142595291143L61.89224,114.75105558122911L65.38018666666666,110.87732928139827L66.96096,126.6849153382438L68.54218666666667,143.34574273654397L72.17656,124.6827272006444L73.76096,124.39952594893325L76.43517333333332,141.6478993211474L77.70541333333334,147.61657220976699L79.13839999999999,122.31526476996291L80.59088,131.12368004662653L82.02839999999999,159.6777474880219L83.53210666666666,129.57043068749567L85.01994666666666,162.35622354916168L86.47695999999999,122.85097513880052L87.97885333333335,107.64078685215546L91.48584,119.39238837787087L92.60829333333334,122.01122317995348L93.98461333333334,147.47235706874307L97.46122666666666,172.5644275120327L101.13005333333332,153.4272374425616L102.73349333333334,144.9678788866316L104.38544,138.83339268820632L106.03330666666666,117.95205576079238L109.75789333333333,171.6387375763485L111.3908,139.4561019965581L115.09408,123.35440192903795L116.72018666666666,153.07621036257066L120.42029333333333,86.38311130659925L122.07088,113.96344235965188L123.72826666666666,149.4641629287175L125.40151999999999,111.47328717367994L127.07296,107.96081866536827L128.74258666666668,134.6576709406717L132.51613333333333,67.77352281979157L134.17397333333332,118.73246959277566L135.8368,125.60379437037881L137.50869333333335,114.9412710326059L139.1778666666667,140.9342503547669L142.95232000000001,81.84931465557648L146.71453333333335,112.46892486299792L148.37781333333334,114.42299076489044L150.042,100.73748162814555L153.816,141.09415258680076L155.46976,110.92264754431592L157.12986666666666,89.76076177188334L158.80085333333335,98.57304198401319L159.91741333333331,152.5260254314968L161.21621333333334,107.12803874697009L164.67696,115.65113084656856L168.22293333333334,111.15696872983665L169.75112000000001,113.87174487113957L170.90304,82.42102197238383L174.32978666666668,95.62174694878719L175.89469333333332,105.11645351137439L177.50719999999998,112.55311982972286L179.15370666666666,86.87168461935865L180.76712,91.30082488060002L184.51936,100.48535142626086L186.18671999999998,104.66501389231006L187.85362666666668,141.97945015771052L189.52688,76.13042269434253L193.32082666666668,91.98537315641136L194.99816,87.51508269991199L196.66869333333332,109.92246287209652L198.34421333333333,87.68612504005436L200.01293333333334,103.62708926200871L201.67712,70.0064703396389L205.46562666666665,96.49999669619974L207.13661333333334,111.85500638825557L208.79762666666667,89.18738722801213L210.46408000000002,102.25496138845176L212.12736,112.12502138955257L213.79335999999998,78.78813420023242L217.57552,132.39319767270774L219.25285333333332,135.48552496092665L220.91613333333333,63.072169848850834L222.58122666666668,74.63249496051249L224.24994666666666,69.39823559352335L225.91594666666668,91.06612477983752L229.70445333333333,97.79224923678812L231.38178666666667,97.30367592402872L235.1508,37.96448809759963L236.81906666666666,91.22011593409952L238.4873333333333,90.41166237422404L240.16058666666666,91.65708099092761" style="fill: none;" fill="none"></path></g><g><path stroke="rgb(0, 119, 187)" stroke-width="2px" d="M26.996906666666668,-47.20724633761807L28.47296,32.14669925825942L29.99525333333333,-11.703115531376369L31.551546666666667,44.9324362618583L35.0472,94.39648662294665L38.564159999999994,106.96616615567893L40.11682666666667,99.7678375244141L43.68954666666667,112.4125422750201L47.30533333333333,124.03144768306191L50.93290666666667,132.61114971978327L52.51912,116.36993306023739L56.095013333333334,124.29608208792556L57.659013333333334,125.10029179709304L61.16690666666667,153.3958632605417L62.697359999999996,132.89700337818695L66.23653333333333,137.36282263483324L67.7688,181.02560486112327L71.30344000000001,128.73371005058294L74.71205333333333,136.41871741839822L76.21394666666666,147.81330500330247L79.85466666666666,128.8316975321089L81.46989333333335,131.19036912918097L83.10007999999999,129.37960897173204L86.80517333333334,126.11184392656602L88.45349333333334,76.48235917091374L90.09773333333334,149.20794044222154L91.74650666666668,146.98052508490431L95.44434666666666,136.25366193907607L99.07282666666667,146.12910253661025L100.65541333333333,106.01455841745654L104.22586666666666,135.33600500651772L105.78533333333334,116.7004229341235L109.28733333333334,136.97216102055145L112.89632,122.66568558556698L114.42949333333333,144.8486721515656L117.95688000000001,160.4139798028129L120.68730666666667,145.23637822696145L121.98474666666667,111.12498828342987L125.40197333333333,140.10639633451194L126.97730666666666,127.09672042301727L130.58085333333332,129.71206920487543L132.16661333333332,137.06029670579096L135.84813333333332,98.60593182700025L139.5632,110.53979158401494L141.2065333333333,112.6257957730975L144.92749333333333,83.90470249312268L146.55949333333334,117.89499112537933L150.20792,150.23533122880121L153.74392,121.71817013195587L155.25125333333335,113.597789151328L157.88421333333332,96.88527771404816L159.27730666666668,139.09302541187836L162.80514666666667,93.50474749292651L164.41448,119.13040637969976L168.07741333333334,146.64109281131203L169.69082666666665,87.27477465357104L173.39546666666666,99.75586380277366L175.03109333333336,131.3859651769911L178.7561333333333,121.02005669048859L180.39946666666668,115.63915712492812L184.09549333333334,104.22198619161338L187.83685333333332,131.25410267284943L189.49514666666667,130.5915314810617L191.14754666666667,127.76133775711064L194.87122666666664,127.70336372511733L196.4996,137.67065337726052L200.24776,94.01173608643673L201.88610666666668,94.55449427877159L205.52229333333335,113.07882683617733L209.15984,109.95588319642208L212.87626666666665,126.91052147320343L216.53693333333334,116.87101057597573L218.10184,112.6726296969823L219.67581333333334,108.5039557729449L223.31426666666667,111.84939844267713L224.91226666666665,100.38797020912175L228.60784,109.48398215430127L230.25842666666665,123.75855292592735L233.89416,105.85041233471466L235.46586666666667,113.87765594891144L239.11429333333334,102.8953281470708L242.78856,95.63152296202529L246.45104,105.64390352794108L248.08077333333333,90.38718444960463L251.63490666666667,70.09619746889392L253.14224,80.8967975207738" style="fill: none;" fill="none"></path></g></g></g></g></g></g><g transform="translate(58, 178)" clip-path="url(#clip_1)"><clipPath id="clip_1"><rect width="272" height="22"></rect></clipPath><g><g><line x1="0" y1="0" x2="0" y2="5" style="visibility: inherit;" fill="rgb(0, 0, 0)" stroke="rgb(204, 204, 204)" stroke-width="1px"></line><line x1="22.666666666666664" y1="0" x2="22.666666666666664" y2="5" style="visibility: inherit;" fill="rgb(0, 0, 0)" stroke="rgb(204, 204, 204)" stroke-width="1px"></line><line x1="45.33333333333333" y1="0" x2="45.33333333333333" y2="5" style="visibility: inherit;" fill="rgb(0, 0, 0)" stroke="rgb(204, 204, 204)" stroke-width="1px"></line><line x1="68" y1="0" x2="68" y2="5" style="visibility: inherit;" fill="rgb(0, 0, 0)" stroke="rgb(204, 204, 204)" stroke-width="1px"></line><line x1="90.66666666666666" y1="0" x2="90.66666666666666" y2="5" style="visibility: inherit;" fill="rgb(0, 0, 0)" stroke="rgb(204, 204, 204)" stroke-width="1px"></line><line x1="113.33333333333334" y1="0" x2="113.33333333333334" y2="5" style="visibility: inherit;" fill="rgb(0, 0, 0)" stroke="rgb(204, 204, 204)" stroke-width="1px"></line><line x1="136" y1="0" x2="136" y2="5" style="visibility: inherit;" fill="rgb(0, 0, 0)" stroke="rgb(204, 204, 204)" stroke-width="1px"></line><line x1="158.66666666666669" y1="0" x2="158.66666666666669" y2="5" style="visibility: inherit;" fill="rgb(0, 0, 0)" stroke="rgb(204, 204, 204)" stroke-width="1px"></line><line x1="181.33333333333331" y1="0" x2="181.33333333333331" y2="5" style="visibility: inherit;" fill="rgb(0, 0, 0)" stroke="rgb(204, 204, 204)" stroke-width="1px"></line><line x1="204" y1="0" x2="204" y2="5" style="visibility: inherit;" fill="rgb(0, 0, 0)" stroke="rgb(204, 204, 204)" stroke-width="1px"></line><line x1="226.66666666666669" y1="0" x2="226.66666666666669" y2="5" style="visibility: inherit;" fill="rgb(0, 0, 0)" stroke="rgb(204, 204, 204)" stroke-width="1px"></line><line x1="249.33333333333331" y1="0" x2="249.33333333333331" y2="5" style="visibility: inherit;" fill="rgb(0, 0, 0)" stroke="rgb(204, 204, 204)" stroke-width="1px"></line><line x1="272" y1="0" x2="272" y2="5" style="visibility: inherit;" fill="rgb(0, 0, 0)" stroke="rgb(204, 204, 204)" stroke-width="1px"></line></g><g transform="translate(0, 8)"><text x="0" y="0" dx="0em" dy="0.95em" style="text-anchor: middle; visibility: hidden; font-family: &quot;Helvetica Neue&quot;, sans-serif; font-size: 12px; font-weight: 200;" fill="rgb(50, 49, 63)" stroke="none" stroke-width="1px">-50k</text><text x="22.666666666666664" y="0" dx="0em" dy="0.95em" style="text-anchor: middle; visibility: inherit; font-family: &quot;Helvetica Neue&quot;, sans-serif; font-size: 12px; font-weight: 200;" fill="rgb(50, 49, 63)" stroke="none" stroke-width="1px">0</text><text x="45.33333333333333" y="0" dx="0em" dy="0.95em" style="text-anchor: middle; visibility: hidden; font-family: &quot;Helvetica Neue&quot;, sans-serif; font-size: 12px; font-weight: 200;" fill="rgb(50, 49, 63)" stroke="none" stroke-width="1px">50k</text><text x="68" y="0" dx="0em" dy="0.95em" style="text-anchor: middle; visibility: inherit; font-family: &quot;Helvetica Neue&quot;, sans-serif; font-size: 12px; font-weight: 200;" fill="rgb(50, 49, 63)" stroke="none" stroke-width="1px">100k</text><text x="90.66666666666666" y="0" dx="0em" dy="0.95em" style="text-anchor: middle; visibility: hidden; font-family: &quot;Helvetica Neue&quot;, sans-serif; font-size: 12px; font-weight: 200;" fill="rgb(50, 49, 63)" stroke="none" stroke-width="1px">150k</text><text x="113.33333333333334" y="0" dx="0em" dy="0.95em" style="text-anchor: middle; visibility: inherit; font-family: &quot;Helvetica Neue&quot;, sans-serif; font-size: 12px; font-weight: 200;" fill="rgb(50, 49, 63)" stroke="none" stroke-width="1px">200k</text><text x="136" y="0" dx="0em" dy="0.95em" style="text-anchor: middle; visibility: hidden; font-family: &quot;Helvetica Neue&quot;, sans-serif; font-size: 12px; font-weight: 200;" fill="rgb(50, 49, 63)" stroke="none" stroke-width="1px">250k</text><text x="158.66666666666669" y="0" dx="0em" dy="0.95em" style="text-anchor: middle; visibility: inherit; font-family: &quot;Helvetica Neue&quot;, sans-serif; font-size: 12px; font-weight: 200;" fill="rgb(50, 49, 63)" stroke="none" stroke-width="1px">300k</text><text x="181.33333333333331" y="0" dx="0em" dy="0.95em" style="text-anchor: middle; visibility: hidden; font-family: &quot;Helvetica Neue&quot;, sans-serif; font-size: 12px; font-weight: 200;" fill="rgb(50, 49, 63)" stroke="none" stroke-width="1px">350k</text><text x="204" y="0" dx="0em" dy="0.95em" style="text-anchor: middle; visibility: inherit; font-family: &quot;Helvetica Neue&quot;, sans-serif; font-size: 12px; font-weight: 200;" fill="rgb(50, 49, 63)" stroke="none" stroke-width="1px">400k</text><text x="226.66666666666669" y="0" dx="0em" dy="0.95em" style="text-anchor: middle; visibility: hidden; font-family: &quot;Helvetica Neue&quot;, sans-serif; font-size: 12px; font-weight: 200;" fill="rgb(50, 49, 63)" stroke="none" stroke-width="1px">450k</text><text x="249.33333333333331" y="0" dx="0em" dy="0.95em" style="text-anchor: middle; visibility: inherit; font-family: &quot;Helvetica Neue&quot;, sans-serif; font-size: 12px; font-weight: 200;" fill="rgb(50, 49, 63)" stroke="none" stroke-width="1px">500k</text><text x="272" y="0" dx="0em" dy="0.95em" style="text-anchor: middle; visibility: hidden; font-family: &quot;Helvetica Neue&quot;, sans-serif; font-size: 12px; font-weight: 200;" fill="rgb(50, 49, 63)" stroke="none" stroke-width="1px">550k</text></g><line x1="0" y1="0" x2="272" y2="0" fill="rgb(0, 0, 0)" stroke="rgb(204, 204, 204)" stroke-width="1px"></line></g></g></g></g></svg>